%TF.GenerationSoftware,KiCad,Pcbnew,7.0.7*%
%TF.CreationDate,2023-10-18T20:35:36-04:00*%
%TF.ProjectId,room_environment_monitor,726f6f6d-5f65-46e7-9669-726f6e6d656e,rev?*%
%TF.SameCoordinates,Original*%
%TF.FileFunction,Soldermask,Bot*%
%TF.FilePolarity,Negative*%
%FSLAX46Y46*%
G04 Gerber Fmt 4.6, Leading zero omitted, Abs format (unit mm)*
G04 Created by KiCad (PCBNEW 7.0.7) date 2023-10-18 20:35:36*
%MOMM*%
%LPD*%
G01*
G04 APERTURE LIST*
G04 Aperture macros list*
%AMRoundRect*
0 Rectangle with rounded corners*
0 $1 Rounding radius*
0 $2 $3 $4 $5 $6 $7 $8 $9 X,Y pos of 4 corners*
0 Add a 4 corners polygon primitive as box body*
4,1,4,$2,$3,$4,$5,$6,$7,$8,$9,$2,$3,0*
0 Add four circle primitives for the rounded corners*
1,1,$1+$1,$2,$3*
1,1,$1+$1,$4,$5*
1,1,$1+$1,$6,$7*
1,1,$1+$1,$8,$9*
0 Add four rect primitives between the rounded corners*
20,1,$1+$1,$2,$3,$4,$5,0*
20,1,$1+$1,$4,$5,$6,$7,0*
20,1,$1+$1,$6,$7,$8,$9,0*
20,1,$1+$1,$8,$9,$2,$3,0*%
G04 Aperture macros list end*
%ADD10C,2.200000*%
%ADD11O,1.066800X1.701800*%
%ADD12R,0.850000X1.600000*%
%ADD13RoundRect,0.150000X0.625000X-0.150000X0.625000X0.150000X-0.625000X0.150000X-0.625000X-0.150000X0*%
%ADD14RoundRect,0.250000X0.650000X-0.350000X0.650000X0.350000X-0.650000X0.350000X-0.650000X-0.350000X0*%
%ADD15RoundRect,0.250001X0.462499X0.624999X-0.462499X0.624999X-0.462499X-0.624999X0.462499X-0.624999X0*%
%TA.AperFunction,Profile*%
%ADD16C,0.100000*%
%TD*%
%ADD17C,0.050000*%
%ADD18C,0.152400*%
%ADD19C,0.060000*%
%ADD20C,0.150000*%
%ADD21C,0.075000*%
%ADD22C,0.100000*%
%ADD23C,0.025400*%
%ADD24C,0.508000*%
G04 APERTURE END LIST*
D10*
%TO.C,H1*%
X102500000Y-139200000D03*
%TD*%
D11*
%TO.C,P1*%
X114269999Y-143050003D03*
X105730001Y-143050003D03*
%TD*%
D10*
%TO.C,H2*%
X117500000Y-139200000D03*
%TD*%
%TO.C,H3*%
X103500000Y-72500000D03*
%TD*%
D12*
%TO.C,D4*%
X110875000Y-97600000D03*
X109125000Y-97600000D03*
X109125000Y-94100000D03*
X110875000Y-94100000D03*
%TD*%
D13*
%TO.C,J3*%
X100250000Y-87400000D03*
X100250000Y-86400000D03*
X100250000Y-85400000D03*
X100250000Y-84400000D03*
X100250000Y-83400000D03*
X100250000Y-82400000D03*
D14*
X96375000Y-88700000D03*
X96375000Y-81100000D03*
%TD*%
D12*
%TO.C,D3*%
X110875000Y-85800000D03*
X109125000Y-85800000D03*
X109125000Y-82300000D03*
X110875000Y-82300000D03*
%TD*%
%TO.C,D5*%
X110875000Y-109350000D03*
X109125000Y-109350000D03*
X109125000Y-105850000D03*
X110875000Y-105850000D03*
%TD*%
D15*
%TO.C,D6*%
X111500000Y-75750000D03*
X108525000Y-75750000D03*
%TD*%
D16*
X120000000Y-70000000D02*
X120000000Y-85250000D01*
X103300000Y-144500000D02*
X103300000Y-141500000D01*
X120000000Y-85250000D02*
X130000000Y-85250000D01*
X100000000Y-70000000D02*
X120000000Y-70000000D01*
X100000000Y-75800000D02*
X100000000Y-70000000D01*
X100000000Y-97750000D02*
X94500000Y-97750000D01*
X120000000Y-97750000D02*
X120000000Y-141500000D01*
X130000000Y-85250000D02*
X130000000Y-97750000D01*
X116700000Y-144500000D02*
X103300000Y-144500000D01*
X103300000Y-141500000D02*
X100000000Y-141500000D01*
X116700000Y-141500000D02*
X116700000Y-144500000D01*
X100000000Y-141500000D02*
X100000000Y-97750000D01*
X130000000Y-97750000D02*
X120000000Y-97750000D01*
X94500000Y-75800000D02*
X100000000Y-75800000D01*
X94500000Y-75800000D02*
X94500000Y-97750000D01*
X120000000Y-141500000D02*
X116700000Y-141500000D01*
D17*
%TO.C,R3*%
X116270000Y-93480000D02*
X116270000Y-90520000D01*
X117730000Y-93480000D02*
X116270000Y-93480000D01*
X116270000Y-90520000D02*
X117730000Y-90520000D01*
X117730000Y-90520000D02*
X117730000Y-93480000D01*
%TO.C,R9*%
X112980000Y-71770000D02*
X112980000Y-74730000D01*
X111520000Y-71770000D02*
X112980000Y-71770000D01*
X112980000Y-74730000D02*
X111520000Y-74730000D01*
X111520000Y-74730000D02*
X111520000Y-71770000D01*
%TO.C,R13*%
X111230000Y-71770000D02*
X111230000Y-74730000D01*
X109770000Y-71770000D02*
X111230000Y-71770000D01*
X111230000Y-74730000D02*
X109770000Y-74730000D01*
X109770000Y-74730000D02*
X109770000Y-71770000D01*
%TO.C,R8*%
X110480000Y-80230000D02*
X107520000Y-80230000D01*
X110480000Y-78770000D02*
X110480000Y-80230000D01*
X107520000Y-80230000D02*
X107520000Y-78770000D01*
X107520000Y-78770000D02*
X110480000Y-78770000D01*
%TO.C,C1*%
X104445000Y-92270000D02*
X107405000Y-92270000D01*
X104445000Y-93730000D02*
X104445000Y-92270000D01*
X107405000Y-92270000D02*
X107405000Y-93730000D01*
X107405000Y-93730000D02*
X104445000Y-93730000D01*
%TO.C,H1*%
X104650000Y-139200000D02*
G75*
G03*
X104650000Y-139200000I-2150000J0D01*
G01*
%TO.C,C2*%
X108520000Y-88520000D02*
X111480000Y-88520000D01*
X108520000Y-89980000D02*
X108520000Y-88520000D01*
X111480000Y-88520000D02*
X111480000Y-89980000D01*
X111480000Y-89980000D02*
X108520000Y-89980000D01*
%TO.C,Q3*%
X119642500Y-91550000D02*
X119642500Y-94950000D01*
X119642500Y-94950000D02*
X123482500Y-94950000D01*
X123482500Y-91550000D02*
X119642500Y-91550000D01*
X123482500Y-94950000D02*
X123482500Y-91550000D01*
%TO.C,U5*%
X105875000Y-136675000D02*
X109275000Y-136675000D01*
X109275000Y-136675000D02*
X109275000Y-132575000D01*
X105875000Y-132575000D02*
X105875000Y-136675000D01*
X109275000Y-132575000D02*
X105875000Y-132575000D01*
%TO.C,R11*%
X107520000Y-82270000D02*
X110480000Y-82270000D01*
X107520000Y-83730000D02*
X107520000Y-82270000D01*
X110480000Y-82270000D02*
X110480000Y-83730000D01*
X110480000Y-83730000D02*
X107520000Y-83730000D01*
%TO.C,U4*%
X112985000Y-93485000D02*
X112985000Y-90665000D01*
X116065000Y-93485000D02*
X112985000Y-93485000D01*
X112985000Y-90665000D02*
X116065000Y-90665000D01*
X116065000Y-90665000D02*
X116065000Y-93485000D01*
%TO.C,TP4*%
X110900000Y-130100000D02*
G75*
G03*
X110900000Y-130100000I-1000000J0D01*
G01*
D18*
%TO.C,U3*%
X108318201Y-93834200D02*
X108318201Y-93529400D01*
X110781801Y-93834200D02*
X108318201Y-93834200D01*
X110781801Y-93834200D02*
X110781801Y-93529400D01*
X108076801Y-93529400D02*
X108076801Y-90583000D01*
X108318201Y-93529400D02*
X108076801Y-93529400D01*
X111023201Y-93529400D02*
X110781801Y-93529400D01*
X108076801Y-90583000D02*
X108318201Y-90583000D01*
X110781801Y-90583000D02*
X111023201Y-90583000D01*
X111023201Y-90583000D02*
X111023201Y-93529400D01*
X108318201Y-90278200D02*
X108318201Y-90583000D01*
X108318201Y-90278200D02*
X110781801Y-90278200D01*
X110781801Y-90278200D02*
X110781801Y-90583000D01*
D17*
%TO.C,H2*%
X119650000Y-139200000D02*
G75*
G03*
X119650000Y-139200000I-2150000J0D01*
G01*
%TO.C,C7*%
X112480000Y-81770000D02*
X112480000Y-84730000D01*
X111020000Y-81770000D02*
X112480000Y-81770000D01*
X112480000Y-84730000D02*
X111020000Y-84730000D01*
X111020000Y-84730000D02*
X111020000Y-81770000D01*
%TO.C,H3*%
X105650000Y-72500000D02*
G75*
G03*
X105650000Y-72500000I-2150000J0D01*
G01*
%TO.C,R15*%
X111770000Y-136605000D02*
X111770000Y-133645000D01*
X113230000Y-136605000D02*
X111770000Y-136605000D01*
X111770000Y-133645000D02*
X113230000Y-133645000D01*
X113230000Y-133645000D02*
X113230000Y-136605000D01*
%TO.C,U2*%
X88900000Y-91700000D02*
X88900000Y-78100000D01*
X105900000Y-91700000D02*
X88900000Y-91700000D01*
X88900000Y-78100000D02*
X105900000Y-78100000D01*
X105900000Y-78100000D02*
X105900000Y-91700000D01*
D18*
%TO.C,J2*%
X118608200Y-76002199D02*
X112715400Y-76002199D01*
X112715400Y-76002199D02*
X112715400Y-87497801D01*
X118608200Y-87497801D02*
X118608200Y-76002199D01*
X112715400Y-87497801D02*
X118608200Y-87497801D01*
D17*
%TO.C,TP2*%
X118600000Y-74300000D02*
G75*
G03*
X118600000Y-74300000I-1000000J0D01*
G01*
%TO.C,C11*%
X105845000Y-130895000D02*
X108805000Y-130895000D01*
X105845000Y-132355000D02*
X105845000Y-130895000D01*
X108805000Y-130895000D02*
X108805000Y-132355000D01*
X108805000Y-132355000D02*
X105845000Y-132355000D01*
%TO.C,D7*%
X111375000Y-137370000D02*
X111375000Y-137930000D01*
X111375000Y-137930000D02*
X111575000Y-137930000D01*
X111575000Y-137200000D02*
X112675000Y-137200000D01*
X111575000Y-137370000D02*
X111375000Y-137370000D01*
X111575000Y-137370000D02*
X111575000Y-137200000D01*
X111575000Y-138100000D02*
X111575000Y-137930000D01*
X112675000Y-137200000D02*
X112675000Y-137370000D01*
X112675000Y-137370000D02*
X112875000Y-137370000D01*
X112675000Y-137930000D02*
X112675000Y-138100000D01*
X112675000Y-138100000D02*
X111575000Y-138100000D01*
X112875000Y-137370000D02*
X112875000Y-137930000D01*
X112875000Y-137930000D02*
X112675000Y-137930000D01*
%TO.C,R12*%
X109480000Y-71770000D02*
X109480000Y-74730000D01*
X108020000Y-71770000D02*
X109480000Y-71770000D01*
X109480000Y-74730000D02*
X108020000Y-74730000D01*
X108020000Y-74730000D02*
X108020000Y-71770000D01*
%TO.C,R14*%
X106270000Y-74767500D02*
X106270000Y-71807500D01*
X107730000Y-74767500D02*
X106270000Y-74767500D01*
X106270000Y-71807500D02*
X107730000Y-71807500D01*
X107730000Y-71807500D02*
X107730000Y-74767500D01*
%TO.C,R10*%
X107520000Y-80520000D02*
X110480000Y-80520000D01*
X107520000Y-81980000D02*
X107520000Y-80520000D01*
X110480000Y-80520000D02*
X110480000Y-81980000D01*
X110480000Y-81980000D02*
X107520000Y-81980000D01*
%TO.C,R1*%
X107405000Y-95480000D02*
X104445000Y-95480000D01*
X107405000Y-94020000D02*
X107405000Y-95480000D01*
X104445000Y-95480000D02*
X104445000Y-94020000D01*
X104445000Y-94020000D02*
X107405000Y-94020000D01*
%TO.C,R20*%
X109770000Y-136605000D02*
X109770000Y-133645000D01*
X111230000Y-136605000D02*
X109770000Y-136605000D01*
X109770000Y-133645000D02*
X111230000Y-133645000D01*
X111230000Y-133645000D02*
X111230000Y-136605000D01*
%TO.C,D2*%
X100845000Y-134855000D02*
X100845000Y-131895000D01*
X102305000Y-134855000D02*
X100845000Y-134855000D01*
X100845000Y-131895000D02*
X102305000Y-131895000D01*
X102305000Y-131895000D02*
X102305000Y-134855000D01*
%TO.C,C10*%
X104095000Y-136605000D02*
X104095000Y-133645000D01*
X105555000Y-136605000D02*
X104095000Y-136605000D01*
X104095000Y-133645000D02*
X105555000Y-133645000D01*
X105555000Y-133645000D02*
X105555000Y-136605000D01*
%TO.C,R5*%
X99080000Y-77730000D02*
X96120000Y-77730000D01*
X99080000Y-76270000D02*
X99080000Y-77730000D01*
X96120000Y-77730000D02*
X96120000Y-76270000D01*
X96120000Y-76270000D02*
X99080000Y-76270000D01*
%TO.C,J1*%
X123675000Y-96245000D02*
X129575000Y-96245000D01*
X129575000Y-96245000D02*
X129575000Y-86805000D01*
X123675000Y-86805000D02*
X123675000Y-96245000D01*
X129575000Y-86805000D02*
X123675000Y-86805000D01*
%TO.C,R6*%
X99520000Y-76270000D02*
X102480000Y-76270000D01*
X99520000Y-77730000D02*
X99520000Y-76270000D01*
X102480000Y-76270000D02*
X102480000Y-77730000D01*
X102480000Y-77730000D02*
X99520000Y-77730000D01*
%TO.C,R16*%
X112330000Y-76095000D02*
X112330000Y-79055000D01*
X110870000Y-76095000D02*
X112330000Y-76095000D01*
X112330000Y-79055000D02*
X110870000Y-79055000D01*
X110870000Y-79055000D02*
X110870000Y-76095000D01*
%TO.C,C5*%
X115980000Y-95230000D02*
X113020000Y-95230000D01*
X115980000Y-93770000D02*
X115980000Y-95230000D01*
X113020000Y-95230000D02*
X113020000Y-93770000D01*
X113020000Y-93770000D02*
X115980000Y-93770000D01*
%TO.C,SW1*%
X104150000Y-95600000D02*
X98550000Y-95600000D01*
X104150000Y-92000000D02*
X104150000Y-95600000D01*
X98550000Y-95600000D02*
X98550000Y-92000000D01*
X98550000Y-92000000D02*
X104150000Y-92000000D01*
%TO.C,R2*%
X105555000Y-133355000D02*
X102595000Y-133355000D01*
X105555000Y-131895000D02*
X105555000Y-133355000D01*
X102595000Y-133355000D02*
X102595000Y-131895000D01*
X102595000Y-131895000D02*
X105555000Y-131895000D01*
%TO.C,C4*%
X109480000Y-94020000D02*
X109480000Y-96980000D01*
X108020000Y-94020000D02*
X109480000Y-94020000D01*
X109480000Y-96980000D02*
X108020000Y-96980000D01*
X108020000Y-96980000D02*
X108020000Y-94020000D01*
%TO.C,R4*%
X109770000Y-96980000D02*
X109770000Y-94020000D01*
X111230000Y-96980000D02*
X109770000Y-96980000D01*
X109770000Y-94020000D02*
X111230000Y-94020000D01*
X111230000Y-94020000D02*
X111230000Y-96980000D01*
%TO.C,C3*%
X98130000Y-92320000D02*
X98130000Y-95280000D01*
X96670000Y-92320000D02*
X98130000Y-92320000D01*
X98130000Y-95280000D02*
X96670000Y-95280000D01*
X96670000Y-95280000D02*
X96670000Y-92320000D01*
%TO.C,TP3*%
X116200000Y-74300000D02*
G75*
G03*
X116200000Y-74300000I-1000000J0D01*
G01*
%TO.C,C6*%
X96330000Y-92320000D02*
X96330000Y-95280000D01*
X94870000Y-92320000D02*
X96330000Y-92320000D01*
X96330000Y-95280000D02*
X94870000Y-95280000D01*
X94870000Y-95280000D02*
X94870000Y-92320000D01*
%TO.C,D1*%
X123425000Y-86950000D02*
X121125000Y-86950000D01*
X123425000Y-86950000D02*
X123425000Y-91350000D01*
X123425000Y-91350000D02*
X121125000Y-91350000D01*
X121125000Y-91350000D02*
X121125000Y-86950000D01*
%TO.C,R7*%
X102920000Y-76270000D02*
X105880000Y-76270000D01*
X102920000Y-77730000D02*
X102920000Y-76270000D01*
X105880000Y-76270000D02*
X105880000Y-77730000D01*
X105880000Y-77730000D02*
X102920000Y-77730000D01*
%TO.C,TP1*%
X121000000Y-90000000D02*
G75*
G03*
X121000000Y-90000000I-1000000J0D01*
G01*
%TO.C,Q1*%
X106642500Y-75050000D02*
X106642500Y-78450000D01*
X106642500Y-78450000D02*
X110482500Y-78450000D01*
X110482500Y-75050000D02*
X106642500Y-75050000D01*
X110482500Y-78450000D02*
X110482500Y-75050000D01*
%TD*%
D19*
X117181927Y-92066666D02*
X116991451Y-92199999D01*
X117181927Y-92295237D02*
X116781927Y-92295237D01*
X116781927Y-92295237D02*
X116781927Y-92142856D01*
X116781927Y-92142856D02*
X116800975Y-92104761D01*
X116800975Y-92104761D02*
X116820022Y-92085714D01*
X116820022Y-92085714D02*
X116858118Y-92066666D01*
X116858118Y-92066666D02*
X116915260Y-92066666D01*
X116915260Y-92066666D02*
X116953356Y-92085714D01*
X116953356Y-92085714D02*
X116972403Y-92104761D01*
X116972403Y-92104761D02*
X116991451Y-92142856D01*
X116991451Y-92142856D02*
X116991451Y-92295237D01*
X116781927Y-91933333D02*
X116781927Y-91685714D01*
X116781927Y-91685714D02*
X116934308Y-91819047D01*
X116934308Y-91819047D02*
X116934308Y-91761904D01*
X116934308Y-91761904D02*
X116953356Y-91723809D01*
X116953356Y-91723809D02*
X116972403Y-91704761D01*
X116972403Y-91704761D02*
X117010499Y-91685714D01*
X117010499Y-91685714D02*
X117105737Y-91685714D01*
X117105737Y-91685714D02*
X117143832Y-91704761D01*
X117143832Y-91704761D02*
X117162880Y-91723809D01*
X117162880Y-91723809D02*
X117181927Y-91761904D01*
X117181927Y-91761904D02*
X117181927Y-91876190D01*
X117181927Y-91876190D02*
X117162880Y-91914285D01*
X117162880Y-91914285D02*
X117143832Y-91933333D01*
X112431927Y-73316666D02*
X112241451Y-73449999D01*
X112431927Y-73545237D02*
X112031927Y-73545237D01*
X112031927Y-73545237D02*
X112031927Y-73392856D01*
X112031927Y-73392856D02*
X112050975Y-73354761D01*
X112050975Y-73354761D02*
X112070022Y-73335714D01*
X112070022Y-73335714D02*
X112108118Y-73316666D01*
X112108118Y-73316666D02*
X112165260Y-73316666D01*
X112165260Y-73316666D02*
X112203356Y-73335714D01*
X112203356Y-73335714D02*
X112222403Y-73354761D01*
X112222403Y-73354761D02*
X112241451Y-73392856D01*
X112241451Y-73392856D02*
X112241451Y-73545237D01*
X112431927Y-73126190D02*
X112431927Y-73049999D01*
X112431927Y-73049999D02*
X112412880Y-73011904D01*
X112412880Y-73011904D02*
X112393832Y-72992856D01*
X112393832Y-72992856D02*
X112336689Y-72954761D01*
X112336689Y-72954761D02*
X112260499Y-72935714D01*
X112260499Y-72935714D02*
X112108118Y-72935714D01*
X112108118Y-72935714D02*
X112070022Y-72954761D01*
X112070022Y-72954761D02*
X112050975Y-72973809D01*
X112050975Y-72973809D02*
X112031927Y-73011904D01*
X112031927Y-73011904D02*
X112031927Y-73088095D01*
X112031927Y-73088095D02*
X112050975Y-73126190D01*
X112050975Y-73126190D02*
X112070022Y-73145237D01*
X112070022Y-73145237D02*
X112108118Y-73164285D01*
X112108118Y-73164285D02*
X112203356Y-73164285D01*
X112203356Y-73164285D02*
X112241451Y-73145237D01*
X112241451Y-73145237D02*
X112260499Y-73126190D01*
X112260499Y-73126190D02*
X112279546Y-73088095D01*
X112279546Y-73088095D02*
X112279546Y-73011904D01*
X112279546Y-73011904D02*
X112260499Y-72973809D01*
X112260499Y-72973809D02*
X112241451Y-72954761D01*
X112241451Y-72954761D02*
X112203356Y-72935714D01*
X110681927Y-73507142D02*
X110491451Y-73640475D01*
X110681927Y-73735713D02*
X110281927Y-73735713D01*
X110281927Y-73735713D02*
X110281927Y-73583332D01*
X110281927Y-73583332D02*
X110300975Y-73545237D01*
X110300975Y-73545237D02*
X110320022Y-73526190D01*
X110320022Y-73526190D02*
X110358118Y-73507142D01*
X110358118Y-73507142D02*
X110415260Y-73507142D01*
X110415260Y-73507142D02*
X110453356Y-73526190D01*
X110453356Y-73526190D02*
X110472403Y-73545237D01*
X110472403Y-73545237D02*
X110491451Y-73583332D01*
X110491451Y-73583332D02*
X110491451Y-73735713D01*
X110681927Y-73126190D02*
X110681927Y-73354761D01*
X110681927Y-73240475D02*
X110281927Y-73240475D01*
X110281927Y-73240475D02*
X110339070Y-73278571D01*
X110339070Y-73278571D02*
X110377165Y-73316666D01*
X110377165Y-73316666D02*
X110396213Y-73354761D01*
X110281927Y-72992857D02*
X110281927Y-72745238D01*
X110281927Y-72745238D02*
X110434308Y-72878571D01*
X110434308Y-72878571D02*
X110434308Y-72821428D01*
X110434308Y-72821428D02*
X110453356Y-72783333D01*
X110453356Y-72783333D02*
X110472403Y-72764285D01*
X110472403Y-72764285D02*
X110510499Y-72745238D01*
X110510499Y-72745238D02*
X110605737Y-72745238D01*
X110605737Y-72745238D02*
X110643832Y-72764285D01*
X110643832Y-72764285D02*
X110662880Y-72783333D01*
X110662880Y-72783333D02*
X110681927Y-72821428D01*
X110681927Y-72821428D02*
X110681927Y-72935714D01*
X110681927Y-72935714D02*
X110662880Y-72973809D01*
X110662880Y-72973809D02*
X110643832Y-72992857D01*
X108933333Y-79681927D02*
X108800000Y-79491451D01*
X108704762Y-79681927D02*
X108704762Y-79281927D01*
X108704762Y-79281927D02*
X108857143Y-79281927D01*
X108857143Y-79281927D02*
X108895238Y-79300975D01*
X108895238Y-79300975D02*
X108914285Y-79320022D01*
X108914285Y-79320022D02*
X108933333Y-79358118D01*
X108933333Y-79358118D02*
X108933333Y-79415260D01*
X108933333Y-79415260D02*
X108914285Y-79453356D01*
X108914285Y-79453356D02*
X108895238Y-79472403D01*
X108895238Y-79472403D02*
X108857143Y-79491451D01*
X108857143Y-79491451D02*
X108704762Y-79491451D01*
X109161904Y-79453356D02*
X109123809Y-79434308D01*
X109123809Y-79434308D02*
X109104762Y-79415260D01*
X109104762Y-79415260D02*
X109085714Y-79377165D01*
X109085714Y-79377165D02*
X109085714Y-79358118D01*
X109085714Y-79358118D02*
X109104762Y-79320022D01*
X109104762Y-79320022D02*
X109123809Y-79300975D01*
X109123809Y-79300975D02*
X109161904Y-79281927D01*
X109161904Y-79281927D02*
X109238095Y-79281927D01*
X109238095Y-79281927D02*
X109276190Y-79300975D01*
X109276190Y-79300975D02*
X109295238Y-79320022D01*
X109295238Y-79320022D02*
X109314285Y-79358118D01*
X109314285Y-79358118D02*
X109314285Y-79377165D01*
X109314285Y-79377165D02*
X109295238Y-79415260D01*
X109295238Y-79415260D02*
X109276190Y-79434308D01*
X109276190Y-79434308D02*
X109238095Y-79453356D01*
X109238095Y-79453356D02*
X109161904Y-79453356D01*
X109161904Y-79453356D02*
X109123809Y-79472403D01*
X109123809Y-79472403D02*
X109104762Y-79491451D01*
X109104762Y-79491451D02*
X109085714Y-79529546D01*
X109085714Y-79529546D02*
X109085714Y-79605737D01*
X109085714Y-79605737D02*
X109104762Y-79643832D01*
X109104762Y-79643832D02*
X109123809Y-79662880D01*
X109123809Y-79662880D02*
X109161904Y-79681927D01*
X109161904Y-79681927D02*
X109238095Y-79681927D01*
X109238095Y-79681927D02*
X109276190Y-79662880D01*
X109276190Y-79662880D02*
X109295238Y-79643832D01*
X109295238Y-79643832D02*
X109314285Y-79605737D01*
X109314285Y-79605737D02*
X109314285Y-79529546D01*
X109314285Y-79529546D02*
X109295238Y-79491451D01*
X109295238Y-79491451D02*
X109276190Y-79472403D01*
X109276190Y-79472403D02*
X109238095Y-79453356D01*
X105858333Y-93143832D02*
X105839285Y-93162880D01*
X105839285Y-93162880D02*
X105782143Y-93181927D01*
X105782143Y-93181927D02*
X105744047Y-93181927D01*
X105744047Y-93181927D02*
X105686904Y-93162880D01*
X105686904Y-93162880D02*
X105648809Y-93124784D01*
X105648809Y-93124784D02*
X105629762Y-93086689D01*
X105629762Y-93086689D02*
X105610714Y-93010499D01*
X105610714Y-93010499D02*
X105610714Y-92953356D01*
X105610714Y-92953356D02*
X105629762Y-92877165D01*
X105629762Y-92877165D02*
X105648809Y-92839070D01*
X105648809Y-92839070D02*
X105686904Y-92800975D01*
X105686904Y-92800975D02*
X105744047Y-92781927D01*
X105744047Y-92781927D02*
X105782143Y-92781927D01*
X105782143Y-92781927D02*
X105839285Y-92800975D01*
X105839285Y-92800975D02*
X105858333Y-92820022D01*
X106239285Y-93181927D02*
X106010714Y-93181927D01*
X106125000Y-93181927D02*
X106125000Y-92781927D01*
X106125000Y-92781927D02*
X106086904Y-92839070D01*
X106086904Y-92839070D02*
X106048809Y-92877165D01*
X106048809Y-92877165D02*
X106010714Y-92896213D01*
D20*
X101738095Y-139654819D02*
X101738095Y-138654819D01*
X101738095Y-139131009D02*
X102309523Y-139131009D01*
X102309523Y-139654819D02*
X102309523Y-138654819D01*
X103309523Y-139654819D02*
X102738095Y-139654819D01*
X103023809Y-139654819D02*
X103023809Y-138654819D01*
X103023809Y-138654819D02*
X102928571Y-138797676D01*
X102928571Y-138797676D02*
X102833333Y-138892914D01*
X102833333Y-138892914D02*
X102738095Y-138940533D01*
D19*
X109933333Y-89393832D02*
X109914285Y-89412880D01*
X109914285Y-89412880D02*
X109857143Y-89431927D01*
X109857143Y-89431927D02*
X109819047Y-89431927D01*
X109819047Y-89431927D02*
X109761904Y-89412880D01*
X109761904Y-89412880D02*
X109723809Y-89374784D01*
X109723809Y-89374784D02*
X109704762Y-89336689D01*
X109704762Y-89336689D02*
X109685714Y-89260499D01*
X109685714Y-89260499D02*
X109685714Y-89203356D01*
X109685714Y-89203356D02*
X109704762Y-89127165D01*
X109704762Y-89127165D02*
X109723809Y-89089070D01*
X109723809Y-89089070D02*
X109761904Y-89050975D01*
X109761904Y-89050975D02*
X109819047Y-89031927D01*
X109819047Y-89031927D02*
X109857143Y-89031927D01*
X109857143Y-89031927D02*
X109914285Y-89050975D01*
X109914285Y-89050975D02*
X109933333Y-89070022D01*
X110085714Y-89070022D02*
X110104762Y-89050975D01*
X110104762Y-89050975D02*
X110142857Y-89031927D01*
X110142857Y-89031927D02*
X110238095Y-89031927D01*
X110238095Y-89031927D02*
X110276190Y-89050975D01*
X110276190Y-89050975D02*
X110295238Y-89070022D01*
X110295238Y-89070022D02*
X110314285Y-89108118D01*
X110314285Y-89108118D02*
X110314285Y-89146213D01*
X110314285Y-89146213D02*
X110295238Y-89203356D01*
X110295238Y-89203356D02*
X110066666Y-89431927D01*
X110066666Y-89431927D02*
X110314285Y-89431927D01*
X107356927Y-134929761D02*
X107680737Y-134929761D01*
X107680737Y-134929761D02*
X107718832Y-134910714D01*
X107718832Y-134910714D02*
X107737880Y-134891666D01*
X107737880Y-134891666D02*
X107756927Y-134853571D01*
X107756927Y-134853571D02*
X107756927Y-134777380D01*
X107756927Y-134777380D02*
X107737880Y-134739285D01*
X107737880Y-134739285D02*
X107718832Y-134720238D01*
X107718832Y-134720238D02*
X107680737Y-134701190D01*
X107680737Y-134701190D02*
X107356927Y-134701190D01*
X107356927Y-134320237D02*
X107356927Y-134510713D01*
X107356927Y-134510713D02*
X107547403Y-134529761D01*
X107547403Y-134529761D02*
X107528356Y-134510713D01*
X107528356Y-134510713D02*
X107509308Y-134472618D01*
X107509308Y-134472618D02*
X107509308Y-134377380D01*
X107509308Y-134377380D02*
X107528356Y-134339285D01*
X107528356Y-134339285D02*
X107547403Y-134320237D01*
X107547403Y-134320237D02*
X107585499Y-134301190D01*
X107585499Y-134301190D02*
X107680737Y-134301190D01*
X107680737Y-134301190D02*
X107718832Y-134320237D01*
X107718832Y-134320237D02*
X107737880Y-134339285D01*
X107737880Y-134339285D02*
X107756927Y-134377380D01*
X107756927Y-134377380D02*
X107756927Y-134472618D01*
X107756927Y-134472618D02*
X107737880Y-134510713D01*
X107737880Y-134510713D02*
X107718832Y-134529761D01*
X108742857Y-83181927D02*
X108609524Y-82991451D01*
X108514286Y-83181927D02*
X108514286Y-82781927D01*
X108514286Y-82781927D02*
X108666667Y-82781927D01*
X108666667Y-82781927D02*
X108704762Y-82800975D01*
X108704762Y-82800975D02*
X108723809Y-82820022D01*
X108723809Y-82820022D02*
X108742857Y-82858118D01*
X108742857Y-82858118D02*
X108742857Y-82915260D01*
X108742857Y-82915260D02*
X108723809Y-82953356D01*
X108723809Y-82953356D02*
X108704762Y-82972403D01*
X108704762Y-82972403D02*
X108666667Y-82991451D01*
X108666667Y-82991451D02*
X108514286Y-82991451D01*
X109123809Y-83181927D02*
X108895238Y-83181927D01*
X109009524Y-83181927D02*
X109009524Y-82781927D01*
X109009524Y-82781927D02*
X108971428Y-82839070D01*
X108971428Y-82839070D02*
X108933333Y-82877165D01*
X108933333Y-82877165D02*
X108895238Y-82896213D01*
X109504761Y-83181927D02*
X109276190Y-83181927D01*
X109390476Y-83181927D02*
X109390476Y-82781927D01*
X109390476Y-82781927D02*
X109352380Y-82839070D01*
X109352380Y-82839070D02*
X109314285Y-82877165D01*
X109314285Y-82877165D02*
X109276190Y-82896213D01*
D20*
X110738094Y-141795182D02*
X110738094Y-142795182D01*
X110738094Y-142795182D02*
X110357142Y-142795182D01*
X110357142Y-142795182D02*
X110261904Y-142747563D01*
X110261904Y-142747563D02*
X110214285Y-142699944D01*
X110214285Y-142699944D02*
X110166666Y-142604706D01*
X110166666Y-142604706D02*
X110166666Y-142461849D01*
X110166666Y-142461849D02*
X110214285Y-142366611D01*
X110214285Y-142366611D02*
X110261904Y-142318992D01*
X110261904Y-142318992D02*
X110357142Y-142271373D01*
X110357142Y-142271373D02*
X110738094Y-142271373D01*
X109214285Y-141795182D02*
X109785713Y-141795182D01*
X109499999Y-141795182D02*
X109499999Y-142795182D01*
X109499999Y-142795182D02*
X109595237Y-142652325D01*
X109595237Y-142652325D02*
X109690475Y-142557087D01*
X109690475Y-142557087D02*
X109785713Y-142509468D01*
D21*
X114252409Y-92455952D02*
X114657171Y-92455952D01*
X114657171Y-92455952D02*
X114704790Y-92432142D01*
X114704790Y-92432142D02*
X114728600Y-92408333D01*
X114728600Y-92408333D02*
X114752409Y-92360714D01*
X114752409Y-92360714D02*
X114752409Y-92265476D01*
X114752409Y-92265476D02*
X114728600Y-92217857D01*
X114728600Y-92217857D02*
X114704790Y-92194047D01*
X114704790Y-92194047D02*
X114657171Y-92170238D01*
X114657171Y-92170238D02*
X114252409Y-92170238D01*
X114419076Y-91717856D02*
X114752409Y-91717856D01*
X114228600Y-91836904D02*
X114585742Y-91955951D01*
X114585742Y-91955951D02*
X114585742Y-91646428D01*
D20*
X109004820Y-92818104D02*
X109814343Y-92818104D01*
X109814343Y-92818104D02*
X109909581Y-92770485D01*
X109909581Y-92770485D02*
X109957201Y-92722866D01*
X109957201Y-92722866D02*
X110004820Y-92627628D01*
X110004820Y-92627628D02*
X110004820Y-92437152D01*
X110004820Y-92437152D02*
X109957201Y-92341914D01*
X109957201Y-92341914D02*
X109909581Y-92294295D01*
X109909581Y-92294295D02*
X109814343Y-92246676D01*
X109814343Y-92246676D02*
X109004820Y-92246676D01*
X109004820Y-91865723D02*
X109004820Y-91246676D01*
X109004820Y-91246676D02*
X109385772Y-91580009D01*
X109385772Y-91580009D02*
X109385772Y-91437152D01*
X109385772Y-91437152D02*
X109433391Y-91341914D01*
X109433391Y-91341914D02*
X109481010Y-91294295D01*
X109481010Y-91294295D02*
X109576248Y-91246676D01*
X109576248Y-91246676D02*
X109814343Y-91246676D01*
X109814343Y-91246676D02*
X109909581Y-91294295D01*
X109909581Y-91294295D02*
X109957201Y-91341914D01*
X109957201Y-91341914D02*
X110004820Y-91437152D01*
X110004820Y-91437152D02*
X110004820Y-91722866D01*
X110004820Y-91722866D02*
X109957201Y-91818104D01*
X109957201Y-91818104D02*
X109909581Y-91865723D01*
X116738095Y-139654819D02*
X116738095Y-138654819D01*
X116738095Y-139131009D02*
X117309523Y-139131009D01*
X117309523Y-139654819D02*
X117309523Y-138654819D01*
X117738095Y-138750057D02*
X117785714Y-138702438D01*
X117785714Y-138702438D02*
X117880952Y-138654819D01*
X117880952Y-138654819D02*
X118119047Y-138654819D01*
X118119047Y-138654819D02*
X118214285Y-138702438D01*
X118214285Y-138702438D02*
X118261904Y-138750057D01*
X118261904Y-138750057D02*
X118309523Y-138845295D01*
X118309523Y-138845295D02*
X118309523Y-138940533D01*
X118309523Y-138940533D02*
X118261904Y-139083390D01*
X118261904Y-139083390D02*
X117690476Y-139654819D01*
X117690476Y-139654819D02*
X118309523Y-139654819D01*
X102738095Y-72954819D02*
X102738095Y-71954819D01*
X102738095Y-72431009D02*
X103309523Y-72431009D01*
X103309523Y-72954819D02*
X103309523Y-71954819D01*
X103690476Y-71954819D02*
X104309523Y-71954819D01*
X104309523Y-71954819D02*
X103976190Y-72335771D01*
X103976190Y-72335771D02*
X104119047Y-72335771D01*
X104119047Y-72335771D02*
X104214285Y-72383390D01*
X104214285Y-72383390D02*
X104261904Y-72431009D01*
X104261904Y-72431009D02*
X104309523Y-72526247D01*
X104309523Y-72526247D02*
X104309523Y-72764342D01*
X104309523Y-72764342D02*
X104261904Y-72859580D01*
X104261904Y-72859580D02*
X104214285Y-72907200D01*
X104214285Y-72907200D02*
X104119047Y-72954819D01*
X104119047Y-72954819D02*
X103833333Y-72954819D01*
X103833333Y-72954819D02*
X103738095Y-72907200D01*
X103738095Y-72907200D02*
X103690476Y-72859580D01*
D19*
X112681927Y-135382142D02*
X112491451Y-135515475D01*
X112681927Y-135610713D02*
X112281927Y-135610713D01*
X112281927Y-135610713D02*
X112281927Y-135458332D01*
X112281927Y-135458332D02*
X112300975Y-135420237D01*
X112300975Y-135420237D02*
X112320022Y-135401190D01*
X112320022Y-135401190D02*
X112358118Y-135382142D01*
X112358118Y-135382142D02*
X112415260Y-135382142D01*
X112415260Y-135382142D02*
X112453356Y-135401190D01*
X112453356Y-135401190D02*
X112472403Y-135420237D01*
X112472403Y-135420237D02*
X112491451Y-135458332D01*
X112491451Y-135458332D02*
X112491451Y-135610713D01*
X112681927Y-135001190D02*
X112681927Y-135229761D01*
X112681927Y-135115475D02*
X112281927Y-135115475D01*
X112281927Y-135115475D02*
X112339070Y-135153571D01*
X112339070Y-135153571D02*
X112377165Y-135191666D01*
X112377165Y-135191666D02*
X112396213Y-135229761D01*
X112281927Y-134639285D02*
X112281927Y-134829761D01*
X112281927Y-134829761D02*
X112472403Y-134848809D01*
X112472403Y-134848809D02*
X112453356Y-134829761D01*
X112453356Y-134829761D02*
X112434308Y-134791666D01*
X112434308Y-134791666D02*
X112434308Y-134696428D01*
X112434308Y-134696428D02*
X112453356Y-134658333D01*
X112453356Y-134658333D02*
X112472403Y-134639285D01*
X112472403Y-134639285D02*
X112510499Y-134620238D01*
X112510499Y-134620238D02*
X112605737Y-134620238D01*
X112605737Y-134620238D02*
X112643832Y-134639285D01*
X112643832Y-134639285D02*
X112662880Y-134658333D01*
X112662880Y-134658333D02*
X112681927Y-134696428D01*
X112681927Y-134696428D02*
X112681927Y-134791666D01*
X112681927Y-134791666D02*
X112662880Y-134829761D01*
X112662880Y-134829761D02*
X112643832Y-134848809D01*
D20*
X99554819Y-85661904D02*
X100364342Y-85661904D01*
X100364342Y-85661904D02*
X100459580Y-85614285D01*
X100459580Y-85614285D02*
X100507200Y-85566666D01*
X100507200Y-85566666D02*
X100554819Y-85471428D01*
X100554819Y-85471428D02*
X100554819Y-85280952D01*
X100554819Y-85280952D02*
X100507200Y-85185714D01*
X100507200Y-85185714D02*
X100459580Y-85138095D01*
X100459580Y-85138095D02*
X100364342Y-85090476D01*
X100364342Y-85090476D02*
X99554819Y-85090476D01*
X99650057Y-84661904D02*
X99602438Y-84614285D01*
X99602438Y-84614285D02*
X99554819Y-84519047D01*
X99554819Y-84519047D02*
X99554819Y-84280952D01*
X99554819Y-84280952D02*
X99602438Y-84185714D01*
X99602438Y-84185714D02*
X99650057Y-84138095D01*
X99650057Y-84138095D02*
X99745295Y-84090476D01*
X99745295Y-84090476D02*
X99840533Y-84090476D01*
X99840533Y-84090476D02*
X99983390Y-84138095D01*
X99983390Y-84138095D02*
X100554819Y-84709523D01*
X100554819Y-84709523D02*
X100554819Y-84090476D01*
X115190980Y-81416666D02*
X114476695Y-81416666D01*
X114476695Y-81416666D02*
X114333838Y-81369047D01*
X114333838Y-81369047D02*
X114238600Y-81273809D01*
X114238600Y-81273809D02*
X114190980Y-81130952D01*
X114190980Y-81130952D02*
X114190980Y-81035714D01*
X115095742Y-81845238D02*
X115143361Y-81892857D01*
X115143361Y-81892857D02*
X115190980Y-81988095D01*
X115190980Y-81988095D02*
X115190980Y-82226190D01*
X115190980Y-82226190D02*
X115143361Y-82321428D01*
X115143361Y-82321428D02*
X115095742Y-82369047D01*
X115095742Y-82369047D02*
X115000504Y-82416666D01*
X115000504Y-82416666D02*
X114905266Y-82416666D01*
X114905266Y-82416666D02*
X114762409Y-82369047D01*
X114762409Y-82369047D02*
X114190980Y-81797619D01*
X114190980Y-81797619D02*
X114190980Y-82416666D01*
D19*
X107067857Y-131768832D02*
X107048809Y-131787880D01*
X107048809Y-131787880D02*
X106991667Y-131806927D01*
X106991667Y-131806927D02*
X106953571Y-131806927D01*
X106953571Y-131806927D02*
X106896428Y-131787880D01*
X106896428Y-131787880D02*
X106858333Y-131749784D01*
X106858333Y-131749784D02*
X106839286Y-131711689D01*
X106839286Y-131711689D02*
X106820238Y-131635499D01*
X106820238Y-131635499D02*
X106820238Y-131578356D01*
X106820238Y-131578356D02*
X106839286Y-131502165D01*
X106839286Y-131502165D02*
X106858333Y-131464070D01*
X106858333Y-131464070D02*
X106896428Y-131425975D01*
X106896428Y-131425975D02*
X106953571Y-131406927D01*
X106953571Y-131406927D02*
X106991667Y-131406927D01*
X106991667Y-131406927D02*
X107048809Y-131425975D01*
X107048809Y-131425975D02*
X107067857Y-131445022D01*
X107448809Y-131806927D02*
X107220238Y-131806927D01*
X107334524Y-131806927D02*
X107334524Y-131406927D01*
X107334524Y-131406927D02*
X107296428Y-131464070D01*
X107296428Y-131464070D02*
X107258333Y-131502165D01*
X107258333Y-131502165D02*
X107220238Y-131521213D01*
X107829761Y-131806927D02*
X107601190Y-131806927D01*
X107715476Y-131806927D02*
X107715476Y-131406927D01*
X107715476Y-131406927D02*
X107677380Y-131464070D01*
X107677380Y-131464070D02*
X107639285Y-131502165D01*
X107639285Y-131502165D02*
X107601190Y-131521213D01*
X107181927Y-73544642D02*
X106991451Y-73677975D01*
X107181927Y-73773213D02*
X106781927Y-73773213D01*
X106781927Y-73773213D02*
X106781927Y-73620832D01*
X106781927Y-73620832D02*
X106800975Y-73582737D01*
X106800975Y-73582737D02*
X106820022Y-73563690D01*
X106820022Y-73563690D02*
X106858118Y-73544642D01*
X106858118Y-73544642D02*
X106915260Y-73544642D01*
X106915260Y-73544642D02*
X106953356Y-73563690D01*
X106953356Y-73563690D02*
X106972403Y-73582737D01*
X106972403Y-73582737D02*
X106991451Y-73620832D01*
X106991451Y-73620832D02*
X106991451Y-73773213D01*
X107181927Y-73163690D02*
X107181927Y-73392261D01*
X107181927Y-73277975D02*
X106781927Y-73277975D01*
X106781927Y-73277975D02*
X106839070Y-73316071D01*
X106839070Y-73316071D02*
X106877165Y-73354166D01*
X106877165Y-73354166D02*
X106896213Y-73392261D01*
X106915260Y-72820833D02*
X107181927Y-72820833D01*
X106762880Y-72916071D02*
X107048594Y-73011309D01*
X107048594Y-73011309D02*
X107048594Y-72763690D01*
X108742857Y-81431927D02*
X108609524Y-81241451D01*
X108514286Y-81431927D02*
X108514286Y-81031927D01*
X108514286Y-81031927D02*
X108666667Y-81031927D01*
X108666667Y-81031927D02*
X108704762Y-81050975D01*
X108704762Y-81050975D02*
X108723809Y-81070022D01*
X108723809Y-81070022D02*
X108742857Y-81108118D01*
X108742857Y-81108118D02*
X108742857Y-81165260D01*
X108742857Y-81165260D02*
X108723809Y-81203356D01*
X108723809Y-81203356D02*
X108704762Y-81222403D01*
X108704762Y-81222403D02*
X108666667Y-81241451D01*
X108666667Y-81241451D02*
X108514286Y-81241451D01*
X109123809Y-81431927D02*
X108895238Y-81431927D01*
X109009524Y-81431927D02*
X109009524Y-81031927D01*
X109009524Y-81031927D02*
X108971428Y-81089070D01*
X108971428Y-81089070D02*
X108933333Y-81127165D01*
X108933333Y-81127165D02*
X108895238Y-81146213D01*
X109371428Y-81031927D02*
X109409523Y-81031927D01*
X109409523Y-81031927D02*
X109447619Y-81050975D01*
X109447619Y-81050975D02*
X109466666Y-81070022D01*
X109466666Y-81070022D02*
X109485714Y-81108118D01*
X109485714Y-81108118D02*
X109504761Y-81184308D01*
X109504761Y-81184308D02*
X109504761Y-81279546D01*
X109504761Y-81279546D02*
X109485714Y-81355737D01*
X109485714Y-81355737D02*
X109466666Y-81393832D01*
X109466666Y-81393832D02*
X109447619Y-81412880D01*
X109447619Y-81412880D02*
X109409523Y-81431927D01*
X109409523Y-81431927D02*
X109371428Y-81431927D01*
X109371428Y-81431927D02*
X109333333Y-81412880D01*
X109333333Y-81412880D02*
X109314285Y-81393832D01*
X109314285Y-81393832D02*
X109295238Y-81355737D01*
X109295238Y-81355737D02*
X109276190Y-81279546D01*
X109276190Y-81279546D02*
X109276190Y-81184308D01*
X109276190Y-81184308D02*
X109295238Y-81108118D01*
X109295238Y-81108118D02*
X109314285Y-81070022D01*
X109314285Y-81070022D02*
X109333333Y-81050975D01*
X109333333Y-81050975D02*
X109371428Y-81031927D01*
X105858333Y-94931927D02*
X105725000Y-94741451D01*
X105629762Y-94931927D02*
X105629762Y-94531927D01*
X105629762Y-94531927D02*
X105782143Y-94531927D01*
X105782143Y-94531927D02*
X105820238Y-94550975D01*
X105820238Y-94550975D02*
X105839285Y-94570022D01*
X105839285Y-94570022D02*
X105858333Y-94608118D01*
X105858333Y-94608118D02*
X105858333Y-94665260D01*
X105858333Y-94665260D02*
X105839285Y-94703356D01*
X105839285Y-94703356D02*
X105820238Y-94722403D01*
X105820238Y-94722403D02*
X105782143Y-94741451D01*
X105782143Y-94741451D02*
X105629762Y-94741451D01*
X106239285Y-94931927D02*
X106010714Y-94931927D01*
X106125000Y-94931927D02*
X106125000Y-94531927D01*
X106125000Y-94531927D02*
X106086904Y-94589070D01*
X106086904Y-94589070D02*
X106048809Y-94627165D01*
X106048809Y-94627165D02*
X106010714Y-94646213D01*
X110681927Y-135382142D02*
X110491451Y-135515475D01*
X110681927Y-135610713D02*
X110281927Y-135610713D01*
X110281927Y-135610713D02*
X110281927Y-135458332D01*
X110281927Y-135458332D02*
X110300975Y-135420237D01*
X110300975Y-135420237D02*
X110320022Y-135401190D01*
X110320022Y-135401190D02*
X110358118Y-135382142D01*
X110358118Y-135382142D02*
X110415260Y-135382142D01*
X110415260Y-135382142D02*
X110453356Y-135401190D01*
X110453356Y-135401190D02*
X110472403Y-135420237D01*
X110472403Y-135420237D02*
X110491451Y-135458332D01*
X110491451Y-135458332D02*
X110491451Y-135610713D01*
X110320022Y-135229761D02*
X110300975Y-135210713D01*
X110300975Y-135210713D02*
X110281927Y-135172618D01*
X110281927Y-135172618D02*
X110281927Y-135077380D01*
X110281927Y-135077380D02*
X110300975Y-135039285D01*
X110300975Y-135039285D02*
X110320022Y-135020237D01*
X110320022Y-135020237D02*
X110358118Y-135001190D01*
X110358118Y-135001190D02*
X110396213Y-135001190D01*
X110396213Y-135001190D02*
X110453356Y-135020237D01*
X110453356Y-135020237D02*
X110681927Y-135248809D01*
X110681927Y-135248809D02*
X110681927Y-135001190D01*
X110281927Y-134753571D02*
X110281927Y-134715476D01*
X110281927Y-134715476D02*
X110300975Y-134677380D01*
X110300975Y-134677380D02*
X110320022Y-134658333D01*
X110320022Y-134658333D02*
X110358118Y-134639285D01*
X110358118Y-134639285D02*
X110434308Y-134620238D01*
X110434308Y-134620238D02*
X110529546Y-134620238D01*
X110529546Y-134620238D02*
X110605737Y-134639285D01*
X110605737Y-134639285D02*
X110643832Y-134658333D01*
X110643832Y-134658333D02*
X110662880Y-134677380D01*
X110662880Y-134677380D02*
X110681927Y-134715476D01*
X110681927Y-134715476D02*
X110681927Y-134753571D01*
X110681927Y-134753571D02*
X110662880Y-134791666D01*
X110662880Y-134791666D02*
X110643832Y-134810714D01*
X110643832Y-134810714D02*
X110605737Y-134829761D01*
X110605737Y-134829761D02*
X110529546Y-134848809D01*
X110529546Y-134848809D02*
X110434308Y-134848809D01*
X110434308Y-134848809D02*
X110358118Y-134829761D01*
X110358118Y-134829761D02*
X110320022Y-134810714D01*
X110320022Y-134810714D02*
X110300975Y-134791666D01*
X110300975Y-134791666D02*
X110281927Y-134753571D01*
X101756927Y-133670237D02*
X101356927Y-133670237D01*
X101356927Y-133670237D02*
X101356927Y-133574999D01*
X101356927Y-133574999D02*
X101375975Y-133517856D01*
X101375975Y-133517856D02*
X101414070Y-133479761D01*
X101414070Y-133479761D02*
X101452165Y-133460714D01*
X101452165Y-133460714D02*
X101528356Y-133441666D01*
X101528356Y-133441666D02*
X101585499Y-133441666D01*
X101585499Y-133441666D02*
X101661689Y-133460714D01*
X101661689Y-133460714D02*
X101699784Y-133479761D01*
X101699784Y-133479761D02*
X101737880Y-133517856D01*
X101737880Y-133517856D02*
X101756927Y-133574999D01*
X101756927Y-133574999D02*
X101756927Y-133670237D01*
X101395022Y-133289285D02*
X101375975Y-133270237D01*
X101375975Y-133270237D02*
X101356927Y-133232142D01*
X101356927Y-133232142D02*
X101356927Y-133136904D01*
X101356927Y-133136904D02*
X101375975Y-133098809D01*
X101375975Y-133098809D02*
X101395022Y-133079761D01*
X101395022Y-133079761D02*
X101433118Y-133060714D01*
X101433118Y-133060714D02*
X101471213Y-133060714D01*
X101471213Y-133060714D02*
X101528356Y-133079761D01*
X101528356Y-133079761D02*
X101756927Y-133308333D01*
X101756927Y-133308333D02*
X101756927Y-133060714D01*
X97533333Y-77181927D02*
X97400000Y-76991451D01*
X97304762Y-77181927D02*
X97304762Y-76781927D01*
X97304762Y-76781927D02*
X97457143Y-76781927D01*
X97457143Y-76781927D02*
X97495238Y-76800975D01*
X97495238Y-76800975D02*
X97514285Y-76820022D01*
X97514285Y-76820022D02*
X97533333Y-76858118D01*
X97533333Y-76858118D02*
X97533333Y-76915260D01*
X97533333Y-76915260D02*
X97514285Y-76953356D01*
X97514285Y-76953356D02*
X97495238Y-76972403D01*
X97495238Y-76972403D02*
X97457143Y-76991451D01*
X97457143Y-76991451D02*
X97304762Y-76991451D01*
X97895238Y-76781927D02*
X97704762Y-76781927D01*
X97704762Y-76781927D02*
X97685714Y-76972403D01*
X97685714Y-76972403D02*
X97704762Y-76953356D01*
X97704762Y-76953356D02*
X97742857Y-76934308D01*
X97742857Y-76934308D02*
X97838095Y-76934308D01*
X97838095Y-76934308D02*
X97876190Y-76953356D01*
X97876190Y-76953356D02*
X97895238Y-76972403D01*
X97895238Y-76972403D02*
X97914285Y-77010499D01*
X97914285Y-77010499D02*
X97914285Y-77105737D01*
X97914285Y-77105737D02*
X97895238Y-77143832D01*
X97895238Y-77143832D02*
X97876190Y-77162880D01*
X97876190Y-77162880D02*
X97838095Y-77181927D01*
X97838095Y-77181927D02*
X97742857Y-77181927D01*
X97742857Y-77181927D02*
X97704762Y-77162880D01*
X97704762Y-77162880D02*
X97685714Y-77143832D01*
D20*
X125929819Y-91858333D02*
X126644104Y-91858333D01*
X126644104Y-91858333D02*
X126786961Y-91905952D01*
X126786961Y-91905952D02*
X126882200Y-92001190D01*
X126882200Y-92001190D02*
X126929819Y-92144047D01*
X126929819Y-92144047D02*
X126929819Y-92239285D01*
X126929819Y-90858333D02*
X126929819Y-91429761D01*
X126929819Y-91144047D02*
X125929819Y-91144047D01*
X125929819Y-91144047D02*
X126072676Y-91239285D01*
X126072676Y-91239285D02*
X126167914Y-91334523D01*
X126167914Y-91334523D02*
X126215533Y-91429761D01*
D19*
X100933333Y-77181927D02*
X100800000Y-76991451D01*
X100704762Y-77181927D02*
X100704762Y-76781927D01*
X100704762Y-76781927D02*
X100857143Y-76781927D01*
X100857143Y-76781927D02*
X100895238Y-76800975D01*
X100895238Y-76800975D02*
X100914285Y-76820022D01*
X100914285Y-76820022D02*
X100933333Y-76858118D01*
X100933333Y-76858118D02*
X100933333Y-76915260D01*
X100933333Y-76915260D02*
X100914285Y-76953356D01*
X100914285Y-76953356D02*
X100895238Y-76972403D01*
X100895238Y-76972403D02*
X100857143Y-76991451D01*
X100857143Y-76991451D02*
X100704762Y-76991451D01*
X101276190Y-76781927D02*
X101200000Y-76781927D01*
X101200000Y-76781927D02*
X101161904Y-76800975D01*
X101161904Y-76800975D02*
X101142857Y-76820022D01*
X101142857Y-76820022D02*
X101104762Y-76877165D01*
X101104762Y-76877165D02*
X101085714Y-76953356D01*
X101085714Y-76953356D02*
X101085714Y-77105737D01*
X101085714Y-77105737D02*
X101104762Y-77143832D01*
X101104762Y-77143832D02*
X101123809Y-77162880D01*
X101123809Y-77162880D02*
X101161904Y-77181927D01*
X101161904Y-77181927D02*
X101238095Y-77181927D01*
X101238095Y-77181927D02*
X101276190Y-77162880D01*
X101276190Y-77162880D02*
X101295238Y-77143832D01*
X101295238Y-77143832D02*
X101314285Y-77105737D01*
X101314285Y-77105737D02*
X101314285Y-77010499D01*
X101314285Y-77010499D02*
X101295238Y-76972403D01*
X101295238Y-76972403D02*
X101276190Y-76953356D01*
X101276190Y-76953356D02*
X101238095Y-76934308D01*
X101238095Y-76934308D02*
X101161904Y-76934308D01*
X101161904Y-76934308D02*
X101123809Y-76953356D01*
X101123809Y-76953356D02*
X101104762Y-76972403D01*
X101104762Y-76972403D02*
X101085714Y-77010499D01*
X111781927Y-77832142D02*
X111591451Y-77965475D01*
X111781927Y-78060713D02*
X111381927Y-78060713D01*
X111381927Y-78060713D02*
X111381927Y-77908332D01*
X111381927Y-77908332D02*
X111400975Y-77870237D01*
X111400975Y-77870237D02*
X111420022Y-77851190D01*
X111420022Y-77851190D02*
X111458118Y-77832142D01*
X111458118Y-77832142D02*
X111515260Y-77832142D01*
X111515260Y-77832142D02*
X111553356Y-77851190D01*
X111553356Y-77851190D02*
X111572403Y-77870237D01*
X111572403Y-77870237D02*
X111591451Y-77908332D01*
X111591451Y-77908332D02*
X111591451Y-78060713D01*
X111781927Y-77451190D02*
X111781927Y-77679761D01*
X111781927Y-77565475D02*
X111381927Y-77565475D01*
X111381927Y-77565475D02*
X111439070Y-77603571D01*
X111439070Y-77603571D02*
X111477165Y-77641666D01*
X111477165Y-77641666D02*
X111496213Y-77679761D01*
X111381927Y-77108333D02*
X111381927Y-77184523D01*
X111381927Y-77184523D02*
X111400975Y-77222619D01*
X111400975Y-77222619D02*
X111420022Y-77241666D01*
X111420022Y-77241666D02*
X111477165Y-77279761D01*
X111477165Y-77279761D02*
X111553356Y-77298809D01*
X111553356Y-77298809D02*
X111705737Y-77298809D01*
X111705737Y-77298809D02*
X111743832Y-77279761D01*
X111743832Y-77279761D02*
X111762880Y-77260714D01*
X111762880Y-77260714D02*
X111781927Y-77222619D01*
X111781927Y-77222619D02*
X111781927Y-77146428D01*
X111781927Y-77146428D02*
X111762880Y-77108333D01*
X111762880Y-77108333D02*
X111743832Y-77089285D01*
X111743832Y-77089285D02*
X111705737Y-77070238D01*
X111705737Y-77070238D02*
X111610499Y-77070238D01*
X111610499Y-77070238D02*
X111572403Y-77089285D01*
X111572403Y-77089285D02*
X111553356Y-77108333D01*
X111553356Y-77108333D02*
X111534308Y-77146428D01*
X111534308Y-77146428D02*
X111534308Y-77222619D01*
X111534308Y-77222619D02*
X111553356Y-77260714D01*
X111553356Y-77260714D02*
X111572403Y-77279761D01*
X111572403Y-77279761D02*
X111610499Y-77298809D01*
X114433333Y-94643832D02*
X114414285Y-94662880D01*
X114414285Y-94662880D02*
X114357143Y-94681927D01*
X114357143Y-94681927D02*
X114319047Y-94681927D01*
X114319047Y-94681927D02*
X114261904Y-94662880D01*
X114261904Y-94662880D02*
X114223809Y-94624784D01*
X114223809Y-94624784D02*
X114204762Y-94586689D01*
X114204762Y-94586689D02*
X114185714Y-94510499D01*
X114185714Y-94510499D02*
X114185714Y-94453356D01*
X114185714Y-94453356D02*
X114204762Y-94377165D01*
X114204762Y-94377165D02*
X114223809Y-94339070D01*
X114223809Y-94339070D02*
X114261904Y-94300975D01*
X114261904Y-94300975D02*
X114319047Y-94281927D01*
X114319047Y-94281927D02*
X114357143Y-94281927D01*
X114357143Y-94281927D02*
X114414285Y-94300975D01*
X114414285Y-94300975D02*
X114433333Y-94320022D01*
X114795238Y-94281927D02*
X114604762Y-94281927D01*
X114604762Y-94281927D02*
X114585714Y-94472403D01*
X114585714Y-94472403D02*
X114604762Y-94453356D01*
X114604762Y-94453356D02*
X114642857Y-94434308D01*
X114642857Y-94434308D02*
X114738095Y-94434308D01*
X114738095Y-94434308D02*
X114776190Y-94453356D01*
X114776190Y-94453356D02*
X114795238Y-94472403D01*
X114795238Y-94472403D02*
X114814285Y-94510499D01*
X114814285Y-94510499D02*
X114814285Y-94605737D01*
X114814285Y-94605737D02*
X114795238Y-94643832D01*
X114795238Y-94643832D02*
X114776190Y-94662880D01*
X114776190Y-94662880D02*
X114738095Y-94681927D01*
X114738095Y-94681927D02*
X114642857Y-94681927D01*
X114642857Y-94681927D02*
X114604762Y-94662880D01*
X114604762Y-94662880D02*
X114585714Y-94643832D01*
X104008333Y-132806927D02*
X103875000Y-132616451D01*
X103779762Y-132806927D02*
X103779762Y-132406927D01*
X103779762Y-132406927D02*
X103932143Y-132406927D01*
X103932143Y-132406927D02*
X103970238Y-132425975D01*
X103970238Y-132425975D02*
X103989285Y-132445022D01*
X103989285Y-132445022D02*
X104008333Y-132483118D01*
X104008333Y-132483118D02*
X104008333Y-132540260D01*
X104008333Y-132540260D02*
X103989285Y-132578356D01*
X103989285Y-132578356D02*
X103970238Y-132597403D01*
X103970238Y-132597403D02*
X103932143Y-132616451D01*
X103932143Y-132616451D02*
X103779762Y-132616451D01*
X104160714Y-132445022D02*
X104179762Y-132425975D01*
X104179762Y-132425975D02*
X104217857Y-132406927D01*
X104217857Y-132406927D02*
X104313095Y-132406927D01*
X104313095Y-132406927D02*
X104351190Y-132425975D01*
X104351190Y-132425975D02*
X104370238Y-132445022D01*
X104370238Y-132445022D02*
X104389285Y-132483118D01*
X104389285Y-132483118D02*
X104389285Y-132521213D01*
X104389285Y-132521213D02*
X104370238Y-132578356D01*
X104370238Y-132578356D02*
X104141666Y-132806927D01*
X104141666Y-132806927D02*
X104389285Y-132806927D01*
X110681927Y-95566666D02*
X110491451Y-95699999D01*
X110681927Y-95795237D02*
X110281927Y-95795237D01*
X110281927Y-95795237D02*
X110281927Y-95642856D01*
X110281927Y-95642856D02*
X110300975Y-95604761D01*
X110300975Y-95604761D02*
X110320022Y-95585714D01*
X110320022Y-95585714D02*
X110358118Y-95566666D01*
X110358118Y-95566666D02*
X110415260Y-95566666D01*
X110415260Y-95566666D02*
X110453356Y-95585714D01*
X110453356Y-95585714D02*
X110472403Y-95604761D01*
X110472403Y-95604761D02*
X110491451Y-95642856D01*
X110491451Y-95642856D02*
X110491451Y-95795237D01*
X110415260Y-95223809D02*
X110681927Y-95223809D01*
X110262880Y-95319047D02*
X110548594Y-95414285D01*
X110548594Y-95414285D02*
X110548594Y-95166666D01*
X97543832Y-93866666D02*
X97562880Y-93885714D01*
X97562880Y-93885714D02*
X97581927Y-93942856D01*
X97581927Y-93942856D02*
X97581927Y-93980952D01*
X97581927Y-93980952D02*
X97562880Y-94038095D01*
X97562880Y-94038095D02*
X97524784Y-94076190D01*
X97524784Y-94076190D02*
X97486689Y-94095237D01*
X97486689Y-94095237D02*
X97410499Y-94114285D01*
X97410499Y-94114285D02*
X97353356Y-94114285D01*
X97353356Y-94114285D02*
X97277165Y-94095237D01*
X97277165Y-94095237D02*
X97239070Y-94076190D01*
X97239070Y-94076190D02*
X97200975Y-94038095D01*
X97200975Y-94038095D02*
X97181927Y-93980952D01*
X97181927Y-93980952D02*
X97181927Y-93942856D01*
X97181927Y-93942856D02*
X97200975Y-93885714D01*
X97200975Y-93885714D02*
X97220022Y-93866666D01*
X97181927Y-93733333D02*
X97181927Y-93485714D01*
X97181927Y-93485714D02*
X97334308Y-93619047D01*
X97334308Y-93619047D02*
X97334308Y-93561904D01*
X97334308Y-93561904D02*
X97353356Y-93523809D01*
X97353356Y-93523809D02*
X97372403Y-93504761D01*
X97372403Y-93504761D02*
X97410499Y-93485714D01*
X97410499Y-93485714D02*
X97505737Y-93485714D01*
X97505737Y-93485714D02*
X97543832Y-93504761D01*
X97543832Y-93504761D02*
X97562880Y-93523809D01*
X97562880Y-93523809D02*
X97581927Y-93561904D01*
X97581927Y-93561904D02*
X97581927Y-93676190D01*
X97581927Y-93676190D02*
X97562880Y-93714285D01*
X97562880Y-93714285D02*
X97543832Y-93733333D01*
X95743832Y-93866666D02*
X95762880Y-93885714D01*
X95762880Y-93885714D02*
X95781927Y-93942856D01*
X95781927Y-93942856D02*
X95781927Y-93980952D01*
X95781927Y-93980952D02*
X95762880Y-94038095D01*
X95762880Y-94038095D02*
X95724784Y-94076190D01*
X95724784Y-94076190D02*
X95686689Y-94095237D01*
X95686689Y-94095237D02*
X95610499Y-94114285D01*
X95610499Y-94114285D02*
X95553356Y-94114285D01*
X95553356Y-94114285D02*
X95477165Y-94095237D01*
X95477165Y-94095237D02*
X95439070Y-94076190D01*
X95439070Y-94076190D02*
X95400975Y-94038095D01*
X95400975Y-94038095D02*
X95381927Y-93980952D01*
X95381927Y-93980952D02*
X95381927Y-93942856D01*
X95381927Y-93942856D02*
X95400975Y-93885714D01*
X95400975Y-93885714D02*
X95420022Y-93866666D01*
X95381927Y-93523809D02*
X95381927Y-93599999D01*
X95381927Y-93599999D02*
X95400975Y-93638095D01*
X95400975Y-93638095D02*
X95420022Y-93657142D01*
X95420022Y-93657142D02*
X95477165Y-93695237D01*
X95477165Y-93695237D02*
X95553356Y-93714285D01*
X95553356Y-93714285D02*
X95705737Y-93714285D01*
X95705737Y-93714285D02*
X95743832Y-93695237D01*
X95743832Y-93695237D02*
X95762880Y-93676190D01*
X95762880Y-93676190D02*
X95781927Y-93638095D01*
X95781927Y-93638095D02*
X95781927Y-93561904D01*
X95781927Y-93561904D02*
X95762880Y-93523809D01*
X95762880Y-93523809D02*
X95743832Y-93504761D01*
X95743832Y-93504761D02*
X95705737Y-93485714D01*
X95705737Y-93485714D02*
X95610499Y-93485714D01*
X95610499Y-93485714D02*
X95572403Y-93504761D01*
X95572403Y-93504761D02*
X95553356Y-93523809D01*
X95553356Y-93523809D02*
X95534308Y-93561904D01*
X95534308Y-93561904D02*
X95534308Y-93638095D01*
X95534308Y-93638095D02*
X95553356Y-93676190D01*
X95553356Y-93676190D02*
X95572403Y-93695237D01*
X95572403Y-93695237D02*
X95610499Y-93714285D01*
D22*
%TO.C,R3*%
X116587500Y-92800000D02*
X116587500Y-91200000D01*
X117412500Y-92800000D02*
X116587500Y-92800000D01*
X116587500Y-91200000D02*
X117412500Y-91200000D01*
X117412500Y-91200000D02*
X117412500Y-92800000D01*
%TO.C,R9*%
X112662500Y-72450000D02*
X112662500Y-74050000D01*
X111837500Y-72450000D02*
X112662500Y-72450000D01*
X112662500Y-74050000D02*
X111837500Y-74050000D01*
X111837500Y-74050000D02*
X111837500Y-72450000D01*
%TO.C,R13*%
X110912500Y-72450000D02*
X110912500Y-74050000D01*
X110087500Y-72450000D02*
X110912500Y-72450000D01*
X110912500Y-74050000D02*
X110087500Y-74050000D01*
X110087500Y-74050000D02*
X110087500Y-72450000D01*
%TO.C,R8*%
X109800000Y-79912500D02*
X108200000Y-79912500D01*
X109800000Y-79087500D02*
X109800000Y-79912500D01*
X108200000Y-79912500D02*
X108200000Y-79087500D01*
X108200000Y-79087500D02*
X109800000Y-79087500D01*
%TO.C,C1*%
X105125000Y-92600000D02*
X106725000Y-92600000D01*
X105125000Y-93400000D02*
X105125000Y-92600000D01*
X106725000Y-92600000D02*
X106725000Y-93400000D01*
X106725000Y-93400000D02*
X105125000Y-93400000D01*
%TO.C,C2*%
X109200000Y-88850000D02*
X110800000Y-88850000D01*
X109200000Y-89650000D02*
X109200000Y-88850000D01*
X110800000Y-88850000D02*
X110800000Y-89650000D01*
X110800000Y-89650000D02*
X109200000Y-89650000D01*
%TO.C,Q3*%
X120912500Y-92125000D02*
X121237500Y-91800000D01*
X120912500Y-94700000D02*
X120912500Y-92125000D01*
X121237500Y-91800000D02*
X122212500Y-91800000D01*
X122212500Y-91800000D02*
X122212500Y-94700000D01*
X122212500Y-94700000D02*
X120912500Y-94700000D01*
%TO.C,U5*%
X106525000Y-135425000D02*
X106125000Y-135025000D01*
X109025000Y-135425000D02*
X106525000Y-135425000D01*
X106125000Y-135025000D02*
X106125000Y-133825000D01*
X106125000Y-133825000D02*
X109025000Y-133825000D01*
X109025000Y-133825000D02*
X109025000Y-135425000D01*
%TO.C,R11*%
X108200000Y-82587500D02*
X109800000Y-82587500D01*
X108200000Y-83412500D02*
X108200000Y-82587500D01*
X109800000Y-82587500D02*
X109800000Y-83412500D01*
X109800000Y-83412500D02*
X108200000Y-83412500D01*
D23*
%TO.C,P1*%
X114400000Y-144500000D02*
X114400000Y-140776700D01*
X114400000Y-140780000D02*
X105600000Y-140780000D01*
X105600000Y-144500000D02*
X114400000Y-144500000D01*
X105600000Y-140780000D02*
X105600000Y-144500000D01*
D22*
%TO.C,U4*%
X114025000Y-93325000D02*
X113275000Y-92575000D01*
X115775000Y-93325000D02*
X114025000Y-93325000D01*
X113275000Y-92575000D02*
X113275000Y-90825000D01*
X113275000Y-90825000D02*
X115775000Y-90825000D01*
X115775000Y-90825000D02*
X115775000Y-93325000D01*
D23*
%TO.C,U3*%
X108330801Y-93275400D02*
X110769201Y-93275400D01*
X110769201Y-93275400D02*
X110769201Y-90837000D01*
X108330801Y-90837000D02*
X108330801Y-93275400D01*
X110769201Y-90837000D02*
X108330801Y-90837000D01*
X108330801Y-92361000D02*
G75*
G03*
X108330801Y-91751400I0J304800D01*
G01*
X108826201Y-92919800D02*
G75*
G03*
X108826201Y-92919800I-76200J0D01*
G01*
D22*
%TO.C,C7*%
X112150000Y-82450000D02*
X112150000Y-84050000D01*
X111350000Y-82450000D02*
X112150000Y-82450000D01*
X112150000Y-84050000D02*
X111350000Y-84050000D01*
X111350000Y-84050000D02*
X111350000Y-82450000D01*
%TO.C,R15*%
X112087500Y-135925000D02*
X112087500Y-134325000D01*
X112912500Y-135925000D02*
X112087500Y-135925000D01*
X112087500Y-134325000D02*
X112912500Y-134325000D01*
X112912500Y-134325000D02*
X112912500Y-135925000D01*
%TO.C,U2*%
X105700000Y-91500000D02*
X89100000Y-91500000D01*
X105700000Y-91500000D02*
X105700000Y-78300000D01*
X94500000Y-90700000D02*
X95300000Y-91500000D01*
X89100000Y-78300000D02*
X89100000Y-91500000D01*
X94500000Y-78300000D02*
X94500000Y-91500000D01*
X105700000Y-78300000D02*
X89100000Y-78300000D01*
D23*
%TO.C,J2*%
X118354200Y-77254200D02*
X114645800Y-77254200D01*
X114645800Y-77254200D02*
X114645800Y-86245800D01*
X118354200Y-86245800D02*
X118354200Y-77254200D01*
X114645800Y-86245800D02*
X118354200Y-86245800D01*
D24*
X116931800Y-79500000D02*
G75*
G03*
X116931800Y-79500000I-381000J0D01*
G01*
D22*
%TO.C,C11*%
X106525000Y-131225000D02*
X108125000Y-131225000D01*
X106525000Y-132025000D02*
X106525000Y-131225000D01*
X108125000Y-131225000D02*
X108125000Y-132025000D01*
X108125000Y-132025000D02*
X106525000Y-132025000D01*
%TO.C,D7*%
X111725000Y-137350000D02*
X112525000Y-137350000D01*
X111725000Y-137950000D02*
X111725000Y-137350000D01*
X111975000Y-137650000D02*
X111875000Y-137650000D01*
X111975000Y-137650000D02*
X112275000Y-137850000D01*
X111975000Y-137850000D02*
X111975000Y-137450000D01*
X112275000Y-137450000D02*
X111975000Y-137650000D01*
X112275000Y-137650000D02*
X112375000Y-137650000D01*
X112275000Y-137850000D02*
X112275000Y-137450000D01*
X112525000Y-137350000D02*
X112525000Y-137950000D01*
X112525000Y-137950000D02*
X111725000Y-137950000D01*
%TO.C,R12*%
X109162500Y-72450000D02*
X109162500Y-74050000D01*
X108337500Y-72450000D02*
X109162500Y-72450000D01*
X109162500Y-74050000D02*
X108337500Y-74050000D01*
X108337500Y-74050000D02*
X108337500Y-72450000D01*
%TO.C,R14*%
X106587500Y-74087500D02*
X106587500Y-72487500D01*
X107412500Y-74087500D02*
X106587500Y-74087500D01*
X106587500Y-72487500D02*
X107412500Y-72487500D01*
X107412500Y-72487500D02*
X107412500Y-74087500D01*
%TO.C,R10*%
X108200000Y-80837500D02*
X109800000Y-80837500D01*
X108200000Y-81662500D02*
X108200000Y-80837500D01*
X109800000Y-80837500D02*
X109800000Y-81662500D01*
X109800000Y-81662500D02*
X108200000Y-81662500D01*
%TO.C,R1*%
X106725000Y-95162500D02*
X105125000Y-95162500D01*
X106725000Y-94337500D02*
X106725000Y-95162500D01*
X105125000Y-95162500D02*
X105125000Y-94337500D01*
X105125000Y-94337500D02*
X106725000Y-94337500D01*
%TO.C,R20*%
X110087500Y-135925000D02*
X110087500Y-134325000D01*
X110912500Y-135925000D02*
X110087500Y-135925000D01*
X110087500Y-134325000D02*
X110912500Y-134325000D01*
X110912500Y-134325000D02*
X110912500Y-135925000D01*
%TO.C,D2*%
X101475000Y-134175000D02*
X101975000Y-134175000D01*
X101975000Y-134175000D02*
X101975000Y-132575000D01*
X101175000Y-133875000D02*
X101475000Y-134175000D01*
X101175000Y-132575000D02*
X101175000Y-133875000D01*
X101975000Y-132575000D02*
X101175000Y-132575000D01*
%TO.C,C10*%
X104425000Y-135925000D02*
X104425000Y-134325000D01*
X105225000Y-135925000D02*
X104425000Y-135925000D01*
X104425000Y-134325000D02*
X105225000Y-134325000D01*
X105225000Y-134325000D02*
X105225000Y-135925000D01*
%TO.C,R5*%
X98400000Y-77412500D02*
X96800000Y-77412500D01*
X98400000Y-76587500D02*
X98400000Y-77412500D01*
X96800000Y-77412500D02*
X96800000Y-76587500D01*
X96800000Y-76587500D02*
X98400000Y-76587500D01*
%TO.C,J1*%
X126675000Y-95350000D02*
X126475000Y-95150000D01*
X128475000Y-95350000D02*
X126675000Y-95350000D01*
X125875000Y-95150000D02*
X125875000Y-93650000D01*
X126475000Y-95150000D02*
X125875000Y-95150000D01*
X128675000Y-95150000D02*
X128475000Y-95350000D01*
X124975000Y-93650000D02*
X128675000Y-93650000D01*
X124975000Y-93650000D02*
X124975000Y-89400000D01*
X128675000Y-93650000D02*
X128675000Y-95150000D01*
X128675000Y-93650000D02*
X128675000Y-89400000D01*
X124975000Y-92650000D02*
X125682107Y-92150000D01*
X127300000Y-92300000D02*
X127900000Y-92300000D01*
X127900000Y-92300000D02*
X127900000Y-92000000D01*
X125682107Y-92150000D02*
X124975000Y-91650000D01*
X127300000Y-92000000D02*
X127300000Y-92300000D01*
X127900000Y-92000000D02*
X127300000Y-92000000D01*
X127300000Y-91050000D02*
X127900000Y-91050000D01*
X127900000Y-91050000D02*
X127900000Y-90750000D01*
X127300000Y-90750000D02*
X127300000Y-91050000D01*
X127900000Y-90750000D02*
X127300000Y-90750000D01*
X124975000Y-89400000D02*
X128675000Y-89400000D01*
X128675000Y-89400000D02*
X128675000Y-87900000D01*
X125875000Y-87900000D02*
X125875000Y-89400000D01*
X126475000Y-87900000D02*
X125875000Y-87900000D01*
X128675000Y-87900000D02*
X128475000Y-87700000D01*
X126675000Y-87700000D02*
X126475000Y-87900000D01*
X128475000Y-87700000D02*
X126675000Y-87700000D01*
%TO.C,R6*%
X100200000Y-76587500D02*
X101800000Y-76587500D01*
X100200000Y-77412500D02*
X100200000Y-76587500D01*
X101800000Y-76587500D02*
X101800000Y-77412500D01*
X101800000Y-77412500D02*
X100200000Y-77412500D01*
%TO.C,R16*%
X112012500Y-76775000D02*
X112012500Y-78375000D01*
X111187500Y-76775000D02*
X112012500Y-76775000D01*
X112012500Y-78375000D02*
X111187500Y-78375000D01*
X111187500Y-78375000D02*
X111187500Y-76775000D01*
%TO.C,C5*%
X115300000Y-94900000D02*
X113700000Y-94900000D01*
X115300000Y-94100000D02*
X115300000Y-94900000D01*
X113700000Y-94900000D02*
X113700000Y-94100000D01*
X113700000Y-94100000D02*
X115300000Y-94100000D01*
%TO.C,SW1*%
X103450000Y-95200000D02*
X99250000Y-95200000D01*
X103450000Y-92400000D02*
X103450000Y-95200000D01*
X99250000Y-95200000D02*
X99250000Y-92400000D01*
X99250000Y-92400000D02*
X103450000Y-92400000D01*
X102150000Y-93800000D02*
G75*
G03*
X102150000Y-93800000I-800000J0D01*
G01*
%TO.C,R2*%
X104875000Y-133037500D02*
X103275000Y-133037500D01*
X104875000Y-132212500D02*
X104875000Y-133037500D01*
X103275000Y-133037500D02*
X103275000Y-132212500D01*
X103275000Y-132212500D02*
X104875000Y-132212500D01*
%TO.C,C4*%
X109150000Y-94700000D02*
X109150000Y-96300000D01*
X108350000Y-94700000D02*
X109150000Y-94700000D01*
X109150000Y-96300000D02*
X108350000Y-96300000D01*
X108350000Y-96300000D02*
X108350000Y-94700000D01*
%TO.C,R4*%
X110087500Y-96300000D02*
X110087500Y-94700000D01*
X110912500Y-96300000D02*
X110087500Y-96300000D01*
X110087500Y-94700000D02*
X110912500Y-94700000D01*
X110912500Y-94700000D02*
X110912500Y-96300000D01*
%TO.C,C3*%
X97800000Y-93000000D02*
X97800000Y-94600000D01*
X97000000Y-93000000D02*
X97800000Y-93000000D01*
X97800000Y-94600000D02*
X97000000Y-94600000D01*
X97000000Y-94600000D02*
X97000000Y-93000000D01*
%TO.C,C6*%
X96000000Y-93000000D02*
X96000000Y-94600000D01*
X95200000Y-93000000D02*
X96000000Y-93000000D01*
X96000000Y-94600000D02*
X95200000Y-94600000D01*
X95200000Y-94600000D02*
X95200000Y-93000000D01*
%TO.C,D1*%
X123175000Y-87750000D02*
X123175000Y-90550000D01*
X121375000Y-87750000D02*
X123175000Y-87750000D01*
X122275000Y-88400000D02*
X122275000Y-88800000D01*
X122275000Y-88800000D02*
X122825000Y-88800000D01*
X122275000Y-88800000D02*
X121725000Y-88800000D01*
X122275000Y-88800000D02*
X122675000Y-89400000D01*
X122675000Y-89400000D02*
X121875000Y-89400000D01*
X122275000Y-89400000D02*
X122275000Y-89900000D01*
X121875000Y-89400000D02*
X122275000Y-88800000D01*
X123175000Y-90550000D02*
X121375000Y-90550000D01*
X121375000Y-90550000D02*
X121375000Y-87750000D01*
%TO.C,R7*%
X103600000Y-76587500D02*
X105200000Y-76587500D01*
X103600000Y-77412500D02*
X103600000Y-76587500D01*
X105200000Y-76587500D02*
X105200000Y-77412500D01*
X105200000Y-77412500D02*
X103600000Y-77412500D01*
%TO.C,Q1*%
X107912500Y-75625000D02*
X108237500Y-75300000D01*
X107912500Y-78200000D02*
X107912500Y-75625000D01*
X108237500Y-75300000D02*
X109212500Y-75300000D01*
X109212500Y-75300000D02*
X109212500Y-78200000D01*
X109212500Y-78200000D02*
X107912500Y-78200000D01*
%TD*%
M02*
