%TF.GenerationSoftware,KiCad,Pcbnew,8.0.7*%
%TF.CreationDate,2024-12-24T11:10:27-06:00*%
%TF.ProjectId,room_environment_monitor,726f6f6d-5f65-46e7-9669-726f6e6d656e,rev?*%
%TF.SameCoordinates,Original*%
%TF.FileFunction,Copper,L2,Inr*%
%TF.FilePolarity,Positive*%
%FSLAX46Y46*%
G04 Gerber Fmt 4.6, Leading zero omitted, Abs format (unit mm)*
G04 Created by KiCad (PCBNEW 8.0.7) date 2024-12-24 11:10:27*
%MOMM*%
%LPD*%
G01*
G04 APERTURE LIST*
%TA.AperFunction,ComponentPad*%
%ADD10O,1.066800X1.701800*%
%TD*%
%TA.AperFunction,ViaPad*%
%ADD11C,0.800000*%
%TD*%
%TA.AperFunction,ViaPad*%
%ADD12C,1.200000*%
%TD*%
%TA.AperFunction,ViaPad*%
%ADD13C,0.600000*%
%TD*%
G04 APERTURE END LIST*
D10*
%TO.N,GND*%
%TO.C,P1*%
X14269999Y-1400003D03*
X5730001Y-1400003D03*
%TD*%
D11*
%TO.N,EN*%
X1600000Y51900000D03*
%TO.N,GND*%
X3575000Y7125000D03*
X-4500000Y45700000D03*
X-2575000Y45750000D03*
X7600000Y45600000D03*
D12*
X17000000Y57500000D03*
D11*
X9325000Y9875000D03*
X10575000Y8375000D03*
X6400000Y69900000D03*
X-2000000Y56500000D03*
X6000000Y3750000D03*
X13200000Y44600000D03*
X4500000Y63500000D03*
X7600000Y55700000D03*
X-2000000Y58500000D03*
X6000000Y2000000D03*
X15300000Y48600000D03*
X9550001Y49443800D03*
D12*
X20700000Y46200000D03*
D11*
X2000000Y56500000D03*
X9200000Y42200000D03*
X14250000Y3750000D03*
X5985081Y47695381D03*
X-2000000Y54700000D03*
X13000000Y3000000D03*
X14700000Y51900000D03*
X9200000Y30400000D03*
X13580000Y7130000D03*
X14250000Y2000000D03*
X7000000Y3000000D03*
X-825000Y45750000D03*
X12100000Y56400000D03*
%TO.N,BOOT*%
X4000000Y60500000D03*
%TO.N,+3V3*%
X11800000Y45100000D03*
X17000000Y44600000D03*
X12600000Y63925000D03*
X6400000Y65700000D03*
X8100000Y52300000D03*
X5075000Y11375000D03*
X13964711Y50443781D03*
X13020000Y65450000D03*
X7815962Y69826194D03*
X-4462299Y49437701D03*
X13200000Y46800000D03*
X5075000Y10375000D03*
X6325000Y11375000D03*
D13*
X10600000Y60900000D03*
D11*
X-2250000Y51750000D03*
X3600000Y65700000D03*
X17650000Y45437500D03*
X6000000Y45750000D03*
%TO.N,+5V*%
X10250000Y70000000D03*
D12*
X17000000Y59000000D03*
D11*
X9500000Y2000000D03*
X11500000Y2950000D03*
X9500000Y3750000D03*
X24300000Y52500000D03*
X11500000Y1500000D03*
%TO.N,NEOPIXEL*%
X10657911Y62763492D03*
X3250000Y61250000D03*
D13*
%TO.N,UART1_RX*%
X7400000Y61200000D03*
X5900000Y56600000D03*
%TO.N,FAN*%
X11200000Y53900000D03*
X20600000Y50100000D03*
%TO.N,UART1_TX_LVL*%
X7100000Y62400000D03*
X5900000Y57600000D03*
D11*
%TO.N,I2C_SDA*%
X12300000Y52700000D03*
X14949051Y47664137D03*
%TO.N,Net-(P1-VCONN)*%
X12120000Y4750000D03*
X9500000Y700000D03*
%TO.N,Net-(J3-Pin_5)*%
X1800000Y65700000D03*
%TO.N,Net-(J3-Pin_6)*%
X-3600000Y63700000D03*
%TO.N,Net-(J2-Pin_2)*%
X17000000Y60500000D03*
X14000000Y66500000D03*
%TO.N,PD*%
X6000000Y67000000D03*
X0Y49750000D03*
%TD*%
%TA.AperFunction,Conductor*%
%TO.N,GND*%
G36*
X19943039Y71480315D02*
G01*
X19988794Y71427511D01*
X20000000Y71376000D01*
X20000000Y56250000D01*
X29876000Y56250000D01*
X29943039Y56230315D01*
X29988794Y56177511D01*
X30000000Y56126000D01*
X30000000Y43874000D01*
X29980315Y43806961D01*
X29927511Y43761206D01*
X29876000Y43750000D01*
X20000000Y43750000D01*
X20000000Y124000D01*
X19980315Y56961D01*
X19927511Y11206D01*
X19876000Y0D01*
X16700000Y0D01*
X16700000Y-2876000D01*
X16680315Y-2943039D01*
X16627511Y-2988794D01*
X16576000Y-3000000D01*
X3424000Y-3000000D01*
X3356961Y-2980315D01*
X3311206Y-2927511D01*
X3300000Y-2876000D01*
X3300000Y-980718D01*
X4696601Y-980718D01*
X4696601Y-1150003D01*
X5455001Y-1150003D01*
X5455001Y-1650003D01*
X4696601Y-1650003D01*
X4696601Y-1819287D01*
X4736312Y-2018927D01*
X4736314Y-2018935D01*
X4814212Y-2206997D01*
X4814217Y-2207007D01*
X4927306Y-2376256D01*
X4927309Y-2376260D01*
X5071243Y-2520194D01*
X5071247Y-2520197D01*
X5240496Y-2633286D01*
X5240506Y-2633291D01*
X5428566Y-2711188D01*
X5428576Y-2711191D01*
X5480000Y-2721420D01*
X5480001Y-2721420D01*
X5480001Y-1765059D01*
X5496867Y-1805778D01*
X5574226Y-1883137D01*
X5675300Y-1925003D01*
X5784702Y-1925003D01*
X5885776Y-1883137D01*
X5963135Y-1805778D01*
X5980001Y-1765059D01*
X5980001Y-2721420D01*
X6031425Y-2711191D01*
X6031435Y-2711188D01*
X6219495Y-2633291D01*
X6219505Y-2633286D01*
X6388754Y-2520197D01*
X6388758Y-2520194D01*
X6532692Y-2376260D01*
X6532695Y-2376256D01*
X6645784Y-2207007D01*
X6645789Y-2206997D01*
X6723687Y-2018935D01*
X6723689Y-2018927D01*
X6763400Y-1819287D01*
X6763401Y-1819285D01*
X6763401Y-1650003D01*
X6005001Y-1650003D01*
X6005001Y-1150003D01*
X6763401Y-1150003D01*
X6763401Y-980721D01*
X6763400Y-980718D01*
X13236599Y-980718D01*
X13236599Y-1150003D01*
X14019999Y-1150003D01*
X14019999Y-1650003D01*
X13236599Y-1650003D01*
X13236599Y-1819287D01*
X13276310Y-2018927D01*
X13276312Y-2018935D01*
X13354210Y-2206997D01*
X13354215Y-2207007D01*
X13467304Y-2376256D01*
X13467307Y-2376260D01*
X13611241Y-2520194D01*
X13611245Y-2520197D01*
X13780494Y-2633286D01*
X13780504Y-2633291D01*
X13968564Y-2711188D01*
X13968574Y-2711191D01*
X14019998Y-2721420D01*
X14019999Y-2721420D01*
X14019999Y-1799731D01*
X14058059Y-1891617D01*
X14128385Y-1961943D01*
X14220271Y-2000003D01*
X14319727Y-2000003D01*
X14411613Y-1961943D01*
X14481939Y-1891617D01*
X14519999Y-1799731D01*
X14519999Y-2721420D01*
X14571423Y-2711191D01*
X14571433Y-2711188D01*
X14759493Y-2633291D01*
X14759503Y-2633286D01*
X14928752Y-2520197D01*
X14928756Y-2520194D01*
X15072690Y-2376260D01*
X15072693Y-2376256D01*
X15185782Y-2207007D01*
X15185787Y-2206997D01*
X15263685Y-2018935D01*
X15263687Y-2018927D01*
X15303398Y-1819287D01*
X15303399Y-1819285D01*
X15303399Y-1650003D01*
X14519999Y-1650003D01*
X14519999Y-1150003D01*
X15303399Y-1150003D01*
X15303399Y-980721D01*
X15303398Y-980718D01*
X15263687Y-781078D01*
X15263685Y-781070D01*
X15185787Y-593008D01*
X15185782Y-592998D01*
X15072693Y-423749D01*
X15072690Y-423745D01*
X14928756Y-279811D01*
X14928752Y-279808D01*
X14759503Y-166719D01*
X14759493Y-166714D01*
X14571429Y-88815D01*
X14571425Y-88814D01*
X14519999Y-78584D01*
X14519999Y-1000275D01*
X14481939Y-908389D01*
X14411613Y-838063D01*
X14319727Y-800003D01*
X14220271Y-800003D01*
X14128385Y-838063D01*
X14058059Y-908389D01*
X14019999Y-1000275D01*
X14019999Y-78585D01*
X14019998Y-78584D01*
X13968572Y-88814D01*
X13968568Y-88815D01*
X13780504Y-166714D01*
X13780494Y-166719D01*
X13611245Y-279808D01*
X13611241Y-279811D01*
X13467307Y-423745D01*
X13467304Y-423749D01*
X13354215Y-592998D01*
X13354210Y-593008D01*
X13276312Y-781070D01*
X13276310Y-781078D01*
X13236599Y-980718D01*
X6763400Y-980718D01*
X6723689Y-781078D01*
X6723687Y-781070D01*
X6645789Y-593008D01*
X6645784Y-592998D01*
X6532695Y-423749D01*
X6532692Y-423745D01*
X6388758Y-279811D01*
X6388754Y-279808D01*
X6219505Y-166719D01*
X6219495Y-166714D01*
X6031431Y-88815D01*
X6031427Y-88814D01*
X5980001Y-78584D01*
X5980001Y-1034946D01*
X5963135Y-994228D01*
X5885776Y-916869D01*
X5784702Y-875003D01*
X5675300Y-875003D01*
X5574226Y-916869D01*
X5496867Y-994228D01*
X5480001Y-1034946D01*
X5480001Y-78585D01*
X5480000Y-78584D01*
X5428574Y-88814D01*
X5428570Y-88815D01*
X5240506Y-166714D01*
X5240496Y-166719D01*
X5071247Y-279808D01*
X5071243Y-279811D01*
X4927309Y-423745D01*
X4927306Y-423749D01*
X4814217Y-592998D01*
X4814212Y-593008D01*
X4736314Y-781070D01*
X4736312Y-781078D01*
X4696601Y-980718D01*
X3300000Y-980718D01*
X3300000Y0D01*
X124000Y0D01*
X56961Y19685D01*
X11206Y72489D01*
X0Y124000D01*
X0Y2906287D01*
X1149500Y2906287D01*
X1149500Y2693714D01*
X1167237Y2581723D01*
X1182754Y2483757D01*
X1239870Y2307972D01*
X1248444Y2281586D01*
X1344951Y2092180D01*
X1469890Y1920214D01*
X1620213Y1769891D01*
X1792179Y1644952D01*
X1792181Y1644951D01*
X1792184Y1644949D01*
X1981588Y1548443D01*
X2183757Y1482754D01*
X2393713Y1449500D01*
X2393714Y1449500D01*
X2606286Y1449500D01*
X2606287Y1449500D01*
X2816243Y1482754D01*
X3018412Y1548443D01*
X3207816Y1644949D01*
X3229789Y1660914D01*
X3379786Y1769891D01*
X3379788Y1769894D01*
X3379792Y1769896D01*
X3530104Y1920208D01*
X3530106Y1920212D01*
X3530109Y1920214D01*
X3655048Y2092180D01*
X3655047Y2092180D01*
X3655051Y2092184D01*
X3751557Y2281588D01*
X3817246Y2483757D01*
X3850500Y2693713D01*
X3850500Y2906287D01*
X3817246Y3116243D01*
X3751557Y3318412D01*
X3655051Y3507816D01*
X3655049Y3507819D01*
X3655048Y3507821D01*
X3530109Y3679787D01*
X3459896Y3750000D01*
X8594540Y3750000D01*
X8614326Y3561744D01*
X8614327Y3561741D01*
X8672818Y3381723D01*
X8672821Y3381716D01*
X8767467Y3217784D01*
X8839071Y3138260D01*
X8894129Y3077112D01*
X9034236Y2975318D01*
X9076902Y2919988D01*
X9082881Y2850375D01*
X9050275Y2788580D01*
X9034236Y2774682D01*
X8894129Y2672889D01*
X8767466Y2532215D01*
X8672821Y2368285D01*
X8672818Y2368278D01*
X8614327Y2188260D01*
X8614326Y2188256D01*
X8594540Y2000000D01*
X8614326Y1811744D01*
X8614327Y1811741D01*
X8672818Y1631723D01*
X8672821Y1631716D01*
X8767467Y1467784D01*
X8783930Y1449500D01*
X8798812Y1432971D01*
X8829041Y1369979D01*
X8820415Y1300644D01*
X8798812Y1267029D01*
X8767466Y1232215D01*
X8672821Y1068285D01*
X8672818Y1068278D01*
X8640166Y967784D01*
X8614326Y888256D01*
X8594540Y700000D01*
X8614326Y511744D01*
X8614327Y511741D01*
X8672818Y331723D01*
X8672821Y331716D01*
X8767467Y167784D01*
X8867253Y56961D01*
X8894129Y27112D01*
X9047265Y-84148D01*
X9047270Y-84151D01*
X9220192Y-161142D01*
X9220197Y-161144D01*
X9405354Y-200500D01*
X9405355Y-200500D01*
X9594644Y-200500D01*
X9594646Y-200500D01*
X9779803Y-161144D01*
X9952730Y-84151D01*
X10105871Y27112D01*
X10232533Y167784D01*
X10327179Y331716D01*
X10385674Y511744D01*
X10405460Y700000D01*
X10385674Y888256D01*
X10327179Y1068284D01*
X10232533Y1232216D01*
X10201188Y1267028D01*
X10170958Y1330019D01*
X10179583Y1399355D01*
X10201188Y1432972D01*
X10202915Y1434891D01*
X10232533Y1467784D01*
X10327179Y1631716D01*
X10385674Y1811744D01*
X10405460Y2000000D01*
X10385674Y2188256D01*
X10327179Y2368284D01*
X10232533Y2532216D01*
X10105871Y2672888D01*
X10077206Y2693714D01*
X9965763Y2774682D01*
X9923097Y2830012D01*
X9917118Y2899625D01*
X9943697Y2950000D01*
X10594540Y2950000D01*
X10614326Y2761744D01*
X10614327Y2761741D01*
X10672818Y2581723D01*
X10672821Y2581716D01*
X10767467Y2417784D01*
X10812036Y2368285D01*
X10866342Y2307972D01*
X10896572Y2244980D01*
X10887947Y2175645D01*
X10866342Y2142028D01*
X10767466Y2032215D01*
X10672821Y1868285D01*
X10672818Y1868278D01*
X10614327Y1688260D01*
X10614326Y1688256D01*
X10594540Y1500000D01*
X10614326Y1311744D01*
X10614327Y1311741D01*
X10672818Y1131723D01*
X10672821Y1131716D01*
X10767467Y967784D01*
X10839071Y888260D01*
X10894129Y827112D01*
X11047265Y715852D01*
X11047270Y715849D01*
X11220192Y638858D01*
X11220197Y638856D01*
X11405354Y599500D01*
X11405355Y599500D01*
X11594644Y599500D01*
X11594646Y599500D01*
X11779803Y638856D01*
X11952730Y715849D01*
X12105871Y827112D01*
X12232533Y967784D01*
X12327179Y1131716D01*
X12385674Y1311744D01*
X12405460Y1500000D01*
X12385674Y1688256D01*
X12327179Y1868284D01*
X12232533Y2032216D01*
X12133655Y2142031D01*
X12103427Y2205019D01*
X12112052Y2274354D01*
X12133653Y2307968D01*
X12232533Y2417784D01*
X12327179Y2581716D01*
X12385674Y2761744D01*
X12400866Y2906287D01*
X16149500Y2906287D01*
X16149500Y2693714D01*
X16167237Y2581723D01*
X16182754Y2483757D01*
X16239870Y2307972D01*
X16248444Y2281586D01*
X16344951Y2092180D01*
X16469890Y1920214D01*
X16620213Y1769891D01*
X16792179Y1644952D01*
X16792181Y1644951D01*
X16792184Y1644949D01*
X16981588Y1548443D01*
X17183757Y1482754D01*
X17393713Y1449500D01*
X17393714Y1449500D01*
X17606286Y1449500D01*
X17606287Y1449500D01*
X17816243Y1482754D01*
X18018412Y1548443D01*
X18207816Y1644949D01*
X18229789Y1660914D01*
X18379786Y1769891D01*
X18379788Y1769894D01*
X18379792Y1769896D01*
X18530104Y1920208D01*
X18530106Y1920212D01*
X18530109Y1920214D01*
X18655048Y2092180D01*
X18655047Y2092180D01*
X18655051Y2092184D01*
X18751557Y2281588D01*
X18817246Y2483757D01*
X18850500Y2693713D01*
X18850500Y2906287D01*
X18817246Y3116243D01*
X18751557Y3318412D01*
X18655051Y3507816D01*
X18655049Y3507819D01*
X18655048Y3507821D01*
X18530109Y3679787D01*
X18379786Y3830110D01*
X18207820Y3955049D01*
X18018414Y4051556D01*
X18018413Y4051557D01*
X18018412Y4051557D01*
X17816243Y4117246D01*
X17816241Y4117247D01*
X17816240Y4117247D01*
X17654957Y4142792D01*
X17606287Y4150500D01*
X17393713Y4150500D01*
X17345042Y4142792D01*
X17183760Y4117247D01*
X16981585Y4051556D01*
X16792179Y3955049D01*
X16620213Y3830110D01*
X16469890Y3679787D01*
X16344951Y3507821D01*
X16248444Y3318415D01*
X16182753Y3116240D01*
X16149500Y2906287D01*
X12400866Y2906287D01*
X12405460Y2950000D01*
X12385674Y3138256D01*
X12327179Y3318284D01*
X12232533Y3482216D01*
X12105871Y3622888D01*
X12105867Y3622891D01*
X12102713Y3625183D01*
X12101329Y3626978D01*
X12101042Y3627236D01*
X12101089Y3627289D01*
X12060047Y3680513D01*
X12054069Y3750127D01*
X12086676Y3811921D01*
X12147515Y3846278D01*
X12175599Y3849500D01*
X12214644Y3849500D01*
X12214646Y3849500D01*
X12399803Y3888856D01*
X12572730Y3965849D01*
X12725871Y4077112D01*
X12852533Y4217784D01*
X12947179Y4381716D01*
X13005674Y4561744D01*
X13025460Y4750000D01*
X13005674Y4938256D01*
X12947179Y5118284D01*
X12852533Y5282216D01*
X12725871Y5422888D01*
X12725870Y5422889D01*
X12572734Y5534149D01*
X12572729Y5534152D01*
X12399807Y5611143D01*
X12399802Y5611145D01*
X12254001Y5642135D01*
X12214646Y5650500D01*
X12025354Y5650500D01*
X11992897Y5643602D01*
X11840197Y5611145D01*
X11840192Y5611143D01*
X11667270Y5534152D01*
X11667265Y5534149D01*
X11514129Y5422889D01*
X11387466Y5282215D01*
X11292821Y5118285D01*
X11292818Y5118278D01*
X11234327Y4938260D01*
X11234326Y4938256D01*
X11214540Y4750000D01*
X11234326Y4561744D01*
X11234327Y4561741D01*
X11292818Y4381723D01*
X11292821Y4381716D01*
X11387467Y4217784D01*
X11477063Y4118278D01*
X11514129Y4077112D01*
X11514132Y4077110D01*
X11517287Y4074817D01*
X11518670Y4073023D01*
X11518958Y4072764D01*
X11518910Y4072712D01*
X11559953Y4019487D01*
X11565931Y3949873D01*
X11533324Y3888079D01*
X11472485Y3853722D01*
X11444401Y3850500D01*
X11405354Y3850500D01*
X11385491Y3846278D01*
X11220197Y3811145D01*
X11220192Y3811143D01*
X11047270Y3734152D01*
X11047265Y3734149D01*
X10894129Y3622889D01*
X10767466Y3482215D01*
X10672821Y3318285D01*
X10672818Y3318278D01*
X10640166Y3217784D01*
X10614326Y3138256D01*
X10594540Y2950000D01*
X9943697Y2950000D01*
X9949723Y2961420D01*
X9965763Y2975318D01*
X10105871Y3077112D01*
X10232533Y3217784D01*
X10327179Y3381716D01*
X10385674Y3561744D01*
X10405460Y3750000D01*
X10385674Y3938256D01*
X10327179Y4118284D01*
X10232533Y4282216D01*
X10105871Y4422888D01*
X10105870Y4422889D01*
X9952734Y4534149D01*
X9952729Y4534152D01*
X9779807Y4611143D01*
X9779802Y4611145D01*
X9634001Y4642135D01*
X9594646Y4650500D01*
X9405354Y4650500D01*
X9372897Y4643602D01*
X9220197Y4611145D01*
X9220192Y4611143D01*
X9047270Y4534152D01*
X9047265Y4534149D01*
X8894129Y4422889D01*
X8767466Y4282215D01*
X8672821Y4118285D01*
X8672818Y4118278D01*
X8614327Y3938260D01*
X8614326Y3938256D01*
X8594540Y3750000D01*
X3459896Y3750000D01*
X3379786Y3830110D01*
X3207820Y3955049D01*
X3018414Y4051556D01*
X3018413Y4051557D01*
X3018412Y4051557D01*
X2816243Y4117246D01*
X2816241Y4117247D01*
X2816240Y4117247D01*
X2654957Y4142792D01*
X2606287Y4150500D01*
X2393713Y4150500D01*
X2345042Y4142792D01*
X2183760Y4117247D01*
X1981585Y4051556D01*
X1792179Y3955049D01*
X1620213Y3830110D01*
X1469890Y3679787D01*
X1344951Y3507821D01*
X1248444Y3318415D01*
X1182753Y3116240D01*
X1149500Y2906287D01*
X0Y2906287D01*
X0Y11375000D01*
X4169540Y11375000D01*
X4189326Y11186744D01*
X4189327Y11186741D01*
X4247818Y11006723D01*
X4247820Y11006719D01*
X4247821Y11006716D01*
X4288072Y10936999D01*
X4304543Y10869099D01*
X4288072Y10813001D01*
X4247820Y10743282D01*
X4247818Y10743278D01*
X4189327Y10563260D01*
X4189326Y10563256D01*
X4169540Y10375000D01*
X4189326Y10186744D01*
X4189327Y10186741D01*
X4247818Y10006723D01*
X4247821Y10006716D01*
X4342467Y9842784D01*
X4469129Y9702112D01*
X4622265Y9590852D01*
X4622270Y9590849D01*
X4795192Y9513858D01*
X4795197Y9513856D01*
X4980354Y9474500D01*
X4980355Y9474500D01*
X5169644Y9474500D01*
X5169646Y9474500D01*
X5354803Y9513856D01*
X5527730Y9590849D01*
X5680871Y9702112D01*
X5807533Y9842784D01*
X5902179Y10006716D01*
X5960674Y10186744D01*
X5980460Y10375000D01*
X5980459Y10375002D01*
X5981139Y10381463D01*
X5982466Y10381324D01*
X6000145Y10441529D01*
X6052949Y10487284D01*
X6122107Y10497228D01*
X6130226Y10495783D01*
X6230354Y10474500D01*
X6230355Y10474500D01*
X6419644Y10474500D01*
X6419646Y10474500D01*
X6604803Y10513856D01*
X6777730Y10590849D01*
X6930871Y10702112D01*
X7057533Y10842784D01*
X7152179Y11006716D01*
X7210674Y11186744D01*
X7230460Y11375000D01*
X7210674Y11563256D01*
X7152179Y11743284D01*
X7057533Y11907216D01*
X6930871Y12047888D01*
X6930870Y12047889D01*
X6777734Y12159149D01*
X6777729Y12159152D01*
X6604807Y12236143D01*
X6604802Y12236145D01*
X6459001Y12267135D01*
X6419646Y12275500D01*
X6230354Y12275500D01*
X6197897Y12268602D01*
X6045197Y12236145D01*
X6045192Y12236143D01*
X5872271Y12159152D01*
X5772885Y12086944D01*
X5707078Y12063465D01*
X5639025Y12079291D01*
X5627115Y12086944D01*
X5603966Y12103763D01*
X5527730Y12159151D01*
X5527728Y12159152D01*
X5527729Y12159152D01*
X5354807Y12236143D01*
X5354802Y12236145D01*
X5209001Y12267135D01*
X5169646Y12275500D01*
X4980354Y12275500D01*
X4947897Y12268602D01*
X4795197Y12236145D01*
X4795192Y12236143D01*
X4622270Y12159152D01*
X4622265Y12159149D01*
X4469129Y12047889D01*
X4342466Y11907215D01*
X4247821Y11743285D01*
X4247818Y11743278D01*
X4189327Y11563260D01*
X4189326Y11563256D01*
X4169540Y11375000D01*
X0Y11375000D01*
X0Y43750000D01*
X-5376000Y43750000D01*
X-5443039Y43769685D01*
X-5488794Y43822489D01*
X-5500000Y43874000D01*
X-5500000Y45750000D01*
X5094540Y45750000D01*
X5114326Y45561744D01*
X5114327Y45561741D01*
X5172818Y45381723D01*
X5172821Y45381716D01*
X5267467Y45217784D01*
X5394129Y45077112D01*
X5547265Y44965852D01*
X5547270Y44965849D01*
X5720192Y44888858D01*
X5720197Y44888856D01*
X5905354Y44849500D01*
X5905355Y44849500D01*
X6094644Y44849500D01*
X6094646Y44849500D01*
X6279803Y44888856D01*
X6452730Y44965849D01*
X6605871Y45077112D01*
X6626480Y45100000D01*
X10894540Y45100000D01*
X10914326Y44911744D01*
X10914327Y44911741D01*
X10972818Y44731723D01*
X10972821Y44731716D01*
X11067467Y44567784D01*
X11135141Y44492625D01*
X11194129Y44427112D01*
X11347265Y44315852D01*
X11347270Y44315849D01*
X11520192Y44238858D01*
X11520197Y44238856D01*
X11705354Y44199500D01*
X11705355Y44199500D01*
X11894644Y44199500D01*
X11894646Y44199500D01*
X12079803Y44238856D01*
X12252730Y44315849D01*
X12405871Y44427112D01*
X12532533Y44567784D01*
X12551133Y44600000D01*
X16094540Y44600000D01*
X16114326Y44411744D01*
X16114327Y44411741D01*
X16172818Y44231723D01*
X16172821Y44231716D01*
X16267467Y44067784D01*
X16394129Y43927112D01*
X16547265Y43815852D01*
X16547270Y43815849D01*
X16720192Y43738858D01*
X16720197Y43738856D01*
X16905354Y43699500D01*
X16905355Y43699500D01*
X17094644Y43699500D01*
X17094646Y43699500D01*
X17279803Y43738856D01*
X17452730Y43815849D01*
X17605871Y43927112D01*
X17732533Y44067784D01*
X17827179Y44231716D01*
X17885674Y44411744D01*
X17894174Y44492626D01*
X17920757Y44557240D01*
X17967057Y44592944D01*
X18102730Y44653349D01*
X18255871Y44764612D01*
X18382533Y44905284D01*
X18477179Y45069216D01*
X18535674Y45249244D01*
X18555460Y45437500D01*
X18535674Y45625756D01*
X18477179Y45805784D01*
X18382533Y45969716D01*
X18255871Y46110388D01*
X18255870Y46110389D01*
X18102734Y46221649D01*
X18102729Y46221652D01*
X17929807Y46298643D01*
X17929802Y46298645D01*
X17784001Y46329635D01*
X17744646Y46338000D01*
X17555354Y46338000D01*
X17522897Y46331102D01*
X17370197Y46298645D01*
X17370192Y46298643D01*
X17197270Y46221652D01*
X17197265Y46221649D01*
X17044129Y46110389D01*
X16917466Y45969715D01*
X16822821Y45805785D01*
X16822818Y45805778D01*
X16766425Y45632217D01*
X16764326Y45625756D01*
X16757598Y45561744D01*
X16755825Y45544873D01*
X16729240Y45480259D01*
X16682941Y45444557D01*
X16547267Y45384150D01*
X16547265Y45384149D01*
X16394129Y45272889D01*
X16267466Y45132215D01*
X16172821Y44968285D01*
X16172818Y44968278D01*
X16114327Y44788260D01*
X16114326Y44788256D01*
X16094540Y44600000D01*
X12551133Y44600000D01*
X12627179Y44731716D01*
X12685674Y44911744D01*
X12705460Y45100000D01*
X12685674Y45288256D01*
X12627179Y45468284D01*
X12532533Y45632216D01*
X12405871Y45772888D01*
X12360602Y45805778D01*
X12252734Y45884149D01*
X12252729Y45884152D01*
X12079807Y45961143D01*
X12079802Y45961145D01*
X11934001Y45992135D01*
X11894646Y46000500D01*
X11705354Y46000500D01*
X11672897Y45993602D01*
X11520197Y45961145D01*
X11520192Y45961143D01*
X11347270Y45884152D01*
X11347265Y45884149D01*
X11194129Y45772889D01*
X11067468Y45632217D01*
X11067466Y45632216D01*
X10972821Y45468285D01*
X10972818Y45468278D01*
X10914327Y45288260D01*
X10914326Y45288256D01*
X10894540Y45100000D01*
X6626480Y45100000D01*
X6732533Y45217784D01*
X6827179Y45381716D01*
X6885674Y45561744D01*
X6905460Y45750000D01*
X6885674Y45938256D01*
X6827179Y46118284D01*
X6732533Y46282216D01*
X6605871Y46422888D01*
X6605870Y46422889D01*
X6452734Y46534149D01*
X6452729Y46534152D01*
X6279807Y46611143D01*
X6279802Y46611145D01*
X6134001Y46642135D01*
X6094646Y46650500D01*
X5905354Y46650500D01*
X5872897Y46643602D01*
X5720197Y46611145D01*
X5720192Y46611143D01*
X5547270Y46534152D01*
X5547265Y46534149D01*
X5394129Y46422889D01*
X5267466Y46282215D01*
X5172821Y46118285D01*
X5172818Y46118278D01*
X5114521Y45938856D01*
X5114326Y45938256D01*
X5094540Y45750000D01*
X-5500000Y45750000D01*
X-5500000Y46800000D01*
X12294540Y46800000D01*
X12314326Y46611744D01*
X12314327Y46611741D01*
X12372818Y46431723D01*
X12372821Y46431716D01*
X12467467Y46267784D01*
X12594129Y46127112D01*
X12747265Y46015852D01*
X12747270Y46015849D01*
X12920192Y45938858D01*
X12920197Y45938856D01*
X13105354Y45899500D01*
X13105355Y45899500D01*
X13294644Y45899500D01*
X13294646Y45899500D01*
X13479803Y45938856D01*
X13652730Y46015849D01*
X13805871Y46127112D01*
X13932533Y46267784D01*
X14027179Y46431716D01*
X14085674Y46611744D01*
X14105460Y46800000D01*
X14091177Y46935892D01*
X14103746Y47004618D01*
X14151478Y47055642D01*
X14219219Y47072760D01*
X14285460Y47050538D01*
X14306647Y47031823D01*
X14343180Y46991249D01*
X14496316Y46879989D01*
X14496321Y46879986D01*
X14669243Y46802995D01*
X14669248Y46802993D01*
X14854405Y46763637D01*
X14854406Y46763637D01*
X15043695Y46763637D01*
X15043697Y46763637D01*
X15228854Y46802993D01*
X15401781Y46879986D01*
X15554922Y46991249D01*
X15681584Y47131921D01*
X15776230Y47295853D01*
X15834725Y47475881D01*
X15854511Y47664137D01*
X15834725Y47852393D01*
X15776230Y48032421D01*
X15681584Y48196353D01*
X15554922Y48337025D01*
X15554921Y48337026D01*
X15401785Y48448286D01*
X15401780Y48448289D01*
X15228858Y48525280D01*
X15228853Y48525282D01*
X15083052Y48556272D01*
X15043697Y48564637D01*
X14854405Y48564637D01*
X14821948Y48557739D01*
X14669248Y48525282D01*
X14669243Y48525280D01*
X14496321Y48448289D01*
X14496316Y48448286D01*
X14343180Y48337026D01*
X14216517Y48196352D01*
X14121872Y48032422D01*
X14121869Y48032415D01*
X14063378Y47852397D01*
X14063377Y47852393D01*
X14047413Y47700500D01*
X14043591Y47664137D01*
X14057873Y47528249D01*
X14045303Y47459519D01*
X13997571Y47408496D01*
X13929831Y47391378D01*
X13863589Y47413601D01*
X13842402Y47432316D01*
X13817908Y47459519D01*
X13805871Y47472888D01*
X13801756Y47475878D01*
X13652734Y47584149D01*
X13652729Y47584152D01*
X13479807Y47661143D01*
X13479802Y47661145D01*
X13334001Y47692135D01*
X13294646Y47700500D01*
X13105354Y47700500D01*
X13072897Y47693602D01*
X12920197Y47661145D01*
X12920192Y47661143D01*
X12747270Y47584152D01*
X12747265Y47584149D01*
X12594129Y47472889D01*
X12467466Y47332215D01*
X12372821Y47168285D01*
X12372818Y47168278D01*
X12319642Y47004618D01*
X12314326Y46988256D01*
X12294540Y46800000D01*
X-5500000Y46800000D01*
X-5500000Y48971278D01*
X-5480315Y49038317D01*
X-5427511Y49084072D01*
X-5358353Y49094016D01*
X-5294797Y49064991D01*
X-5268614Y49033279D01*
X-5194832Y48905485D01*
X-5068170Y48764813D01*
X-4915034Y48653553D01*
X-4915029Y48653550D01*
X-4742107Y48576559D01*
X-4742102Y48576557D01*
X-4556945Y48537201D01*
X-4556944Y48537201D01*
X-4367655Y48537201D01*
X-4367653Y48537201D01*
X-4182496Y48576557D01*
X-4009569Y48653550D01*
X-3856428Y48764813D01*
X-3729766Y48905485D01*
X-3635120Y49069417D01*
X-3576625Y49249445D01*
X-3556839Y49437701D01*
X-3576625Y49625957D01*
X-3616929Y49750000D01*
X-905460Y49750000D01*
X-885674Y49561744D01*
X-885673Y49561741D01*
X-827182Y49381723D01*
X-827179Y49381716D01*
X-732533Y49217784D01*
X-621091Y49094016D01*
X-605871Y49077112D01*
X-452735Y48965852D01*
X-452730Y48965849D01*
X-279808Y48888858D01*
X-279803Y48888856D01*
X-94646Y48849500D01*
X-94645Y48849500D01*
X94644Y48849500D01*
X94646Y48849500D01*
X279803Y48888856D01*
X452730Y48965849D01*
X605871Y49077112D01*
X732533Y49217784D01*
X827179Y49381716D01*
X885674Y49561744D01*
X905460Y49750000D01*
X885674Y49938256D01*
X827179Y50118284D01*
X732533Y50282216D01*
X605871Y50422888D01*
X605870Y50422889D01*
X577115Y50443781D01*
X13059251Y50443781D01*
X13079037Y50255525D01*
X13079038Y50255522D01*
X13137529Y50075504D01*
X13137532Y50075497D01*
X13232178Y49911565D01*
X13338116Y49793909D01*
X13358840Y49770893D01*
X13511976Y49659633D01*
X13511981Y49659630D01*
X13684903Y49582639D01*
X13684908Y49582637D01*
X13870065Y49543281D01*
X13870066Y49543281D01*
X14059355Y49543281D01*
X14059357Y49543281D01*
X14244514Y49582637D01*
X14417441Y49659630D01*
X14570582Y49770893D01*
X14697244Y49911565D01*
X14791890Y50075497D01*
X14799853Y50100004D01*
X19794435Y50100004D01*
X19794435Y50099997D01*
X19814630Y49920751D01*
X19814631Y49920746D01*
X19874211Y49750477D01*
X19952450Y49625961D01*
X19970184Y49597738D01*
X20097738Y49470184D01*
X20188080Y49413418D01*
X20238522Y49381723D01*
X20250478Y49374211D01*
X20420745Y49314632D01*
X20420750Y49314631D01*
X20599996Y49294435D01*
X20600000Y49294435D01*
X20600004Y49294435D01*
X20779249Y49314631D01*
X20779252Y49314632D01*
X20779255Y49314632D01*
X20949522Y49374211D01*
X21102262Y49470184D01*
X21229816Y49597738D01*
X21325789Y49750478D01*
X21385368Y49920745D01*
X21387341Y49938256D01*
X21405565Y50099997D01*
X21405565Y50100004D01*
X21385369Y50279250D01*
X21385368Y50279255D01*
X21384332Y50282216D01*
X21325789Y50449522D01*
X21229816Y50602262D01*
X21102262Y50729816D01*
X20949523Y50825789D01*
X20779254Y50885369D01*
X20779249Y50885370D01*
X20600004Y50905565D01*
X20599996Y50905565D01*
X20420750Y50885370D01*
X20420745Y50885369D01*
X20250476Y50825789D01*
X20097737Y50729816D01*
X19970184Y50602263D01*
X19874211Y50449524D01*
X19814631Y50279255D01*
X19814630Y50279250D01*
X19794435Y50100004D01*
X14799853Y50100004D01*
X14850385Y50255525D01*
X14870171Y50443781D01*
X14850385Y50632037D01*
X14791890Y50812065D01*
X14697244Y50975997D01*
X14570582Y51116669D01*
X14570581Y51116670D01*
X14417445Y51227930D01*
X14417440Y51227933D01*
X14244518Y51304924D01*
X14244513Y51304926D01*
X14098712Y51335916D01*
X14059357Y51344281D01*
X13870065Y51344281D01*
X13837608Y51337383D01*
X13684908Y51304926D01*
X13684903Y51304924D01*
X13511981Y51227933D01*
X13511976Y51227930D01*
X13358840Y51116670D01*
X13232177Y50975996D01*
X13137532Y50812066D01*
X13137529Y50812059D01*
X13085036Y50650500D01*
X13079037Y50632037D01*
X13059251Y50443781D01*
X577115Y50443781D01*
X452734Y50534149D01*
X452729Y50534152D01*
X279807Y50611143D01*
X279802Y50611145D01*
X134001Y50642135D01*
X94646Y50650500D01*
X-94646Y50650500D01*
X-127103Y50643602D01*
X-279803Y50611145D01*
X-279808Y50611143D01*
X-452730Y50534152D01*
X-452735Y50534149D01*
X-605871Y50422889D01*
X-732534Y50282215D01*
X-827179Y50118285D01*
X-827182Y50118278D01*
X-875387Y49969917D01*
X-885674Y49938256D01*
X-905460Y49750000D01*
X-3616929Y49750000D01*
X-3635120Y49805985D01*
X-3729766Y49969917D01*
X-3856428Y50110589D01*
X-3867019Y50118284D01*
X-4009565Y50221850D01*
X-4009570Y50221853D01*
X-4182492Y50298844D01*
X-4182497Y50298846D01*
X-4328298Y50329836D01*
X-4367653Y50338201D01*
X-4556945Y50338201D01*
X-4589402Y50331303D01*
X-4742102Y50298846D01*
X-4742107Y50298844D01*
X-4915029Y50221853D01*
X-4915034Y50221850D01*
X-5068170Y50110590D01*
X-5194834Y49969916D01*
X-5268613Y49842125D01*
X-5319180Y49793909D01*
X-5387787Y49780686D01*
X-5452652Y49806654D01*
X-5493180Y49863569D01*
X-5500000Y49904125D01*
X-5500000Y51750000D01*
X-3155460Y51750000D01*
X-3135674Y51561744D01*
X-3135673Y51561741D01*
X-3077182Y51381723D01*
X-3077179Y51381716D01*
X-2982533Y51217784D01*
X-2891489Y51116670D01*
X-2855871Y51077112D01*
X-2702735Y50965852D01*
X-2702730Y50965849D01*
X-2529808Y50888858D01*
X-2529803Y50888856D01*
X-2344646Y50849500D01*
X-2344645Y50849500D01*
X-2155356Y50849500D01*
X-2155354Y50849500D01*
X-1970197Y50888856D01*
X-1797270Y50965849D01*
X-1644129Y51077112D01*
X-1517467Y51217784D01*
X-1422821Y51381716D01*
X-1364326Y51561744D01*
X-1344540Y51750000D01*
X-1360305Y51900000D01*
X694540Y51900000D01*
X714326Y51711744D01*
X714327Y51711741D01*
X772818Y51531723D01*
X772821Y51531716D01*
X867467Y51367784D01*
X924065Y51304926D01*
X994129Y51227112D01*
X1147265Y51115852D01*
X1147270Y51115849D01*
X1320192Y51038858D01*
X1320197Y51038856D01*
X1505354Y50999500D01*
X1505355Y50999500D01*
X1694644Y50999500D01*
X1694646Y50999500D01*
X1879803Y51038856D01*
X2052730Y51115849D01*
X2205871Y51227112D01*
X2332533Y51367784D01*
X2427179Y51531716D01*
X2485674Y51711744D01*
X2505460Y51900000D01*
X2485674Y52088256D01*
X2427179Y52268284D01*
X2408868Y52300000D01*
X7194540Y52300000D01*
X7214326Y52111744D01*
X7214327Y52111741D01*
X7272818Y51931723D01*
X7272821Y51931716D01*
X7367467Y51767784D01*
X7483553Y51638858D01*
X7494129Y51627112D01*
X7647265Y51515852D01*
X7647270Y51515849D01*
X7820192Y51438858D01*
X7820197Y51438856D01*
X8005354Y51399500D01*
X8005355Y51399500D01*
X8194644Y51399500D01*
X8194646Y51399500D01*
X8379803Y51438856D01*
X8552730Y51515849D01*
X8705871Y51627112D01*
X8832533Y51767784D01*
X8927179Y51931716D01*
X8985674Y52111744D01*
X9005460Y52300000D01*
X8985674Y52488256D01*
X8927179Y52668284D01*
X8832533Y52832216D01*
X8705871Y52972888D01*
X8705870Y52972889D01*
X8552734Y53084149D01*
X8552729Y53084152D01*
X8379807Y53161143D01*
X8379802Y53161145D01*
X8234001Y53192135D01*
X8194646Y53200500D01*
X8005354Y53200500D01*
X7972897Y53193602D01*
X7820197Y53161145D01*
X7820192Y53161143D01*
X7647270Y53084152D01*
X7647265Y53084149D01*
X7494129Y52972889D01*
X7367466Y52832215D01*
X7272821Y52668285D01*
X7272818Y52668278D01*
X7218142Y52500000D01*
X7214326Y52488256D01*
X7194540Y52300000D01*
X2408868Y52300000D01*
X2332533Y52432216D01*
X2205871Y52572888D01*
X2205870Y52572889D01*
X2052734Y52684149D01*
X2052729Y52684152D01*
X1879807Y52761143D01*
X1879802Y52761145D01*
X1734001Y52792135D01*
X1694646Y52800500D01*
X1505354Y52800500D01*
X1472897Y52793602D01*
X1320197Y52761145D01*
X1320192Y52761143D01*
X1147270Y52684152D01*
X1147265Y52684149D01*
X994129Y52572889D01*
X867466Y52432215D01*
X772821Y52268285D01*
X772818Y52268278D01*
X714327Y52088260D01*
X714326Y52088256D01*
X694540Y51900000D01*
X-1360305Y51900000D01*
X-1364326Y51938256D01*
X-1422821Y52118284D01*
X-1517467Y52282216D01*
X-1644129Y52422888D01*
X-1644130Y52422889D01*
X-1797266Y52534149D01*
X-1797271Y52534152D01*
X-1970193Y52611143D01*
X-1970198Y52611145D01*
X-2115999Y52642135D01*
X-2155354Y52650500D01*
X-2344646Y52650500D01*
X-2377103Y52643602D01*
X-2529803Y52611145D01*
X-2529808Y52611143D01*
X-2702730Y52534152D01*
X-2702735Y52534149D01*
X-2855871Y52422889D01*
X-2982534Y52282215D01*
X-3077179Y52118285D01*
X-3077182Y52118278D01*
X-3106803Y52027112D01*
X-3135674Y51938256D01*
X-3155460Y51750000D01*
X-5500000Y51750000D01*
X-5500000Y53900004D01*
X10394435Y53900004D01*
X10394435Y53899997D01*
X10414630Y53720751D01*
X10414631Y53720746D01*
X10474211Y53550477D01*
X10515886Y53484152D01*
X10570184Y53397738D01*
X10697738Y53270184D01*
X10850478Y53174211D01*
X11020745Y53114632D01*
X11020750Y53114631D01*
X11199996Y53094435D01*
X11200000Y53094435D01*
X11200004Y53094435D01*
X11300703Y53105781D01*
X11369524Y53093727D01*
X11420904Y53046377D01*
X11438528Y52978767D01*
X11432517Y52944243D01*
X11414326Y52888256D01*
X11394540Y52700000D01*
X11414326Y52511744D01*
X11414327Y52511741D01*
X11472818Y52331723D01*
X11472821Y52331716D01*
X11567467Y52167784D01*
X11639071Y52088260D01*
X11694129Y52027112D01*
X11847265Y51915852D01*
X11847270Y51915849D01*
X12020192Y51838858D01*
X12020197Y51838856D01*
X12205354Y51799500D01*
X12205355Y51799500D01*
X12394644Y51799500D01*
X12394646Y51799500D01*
X12579803Y51838856D01*
X12752730Y51915849D01*
X12905871Y52027112D01*
X13032533Y52167784D01*
X13127179Y52331716D01*
X13181858Y52500000D01*
X23394540Y52500000D01*
X23414326Y52311744D01*
X23414327Y52311741D01*
X23472818Y52131723D01*
X23472821Y52131716D01*
X23567467Y51967784D01*
X23683553Y51838858D01*
X23694129Y51827112D01*
X23847265Y51715852D01*
X23847270Y51715849D01*
X24020192Y51638858D01*
X24020197Y51638856D01*
X24205354Y51599500D01*
X24205355Y51599500D01*
X24394644Y51599500D01*
X24394646Y51599500D01*
X24579803Y51638856D01*
X24752730Y51715849D01*
X24905871Y51827112D01*
X25032533Y51967784D01*
X25127179Y52131716D01*
X25185674Y52311744D01*
X25205460Y52500000D01*
X25185674Y52688256D01*
X25127179Y52868284D01*
X25032533Y53032216D01*
X24905871Y53172888D01*
X24904049Y53174212D01*
X24752734Y53284149D01*
X24752729Y53284152D01*
X24579807Y53361143D01*
X24579802Y53361145D01*
X24407640Y53397738D01*
X24394646Y53400500D01*
X24205354Y53400500D01*
X24192360Y53397738D01*
X24020197Y53361145D01*
X24020192Y53361143D01*
X23847270Y53284152D01*
X23847265Y53284149D01*
X23694129Y53172889D01*
X23567466Y53032215D01*
X23472821Y52868285D01*
X23472818Y52868278D01*
X23418142Y52700000D01*
X23414326Y52688256D01*
X23394540Y52500000D01*
X13181858Y52500000D01*
X13185674Y52511744D01*
X13205460Y52700000D01*
X13185674Y52888256D01*
X13127179Y53068284D01*
X13032533Y53232216D01*
X12905871Y53372888D01*
X12871668Y53397738D01*
X12752734Y53484149D01*
X12752729Y53484152D01*
X12579807Y53561143D01*
X12579802Y53561145D01*
X12434001Y53592135D01*
X12394646Y53600500D01*
X12205354Y53600500D01*
X12205353Y53600500D01*
X12134350Y53585408D01*
X12064683Y53590724D01*
X12008950Y53632861D01*
X11984845Y53698441D01*
X11985350Y53720581D01*
X12005565Y53899997D01*
X12005565Y53900004D01*
X11985369Y54079250D01*
X11985368Y54079255D01*
X11925788Y54249524D01*
X11829815Y54402263D01*
X11702262Y54529816D01*
X11549523Y54625789D01*
X11379254Y54685369D01*
X11379249Y54685370D01*
X11200004Y54705565D01*
X11199996Y54705565D01*
X11020750Y54685370D01*
X11020745Y54685369D01*
X10850476Y54625789D01*
X10697737Y54529816D01*
X10570184Y54402263D01*
X10474211Y54249524D01*
X10414631Y54079255D01*
X10414630Y54079250D01*
X10394435Y53900004D01*
X-5500000Y53900004D01*
X-5500000Y57600004D01*
X5094435Y57600004D01*
X5094435Y57599997D01*
X5114630Y57420751D01*
X5114633Y57420738D01*
X5174209Y57250480D01*
X5227309Y57165971D01*
X5246309Y57098734D01*
X5227309Y57034029D01*
X5174209Y56949521D01*
X5114633Y56779263D01*
X5114630Y56779250D01*
X5094435Y56600004D01*
X5094435Y56599997D01*
X5114630Y56420751D01*
X5114631Y56420746D01*
X5174211Y56250477D01*
X5174511Y56250000D01*
X5270184Y56097738D01*
X5397738Y55970184D01*
X5550478Y55874211D01*
X5720745Y55814632D01*
X5720750Y55814631D01*
X5899996Y55794435D01*
X5900000Y55794435D01*
X5900004Y55794435D01*
X6079249Y55814631D01*
X6079252Y55814632D01*
X6079255Y55814632D01*
X6249522Y55874211D01*
X6402262Y55970184D01*
X6529816Y56097738D01*
X6625789Y56250478D01*
X6685368Y56420745D01*
X6705565Y56600000D01*
X6685368Y56779255D01*
X6625789Y56949522D01*
X6625788Y56949525D01*
X6572691Y57034027D01*
X6553690Y57101264D01*
X6572691Y57165973D01*
X6625788Y57250476D01*
X6625789Y57250478D01*
X6685368Y57420745D01*
X6705565Y57600000D01*
X6685368Y57779255D01*
X6625789Y57949522D01*
X6529816Y58102262D01*
X6402262Y58229816D01*
X6361512Y58255421D01*
X6249523Y58325789D01*
X6079254Y58385369D01*
X6079249Y58385370D01*
X5900004Y58405565D01*
X5899996Y58405565D01*
X5720750Y58385370D01*
X5720745Y58385369D01*
X5550476Y58325789D01*
X5397737Y58229816D01*
X5270184Y58102263D01*
X5174211Y57949524D01*
X5114631Y57779255D01*
X5114630Y57779250D01*
X5094435Y57600004D01*
X-5500000Y57600004D01*
X-5500000Y59000001D01*
X15894785Y59000001D01*
X15894785Y59000000D01*
X15913602Y58796918D01*
X15969417Y58600753D01*
X15969422Y58600740D01*
X16060327Y58418179D01*
X16183237Y58255419D01*
X16333958Y58118020D01*
X16333960Y58118018D01*
X16359407Y58102262D01*
X16507363Y58010652D01*
X16697544Y57936976D01*
X16898024Y57899500D01*
X16898026Y57899500D01*
X17101974Y57899500D01*
X17101976Y57899500D01*
X17302456Y57936976D01*
X17492637Y58010652D01*
X17666041Y58118019D01*
X17816764Y58255421D01*
X17939673Y58418179D01*
X18030582Y58600750D01*
X18086397Y58796917D01*
X18105215Y59000000D01*
X18086397Y59203083D01*
X18030582Y59399250D01*
X17939673Y59581821D01*
X17816764Y59744579D01*
X17816762Y59744582D01*
X17750540Y59804951D01*
X17714258Y59864662D01*
X17716019Y59934510D01*
X17729875Y59961815D01*
X17729284Y59962156D01*
X17753071Y60003358D01*
X17827179Y60131716D01*
X17885674Y60311744D01*
X17905460Y60500000D01*
X17885674Y60688256D01*
X17827179Y60868284D01*
X17732533Y61032216D01*
X17605871Y61172888D01*
X17568559Y61199997D01*
X17452734Y61284149D01*
X17452729Y61284152D01*
X17279807Y61361143D01*
X17279802Y61361145D01*
X17134001Y61392135D01*
X17094646Y61400500D01*
X16905354Y61400500D01*
X16872897Y61393602D01*
X16720197Y61361145D01*
X16720192Y61361143D01*
X16547270Y61284152D01*
X16547265Y61284149D01*
X16394129Y61172889D01*
X16267466Y61032215D01*
X16172821Y60868285D01*
X16172818Y60868278D01*
X16124882Y60720745D01*
X16114326Y60688256D01*
X16094540Y60500000D01*
X16114326Y60311744D01*
X16114327Y60311741D01*
X16172818Y60131723D01*
X16172821Y60131716D01*
X16270716Y59962156D01*
X16269169Y59961264D01*
X16289719Y59903660D01*
X16273890Y59835607D01*
X16249460Y59804952D01*
X16183238Y59744582D01*
X16060327Y59581822D01*
X15969422Y59399261D01*
X15969417Y59399248D01*
X15913602Y59203083D01*
X15894785Y59000001D01*
X-5500000Y59000001D01*
X-5500000Y61250000D01*
X2344540Y61250000D01*
X2364326Y61061744D01*
X2364327Y61061741D01*
X2422818Y60881723D01*
X2422821Y60881716D01*
X2517467Y60717784D01*
X2644129Y60577112D01*
X2797265Y60465852D01*
X2797270Y60465849D01*
X2957666Y60394435D01*
X2970197Y60388856D01*
X3028080Y60376553D01*
X3089558Y60343363D01*
X3120227Y60293582D01*
X3172818Y60131723D01*
X3172821Y60131716D01*
X3267467Y59967784D01*
X3325205Y59903660D01*
X3394129Y59827112D01*
X3547265Y59715852D01*
X3547270Y59715849D01*
X3720192Y59638858D01*
X3720197Y59638856D01*
X3905354Y59599500D01*
X3905355Y59599500D01*
X4094644Y59599500D01*
X4094646Y59599500D01*
X4279803Y59638856D01*
X4452730Y59715849D01*
X4605871Y59827112D01*
X4732533Y59967784D01*
X4827179Y60131716D01*
X4885674Y60311744D01*
X4905460Y60500000D01*
X4885674Y60688256D01*
X4827179Y60868284D01*
X4732533Y61032216D01*
X4605871Y61172888D01*
X4568559Y61199997D01*
X4452734Y61284149D01*
X4452729Y61284152D01*
X4279807Y61361143D01*
X4279803Y61361144D01*
X4221921Y61373448D01*
X4160439Y61406641D01*
X4129772Y61456420D01*
X4077181Y61618279D01*
X4077178Y61618285D01*
X4072846Y61625789D01*
X3982533Y61782216D01*
X3855871Y61922888D01*
X3851878Y61925789D01*
X3702734Y62034149D01*
X3702729Y62034152D01*
X3529807Y62111143D01*
X3529802Y62111145D01*
X3384001Y62142135D01*
X3344646Y62150500D01*
X3155354Y62150500D01*
X3122897Y62143602D01*
X2970197Y62111145D01*
X2970192Y62111143D01*
X2797270Y62034152D01*
X2797265Y62034149D01*
X2644129Y61922889D01*
X2517466Y61782215D01*
X2422821Y61618285D01*
X2422818Y61618278D01*
X2370228Y61456420D01*
X2364326Y61438256D01*
X2344540Y61250000D01*
X-5500000Y61250000D01*
X-5500000Y62400004D01*
X6294435Y62400004D01*
X6294435Y62399997D01*
X6314630Y62220751D01*
X6314631Y62220746D01*
X6374211Y62050477D01*
X6470184Y61897738D01*
X6597740Y61770182D01*
X6646974Y61739247D01*
X6693266Y61686913D01*
X6703915Y61617859D01*
X6685999Y61568285D01*
X6674210Y61549522D01*
X6614633Y61379263D01*
X6614630Y61379250D01*
X6594435Y61200004D01*
X6594435Y61199997D01*
X6614630Y61020751D01*
X6614631Y61020746D01*
X6674211Y60850477D01*
X6755724Y60720751D01*
X6770184Y60697738D01*
X6897738Y60570184D01*
X7050478Y60474211D01*
X7220745Y60414632D01*
X7220750Y60414631D01*
X7399996Y60394435D01*
X7400000Y60394435D01*
X7400004Y60394435D01*
X7579249Y60414631D01*
X7579252Y60414632D01*
X7579255Y60414632D01*
X7749522Y60474211D01*
X7902262Y60570184D01*
X8029816Y60697738D01*
X8125789Y60850478D01*
X8185368Y61020745D01*
X8185369Y61020751D01*
X8205565Y61199997D01*
X8205565Y61200004D01*
X8185369Y61379250D01*
X8185368Y61379255D01*
X8177934Y61400500D01*
X8125789Y61549522D01*
X8113999Y61568285D01*
X8047816Y61673615D01*
X8029816Y61702262D01*
X7902262Y61829816D01*
X7902260Y61829818D01*
X7853022Y61860756D01*
X7806732Y61913090D01*
X7796084Y61982144D01*
X7814001Y62031718D01*
X7825789Y62050478D01*
X7885368Y62220745D01*
X7905565Y62400000D01*
X7885821Y62575233D01*
X7885369Y62579250D01*
X7885368Y62579255D01*
X7825788Y62749524D01*
X7817011Y62763492D01*
X9752451Y62763492D01*
X9772237Y62575236D01*
X9772238Y62575233D01*
X9830729Y62395215D01*
X9830732Y62395208D01*
X9925378Y62231276D01*
X10033545Y62111145D01*
X10052040Y62090604D01*
X10205176Y61979344D01*
X10205181Y61979341D01*
X10384045Y61899704D01*
X10382810Y61896931D01*
X10429632Y61865115D01*
X10457017Y61800835D01*
X10445303Y61731955D01*
X10398209Y61680342D01*
X10374823Y61669301D01*
X10250479Y61625791D01*
X10097737Y61529816D01*
X9970184Y61402263D01*
X9874211Y61249524D01*
X9814631Y61079255D01*
X9814630Y61079250D01*
X9794435Y60900004D01*
X9794435Y60899997D01*
X9814630Y60720751D01*
X9814631Y60720746D01*
X9874211Y60550477D01*
X9927385Y60465852D01*
X9970184Y60397738D01*
X10097738Y60270184D01*
X10250478Y60174211D01*
X10371902Y60131723D01*
X10420745Y60114632D01*
X10420750Y60114631D01*
X10599996Y60094435D01*
X10600000Y60094435D01*
X10600004Y60094435D01*
X10779249Y60114631D01*
X10779252Y60114632D01*
X10779255Y60114632D01*
X10949522Y60174211D01*
X11102262Y60270184D01*
X11229816Y60397738D01*
X11325789Y60550478D01*
X11385368Y60720745D01*
X11399985Y60850477D01*
X11405565Y60899997D01*
X11405565Y60900004D01*
X11385369Y61079250D01*
X11385368Y61079255D01*
X11352604Y61172889D01*
X11325789Y61249522D01*
X11304031Y61284149D01*
X11255652Y61361144D01*
X11229816Y61402262D01*
X11102262Y61529816D01*
X11041039Y61568285D01*
X10949520Y61625791D01*
X10871362Y61653140D01*
X10814587Y61693862D01*
X10788840Y61758815D01*
X10802297Y61827377D01*
X10850685Y61877779D01*
X10886530Y61891469D01*
X10937714Y61902348D01*
X11110641Y61979341D01*
X11263782Y62090604D01*
X11390444Y62231276D01*
X11485090Y62395208D01*
X11543585Y62575236D01*
X11563371Y62763492D01*
X11543585Y62951748D01*
X11485090Y63131776D01*
X11390444Y63295708D01*
X11263782Y63436380D01*
X11263781Y63436381D01*
X11110645Y63547641D01*
X11110640Y63547644D01*
X10937718Y63624635D01*
X10937713Y63624637D01*
X10791912Y63655627D01*
X10752557Y63663992D01*
X10563265Y63663992D01*
X10530808Y63657094D01*
X10378108Y63624637D01*
X10378103Y63624635D01*
X10205181Y63547644D01*
X10205176Y63547641D01*
X10052040Y63436381D01*
X9925377Y63295707D01*
X9830732Y63131777D01*
X9830729Y63131770D01*
X9772238Y62951752D01*
X9772237Y62951748D01*
X9752451Y62763492D01*
X7817011Y62763492D01*
X7729815Y62902263D01*
X7602262Y63029816D01*
X7449523Y63125789D01*
X7279254Y63185369D01*
X7279249Y63185370D01*
X7100004Y63205565D01*
X7099996Y63205565D01*
X6920750Y63185370D01*
X6920745Y63185369D01*
X6750476Y63125789D01*
X6597737Y63029816D01*
X6470184Y62902263D01*
X6374211Y62749524D01*
X6314631Y62579255D01*
X6314630Y62579250D01*
X6294435Y62400004D01*
X-5500000Y62400004D01*
X-5500000Y63700000D01*
X-4505460Y63700000D01*
X-4485674Y63511744D01*
X-4485673Y63511741D01*
X-4427182Y63331723D01*
X-4427179Y63331716D01*
X-4332533Y63167784D01*
X-4208306Y63029816D01*
X-4205871Y63027112D01*
X-4052735Y62915852D01*
X-4052730Y62915849D01*
X-3879808Y62838858D01*
X-3879803Y62838856D01*
X-3694646Y62799500D01*
X-3694645Y62799500D01*
X-3505356Y62799500D01*
X-3505354Y62799500D01*
X-3320197Y62838856D01*
X-3147270Y62915849D01*
X-2994129Y63027112D01*
X-2867467Y63167784D01*
X-2772821Y63331716D01*
X-2714326Y63511744D01*
X-2694540Y63700000D01*
X-2714326Y63888256D01*
X-2726265Y63925000D01*
X11694540Y63925000D01*
X11714326Y63736744D01*
X11714327Y63736741D01*
X11772818Y63556723D01*
X11772821Y63556716D01*
X11867467Y63392784D01*
X11922447Y63331723D01*
X11994129Y63252112D01*
X12147265Y63140852D01*
X12147270Y63140849D01*
X12320192Y63063858D01*
X12320197Y63063856D01*
X12505354Y63024500D01*
X12505355Y63024500D01*
X12694644Y63024500D01*
X12694646Y63024500D01*
X12879803Y63063856D01*
X13052730Y63140849D01*
X13205871Y63252112D01*
X13332533Y63392784D01*
X13427179Y63556716D01*
X13485674Y63736744D01*
X13505460Y63925000D01*
X13485674Y64113256D01*
X13427179Y64293284D01*
X13334237Y64454265D01*
X13317764Y64522166D01*
X13340617Y64588192D01*
X13391187Y64629544D01*
X13472730Y64665849D01*
X13625871Y64777112D01*
X13752533Y64917784D01*
X13847179Y65081716D01*
X13905674Y65261744D01*
X13925460Y65450000D01*
X13924142Y65462540D01*
X13936712Y65531269D01*
X13984444Y65582292D01*
X14047463Y65599500D01*
X14094644Y65599500D01*
X14094646Y65599500D01*
X14279803Y65638856D01*
X14452730Y65715849D01*
X14605871Y65827112D01*
X14732533Y65967784D01*
X14827179Y66131716D01*
X14885674Y66311744D01*
X14905460Y66500000D01*
X14885674Y66688256D01*
X14827179Y66868284D01*
X14732533Y67032216D01*
X14605871Y67172888D01*
X14584719Y67188256D01*
X14452734Y67284149D01*
X14452729Y67284152D01*
X14279807Y67361143D01*
X14279802Y67361145D01*
X14134001Y67392135D01*
X14094646Y67400500D01*
X13905354Y67400500D01*
X13872897Y67393602D01*
X13720197Y67361145D01*
X13720192Y67361143D01*
X13547270Y67284152D01*
X13547265Y67284149D01*
X13394129Y67172889D01*
X13267466Y67032215D01*
X13172821Y66868285D01*
X13172818Y66868278D01*
X13114327Y66688260D01*
X13114326Y66688256D01*
X13100966Y66561143D01*
X13094540Y66500000D01*
X13095858Y66487461D01*
X13083288Y66418731D01*
X13035556Y66367708D01*
X12972537Y66350500D01*
X12925354Y66350500D01*
X12892897Y66343602D01*
X12740197Y66311145D01*
X12740192Y66311143D01*
X12567270Y66234152D01*
X12567265Y66234149D01*
X12414129Y66122889D01*
X12287466Y65982215D01*
X12192821Y65818285D01*
X12192818Y65818278D01*
X12134521Y65638856D01*
X12134326Y65638256D01*
X12114540Y65450000D01*
X12134326Y65261744D01*
X12134327Y65261741D01*
X12192818Y65081723D01*
X12192823Y65081711D01*
X12285762Y64920735D01*
X12302235Y64852835D01*
X12279382Y64786808D01*
X12228812Y64745457D01*
X12147267Y64709150D01*
X12147265Y64709149D01*
X11994129Y64597889D01*
X11867466Y64457215D01*
X11772821Y64293285D01*
X11772818Y64293278D01*
X11752978Y64232215D01*
X11714326Y64113256D01*
X11694540Y63925000D01*
X-2726265Y63925000D01*
X-2772821Y64068284D01*
X-2867467Y64232216D01*
X-2994129Y64372888D01*
X-2994130Y64372889D01*
X-3147266Y64484149D01*
X-3147271Y64484152D01*
X-3320193Y64561143D01*
X-3320198Y64561145D01*
X-3465999Y64592135D01*
X-3505354Y64600500D01*
X-3694646Y64600500D01*
X-3727103Y64593602D01*
X-3879803Y64561145D01*
X-3879808Y64561143D01*
X-4052730Y64484152D01*
X-4052735Y64484149D01*
X-4205871Y64372889D01*
X-4332534Y64232215D01*
X-4427179Y64068285D01*
X-4427182Y64068278D01*
X-4485673Y63888260D01*
X-4485674Y63888256D01*
X-4505460Y63700000D01*
X-5500000Y63700000D01*
X-5500000Y65576000D01*
X-5480315Y65643039D01*
X-5427511Y65688794D01*
X-5376000Y65700000D01*
X0Y65700000D01*
X894540Y65700000D01*
X914326Y65511744D01*
X914327Y65511741D01*
X972818Y65331723D01*
X972821Y65331716D01*
X1067467Y65167784D01*
X1144968Y65081711D01*
X1194129Y65027112D01*
X1347265Y64915852D01*
X1347270Y64915849D01*
X1520192Y64838858D01*
X1520197Y64838856D01*
X1705354Y64799500D01*
X1705355Y64799500D01*
X1894644Y64799500D01*
X1894646Y64799500D01*
X2079803Y64838856D01*
X2252730Y64915849D01*
X2405871Y65027112D01*
X2532533Y65167784D01*
X2592613Y65271847D01*
X2643179Y65320061D01*
X2711786Y65333285D01*
X2776651Y65307317D01*
X2807386Y65271847D01*
X2867467Y65167784D01*
X2944968Y65081711D01*
X2994129Y65027112D01*
X3147265Y64915852D01*
X3147270Y64915849D01*
X3320192Y64838858D01*
X3320197Y64838856D01*
X3505354Y64799500D01*
X3505355Y64799500D01*
X3694644Y64799500D01*
X3694646Y64799500D01*
X3879803Y64838856D01*
X4052730Y64915849D01*
X4205871Y65027112D01*
X4332533Y65167784D01*
X4427179Y65331716D01*
X4485674Y65511744D01*
X4505460Y65700000D01*
X4485674Y65888256D01*
X4431112Y66056177D01*
X4427181Y66068278D01*
X4427180Y66068279D01*
X4427179Y66068284D01*
X4332533Y66232216D01*
X4205871Y66372888D01*
X4205870Y66372889D01*
X4052734Y66484149D01*
X4052729Y66484152D01*
X3879807Y66561143D01*
X3879802Y66561145D01*
X3734001Y66592135D01*
X3694646Y66600500D01*
X3505354Y66600500D01*
X3472897Y66593602D01*
X3320197Y66561145D01*
X3320192Y66561143D01*
X3147270Y66484152D01*
X3147265Y66484149D01*
X2994129Y66372889D01*
X2867465Y66232215D01*
X2807387Y66128155D01*
X2756820Y66079939D01*
X2688213Y66066716D01*
X2623348Y66092684D01*
X2592613Y66128155D01*
X2532534Y66232215D01*
X2405870Y66372889D01*
X2252734Y66484149D01*
X2252729Y66484152D01*
X2079807Y66561143D01*
X2079802Y66561145D01*
X1934001Y66592135D01*
X1894646Y66600500D01*
X1705354Y66600500D01*
X1672897Y66593602D01*
X1520197Y66561145D01*
X1520192Y66561143D01*
X1347270Y66484152D01*
X1347265Y66484149D01*
X1194129Y66372889D01*
X1067466Y66232215D01*
X972821Y66068285D01*
X972818Y66068278D01*
X940166Y65967784D01*
X914326Y65888256D01*
X894540Y65700000D01*
X0Y65700000D01*
X0Y67000000D01*
X5094540Y67000000D01*
X5114326Y66811744D01*
X5114327Y66811741D01*
X5172818Y66631723D01*
X5172820Y66631719D01*
X5172821Y66631716D01*
X5267467Y66467784D01*
X5311635Y66418731D01*
X5394129Y66327112D01*
X5534981Y66224777D01*
X5577647Y66169447D01*
X5583626Y66099834D01*
X5575377Y66074028D01*
X5572822Y66068291D01*
X5540166Y65967784D01*
X5514326Y65888256D01*
X5494540Y65700000D01*
X5514326Y65511744D01*
X5514327Y65511741D01*
X5572818Y65331723D01*
X5572821Y65331716D01*
X5667467Y65167784D01*
X5744968Y65081711D01*
X5794129Y65027112D01*
X5947265Y64915852D01*
X5947270Y64915849D01*
X6120192Y64838858D01*
X6120197Y64838856D01*
X6305354Y64799500D01*
X6305355Y64799500D01*
X6494644Y64799500D01*
X6494646Y64799500D01*
X6679803Y64838856D01*
X6852730Y64915849D01*
X7005871Y65027112D01*
X7132533Y65167784D01*
X7227179Y65331716D01*
X7285674Y65511744D01*
X7305460Y65700000D01*
X7285674Y65888256D01*
X7231112Y66056177D01*
X7227181Y66068278D01*
X7227180Y66068279D01*
X7227179Y66068284D01*
X7132533Y66232216D01*
X7005871Y66372888D01*
X7005870Y66372889D01*
X6865018Y66475224D01*
X6822352Y66530554D01*
X6816373Y66600167D01*
X6824627Y66625985D01*
X6827180Y66631719D01*
X6845551Y66688260D01*
X6885674Y66811744D01*
X6905460Y67000000D01*
X6885674Y67188256D01*
X6827179Y67368284D01*
X6732533Y67532216D01*
X6605871Y67672888D01*
X6592292Y67682754D01*
X6452734Y67784149D01*
X6452729Y67784152D01*
X6279807Y67861143D01*
X6279802Y67861145D01*
X6134001Y67892135D01*
X6094646Y67900500D01*
X5905354Y67900500D01*
X5872897Y67893602D01*
X5720197Y67861145D01*
X5720192Y67861143D01*
X5547270Y67784152D01*
X5547265Y67784149D01*
X5394129Y67672889D01*
X5267466Y67532215D01*
X5172821Y67368285D01*
X5172818Y67368278D01*
X5114327Y67188260D01*
X5114326Y67188256D01*
X5094540Y67000000D01*
X0Y67000000D01*
X0Y69106287D01*
X2149500Y69106287D01*
X2149500Y68893714D01*
X2182753Y68683761D01*
X2248444Y68481586D01*
X2344951Y68292180D01*
X2469890Y68120214D01*
X2620213Y67969891D01*
X2792179Y67844952D01*
X2792181Y67844951D01*
X2792184Y67844949D01*
X2981588Y67748443D01*
X3183757Y67682754D01*
X3393713Y67649500D01*
X3393714Y67649500D01*
X3606286Y67649500D01*
X3606287Y67649500D01*
X3816243Y67682754D01*
X4018412Y67748443D01*
X4207816Y67844949D01*
X4284276Y67900500D01*
X4379786Y67969891D01*
X4379788Y67969894D01*
X4379792Y67969896D01*
X4530104Y68120208D01*
X4530106Y68120212D01*
X4530109Y68120214D01*
X4655048Y68292180D01*
X4655047Y68292180D01*
X4655051Y68292184D01*
X4751557Y68481588D01*
X4817246Y68683757D01*
X4850500Y68893713D01*
X4850500Y69106287D01*
X4817246Y69316243D01*
X4751557Y69518412D01*
X4655051Y69707816D01*
X4655049Y69707819D01*
X4655048Y69707821D01*
X4569046Y69826194D01*
X6910502Y69826194D01*
X6930288Y69637938D01*
X6930289Y69637935D01*
X6988780Y69457917D01*
X6988783Y69457910D01*
X7083429Y69293978D01*
X7153777Y69215849D01*
X7210091Y69153306D01*
X7363227Y69042046D01*
X7363232Y69042043D01*
X7536154Y68965052D01*
X7536159Y68965050D01*
X7721316Y68925694D01*
X7721317Y68925694D01*
X7910606Y68925694D01*
X7910608Y68925694D01*
X8095765Y68965050D01*
X8268692Y69042043D01*
X8421833Y69153306D01*
X8548495Y69293978D01*
X8643141Y69457910D01*
X8701636Y69637938D01*
X8721422Y69826194D01*
X8703155Y70000000D01*
X9344540Y70000000D01*
X9364326Y69811744D01*
X9364327Y69811741D01*
X9422818Y69631723D01*
X9422821Y69631716D01*
X9517467Y69467784D01*
X9526358Y69457910D01*
X9644129Y69327112D01*
X9797265Y69215852D01*
X9797270Y69215849D01*
X9970192Y69138858D01*
X9970197Y69138856D01*
X10155354Y69099500D01*
X10155355Y69099500D01*
X10344644Y69099500D01*
X10344646Y69099500D01*
X10529803Y69138856D01*
X10702730Y69215849D01*
X10855871Y69327112D01*
X10982533Y69467784D01*
X11077179Y69631716D01*
X11135674Y69811744D01*
X11155460Y70000000D01*
X11135674Y70188256D01*
X11077179Y70368284D01*
X10982533Y70532216D01*
X10855871Y70672888D01*
X10835984Y70687337D01*
X10702734Y70784149D01*
X10702729Y70784152D01*
X10529807Y70861143D01*
X10529802Y70861145D01*
X10384001Y70892135D01*
X10344646Y70900500D01*
X10155354Y70900500D01*
X10122897Y70893602D01*
X9970197Y70861145D01*
X9970192Y70861143D01*
X9797270Y70784152D01*
X9797265Y70784149D01*
X9644129Y70672889D01*
X9517466Y70532215D01*
X9422821Y70368285D01*
X9422818Y70368278D01*
X9364327Y70188260D01*
X9364326Y70188256D01*
X9344540Y70000000D01*
X8703155Y70000000D01*
X8701636Y70014450D01*
X8643141Y70194478D01*
X8548495Y70358410D01*
X8421833Y70499082D01*
X8421832Y70499083D01*
X8268696Y70610343D01*
X8268691Y70610346D01*
X8095769Y70687337D01*
X8095764Y70687339D01*
X7949963Y70718329D01*
X7910608Y70726694D01*
X7721316Y70726694D01*
X7688859Y70719796D01*
X7536159Y70687339D01*
X7536154Y70687337D01*
X7363232Y70610346D01*
X7363227Y70610343D01*
X7210091Y70499083D01*
X7083428Y70358409D01*
X6988783Y70194479D01*
X6988780Y70194472D01*
X6935376Y70030110D01*
X6930288Y70014450D01*
X6910502Y69826194D01*
X4569046Y69826194D01*
X4530109Y69879787D01*
X4379786Y70030110D01*
X4207820Y70155049D01*
X4018414Y70251556D01*
X4018413Y70251557D01*
X4018412Y70251557D01*
X3816243Y70317246D01*
X3816241Y70317247D01*
X3816240Y70317247D01*
X3654957Y70342792D01*
X3606287Y70350500D01*
X3393713Y70350500D01*
X3345042Y70342792D01*
X3183760Y70317247D01*
X2981585Y70251556D01*
X2792179Y70155049D01*
X2620213Y70030110D01*
X2469890Y69879787D01*
X2344951Y69707821D01*
X2248444Y69518415D01*
X2182753Y69316240D01*
X2149500Y69106287D01*
X0Y69106287D01*
X0Y71376000D01*
X19685Y71443039D01*
X72489Y71488794D01*
X124000Y71500000D01*
X19876000Y71500000D01*
X19943039Y71480315D01*
G37*
%TD.AperFunction*%
%TD*%
M02*
