%TF.GenerationSoftware,KiCad,Pcbnew,8.0.7*%
%TF.CreationDate,2024-12-24T11:10:27-06:00*%
%TF.ProjectId,room_environment_monitor,726f6f6d-5f65-46e7-9669-726f6e6d656e,rev?*%
%TF.SameCoordinates,Original*%
%TF.FileFunction,Copper,L3,Inr*%
%TF.FilePolarity,Positive*%
%FSLAX46Y46*%
G04 Gerber Fmt 4.6, Leading zero omitted, Abs format (unit mm)*
G04 Created by KiCad (PCBNEW 8.0.7) date 2024-12-24 11:10:27*
%MOMM*%
%LPD*%
G01*
G04 APERTURE LIST*
%TA.AperFunction,ComponentPad*%
%ADD10O,1.066800X1.701800*%
%TD*%
%TA.AperFunction,ViaPad*%
%ADD11C,0.800000*%
%TD*%
%TA.AperFunction,ViaPad*%
%ADD12C,1.200000*%
%TD*%
%TA.AperFunction,ViaPad*%
%ADD13C,0.600000*%
%TD*%
G04 APERTURE END LIST*
D10*
%TO.N,GND*%
%TO.C,P1*%
X14269999Y-1400003D03*
X5730001Y-1400003D03*
%TD*%
D11*
%TO.N,EN*%
X1600000Y51900000D03*
%TO.N,GND*%
X3575000Y7125000D03*
X-4500000Y45700000D03*
X-2575000Y45750000D03*
X7600000Y45600000D03*
D12*
X17000000Y57500000D03*
D11*
X9325000Y9875000D03*
X10575000Y8375000D03*
X6400000Y69900000D03*
X-2000000Y56500000D03*
X6000000Y3750000D03*
X13200000Y44600000D03*
X4500000Y63500000D03*
X7600000Y55700000D03*
X-2000000Y58500000D03*
X6000000Y2000000D03*
X15300000Y48600000D03*
X9550001Y49443800D03*
D12*
X20700000Y46200000D03*
D11*
X2000000Y56500000D03*
X9200000Y42200000D03*
X14250000Y3750000D03*
X5985081Y47695381D03*
X-2000000Y54700000D03*
X13000000Y3000000D03*
X14700000Y51900000D03*
X9200000Y30400000D03*
X13580000Y7130000D03*
X14250000Y2000000D03*
X7000000Y3000000D03*
X-825000Y45750000D03*
X12100000Y56400000D03*
%TO.N,BOOT*%
X4000000Y60500000D03*
%TO.N,+3V3*%
X11800000Y45100000D03*
X17000000Y44600000D03*
X12600000Y63925000D03*
X6400000Y65700000D03*
X8100000Y52300000D03*
X5075000Y11375000D03*
X13964711Y50443781D03*
X13020000Y65450000D03*
X7815962Y69826194D03*
X-4462299Y49437701D03*
X13200000Y46800000D03*
X5075000Y10375000D03*
X6325000Y11375000D03*
D13*
X10600000Y60900000D03*
D11*
X-2250000Y51750000D03*
X3600000Y65700000D03*
X17650000Y45437500D03*
X6000000Y45750000D03*
%TO.N,+5V*%
X10250000Y70000000D03*
D12*
X17000000Y59000000D03*
D11*
X9500000Y2000000D03*
X11500000Y2950000D03*
X9500000Y3750000D03*
X24300000Y52500000D03*
X11500000Y1500000D03*
%TO.N,NEOPIXEL*%
X10657911Y62763492D03*
X3250000Y61250000D03*
D13*
%TO.N,UART1_RX*%
X7400000Y61200000D03*
X5900000Y56600000D03*
%TO.N,FAN*%
X11200000Y53900000D03*
X20600000Y50100000D03*
%TO.N,UART1_TX_LVL*%
X7100000Y62400000D03*
X5900000Y57600000D03*
D11*
%TO.N,I2C_SDA*%
X12300000Y52700000D03*
X14949051Y47664137D03*
%TO.N,Net-(P1-VCONN)*%
X12120000Y4750000D03*
X9500000Y700000D03*
%TO.N,Net-(J3-Pin_5)*%
X1800000Y65700000D03*
%TO.N,Net-(J3-Pin_6)*%
X-3600000Y63700000D03*
%TO.N,Net-(J2-Pin_2)*%
X17000000Y60500000D03*
X14000000Y66500000D03*
%TO.N,PD*%
X6000000Y67000000D03*
X0Y49750000D03*
%TD*%
%TA.AperFunction,Conductor*%
%TO.N,+3V3*%
G36*
X19943039Y71480315D02*
G01*
X19988794Y71427511D01*
X20000000Y71376000D01*
X20000000Y56250000D01*
X29876000Y56250000D01*
X29943039Y56230315D01*
X29988794Y56177511D01*
X30000000Y56126000D01*
X30000000Y43874000D01*
X29980315Y43806961D01*
X29927511Y43761206D01*
X29876000Y43750000D01*
X20000000Y43750000D01*
X20000000Y124000D01*
X19980315Y56961D01*
X19927511Y11206D01*
X19876000Y0D01*
X16700000Y0D01*
X16700000Y-2876000D01*
X16680315Y-2943039D01*
X16627511Y-2988794D01*
X16576000Y-3000000D01*
X3424000Y-3000000D01*
X3356961Y-2980315D01*
X3311206Y-2927511D01*
X3300000Y-2876000D01*
X3300000Y-980668D01*
X4696101Y-980668D01*
X4696101Y-1819337D01*
X4735831Y-2019073D01*
X4735834Y-2019085D01*
X4813766Y-2207231D01*
X4813773Y-2207244D01*
X4926917Y-2376575D01*
X4926920Y-2376579D01*
X5070924Y-2520583D01*
X5070928Y-2520586D01*
X5240259Y-2633730D01*
X5240272Y-2633737D01*
X5428418Y-2711669D01*
X5428423Y-2711671D01*
X5628166Y-2751402D01*
X5628170Y-2751403D01*
X5628171Y-2751403D01*
X5831832Y-2751403D01*
X5831833Y-2751402D01*
X6031579Y-2711671D01*
X6219736Y-2633734D01*
X6389074Y-2520586D01*
X6533084Y-2376576D01*
X6646232Y-2207238D01*
X6724169Y-2019081D01*
X6763901Y-1819333D01*
X6763901Y-980673D01*
X6763900Y-980668D01*
X13236099Y-980668D01*
X13236099Y-1819337D01*
X13275829Y-2019073D01*
X13275832Y-2019085D01*
X13353764Y-2207231D01*
X13353771Y-2207244D01*
X13466915Y-2376575D01*
X13466918Y-2376579D01*
X13610922Y-2520583D01*
X13610926Y-2520586D01*
X13780257Y-2633730D01*
X13780270Y-2633737D01*
X13968416Y-2711669D01*
X13968421Y-2711671D01*
X14168164Y-2751402D01*
X14168168Y-2751403D01*
X14168169Y-2751403D01*
X14371830Y-2751403D01*
X14371831Y-2751402D01*
X14571577Y-2711671D01*
X14759734Y-2633734D01*
X14929072Y-2520586D01*
X15073082Y-2376576D01*
X15186230Y-2207238D01*
X15264167Y-2019081D01*
X15303899Y-1819333D01*
X15303899Y-980673D01*
X15264167Y-780925D01*
X15264165Y-780920D01*
X15186233Y-592774D01*
X15186226Y-592761D01*
X15073082Y-423430D01*
X15073079Y-423426D01*
X14929075Y-279422D01*
X14929071Y-279419D01*
X14759740Y-166275D01*
X14759727Y-166268D01*
X14571581Y-88336D01*
X14571569Y-88333D01*
X14371833Y-48603D01*
X14371829Y-48603D01*
X14168169Y-48603D01*
X14168164Y-48603D01*
X13968428Y-88333D01*
X13968416Y-88336D01*
X13780270Y-166268D01*
X13780257Y-166275D01*
X13610926Y-279419D01*
X13610922Y-279422D01*
X13466918Y-423426D01*
X13466915Y-423430D01*
X13353771Y-592761D01*
X13353764Y-592774D01*
X13275832Y-780920D01*
X13275829Y-780932D01*
X13236099Y-980668D01*
X6763900Y-980668D01*
X6724169Y-780925D01*
X6724167Y-780920D01*
X6646235Y-592774D01*
X6646228Y-592761D01*
X6533084Y-423430D01*
X6533081Y-423426D01*
X6389077Y-279422D01*
X6389073Y-279419D01*
X6219742Y-166275D01*
X6219729Y-166268D01*
X6031583Y-88336D01*
X6031571Y-88333D01*
X5831835Y-48603D01*
X5831831Y-48603D01*
X5628171Y-48603D01*
X5628166Y-48603D01*
X5428430Y-88333D01*
X5428418Y-88336D01*
X5240272Y-166268D01*
X5240259Y-166275D01*
X5070928Y-279419D01*
X5070924Y-279422D01*
X4926920Y-423426D01*
X4926917Y-423430D01*
X4813773Y-592761D01*
X4813766Y-592774D01*
X4735834Y-780920D01*
X4735831Y-780932D01*
X4696101Y-980668D01*
X3300000Y-980668D01*
X3300000Y0D01*
X124000Y0D01*
X56961Y19685D01*
X11206Y72489D01*
X0Y124000D01*
X0Y2906287D01*
X1149500Y2906287D01*
X1149500Y2693714D01*
X1167237Y2581723D01*
X1182754Y2483757D01*
X1239870Y2307972D01*
X1248444Y2281586D01*
X1344951Y2092180D01*
X1469890Y1920214D01*
X1620213Y1769891D01*
X1792179Y1644952D01*
X1792181Y1644951D01*
X1792184Y1644949D01*
X1981588Y1548443D01*
X2183757Y1482754D01*
X2393713Y1449500D01*
X2393714Y1449500D01*
X2606286Y1449500D01*
X2606287Y1449500D01*
X2816243Y1482754D01*
X3018412Y1548443D01*
X3207816Y1644949D01*
X3229789Y1660914D01*
X3379786Y1769891D01*
X3379788Y1769894D01*
X3379792Y1769896D01*
X3530104Y1920208D01*
X3530106Y1920212D01*
X3530109Y1920214D01*
X3655048Y2092180D01*
X3655047Y2092180D01*
X3655051Y2092184D01*
X3751557Y2281588D01*
X3817246Y2483757D01*
X3850500Y2693713D01*
X3850500Y2906287D01*
X3817246Y3116243D01*
X3751557Y3318412D01*
X3655051Y3507816D01*
X3655049Y3507819D01*
X3655048Y3507821D01*
X3530109Y3679787D01*
X3459896Y3750000D01*
X5094540Y3750000D01*
X5114326Y3561744D01*
X5114327Y3561741D01*
X5172818Y3381723D01*
X5172821Y3381716D01*
X5267467Y3217784D01*
X5339071Y3138260D01*
X5394129Y3077112D01*
X5534236Y2975318D01*
X5576902Y2919988D01*
X5582881Y2850375D01*
X5550275Y2788580D01*
X5534236Y2774682D01*
X5394129Y2672889D01*
X5267466Y2532215D01*
X5172821Y2368285D01*
X5172818Y2368278D01*
X5114327Y2188260D01*
X5114326Y2188256D01*
X5094540Y2000000D01*
X5114326Y1811744D01*
X5114327Y1811741D01*
X5172818Y1631723D01*
X5172821Y1631716D01*
X5267467Y1467784D01*
X5391512Y1330019D01*
X5394129Y1327112D01*
X5547265Y1215852D01*
X5547270Y1215849D01*
X5720192Y1138858D01*
X5720197Y1138856D01*
X5905354Y1099500D01*
X5905355Y1099500D01*
X6094644Y1099500D01*
X6094646Y1099500D01*
X6279803Y1138856D01*
X6452730Y1215849D01*
X6605871Y1327112D01*
X6732533Y1467784D01*
X6827179Y1631716D01*
X6885674Y1811744D01*
X6904247Y1988464D01*
X6930832Y2053076D01*
X6988129Y2093061D01*
X7027568Y2099500D01*
X7094644Y2099500D01*
X7094646Y2099500D01*
X7279803Y2138856D01*
X7452730Y2215849D01*
X7605871Y2327112D01*
X7732533Y2467784D01*
X7827179Y2631716D01*
X7885674Y2811744D01*
X7905460Y3000000D01*
X7885674Y3188256D01*
X7827179Y3368284D01*
X7732533Y3532216D01*
X7605871Y3672888D01*
X7605870Y3672889D01*
X7499736Y3750000D01*
X8594540Y3750000D01*
X8614326Y3561744D01*
X8614327Y3561741D01*
X8672818Y3381723D01*
X8672821Y3381716D01*
X8767467Y3217784D01*
X8839071Y3138260D01*
X8894129Y3077112D01*
X9034236Y2975318D01*
X9076902Y2919988D01*
X9082881Y2850375D01*
X9050275Y2788580D01*
X9034236Y2774682D01*
X8894129Y2672889D01*
X8767466Y2532215D01*
X8672821Y2368285D01*
X8672818Y2368278D01*
X8614327Y2188260D01*
X8614326Y2188256D01*
X8594540Y2000000D01*
X8614326Y1811744D01*
X8614327Y1811741D01*
X8672818Y1631723D01*
X8672821Y1631716D01*
X8767467Y1467784D01*
X8783930Y1449500D01*
X8798812Y1432971D01*
X8829041Y1369979D01*
X8820415Y1300644D01*
X8798812Y1267029D01*
X8767466Y1232215D01*
X8672821Y1068285D01*
X8672818Y1068278D01*
X8640166Y967784D01*
X8614326Y888256D01*
X8594540Y700000D01*
X8614326Y511744D01*
X8614327Y511741D01*
X8672818Y331723D01*
X8672821Y331716D01*
X8767467Y167784D01*
X8867253Y56961D01*
X8894129Y27112D01*
X9047265Y-84148D01*
X9047270Y-84151D01*
X9220192Y-161142D01*
X9220197Y-161144D01*
X9405354Y-200500D01*
X9405355Y-200500D01*
X9594644Y-200500D01*
X9594646Y-200500D01*
X9779803Y-161144D01*
X9952730Y-84151D01*
X10105871Y27112D01*
X10232533Y167784D01*
X10327179Y331716D01*
X10385674Y511744D01*
X10405460Y700000D01*
X10385674Y888256D01*
X10327179Y1068284D01*
X10232533Y1232216D01*
X10201188Y1267028D01*
X10170958Y1330019D01*
X10179583Y1399355D01*
X10201188Y1432972D01*
X10202915Y1434891D01*
X10232533Y1467784D01*
X10327179Y1631716D01*
X10385674Y1811744D01*
X10405460Y2000000D01*
X10385674Y2188256D01*
X10327179Y2368284D01*
X10232533Y2532216D01*
X10105871Y2672888D01*
X10077206Y2693714D01*
X9965763Y2774682D01*
X9923097Y2830012D01*
X9917118Y2899625D01*
X9943697Y2950000D01*
X10594540Y2950000D01*
X10614326Y2761744D01*
X10614327Y2761741D01*
X10672818Y2581723D01*
X10672821Y2581716D01*
X10767467Y2417784D01*
X10787839Y2395159D01*
X10866342Y2307972D01*
X10896572Y2244980D01*
X10887947Y2175645D01*
X10866342Y2142028D01*
X10767466Y2032215D01*
X10672821Y1868285D01*
X10672818Y1868278D01*
X10614327Y1688260D01*
X10614326Y1688256D01*
X10594540Y1500000D01*
X10614326Y1311744D01*
X10614327Y1311741D01*
X10672818Y1131723D01*
X10672821Y1131716D01*
X10767467Y967784D01*
X10839071Y888260D01*
X10894129Y827112D01*
X11047265Y715852D01*
X11047270Y715849D01*
X11220192Y638858D01*
X11220197Y638856D01*
X11405354Y599500D01*
X11405355Y599500D01*
X11594644Y599500D01*
X11594646Y599500D01*
X11779803Y638856D01*
X11952730Y715849D01*
X12105871Y827112D01*
X12232533Y967784D01*
X12327179Y1131716D01*
X12385674Y1311744D01*
X12405460Y1500000D01*
X12385674Y1688256D01*
X12327179Y1868284D01*
X12232533Y2032216D01*
X12133655Y2142031D01*
X12103427Y2205019D01*
X12112052Y2274354D01*
X12133655Y2307970D01*
X12180361Y2359843D01*
X12239847Y2396490D01*
X12309704Y2395159D01*
X12364660Y2359841D01*
X12394129Y2327112D01*
X12547265Y2215852D01*
X12547270Y2215849D01*
X12720192Y2138858D01*
X12720197Y2138856D01*
X12905354Y2099500D01*
X12905355Y2099500D01*
X13094644Y2099500D01*
X13094646Y2099500D01*
X13194760Y2120780D01*
X13264426Y2115464D01*
X13320160Y2073327D01*
X13344265Y2007747D01*
X13344515Y2000241D01*
X13344540Y2000002D01*
X13344540Y2000000D01*
X13364326Y1811744D01*
X13364327Y1811741D01*
X13422818Y1631723D01*
X13422821Y1631716D01*
X13517467Y1467784D01*
X13641512Y1330019D01*
X13644129Y1327112D01*
X13797265Y1215852D01*
X13797270Y1215849D01*
X13970192Y1138858D01*
X13970197Y1138856D01*
X14155354Y1099500D01*
X14155355Y1099500D01*
X14344644Y1099500D01*
X14344646Y1099500D01*
X14529803Y1138856D01*
X14702730Y1215849D01*
X14855871Y1327112D01*
X14982533Y1467784D01*
X15077179Y1631716D01*
X15135674Y1811744D01*
X15155460Y2000000D01*
X15135674Y2188256D01*
X15077179Y2368284D01*
X14982533Y2532216D01*
X14855871Y2672888D01*
X14827206Y2693714D01*
X14715763Y2774682D01*
X14673097Y2830012D01*
X14667118Y2899625D01*
X14670633Y2906287D01*
X16149500Y2906287D01*
X16149500Y2693714D01*
X16167237Y2581723D01*
X16182754Y2483757D01*
X16239870Y2307972D01*
X16248444Y2281586D01*
X16344951Y2092180D01*
X16469890Y1920214D01*
X16620213Y1769891D01*
X16792179Y1644952D01*
X16792181Y1644951D01*
X16792184Y1644949D01*
X16981588Y1548443D01*
X17183757Y1482754D01*
X17393713Y1449500D01*
X17393714Y1449500D01*
X17606286Y1449500D01*
X17606287Y1449500D01*
X17816243Y1482754D01*
X18018412Y1548443D01*
X18207816Y1644949D01*
X18229789Y1660914D01*
X18379786Y1769891D01*
X18379788Y1769894D01*
X18379792Y1769896D01*
X18530104Y1920208D01*
X18530106Y1920212D01*
X18530109Y1920214D01*
X18655048Y2092180D01*
X18655047Y2092180D01*
X18655051Y2092184D01*
X18751557Y2281588D01*
X18817246Y2483757D01*
X18850500Y2693713D01*
X18850500Y2906287D01*
X18817246Y3116243D01*
X18751557Y3318412D01*
X18655051Y3507816D01*
X18655049Y3507819D01*
X18655048Y3507821D01*
X18530109Y3679787D01*
X18379786Y3830110D01*
X18207820Y3955049D01*
X18018414Y4051556D01*
X18018413Y4051557D01*
X18018412Y4051557D01*
X17816243Y4117246D01*
X17816241Y4117247D01*
X17816240Y4117247D01*
X17654957Y4142792D01*
X17606287Y4150500D01*
X17393713Y4150500D01*
X17345042Y4142792D01*
X17183760Y4117247D01*
X16981585Y4051556D01*
X16792179Y3955049D01*
X16620213Y3830110D01*
X16469890Y3679787D01*
X16344951Y3507821D01*
X16248444Y3318415D01*
X16182753Y3116240D01*
X16149500Y2906287D01*
X14670633Y2906287D01*
X14699723Y2961420D01*
X14715763Y2975318D01*
X14749735Y3000000D01*
X14855871Y3077112D01*
X14982533Y3217784D01*
X15077179Y3381716D01*
X15135674Y3561744D01*
X15155460Y3750000D01*
X15135674Y3938256D01*
X15077179Y4118284D01*
X14982533Y4282216D01*
X14855871Y4422888D01*
X14855870Y4422889D01*
X14702734Y4534149D01*
X14702729Y4534152D01*
X14529807Y4611143D01*
X14529802Y4611145D01*
X14384001Y4642135D01*
X14344646Y4650500D01*
X14155354Y4650500D01*
X14122897Y4643602D01*
X13970197Y4611145D01*
X13970192Y4611143D01*
X13797270Y4534152D01*
X13797265Y4534149D01*
X13644129Y4422889D01*
X13517466Y4282215D01*
X13422821Y4118285D01*
X13422819Y4118281D01*
X13369930Y3955505D01*
X13330492Y3897830D01*
X13266133Y3870632D01*
X13226219Y3872534D01*
X13094646Y3900500D01*
X12905354Y3900500D01*
X12860020Y3890864D01*
X12790353Y3896181D01*
X12734620Y3938319D01*
X12710516Y4003900D01*
X12725694Y4072101D01*
X12742084Y4095119D01*
X12852533Y4217784D01*
X12947179Y4381716D01*
X13005674Y4561744D01*
X13025460Y4750000D01*
X13005674Y4938256D01*
X12947179Y5118284D01*
X12852533Y5282216D01*
X12725871Y5422888D01*
X12725870Y5422889D01*
X12572734Y5534149D01*
X12572729Y5534152D01*
X12399807Y5611143D01*
X12399802Y5611145D01*
X12254001Y5642135D01*
X12214646Y5650500D01*
X12025354Y5650500D01*
X11992897Y5643602D01*
X11840197Y5611145D01*
X11840192Y5611143D01*
X11667270Y5534152D01*
X11667265Y5534149D01*
X11514129Y5422889D01*
X11387466Y5282215D01*
X11292821Y5118285D01*
X11292818Y5118278D01*
X11234327Y4938260D01*
X11234326Y4938256D01*
X11214540Y4750000D01*
X11234326Y4561744D01*
X11234327Y4561741D01*
X11292818Y4381723D01*
X11292821Y4381716D01*
X11387467Y4217784D01*
X11477060Y4118281D01*
X11514129Y4077112D01*
X11514132Y4077110D01*
X11517287Y4074817D01*
X11518670Y4073023D01*
X11518958Y4072764D01*
X11518910Y4072712D01*
X11559953Y4019487D01*
X11565931Y3949873D01*
X11533324Y3888079D01*
X11472485Y3853722D01*
X11444401Y3850500D01*
X11405354Y3850500D01*
X11372897Y3843602D01*
X11220197Y3811145D01*
X11220192Y3811143D01*
X11047270Y3734152D01*
X11047265Y3734149D01*
X10894129Y3622889D01*
X10767466Y3482215D01*
X10672821Y3318285D01*
X10672818Y3318278D01*
X10640166Y3217784D01*
X10614326Y3138256D01*
X10594540Y2950000D01*
X9943697Y2950000D01*
X9949723Y2961420D01*
X9965763Y2975318D01*
X9999735Y3000000D01*
X10105871Y3077112D01*
X10232533Y3217784D01*
X10327179Y3381716D01*
X10385674Y3561744D01*
X10405460Y3750000D01*
X10385674Y3938256D01*
X10327179Y4118284D01*
X10232533Y4282216D01*
X10105871Y4422888D01*
X10105870Y4422889D01*
X9952734Y4534149D01*
X9952729Y4534152D01*
X9779807Y4611143D01*
X9779802Y4611145D01*
X9634001Y4642135D01*
X9594646Y4650500D01*
X9405354Y4650500D01*
X9372897Y4643602D01*
X9220197Y4611145D01*
X9220192Y4611143D01*
X9047270Y4534152D01*
X9047265Y4534149D01*
X8894129Y4422889D01*
X8767466Y4282215D01*
X8672821Y4118285D01*
X8672818Y4118278D01*
X8614346Y3938319D01*
X8614326Y3938256D01*
X8594540Y3750000D01*
X7499736Y3750000D01*
X7452734Y3784149D01*
X7452729Y3784152D01*
X7279807Y3861143D01*
X7279802Y3861145D01*
X7107207Y3897830D01*
X7094646Y3900500D01*
X6988033Y3900500D01*
X6920994Y3920185D01*
X6875239Y3972989D01*
X6870102Y3986182D01*
X6827181Y4118278D01*
X6827180Y4118281D01*
X6827179Y4118284D01*
X6732533Y4282216D01*
X6605871Y4422888D01*
X6605870Y4422889D01*
X6452734Y4534149D01*
X6452729Y4534152D01*
X6279807Y4611143D01*
X6279802Y4611145D01*
X6134001Y4642135D01*
X6094646Y4650500D01*
X5905354Y4650500D01*
X5872897Y4643602D01*
X5720197Y4611145D01*
X5720192Y4611143D01*
X5547270Y4534152D01*
X5547265Y4534149D01*
X5394129Y4422889D01*
X5267466Y4282215D01*
X5172821Y4118285D01*
X5172818Y4118278D01*
X5114346Y3938319D01*
X5114326Y3938256D01*
X5094540Y3750000D01*
X3459896Y3750000D01*
X3379786Y3830110D01*
X3207820Y3955049D01*
X3018414Y4051556D01*
X3018413Y4051557D01*
X3018412Y4051557D01*
X2816243Y4117246D01*
X2816241Y4117247D01*
X2816240Y4117247D01*
X2654957Y4142792D01*
X2606287Y4150500D01*
X2393713Y4150500D01*
X2345042Y4142792D01*
X2183760Y4117247D01*
X1981585Y4051556D01*
X1792179Y3955049D01*
X1620213Y3830110D01*
X1469890Y3679787D01*
X1344951Y3507821D01*
X1248444Y3318415D01*
X1182753Y3116240D01*
X1149500Y2906287D01*
X0Y2906287D01*
X0Y7125000D01*
X2669540Y7125000D01*
X2689326Y6936744D01*
X2689327Y6936741D01*
X2747818Y6756723D01*
X2747821Y6756716D01*
X2842467Y6592784D01*
X2964627Y6457112D01*
X2969129Y6452112D01*
X3122265Y6340852D01*
X3122270Y6340849D01*
X3295192Y6263858D01*
X3295197Y6263856D01*
X3480354Y6224500D01*
X3480355Y6224500D01*
X3669644Y6224500D01*
X3669646Y6224500D01*
X3854803Y6263856D01*
X4027730Y6340849D01*
X4180871Y6452112D01*
X4307533Y6592784D01*
X4402179Y6756716D01*
X4460674Y6936744D01*
X4480460Y7125000D01*
X4479934Y7130000D01*
X12674540Y7130000D01*
X12694326Y6941744D01*
X12694327Y6941741D01*
X12752818Y6761723D01*
X12752821Y6761716D01*
X12847467Y6597784D01*
X12974129Y6457112D01*
X13127265Y6345852D01*
X13127270Y6345849D01*
X13300192Y6268858D01*
X13300197Y6268856D01*
X13485354Y6229500D01*
X13485355Y6229500D01*
X13674644Y6229500D01*
X13674646Y6229500D01*
X13859803Y6268856D01*
X14032730Y6345849D01*
X14185871Y6457112D01*
X14312533Y6597784D01*
X14407179Y6761716D01*
X14465674Y6941744D01*
X14485460Y7130000D01*
X14465674Y7318256D01*
X14407179Y7498284D01*
X14312533Y7662216D01*
X14185871Y7802888D01*
X14130959Y7842784D01*
X14032734Y7914149D01*
X14032729Y7914152D01*
X13859807Y7991143D01*
X13859802Y7991145D01*
X13698169Y8025500D01*
X13674646Y8030500D01*
X13485354Y8030500D01*
X13461831Y8025500D01*
X13300197Y7991145D01*
X13300192Y7991143D01*
X13127270Y7914152D01*
X13127265Y7914149D01*
X12974129Y7802889D01*
X12847466Y7662215D01*
X12752821Y7498285D01*
X12752818Y7498278D01*
X12694327Y7318260D01*
X12694326Y7318256D01*
X12674540Y7130000D01*
X4479934Y7130000D01*
X4460674Y7313256D01*
X4402179Y7493284D01*
X4307533Y7657216D01*
X4180871Y7797888D01*
X4119077Y7842784D01*
X4027734Y7909149D01*
X4027729Y7909152D01*
X3854807Y7986143D01*
X3854802Y7986145D01*
X3709001Y8017135D01*
X3669646Y8025500D01*
X3480354Y8025500D01*
X3447897Y8018602D01*
X3295197Y7986145D01*
X3295192Y7986143D01*
X3122270Y7909152D01*
X3122265Y7909149D01*
X2969129Y7797889D01*
X2842466Y7657215D01*
X2747821Y7493285D01*
X2747818Y7493278D01*
X2689327Y7313260D01*
X2689326Y7313256D01*
X2669540Y7125000D01*
X0Y7125000D01*
X0Y9875000D01*
X8419540Y9875000D01*
X8439326Y9686744D01*
X8439327Y9686741D01*
X8497818Y9506723D01*
X8497819Y9506721D01*
X8497821Y9506716D01*
X8592467Y9342784D01*
X8688487Y9236143D01*
X8719129Y9202112D01*
X8872265Y9090852D01*
X8872270Y9090849D01*
X9045192Y9013858D01*
X9045197Y9013856D01*
X9230354Y8974500D01*
X9230355Y8974500D01*
X9419644Y8974500D01*
X9419646Y8974500D01*
X9604803Y9013856D01*
X9642224Y9030518D01*
X9658928Y9037954D01*
X9728178Y9047239D01*
X9791454Y9017611D01*
X9828668Y8958477D01*
X9828004Y8888610D01*
X9816751Y8862675D01*
X9747821Y8743285D01*
X9747818Y8743278D01*
X9689327Y8563260D01*
X9689326Y8563256D01*
X9669540Y8375000D01*
X9689326Y8186744D01*
X9689327Y8186741D01*
X9747818Y8006723D01*
X9747821Y8006716D01*
X9842467Y7842784D01*
X9878389Y7802889D01*
X9969129Y7702112D01*
X10122265Y7590852D01*
X10122270Y7590849D01*
X10295192Y7513858D01*
X10295197Y7513856D01*
X10480354Y7474500D01*
X10480355Y7474500D01*
X10669644Y7474500D01*
X10669646Y7474500D01*
X10854803Y7513856D01*
X11027730Y7590849D01*
X11180871Y7702112D01*
X11307533Y7842784D01*
X11402179Y8006716D01*
X11460674Y8186744D01*
X11480460Y8375000D01*
X11460674Y8563256D01*
X11402179Y8743284D01*
X11307533Y8907216D01*
X11180871Y9047888D01*
X11180870Y9047889D01*
X11027734Y9159149D01*
X11027729Y9159152D01*
X10854807Y9236143D01*
X10854802Y9236145D01*
X10709001Y9267135D01*
X10669646Y9275500D01*
X10480354Y9275500D01*
X10447897Y9268602D01*
X10295197Y9236145D01*
X10295192Y9236143D01*
X10241069Y9212046D01*
X10171819Y9202762D01*
X10108543Y9232391D01*
X10071330Y9291527D01*
X10071996Y9361393D01*
X10083242Y9387315D01*
X10152179Y9506716D01*
X10210674Y9686744D01*
X10230460Y9875000D01*
X10210674Y10063256D01*
X10152179Y10243284D01*
X10057533Y10407216D01*
X9930871Y10547888D01*
X9930870Y10547889D01*
X9777734Y10659149D01*
X9777729Y10659152D01*
X9604807Y10736143D01*
X9604802Y10736145D01*
X9459001Y10767135D01*
X9419646Y10775500D01*
X9230354Y10775500D01*
X9197897Y10768602D01*
X9045197Y10736145D01*
X9045192Y10736143D01*
X8872270Y10659152D01*
X8872265Y10659149D01*
X8719129Y10547889D01*
X8592466Y10407215D01*
X8497821Y10243285D01*
X8497818Y10243278D01*
X8439327Y10063260D01*
X8439326Y10063256D01*
X8419540Y9875000D01*
X0Y9875000D01*
X0Y30400000D01*
X8294540Y30400000D01*
X8314326Y30211744D01*
X8314327Y30211741D01*
X8372818Y30031723D01*
X8372821Y30031716D01*
X8467467Y29867784D01*
X8594129Y29727112D01*
X8747265Y29615852D01*
X8747270Y29615849D01*
X8920192Y29538858D01*
X8920197Y29538856D01*
X9105354Y29499500D01*
X9105355Y29499500D01*
X9294644Y29499500D01*
X9294646Y29499500D01*
X9479803Y29538856D01*
X9652730Y29615849D01*
X9805871Y29727112D01*
X9932533Y29867784D01*
X10027179Y30031716D01*
X10085674Y30211744D01*
X10105460Y30400000D01*
X10085674Y30588256D01*
X10027179Y30768284D01*
X9932533Y30932216D01*
X9805871Y31072888D01*
X9805870Y31072889D01*
X9652734Y31184149D01*
X9652729Y31184152D01*
X9479807Y31261143D01*
X9479802Y31261145D01*
X9334001Y31292135D01*
X9294646Y31300500D01*
X9105354Y31300500D01*
X9072897Y31293602D01*
X8920197Y31261145D01*
X8920192Y31261143D01*
X8747270Y31184152D01*
X8747265Y31184149D01*
X8594129Y31072889D01*
X8467466Y30932215D01*
X8372821Y30768285D01*
X8372818Y30768278D01*
X8314327Y30588260D01*
X8314326Y30588256D01*
X8294540Y30400000D01*
X0Y30400000D01*
X0Y42200000D01*
X8294540Y42200000D01*
X8314326Y42011744D01*
X8314327Y42011741D01*
X8372818Y41831723D01*
X8372821Y41831716D01*
X8467467Y41667784D01*
X8594129Y41527112D01*
X8747265Y41415852D01*
X8747270Y41415849D01*
X8920192Y41338858D01*
X8920197Y41338856D01*
X9105354Y41299500D01*
X9105355Y41299500D01*
X9294644Y41299500D01*
X9294646Y41299500D01*
X9479803Y41338856D01*
X9652730Y41415849D01*
X9805871Y41527112D01*
X9932533Y41667784D01*
X10027179Y41831716D01*
X10085674Y42011744D01*
X10105460Y42200000D01*
X10085674Y42388256D01*
X10027179Y42568284D01*
X9932533Y42732216D01*
X9805871Y42872888D01*
X9805870Y42872889D01*
X9652734Y42984149D01*
X9652729Y42984152D01*
X9479807Y43061143D01*
X9479802Y43061145D01*
X9334001Y43092135D01*
X9294646Y43100500D01*
X9105354Y43100500D01*
X9072897Y43093602D01*
X8920197Y43061145D01*
X8920192Y43061143D01*
X8747270Y42984152D01*
X8747265Y42984149D01*
X8594129Y42872889D01*
X8467466Y42732215D01*
X8372821Y42568285D01*
X8372818Y42568278D01*
X8314327Y42388260D01*
X8314326Y42388256D01*
X8294540Y42200000D01*
X0Y42200000D01*
X0Y43750000D01*
X-5376000Y43750000D01*
X-5443039Y43769685D01*
X-5488794Y43822489D01*
X-5500000Y43874000D01*
X-5500000Y44600000D01*
X12294540Y44600000D01*
X12314326Y44411744D01*
X12314327Y44411741D01*
X12372818Y44231723D01*
X12372821Y44231716D01*
X12467467Y44067784D01*
X12594129Y43927112D01*
X12747265Y43815852D01*
X12747270Y43815849D01*
X12920192Y43738858D01*
X12920197Y43738856D01*
X13105354Y43699500D01*
X13105355Y43699500D01*
X13294644Y43699500D01*
X13294646Y43699500D01*
X13479803Y43738856D01*
X13652730Y43815849D01*
X13805871Y43927112D01*
X13932533Y44067784D01*
X14027179Y44231716D01*
X14085674Y44411744D01*
X14105460Y44600000D01*
X14085674Y44788256D01*
X14027179Y44968284D01*
X13932533Y45132216D01*
X13805871Y45272888D01*
X13805870Y45272889D01*
X13652734Y45384149D01*
X13652729Y45384152D01*
X13479807Y45461143D01*
X13479802Y45461145D01*
X13320004Y45495110D01*
X13294646Y45500500D01*
X13105354Y45500500D01*
X13079996Y45495110D01*
X12920197Y45461145D01*
X12920192Y45461143D01*
X12747270Y45384152D01*
X12747265Y45384149D01*
X12594129Y45272889D01*
X12467466Y45132215D01*
X12372821Y44968285D01*
X12372818Y44968278D01*
X12317979Y44799500D01*
X12314326Y44788256D01*
X12294540Y44600000D01*
X-5500000Y44600000D01*
X-5500000Y45168277D01*
X-5480315Y45235316D01*
X-5427511Y45281071D01*
X-5358353Y45291015D01*
X-5294797Y45261990D01*
X-5268615Y45230279D01*
X-5232818Y45168277D01*
X-5232533Y45167784D01*
X-5105871Y45027112D01*
X-4952735Y44915852D01*
X-4952730Y44915849D01*
X-4779808Y44838858D01*
X-4779803Y44838856D01*
X-4594646Y44799500D01*
X-4594645Y44799500D01*
X-4405356Y44799500D01*
X-4405354Y44799500D01*
X-4220197Y44838856D01*
X-4047270Y44915849D01*
X-3894129Y45027112D01*
X-3767467Y45167784D01*
X-3672821Y45331716D01*
X-3647308Y45410237D01*
X-3607873Y45467911D01*
X-3543514Y45495110D01*
X-3474668Y45483196D01*
X-3423191Y45435952D01*
X-3411448Y45410239D01*
X-3402183Y45381724D01*
X-3402179Y45381716D01*
X-3307533Y45217784D01*
X-3234773Y45136976D01*
X-3180871Y45077112D01*
X-3027735Y44965852D01*
X-3027730Y44965849D01*
X-2854808Y44888858D01*
X-2854803Y44888856D01*
X-2669646Y44849500D01*
X-2669645Y44849500D01*
X-2480356Y44849500D01*
X-2480354Y44849500D01*
X-2295197Y44888856D01*
X-2122270Y44965849D01*
X-1969129Y45077112D01*
X-1842467Y45217784D01*
X-1807387Y45278546D01*
X-1756821Y45326760D01*
X-1688214Y45339984D01*
X-1623349Y45314016D01*
X-1592615Y45278547D01*
X-1564745Y45230276D01*
X-1557533Y45217784D01*
X-1430871Y45077112D01*
X-1277735Y44965852D01*
X-1277730Y44965849D01*
X-1104808Y44888858D01*
X-1104803Y44888856D01*
X-919646Y44849500D01*
X-919645Y44849500D01*
X-730356Y44849500D01*
X-730354Y44849500D01*
X-545197Y44888856D01*
X-372270Y44965849D01*
X-219129Y45077112D01*
X-92467Y45217784D01*
X2179Y45381716D01*
X60674Y45561744D01*
X64695Y45600000D01*
X6694540Y45600000D01*
X6714326Y45411744D01*
X6714327Y45411741D01*
X6772818Y45231723D01*
X6772821Y45231716D01*
X6867467Y45067784D01*
X6957063Y44968278D01*
X6994129Y44927112D01*
X7147265Y44815852D01*
X7147270Y44815849D01*
X7320192Y44738858D01*
X7320197Y44738856D01*
X7505354Y44699500D01*
X7505355Y44699500D01*
X7694644Y44699500D01*
X7694646Y44699500D01*
X7879803Y44738856D01*
X8052730Y44815849D01*
X8205871Y44927112D01*
X8332533Y45067784D01*
X8427179Y45231716D01*
X8485674Y45411744D01*
X8505460Y45600000D01*
X8485674Y45788256D01*
X8427179Y45968284D01*
X8332533Y46132216D01*
X8271499Y46200001D01*
X19594785Y46200001D01*
X19594785Y46200000D01*
X19613602Y45996918D01*
X19669417Y45800753D01*
X19669422Y45800740D01*
X19760327Y45618179D01*
X19883237Y45455419D01*
X20033958Y45318020D01*
X20033960Y45318018D01*
X20106848Y45272888D01*
X20207363Y45210652D01*
X20397544Y45136976D01*
X20598024Y45099500D01*
X20598026Y45099500D01*
X20801974Y45099500D01*
X20801976Y45099500D01*
X21002456Y45136976D01*
X21192637Y45210652D01*
X21366041Y45318019D01*
X21494122Y45434781D01*
X21516762Y45455419D01*
X21521085Y45461143D01*
X21639673Y45618179D01*
X21730582Y45800750D01*
X21786397Y45996917D01*
X21805215Y46200000D01*
X21786397Y46403083D01*
X21730582Y46599250D01*
X21639673Y46781821D01*
X21516764Y46944579D01*
X21516762Y46944582D01*
X21366041Y47081981D01*
X21366039Y47081983D01*
X21192642Y47189345D01*
X21192635Y47189349D01*
X21097546Y47226186D01*
X21002456Y47263024D01*
X20801976Y47300500D01*
X20598024Y47300500D01*
X20397544Y47263024D01*
X20397541Y47263024D01*
X20397541Y47263023D01*
X20207364Y47189349D01*
X20207357Y47189345D01*
X20033960Y47081983D01*
X20033958Y47081981D01*
X19883237Y46944582D01*
X19760327Y46781822D01*
X19669422Y46599261D01*
X19669417Y46599248D01*
X19613602Y46403083D01*
X19594785Y46200001D01*
X8271499Y46200001D01*
X8205871Y46272888D01*
X8205870Y46272889D01*
X8052734Y46384149D01*
X8052729Y46384152D01*
X7879807Y46461143D01*
X7879802Y46461145D01*
X7734001Y46492135D01*
X7694646Y46500500D01*
X7505354Y46500500D01*
X7472897Y46493602D01*
X7320197Y46461145D01*
X7320192Y46461143D01*
X7147270Y46384152D01*
X7147265Y46384149D01*
X6994129Y46272889D01*
X6867466Y46132215D01*
X6772821Y45968285D01*
X6772818Y45968278D01*
X6718382Y45800740D01*
X6714326Y45788256D01*
X6694540Y45600000D01*
X64695Y45600000D01*
X80460Y45750000D01*
X60674Y45938256D01*
X2179Y46118284D01*
X-92467Y46282216D01*
X-219129Y46422888D01*
X-219130Y46422889D01*
X-372266Y46534149D01*
X-372271Y46534152D01*
X-545193Y46611143D01*
X-545198Y46611145D01*
X-690999Y46642135D01*
X-730354Y46650500D01*
X-919646Y46650500D01*
X-952103Y46643602D01*
X-1104803Y46611145D01*
X-1104808Y46611143D01*
X-1277730Y46534152D01*
X-1277735Y46534149D01*
X-1430871Y46422889D01*
X-1557534Y46282215D01*
X-1592613Y46221456D01*
X-1643180Y46173240D01*
X-1711787Y46160017D01*
X-1776652Y46185985D01*
X-1807387Y46221456D01*
X-1818451Y46240619D01*
X-1842467Y46282216D01*
X-1969129Y46422888D01*
X-1969130Y46422889D01*
X-2122266Y46534149D01*
X-2122271Y46534152D01*
X-2295193Y46611143D01*
X-2295198Y46611145D01*
X-2440999Y46642135D01*
X-2480354Y46650500D01*
X-2669646Y46650500D01*
X-2702103Y46643602D01*
X-2854803Y46611145D01*
X-2854808Y46611143D01*
X-3027730Y46534152D01*
X-3027735Y46534149D01*
X-3180871Y46422889D01*
X-3307534Y46282215D01*
X-3402179Y46118285D01*
X-3402182Y46118278D01*
X-3427692Y46039765D01*
X-3467130Y45982089D01*
X-3531488Y45954891D01*
X-3600335Y45966806D01*
X-3651810Y46014050D01*
X-3663554Y46039764D01*
X-3672820Y46068281D01*
X-3672821Y46068282D01*
X-3672821Y46068284D01*
X-3767467Y46232216D01*
X-3894129Y46372888D01*
X-3909631Y46384151D01*
X-4047266Y46484149D01*
X-4047271Y46484152D01*
X-4220193Y46561143D01*
X-4220198Y46561145D01*
X-4365999Y46592135D01*
X-4405354Y46600500D01*
X-4594646Y46600500D01*
X-4627103Y46593602D01*
X-4779803Y46561145D01*
X-4779808Y46561143D01*
X-4952730Y46484152D01*
X-4952735Y46484149D01*
X-5105871Y46372889D01*
X-5232535Y46232215D01*
X-5268613Y46169724D01*
X-5319180Y46121508D01*
X-5387787Y46108285D01*
X-5452652Y46134253D01*
X-5493180Y46191167D01*
X-5500000Y46231724D01*
X-5500000Y47695381D01*
X5079621Y47695381D01*
X5099407Y47507125D01*
X5099408Y47507122D01*
X5157899Y47327104D01*
X5157902Y47327097D01*
X5252548Y47163165D01*
X5325645Y47081983D01*
X5379210Y47022493D01*
X5532346Y46911233D01*
X5532351Y46911230D01*
X5705273Y46834239D01*
X5705278Y46834237D01*
X5890435Y46794881D01*
X5890436Y46794881D01*
X6079725Y46794881D01*
X6079727Y46794881D01*
X6264884Y46834237D01*
X6437811Y46911230D01*
X6590952Y47022493D01*
X6717614Y47163165D01*
X6812260Y47327097D01*
X6870755Y47507125D01*
X6887257Y47664137D01*
X14043591Y47664137D01*
X14063377Y47475881D01*
X14063378Y47475878D01*
X14121869Y47295860D01*
X14121872Y47295853D01*
X14216518Y47131921D01*
X14315048Y47022493D01*
X14343180Y46991249D01*
X14496316Y46879989D01*
X14496321Y46879986D01*
X14669243Y46802995D01*
X14669248Y46802993D01*
X14854405Y46763637D01*
X14854406Y46763637D01*
X15043695Y46763637D01*
X15043697Y46763637D01*
X15228854Y46802993D01*
X15401781Y46879986D01*
X15554922Y46991249D01*
X15681584Y47131921D01*
X15776230Y47295853D01*
X15834725Y47475881D01*
X15854511Y47664137D01*
X15839959Y47802594D01*
X15852527Y47871318D01*
X15890394Y47915868D01*
X15905871Y47927112D01*
X16032533Y48067784D01*
X16127179Y48231716D01*
X16185674Y48411744D01*
X16205460Y48600000D01*
X16185674Y48788256D01*
X16127179Y48968284D01*
X16032533Y49132216D01*
X15905871Y49272888D01*
X15905870Y49272889D01*
X15752734Y49384149D01*
X15752729Y49384152D01*
X15579807Y49461143D01*
X15579802Y49461145D01*
X15434001Y49492135D01*
X15394646Y49500500D01*
X15205354Y49500500D01*
X15172897Y49493602D01*
X15020197Y49461145D01*
X15020192Y49461143D01*
X14847270Y49384152D01*
X14847265Y49384149D01*
X14694129Y49272889D01*
X14567466Y49132215D01*
X14472821Y48968285D01*
X14472818Y48968278D01*
X14414327Y48788260D01*
X14414326Y48788256D01*
X14400810Y48659652D01*
X14394540Y48600000D01*
X14409091Y48461549D01*
X14396521Y48392819D01*
X14358660Y48348274D01*
X14343185Y48337031D01*
X14343174Y48337021D01*
X14216517Y48196352D01*
X14121872Y48032422D01*
X14121869Y48032415D01*
X14063378Y47852397D01*
X14063377Y47852393D01*
X14043591Y47664137D01*
X6887257Y47664137D01*
X6890541Y47695381D01*
X6870755Y47883637D01*
X6812260Y48063665D01*
X6717614Y48227597D01*
X6590952Y48368269D01*
X6531114Y48411744D01*
X6437815Y48479530D01*
X6437810Y48479533D01*
X6264888Y48556524D01*
X6264883Y48556526D01*
X6119082Y48587516D01*
X6079727Y48595881D01*
X5890435Y48595881D01*
X5857978Y48588983D01*
X5705278Y48556526D01*
X5705273Y48556524D01*
X5532351Y48479533D01*
X5532346Y48479530D01*
X5379210Y48368270D01*
X5252547Y48227596D01*
X5157902Y48063666D01*
X5157899Y48063659D01*
X5099408Y47883641D01*
X5099407Y47883637D01*
X5079621Y47695381D01*
X-5500000Y47695381D01*
X-5500000Y49750000D01*
X-905460Y49750000D01*
X-885674Y49561744D01*
X-885673Y49561741D01*
X-827182Y49381723D01*
X-827179Y49381716D01*
X-732533Y49217784D01*
X-655487Y49132216D01*
X-605871Y49077112D01*
X-452735Y48965852D01*
X-452730Y48965849D01*
X-279808Y48888858D01*
X-279803Y48888856D01*
X-94646Y48849500D01*
X-94645Y48849500D01*
X94644Y48849500D01*
X94646Y48849500D01*
X279803Y48888856D01*
X452730Y48965849D01*
X605871Y49077112D01*
X732533Y49217784D01*
X827179Y49381716D01*
X847351Y49443800D01*
X8644541Y49443800D01*
X8664327Y49255544D01*
X8664328Y49255541D01*
X8722819Y49075523D01*
X8722822Y49075516D01*
X8817468Y48911584D01*
X8873369Y48849500D01*
X8944130Y48770912D01*
X9097266Y48659652D01*
X9097271Y48659649D01*
X9270193Y48582658D01*
X9270198Y48582656D01*
X9455355Y48543300D01*
X9455356Y48543300D01*
X9644645Y48543300D01*
X9644647Y48543300D01*
X9829804Y48582656D01*
X10002731Y48659649D01*
X10155872Y48770912D01*
X10282534Y48911584D01*
X10377180Y49075516D01*
X10435675Y49255544D01*
X10455461Y49443800D01*
X10435675Y49632056D01*
X10377180Y49812084D01*
X10282534Y49976016D01*
X10170894Y50100004D01*
X19794435Y50100004D01*
X19794435Y50099997D01*
X19814630Y49920751D01*
X19814631Y49920746D01*
X19874211Y49750477D01*
X19970184Y49597738D01*
X20097738Y49470184D01*
X20112127Y49461143D01*
X20238522Y49381723D01*
X20250478Y49374211D01*
X20420745Y49314632D01*
X20420750Y49314631D01*
X20599996Y49294435D01*
X20600000Y49294435D01*
X20600004Y49294435D01*
X20779249Y49314631D01*
X20779252Y49314632D01*
X20779255Y49314632D01*
X20949522Y49374211D01*
X21102262Y49470184D01*
X21229816Y49597738D01*
X21325789Y49750478D01*
X21385368Y49920745D01*
X21387341Y49938256D01*
X21405565Y50099997D01*
X21405565Y50100004D01*
X21385369Y50279250D01*
X21385368Y50279255D01*
X21362608Y50344300D01*
X21325789Y50449522D01*
X21229816Y50602262D01*
X21102262Y50729816D01*
X20949523Y50825789D01*
X20779254Y50885369D01*
X20779249Y50885370D01*
X20600004Y50905565D01*
X20599996Y50905565D01*
X20420750Y50885370D01*
X20420745Y50885369D01*
X20250476Y50825789D01*
X20097737Y50729816D01*
X19970184Y50602263D01*
X19874211Y50449524D01*
X19814631Y50279255D01*
X19814630Y50279250D01*
X19794435Y50100004D01*
X10170894Y50100004D01*
X10155872Y50116688D01*
X10153684Y50118278D01*
X10002735Y50227949D01*
X10002730Y50227952D01*
X9829808Y50304943D01*
X9829803Y50304945D01*
X9684002Y50335935D01*
X9644647Y50344300D01*
X9455355Y50344300D01*
X9422898Y50337402D01*
X9270198Y50304945D01*
X9270193Y50304943D01*
X9097271Y50227952D01*
X9097266Y50227949D01*
X8944130Y50116689D01*
X8817467Y49976015D01*
X8722822Y49812085D01*
X8722819Y49812078D01*
X8664328Y49632060D01*
X8664327Y49632056D01*
X8644541Y49443800D01*
X847351Y49443800D01*
X885674Y49561744D01*
X905460Y49750000D01*
X885674Y49938256D01*
X827179Y50118284D01*
X732533Y50282216D01*
X605871Y50422888D01*
X605870Y50422889D01*
X452734Y50534149D01*
X452729Y50534152D01*
X279807Y50611143D01*
X279802Y50611145D01*
X134001Y50642135D01*
X94646Y50650500D01*
X-94646Y50650500D01*
X-127103Y50643602D01*
X-279803Y50611145D01*
X-279808Y50611143D01*
X-452730Y50534152D01*
X-452735Y50534149D01*
X-605871Y50422889D01*
X-732534Y50282215D01*
X-827179Y50118285D01*
X-827182Y50118278D01*
X-885673Y49938260D01*
X-885674Y49938256D01*
X-905460Y49750000D01*
X-5500000Y49750000D01*
X-5500000Y51900000D01*
X694540Y51900000D01*
X714326Y51711744D01*
X714327Y51711741D01*
X772818Y51531723D01*
X772821Y51531716D01*
X867467Y51367784D01*
X994129Y51227112D01*
X1147265Y51115852D01*
X1147270Y51115849D01*
X1320192Y51038858D01*
X1320197Y51038856D01*
X1505354Y50999500D01*
X1505355Y50999500D01*
X1694644Y50999500D01*
X1694646Y50999500D01*
X1879803Y51038856D01*
X2052730Y51115849D01*
X2205871Y51227112D01*
X2332533Y51367784D01*
X2427179Y51531716D01*
X2485674Y51711744D01*
X2505460Y51900000D01*
X2485674Y52088256D01*
X2427179Y52268284D01*
X2332533Y52432216D01*
X2205871Y52572888D01*
X2205870Y52572889D01*
X2052734Y52684149D01*
X2052729Y52684152D01*
X1879807Y52761143D01*
X1879802Y52761145D01*
X1734001Y52792135D01*
X1694646Y52800500D01*
X1505354Y52800500D01*
X1472897Y52793602D01*
X1320197Y52761145D01*
X1320192Y52761143D01*
X1147270Y52684152D01*
X1147265Y52684149D01*
X994129Y52572889D01*
X867466Y52432215D01*
X772821Y52268285D01*
X772818Y52268278D01*
X740166Y52167784D01*
X714326Y52088256D01*
X694540Y51900000D01*
X-5500000Y51900000D01*
X-5500000Y58500000D01*
X-2905460Y58500000D01*
X-2885674Y58311744D01*
X-2885673Y58311741D01*
X-2827182Y58131723D01*
X-2827179Y58131716D01*
X-2732533Y57967784D01*
X-2605871Y57827112D01*
X-2452735Y57715852D01*
X-2452730Y57715849D01*
X-2279808Y57638858D01*
X-2279803Y57638856D01*
X-2197161Y57621290D01*
X-2135679Y57588098D01*
X-2101903Y57526935D01*
X-2106555Y57457220D01*
X-2148160Y57401088D01*
X-2197161Y57378710D01*
X-2279803Y57361145D01*
X-2279808Y57361143D01*
X-2452730Y57284152D01*
X-2452735Y57284149D01*
X-2605871Y57172889D01*
X-2732534Y57032215D01*
X-2827179Y56868285D01*
X-2827182Y56868278D01*
X-2885673Y56688260D01*
X-2885674Y56688256D01*
X-2905460Y56500000D01*
X-2885674Y56311744D01*
X-2885673Y56311741D01*
X-2827182Y56131723D01*
X-2827179Y56131716D01*
X-2732533Y55967784D01*
X-2660931Y55888262D01*
X-2605871Y55827112D01*
X-2452735Y55715852D01*
X-2452733Y55715851D01*
X-2452730Y55715849D01*
X-2446957Y55713279D01*
X-2393720Y55668028D01*
X-2373400Y55601178D01*
X-2392446Y55533955D01*
X-2444813Y55487700D01*
X-2446928Y55486735D01*
X-2449849Y55485434D01*
X-2452733Y55484150D01*
X-2452735Y55484149D01*
X-2605871Y55372889D01*
X-2732534Y55232215D01*
X-2827179Y55068285D01*
X-2827182Y55068278D01*
X-2885673Y54888260D01*
X-2885674Y54888256D01*
X-2905460Y54700000D01*
X-2885674Y54511744D01*
X-2885673Y54511741D01*
X-2827182Y54331723D01*
X-2827179Y54331716D01*
X-2732533Y54167784D01*
X-2652821Y54079255D01*
X-2605871Y54027112D01*
X-2452735Y53915852D01*
X-2452730Y53915849D01*
X-2279808Y53838858D01*
X-2279803Y53838856D01*
X-2094646Y53799500D01*
X-2094645Y53799500D01*
X-1905356Y53799500D01*
X-1905354Y53799500D01*
X-1720197Y53838856D01*
X-1582858Y53900004D01*
X10394435Y53900004D01*
X10394435Y53899997D01*
X10414630Y53720751D01*
X10414631Y53720746D01*
X10474211Y53550477D01*
X10515886Y53484152D01*
X10570184Y53397738D01*
X10697738Y53270184D01*
X10850478Y53174211D01*
X11020745Y53114632D01*
X11020750Y53114631D01*
X11199996Y53094435D01*
X11200000Y53094435D01*
X11200004Y53094435D01*
X11300703Y53105781D01*
X11369524Y53093727D01*
X11420904Y53046377D01*
X11438528Y52978767D01*
X11432517Y52944243D01*
X11414326Y52888256D01*
X11394540Y52700000D01*
X11414326Y52511744D01*
X11414327Y52511741D01*
X11472818Y52331723D01*
X11472821Y52331716D01*
X11567467Y52167784D01*
X11599937Y52131723D01*
X11694129Y52027112D01*
X11847265Y51915852D01*
X11847270Y51915849D01*
X12020192Y51838858D01*
X12020197Y51838856D01*
X12205354Y51799500D01*
X12205355Y51799500D01*
X12394644Y51799500D01*
X12394646Y51799500D01*
X12579803Y51838856D01*
X12717133Y51900000D01*
X13794540Y51900000D01*
X13814326Y51711744D01*
X13814327Y51711741D01*
X13872818Y51531723D01*
X13872821Y51531716D01*
X13967467Y51367784D01*
X14094129Y51227112D01*
X14247265Y51115852D01*
X14247270Y51115849D01*
X14420192Y51038858D01*
X14420197Y51038856D01*
X14605354Y50999500D01*
X14605355Y50999500D01*
X14794644Y50999500D01*
X14794646Y50999500D01*
X14979803Y51038856D01*
X15152730Y51115849D01*
X15305871Y51227112D01*
X15432533Y51367784D01*
X15527179Y51531716D01*
X15585674Y51711744D01*
X15605460Y51900000D01*
X15585674Y52088256D01*
X15527179Y52268284D01*
X15432533Y52432216D01*
X15371500Y52500000D01*
X23394540Y52500000D01*
X23414326Y52311744D01*
X23414327Y52311741D01*
X23472818Y52131723D01*
X23472821Y52131716D01*
X23567467Y51967784D01*
X23683553Y51838858D01*
X23694129Y51827112D01*
X23847265Y51715852D01*
X23847270Y51715849D01*
X24020192Y51638858D01*
X24020197Y51638856D01*
X24205354Y51599500D01*
X24205355Y51599500D01*
X24394644Y51599500D01*
X24394646Y51599500D01*
X24579803Y51638856D01*
X24752730Y51715849D01*
X24905871Y51827112D01*
X25032533Y51967784D01*
X25127179Y52131716D01*
X25185674Y52311744D01*
X25205460Y52500000D01*
X25185674Y52688256D01*
X25127179Y52868284D01*
X25032533Y53032216D01*
X24905871Y53172888D01*
X24904049Y53174212D01*
X24752734Y53284149D01*
X24752729Y53284152D01*
X24579807Y53361143D01*
X24579802Y53361145D01*
X24407640Y53397738D01*
X24394646Y53400500D01*
X24205354Y53400500D01*
X24192360Y53397738D01*
X24020197Y53361145D01*
X24020192Y53361143D01*
X23847270Y53284152D01*
X23847265Y53284149D01*
X23694129Y53172889D01*
X23567466Y53032215D01*
X23472821Y52868285D01*
X23472818Y52868278D01*
X23418142Y52700000D01*
X23414326Y52688256D01*
X23394540Y52500000D01*
X15371500Y52500000D01*
X15305871Y52572888D01*
X15305870Y52572889D01*
X15152734Y52684149D01*
X15152729Y52684152D01*
X14979807Y52761143D01*
X14979802Y52761145D01*
X14834001Y52792135D01*
X14794646Y52800500D01*
X14605354Y52800500D01*
X14572897Y52793602D01*
X14420197Y52761145D01*
X14420192Y52761143D01*
X14247270Y52684152D01*
X14247265Y52684149D01*
X14094129Y52572889D01*
X13967466Y52432215D01*
X13872821Y52268285D01*
X13872818Y52268278D01*
X13840166Y52167784D01*
X13814326Y52088256D01*
X13794540Y51900000D01*
X12717133Y51900000D01*
X12752730Y51915849D01*
X12905871Y52027112D01*
X13032533Y52167784D01*
X13127179Y52331716D01*
X13185674Y52511744D01*
X13205460Y52700000D01*
X13185674Y52888256D01*
X13127179Y53068284D01*
X13032533Y53232216D01*
X12905871Y53372888D01*
X12871668Y53397738D01*
X12752734Y53484149D01*
X12752729Y53484152D01*
X12579807Y53561143D01*
X12579802Y53561145D01*
X12434001Y53592135D01*
X12394646Y53600500D01*
X12205354Y53600500D01*
X12205353Y53600500D01*
X12134350Y53585408D01*
X12064683Y53590724D01*
X12008950Y53632861D01*
X11984845Y53698441D01*
X11985350Y53720581D01*
X12005565Y53899997D01*
X12005565Y53900004D01*
X11985369Y54079250D01*
X11985368Y54079255D01*
X11925788Y54249524D01*
X11829815Y54402263D01*
X11702262Y54529816D01*
X11549523Y54625789D01*
X11379254Y54685369D01*
X11379249Y54685370D01*
X11200004Y54705565D01*
X11199996Y54705565D01*
X11020750Y54685370D01*
X11020745Y54685369D01*
X10850476Y54625789D01*
X10697737Y54529816D01*
X10570184Y54402263D01*
X10474211Y54249524D01*
X10414631Y54079255D01*
X10414630Y54079250D01*
X10394435Y53900004D01*
X-1582858Y53900004D01*
X-1547270Y53915849D01*
X-1394129Y54027112D01*
X-1267467Y54167784D01*
X-1172821Y54331716D01*
X-1114326Y54511744D01*
X-1094540Y54700000D01*
X-1114326Y54888256D01*
X-1172821Y55068284D01*
X-1267467Y55232216D01*
X-1394129Y55372888D01*
X-1394130Y55372889D01*
X-1547266Y55484149D01*
X-1547269Y55484150D01*
X-1547270Y55484151D01*
X-1553043Y55486721D01*
X-1606279Y55531969D01*
X-1626601Y55598818D01*
X-1607557Y55666042D01*
X-1555191Y55712298D01*
X-1553080Y55713263D01*
X-1547270Y55715849D01*
X-1394129Y55827112D01*
X-1267467Y55967784D01*
X-1172821Y56131716D01*
X-1114326Y56311744D01*
X-1094540Y56500000D01*
X1094540Y56500000D01*
X1114326Y56311744D01*
X1114327Y56311741D01*
X1172818Y56131723D01*
X1172821Y56131716D01*
X1267467Y55967784D01*
X1339069Y55888262D01*
X1394129Y55827112D01*
X1547265Y55715852D01*
X1547270Y55715849D01*
X1720192Y55638858D01*
X1720197Y55638856D01*
X1905354Y55599500D01*
X1905355Y55599500D01*
X2094644Y55599500D01*
X2094646Y55599500D01*
X2279803Y55638856D01*
X2452730Y55715849D01*
X2605871Y55827112D01*
X2732533Y55967784D01*
X2827179Y56131716D01*
X2885674Y56311744D01*
X2905460Y56500000D01*
X2885674Y56688256D01*
X2827179Y56868284D01*
X2732533Y57032216D01*
X2605871Y57172888D01*
X2590369Y57184151D01*
X2452734Y57284149D01*
X2452729Y57284152D01*
X2279807Y57361143D01*
X2279802Y57361145D01*
X2134001Y57392135D01*
X2094646Y57400500D01*
X1905354Y57400500D01*
X1872897Y57393602D01*
X1720197Y57361145D01*
X1720192Y57361143D01*
X1547270Y57284152D01*
X1547265Y57284149D01*
X1394129Y57172889D01*
X1267466Y57032215D01*
X1172821Y56868285D01*
X1172818Y56868278D01*
X1114327Y56688260D01*
X1114326Y56688256D01*
X1094540Y56500000D01*
X-1094540Y56500000D01*
X-1114326Y56688256D01*
X-1172821Y56868284D01*
X-1267467Y57032216D01*
X-1394129Y57172888D01*
X-1409631Y57184151D01*
X-1547266Y57284149D01*
X-1547271Y57284152D01*
X-1720193Y57361143D01*
X-1720200Y57361145D01*
X-1802839Y57378710D01*
X-1864321Y57411902D01*
X-1898098Y57473065D01*
X-1893446Y57542779D01*
X-1851842Y57598912D01*
X-1849451Y57600004D01*
X5094435Y57600004D01*
X5094435Y57599997D01*
X5114630Y57420751D01*
X5114633Y57420738D01*
X5174209Y57250480D01*
X5227309Y57165971D01*
X5246309Y57098734D01*
X5227309Y57034029D01*
X5174209Y56949521D01*
X5114633Y56779263D01*
X5114630Y56779250D01*
X5094435Y56600004D01*
X5094435Y56599997D01*
X5114630Y56420751D01*
X5114631Y56420746D01*
X5174211Y56250477D01*
X5244797Y56138141D01*
X5270184Y56097738D01*
X5397738Y55970184D01*
X5401558Y55967784D01*
X5528125Y55888256D01*
X5550478Y55874211D01*
X5685079Y55827112D01*
X5720745Y55814632D01*
X5720750Y55814631D01*
X5899996Y55794435D01*
X5900000Y55794435D01*
X5900004Y55794435D01*
X6079249Y55814631D01*
X6079252Y55814632D01*
X6079255Y55814632D01*
X6249522Y55874211D01*
X6402262Y55970184D01*
X6529816Y56097738D01*
X6529826Y56097756D01*
X6530018Y56097994D01*
X6530199Y56098122D01*
X6534740Y56102662D01*
X6535534Y56101868D01*
X6587202Y56138141D01*
X6657013Y56141000D01*
X6717287Y56105662D01*
X6748888Y56043347D01*
X6744906Y55982376D01*
X6714327Y55888262D01*
X6714327Y55888260D01*
X6714326Y55888256D01*
X6694540Y55700000D01*
X6714326Y55511744D01*
X6714327Y55511741D01*
X6772818Y55331723D01*
X6772821Y55331716D01*
X6867467Y55167784D01*
X6957063Y55068278D01*
X6994129Y55027112D01*
X7147265Y54915852D01*
X7147270Y54915849D01*
X7320192Y54838858D01*
X7320197Y54838856D01*
X7505354Y54799500D01*
X7505355Y54799500D01*
X7694644Y54799500D01*
X7694646Y54799500D01*
X7879803Y54838856D01*
X8052730Y54915849D01*
X8205871Y55027112D01*
X8332533Y55167784D01*
X8427179Y55331716D01*
X8485674Y55511744D01*
X8505460Y55700000D01*
X8485674Y55888256D01*
X8427179Y56068284D01*
X8332533Y56232216D01*
X8205871Y56372888D01*
X8169243Y56399500D01*
X8168555Y56400000D01*
X11194540Y56400000D01*
X11214326Y56211744D01*
X11214327Y56211741D01*
X11272818Y56031723D01*
X11272821Y56031716D01*
X11367467Y55867784D01*
X11433511Y55794435D01*
X11494129Y55727112D01*
X11647265Y55615852D01*
X11647270Y55615849D01*
X11820192Y55538858D01*
X11820197Y55538856D01*
X12005354Y55499500D01*
X12005355Y55499500D01*
X12194644Y55499500D01*
X12194646Y55499500D01*
X12379803Y55538856D01*
X12552730Y55615849D01*
X12705871Y55727112D01*
X12832533Y55867784D01*
X12927179Y56031716D01*
X12985674Y56211744D01*
X13005460Y56400000D01*
X12985674Y56588256D01*
X12927179Y56768284D01*
X12832533Y56932216D01*
X12705871Y57072888D01*
X12670297Y57098734D01*
X12552734Y57184149D01*
X12552729Y57184152D01*
X12379807Y57261143D01*
X12379802Y57261145D01*
X12234001Y57292135D01*
X12194646Y57300500D01*
X12005354Y57300500D01*
X11972897Y57293602D01*
X11820197Y57261145D01*
X11820192Y57261143D01*
X11647270Y57184152D01*
X11647265Y57184149D01*
X11494129Y57072889D01*
X11367466Y56932215D01*
X11272821Y56768285D01*
X11272818Y56768278D01*
X11223996Y56618018D01*
X11214326Y56588256D01*
X11194540Y56400000D01*
X8168555Y56400000D01*
X8052734Y56484149D01*
X8052729Y56484152D01*
X7879807Y56561143D01*
X7879802Y56561145D01*
X7697012Y56599997D01*
X7694646Y56600500D01*
X7505354Y56600500D01*
X7502988Y56599997D01*
X7320197Y56561145D01*
X7320192Y56561143D01*
X7147270Y56484152D01*
X7147265Y56484149D01*
X6994129Y56372889D01*
X6994128Y56372888D01*
X6874806Y56240368D01*
X6815320Y56203720D01*
X6745463Y56205051D01*
X6687415Y56243938D01*
X6659605Y56308035D01*
X6665616Y56364297D01*
X6685367Y56420741D01*
X6685369Y56420751D01*
X6705565Y56599997D01*
X6705565Y56600004D01*
X6685369Y56779250D01*
X6685368Y56779255D01*
X6625788Y56949525D01*
X6572691Y57034027D01*
X6553690Y57101264D01*
X6572691Y57165973D01*
X6625788Y57250476D01*
X6625789Y57250478D01*
X6685368Y57420745D01*
X6704224Y57588098D01*
X6705565Y57599997D01*
X6705565Y57600004D01*
X6685369Y57779250D01*
X6685368Y57779255D01*
X6668622Y57827112D01*
X6625789Y57949522D01*
X6529816Y58102262D01*
X6402262Y58229816D01*
X6378767Y58244579D01*
X6249523Y58325789D01*
X6079254Y58385369D01*
X6079249Y58385370D01*
X5900004Y58405565D01*
X5899996Y58405565D01*
X5720750Y58385370D01*
X5720745Y58385369D01*
X5550476Y58325789D01*
X5397737Y58229816D01*
X5270184Y58102263D01*
X5174211Y57949524D01*
X5114631Y57779255D01*
X5114630Y57779250D01*
X5094435Y57600004D01*
X-1849451Y57600004D01*
X-1802839Y57621290D01*
X-1796799Y57622574D01*
X-1720197Y57638856D01*
X-1547270Y57715849D01*
X-1394129Y57827112D01*
X-1267467Y57967784D01*
X-1172821Y58131716D01*
X-1114326Y58311744D01*
X-1094540Y58500000D01*
X-1114326Y58688256D01*
X-1172821Y58868284D01*
X-1248868Y59000001D01*
X15894785Y59000001D01*
X15894785Y59000000D01*
X15913602Y58796918D01*
X15969417Y58600753D01*
X15969422Y58600740D01*
X16060328Y58418176D01*
X16130898Y58324726D01*
X16155590Y58259365D01*
X16141025Y58191030D01*
X16130898Y58175274D01*
X16060328Y58081825D01*
X15969422Y57899261D01*
X15969417Y57899248D01*
X15913602Y57703083D01*
X15894785Y57500001D01*
X15894785Y57500000D01*
X15913602Y57296918D01*
X15969417Y57100753D01*
X15969422Y57100740D01*
X16060327Y56918179D01*
X16183237Y56755419D01*
X16333958Y56618020D01*
X16333960Y56618018D01*
X16382028Y56588256D01*
X16507363Y56510652D01*
X16697544Y56436976D01*
X16898024Y56399500D01*
X16898026Y56399500D01*
X17101974Y56399500D01*
X17101976Y56399500D01*
X17302456Y56436976D01*
X17492637Y56510652D01*
X17666041Y56618019D01*
X17816764Y56755421D01*
X17939673Y56918179D01*
X18030582Y57100750D01*
X18086397Y57296917D01*
X18105215Y57500000D01*
X18095948Y57600004D01*
X18086397Y57703083D01*
X18051107Y57827112D01*
X18030582Y57899250D01*
X17939673Y58081821D01*
X17869100Y58175275D01*
X17844409Y58240634D01*
X17858974Y58308969D01*
X17869098Y58324724D01*
X17939673Y58418179D01*
X18030582Y58600750D01*
X18086397Y58796917D01*
X18105215Y59000000D01*
X18086397Y59203083D01*
X18030582Y59399250D01*
X17939673Y59581821D01*
X17816764Y59744579D01*
X17816762Y59744582D01*
X17750540Y59804951D01*
X17714258Y59864662D01*
X17716019Y59934510D01*
X17729875Y59961815D01*
X17729284Y59962156D01*
X17753071Y60003358D01*
X17827179Y60131716D01*
X17885674Y60311744D01*
X17905460Y60500000D01*
X17885674Y60688256D01*
X17827179Y60868284D01*
X17732533Y61032216D01*
X17605871Y61172888D01*
X17568559Y61199997D01*
X17452734Y61284149D01*
X17452729Y61284152D01*
X17279807Y61361143D01*
X17279802Y61361145D01*
X17134001Y61392135D01*
X17094646Y61400500D01*
X16905354Y61400500D01*
X16872897Y61393602D01*
X16720197Y61361145D01*
X16720192Y61361143D01*
X16547270Y61284152D01*
X16547265Y61284149D01*
X16394129Y61172889D01*
X16267466Y61032215D01*
X16172821Y60868285D01*
X16172818Y60868278D01*
X16123921Y60717786D01*
X16114326Y60688256D01*
X16094540Y60500000D01*
X16114326Y60311744D01*
X16114327Y60311741D01*
X16172818Y60131723D01*
X16172821Y60131716D01*
X16270716Y59962156D01*
X16269169Y59961264D01*
X16289719Y59903660D01*
X16273890Y59835607D01*
X16249460Y59804952D01*
X16183238Y59744582D01*
X16060327Y59581822D01*
X15969422Y59399261D01*
X15969417Y59399248D01*
X15913602Y59203083D01*
X15894785Y59000001D01*
X-1248868Y59000001D01*
X-1267467Y59032216D01*
X-1394129Y59172888D01*
X-1394130Y59172889D01*
X-1547266Y59284149D01*
X-1547271Y59284152D01*
X-1720193Y59361143D01*
X-1720198Y59361145D01*
X-1865999Y59392135D01*
X-1905354Y59400500D01*
X-2094646Y59400500D01*
X-2127103Y59393602D01*
X-2279803Y59361145D01*
X-2279808Y59361143D01*
X-2452730Y59284152D01*
X-2452735Y59284149D01*
X-2605871Y59172889D01*
X-2732534Y59032215D01*
X-2827179Y58868285D01*
X-2827182Y58868278D01*
X-2850368Y58796917D01*
X-2885674Y58688256D01*
X-2905460Y58500000D01*
X-5500000Y58500000D01*
X-5500000Y61250000D01*
X2344540Y61250000D01*
X2364326Y61061744D01*
X2364327Y61061741D01*
X2422818Y60881723D01*
X2422821Y60881716D01*
X2517467Y60717784D01*
X2644129Y60577112D01*
X2797265Y60465852D01*
X2797270Y60465849D01*
X2957666Y60394435D01*
X2970197Y60388856D01*
X3028080Y60376553D01*
X3089558Y60343363D01*
X3120227Y60293582D01*
X3172818Y60131723D01*
X3172821Y60131716D01*
X3267467Y59967784D01*
X3325205Y59903660D01*
X3394129Y59827112D01*
X3547265Y59715852D01*
X3547270Y59715849D01*
X3720192Y59638858D01*
X3720197Y59638856D01*
X3905354Y59599500D01*
X3905355Y59599500D01*
X4094644Y59599500D01*
X4094646Y59599500D01*
X4279803Y59638856D01*
X4452730Y59715849D01*
X4605871Y59827112D01*
X4732533Y59967784D01*
X4827179Y60131716D01*
X4885674Y60311744D01*
X4905460Y60500000D01*
X4885674Y60688256D01*
X4827179Y60868284D01*
X4732533Y61032216D01*
X4605871Y61172888D01*
X4568559Y61199997D01*
X4452734Y61284149D01*
X4452729Y61284152D01*
X4279807Y61361143D01*
X4279803Y61361144D01*
X4221921Y61373448D01*
X4160439Y61406641D01*
X4129772Y61456420D01*
X4077181Y61618279D01*
X4077178Y61618285D01*
X3982533Y61782216D01*
X3855871Y61922888D01*
X3851878Y61925789D01*
X3702734Y62034149D01*
X3702729Y62034152D01*
X3529807Y62111143D01*
X3529802Y62111145D01*
X3384001Y62142135D01*
X3344646Y62150500D01*
X3155354Y62150500D01*
X3122897Y62143602D01*
X2970197Y62111145D01*
X2970192Y62111143D01*
X2797270Y62034152D01*
X2797265Y62034149D01*
X2644129Y61922889D01*
X2517466Y61782215D01*
X2422821Y61618285D01*
X2422818Y61618278D01*
X2370228Y61456420D01*
X2364326Y61438256D01*
X2344540Y61250000D01*
X-5500000Y61250000D01*
X-5500000Y62400004D01*
X6294435Y62400004D01*
X6294435Y62399997D01*
X6314630Y62220751D01*
X6314631Y62220746D01*
X6374211Y62050477D01*
X6470184Y61897738D01*
X6597740Y61770182D01*
X6646974Y61739247D01*
X6693266Y61686913D01*
X6703915Y61617859D01*
X6685999Y61568285D01*
X6674210Y61549522D01*
X6614633Y61379263D01*
X6614630Y61379250D01*
X6594435Y61200004D01*
X6594435Y61199997D01*
X6614630Y61020751D01*
X6614631Y61020746D01*
X6674211Y60850477D01*
X6757587Y60717786D01*
X6770184Y60697738D01*
X6897738Y60570184D01*
X7050478Y60474211D01*
X7220745Y60414632D01*
X7220750Y60414631D01*
X7399996Y60394435D01*
X7400000Y60394435D01*
X7400004Y60394435D01*
X7579249Y60414631D01*
X7579252Y60414632D01*
X7579255Y60414632D01*
X7749522Y60474211D01*
X7902262Y60570184D01*
X8029816Y60697738D01*
X8125789Y60850478D01*
X8185368Y61020745D01*
X8185369Y61020751D01*
X8205565Y61199997D01*
X8205565Y61200004D01*
X8185369Y61379250D01*
X8185368Y61379255D01*
X8125788Y61549524D01*
X8047816Y61673615D01*
X8029816Y61702262D01*
X7902262Y61829816D01*
X7902260Y61829818D01*
X7853022Y61860756D01*
X7806732Y61913090D01*
X7796084Y61982144D01*
X7814001Y62031718D01*
X7825789Y62050478D01*
X7885368Y62220745D01*
X7905565Y62400000D01*
X7885821Y62575233D01*
X7885369Y62579250D01*
X7885368Y62579255D01*
X7864512Y62638858D01*
X7825789Y62749522D01*
X7817011Y62763492D01*
X9752451Y62763492D01*
X9772237Y62575236D01*
X9772238Y62575233D01*
X9830729Y62395215D01*
X9830732Y62395208D01*
X9925378Y62231276D01*
X10033545Y62111145D01*
X10052040Y62090604D01*
X10205176Y61979344D01*
X10205181Y61979341D01*
X10378103Y61902350D01*
X10378108Y61902348D01*
X10563265Y61862992D01*
X10563266Y61862992D01*
X10752555Y61862992D01*
X10752557Y61862992D01*
X10937714Y61902348D01*
X11110641Y61979341D01*
X11263782Y62090604D01*
X11390444Y62231276D01*
X11485090Y62395208D01*
X11543585Y62575236D01*
X11563371Y62763492D01*
X11543585Y62951748D01*
X11487035Y63125789D01*
X11485092Y63131770D01*
X11485091Y63131771D01*
X11485090Y63131776D01*
X11390444Y63295708D01*
X11263782Y63436380D01*
X11263781Y63436381D01*
X11110645Y63547641D01*
X11110640Y63547644D01*
X10937718Y63624635D01*
X10937713Y63624637D01*
X10791912Y63655627D01*
X10752557Y63663992D01*
X10563265Y63663992D01*
X10530808Y63657094D01*
X10378108Y63624637D01*
X10378103Y63624635D01*
X10205181Y63547644D01*
X10205176Y63547641D01*
X10052040Y63436381D01*
X9925377Y63295707D01*
X9830732Y63131777D01*
X9830729Y63131770D01*
X9796724Y63027112D01*
X9772237Y62951748D01*
X9752451Y62763492D01*
X7817011Y62763492D01*
X7729816Y62902262D01*
X7602262Y63029816D01*
X7449523Y63125789D01*
X7279254Y63185369D01*
X7279249Y63185370D01*
X7100004Y63205565D01*
X7099996Y63205565D01*
X6920750Y63185370D01*
X6920745Y63185369D01*
X6750476Y63125789D01*
X6597737Y63029816D01*
X6470184Y62902263D01*
X6374211Y62749524D01*
X6314631Y62579255D01*
X6314630Y62579250D01*
X6294435Y62400004D01*
X-5500000Y62400004D01*
X-5500000Y63700000D01*
X-4505460Y63700000D01*
X-4485674Y63511744D01*
X-4485673Y63511741D01*
X-4427182Y63331723D01*
X-4427179Y63331716D01*
X-4332533Y63167784D01*
X-4300063Y63131723D01*
X-4205871Y63027112D01*
X-4052735Y62915852D01*
X-4052730Y62915849D01*
X-3879808Y62838858D01*
X-3879803Y62838856D01*
X-3694646Y62799500D01*
X-3694645Y62799500D01*
X-3505356Y62799500D01*
X-3505354Y62799500D01*
X-3320197Y62838856D01*
X-3147270Y62915849D01*
X-2994129Y63027112D01*
X-2867467Y63167784D01*
X-2772821Y63331716D01*
X-2718142Y63500000D01*
X3594540Y63500000D01*
X3614326Y63311744D01*
X3614327Y63311741D01*
X3672818Y63131723D01*
X3672821Y63131716D01*
X3767467Y62967784D01*
X3883553Y62838858D01*
X3894129Y62827112D01*
X4047265Y62715852D01*
X4047270Y62715849D01*
X4220192Y62638858D01*
X4220197Y62638856D01*
X4405354Y62599500D01*
X4405355Y62599500D01*
X4594644Y62599500D01*
X4594646Y62599500D01*
X4779803Y62638856D01*
X4952730Y62715849D01*
X5105871Y62827112D01*
X5232533Y62967784D01*
X5327179Y63131716D01*
X5385674Y63311744D01*
X5405460Y63500000D01*
X5385674Y63688256D01*
X5327179Y63868284D01*
X5232533Y64032216D01*
X5105871Y64172888D01*
X5105870Y64172889D01*
X4952734Y64284149D01*
X4952729Y64284152D01*
X4779807Y64361143D01*
X4779802Y64361145D01*
X4634001Y64392135D01*
X4594646Y64400500D01*
X4405354Y64400500D01*
X4372897Y64393602D01*
X4220197Y64361145D01*
X4220192Y64361143D01*
X4047270Y64284152D01*
X4047265Y64284149D01*
X3894129Y64172889D01*
X3767466Y64032215D01*
X3672821Y63868285D01*
X3672818Y63868278D01*
X3618142Y63700000D01*
X3614326Y63688256D01*
X3594540Y63500000D01*
X-2718142Y63500000D01*
X-2714326Y63511744D01*
X-2694540Y63700000D01*
X-2714326Y63888256D01*
X-2772821Y64068284D01*
X-2867467Y64232216D01*
X-2994129Y64372888D01*
X-2994130Y64372889D01*
X-3147266Y64484149D01*
X-3147271Y64484152D01*
X-3320193Y64561143D01*
X-3320198Y64561145D01*
X-3465999Y64592135D01*
X-3505354Y64600500D01*
X-3694646Y64600500D01*
X-3727103Y64593602D01*
X-3879803Y64561145D01*
X-3879808Y64561143D01*
X-4052730Y64484152D01*
X-4052735Y64484149D01*
X-4205871Y64372889D01*
X-4332534Y64232215D01*
X-4427179Y64068285D01*
X-4427182Y64068278D01*
X-4485673Y63888260D01*
X-4485674Y63888256D01*
X-4505460Y63700000D01*
X-5500000Y63700000D01*
X-5500000Y65576000D01*
X-5480315Y65643039D01*
X-5427511Y65688794D01*
X-5376000Y65700000D01*
X0Y65700000D01*
X894540Y65700000D01*
X914326Y65511744D01*
X914327Y65511741D01*
X972818Y65331723D01*
X972821Y65331716D01*
X1067467Y65167784D01*
X1194129Y65027112D01*
X1347265Y64915852D01*
X1347270Y64915849D01*
X1520192Y64838858D01*
X1520197Y64838856D01*
X1705354Y64799500D01*
X1705355Y64799500D01*
X1894644Y64799500D01*
X1894646Y64799500D01*
X2079803Y64838856D01*
X2252730Y64915849D01*
X2405871Y65027112D01*
X2532533Y65167784D01*
X2627179Y65331716D01*
X2685674Y65511744D01*
X2705460Y65700000D01*
X2685674Y65888256D01*
X2627179Y66068284D01*
X2532533Y66232216D01*
X2405871Y66372888D01*
X2405870Y66372889D01*
X2252734Y66484149D01*
X2252729Y66484152D01*
X2079807Y66561143D01*
X2079802Y66561145D01*
X1934001Y66592135D01*
X1894646Y66600500D01*
X1705354Y66600500D01*
X1672897Y66593602D01*
X1520197Y66561145D01*
X1520192Y66561143D01*
X1347270Y66484152D01*
X1347265Y66484149D01*
X1194129Y66372889D01*
X1067466Y66232215D01*
X972821Y66068285D01*
X972818Y66068278D01*
X940166Y65967784D01*
X914326Y65888256D01*
X894540Y65700000D01*
X0Y65700000D01*
X0Y67000000D01*
X5094540Y67000000D01*
X5114326Y66811744D01*
X5114327Y66811741D01*
X5172818Y66631723D01*
X5172821Y66631716D01*
X5267467Y66467784D01*
X5352911Y66372889D01*
X5394129Y66327112D01*
X5547265Y66215852D01*
X5547270Y66215849D01*
X5720192Y66138858D01*
X5720197Y66138856D01*
X5905354Y66099500D01*
X5905355Y66099500D01*
X6094644Y66099500D01*
X6094646Y66099500D01*
X6279803Y66138856D01*
X6452730Y66215849D01*
X6605871Y66327112D01*
X6732533Y66467784D01*
X6751133Y66500000D01*
X13094540Y66500000D01*
X13114326Y66311744D01*
X13114327Y66311741D01*
X13172818Y66131723D01*
X13172821Y66131716D01*
X13267467Y65967784D01*
X13339071Y65888260D01*
X13394129Y65827112D01*
X13547265Y65715852D01*
X13547270Y65715849D01*
X13720192Y65638858D01*
X13720197Y65638856D01*
X13905354Y65599500D01*
X13905355Y65599500D01*
X14094644Y65599500D01*
X14094646Y65599500D01*
X14279803Y65638856D01*
X14452730Y65715849D01*
X14605871Y65827112D01*
X14732533Y65967784D01*
X14827179Y66131716D01*
X14885674Y66311744D01*
X14905460Y66500000D01*
X14885674Y66688256D01*
X14827179Y66868284D01*
X14732533Y67032216D01*
X14605871Y67172888D01*
X14584719Y67188256D01*
X14452734Y67284149D01*
X14452729Y67284152D01*
X14279807Y67361143D01*
X14279802Y67361145D01*
X14134001Y67392135D01*
X14094646Y67400500D01*
X13905354Y67400500D01*
X13872897Y67393602D01*
X13720197Y67361145D01*
X13720192Y67361143D01*
X13547270Y67284152D01*
X13547265Y67284149D01*
X13394129Y67172889D01*
X13267466Y67032215D01*
X13172821Y66868285D01*
X13172818Y66868278D01*
X13114327Y66688260D01*
X13114326Y66688256D01*
X13094540Y66500000D01*
X6751133Y66500000D01*
X6827179Y66631716D01*
X6885674Y66811744D01*
X6905460Y67000000D01*
X6885674Y67188256D01*
X6827179Y67368284D01*
X6732533Y67532216D01*
X6605871Y67672888D01*
X6592292Y67682754D01*
X6452734Y67784149D01*
X6452729Y67784152D01*
X6279807Y67861143D01*
X6279802Y67861145D01*
X6134001Y67892135D01*
X6094646Y67900500D01*
X5905354Y67900500D01*
X5872897Y67893602D01*
X5720197Y67861145D01*
X5720192Y67861143D01*
X5547270Y67784152D01*
X5547265Y67784149D01*
X5394129Y67672889D01*
X5267466Y67532215D01*
X5172821Y67368285D01*
X5172818Y67368278D01*
X5114327Y67188260D01*
X5114326Y67188256D01*
X5094540Y67000000D01*
X0Y67000000D01*
X0Y69106287D01*
X2149500Y69106287D01*
X2149500Y68893714D01*
X2182753Y68683761D01*
X2248444Y68481586D01*
X2344951Y68292180D01*
X2469890Y68120214D01*
X2620213Y67969891D01*
X2792179Y67844952D01*
X2792181Y67844951D01*
X2792184Y67844949D01*
X2981588Y67748443D01*
X3183757Y67682754D01*
X3393713Y67649500D01*
X3393714Y67649500D01*
X3606286Y67649500D01*
X3606287Y67649500D01*
X3816243Y67682754D01*
X4018412Y67748443D01*
X4207816Y67844949D01*
X4284276Y67900500D01*
X4379786Y67969891D01*
X4379788Y67969894D01*
X4379792Y67969896D01*
X4530104Y68120208D01*
X4530106Y68120212D01*
X4530109Y68120214D01*
X4655048Y68292180D01*
X4655047Y68292180D01*
X4655051Y68292184D01*
X4751557Y68481588D01*
X4817246Y68683757D01*
X4850500Y68893713D01*
X4850500Y69106287D01*
X4817246Y69316243D01*
X4751557Y69518412D01*
X4655051Y69707816D01*
X4655049Y69707819D01*
X4655048Y69707821D01*
X4530109Y69879787D01*
X4509896Y69900000D01*
X5494540Y69900000D01*
X5514326Y69711744D01*
X5514327Y69711741D01*
X5572818Y69531723D01*
X5572821Y69531716D01*
X5667467Y69367784D01*
X5713875Y69316243D01*
X5794129Y69227112D01*
X5947265Y69115852D01*
X5947270Y69115849D01*
X6120192Y69038858D01*
X6120197Y69038856D01*
X6305354Y68999500D01*
X6305355Y68999500D01*
X6494644Y68999500D01*
X6494646Y68999500D01*
X6679803Y69038856D01*
X6852730Y69115849D01*
X7005871Y69227112D01*
X7132533Y69367784D01*
X7227179Y69531716D01*
X7285674Y69711744D01*
X7305460Y69900000D01*
X7294950Y70000000D01*
X9344540Y70000000D01*
X9364326Y69811744D01*
X9364327Y69811741D01*
X9422818Y69631723D01*
X9422821Y69631716D01*
X9517467Y69467784D01*
X9607506Y69367786D01*
X9644129Y69327112D01*
X9797265Y69215852D01*
X9797270Y69215849D01*
X9970192Y69138858D01*
X9970197Y69138856D01*
X10155354Y69099500D01*
X10155355Y69099500D01*
X10344644Y69099500D01*
X10344646Y69099500D01*
X10529803Y69138856D01*
X10702730Y69215849D01*
X10855871Y69327112D01*
X10982533Y69467784D01*
X11077179Y69631716D01*
X11135674Y69811744D01*
X11155460Y70000000D01*
X11135674Y70188256D01*
X11077179Y70368284D01*
X10982533Y70532216D01*
X10855871Y70672888D01*
X10840369Y70684151D01*
X10702734Y70784149D01*
X10702729Y70784152D01*
X10529807Y70861143D01*
X10529802Y70861145D01*
X10384001Y70892135D01*
X10344646Y70900500D01*
X10155354Y70900500D01*
X10122897Y70893602D01*
X9970197Y70861145D01*
X9970192Y70861143D01*
X9797270Y70784152D01*
X9797265Y70784149D01*
X9644129Y70672889D01*
X9517466Y70532215D01*
X9422821Y70368285D01*
X9422818Y70368278D01*
X9364327Y70188260D01*
X9364326Y70188256D01*
X9344540Y70000000D01*
X7294950Y70000000D01*
X7285674Y70088256D01*
X7227179Y70268284D01*
X7132533Y70432216D01*
X7005871Y70572888D01*
X7005870Y70572889D01*
X6852734Y70684149D01*
X6852729Y70684152D01*
X6679807Y70761143D01*
X6679802Y70761145D01*
X6534001Y70792135D01*
X6494646Y70800500D01*
X6305354Y70800500D01*
X6272897Y70793602D01*
X6120197Y70761145D01*
X6120192Y70761143D01*
X5947270Y70684152D01*
X5947265Y70684149D01*
X5794129Y70572889D01*
X5667466Y70432215D01*
X5572821Y70268285D01*
X5572818Y70268278D01*
X5536029Y70155051D01*
X5514326Y70088256D01*
X5494540Y69900000D01*
X4509896Y69900000D01*
X4379786Y70030110D01*
X4207820Y70155049D01*
X4018414Y70251556D01*
X4018413Y70251557D01*
X4018412Y70251557D01*
X3816243Y70317246D01*
X3816241Y70317247D01*
X3816240Y70317247D01*
X3654957Y70342792D01*
X3606287Y70350500D01*
X3393713Y70350500D01*
X3345042Y70342792D01*
X3183760Y70317247D01*
X2981585Y70251556D01*
X2792179Y70155049D01*
X2620213Y70030110D01*
X2469890Y69879787D01*
X2344951Y69707821D01*
X2248444Y69518415D01*
X2182753Y69316240D01*
X2149500Y69106287D01*
X0Y69106287D01*
X0Y71376000D01*
X19685Y71443039D01*
X72489Y71488794D01*
X124000Y71500000D01*
X19876000Y71500000D01*
X19943039Y71480315D01*
G37*
%TD.AperFunction*%
%TD*%
M02*
