%TF.GenerationSoftware,KiCad,Pcbnew,8.0.7*%
%TF.CreationDate,2024-12-24T11:10:27-06:00*%
%TF.ProjectId,room_environment_monitor,726f6f6d-5f65-46e7-9669-726f6e6d656e,rev?*%
%TF.SameCoordinates,Original*%
%TF.FileFunction,Copper,L4,Bot*%
%TF.FilePolarity,Positive*%
%FSLAX46Y46*%
G04 Gerber Fmt 4.6, Leading zero omitted, Abs format (unit mm)*
G04 Created by KiCad (PCBNEW 8.0.7) date 2024-12-24 11:10:27*
%MOMM*%
%LPD*%
G01*
G04 APERTURE LIST*
G04 Aperture macros list*
%AMRoundRect*
0 Rectangle with rounded corners*
0 $1 Rounding radius*
0 $2 $3 $4 $5 $6 $7 $8 $9 X,Y pos of 4 corners*
0 Add a 4 corners polygon primitive as box body*
4,1,4,$2,$3,$4,$5,$6,$7,$8,$9,$2,$3,0*
0 Add four circle primitives for the rounded corners*
1,1,$1+$1,$2,$3*
1,1,$1+$1,$4,$5*
1,1,$1+$1,$6,$7*
1,1,$1+$1,$8,$9*
0 Add four rect primitives between the rounded corners*
20,1,$1+$1,$2,$3,$4,$5,0*
20,1,$1+$1,$4,$5,$6,$7,0*
20,1,$1+$1,$6,$7,$8,$9,0*
20,1,$1+$1,$8,$9,$2,$3,0*%
G04 Aperture macros list end*
%TA.AperFunction,ComponentPad*%
%ADD10O,1.066800X1.701800*%
%TD*%
%TA.AperFunction,SMDPad,CuDef*%
%ADD11R,0.850000X1.600000*%
%TD*%
%TA.AperFunction,SMDPad,CuDef*%
%ADD12RoundRect,0.150000X0.625000X-0.150000X0.625000X0.150000X-0.625000X0.150000X-0.625000X-0.150000X0*%
%TD*%
%TA.AperFunction,SMDPad,CuDef*%
%ADD13RoundRect,0.250000X0.650000X-0.350000X0.650000X0.350000X-0.650000X0.350000X-0.650000X-0.350000X0*%
%TD*%
%TA.AperFunction,SMDPad,CuDef*%
%ADD14RoundRect,0.250001X0.462499X0.624999X-0.462499X0.624999X-0.462499X-0.624999X0.462499X-0.624999X0*%
%TD*%
%TA.AperFunction,ViaPad*%
%ADD15C,0.800000*%
%TD*%
%TA.AperFunction,ViaPad*%
%ADD16C,1.200000*%
%TD*%
%TA.AperFunction,ViaPad*%
%ADD17C,0.600000*%
%TD*%
%TA.AperFunction,Conductor*%
%ADD18C,0.200000*%
%TD*%
%TA.AperFunction,Conductor*%
%ADD19C,0.400000*%
%TD*%
%TA.AperFunction,Conductor*%
%ADD20C,0.250000*%
%TD*%
G04 APERTURE END LIST*
D10*
%TO.P,P1,S1,SHIELD*%
%TO.N,GND*%
X14269999Y-1400003D03*
X5730001Y-1400003D03*
%TD*%
D11*
%TO.P,D4,1,DOUT*%
%TO.N,Net-(D4-DOUT)*%
X10875000Y43600000D03*
%TO.P,D4,2,VSS*%
%TO.N,GND*%
X9125000Y43600000D03*
%TO.P,D4,3,DIN*%
%TO.N,Net-(D3-DOUT)*%
X9125000Y47100000D03*
%TO.P,D4,4,VDD*%
%TO.N,+5V*%
X10875000Y47100000D03*
%TD*%
D12*
%TO.P,J3,1,Pin_1*%
%TO.N,+5V*%
X250000Y54100000D03*
%TO.P,J3,2,Pin_2*%
%TO.N,GND*%
X250000Y55100000D03*
%TO.P,J3,3,Pin_3*%
%TO.N,EN*%
X250000Y56100000D03*
%TO.P,J3,4,Pin_4*%
%TO.N,BOOT*%
X250000Y57100000D03*
%TO.P,J3,5,Pin_5*%
%TO.N,Net-(J3-Pin_5)*%
X250000Y58100000D03*
%TO.P,J3,6,Pin_6*%
%TO.N,Net-(J3-Pin_6)*%
X250000Y59100000D03*
D13*
%TO.P,J3,MP*%
%TO.N,N/C*%
X-3625000Y52800000D03*
X-3625000Y60400000D03*
%TD*%
D11*
%TO.P,D3,1,DOUT*%
%TO.N,Net-(D3-DOUT)*%
X10875000Y55400000D03*
%TO.P,D3,2,VSS*%
%TO.N,GND*%
X9125000Y55400000D03*
%TO.P,D3,3,DIN*%
%TO.N,NEOPIXEL*%
X9125000Y58900000D03*
%TO.P,D3,4,VDD*%
%TO.N,+5V*%
X10875000Y58900000D03*
%TD*%
%TO.P,D5,1,DOUT*%
%TO.N,unconnected-(D5-DOUT-Pad1)*%
X10875000Y31850000D03*
%TO.P,D5,2,VSS*%
%TO.N,GND*%
X9125000Y31850000D03*
%TO.P,D5,3,DIN*%
%TO.N,Net-(D4-DOUT)*%
X9125000Y35350000D03*
%TO.P,D5,4,VDD*%
%TO.N,+5V*%
X10875000Y35350000D03*
%TD*%
D14*
%TO.P,D6,1,K*%
%TO.N,+3V3*%
X11500000Y65450000D03*
%TO.P,D6,2,A*%
%TO.N,PD*%
X8525000Y65450000D03*
%TD*%
D15*
%TO.N,EN*%
X1600000Y51900000D03*
%TO.N,GND*%
X3575000Y7125000D03*
X-4500000Y45700000D03*
X-2575000Y45750000D03*
X7600000Y45600000D03*
D16*
X17000000Y57500000D03*
D15*
X9325000Y9875000D03*
X10575000Y8375000D03*
X6400000Y69900000D03*
X-2000000Y56500000D03*
X6000000Y3750000D03*
X13200000Y44600000D03*
X4500000Y63500000D03*
X7600000Y55700000D03*
X-2000000Y58500000D03*
X6000000Y2000000D03*
X15300000Y48600000D03*
X9550001Y49443800D03*
D16*
X20700000Y46200000D03*
D15*
X2000000Y56500000D03*
X9200000Y42200000D03*
X14250000Y3750000D03*
X5985081Y47695381D03*
X-2000000Y54700000D03*
X13000000Y3000000D03*
X14700000Y51900000D03*
X9200000Y30400000D03*
X13580000Y7130000D03*
X14250000Y2000000D03*
X7000000Y3000000D03*
X-825000Y45750000D03*
X12100000Y56400000D03*
%TO.N,BOOT*%
X4000000Y60500000D03*
%TO.N,+3V3*%
X11800000Y45100000D03*
X17000000Y44600000D03*
X12600000Y63925000D03*
X6400000Y65700000D03*
X8100000Y52300000D03*
X5075000Y11375000D03*
X13964711Y50443781D03*
X13020000Y65450000D03*
X7815962Y69826194D03*
X-4462299Y49437701D03*
X13200000Y46800000D03*
X5075000Y10375000D03*
X6325000Y11375000D03*
D17*
X10600000Y60900000D03*
D15*
X-2250000Y51750000D03*
X3600000Y65700000D03*
X17650000Y45437500D03*
X6000000Y45750000D03*
%TO.N,+5V*%
X10250000Y70000000D03*
D16*
X17000000Y59000000D03*
D15*
X9500000Y2000000D03*
X11500000Y2950000D03*
X9500000Y3750000D03*
X24300000Y52500000D03*
X11500000Y1500000D03*
%TO.N,NEOPIXEL*%
X10657911Y62763492D03*
X3250000Y61250000D03*
D17*
%TO.N,UART1_RX*%
X7400000Y61200000D03*
X5900000Y56600000D03*
%TO.N,FAN*%
X11200000Y53900000D03*
X20600000Y50100000D03*
%TO.N,UART1_TX_LVL*%
X7100000Y62400000D03*
X5900000Y57600000D03*
D15*
%TO.N,I2C_SDA*%
X12300000Y52700000D03*
X14949051Y47664137D03*
%TO.N,Net-(P1-VCONN)*%
X12120000Y4750000D03*
X9500000Y700000D03*
%TO.N,Net-(J3-Pin_5)*%
X1800000Y65700000D03*
%TO.N,Net-(J3-Pin_6)*%
X-3600000Y63700000D03*
%TO.N,Net-(J2-Pin_2)*%
X17000000Y60500000D03*
X14000000Y66500000D03*
%TO.N,PD*%
X6000000Y67000000D03*
X0Y49750000D03*
%TD*%
D18*
%TO.N,EN*%
X1600000Y55161396D02*
X1600000Y51900000D01*
X661396Y56100000D02*
X1600000Y55161396D01*
%TO.N,GND*%
X9200000Y42200000D02*
X9200000Y43525000D01*
X7800000Y55500000D02*
X7600000Y55700000D01*
D19*
X9125000Y32000000D02*
X9125000Y30625000D01*
X9125000Y30625000D02*
X9250000Y30500000D01*
D18*
X9125000Y55500000D02*
X7800000Y55500000D01*
X250000Y55100000D02*
X-1600000Y55100000D01*
X-1600000Y55100000D02*
X-2000000Y54700000D01*
%TO.N,BOOT*%
X4000000Y60438604D02*
X4000000Y60500000D01*
X661396Y57100000D02*
X4000000Y60438604D01*
%TO.N,+3V3*%
X11500000Y65450000D02*
X13020000Y65450000D01*
%TO.N,Net-(D3-DOUT)*%
X10600000Y48575000D02*
X10600000Y55125000D01*
X9125000Y47100000D02*
X10600000Y48575000D01*
%TO.N,NEOPIXEL*%
X3250000Y61250000D02*
X5000000Y63000000D01*
X11600000Y57900000D02*
X11450000Y57750000D01*
X11450000Y57750000D02*
X10375000Y57750000D01*
X10750000Y63000000D02*
X11600000Y62150000D01*
X11600000Y62150000D02*
X11600000Y57900000D01*
X5000000Y63000000D02*
X10750000Y63000000D01*
X10375000Y57750000D02*
X9125000Y59000000D01*
%TO.N,Net-(D4-DOUT)*%
X10875000Y43750000D02*
X10875000Y39775000D01*
X10875000Y39775000D02*
X9125000Y38025000D01*
X9125000Y38025000D02*
X9125000Y35500000D01*
%TO.N,UART1_RX*%
X6900000Y57600000D02*
X5900000Y56600000D01*
X6900000Y60700000D02*
X6900000Y57600000D01*
X7400000Y61200000D02*
X6900000Y60700000D01*
%TO.N,FAN*%
X16800000Y53900000D02*
X20600000Y50100000D01*
X11200000Y53900000D02*
X16800000Y53900000D01*
%TO.N,UART1_TX_LVL*%
X6200000Y61500000D02*
X7100000Y62400000D01*
X5900000Y57600000D02*
X6200000Y57900000D01*
X6200000Y57900000D02*
X6200000Y61500000D01*
%TO.N,I2C_SDA*%
X12300000Y50313188D02*
X12300000Y52700000D01*
X14949051Y47664137D02*
X12300000Y50313188D01*
%TO.N,Net-(P1-VCONN)*%
X9500000Y700000D02*
X9500000Y989950D01*
X10500000Y1989950D02*
X10500000Y4330000D01*
X9500000Y989950D02*
X10500000Y1989950D01*
X12120000Y4750000D02*
X10920000Y4750000D01*
X10500000Y4330000D02*
X10920000Y4750000D01*
%TO.N,Net-(J3-Pin_5)*%
X1800000Y65700000D02*
X1800000Y59238604D01*
X1800000Y59238604D02*
X661396Y58100000D01*
%TO.N,Net-(J3-Pin_6)*%
X-3600000Y63700000D02*
X-2380664Y63700000D01*
X250000Y61069336D02*
X250000Y59100000D01*
X-2380664Y63700000D02*
X250000Y61069336D01*
%TO.N,Net-(J2-Pin_2)*%
X17000000Y60500000D02*
X17000000Y63500000D01*
X17000000Y63500000D02*
X14000000Y66500000D01*
D20*
%TO.N,PD*%
X-5000000Y51000000D02*
X-5000000Y63750000D01*
X750000Y66500000D02*
X1250000Y67000000D01*
X750000Y65500000D02*
X750000Y66500000D01*
X-3750000Y49750000D02*
X-5000000Y51000000D01*
X-4000000Y64750000D02*
X0Y64750000D01*
X-5000000Y63750000D02*
X-4000000Y64750000D01*
X7275000Y67000000D02*
X8525000Y65750000D01*
X6000000Y67000000D02*
X7275000Y67000000D01*
X1250000Y67000000D02*
X6000000Y67000000D01*
X0Y64750000D02*
X750000Y65500000D01*
X0Y49750000D02*
X-3750000Y49750000D01*
%TD*%
%TA.AperFunction,Conductor*%
%TO.N,+5V*%
G36*
X19943039Y71480315D02*
G01*
X19988794Y71427511D01*
X20000000Y71376000D01*
X20000000Y56250000D01*
X29876000Y56250000D01*
X29943039Y56230315D01*
X29988794Y56177511D01*
X30000000Y56126000D01*
X30000000Y43874000D01*
X29980315Y43806961D01*
X29927511Y43761206D01*
X29876000Y43750000D01*
X20000000Y43750000D01*
X20000000Y124000D01*
X19980315Y56961D01*
X19927511Y11206D01*
X19876000Y0D01*
X16700000Y0D01*
X16700000Y-2876000D01*
X16680315Y-2943039D01*
X16627511Y-2988794D01*
X16576000Y-3000000D01*
X3424000Y-3000000D01*
X3356961Y-2980315D01*
X3311206Y-2927511D01*
X3300000Y-2876000D01*
X3300000Y-1005291D01*
X4946101Y-1005291D01*
X4946101Y-1794714D01*
X4976224Y-1946150D01*
X4976227Y-1946162D01*
X5035314Y-2088812D01*
X5035321Y-2088825D01*
X5121105Y-2217209D01*
X5121108Y-2217213D01*
X5230290Y-2326395D01*
X5230294Y-2326398D01*
X5358678Y-2412182D01*
X5358691Y-2412189D01*
X5501341Y-2471276D01*
X5501346Y-2471278D01*
X5652789Y-2501402D01*
X5652792Y-2501403D01*
X5652794Y-2501403D01*
X5807210Y-2501403D01*
X5807211Y-2501402D01*
X5958656Y-2471278D01*
X6101317Y-2412186D01*
X6229708Y-2326398D01*
X6338896Y-2217210D01*
X6424684Y-2088819D01*
X6483776Y-1946158D01*
X6513901Y-1794710D01*
X6513901Y-1005296D01*
X6513901Y-1005293D01*
X6513900Y-1005291D01*
X13486099Y-1005291D01*
X13486099Y-1794714D01*
X13516222Y-1946150D01*
X13516225Y-1946162D01*
X13575312Y-2088812D01*
X13575319Y-2088825D01*
X13661103Y-2217209D01*
X13661106Y-2217213D01*
X13770288Y-2326395D01*
X13770292Y-2326398D01*
X13898676Y-2412182D01*
X13898689Y-2412189D01*
X14041339Y-2471276D01*
X14041344Y-2471278D01*
X14192787Y-2501402D01*
X14192790Y-2501403D01*
X14192792Y-2501403D01*
X14347208Y-2501403D01*
X14347209Y-2501402D01*
X14498654Y-2471278D01*
X14641315Y-2412186D01*
X14769706Y-2326398D01*
X14878894Y-2217210D01*
X14964682Y-2088819D01*
X15023774Y-1946158D01*
X15053899Y-1794710D01*
X15053899Y-1005296D01*
X15053899Y-1005293D01*
X15053898Y-1005291D01*
X15023775Y-853855D01*
X15023774Y-853848D01*
X15023772Y-853843D01*
X14964685Y-711193D01*
X14964678Y-711180D01*
X14878894Y-582796D01*
X14878891Y-582792D01*
X14769709Y-473610D01*
X14769705Y-473607D01*
X14641321Y-387823D01*
X14641308Y-387816D01*
X14498658Y-328729D01*
X14498646Y-328726D01*
X14347209Y-298603D01*
X14347206Y-298603D01*
X14192792Y-298603D01*
X14192789Y-298603D01*
X14041351Y-328726D01*
X14041339Y-328729D01*
X13898689Y-387816D01*
X13898676Y-387823D01*
X13770292Y-473607D01*
X13770288Y-473610D01*
X13661106Y-582792D01*
X13661103Y-582796D01*
X13575319Y-711180D01*
X13575312Y-711193D01*
X13516225Y-853843D01*
X13516222Y-853855D01*
X13486099Y-1005291D01*
X6513900Y-1005291D01*
X6483777Y-853855D01*
X6483776Y-853848D01*
X6483774Y-853843D01*
X6424687Y-711193D01*
X6424680Y-711180D01*
X6338896Y-582796D01*
X6338893Y-582792D01*
X6229711Y-473610D01*
X6229707Y-473607D01*
X6101323Y-387823D01*
X6101310Y-387816D01*
X5958660Y-328729D01*
X5958648Y-328726D01*
X5807211Y-298603D01*
X5807208Y-298603D01*
X5652794Y-298603D01*
X5652791Y-298603D01*
X5501353Y-328726D01*
X5501341Y-328729D01*
X5358691Y-387816D01*
X5358678Y-387823D01*
X5230294Y-473607D01*
X5230290Y-473610D01*
X5121108Y-582792D01*
X5121105Y-582796D01*
X5035321Y-711180D01*
X5035314Y-711193D01*
X4976227Y-853843D01*
X4976224Y-853855D01*
X4946101Y-1005291D01*
X3300000Y-1005291D01*
X3300000Y0D01*
X124000Y0D01*
X56961Y19685D01*
X11206Y72489D01*
X0Y124000D01*
X0Y700001D01*
X8844722Y700001D01*
X8844722Y700000D01*
X8863762Y543182D01*
X8919780Y395477D01*
X9009517Y265470D01*
X9127760Y160717D01*
X9127762Y160716D01*
X9267634Y87304D01*
X9421014Y49500D01*
X9421015Y49500D01*
X9578985Y49500D01*
X9732365Y87304D01*
X9802282Y124000D01*
X9872240Y160717D01*
X9990483Y265470D01*
X10080220Y395477D01*
X10136237Y543182D01*
X10155278Y700000D01*
X10136237Y856818D01*
X10089409Y980292D01*
X10084043Y1049951D01*
X10117190Y1111458D01*
X10117408Y1111678D01*
X10780470Y1774738D01*
X10826614Y1854662D01*
X10850500Y1943807D01*
X10850500Y2000001D01*
X13594722Y2000001D01*
X13594722Y2000000D01*
X13613762Y1843182D01*
X13669780Y1695477D01*
X13759517Y1565470D01*
X13877760Y1460717D01*
X13877762Y1460716D01*
X14017634Y1387304D01*
X14171014Y1349500D01*
X14171015Y1349500D01*
X14328985Y1349500D01*
X14482365Y1387304D01*
X14622240Y1460717D01*
X14740483Y1565470D01*
X14830220Y1695477D01*
X14886237Y1843182D01*
X14905278Y2000000D01*
X14900896Y2036094D01*
X14886237Y2156819D01*
X14864992Y2212836D01*
X14830220Y2304523D01*
X14740483Y2434530D01*
X14622240Y2539283D01*
X14622238Y2539284D01*
X14622237Y2539285D01*
X14482365Y2612697D01*
X14328986Y2650500D01*
X14328985Y2650500D01*
X14171015Y2650500D01*
X14171014Y2650500D01*
X14017634Y2612697D01*
X13877762Y2539285D01*
X13759516Y2434529D01*
X13669781Y2304525D01*
X13669780Y2304524D01*
X13613762Y2156819D01*
X13594722Y2000001D01*
X10850500Y2000001D01*
X10850500Y2036094D01*
X10850500Y3000001D01*
X12344722Y3000001D01*
X12344722Y3000000D01*
X12363762Y2843182D01*
X12390233Y2773385D01*
X12419780Y2695477D01*
X12509517Y2565470D01*
X12627760Y2460717D01*
X12627762Y2460716D01*
X12767634Y2387304D01*
X12921014Y2349500D01*
X12921015Y2349500D01*
X13078985Y2349500D01*
X13232365Y2387304D01*
X13240562Y2391606D01*
X13372240Y2460717D01*
X13490483Y2565470D01*
X13580220Y2695477D01*
X13636237Y2843182D01*
X13643899Y2906287D01*
X16149500Y2906287D01*
X16149500Y2693714D01*
X16169811Y2565472D01*
X16182754Y2483757D01*
X16240990Y2304525D01*
X16248444Y2281586D01*
X16344951Y2092180D01*
X16469890Y1920214D01*
X16620213Y1769891D01*
X16792179Y1644952D01*
X16792181Y1644951D01*
X16792184Y1644949D01*
X16981588Y1548443D01*
X17183757Y1482754D01*
X17393713Y1449500D01*
X17393714Y1449500D01*
X17606286Y1449500D01*
X17606287Y1449500D01*
X17816243Y1482754D01*
X18018412Y1548443D01*
X18207816Y1644949D01*
X18277361Y1695476D01*
X18379786Y1769891D01*
X18379788Y1769894D01*
X18379792Y1769896D01*
X18530104Y1920208D01*
X18530106Y1920212D01*
X18530109Y1920214D01*
X18655048Y2092180D01*
X18655047Y2092180D01*
X18655051Y2092184D01*
X18751557Y2281588D01*
X18817246Y2483757D01*
X18850500Y2693713D01*
X18850500Y2906287D01*
X18817246Y3116243D01*
X18751557Y3318412D01*
X18655051Y3507816D01*
X18655049Y3507819D01*
X18655048Y3507821D01*
X18530109Y3679787D01*
X18379786Y3830110D01*
X18207820Y3955049D01*
X18018414Y4051556D01*
X18018413Y4051557D01*
X18018412Y4051557D01*
X17816243Y4117246D01*
X17816241Y4117247D01*
X17816240Y4117247D01*
X17654957Y4142792D01*
X17606287Y4150500D01*
X17393713Y4150500D01*
X17345042Y4142792D01*
X17183760Y4117247D01*
X17183757Y4117246D01*
X16990720Y4054524D01*
X16981585Y4051556D01*
X16792179Y3955049D01*
X16620213Y3830110D01*
X16469890Y3679787D01*
X16344951Y3507821D01*
X16248444Y3318415D01*
X16248443Y3318413D01*
X16248443Y3318412D01*
X16243930Y3304523D01*
X16182753Y3116240D01*
X16149500Y2906287D01*
X13643899Y2906287D01*
X13655278Y3000000D01*
X13652975Y3018963D01*
X13639202Y3132399D01*
X13650662Y3201322D01*
X13697566Y3253108D01*
X13765022Y3271315D01*
X13831613Y3250163D01*
X13844518Y3240166D01*
X13869452Y3218077D01*
X13877762Y3210715D01*
X14017634Y3137304D01*
X14171014Y3099500D01*
X14171015Y3099500D01*
X14328985Y3099500D01*
X14482365Y3137304D01*
X14519547Y3156819D01*
X14622240Y3210717D01*
X14740483Y3315470D01*
X14830220Y3445477D01*
X14886237Y3593182D01*
X14905278Y3750000D01*
X14886237Y3906818D01*
X14830220Y4054523D01*
X14740483Y4184530D01*
X14622240Y4289283D01*
X14622238Y4289284D01*
X14622237Y4289285D01*
X14482365Y4362697D01*
X14328986Y4400500D01*
X14328985Y4400500D01*
X14171015Y4400500D01*
X14171014Y4400500D01*
X14017634Y4362697D01*
X13877762Y4289285D01*
X13759516Y4184529D01*
X13669781Y4054525D01*
X13669780Y4054524D01*
X13613762Y3906819D01*
X13594722Y3750001D01*
X13594722Y3750000D01*
X13610797Y3617602D01*
X13599336Y3548678D01*
X13552432Y3496893D01*
X13484976Y3478686D01*
X13418385Y3499839D01*
X13405479Y3509837D01*
X13372240Y3539283D01*
X13372237Y3539286D01*
X13232365Y3612697D01*
X13078986Y3650500D01*
X13078985Y3650500D01*
X12921015Y3650500D01*
X12921014Y3650500D01*
X12767634Y3612697D01*
X12627762Y3539285D01*
X12509516Y3434529D01*
X12419781Y3304525D01*
X12419780Y3304524D01*
X12363762Y3156819D01*
X12344722Y3000001D01*
X10850500Y3000001D01*
X10850500Y4133456D01*
X10870185Y4200495D01*
X10886819Y4221137D01*
X11028863Y4363181D01*
X11090186Y4396666D01*
X11116544Y4399500D01*
X11506436Y4399500D01*
X11573475Y4379815D01*
X11608487Y4345938D01*
X11629515Y4315472D01*
X11629516Y4315471D01*
X11629517Y4315470D01*
X11747760Y4210717D01*
X11747762Y4210716D01*
X11887634Y4137304D01*
X12041014Y4099500D01*
X12041015Y4099500D01*
X12198985Y4099500D01*
X12352365Y4137304D01*
X12492240Y4210717D01*
X12610483Y4315470D01*
X12700220Y4445477D01*
X12756237Y4593182D01*
X12775278Y4750000D01*
X12756237Y4906818D01*
X12700220Y5054523D01*
X12610483Y5184530D01*
X12492240Y5289283D01*
X12492238Y5289284D01*
X12492237Y5289285D01*
X12352365Y5362697D01*
X12198986Y5400500D01*
X12198985Y5400500D01*
X12041015Y5400500D01*
X12041014Y5400500D01*
X11887634Y5362697D01*
X11747762Y5289285D01*
X11629515Y5184529D01*
X11608487Y5154062D01*
X11554205Y5110070D01*
X11506436Y5100500D01*
X10873856Y5100500D01*
X10784712Y5076614D01*
X10784709Y5076613D01*
X10704791Y5030473D01*
X10704786Y5030469D01*
X10219531Y4545214D01*
X10219529Y4545211D01*
X10195701Y4503938D01*
X10195700Y4503937D01*
X10173387Y4465291D01*
X10173386Y4465288D01*
X10149500Y4376144D01*
X10149500Y2186495D01*
X10129815Y2119456D01*
X10113181Y2098814D01*
X9370945Y1356579D01*
X9312940Y1323863D01*
X9267632Y1312696D01*
X9127762Y1239285D01*
X9009516Y1134529D01*
X8919781Y1004525D01*
X8919780Y1004524D01*
X8863762Y856819D01*
X8844722Y700001D01*
X0Y700001D01*
X0Y2906287D01*
X1149500Y2906287D01*
X1149500Y2693714D01*
X1169811Y2565472D01*
X1182754Y2483757D01*
X1240990Y2304525D01*
X1248444Y2281586D01*
X1344951Y2092180D01*
X1469890Y1920214D01*
X1620213Y1769891D01*
X1792179Y1644952D01*
X1792181Y1644951D01*
X1792184Y1644949D01*
X1981588Y1548443D01*
X2183757Y1482754D01*
X2393713Y1449500D01*
X2393714Y1449500D01*
X2606286Y1449500D01*
X2606287Y1449500D01*
X2816243Y1482754D01*
X3018412Y1548443D01*
X3207816Y1644949D01*
X3277361Y1695476D01*
X3379786Y1769891D01*
X3379788Y1769894D01*
X3379792Y1769896D01*
X3530104Y1920208D01*
X3530106Y1920212D01*
X3530109Y1920214D01*
X3655048Y2092180D01*
X3655047Y2092180D01*
X3655051Y2092184D01*
X3751557Y2281588D01*
X3817246Y2483757D01*
X3850500Y2693713D01*
X3850500Y2906287D01*
X3817246Y3116243D01*
X3751557Y3318412D01*
X3655051Y3507816D01*
X3655049Y3507819D01*
X3655048Y3507821D01*
X3530109Y3679787D01*
X3459895Y3750001D01*
X5344722Y3750001D01*
X5344722Y3750000D01*
X5363762Y3593182D01*
X5419780Y3445477D01*
X5509517Y3315470D01*
X5627760Y3210717D01*
X5627762Y3210716D01*
X5767634Y3137304D01*
X5921014Y3099500D01*
X5921015Y3099500D01*
X6078985Y3099500D01*
X6191049Y3127121D01*
X6260849Y3124052D01*
X6317911Y3083732D01*
X6344117Y3018963D01*
X6344722Y3006724D01*
X6344722Y3000000D01*
X6363763Y2843182D01*
X6390233Y2773385D01*
X6395600Y2703722D01*
X6362452Y2642215D01*
X6301314Y2608394D01*
X6240028Y2612440D01*
X6239649Y2610901D01*
X6078986Y2650500D01*
X6078985Y2650500D01*
X5921015Y2650500D01*
X5921014Y2650500D01*
X5767634Y2612697D01*
X5627762Y2539285D01*
X5509516Y2434529D01*
X5419781Y2304525D01*
X5419780Y2304524D01*
X5363762Y2156819D01*
X5344722Y2000001D01*
X5344722Y2000000D01*
X5363762Y1843182D01*
X5419780Y1695477D01*
X5509517Y1565470D01*
X5627760Y1460717D01*
X5627762Y1460716D01*
X5767634Y1387304D01*
X5921014Y1349500D01*
X5921015Y1349500D01*
X6078985Y1349500D01*
X6232365Y1387304D01*
X6372240Y1460717D01*
X6490483Y1565470D01*
X6580220Y1695477D01*
X6636237Y1843182D01*
X6655278Y2000000D01*
X6650895Y2036094D01*
X6636237Y2156818D01*
X6624982Y2186495D01*
X6609765Y2226617D01*
X6604399Y2296279D01*
X6637546Y2357785D01*
X6698684Y2391606D01*
X6759972Y2387562D01*
X6760351Y2389099D01*
X6921014Y2349500D01*
X6921015Y2349500D01*
X7078985Y2349500D01*
X7232365Y2387304D01*
X7240562Y2391606D01*
X7372240Y2460717D01*
X7490483Y2565470D01*
X7580220Y2695477D01*
X7636237Y2843182D01*
X7655278Y3000000D01*
X7652976Y3018963D01*
X7636237Y3156819D01*
X7592814Y3271315D01*
X7580220Y3304523D01*
X7490483Y3434530D01*
X7372240Y3539283D01*
X7372238Y3539284D01*
X7372237Y3539285D01*
X7232365Y3612697D01*
X7078986Y3650500D01*
X7078985Y3650500D01*
X6921015Y3650500D01*
X6921014Y3650500D01*
X6808952Y3622880D01*
X6739150Y3625949D01*
X6682088Y3666270D01*
X6655883Y3731039D01*
X6655278Y3743277D01*
X6655278Y3750001D01*
X6636237Y3906819D01*
X6581345Y4051556D01*
X6580220Y4054523D01*
X6490483Y4184530D01*
X6372240Y4289283D01*
X6372238Y4289284D01*
X6372237Y4289285D01*
X6232365Y4362697D01*
X6078986Y4400500D01*
X6078985Y4400500D01*
X5921015Y4400500D01*
X5921014Y4400500D01*
X5767634Y4362697D01*
X5627762Y4289285D01*
X5509516Y4184529D01*
X5419781Y4054525D01*
X5419780Y4054524D01*
X5363762Y3906819D01*
X5344722Y3750001D01*
X3459895Y3750001D01*
X3379786Y3830110D01*
X3207820Y3955049D01*
X3018414Y4051556D01*
X3018413Y4051557D01*
X3018412Y4051557D01*
X2816243Y4117246D01*
X2816241Y4117247D01*
X2816240Y4117247D01*
X2654957Y4142792D01*
X2606287Y4150500D01*
X2393713Y4150500D01*
X2345042Y4142792D01*
X2183760Y4117247D01*
X2183757Y4117246D01*
X1990720Y4054524D01*
X1981585Y4051556D01*
X1792179Y3955049D01*
X1620213Y3830110D01*
X1469890Y3679787D01*
X1344951Y3507821D01*
X1248444Y3318415D01*
X1248443Y3318413D01*
X1248443Y3318412D01*
X1243930Y3304523D01*
X1182753Y3116240D01*
X1149500Y2906287D01*
X0Y2906287D01*
X0Y7125001D01*
X2919722Y7125001D01*
X2919722Y7125000D01*
X2938762Y6968182D01*
X2992884Y6825477D01*
X2994780Y6820477D01*
X3084517Y6690470D01*
X3202760Y6585717D01*
X3202762Y6585716D01*
X3342634Y6512304D01*
X3496014Y6474500D01*
X3496015Y6474500D01*
X3653985Y6474500D01*
X3807365Y6512304D01*
X3816892Y6517304D01*
X3947240Y6585717D01*
X4065483Y6690470D01*
X4155220Y6820477D01*
X4211237Y6968182D01*
X4230278Y7125000D01*
X4229671Y7130001D01*
X12924722Y7130001D01*
X12924722Y7130000D01*
X12943762Y6973182D01*
X12999780Y6825477D01*
X13089517Y6695470D01*
X13207760Y6590717D01*
X13219860Y6584367D01*
X13347634Y6517304D01*
X13501014Y6479500D01*
X13501015Y6479500D01*
X13658985Y6479500D01*
X13812365Y6517304D01*
X13952240Y6590717D01*
X14070483Y6695470D01*
X14160220Y6825477D01*
X14216237Y6973182D01*
X14235278Y7130000D01*
X14216237Y7286818D01*
X14160220Y7434523D01*
X14070483Y7564530D01*
X13952240Y7669283D01*
X13952238Y7669284D01*
X13952237Y7669285D01*
X13812365Y7742697D01*
X13658986Y7780500D01*
X13658985Y7780500D01*
X13501015Y7780500D01*
X13501014Y7780500D01*
X13347634Y7742697D01*
X13207762Y7669285D01*
X13089516Y7564529D01*
X12999781Y7434525D01*
X12999780Y7434524D01*
X12943762Y7286819D01*
X12924722Y7130001D01*
X4229671Y7130001D01*
X4211237Y7281818D01*
X4209340Y7286819D01*
X4189992Y7337836D01*
X4155220Y7429523D01*
X4065483Y7559530D01*
X3947240Y7664283D01*
X3947238Y7664284D01*
X3947237Y7664285D01*
X3807365Y7737697D01*
X3653986Y7775500D01*
X3653985Y7775500D01*
X3496015Y7775500D01*
X3496014Y7775500D01*
X3342634Y7737697D01*
X3202762Y7664285D01*
X3084516Y7559529D01*
X2994781Y7429525D01*
X2994780Y7429524D01*
X2938762Y7281819D01*
X2919722Y7125001D01*
X0Y7125001D01*
X0Y8375001D01*
X9919722Y8375001D01*
X9919722Y8375000D01*
X9938762Y8218182D01*
X9994780Y8070477D01*
X10084517Y7940470D01*
X10202760Y7835717D01*
X10202762Y7835716D01*
X10342634Y7762304D01*
X10496014Y7724500D01*
X10496015Y7724500D01*
X10653985Y7724500D01*
X10807365Y7762304D01*
X10947240Y7835717D01*
X11065483Y7940470D01*
X11155220Y8070477D01*
X11211237Y8218182D01*
X11230278Y8375000D01*
X11211237Y8531818D01*
X11155220Y8679523D01*
X11065483Y8809530D01*
X10947240Y8914283D01*
X10947238Y8914284D01*
X10947237Y8914285D01*
X10807365Y8987697D01*
X10653986Y9025500D01*
X10653985Y9025500D01*
X10496015Y9025500D01*
X10496014Y9025500D01*
X10342634Y8987697D01*
X10202762Y8914285D01*
X10084516Y8809529D01*
X9994781Y8679525D01*
X9994780Y8679524D01*
X9938762Y8531819D01*
X9919722Y8375001D01*
X0Y8375001D01*
X0Y11375001D01*
X4419722Y11375001D01*
X4419722Y11375000D01*
X4438762Y11218182D01*
X4494780Y11070477D01*
X4494781Y11070476D01*
X4581086Y10945440D01*
X4602969Y10879085D01*
X4585503Y10811434D01*
X4581086Y10804560D01*
X4494781Y10679525D01*
X4494780Y10679524D01*
X4438762Y10531819D01*
X4419722Y10375001D01*
X4419722Y10375000D01*
X4438762Y10218182D01*
X4453424Y10179523D01*
X4494780Y10070477D01*
X4584517Y9940470D01*
X4702760Y9835717D01*
X4702762Y9835716D01*
X4842634Y9762304D01*
X4996014Y9724500D01*
X4996015Y9724500D01*
X5153985Y9724500D01*
X5307365Y9762304D01*
X5447240Y9835717D01*
X5491583Y9875001D01*
X8669722Y9875001D01*
X8669722Y9875000D01*
X8688762Y9718182D01*
X8744780Y9570477D01*
X8834517Y9440470D01*
X8952760Y9335717D01*
X8952762Y9335716D01*
X9092634Y9262304D01*
X9246014Y9224500D01*
X9246015Y9224500D01*
X9403985Y9224500D01*
X9557365Y9262304D01*
X9697240Y9335717D01*
X9815483Y9440470D01*
X9905220Y9570477D01*
X9961237Y9718182D01*
X9980278Y9875000D01*
X9961237Y10031818D01*
X9905220Y10179523D01*
X9815483Y10309530D01*
X9697240Y10414283D01*
X9697238Y10414284D01*
X9697237Y10414285D01*
X9557365Y10487697D01*
X9403986Y10525500D01*
X9403985Y10525500D01*
X9246015Y10525500D01*
X9246014Y10525500D01*
X9092634Y10487697D01*
X8952762Y10414285D01*
X8834516Y10309529D01*
X8744781Y10179525D01*
X8744780Y10179524D01*
X8688762Y10031819D01*
X8669722Y9875001D01*
X5491583Y9875001D01*
X5565483Y9940470D01*
X5655220Y10070477D01*
X5711237Y10218182D01*
X5730278Y10375000D01*
X5711237Y10531818D01*
X5655220Y10679523D01*
X5568912Y10804562D01*
X5547030Y10870914D01*
X5564495Y10938566D01*
X5568905Y10945429D01*
X5597950Y10987508D01*
X5652233Y11031498D01*
X5721682Y11039157D01*
X5784247Y11008053D01*
X5802049Y10987508D01*
X5834517Y10940470D01*
X5952760Y10835717D01*
X5952762Y10835716D01*
X6092634Y10762304D01*
X6246014Y10724500D01*
X6246015Y10724500D01*
X6403985Y10724500D01*
X6557365Y10762304D01*
X6697240Y10835717D01*
X6815483Y10940470D01*
X6905220Y11070477D01*
X6961237Y11218182D01*
X6980278Y11375000D01*
X6961237Y11531818D01*
X6905220Y11679523D01*
X6815483Y11809530D01*
X6697240Y11914283D01*
X6697238Y11914284D01*
X6697237Y11914285D01*
X6557365Y11987697D01*
X6403986Y12025500D01*
X6403985Y12025500D01*
X6246015Y12025500D01*
X6246014Y12025500D01*
X6092634Y11987697D01*
X5952762Y11914285D01*
X5834517Y11809531D01*
X5802050Y11762493D01*
X5747766Y11718503D01*
X5678318Y11710844D01*
X5615753Y11741948D01*
X5597950Y11762493D01*
X5565483Y11809530D01*
X5447240Y11914283D01*
X5447238Y11914284D01*
X5447237Y11914285D01*
X5307365Y11987697D01*
X5153986Y12025500D01*
X5153985Y12025500D01*
X4996015Y12025500D01*
X4996014Y12025500D01*
X4842634Y11987697D01*
X4702762Y11914285D01*
X4584516Y11809529D01*
X4494781Y11679525D01*
X4494780Y11679524D01*
X4438762Y11531819D01*
X4419722Y11375001D01*
X0Y11375001D01*
X0Y32674679D01*
X8449500Y32674679D01*
X8449500Y31025322D01*
X8464032Y30952265D01*
X8464033Y30952261D01*
X8464034Y30952260D01*
X8519399Y30869399D01*
X8567334Y30837370D01*
X8612138Y30783760D01*
X8620847Y30714435D01*
X8614385Y30690298D01*
X8563763Y30556819D01*
X8544722Y30400001D01*
X8544722Y30400000D01*
X8563762Y30243182D01*
X8619780Y30095477D01*
X8709517Y29965470D01*
X8827760Y29860717D01*
X8827762Y29860716D01*
X8967634Y29787304D01*
X9121014Y29749500D01*
X9121015Y29749500D01*
X9278985Y29749500D01*
X9432365Y29787304D01*
X9572240Y29860717D01*
X9690483Y29965470D01*
X9780220Y30095477D01*
X9836237Y30243182D01*
X9855278Y30400000D01*
X9836237Y30556818D01*
X9780220Y30704523D01*
X9780218Y30704525D01*
X9780218Y30704527D01*
X9746869Y30752840D01*
X9724985Y30819195D01*
X9742450Y30886846D01*
X9745795Y30892140D01*
X9785966Y30952260D01*
X9800500Y31025326D01*
X9800500Y32674674D01*
X9800500Y32674677D01*
X9800499Y32674679D01*
X10199500Y32674679D01*
X10199500Y31025322D01*
X10214032Y30952265D01*
X10214033Y30952261D01*
X10214034Y30952260D01*
X10269399Y30869399D01*
X10344536Y30819195D01*
X10352260Y30814034D01*
X10352264Y30814033D01*
X10425321Y30799501D01*
X10425324Y30799500D01*
X10425326Y30799500D01*
X11324676Y30799500D01*
X11324677Y30799501D01*
X11397740Y30814034D01*
X11480601Y30869399D01*
X11535966Y30952260D01*
X11550500Y31025326D01*
X11550500Y32674674D01*
X11550500Y32674677D01*
X11550499Y32674679D01*
X11535967Y32747736D01*
X11535966Y32747740D01*
X11480601Y32830601D01*
X11397740Y32885966D01*
X11397739Y32885967D01*
X11397735Y32885968D01*
X11324677Y32900500D01*
X11324674Y32900500D01*
X10425326Y32900500D01*
X10425323Y32900500D01*
X10352264Y32885968D01*
X10352260Y32885967D01*
X10269399Y32830601D01*
X10214033Y32747740D01*
X10214032Y32747736D01*
X10199500Y32674679D01*
X9800499Y32674679D01*
X9785967Y32747736D01*
X9785966Y32747740D01*
X9730601Y32830601D01*
X9647740Y32885966D01*
X9647739Y32885967D01*
X9647735Y32885968D01*
X9574677Y32900500D01*
X9574674Y32900500D01*
X8675326Y32900500D01*
X8675323Y32900500D01*
X8602264Y32885968D01*
X8602260Y32885967D01*
X8519399Y32830601D01*
X8464033Y32747740D01*
X8464032Y32747736D01*
X8449500Y32674679D01*
X0Y32674679D01*
X0Y36174679D01*
X8449500Y36174679D01*
X8449500Y34525322D01*
X8464032Y34452265D01*
X8464033Y34452261D01*
X8464034Y34452260D01*
X8519399Y34369399D01*
X8601554Y34314506D01*
X8602260Y34314034D01*
X8602264Y34314033D01*
X8675321Y34299501D01*
X8675324Y34299500D01*
X8675326Y34299500D01*
X9574676Y34299500D01*
X9574677Y34299501D01*
X9647740Y34314034D01*
X9730601Y34369399D01*
X9785966Y34452260D01*
X9800500Y34525326D01*
X9800500Y34525372D01*
X10200000Y34525372D01*
X10214503Y34452460D01*
X10214505Y34452456D01*
X10269760Y34369761D01*
X10352455Y34314506D01*
X10352459Y34314504D01*
X10425371Y34300001D01*
X10425374Y34300000D01*
X10750000Y34300000D01*
X11000000Y34300000D01*
X11324626Y34300000D01*
X11324628Y34300001D01*
X11397540Y34314504D01*
X11397544Y34314506D01*
X11480239Y34369761D01*
X11535494Y34452456D01*
X11535496Y34452460D01*
X11549999Y34525372D01*
X11550000Y34525374D01*
X11550000Y35225000D01*
X11000000Y35225000D01*
X11000000Y34300000D01*
X10750000Y34300000D01*
X10750000Y35225000D01*
X10200000Y35225000D01*
X10200000Y34525372D01*
X9800500Y34525372D01*
X9800500Y36174629D01*
X10200000Y36174629D01*
X10200000Y35475000D01*
X10750000Y35475000D01*
X11000000Y35475000D01*
X11550000Y35475000D01*
X11550000Y36174627D01*
X11549999Y36174629D01*
X11535496Y36247541D01*
X11535494Y36247545D01*
X11480239Y36330240D01*
X11397544Y36385495D01*
X11397540Y36385497D01*
X11324627Y36400000D01*
X11000000Y36400000D01*
X11000000Y35475000D01*
X10750000Y35475000D01*
X10750000Y36400000D01*
X10425373Y36400000D01*
X10352459Y36385497D01*
X10352455Y36385495D01*
X10269760Y36330240D01*
X10214505Y36247545D01*
X10214503Y36247541D01*
X10200000Y36174629D01*
X9800500Y36174629D01*
X9800500Y36174674D01*
X9800500Y36174677D01*
X9800499Y36174679D01*
X9785967Y36247736D01*
X9785966Y36247740D01*
X9730601Y36330601D01*
X9647740Y36385966D01*
X9647739Y36385967D01*
X9647736Y36385968D01*
X9575308Y36400375D01*
X9513397Y36432760D01*
X9478823Y36493477D01*
X9475500Y36521992D01*
X9475500Y37828456D01*
X9495185Y37895495D01*
X9511819Y37916137D01*
X9835896Y38240214D01*
X11155470Y39559788D01*
X11201614Y39639712D01*
X11225500Y39728857D01*
X11225500Y39821144D01*
X11225500Y42428009D01*
X11245185Y42495048D01*
X11297989Y42540803D01*
X11325309Y42549626D01*
X11397735Y42564033D01*
X11397735Y42564034D01*
X11397740Y42564034D01*
X11480601Y42619399D01*
X11535966Y42702260D01*
X11550500Y42775326D01*
X11550500Y44333254D01*
X11570185Y44400293D01*
X11622989Y44446048D01*
X11692147Y44455992D01*
X11704163Y44453654D01*
X11721015Y44449500D01*
X11721017Y44449500D01*
X11878985Y44449500D01*
X12032365Y44487304D01*
X12070401Y44507267D01*
X12172240Y44560717D01*
X12290483Y44665470D01*
X12322851Y44712365D01*
X12377132Y44756355D01*
X12446581Y44764015D01*
X12509146Y44732913D01*
X12544964Y44672923D01*
X12547997Y44626981D01*
X12544722Y44600004D01*
X12544722Y44600000D01*
X12563762Y44443182D01*
X12605453Y44333254D01*
X12619780Y44295477D01*
X12709517Y44165470D01*
X12827760Y44060717D01*
X12827762Y44060716D01*
X12967634Y43987304D01*
X13121014Y43949500D01*
X13121015Y43949500D01*
X13278985Y43949500D01*
X13432365Y43987304D01*
X13572240Y44060717D01*
X13690483Y44165470D01*
X13780220Y44295477D01*
X13836237Y44443182D01*
X13855278Y44600000D01*
X13855278Y44600001D01*
X16344722Y44600001D01*
X16344722Y44600000D01*
X16363762Y44443182D01*
X16405453Y44333254D01*
X16419780Y44295477D01*
X16509517Y44165470D01*
X16627760Y44060717D01*
X16627762Y44060716D01*
X16767634Y43987304D01*
X16921014Y43949500D01*
X16921015Y43949500D01*
X17078985Y43949500D01*
X17232365Y43987304D01*
X17372240Y44060717D01*
X17490483Y44165470D01*
X17580220Y44295477D01*
X17636237Y44443182D01*
X17655278Y44600000D01*
X17648615Y44654874D01*
X17660075Y44723797D01*
X17706979Y44775583D01*
X17742037Y44790217D01*
X17882365Y44824804D01*
X18022240Y44898217D01*
X18140483Y45002970D01*
X18230220Y45132977D01*
X18286237Y45280682D01*
X18305278Y45437500D01*
X18304310Y45445477D01*
X18286237Y45594319D01*
X18246157Y45700000D01*
X18230220Y45742023D01*
X18140483Y45872030D01*
X18022240Y45976783D01*
X18022238Y45976784D01*
X18022237Y45976785D01*
X17882365Y46050197D01*
X17728986Y46088000D01*
X17728985Y46088000D01*
X17571015Y46088000D01*
X17571014Y46088000D01*
X17417634Y46050197D01*
X17277762Y45976785D01*
X17159516Y45872029D01*
X17069781Y45742025D01*
X17069780Y45742024D01*
X17013762Y45594319D01*
X16994722Y45437501D01*
X16994722Y45437499D01*
X17001384Y45382626D01*
X16989923Y45313703D01*
X16943018Y45261917D01*
X16907963Y45247284D01*
X16767633Y45212696D01*
X16627762Y45139285D01*
X16509516Y45034529D01*
X16419781Y44904525D01*
X16419780Y44904524D01*
X16363762Y44756819D01*
X16344722Y44600001D01*
X13855278Y44600001D01*
X13849201Y44650054D01*
X13836237Y44756819D01*
X13810453Y44824804D01*
X13780220Y44904523D01*
X13690483Y45034530D01*
X13572240Y45139283D01*
X13572238Y45139284D01*
X13572237Y45139285D01*
X13432365Y45212697D01*
X13278986Y45250500D01*
X13278985Y45250500D01*
X13121015Y45250500D01*
X13121014Y45250500D01*
X12967634Y45212697D01*
X12827762Y45139285D01*
X12709517Y45034531D01*
X12677148Y44987635D01*
X12622864Y44943645D01*
X12553416Y44935986D01*
X12490851Y44967090D01*
X12455034Y45027081D01*
X12452002Y45073022D01*
X12455278Y45100000D01*
X12436237Y45256818D01*
X12434303Y45261917D01*
X12383651Y45395476D01*
X12380220Y45404523D01*
X12290483Y45534530D01*
X12172240Y45639283D01*
X12172238Y45639284D01*
X12172237Y45639285D01*
X12032365Y45712697D01*
X11878986Y45750500D01*
X11878985Y45750500D01*
X11721015Y45750500D01*
X11721014Y45750500D01*
X11567634Y45712697D01*
X11427762Y45639285D01*
X11309516Y45534529D01*
X11219781Y45404525D01*
X11219780Y45404524D01*
X11163762Y45256819D01*
X11144722Y45100001D01*
X11144722Y45100000D01*
X11163762Y44943183D01*
X11178424Y44904524D01*
X11211060Y44818470D01*
X11216427Y44748808D01*
X11183280Y44687302D01*
X11122142Y44653481D01*
X11095118Y44650500D01*
X10425323Y44650500D01*
X10352264Y44635968D01*
X10352260Y44635967D01*
X10269399Y44580601D01*
X10214033Y44497740D01*
X10214032Y44497736D01*
X10199500Y44424679D01*
X10199500Y42775322D01*
X10214032Y42702265D01*
X10214033Y42702261D01*
X10214034Y42702260D01*
X10269399Y42619399D01*
X10352260Y42564034D01*
X10352264Y42564033D01*
X10424691Y42549626D01*
X10486602Y42517241D01*
X10521176Y42456526D01*
X10524500Y42428009D01*
X10524500Y39971544D01*
X10504815Y39904505D01*
X10488181Y39883863D01*
X8844531Y38240214D01*
X8844527Y38240209D01*
X8798387Y38160291D01*
X8798386Y38160288D01*
X8774500Y38071144D01*
X8774500Y36521992D01*
X8754815Y36454953D01*
X8702011Y36409198D01*
X8674692Y36400375D01*
X8602263Y36385968D01*
X8602260Y36385967D01*
X8519399Y36330601D01*
X8464033Y36247740D01*
X8464032Y36247736D01*
X8449500Y36174679D01*
X0Y36174679D01*
X0Y43750000D01*
X-5376000Y43750000D01*
X-5443039Y43769685D01*
X-5488794Y43822489D01*
X-5500000Y43874000D01*
X-5500000Y44424679D01*
X8449500Y44424679D01*
X8449500Y42775322D01*
X8464032Y42702265D01*
X8464033Y42702261D01*
X8464034Y42702260D01*
X8519399Y42619399D01*
X8552204Y42597480D01*
X8597009Y42543870D01*
X8605718Y42474545D01*
X8599256Y42450407D01*
X8563763Y42356819D01*
X8544722Y42200001D01*
X8544722Y42200000D01*
X8563762Y42043182D01*
X8619780Y41895477D01*
X8709517Y41765470D01*
X8827760Y41660717D01*
X8827762Y41660716D01*
X8967634Y41587304D01*
X9121014Y41549500D01*
X9121015Y41549500D01*
X9278985Y41549500D01*
X9432365Y41587304D01*
X9572240Y41660717D01*
X9690483Y41765470D01*
X9780220Y41895477D01*
X9836237Y42043182D01*
X9855278Y42200000D01*
X9836237Y42356818D01*
X9780220Y42504523D01*
X9763844Y42528248D01*
X9741961Y42594603D01*
X9759427Y42662254D01*
X9762776Y42667554D01*
X9785966Y42702260D01*
X9800500Y42775326D01*
X9800500Y44424674D01*
X9800500Y44424677D01*
X9800499Y44424679D01*
X9785967Y44497736D01*
X9785966Y44497740D01*
X9779600Y44507267D01*
X9730601Y44580601D01*
X9647740Y44635966D01*
X9647739Y44635967D01*
X9647735Y44635968D01*
X9574677Y44650500D01*
X9574674Y44650500D01*
X8675326Y44650500D01*
X8675323Y44650500D01*
X8602264Y44635968D01*
X8602260Y44635967D01*
X8519399Y44580601D01*
X8464033Y44497740D01*
X8464032Y44497736D01*
X8449500Y44424679D01*
X-5500000Y44424679D01*
X-5500000Y45700001D01*
X-5155278Y45700001D01*
X-5155278Y45700000D01*
X-5136238Y45543182D01*
X-5083651Y45404524D01*
X-5080220Y45395477D01*
X-4990483Y45265470D01*
X-4872240Y45160717D01*
X-4872238Y45160716D01*
X-4732366Y45087304D01*
X-4578986Y45049500D01*
X-4578985Y45049500D01*
X-4421015Y45049500D01*
X-4267635Y45087304D01*
X-4243441Y45100002D01*
X-4127760Y45160717D01*
X-4009517Y45265470D01*
X-3919780Y45395477D01*
X-3863763Y45543182D01*
X-3844722Y45700000D01*
X-3846263Y45712696D01*
X-3850793Y45750001D01*
X-3230278Y45750001D01*
X-3230278Y45750000D01*
X-3211238Y45593182D01*
X-3160496Y45459388D01*
X-3155220Y45445477D01*
X-3065483Y45315470D01*
X-2947240Y45210717D01*
X-2947238Y45210716D01*
X-2807366Y45137304D01*
X-2653986Y45099500D01*
X-2653985Y45099500D01*
X-2496015Y45099500D01*
X-2342635Y45137304D01*
X-2288966Y45165472D01*
X-2202760Y45210717D01*
X-2084517Y45315470D01*
X-1994780Y45445477D01*
X-1938763Y45593182D01*
X-1919722Y45750000D01*
X-1919722Y45750001D01*
X-1480278Y45750001D01*
X-1480278Y45750000D01*
X-1461238Y45593182D01*
X-1410496Y45459388D01*
X-1405220Y45445477D01*
X-1315483Y45315470D01*
X-1197240Y45210717D01*
X-1197238Y45210716D01*
X-1057366Y45137304D01*
X-903986Y45099500D01*
X-903985Y45099500D01*
X-746015Y45099500D01*
X-592635Y45137304D01*
X-538966Y45165472D01*
X-452760Y45210717D01*
X-334517Y45315470D01*
X-244780Y45445477D01*
X-188763Y45593182D01*
X-169722Y45750000D01*
X-169722Y45750001D01*
X5344722Y45750001D01*
X5344722Y45750000D01*
X5363762Y45593182D01*
X5414504Y45459388D01*
X5419780Y45445477D01*
X5509517Y45315470D01*
X5627760Y45210717D01*
X5627762Y45210716D01*
X5767634Y45137304D01*
X5921014Y45099500D01*
X5921015Y45099500D01*
X6078985Y45099500D01*
X6232365Y45137304D01*
X6286034Y45165472D01*
X6372240Y45210717D01*
X6490483Y45315470D01*
X6580220Y45445477D01*
X6636237Y45593182D01*
X6637065Y45600001D01*
X6944722Y45600001D01*
X6944722Y45600000D01*
X6963762Y45443182D01*
X7012197Y45315472D01*
X7019780Y45295477D01*
X7109517Y45165470D01*
X7227760Y45060717D01*
X7227762Y45060716D01*
X7367634Y44987304D01*
X7521014Y44949500D01*
X7521015Y44949500D01*
X7678985Y44949500D01*
X7832365Y44987304D01*
X7832996Y44987635D01*
X7972240Y45060717D01*
X8090483Y45165470D01*
X8180220Y45295477D01*
X8236237Y45443182D01*
X8255278Y45600000D01*
X8243460Y45697335D01*
X8236237Y45756819D01*
X8214992Y45812836D01*
X8180220Y45904523D01*
X8090483Y46034530D01*
X7972240Y46139283D01*
X7972238Y46139284D01*
X7972237Y46139285D01*
X7832365Y46212697D01*
X7678986Y46250500D01*
X7678985Y46250500D01*
X7521015Y46250500D01*
X7521014Y46250500D01*
X7367634Y46212697D01*
X7227762Y46139285D01*
X7227760Y46139283D01*
X7127201Y46050196D01*
X7109516Y46034529D01*
X7019781Y45904525D01*
X7019780Y45904524D01*
X6963762Y45756819D01*
X6944722Y45600001D01*
X6637065Y45600001D01*
X6655278Y45750000D01*
X6636516Y45904525D01*
X6636237Y45906819D01*
X6599182Y46004524D01*
X6580220Y46054523D01*
X6490483Y46184530D01*
X6372240Y46289283D01*
X6372238Y46289284D01*
X6372237Y46289285D01*
X6232365Y46362697D01*
X6078986Y46400500D01*
X6078985Y46400500D01*
X5921015Y46400500D01*
X5921014Y46400500D01*
X5767634Y46362697D01*
X5627762Y46289285D01*
X5571323Y46239285D01*
X5529752Y46202456D01*
X5509516Y46184529D01*
X5419781Y46054525D01*
X5419780Y46054524D01*
X5363762Y45906819D01*
X5344722Y45750001D01*
X-169722Y45750001D01*
X-188484Y45904525D01*
X-188763Y45906819D01*
X-225818Y46004524D01*
X-244780Y46054523D01*
X-334517Y46184530D01*
X-452760Y46289283D01*
X-452762Y46289284D01*
X-452763Y46289285D01*
X-592635Y46362697D01*
X-746014Y46400500D01*
X-746015Y46400500D01*
X-903985Y46400500D01*
X-903986Y46400500D01*
X-1057366Y46362697D01*
X-1197238Y46289285D01*
X-1253677Y46239285D01*
X-1295248Y46202456D01*
X-1315484Y46184529D01*
X-1405219Y46054525D01*
X-1405220Y46054524D01*
X-1461238Y45906819D01*
X-1480278Y45750001D01*
X-1919722Y45750001D01*
X-1938484Y45904525D01*
X-1938763Y45906819D01*
X-1975818Y46004524D01*
X-1994780Y46054523D01*
X-2084517Y46184530D01*
X-2202760Y46289283D01*
X-2202762Y46289284D01*
X-2202763Y46289285D01*
X-2342635Y46362697D01*
X-2496014Y46400500D01*
X-2496015Y46400500D01*
X-2653985Y46400500D01*
X-2653986Y46400500D01*
X-2807366Y46362697D01*
X-2947238Y46289285D01*
X-3003677Y46239285D01*
X-3045248Y46202456D01*
X-3065484Y46184529D01*
X-3155219Y46054525D01*
X-3155220Y46054524D01*
X-3211238Y45906819D01*
X-3230278Y45750001D01*
X-3850793Y45750001D01*
X-3863763Y45856819D01*
X-3909260Y45976783D01*
X-3919780Y46004523D01*
X-4009517Y46134530D01*
X-4127760Y46239283D01*
X-4127762Y46239284D01*
X-4127763Y46239285D01*
X-4267635Y46312697D01*
X-4421014Y46350500D01*
X-4421015Y46350500D01*
X-4578985Y46350500D01*
X-4578986Y46350500D01*
X-4732366Y46312697D01*
X-4872238Y46239285D01*
X-4990484Y46134529D01*
X-5080219Y46004525D01*
X-5080220Y46004524D01*
X-5136238Y45856819D01*
X-5155278Y45700001D01*
X-5500000Y45700001D01*
X-5500000Y47695382D01*
X5329803Y47695382D01*
X5329803Y47695381D01*
X5348843Y47538563D01*
X5396579Y47412696D01*
X5404861Y47390858D01*
X5494598Y47260851D01*
X5612841Y47156098D01*
X5612843Y47156097D01*
X5752715Y47082685D01*
X5906095Y47044881D01*
X5906096Y47044881D01*
X6064066Y47044881D01*
X6217446Y47082685D01*
X6297791Y47124854D01*
X6357321Y47156098D01*
X6475564Y47260851D01*
X6565301Y47390858D01*
X6621318Y47538563D01*
X6640359Y47695381D01*
X6621318Y47852199D01*
X6593830Y47924679D01*
X8449500Y47924679D01*
X8449500Y46275322D01*
X8464032Y46202265D01*
X8464033Y46202261D01*
X8475881Y46184529D01*
X8519399Y46119399D01*
X8566392Y46088000D01*
X8602260Y46064034D01*
X8602264Y46064033D01*
X8675321Y46049501D01*
X8675324Y46049500D01*
X8675326Y46049500D01*
X9574676Y46049500D01*
X9574677Y46049501D01*
X9647740Y46064034D01*
X9730601Y46119399D01*
X9785966Y46202260D01*
X9800500Y46275326D01*
X9800500Y46275372D01*
X10200000Y46275372D01*
X10214503Y46202460D01*
X10214505Y46202456D01*
X10269760Y46119761D01*
X10352455Y46064506D01*
X10352459Y46064504D01*
X10425371Y46050001D01*
X10425374Y46050000D01*
X10750000Y46050000D01*
X11000000Y46050000D01*
X11324626Y46050000D01*
X11324628Y46050001D01*
X11397540Y46064504D01*
X11397544Y46064506D01*
X11480239Y46119761D01*
X11535494Y46202456D01*
X11535496Y46202460D01*
X11549999Y46275372D01*
X11550000Y46275374D01*
X11550000Y46800001D01*
X12544722Y46800001D01*
X12544722Y46800000D01*
X12563762Y46643182D01*
X12599923Y46547836D01*
X12619780Y46495477D01*
X12709517Y46365470D01*
X12827760Y46260717D01*
X12827762Y46260716D01*
X12967634Y46187304D01*
X13121014Y46149500D01*
X13121015Y46149500D01*
X13278985Y46149500D01*
X13432365Y46187304D01*
X13456555Y46200000D01*
X19844815Y46200000D01*
X19863503Y46022195D01*
X19863504Y46022193D01*
X19918747Y45852171D01*
X19918750Y45852165D01*
X20008141Y45697335D01*
X20049812Y45651054D01*
X20127764Y45564479D01*
X20127767Y45564477D01*
X20127770Y45564474D01*
X20272407Y45459388D01*
X20435733Y45386671D01*
X20610609Y45349500D01*
X20610610Y45349500D01*
X20789389Y45349500D01*
X20789391Y45349500D01*
X20964267Y45386671D01*
X21127593Y45459388D01*
X21272230Y45564474D01*
X21391859Y45697335D01*
X21481250Y45852165D01*
X21536497Y46022197D01*
X21555185Y46200000D01*
X21536497Y46377803D01*
X21481250Y46547835D01*
X21391859Y46702665D01*
X21345003Y46754704D01*
X21272235Y46835522D01*
X21272232Y46835524D01*
X21272231Y46835525D01*
X21272230Y46835526D01*
X21127593Y46940612D01*
X20964267Y47013329D01*
X20964265Y47013330D01*
X20815826Y47044881D01*
X20789391Y47050500D01*
X20610609Y47050500D01*
X20584174Y47044881D01*
X20435733Y47013330D01*
X20435728Y47013328D01*
X20272408Y46940613D01*
X20127768Y46835525D01*
X20008140Y46702664D01*
X19918750Y46547836D01*
X19918747Y46547830D01*
X19863504Y46377808D01*
X19863503Y46377806D01*
X19844815Y46200000D01*
X13456555Y46200000D01*
X13461242Y46202460D01*
X13572240Y46260717D01*
X13690483Y46365470D01*
X13780220Y46495477D01*
X13836237Y46643182D01*
X13855278Y46800000D01*
X13850965Y46835526D01*
X13836237Y46956819D01*
X13788502Y47082685D01*
X13780220Y47104523D01*
X13690483Y47234530D01*
X13572240Y47339283D01*
X13572238Y47339284D01*
X13572237Y47339285D01*
X13432365Y47412697D01*
X13278986Y47450500D01*
X13278985Y47450500D01*
X13121015Y47450500D01*
X13121014Y47450500D01*
X12967634Y47412697D01*
X12827762Y47339285D01*
X12709516Y47234529D01*
X12619781Y47104525D01*
X12619780Y47104524D01*
X12563762Y46956819D01*
X12544722Y46800001D01*
X11550000Y46800001D01*
X11550000Y46975000D01*
X11000000Y46975000D01*
X11000000Y46050000D01*
X10750000Y46050000D01*
X10750000Y46975000D01*
X10200000Y46975000D01*
X10200000Y46275372D01*
X9800500Y46275372D01*
X9800500Y47228456D01*
X9820185Y47295495D01*
X9836819Y47316137D01*
X9988319Y47467637D01*
X10049642Y47501122D01*
X10119334Y47496138D01*
X10175267Y47454266D01*
X10199684Y47388802D01*
X10200000Y47379956D01*
X10200000Y47225000D01*
X10750000Y47225000D01*
X11000000Y47225000D01*
X11550000Y47225000D01*
X11550000Y47924627D01*
X11549999Y47924629D01*
X11535496Y47997541D01*
X11535494Y47997545D01*
X11480239Y48080240D01*
X11397544Y48135495D01*
X11397540Y48135497D01*
X11324627Y48150000D01*
X11000000Y48150000D01*
X11000000Y47225000D01*
X10750000Y47225000D01*
X10750000Y48177956D01*
X10769685Y48244995D01*
X10786319Y48265637D01*
X10788319Y48267637D01*
X10849642Y48301122D01*
X10851570Y48300985D01*
X10876331Y48355203D01*
X10879857Y48358991D01*
X10880465Y48359784D01*
X10880470Y48359788D01*
X10926614Y48439712D01*
X10929338Y48449880D01*
X10935206Y48471775D01*
X10942852Y48500315D01*
X10950500Y48528856D01*
X10950500Y53236203D01*
X10970185Y53303242D01*
X11022989Y53348997D01*
X11090685Y53359142D01*
X11156325Y53350500D01*
X11199999Y53344750D01*
X11200000Y53344750D01*
X11200001Y53344750D01*
X11214977Y53346722D01*
X11343709Y53363670D01*
X11477625Y53419139D01*
X11592621Y53507379D01*
X11592623Y53507383D01*
X11592627Y53507385D01*
X11598372Y53513129D01*
X11600888Y53510613D01*
X11644183Y53542203D01*
X11686092Y53549500D01*
X12015739Y53549500D01*
X12082778Y53529815D01*
X12128533Y53477011D01*
X12138477Y53407853D01*
X12109452Y53344297D01*
X12073365Y53315704D01*
X11927762Y53239286D01*
X11809516Y53134529D01*
X11719781Y53004525D01*
X11719780Y53004524D01*
X11663762Y52856819D01*
X11644722Y52700001D01*
X11644722Y52700000D01*
X11663762Y52543182D01*
X11719780Y52395477D01*
X11719781Y52395476D01*
X11809517Y52265469D01*
X11870109Y52211790D01*
X11907726Y52178465D01*
X11944853Y52119277D01*
X11949500Y52085650D01*
X11949500Y50267045D01*
X11968076Y50197717D01*
X11968076Y50197716D01*
X11973384Y50177904D01*
X11973385Y50177902D01*
X12019527Y50097980D01*
X12019531Y50097975D01*
X14268360Y47849146D01*
X14301845Y47787823D01*
X14303775Y47746520D01*
X14293773Y47664138D01*
X14293773Y47664137D01*
X14312813Y47507319D01*
X14356982Y47390858D01*
X14368831Y47359614D01*
X14458568Y47229607D01*
X14576811Y47124854D01*
X14576813Y47124853D01*
X14716685Y47051441D01*
X14870065Y47013637D01*
X14870066Y47013637D01*
X15028036Y47013637D01*
X15181416Y47051441D01*
X15321291Y47124854D01*
X15439534Y47229607D01*
X15529271Y47359614D01*
X15585288Y47507319D01*
X15604329Y47664137D01*
X15585288Y47820955D01*
X15562841Y47880141D01*
X15557475Y47949803D01*
X15590622Y48011309D01*
X15621155Y48033906D01*
X15672240Y48060717D01*
X15790483Y48165470D01*
X15880220Y48295477D01*
X15936237Y48443182D01*
X15955278Y48600000D01*
X15940686Y48720182D01*
X15936237Y48756819D01*
X15908064Y48831104D01*
X15880220Y48904523D01*
X15790483Y49034530D01*
X15672240Y49139283D01*
X15672238Y49139284D01*
X15672237Y49139285D01*
X15532365Y49212697D01*
X15378986Y49250500D01*
X15378985Y49250500D01*
X15221015Y49250500D01*
X15221014Y49250500D01*
X15067634Y49212697D01*
X14927762Y49139285D01*
X14809516Y49034529D01*
X14719781Y48904525D01*
X14719780Y48904524D01*
X14663763Y48756820D01*
X14660709Y48731670D01*
X14633085Y48667492D01*
X14575150Y48628437D01*
X14505298Y48626904D01*
X14449932Y48658938D01*
X12686819Y50422051D01*
X12674953Y50443782D01*
X13309433Y50443782D01*
X13309433Y50443781D01*
X13328473Y50286963D01*
X13369835Y50177902D01*
X13384491Y50139258D01*
X13474228Y50009251D01*
X13592471Y49904498D01*
X13592473Y49904497D01*
X13732345Y49831085D01*
X13885725Y49793281D01*
X13885726Y49793281D01*
X14043696Y49793281D01*
X14197076Y49831085D01*
X14275472Y49872231D01*
X14336951Y49904498D01*
X14455194Y50009251D01*
X14544931Y50139258D01*
X14600948Y50286963D01*
X14619989Y50443781D01*
X14600948Y50600599D01*
X14587397Y50636329D01*
X14566451Y50691560D01*
X14544931Y50748304D01*
X14455194Y50878311D01*
X14336951Y50983064D01*
X14336949Y50983065D01*
X14336948Y50983066D01*
X14197076Y51056478D01*
X14043697Y51094281D01*
X14043696Y51094281D01*
X13885726Y51094281D01*
X13885725Y51094281D01*
X13732345Y51056478D01*
X13592473Y50983066D01*
X13474227Y50878310D01*
X13384492Y50748306D01*
X13384491Y50748305D01*
X13328473Y50600600D01*
X13309433Y50443782D01*
X12674953Y50443782D01*
X12653334Y50483374D01*
X12650500Y50509732D01*
X12650500Y51900001D01*
X14044722Y51900001D01*
X14044722Y51900000D01*
X14063762Y51743182D01*
X14119780Y51595477D01*
X14209517Y51465470D01*
X14327760Y51360717D01*
X14327762Y51360716D01*
X14467634Y51287304D01*
X14621014Y51249500D01*
X14621015Y51249500D01*
X14778985Y51249500D01*
X14932365Y51287304D01*
X14986034Y51315472D01*
X15072240Y51360717D01*
X15190483Y51465470D01*
X15280220Y51595477D01*
X15336237Y51743182D01*
X15355278Y51900000D01*
X15349268Y51949502D01*
X15336237Y52056819D01*
X15312549Y52119277D01*
X15280220Y52204523D01*
X15190483Y52334530D01*
X15072240Y52439283D01*
X15072238Y52439284D01*
X15072237Y52439285D01*
X14932365Y52512697D01*
X14778986Y52550500D01*
X14778985Y52550500D01*
X14621015Y52550500D01*
X14621014Y52550500D01*
X14467634Y52512697D01*
X14327762Y52439285D01*
X14209516Y52334529D01*
X14119781Y52204525D01*
X14119780Y52204524D01*
X14063762Y52056819D01*
X14044722Y51900001D01*
X12650500Y51900001D01*
X12650500Y52085650D01*
X12670185Y52152689D01*
X12692271Y52178464D01*
X12790483Y52265470D01*
X12880220Y52395477D01*
X12936237Y52543182D01*
X12955278Y52700000D01*
X12951086Y52734529D01*
X12936237Y52856819D01*
X12900708Y52950500D01*
X12880220Y53004523D01*
X12790483Y53134530D01*
X12672240Y53239283D01*
X12672237Y53239286D01*
X12526635Y53315704D01*
X12476422Y53364289D01*
X12460448Y53432308D01*
X12483783Y53498165D01*
X12539020Y53540952D01*
X12584261Y53549500D01*
X16603456Y53549500D01*
X16670495Y53529815D01*
X16691137Y53513181D01*
X20008440Y50195878D01*
X20041925Y50134555D01*
X20043067Y50108127D01*
X20044750Y50108127D01*
X20044750Y50100001D01*
X20044750Y50100000D01*
X20060142Y49983085D01*
X20063670Y49956292D01*
X20063671Y49956288D01*
X20119137Y49822378D01*
X20119138Y49822376D01*
X20119139Y49822375D01*
X20207379Y49707379D01*
X20322375Y49619139D01*
X20456291Y49563670D01*
X20583280Y49546952D01*
X20599999Y49544750D01*
X20600000Y49544750D01*
X20600001Y49544750D01*
X20614977Y49546722D01*
X20743709Y49563670D01*
X20877625Y49619139D01*
X20992621Y49707379D01*
X21080861Y49822375D01*
X21136330Y49956291D01*
X21155250Y50100000D01*
X21136330Y50243709D01*
X21080861Y50377625D01*
X20992621Y50492621D01*
X20877625Y50580861D01*
X20877624Y50580862D01*
X20877622Y50580863D01*
X20743712Y50636329D01*
X20743710Y50636330D01*
X20743709Y50636330D01*
X20652638Y50648320D01*
X20600001Y50655250D01*
X20591873Y50655250D01*
X20591873Y50658757D01*
X20538613Y50667228D01*
X20504122Y50691560D01*
X17015213Y54180469D01*
X17015208Y54180473D01*
X16935291Y54226613D01*
X16935287Y54226615D01*
X16929926Y54228051D01*
X16929926Y54228052D01*
X16861476Y54246392D01*
X16846144Y54250500D01*
X16846143Y54250500D01*
X11686092Y54250500D01*
X11619053Y54270185D01*
X11599587Y54288087D01*
X11598372Y54286871D01*
X11592622Y54292620D01*
X11554707Y54321714D01*
X11513504Y54378142D01*
X11509350Y54447888D01*
X11527093Y54488981D01*
X11535966Y54502260D01*
X11550500Y54575326D01*
X11550500Y55748630D01*
X11570185Y55815669D01*
X11622989Y55861424D01*
X11692147Y55871368D01*
X11732121Y55858428D01*
X11867635Y55787304D01*
X11944325Y55768402D01*
X12021014Y55749500D01*
X12021015Y55749500D01*
X12178985Y55749500D01*
X12332365Y55787304D01*
X12386409Y55815669D01*
X12472240Y55860717D01*
X12590483Y55965470D01*
X12680220Y56095477D01*
X12736237Y56243182D01*
X12755278Y56400000D01*
X12748444Y56456288D01*
X12736237Y56556819D01*
X12698312Y56656818D01*
X12680220Y56704523D01*
X12590483Y56834530D01*
X12472240Y56939283D01*
X12472238Y56939284D01*
X12472237Y56939285D01*
X12332365Y57012697D01*
X12178986Y57050500D01*
X12178985Y57050500D01*
X12021015Y57050500D01*
X12021014Y57050500D01*
X11867634Y57012697D01*
X11727762Y56939285D01*
X11609516Y56834529D01*
X11519781Y56704525D01*
X11519780Y56704524D01*
X11463763Y56556822D01*
X11461968Y56549535D01*
X11460270Y56549954D01*
X11436350Y56494378D01*
X11378415Y56455323D01*
X11328735Y56450101D01*
X11324680Y56450500D01*
X11324674Y56450500D01*
X10425326Y56450500D01*
X10425323Y56450500D01*
X10352264Y56435968D01*
X10352260Y56435967D01*
X10269399Y56380601D01*
X10214033Y56297740D01*
X10214032Y56297736D01*
X10199500Y56224679D01*
X10199500Y54575322D01*
X10214032Y54502265D01*
X10214034Y54502261D01*
X10214034Y54502260D01*
X10228601Y54480458D01*
X10249480Y54413783D01*
X10249500Y54411568D01*
X10249500Y49968675D01*
X10229815Y49901636D01*
X10177011Y49855881D01*
X10107853Y49845937D01*
X10044297Y49874962D01*
X10043273Y49875859D01*
X10040484Y49878330D01*
X9922241Y49983083D01*
X9922239Y49983084D01*
X9922238Y49983085D01*
X9782366Y50056497D01*
X9628987Y50094300D01*
X9628986Y50094300D01*
X9471016Y50094300D01*
X9471015Y50094300D01*
X9317635Y50056497D01*
X9177763Y49983085D01*
X9059517Y49878329D01*
X8969782Y49748325D01*
X8969781Y49748324D01*
X8913763Y49600619D01*
X8894723Y49443801D01*
X8894723Y49443800D01*
X8913763Y49286982D01*
X8969778Y49139285D01*
X8969781Y49139277D01*
X9059518Y49009270D01*
X9177761Y48904517D01*
X9177763Y48904516D01*
X9317635Y48831104D01*
X9471015Y48793300D01*
X9471016Y48793300D01*
X9628986Y48793300D01*
X9782366Y48831104D01*
X9922238Y48904515D01*
X9922239Y48904517D01*
X9922241Y48904517D01*
X10040484Y49009270D01*
X10040486Y49009274D01*
X10043273Y49011742D01*
X10106506Y49041463D01*
X10175770Y49032279D01*
X10229073Y48987107D01*
X10249493Y48920288D01*
X10249500Y48918926D01*
X10249500Y48771545D01*
X10229815Y48704506D01*
X10213181Y48683864D01*
X9709239Y48179923D01*
X9647916Y48146438D01*
X9597368Y48145986D01*
X9574674Y48150500D01*
X8675326Y48150500D01*
X8675323Y48150500D01*
X8602264Y48135968D01*
X8602260Y48135967D01*
X8519399Y48080601D01*
X8464033Y47997740D01*
X8464032Y47997736D01*
X8449500Y47924679D01*
X6593830Y47924679D01*
X6565301Y47999904D01*
X6475564Y48129911D01*
X6357321Y48234664D01*
X6357319Y48234665D01*
X6357318Y48234666D01*
X6217446Y48308078D01*
X6064067Y48345881D01*
X6064066Y48345881D01*
X5906096Y48345881D01*
X5906095Y48345881D01*
X5752715Y48308078D01*
X5612843Y48234666D01*
X5494597Y48129910D01*
X5404862Y47999906D01*
X5404861Y47999905D01*
X5348843Y47852200D01*
X5329803Y47695382D01*
X-5500000Y47695382D01*
X-5500000Y50669601D01*
X-5480315Y50736640D01*
X-5427511Y50782395D01*
X-5358353Y50792339D01*
X-5294797Y50763314D01*
X-5288319Y50757282D01*
X-4739569Y50208532D01*
X-4706084Y50147209D01*
X-4711068Y50077517D01*
X-4752940Y50021584D01*
X-4769624Y50011055D01*
X-4834537Y49976987D01*
X-4952783Y49872230D01*
X-5042518Y49742226D01*
X-5042519Y49742225D01*
X-5098537Y49594520D01*
X-5117577Y49437702D01*
X-5117577Y49437701D01*
X-5098537Y49280883D01*
X-5044835Y49139285D01*
X-5042519Y49133178D01*
X-4952782Y49003171D01*
X-4834539Y48898418D01*
X-4834537Y48898417D01*
X-4694665Y48825005D01*
X-4541285Y48787201D01*
X-4541284Y48787201D01*
X-4383314Y48787201D01*
X-4229934Y48825005D01*
X-4090059Y48898418D01*
X-3971816Y49003171D01*
X-3882079Y49133178D01*
X-3826062Y49280883D01*
X-3826062Y49280884D01*
X-3823402Y49287897D01*
X-3822040Y49287381D01*
X-3791085Y49340552D01*
X-3728867Y49372343D01*
X-3705840Y49374500D01*
X-596308Y49374500D01*
X-529269Y49354815D01*
X-494258Y49320939D01*
X-491837Y49317431D01*
X-490485Y49315472D01*
X-490483Y49315470D01*
X-372240Y49210717D01*
X-372238Y49210716D01*
X-232366Y49137304D01*
X-78986Y49099500D01*
X-78985Y49099500D01*
X78985Y49099500D01*
X232365Y49137304D01*
X236139Y49139285D01*
X372240Y49210717D01*
X490483Y49315470D01*
X580220Y49445477D01*
X636237Y49593182D01*
X655278Y49750000D01*
X636237Y49906818D01*
X580220Y50054523D01*
X490483Y50184530D01*
X372240Y50289283D01*
X372238Y50289284D01*
X372237Y50289285D01*
X232365Y50362697D01*
X78986Y50400500D01*
X78985Y50400500D01*
X-78985Y50400500D01*
X-78986Y50400500D01*
X-232366Y50362697D01*
X-372238Y50289285D01*
X-490484Y50184530D01*
X-492911Y50181013D01*
X-494258Y50179062D01*
X-548537Y50135071D01*
X-596308Y50125500D01*
X-3543101Y50125500D01*
X-3610140Y50145185D01*
X-3630782Y50161819D01*
X-4588181Y51119218D01*
X-4621666Y51180541D01*
X-4624500Y51206899D01*
X-4624500Y51867582D01*
X-4604815Y51934621D01*
X-4552011Y51980376D01*
X-4482853Y51990320D01*
X-4457167Y51983764D01*
X-4382483Y51955909D01*
X-4382484Y51955909D01*
X-4375556Y51955165D01*
X-4322873Y51949500D01*
X-3021022Y51949501D01*
X-2953983Y51929816D01*
X-2908228Y51877013D01*
X-2897926Y51810556D01*
X-2905278Y51750002D01*
X-2905278Y51750000D01*
X-2886238Y51593182D01*
X-2837803Y51465472D01*
X-2830220Y51445477D01*
X-2740483Y51315470D01*
X-2622240Y51210717D01*
X-2610140Y51204367D01*
X-2482366Y51137304D01*
X-2328986Y51099500D01*
X-2328985Y51099500D01*
X-2171015Y51099500D01*
X-2017635Y51137304D01*
X-1877760Y51210717D01*
X-1759517Y51315470D01*
X-1669780Y51445477D01*
X-1613763Y51593182D01*
X-1594722Y51750000D01*
X-1613763Y51906818D01*
X-1669780Y52054523D01*
X-1759517Y52184530D01*
X-1877760Y52289283D01*
X-1877762Y52289284D01*
X-1877763Y52289285D01*
X-2017635Y52362697D01*
X-2171014Y52400500D01*
X-2171015Y52400500D01*
X-2328985Y52400500D01*
X-2328987Y52400500D01*
X-2335562Y52399702D01*
X-2404485Y52411167D01*
X-2456268Y52458074D01*
X-2474501Y52522796D01*
X-2474501Y53197872D01*
X-2480909Y53257483D01*
X-2520515Y53363671D01*
X-2531203Y53392329D01*
X-2531207Y53392336D01*
X-2617453Y53507545D01*
X-2617456Y53507548D01*
X-2732665Y53593794D01*
X-2732672Y53593798D01*
X-2867518Y53644092D01*
X-2867517Y53644092D01*
X-2927117Y53650499D01*
X-2927119Y53650500D01*
X-2927127Y53650500D01*
X-2927136Y53650500D01*
X-4322871Y53650500D01*
X-4322877Y53650499D01*
X-4382486Y53644091D01*
X-4457168Y53616237D01*
X-4526860Y53611253D01*
X-4588183Y53644739D01*
X-4621667Y53706063D01*
X-4624500Y53732419D01*
X-4624500Y53918521D01*
X-774999Y53918521D01*
X-760165Y53824851D01*
X-760163Y53824845D01*
X-702644Y53711959D01*
X-702637Y53711950D01*
X-613051Y53622364D01*
X-613047Y53622361D01*
X-500145Y53564834D01*
X-406486Y53550001D01*
X124999Y53550001D01*
X125000Y53550002D01*
X125000Y53975000D01*
X-774999Y53975000D01*
X-774999Y53918521D01*
X-4624500Y53918521D01*
X-4624500Y56500001D01*
X-2655278Y56500001D01*
X-2655278Y56500000D01*
X-2636238Y56343182D01*
X-2591295Y56224679D01*
X-2580220Y56195477D01*
X-2490483Y56065470D01*
X-2372240Y55960717D01*
X-2372238Y55960716D01*
X-2232366Y55887304D01*
X-2078986Y55849500D01*
X-2078985Y55849500D01*
X-1921015Y55849500D01*
X-1767635Y55887304D01*
X-1729230Y55907461D01*
X-1627760Y55960717D01*
X-1509517Y56065470D01*
X-1419780Y56195477D01*
X-1363763Y56343182D01*
X-1344722Y56500000D01*
X-1350736Y56549535D01*
X-1363763Y56656819D01*
X-1385008Y56712836D01*
X-1419780Y56804523D01*
X-1509517Y56934530D01*
X-1627760Y57039283D01*
X-1627762Y57039284D01*
X-1627763Y57039285D01*
X-1767635Y57112697D01*
X-1921014Y57150500D01*
X-1921015Y57150500D01*
X-2078985Y57150500D01*
X-2078986Y57150500D01*
X-2232366Y57112697D01*
X-2372238Y57039285D01*
X-2490484Y56934529D01*
X-2580219Y56804525D01*
X-2580220Y56804524D01*
X-2636238Y56656819D01*
X-2655278Y56500001D01*
X-4624500Y56500001D01*
X-4624500Y58500001D01*
X-2655278Y58500001D01*
X-2655278Y58500000D01*
X-2636238Y58343182D01*
X-2597337Y58240611D01*
X-2580220Y58195477D01*
X-2490483Y58065470D01*
X-2372240Y57960717D01*
X-2372238Y57960716D01*
X-2232366Y57887304D01*
X-2078986Y57849500D01*
X-2078985Y57849500D01*
X-1921015Y57849500D01*
X-1767635Y57887304D01*
X-1722266Y57911116D01*
X-1627760Y57960717D01*
X-1509517Y58065470D01*
X-1419780Y58195477D01*
X-1363763Y58343182D01*
X-1344722Y58500000D01*
X-1360064Y58626358D01*
X-1363763Y58656819D01*
X-1387741Y58720044D01*
X-1419780Y58804523D01*
X-1509517Y58934530D01*
X-1627760Y59039283D01*
X-1627762Y59039284D01*
X-1627763Y59039285D01*
X-1767635Y59112697D01*
X-1921014Y59150500D01*
X-1921015Y59150500D01*
X-2078985Y59150500D01*
X-2078986Y59150500D01*
X-2232366Y59112697D01*
X-2372238Y59039285D01*
X-2490484Y58934529D01*
X-2580219Y58804525D01*
X-2580220Y58804524D01*
X-2636238Y58656819D01*
X-2655278Y58500001D01*
X-4624500Y58500001D01*
X-4624500Y59467582D01*
X-4604815Y59534621D01*
X-4552011Y59580376D01*
X-4482853Y59590320D01*
X-4457167Y59583764D01*
X-4382483Y59555909D01*
X-4382484Y59555909D01*
X-4375556Y59555165D01*
X-4322873Y59549500D01*
X-2927128Y59549501D01*
X-2867517Y59555909D01*
X-2732669Y59606204D01*
X-2617454Y59692454D01*
X-2531204Y59807669D01*
X-2480909Y59942517D01*
X-2474500Y60002127D01*
X-2474501Y60797872D01*
X-2476393Y60815470D01*
X-2480909Y60857484D01*
X-2531203Y60992329D01*
X-2531207Y60992336D01*
X-2617453Y61107545D01*
X-2617456Y61107548D01*
X-2732665Y61193794D01*
X-2732672Y61193798D01*
X-2867518Y61244092D01*
X-2867517Y61244092D01*
X-2927117Y61250499D01*
X-2927119Y61250500D01*
X-2927127Y61250500D01*
X-2927136Y61250500D01*
X-4322871Y61250500D01*
X-4322877Y61250499D01*
X-4382486Y61244091D01*
X-4457168Y61216237D01*
X-4526860Y61211253D01*
X-4588183Y61244739D01*
X-4621667Y61306063D01*
X-4624500Y61332419D01*
X-4624500Y63543102D01*
X-4604815Y63610141D01*
X-4588185Y63630779D01*
X-4463908Y63755056D01*
X-4402586Y63788540D01*
X-4332894Y63783556D01*
X-4276961Y63741684D01*
X-4253132Y63682321D01*
X-4236237Y63543181D01*
X-4216247Y63490472D01*
X-4180220Y63395477D01*
X-4090483Y63265470D01*
X-3972240Y63160717D01*
X-3972238Y63160716D01*
X-3832366Y63087304D01*
X-3678986Y63049500D01*
X-3678985Y63049500D01*
X-3521015Y63049500D01*
X-3367635Y63087304D01*
X-3227760Y63160717D01*
X-3109517Y63265470D01*
X-3088487Y63295939D01*
X-3034205Y63339930D01*
X-2986436Y63349500D01*
X-2577208Y63349500D01*
X-2510169Y63329815D01*
X-2489527Y63313181D01*
X-136819Y60960473D01*
X-103334Y60899150D01*
X-100500Y60872792D01*
X-100500Y59774500D01*
X-120185Y59707461D01*
X-172989Y59661706D01*
X-224499Y59650500D01*
X-406518Y59650500D01*
X-487481Y59637677D01*
X-500304Y59635646D01*
X-613342Y59578050D01*
X-613343Y59578049D01*
X-613348Y59578046D01*
X-703046Y59488348D01*
X-703049Y59488343D01*
X-703050Y59488342D01*
X-713628Y59467582D01*
X-760648Y59375302D01*
X-775500Y59281525D01*
X-775500Y58918483D01*
X-764708Y58850343D01*
X-760646Y58824696D01*
X-703050Y58711658D01*
X-703048Y58711656D01*
X-703046Y58711653D01*
X-679074Y58687681D01*
X-645589Y58626358D01*
X-650573Y58556666D01*
X-679074Y58512319D01*
X-703046Y58488348D01*
X-703049Y58488343D01*
X-760648Y58375302D01*
X-775500Y58281525D01*
X-775500Y57918483D01*
X-769028Y57877623D01*
X-760646Y57824696D01*
X-703050Y57711658D01*
X-703048Y57711656D01*
X-703046Y57711653D01*
X-679074Y57687681D01*
X-645589Y57626358D01*
X-650573Y57556666D01*
X-679074Y57512319D01*
X-703046Y57488348D01*
X-703049Y57488343D01*
X-703050Y57488342D01*
X-715090Y57464712D01*
X-760648Y57375302D01*
X-775500Y57281525D01*
X-775500Y56918483D01*
X-766946Y56864477D01*
X-760646Y56824696D01*
X-703050Y56711658D01*
X-703048Y56711656D01*
X-703046Y56711653D01*
X-679074Y56687681D01*
X-645589Y56626358D01*
X-650573Y56556666D01*
X-679074Y56512319D01*
X-703046Y56488348D01*
X-703049Y56488343D01*
X-760648Y56375302D01*
X-775500Y56281525D01*
X-775500Y55918483D01*
X-767850Y55870185D01*
X-760646Y55824696D01*
X-703050Y55711658D01*
X-703048Y55711656D01*
X-703046Y55711653D01*
X-679074Y55687681D01*
X-645589Y55626358D01*
X-650573Y55556666D01*
X-679074Y55512319D01*
X-704574Y55486819D01*
X-765897Y55453334D01*
X-792255Y55450500D01*
X-1646144Y55450500D01*
X-1735288Y55426614D01*
X-1735289Y55426614D01*
X-1735291Y55426613D01*
X-1735294Y55426612D01*
X-1815213Y55380469D01*
X-1821663Y55375520D01*
X-1823532Y55377956D01*
X-1872096Y55351462D01*
X-1913279Y55351993D01*
X-1913569Y55349596D01*
X-1921015Y55350500D01*
X-2078985Y55350500D01*
X-2078986Y55350500D01*
X-2232366Y55312697D01*
X-2372238Y55239285D01*
X-2490484Y55134529D01*
X-2580219Y55004525D01*
X-2580220Y55004524D01*
X-2636238Y54856819D01*
X-2655278Y54700001D01*
X-2655278Y54700000D01*
X-2636238Y54543182D01*
X-2580220Y54395477D01*
X-2490483Y54265470D01*
X-2372240Y54160717D01*
X-2372238Y54160716D01*
X-2232366Y54087304D01*
X-2078986Y54049500D01*
X-2078985Y54049500D01*
X-1921015Y54049500D01*
X-1767635Y54087304D01*
X-1741540Y54101000D01*
X-1627760Y54160717D01*
X-1509517Y54265470D01*
X-1419780Y54395477D01*
X-1363763Y54543182D01*
X-1361192Y54564354D01*
X-1351953Y54640446D01*
X-1324331Y54704624D01*
X-1266397Y54743681D01*
X-1228857Y54749500D01*
X-792255Y54749500D01*
X-725216Y54729815D01*
X-704574Y54713181D01*
X-678721Y54687328D01*
X-645236Y54626005D01*
X-650220Y54556313D01*
X-678721Y54511966D01*
X-702637Y54488051D01*
X-702640Y54488047D01*
X-760167Y54375145D01*
X-775000Y54281487D01*
X-775000Y54225000D01*
X126000Y54225000D01*
X193039Y54205315D01*
X238794Y54152511D01*
X250000Y54101000D01*
X250000Y54100000D01*
X251000Y54100000D01*
X318039Y54080315D01*
X363794Y54027511D01*
X375000Y53976000D01*
X375000Y53550001D01*
X906479Y53550001D01*
X1000149Y53564836D01*
X1000152Y53564837D01*
X1069204Y53600021D01*
X1137873Y53612918D01*
X1202614Y53586642D01*
X1242871Y53529536D01*
X1249500Y53489537D01*
X1249500Y52514351D01*
X1229815Y52447312D01*
X1207728Y52421538D01*
X1141310Y52362696D01*
X1109516Y52334529D01*
X1019781Y52204525D01*
X1019780Y52204524D01*
X963762Y52056819D01*
X944722Y51900001D01*
X944722Y51900000D01*
X963762Y51743182D01*
X1019780Y51595477D01*
X1109517Y51465470D01*
X1227760Y51360717D01*
X1227762Y51360716D01*
X1367634Y51287304D01*
X1521014Y51249500D01*
X1521015Y51249500D01*
X1678985Y51249500D01*
X1832365Y51287304D01*
X1886034Y51315472D01*
X1972240Y51360717D01*
X2090483Y51465470D01*
X2180220Y51595477D01*
X2236237Y51743182D01*
X2255278Y51900000D01*
X2249268Y51949502D01*
X2236237Y52056819D01*
X2212549Y52119277D01*
X2180220Y52204523D01*
X2114317Y52300001D01*
X7444722Y52300001D01*
X7444722Y52300000D01*
X7463762Y52143182D01*
X7515712Y52006204D01*
X7519780Y51995477D01*
X7609517Y51865470D01*
X7727760Y51760717D01*
X7727762Y51760716D01*
X7867634Y51687304D01*
X8021014Y51649500D01*
X8021015Y51649500D01*
X8178985Y51649500D01*
X8332365Y51687304D01*
X8472240Y51760717D01*
X8590483Y51865470D01*
X8680220Y51995477D01*
X8736237Y52143182D01*
X8755278Y52300000D01*
X8751086Y52334529D01*
X8736237Y52456819D01*
X8711214Y52522799D01*
X8680220Y52604523D01*
X8590483Y52734530D01*
X8472240Y52839283D01*
X8472238Y52839284D01*
X8472237Y52839285D01*
X8332365Y52912697D01*
X8178986Y52950500D01*
X8178985Y52950500D01*
X8021015Y52950500D01*
X8021014Y52950500D01*
X7867634Y52912697D01*
X7727762Y52839285D01*
X7609516Y52734529D01*
X7519781Y52604525D01*
X7519780Y52604524D01*
X7463762Y52456819D01*
X7444722Y52300001D01*
X2114317Y52300001D01*
X2090483Y52334530D01*
X1992272Y52421537D01*
X1955147Y52480724D01*
X1950500Y52514351D01*
X1950500Y55207538D01*
X1950500Y55207540D01*
X1926614Y55296684D01*
X1917369Y55312696D01*
X1895544Y55350499D01*
X1895542Y55350502D01*
X1880472Y55376605D01*
X1880468Y55376610D01*
X1557077Y55700001D01*
X6944722Y55700001D01*
X6944722Y55700000D01*
X6963762Y55543182D01*
X7007972Y55426612D01*
X7019780Y55395477D01*
X7109517Y55265470D01*
X7227760Y55160717D01*
X7227762Y55160716D01*
X7367634Y55087304D01*
X7521014Y55049500D01*
X7521015Y55049500D01*
X7678985Y55049500D01*
X7832365Y55087304D01*
X7923805Y55135297D01*
X7981431Y55149500D01*
X8325500Y55149500D01*
X8392539Y55129815D01*
X8438294Y55077011D01*
X8449500Y55025500D01*
X8449500Y54575322D01*
X8464032Y54502265D01*
X8464033Y54502261D01*
X8478600Y54480460D01*
X8519399Y54419399D01*
X8581146Y54378142D01*
X8602260Y54364034D01*
X8602264Y54364033D01*
X8675321Y54349501D01*
X8675324Y54349500D01*
X8675326Y54349500D01*
X9574676Y54349500D01*
X9574677Y54349501D01*
X9647740Y54364034D01*
X9730601Y54419399D01*
X9785966Y54502260D01*
X9800500Y54575326D01*
X9800500Y56224674D01*
X9800500Y56224677D01*
X9800499Y56224679D01*
X9785967Y56297736D01*
X9785966Y56297740D01*
X9775972Y56312697D01*
X9730601Y56380601D01*
X9647740Y56435966D01*
X9647739Y56435967D01*
X9647735Y56435968D01*
X9574677Y56450500D01*
X9574674Y56450500D01*
X8675326Y56450500D01*
X8675323Y56450500D01*
X8602264Y56435968D01*
X8602260Y56435967D01*
X8519399Y56380601D01*
X8464033Y56297740D01*
X8464032Y56297736D01*
X8449500Y56224679D01*
X8449500Y55974500D01*
X8429815Y55907461D01*
X8377011Y55861706D01*
X8325500Y55850500D01*
X8324224Y55850500D01*
X8257185Y55870185D01*
X8211430Y55922989D01*
X8208282Y55930529D01*
X8201603Y55948141D01*
X8180220Y56004523D01*
X8090483Y56134530D01*
X7972240Y56239283D01*
X7972238Y56239284D01*
X7972237Y56239285D01*
X7832365Y56312697D01*
X7678986Y56350500D01*
X7678985Y56350500D01*
X7521015Y56350500D01*
X7521014Y56350500D01*
X7367634Y56312697D01*
X7227762Y56239285D01*
X7109516Y56134529D01*
X7019781Y56004525D01*
X7019780Y56004524D01*
X6963762Y55856819D01*
X6944722Y55700001D01*
X1557077Y55700001D01*
X1506414Y55750664D01*
X1472929Y55811987D01*
X1477913Y55881679D01*
X1519785Y55937612D01*
X1585249Y55962029D01*
X1651721Y55948141D01*
X1767634Y55887304D01*
X1921014Y55849500D01*
X1921015Y55849500D01*
X2078985Y55849500D01*
X2232365Y55887304D01*
X2270770Y55907461D01*
X2372240Y55960717D01*
X2490483Y56065470D01*
X2580220Y56195477D01*
X2636237Y56343182D01*
X2655278Y56500000D01*
X2649264Y56549535D01*
X2636237Y56656819D01*
X2614992Y56712836D01*
X2580220Y56804523D01*
X2490483Y56934530D01*
X2372240Y57039283D01*
X2372238Y57039284D01*
X2372237Y57039285D01*
X2232365Y57112697D01*
X2078986Y57150500D01*
X2078985Y57150500D01*
X1921015Y57150500D01*
X1921014Y57150500D01*
X1767634Y57112697D01*
X1627762Y57039285D01*
X1509516Y56934530D01*
X1501546Y56922983D01*
X1447261Y56878995D01*
X1377812Y56871339D01*
X1315248Y56902445D01*
X1279434Y56962438D01*
X1275499Y56993423D01*
X1275499Y57167062D01*
X1295184Y57234100D01*
X1311813Y57254737D01*
X3870258Y59813181D01*
X3931581Y59846666D01*
X3957939Y59849500D01*
X4078985Y59849500D01*
X4232365Y59887304D01*
X4372240Y59960717D01*
X4490483Y60065470D01*
X4580220Y60195477D01*
X4636237Y60343182D01*
X4655278Y60500000D01*
X4646719Y60570495D01*
X4636237Y60656819D01*
X4598512Y60756291D01*
X4580220Y60804523D01*
X4490483Y60934530D01*
X4372240Y61039283D01*
X4372238Y61039284D01*
X4372237Y61039285D01*
X4232365Y61112697D01*
X4078986Y61150500D01*
X4078985Y61150500D01*
X4027214Y61150500D01*
X3960175Y61170185D01*
X3914420Y61222989D01*
X3904118Y61259552D01*
X3901083Y61284548D01*
X3895274Y61332383D01*
X3906734Y61401303D01*
X3930686Y61435006D01*
X5108863Y62613181D01*
X5170186Y62646666D01*
X5196544Y62649500D01*
X6436203Y62649500D01*
X6503242Y62629815D01*
X6548997Y62577011D01*
X6559141Y62509315D01*
X6549447Y62435680D01*
X6544750Y62400001D01*
X6544750Y62391872D01*
X6541456Y62391872D01*
X6532192Y62337412D01*
X6508439Y62304123D01*
X5919531Y61715214D01*
X5919529Y61715212D01*
X5907079Y61693647D01*
X5901816Y61684530D01*
X5899699Y61680863D01*
X5873386Y61635289D01*
X5849500Y61546144D01*
X5849500Y58256454D01*
X5829815Y58189415D01*
X5777011Y58143660D01*
X5757599Y58136681D01*
X5756293Y58136332D01*
X5622377Y58080863D01*
X5507379Y57992621D01*
X5419137Y57877623D01*
X5363671Y57743713D01*
X5363670Y57743709D01*
X5354994Y57677806D01*
X5344750Y57600000D01*
X5357915Y57500000D01*
X5363670Y57456292D01*
X5363671Y57456288D01*
X5419137Y57322378D01*
X5419138Y57322376D01*
X5419139Y57322375D01*
X5507379Y57207379D01*
X5516711Y57200218D01*
X5519113Y57198375D01*
X5560316Y57141947D01*
X5564470Y57072201D01*
X5530257Y57011281D01*
X5519113Y57001625D01*
X5507381Y56992623D01*
X5419137Y56877623D01*
X5363671Y56743713D01*
X5363670Y56743709D01*
X5352231Y56656819D01*
X5344750Y56600000D01*
X5357915Y56500000D01*
X5363670Y56456292D01*
X5363671Y56456288D01*
X5419137Y56322378D01*
X5419138Y56322376D01*
X5419139Y56322375D01*
X5507379Y56207379D01*
X5622375Y56119139D01*
X5756291Y56063670D01*
X5883280Y56046952D01*
X5899999Y56044750D01*
X5900000Y56044750D01*
X5900001Y56044750D01*
X5914977Y56046722D01*
X6043709Y56063670D01*
X6177625Y56119139D01*
X6292621Y56207379D01*
X6380861Y56322375D01*
X6436330Y56456291D01*
X6455250Y56600000D01*
X6455250Y56600001D01*
X6455250Y56608129D01*
X6459049Y56608129D01*
X6466388Y56659582D01*
X6491556Y56695876D01*
X7180470Y57384788D01*
X7226614Y57464712D01*
X7250500Y57553857D01*
X7250500Y57646144D01*
X7250500Y60503456D01*
X7270185Y60570495D01*
X7286819Y60591137D01*
X7304122Y60608440D01*
X7365445Y60641925D01*
X7391871Y60643018D01*
X7391871Y60644750D01*
X7400000Y60644750D01*
X7543709Y60663670D01*
X7677625Y60719139D01*
X7792621Y60807379D01*
X7880861Y60922375D01*
X7936330Y61056291D01*
X7955250Y61200000D01*
X7953768Y61211253D01*
X7951557Y61228051D01*
X7936330Y61343709D01*
X7880861Y61477625D01*
X7792621Y61592621D01*
X7677625Y61680861D01*
X7677624Y61680862D01*
X7677622Y61680863D01*
X7543712Y61736329D01*
X7543710Y61736330D01*
X7543709Y61736330D01*
X7515203Y61740083D01*
X7495394Y61742691D01*
X7431498Y61770958D01*
X7393028Y61829283D01*
X7392197Y61899148D01*
X7429270Y61958371D01*
X7436075Y61963990D01*
X7492621Y62007379D01*
X7580861Y62122375D01*
X7636330Y62256291D01*
X7655250Y62400000D01*
X7640858Y62509315D01*
X7651623Y62578349D01*
X7698003Y62630605D01*
X7763797Y62649500D01*
X9919841Y62649500D01*
X9986880Y62629815D01*
X10032635Y62577011D01*
X10035783Y62569471D01*
X10077691Y62458969D01*
X10167428Y62328962D01*
X10285671Y62224209D01*
X10285673Y62224208D01*
X10425545Y62150796D01*
X10578925Y62112992D01*
X10578926Y62112992D01*
X10736896Y62112992D01*
X10890276Y62150796D01*
X10949333Y62181793D01*
X11017839Y62195519D01*
X11082893Y62170028D01*
X11094640Y62159678D01*
X11213181Y62041137D01*
X11246666Y61979814D01*
X11249500Y61953456D01*
X11249500Y61323142D01*
X11229815Y61256103D01*
X11177011Y61210348D01*
X11107853Y61200404D01*
X11044297Y61229429D01*
X11027125Y61247655D01*
X10998816Y61284547D01*
X10992621Y61292621D01*
X10877625Y61380861D01*
X10877624Y61380862D01*
X10877622Y61380863D01*
X10743712Y61436329D01*
X10743710Y61436330D01*
X10743709Y61436330D01*
X10671854Y61445790D01*
X10600001Y61455250D01*
X10599999Y61455250D01*
X10456291Y61436330D01*
X10456287Y61436329D01*
X10322377Y61380863D01*
X10207379Y61292621D01*
X10119137Y61177623D01*
X10063671Y61043713D01*
X10063670Y61043709D01*
X10044750Y60900001D01*
X10044750Y60900000D01*
X10063670Y60756292D01*
X10063671Y60756288D01*
X10119137Y60622378D01*
X10119138Y60622376D01*
X10119139Y60622375D01*
X10207379Y60507379D01*
X10322375Y60419139D01*
X10456291Y60363670D01*
X10583280Y60346952D01*
X10599999Y60344750D01*
X10600000Y60344750D01*
X10600001Y60344750D01*
X10614977Y60346722D01*
X10743709Y60363670D01*
X10877625Y60419139D01*
X10992621Y60507379D01*
X11027125Y60552347D01*
X11083552Y60593548D01*
X11153298Y60597703D01*
X11214218Y60563491D01*
X11246971Y60501774D01*
X11249500Y60476859D01*
X11249500Y60074000D01*
X11229815Y60006961D01*
X11177011Y59961206D01*
X11125500Y59950000D01*
X11000000Y59950000D01*
X11000000Y59024000D01*
X10980315Y58956961D01*
X10927511Y58911206D01*
X10876000Y58900000D01*
X10875000Y58900000D01*
X10875000Y58899000D01*
X10855315Y58831961D01*
X10802511Y58786206D01*
X10751000Y58775000D01*
X10200000Y58775000D01*
X10200000Y58720044D01*
X10180315Y58653005D01*
X10127511Y58607250D01*
X10058353Y58597306D01*
X9994797Y58626331D01*
X9988319Y58632363D01*
X9836819Y58783863D01*
X9803334Y58845186D01*
X9800500Y58871544D01*
X9800500Y59724629D01*
X10200000Y59724629D01*
X10200000Y59025000D01*
X10750000Y59025000D01*
X10750000Y59950000D01*
X10425373Y59950000D01*
X10352459Y59935497D01*
X10352455Y59935495D01*
X10269760Y59880240D01*
X10214505Y59797545D01*
X10214503Y59797541D01*
X10200000Y59724629D01*
X9800500Y59724629D01*
X9800500Y59724677D01*
X9800499Y59724679D01*
X9785967Y59797736D01*
X9785966Y59797740D01*
X9753275Y59846666D01*
X9730601Y59880601D01*
X9647740Y59935966D01*
X9647739Y59935967D01*
X9647735Y59935968D01*
X9574677Y59950500D01*
X9574674Y59950500D01*
X8675326Y59950500D01*
X8675323Y59950500D01*
X8602264Y59935968D01*
X8602260Y59935967D01*
X8519399Y59880601D01*
X8464033Y59797740D01*
X8464032Y59797736D01*
X8449500Y59724679D01*
X8449500Y58075322D01*
X8464032Y58002265D01*
X8464033Y58002261D01*
X8464034Y58002260D01*
X8519399Y57919399D01*
X8598189Y57866754D01*
X8602260Y57864034D01*
X8602264Y57864033D01*
X8675321Y57849501D01*
X8675324Y57849500D01*
X8675326Y57849500D01*
X9574676Y57849500D01*
X9574677Y57849501D01*
X9599248Y57854389D01*
X9647737Y57864033D01*
X9647738Y57864034D01*
X9647740Y57864034D01*
X9647740Y57864035D01*
X9654307Y57866754D01*
X9723776Y57874224D01*
X9786256Y57842951D01*
X9789443Y57839875D01*
X10159788Y57469530D01*
X10159789Y57469529D01*
X10159791Y57469528D01*
X10182724Y57456288D01*
X10239712Y57423386D01*
X10328856Y57399500D01*
X10328858Y57399500D01*
X11496142Y57399500D01*
X11496144Y57399500D01*
X11585288Y57423386D01*
X11665212Y57469530D01*
X11695682Y57500000D01*
X16144815Y57500000D01*
X16163503Y57322195D01*
X16163504Y57322193D01*
X16218747Y57152171D01*
X16218750Y57152165D01*
X16308141Y56997335D01*
X16312384Y56992623D01*
X16427764Y56864479D01*
X16427767Y56864477D01*
X16427770Y56864474D01*
X16572407Y56759388D01*
X16735733Y56686671D01*
X16910609Y56649500D01*
X16910610Y56649500D01*
X17089389Y56649500D01*
X17089391Y56649500D01*
X17264267Y56686671D01*
X17427593Y56759388D01*
X17572230Y56864474D01*
X17578412Y56871339D01*
X17620860Y56918483D01*
X17691859Y56997335D01*
X17781250Y57152165D01*
X17836497Y57322197D01*
X17855185Y57500000D01*
X17836497Y57677803D01*
X17791849Y57815215D01*
X17781252Y57847830D01*
X17781249Y57847836D01*
X17691859Y58002665D01*
X17603768Y58100500D01*
X17572235Y58135522D01*
X17572232Y58135524D01*
X17572231Y58135525D01*
X17572230Y58135526D01*
X17427593Y58240612D01*
X17264267Y58313329D01*
X17264265Y58313330D01*
X17136594Y58340467D01*
X17089391Y58350500D01*
X16910609Y58350500D01*
X16879954Y58343985D01*
X16735733Y58313330D01*
X16735728Y58313328D01*
X16572408Y58240613D01*
X16427768Y58135525D01*
X16308140Y58002664D01*
X16218750Y57847836D01*
X16218747Y57847830D01*
X16163504Y57677808D01*
X16163503Y57677806D01*
X16144815Y57500000D01*
X11695682Y57500000D01*
X11880470Y57684788D01*
X11926614Y57764712D01*
X11940145Y57815212D01*
X11950500Y57853856D01*
X11950500Y62196144D01*
X11926614Y62285288D01*
X11926613Y62285289D01*
X11926613Y62285291D01*
X11910620Y62312990D01*
X11910618Y62312993D01*
X11880470Y62365212D01*
X11293893Y62951789D01*
X11265632Y62995499D01*
X11245152Y63049500D01*
X11238131Y63068015D01*
X11148394Y63198022D01*
X11030151Y63302775D01*
X11030149Y63302776D01*
X11030148Y63302777D01*
X10890276Y63376189D01*
X10736897Y63413992D01*
X10736896Y63413992D01*
X10578926Y63413992D01*
X10425548Y63376189D01*
X10425546Y63376189D01*
X10425546Y63376188D01*
X10403661Y63364703D01*
X10346039Y63350500D01*
X5277092Y63350500D01*
X5210053Y63370185D01*
X5164298Y63422989D01*
X5153996Y63489446D01*
X5155278Y63500000D01*
X5136597Y63653857D01*
X5136237Y63656819D01*
X5114090Y63715215D01*
X5080220Y63804523D01*
X4990483Y63934530D01*
X4872240Y64039283D01*
X4872238Y64039284D01*
X4872237Y64039285D01*
X4732365Y64112697D01*
X4578986Y64150500D01*
X4578985Y64150500D01*
X4421015Y64150500D01*
X4421014Y64150500D01*
X4267634Y64112697D01*
X4127762Y64039285D01*
X4009516Y63934529D01*
X3919781Y63804525D01*
X3919780Y63804524D01*
X3863762Y63656819D01*
X3844722Y63500001D01*
X3844722Y63500000D01*
X3863762Y63343182D01*
X3893234Y63265472D01*
X3919780Y63195477D01*
X4009517Y63065470D01*
X4127760Y62960717D01*
X4199730Y62922944D01*
X4249941Y62874362D01*
X4265916Y62806343D01*
X4242582Y62740485D01*
X4229784Y62725468D01*
X3439274Y61934958D01*
X3377951Y61901473D01*
X3336721Y61901996D01*
X3336430Y61899596D01*
X3328985Y61900500D01*
X3171015Y61900500D01*
X3171014Y61900500D01*
X3017634Y61862697D01*
X2877762Y61789285D01*
X2759516Y61684529D01*
X2669781Y61554525D01*
X2669780Y61554524D01*
X2613762Y61406819D01*
X2594722Y61250001D01*
X2594722Y61250000D01*
X2613762Y61093182D01*
X2652011Y60992329D01*
X2669780Y60945477D01*
X2759517Y60815470D01*
X2877760Y60710717D01*
X2877762Y60710716D01*
X3017634Y60637304D01*
X3171014Y60599500D01*
X3222786Y60599500D01*
X3289825Y60579815D01*
X3335580Y60527011D01*
X3345882Y60490446D01*
X3361372Y60362872D01*
X3349911Y60293949D01*
X3325957Y60260245D01*
X2362181Y59296468D01*
X2300858Y59262983D01*
X2231167Y59267967D01*
X2175233Y59309839D01*
X2150816Y59375303D01*
X2150500Y59384149D01*
X2150500Y65085650D01*
X2170185Y65152689D01*
X2192271Y65178464D01*
X2290483Y65265470D01*
X2380220Y65395477D01*
X2436237Y65543182D01*
X2455278Y65700000D01*
X2455278Y65700001D01*
X2944722Y65700001D01*
X2944722Y65700000D01*
X2963762Y65543182D01*
X2999102Y65450000D01*
X3019780Y65395477D01*
X3109517Y65265470D01*
X3227760Y65160717D01*
X3227762Y65160716D01*
X3367634Y65087304D01*
X3521014Y65049500D01*
X3521015Y65049500D01*
X3678985Y65049500D01*
X3832365Y65087304D01*
X3856385Y65099911D01*
X3972240Y65160717D01*
X4090483Y65265470D01*
X4180220Y65395477D01*
X4236237Y65543182D01*
X4255278Y65700000D01*
X4236237Y65856818D01*
X4223994Y65889099D01*
X4196833Y65960717D01*
X4180220Y66004523D01*
X4090483Y66134530D01*
X3972240Y66239283D01*
X3972238Y66239284D01*
X3972237Y66239285D01*
X3832365Y66312697D01*
X3678986Y66350500D01*
X3678985Y66350500D01*
X3521015Y66350500D01*
X3521014Y66350500D01*
X3367634Y66312697D01*
X3227762Y66239285D01*
X3227760Y66239283D01*
X3125010Y66148255D01*
X3109516Y66134529D01*
X3019781Y66004525D01*
X3019780Y66004524D01*
X2963762Y65856819D01*
X2944722Y65700001D01*
X2455278Y65700001D01*
X2436237Y65856818D01*
X2423994Y65889099D01*
X2396833Y65960717D01*
X2380220Y66004523D01*
X2290483Y66134530D01*
X2172240Y66239283D01*
X2172238Y66239284D01*
X2172237Y66239285D01*
X2032365Y66312697D01*
X1878986Y66350500D01*
X1878985Y66350500D01*
X1721015Y66350500D01*
X1721014Y66350500D01*
X1567634Y66312697D01*
X1427762Y66239285D01*
X1331727Y66154206D01*
X1268493Y66124485D01*
X1199230Y66133669D01*
X1145927Y66178842D01*
X1125507Y66245661D01*
X1125500Y66247022D01*
X1125500Y66293101D01*
X1145185Y66360140D01*
X1161819Y66380782D01*
X1369219Y66588181D01*
X1430542Y66621666D01*
X1456900Y66624500D01*
X5403692Y66624500D01*
X5470731Y66604815D01*
X5505742Y66570939D01*
X5509517Y66565470D01*
X5627760Y66460717D01*
X5627762Y66460716D01*
X5767634Y66387304D01*
X5872457Y66361468D01*
X5932838Y66326312D01*
X5964627Y66264093D01*
X5957731Y66194564D01*
X5925010Y66148257D01*
X5909517Y66134530D01*
X5909516Y66134529D01*
X5819781Y66004525D01*
X5819780Y66004524D01*
X5763762Y65856819D01*
X5744722Y65700001D01*
X5744722Y65700000D01*
X5763762Y65543182D01*
X5799102Y65450000D01*
X5819780Y65395477D01*
X5909517Y65265470D01*
X6027760Y65160717D01*
X6027762Y65160716D01*
X6167634Y65087304D01*
X6321014Y65049500D01*
X6321015Y65049500D01*
X6478985Y65049500D01*
X6632365Y65087304D01*
X6656385Y65099911D01*
X6772240Y65160717D01*
X6890483Y65265470D01*
X6980220Y65395477D01*
X7036237Y65543182D01*
X7055278Y65700000D01*
X7036237Y65856818D01*
X7023994Y65889099D01*
X6996833Y65960717D01*
X6980220Y66004523D01*
X6890483Y66134530D01*
X6772240Y66239283D01*
X6772238Y66239284D01*
X6772237Y66239285D01*
X6632366Y66312696D01*
X6527541Y66338533D01*
X6467160Y66373689D01*
X6435372Y66435909D01*
X6442268Y66505437D01*
X6474990Y66551745D01*
X6490483Y66565470D01*
X6494257Y66570939D01*
X6548537Y66614929D01*
X6596308Y66624500D01*
X7068101Y66624500D01*
X7135140Y66604815D01*
X7155782Y66588181D01*
X7525904Y66218059D01*
X7559389Y66156736D01*
X7561852Y66126193D01*
X7562000Y66126193D01*
X7562000Y66124363D01*
X7562047Y66123780D01*
X7562000Y66122898D01*
X7562000Y64777137D01*
X7562001Y64777118D01*
X7568408Y64717519D01*
X7618702Y64582673D01*
X7618703Y64582672D01*
X7618704Y64582670D01*
X7704954Y64467454D01*
X7820170Y64381204D01*
X7820171Y64381204D01*
X7820172Y64381203D01*
X7955018Y64330909D01*
X7955017Y64330909D01*
X7961945Y64330165D01*
X8014628Y64324500D01*
X8014637Y64324500D01*
X9035363Y64324500D01*
X9035372Y64324500D01*
X9094982Y64330909D01*
X9229830Y64381204D01*
X9345046Y64467454D01*
X9431296Y64582670D01*
X9481591Y64717518D01*
X9488000Y64777128D01*
X9488000Y66122864D01*
X10537000Y66122864D01*
X10537000Y64777137D01*
X10537001Y64777118D01*
X10543408Y64717519D01*
X10593702Y64582673D01*
X10593703Y64582672D01*
X10593704Y64582670D01*
X10679954Y64467454D01*
X10795170Y64381204D01*
X10795171Y64381204D01*
X10795172Y64381203D01*
X10930018Y64330909D01*
X10930017Y64330909D01*
X10936945Y64330165D01*
X10989628Y64324500D01*
X10989637Y64324500D01*
X11876155Y64324500D01*
X11943194Y64304815D01*
X11988949Y64252011D01*
X11998893Y64182853D01*
X11992097Y64156529D01*
X11963763Y64081819D01*
X11944722Y63925001D01*
X11944722Y63925000D01*
X11963762Y63768182D01*
X12014163Y63635288D01*
X12019780Y63620477D01*
X12109517Y63490470D01*
X12227760Y63385717D01*
X12227762Y63385716D01*
X12367634Y63312304D01*
X12521014Y63274500D01*
X12521015Y63274500D01*
X12678985Y63274500D01*
X12832365Y63312304D01*
X12905140Y63350500D01*
X12972240Y63385717D01*
X13090483Y63490470D01*
X13180220Y63620477D01*
X13236237Y63768182D01*
X13255278Y63925000D01*
X13251122Y63959233D01*
X13236237Y64081819D01*
X13207903Y64156529D01*
X13180220Y64229523D01*
X13090483Y64359530D01*
X12972240Y64464283D01*
X12972238Y64464284D01*
X12972237Y64464285D01*
X12832365Y64537697D01*
X12678986Y64575500D01*
X12678985Y64575500D01*
X12579368Y64575500D01*
X12512329Y64595185D01*
X12466574Y64647989D01*
X12456079Y64712756D01*
X12462999Y64777120D01*
X12463000Y64777128D01*
X12463000Y64802566D01*
X12482685Y64869605D01*
X12535489Y64915360D01*
X12604647Y64925304D01*
X12644627Y64912362D01*
X12647758Y64910719D01*
X12647760Y64910717D01*
X12787635Y64837304D01*
X12864325Y64818402D01*
X12941014Y64799500D01*
X12941015Y64799500D01*
X13098985Y64799500D01*
X13252365Y64837304D01*
X13392240Y64910717D01*
X13510483Y65015470D01*
X13600220Y65145477D01*
X13656237Y65293182D01*
X13675278Y65450000D01*
X13675210Y65450565D01*
X13656237Y65606819D01*
X13610978Y65726156D01*
X13605611Y65795819D01*
X13638758Y65857325D01*
X13699897Y65891147D01*
X13759879Y65887188D01*
X13760351Y65889099D01*
X13921014Y65849500D01*
X13921015Y65849500D01*
X14078986Y65849500D01*
X14086431Y65850404D01*
X14086837Y65847059D01*
X14141459Y65844779D01*
X14189275Y65815043D01*
X16613181Y63391137D01*
X16646666Y63329814D01*
X16649500Y63303456D01*
X16649500Y61114351D01*
X16629815Y61047312D01*
X16607728Y61021538D01*
X16538801Y60960473D01*
X16509516Y60934529D01*
X16419781Y60804525D01*
X16419780Y60804524D01*
X16363762Y60656819D01*
X16344722Y60500001D01*
X16344722Y60500000D01*
X16363762Y60343182D01*
X16419780Y60195477D01*
X16509517Y60065470D01*
X16627760Y59960717D01*
X16627762Y59960716D01*
X16767634Y59887304D01*
X16921014Y59849500D01*
X16921015Y59849500D01*
X17078985Y59849500D01*
X17232365Y59887304D01*
X17372240Y59960717D01*
X17490483Y60065470D01*
X17580220Y60195477D01*
X17636237Y60343182D01*
X17655278Y60500000D01*
X17646719Y60570495D01*
X17636237Y60656819D01*
X17598512Y60756291D01*
X17580220Y60804523D01*
X17490483Y60934530D01*
X17392272Y61021537D01*
X17355147Y61080724D01*
X17350500Y61114351D01*
X17350500Y63546142D01*
X17350500Y63546144D01*
X17326614Y63635288D01*
X17315894Y63653856D01*
X17280470Y63715212D01*
X14680689Y66314993D01*
X14647204Y66376316D01*
X14645274Y66417616D01*
X14655278Y66500000D01*
X14636237Y66656818D01*
X14580220Y66804523D01*
X14490483Y66934530D01*
X14372240Y67039283D01*
X14372238Y67039284D01*
X14372237Y67039285D01*
X14232365Y67112697D01*
X14078986Y67150500D01*
X14078985Y67150500D01*
X13921015Y67150500D01*
X13921014Y67150500D01*
X13767634Y67112697D01*
X13627762Y67039285D01*
X13509516Y66934529D01*
X13419781Y66804525D01*
X13419780Y66804524D01*
X13363762Y66656819D01*
X13344722Y66500001D01*
X13344722Y66500000D01*
X13363763Y66343182D01*
X13409021Y66223845D01*
X13414388Y66154182D01*
X13381240Y66092676D01*
X13320102Y66058854D01*
X13260120Y66062814D01*
X13259649Y66060901D01*
X13098986Y66100500D01*
X13098985Y66100500D01*
X12941015Y66100500D01*
X12941014Y66100500D01*
X12787634Y66062697D01*
X12644626Y65987639D01*
X12576118Y65973913D01*
X12511064Y65999405D01*
X12470120Y66056021D01*
X12463000Y66097435D01*
X12463000Y66122864D01*
X12463000Y66122872D01*
X12456591Y66182482D01*
X12415333Y66293101D01*
X12406297Y66317328D01*
X12406296Y66317329D01*
X12406296Y66317330D01*
X12320046Y66432546D01*
X12204830Y66518796D01*
X12204828Y66518797D01*
X12204827Y66518798D01*
X12069981Y66569092D01*
X12069982Y66569092D01*
X12010382Y66575499D01*
X12010380Y66575500D01*
X12010372Y66575500D01*
X10989628Y66575500D01*
X10989620Y66575500D01*
X10989617Y66575499D01*
X10930018Y66569092D01*
X10795172Y66518798D01*
X10795170Y66518796D01*
X10679954Y66432546D01*
X10593704Y66317330D01*
X10593702Y66317328D01*
X10543408Y66182482D01*
X10537001Y66122883D01*
X10537000Y66122864D01*
X9488000Y66122864D01*
X9488000Y66122872D01*
X9481591Y66182482D01*
X9440333Y66293101D01*
X9431297Y66317328D01*
X9431296Y66317329D01*
X9431296Y66317330D01*
X9345046Y66432546D01*
X9229830Y66518796D01*
X9229828Y66518797D01*
X9229827Y66518798D01*
X9094981Y66569092D01*
X9094982Y66569092D01*
X9035382Y66575499D01*
X9035380Y66575500D01*
X9035372Y66575500D01*
X9035364Y66575500D01*
X8281899Y66575500D01*
X8214860Y66595185D01*
X8194218Y66611819D01*
X7505563Y67300474D01*
X7505562Y67300475D01*
X7419938Y67349910D01*
X7372186Y67362705D01*
X7372184Y67362706D01*
X7372182Y67362707D01*
X7324436Y67375500D01*
X7324435Y67375500D01*
X6596308Y67375500D01*
X6529269Y67395185D01*
X6494257Y67429062D01*
X6490483Y67434530D01*
X6372240Y67539283D01*
X6372238Y67539284D01*
X6372237Y67539285D01*
X6232365Y67612697D01*
X6078986Y67650500D01*
X6078985Y67650500D01*
X5921015Y67650500D01*
X5921014Y67650500D01*
X5767634Y67612697D01*
X5627762Y67539285D01*
X5509516Y67434530D01*
X5507089Y67431013D01*
X5505742Y67429062D01*
X5451463Y67385071D01*
X5403692Y67375500D01*
X1200564Y67375500D01*
X1105063Y67349911D01*
X1105060Y67349910D01*
X1019440Y67300478D01*
X1019435Y67300474D01*
X519438Y66800475D01*
X449527Y66730565D01*
X400091Y66644940D01*
X400090Y66644937D01*
X378798Y66565474D01*
X378797Y66565471D01*
X374500Y66549436D01*
X374500Y65706899D01*
X354815Y65639860D01*
X338181Y65619218D01*
X-119218Y65161819D01*
X-180541Y65128334D01*
X-206899Y65125500D01*
X-4049436Y65125500D01*
X-4144939Y65099911D01*
X-4230562Y65050475D01*
X-4230565Y65050473D01*
X-5288319Y63992718D01*
X-5349642Y63959233D01*
X-5419334Y63964217D01*
X-5475267Y64006089D01*
X-5499684Y64071553D01*
X-5500000Y64080399D01*
X-5500000Y65576000D01*
X-5480315Y65643039D01*
X-5427511Y65688794D01*
X-5376000Y65700000D01*
X0Y65700000D01*
X0Y69106287D01*
X2149500Y69106287D01*
X2149500Y68893714D01*
X2182753Y68683761D01*
X2248444Y68481586D01*
X2344951Y68292180D01*
X2469890Y68120214D01*
X2620213Y67969891D01*
X2792179Y67844952D01*
X2792181Y67844951D01*
X2792184Y67844949D01*
X2981588Y67748443D01*
X3183757Y67682754D01*
X3393713Y67649500D01*
X3393714Y67649500D01*
X3606286Y67649500D01*
X3606287Y67649500D01*
X3816243Y67682754D01*
X4018412Y67748443D01*
X4207816Y67844949D01*
X4229789Y67860914D01*
X4379786Y67969891D01*
X4379788Y67969894D01*
X4379792Y67969896D01*
X4530104Y68120208D01*
X4530106Y68120212D01*
X4530109Y68120214D01*
X4655048Y68292180D01*
X4655047Y68292180D01*
X4655051Y68292184D01*
X4751557Y68481588D01*
X4817246Y68683757D01*
X4850500Y68893713D01*
X4850500Y69106287D01*
X4817246Y69316243D01*
X4751557Y69518412D01*
X4655051Y69707816D01*
X4655049Y69707819D01*
X4655048Y69707821D01*
X4530109Y69879787D01*
X4509895Y69900001D01*
X5744722Y69900001D01*
X5744722Y69900000D01*
X5763762Y69743182D01*
X5797473Y69654295D01*
X5819780Y69595477D01*
X5909517Y69465470D01*
X6027760Y69360717D01*
X6027762Y69360716D01*
X6167634Y69287304D01*
X6321014Y69249500D01*
X6321015Y69249500D01*
X6478985Y69249500D01*
X6632365Y69287304D01*
X6687503Y69316243D01*
X6772240Y69360717D01*
X6890483Y69465470D01*
X6980220Y69595477D01*
X6980223Y69595488D01*
X6983704Y69602116D01*
X6986366Y69600719D01*
X7020184Y69645414D01*
X7085772Y69669496D01*
X7153968Y69654295D01*
X7203120Y69604637D01*
X7209927Y69589740D01*
X7235743Y69521669D01*
X7274533Y69465472D01*
X7325479Y69391664D01*
X7443722Y69286911D01*
X7443724Y69286910D01*
X7583596Y69213498D01*
X7736976Y69175694D01*
X7736977Y69175694D01*
X7894947Y69175694D01*
X8048327Y69213498D01*
X8116922Y69249500D01*
X8188202Y69286911D01*
X8306445Y69391664D01*
X8396182Y69521671D01*
X8452199Y69669376D01*
X8471240Y69826194D01*
X8462279Y69900000D01*
X8452199Y69983013D01*
X8424208Y70056819D01*
X8396182Y70130717D01*
X8306445Y70260724D01*
X8188202Y70365477D01*
X8188200Y70365478D01*
X8188199Y70365479D01*
X8048327Y70438891D01*
X7894948Y70476694D01*
X7894947Y70476694D01*
X7736977Y70476694D01*
X7736976Y70476694D01*
X7583596Y70438891D01*
X7443724Y70365479D01*
X7325478Y70260723D01*
X7235743Y70130719D01*
X7232258Y70124078D01*
X7229612Y70125467D01*
X7195683Y70080711D01*
X7130072Y70056692D01*
X7061890Y70071957D01*
X7012785Y70121661D01*
X7006034Y70136456D01*
X6998982Y70155051D01*
X6980220Y70204523D01*
X6890483Y70334530D01*
X6772240Y70439283D01*
X6772238Y70439284D01*
X6772237Y70439285D01*
X6632365Y70512697D01*
X6478986Y70550500D01*
X6478985Y70550500D01*
X6321015Y70550500D01*
X6321014Y70550500D01*
X6167634Y70512697D01*
X6027762Y70439285D01*
X5909516Y70334529D01*
X5819781Y70204525D01*
X5819780Y70204524D01*
X5763762Y70056819D01*
X5744722Y69900001D01*
X4509895Y69900001D01*
X4379786Y70030110D01*
X4207820Y70155049D01*
X4018414Y70251556D01*
X4018413Y70251557D01*
X4018412Y70251557D01*
X3816243Y70317246D01*
X3816241Y70317247D01*
X3816240Y70317247D01*
X3654957Y70342792D01*
X3606287Y70350500D01*
X3393713Y70350500D01*
X3345042Y70342792D01*
X3183760Y70317247D01*
X2981585Y70251556D01*
X2792179Y70155049D01*
X2620213Y70030110D01*
X2469890Y69879787D01*
X2344951Y69707821D01*
X2248444Y69518415D01*
X2182753Y69316240D01*
X2149500Y69106287D01*
X0Y69106287D01*
X0Y71376000D01*
X19685Y71443039D01*
X72489Y71488794D01*
X124000Y71500000D01*
X19876000Y71500000D01*
X19943039Y71480315D01*
G37*
%TD.AperFunction*%
%TD*%
M02*
