%TF.GenerationSoftware,KiCad,Pcbnew,8.0.7*%
%TF.CreationDate,2024-12-24T11:10:27-06:00*%
%TF.ProjectId,room_environment_monitor,726f6f6d-5f65-46e7-9669-726f6e6d656e,rev?*%
%TF.SameCoordinates,Original*%
%TF.FileFunction,Copper,L1,Top*%
%TF.FilePolarity,Positive*%
%FSLAX46Y46*%
G04 Gerber Fmt 4.6, Leading zero omitted, Abs format (unit mm)*
G04 Created by KiCad (PCBNEW 8.0.7) date 2024-12-24 11:10:27*
%MOMM*%
%LPD*%
G01*
G04 APERTURE LIST*
G04 Aperture macros list*
%AMRoundRect*
0 Rectangle with rounded corners*
0 $1 Rounding radius*
0 $2 $3 $4 $5 $6 $7 $8 $9 X,Y pos of 4 corners*
0 Add a 4 corners polygon primitive as box body*
4,1,4,$2,$3,$4,$5,$6,$7,$8,$9,$2,$3,0*
0 Add four circle primitives for the rounded corners*
1,1,$1+$1,$2,$3*
1,1,$1+$1,$4,$5*
1,1,$1+$1,$6,$7*
1,1,$1+$1,$8,$9*
0 Add four rect primitives between the rounded corners*
20,1,$1+$1,$2,$3,$4,$5,0*
20,1,$1+$1,$4,$5,$6,$7,0*
20,1,$1+$1,$6,$7,$8,$9,0*
20,1,$1+$1,$8,$9,$2,$3,0*%
%AMFreePoly0*
4,1,6,0.725000,-0.725000,-0.725000,-0.725000,-0.725000,0.125000,-0.125000,0.725000,0.725000,0.725000,0.725000,-0.725000,0.725000,-0.725000,$1*%
G04 Aperture macros list end*
%TA.AperFunction,SMDPad,CuDef*%
%ADD10R,0.400000X0.800000*%
%TD*%
%TA.AperFunction,SMDPad,CuDef*%
%ADD11R,0.800000X0.400000*%
%TD*%
%TA.AperFunction,SMDPad,CuDef*%
%ADD12FreePoly0,90.000000*%
%TD*%
%TA.AperFunction,SMDPad,CuDef*%
%ADD13R,1.450000X1.450000*%
%TD*%
%TA.AperFunction,SMDPad,CuDef*%
%ADD14R,0.700000X0.700000*%
%TD*%
%TA.AperFunction,SMDPad,CuDef*%
%ADD15RoundRect,0.200000X0.275000X-0.200000X0.275000X0.200000X-0.275000X0.200000X-0.275000X-0.200000X0*%
%TD*%
%TA.AperFunction,SMDPad,CuDef*%
%ADD16RoundRect,0.200000X-0.275000X0.200000X-0.275000X-0.200000X0.275000X-0.200000X0.275000X0.200000X0*%
%TD*%
%TA.AperFunction,SMDPad,CuDef*%
%ADD17RoundRect,0.200000X0.200000X0.275000X-0.200000X0.275000X-0.200000X-0.275000X0.200000X-0.275000X0*%
%TD*%
%TA.AperFunction,SMDPad,CuDef*%
%ADD18RoundRect,0.225000X-0.225000X-0.250000X0.225000X-0.250000X0.225000X0.250000X-0.225000X0.250000X0*%
%TD*%
%TA.AperFunction,SMDPad,CuDef*%
%ADD19RoundRect,0.150000X-0.587500X-0.150000X0.587500X-0.150000X0.587500X0.150000X-0.587500X0.150000X0*%
%TD*%
%TA.AperFunction,SMDPad,CuDef*%
%ADD20RoundRect,0.150000X0.150000X-0.512500X0.150000X0.512500X-0.150000X0.512500X-0.150000X-0.512500X0*%
%TD*%
%TA.AperFunction,SMDPad,CuDef*%
%ADD21RoundRect,0.200000X-0.200000X-0.275000X0.200000X-0.275000X0.200000X0.275000X-0.200000X0.275000X0*%
%TD*%
%TA.AperFunction,SMDPad,CuDef*%
%ADD22R,0.711200X2.006600*%
%TD*%
%TA.AperFunction,SMDPad,CuDef*%
%ADD23R,0.812800X2.006600*%
%TD*%
%TA.AperFunction,SMDPad,CuDef*%
%ADD24R,0.889000X2.006600*%
%TD*%
%TA.AperFunction,ComponentPad*%
%ADD25O,1.066800X1.701800*%
%TD*%
%TA.AperFunction,SMDPad,CuDef*%
%ADD26R,0.500000X0.350000*%
%TD*%
%TA.AperFunction,SMDPad,CuDef*%
%ADD27C,1.000000*%
%TD*%
%TA.AperFunction,SMDPad,CuDef*%
%ADD28R,0.355600X0.660400*%
%TD*%
%TA.AperFunction,SMDPad,CuDef*%
%ADD29R,1.701800X1.244600*%
%TD*%
%TA.AperFunction,SMDPad,CuDef*%
%ADD30RoundRect,0.225000X-0.250000X0.225000X-0.250000X-0.225000X0.250000X-0.225000X0.250000X0.225000X0*%
%TD*%
%TA.AperFunction,SMDPad,CuDef*%
%ADD31R,3.352800X0.711200*%
%TD*%
%TA.AperFunction,SMDPad,CuDef*%
%ADD32R,2.387600X1.600200*%
%TD*%
%TA.AperFunction,SMDPad,CuDef*%
%ADD33RoundRect,0.062500X0.117500X0.062500X-0.117500X0.062500X-0.117500X-0.062500X0.117500X-0.062500X0*%
%TD*%
%TA.AperFunction,SMDPad,CuDef*%
%ADD34RoundRect,0.218750X0.256250X-0.218750X0.256250X0.218750X-0.256250X0.218750X-0.256250X-0.218750X0*%
%TD*%
%TA.AperFunction,SMDPad,CuDef*%
%ADD35RoundRect,0.225000X0.250000X-0.225000X0.250000X0.225000X-0.250000X0.225000X-0.250000X-0.225000X0*%
%TD*%
%TA.AperFunction,SMDPad,CuDef*%
%ADD36RoundRect,0.200000X0.450000X-0.200000X0.450000X0.200000X-0.450000X0.200000X-0.450000X-0.200000X0*%
%TD*%
%TA.AperFunction,SMDPad,CuDef*%
%ADD37RoundRect,0.250001X1.249999X-0.799999X1.249999X0.799999X-1.249999X0.799999X-1.249999X-0.799999X0*%
%TD*%
%TA.AperFunction,SMDPad,CuDef*%
%ADD38RoundRect,0.225000X0.225000X0.250000X-0.225000X0.250000X-0.225000X-0.250000X0.225000X-0.250000X0*%
%TD*%
%TA.AperFunction,SMDPad,CuDef*%
%ADD39R,0.900000X1.000000*%
%TD*%
%TA.AperFunction,SMDPad,CuDef*%
%ADD40R,0.750000X0.300000*%
%TD*%
%TA.AperFunction,SMDPad,CuDef*%
%ADD41R,1.300000X1.500000*%
%TD*%
%TA.AperFunction,SMDPad,CuDef*%
%ADD42RoundRect,0.250000X-0.300000X0.300000X-0.300000X-0.300000X0.300000X-0.300000X0.300000X0.300000X0*%
%TD*%
%TA.AperFunction,ViaPad*%
%ADD43C,0.800000*%
%TD*%
%TA.AperFunction,ViaPad*%
%ADD44C,1.200000*%
%TD*%
%TA.AperFunction,ViaPad*%
%ADD45C,0.600000*%
%TD*%
%TA.AperFunction,Conductor*%
%ADD46C,0.200000*%
%TD*%
%TA.AperFunction,Conductor*%
%ADD47C,0.250000*%
%TD*%
%TA.AperFunction,Conductor*%
%ADD48C,0.400000*%
%TD*%
%TA.AperFunction,Conductor*%
%ADD49C,0.300000*%
%TD*%
%TA.AperFunction,Conductor*%
%ADD50C,0.600000*%
%TD*%
%TA.AperFunction,Conductor*%
%ADD51C,0.150000*%
%TD*%
G04 APERTURE END LIST*
D10*
%TO.P,U2,1,GND*%
%TO.N,GND*%
X-3900000Y50700000D03*
%TO.P,U2,2,GND*%
X-3100000Y50700000D03*
%TO.P,U2,3,3V3*%
%TO.N,+3V3*%
X-2300000Y50700000D03*
%TO.P,U2,4,NC*%
%TO.N,unconnected-(U2-NC-Pad4)*%
X-1500000Y50700000D03*
%TO.P,U2,5,GPIO2/ADC1_CH2*%
%TO.N,unconnected-(U2-GPIO2{slash}ADC1_CH2-Pad5)*%
X-700000Y50700000D03*
%TO.P,U2,6,GPIO3/ADC1_CH3*%
%TO.N,PD*%
X100000Y50700000D03*
%TO.P,U2,7,NC*%
%TO.N,unconnected-(U2-NC-Pad7)*%
X900000Y50700000D03*
%TO.P,U2,8,EN/CHIP_PU*%
%TO.N,EN*%
X1700000Y50700000D03*
%TO.P,U2,9,NC*%
%TO.N,unconnected-(U2-NC-Pad9)*%
X2500000Y50700000D03*
%TO.P,U2,10,NC*%
%TO.N,unconnected-(U2-NC-Pad10)*%
X3300000Y50700000D03*
%TO.P,U2,11,GND*%
%TO.N,GND*%
X4100000Y50700000D03*
D11*
%TO.P,U2,12,GPIO0/ADC1_CH0/XTAL_32K_P*%
%TO.N,unconnected-(U2-GPIO0{slash}ADC1_CH0{slash}XTAL_32K_P-Pad12)*%
X5000000Y51800000D03*
%TO.P,U2,13,GPIO1/ADC1_CH1/XTAL_32K_N*%
%TO.N,unconnected-(U2-GPIO1{slash}ADC1_CH1{slash}XTAL_32K_N-Pad13)*%
X5000000Y52600000D03*
%TO.P,U2,14,GND*%
%TO.N,GND*%
X5000000Y53400000D03*
%TO.P,U2,15,NC*%
%TO.N,unconnected-(U2-NC-Pad15)*%
X5000000Y54200000D03*
%TO.P,U2,16,GPIO10*%
%TO.N,FAN*%
X5000000Y55000000D03*
%TO.P,U2,17,NC*%
%TO.N,unconnected-(U2-NC-Pad17)*%
X5000000Y55800000D03*
%TO.P,U2,18,GPIO4/ADC1_CH4*%
%TO.N,UART1_RX*%
X5000000Y56600000D03*
%TO.P,U2,19,GPIO5/ADC2_CH0*%
%TO.N,UART1_TX_LVL*%
X5000000Y57400000D03*
%TO.P,U2,20,GPIO6*%
%TO.N,I2C_SCL*%
X5000000Y58200000D03*
%TO.P,U2,21,GPIO7*%
%TO.N,I2C_SDA*%
X5000000Y59000000D03*
%TO.P,U2,22,GPIO8*%
%TO.N,NEOPIXEL*%
X5000000Y59800000D03*
%TO.P,U2,23,GPIO9*%
%TO.N,BOOT*%
X5000000Y60600000D03*
%TO.P,U2,24,NC*%
%TO.N,unconnected-(U2-NC-Pad24)*%
X5000000Y61400000D03*
D10*
%TO.P,U2,25,NC*%
%TO.N,unconnected-(U2-NC-Pad25)*%
X4100000Y62500000D03*
%TO.P,U2,26,GPIO18/USB_D-*%
%TO.N,unconnected-(U2-GPIO18{slash}USB_D--Pad26)*%
X3300000Y62500000D03*
%TO.P,U2,27,GPIO19/USB_D+*%
%TO.N,unconnected-(U2-GPIO19{slash}USB_D+-Pad27)*%
X2500000Y62500000D03*
%TO.P,U2,28,NC*%
%TO.N,unconnected-(U2-NC-Pad28)*%
X1700000Y62500000D03*
%TO.P,U2,29,NC*%
%TO.N,unconnected-(U2-NC-Pad29)*%
X900000Y62500000D03*
%TO.P,U2,30,GPIO20/U0RXD*%
%TO.N,UART_RX*%
X100000Y62500000D03*
%TO.P,U2,31,GPIO21/U0TXD*%
%TO.N,UART_TX*%
X-700000Y62500000D03*
%TO.P,U2,32,NC*%
%TO.N,unconnected-(U2-NC-Pad32)*%
X-1500000Y62500000D03*
%TO.P,U2,33,NC*%
%TO.N,unconnected-(U2-NC-Pad33)*%
X-2300000Y62500000D03*
%TO.P,U2,34,NC*%
%TO.N,unconnected-(U2-NC-Pad34)*%
X-3100000Y62500000D03*
%TO.P,U2,35,NC*%
%TO.N,unconnected-(U2-NC-Pad35)*%
X-3900000Y62500000D03*
D11*
%TO.P,U2,36,GND*%
%TO.N,GND*%
X-4800000Y61400000D03*
%TO.P,U2,37,GND*%
X-4800000Y60600000D03*
%TO.P,U2,38,GND*%
X-4800000Y59800000D03*
%TO.P,U2,39,GND*%
X-4800000Y59000000D03*
%TO.P,U2,40,GND*%
X-4800000Y58200000D03*
%TO.P,U2,41,GND*%
X-4800000Y57400000D03*
%TO.P,U2,42,GND*%
X-4800000Y56600000D03*
%TO.P,U2,43,GND*%
X-4800000Y55800000D03*
%TO.P,U2,44,GND*%
X-4800000Y55000000D03*
%TO.P,U2,45,GND*%
X-4800000Y54200000D03*
%TO.P,U2,46,GND*%
X-4800000Y53400000D03*
%TO.P,U2,47,GND*%
X-4800000Y52600000D03*
%TO.P,U2,48,GND*%
X-4800000Y51800000D03*
D12*
%TO.P,U2,49,GND*%
X-1875000Y54625000D03*
D13*
X100000Y54625000D03*
X2075000Y54625000D03*
X-1875000Y56600000D03*
X100000Y56600000D03*
X2075000Y56600000D03*
X-1875000Y58575000D03*
X100000Y58575000D03*
X2075000Y58575000D03*
D14*
%TO.P,U2,50,GND*%
X-4850000Y62550000D03*
%TO.P,U2,51,GND*%
X5050000Y62550000D03*
%TO.P,U2,52,GND*%
X5050000Y50650000D03*
%TO.P,U2,53,GND*%
X-4850000Y50650000D03*
%TD*%
D15*
%TO.P,R3,1*%
%TO.N,+3V3*%
X17600000Y46437500D03*
%TO.P,R3,2*%
%TO.N,Net-(U4-SDO)*%
X17600000Y48087500D03*
%TD*%
D16*
%TO.P,R9,1*%
%TO.N,Net-(J2-Pin_2)*%
X12250000Y69075000D03*
%TO.P,R9,2*%
%TO.N,UART1_TX*%
X12250000Y67425000D03*
%TD*%
%TO.P,R13,1*%
%TO.N,+5V*%
X10500000Y69075000D03*
%TO.P,R13,2*%
%TO.N,UART1_TX*%
X10500000Y67425000D03*
%TD*%
D17*
%TO.P,R8,1*%
%TO.N,Net-(J2-Pin_1)*%
X9825000Y62000000D03*
%TO.P,R8,2*%
%TO.N,UART1_RX*%
X8175000Y62000000D03*
%TD*%
D18*
%TO.P,C1,1*%
%TO.N,EN*%
X5150000Y48500000D03*
%TO.P,C1,2*%
%TO.N,GND*%
X6700000Y48500000D03*
%TD*%
%TO.P,C2,1*%
%TO.N,+3V3*%
X9225000Y52250000D03*
%TO.P,C2,2*%
%TO.N,GND*%
X10775000Y52250000D03*
%TD*%
D19*
%TO.P,Q3,1,G*%
%TO.N,FAN*%
X20625000Y49200000D03*
%TO.P,Q3,2,S*%
%TO.N,GND*%
X20625000Y47300000D03*
%TO.P,Q3,3,D*%
%TO.N,Net-(D1-A)*%
X22500000Y48250000D03*
%TD*%
D20*
%TO.P,U5,1,VIN*%
%TO.N,+5V*%
X6625000Y5737500D03*
%TO.P,U5,2,GND*%
%TO.N,GND*%
X7575000Y5737500D03*
%TO.P,U5,3,EN*%
%TO.N,+5V*%
X8525000Y5737500D03*
%TO.P,U5,4,NC*%
%TO.N,unconnected-(U5-NC-Pad4)*%
X8525000Y8012500D03*
%TO.P,U5,5,VOUT*%
%TO.N,+3V3*%
X6625000Y8012500D03*
%TD*%
D21*
%TO.P,R11,1*%
%TO.N,I2C_SCL*%
X8175000Y58500000D03*
%TO.P,R11,2*%
%TO.N,+3V3*%
X9825000Y58500000D03*
%TD*%
D22*
%TO.P,P1,A5,CC*%
%TO.N,Net-(P1-CC)*%
X10499999Y-600002D03*
D23*
%TO.P,P1,A9,VBUS*%
%TO.N,+5V*%
X8480000Y-600002D03*
D24*
%TO.P,P1,A12,GND*%
%TO.N,GND*%
X7250000Y-600002D03*
D22*
%TO.P,P1,B5,VCONN*%
%TO.N,Net-(P1-VCONN)*%
X9500001Y-600002D03*
D23*
%TO.P,P1,B9,VBUS*%
%TO.N,+5V*%
X11520000Y-600002D03*
D24*
%TO.P,P1,B12,GND*%
%TO.N,GND*%
X12750000Y-600002D03*
D25*
%TO.P,P1,S1,SHIELD*%
X14269999Y-1400003D03*
X5730001Y-1400003D03*
%TD*%
D26*
%TO.P,U4,1,GND*%
%TO.N,GND*%
X14100000Y46212500D03*
%TO.P,U4,2,CSB*%
%TO.N,+3V3*%
X14100000Y46862500D03*
%TO.P,U4,3,SDI*%
%TO.N,I2C_SDA*%
X14100000Y47512500D03*
%TO.P,U4,4,SCK*%
%TO.N,I2C_SCL*%
X14100000Y48162500D03*
%TO.P,U4,5,SDO*%
%TO.N,Net-(U4-SDO)*%
X16150000Y48162500D03*
%TO.P,U4,6,VDDIO*%
%TO.N,+3V3*%
X16150000Y47512500D03*
%TO.P,U4,7,GND*%
%TO.N,GND*%
X16150000Y46862500D03*
%TO.P,U4,8,VDD*%
%TO.N,+3V3*%
X16150000Y46212500D03*
%TD*%
D27*
%TO.P,TP4,1,1*%
%TO.N,+3V3*%
X9900000Y11400000D03*
%TD*%
D28*
%TO.P,U3,1,VDD*%
%TO.N,/Sensors/SGP30_VDD*%
X8750000Y48250000D03*
%TO.P,U3,2,VSS*%
%TO.N,GND*%
X9550001Y48250000D03*
%TO.P,U3,3,SDA*%
%TO.N,I2C_SDA*%
X10350002Y48250000D03*
%TO.P,U3,4,R*%
%TO.N,GND*%
X10350002Y50637600D03*
%TO.P,U3,5,VDDH*%
%TO.N,+3V3*%
X9550001Y50637600D03*
%TO.P,U3,6,SCL*%
%TO.N,I2C_SCL*%
X8750000Y50637600D03*
D29*
%TO.P,U3,7,PAD*%
%TO.N,GND*%
X9550001Y49443800D03*
%TD*%
D30*
%TO.P,C7,1*%
%TO.N,+5V*%
X11750000Y59025000D03*
%TO.P,C7,2*%
%TO.N,GND*%
X11750000Y57475000D03*
%TD*%
D15*
%TO.P,R15,1*%
%TO.N,Net-(R15-Pad1)*%
X12500000Y5550000D03*
%TO.P,R15,2*%
%TO.N,GND*%
X12500000Y7200000D03*
%TD*%
D31*
%TO.P,J2,1,Pin_1*%
%TO.N,Net-(J2-Pin_1)*%
X14645800Y62000001D03*
%TO.P,J2,2,Pin_2*%
%TO.N,Net-(J2-Pin_2)*%
X14645800Y60500001D03*
%TO.P,J2,3,Pin_3*%
%TO.N,+5V*%
X14645800Y58999999D03*
%TO.P,J2,4,Pin_4*%
%TO.N,GND*%
X14645800Y57499999D03*
D32*
%TO.P,J2,5*%
%TO.N,N/C*%
X16528448Y64050002D03*
%TO.P,J2,6*%
X16528448Y55449998D03*
%TD*%
D27*
%TO.P,TP2,1,1*%
%TO.N,Net-(J2-Pin_1)*%
X17600000Y67200000D03*
%TD*%
D18*
%TO.P,C11,1*%
%TO.N,+3V3*%
X6550000Y9875000D03*
%TO.P,C11,2*%
%TO.N,GND*%
X8100000Y9875000D03*
%TD*%
D33*
%TO.P,D7,1,K*%
%TO.N,+5V*%
X11705000Y3850000D03*
%TO.P,D7,2,A*%
%TO.N,GND*%
X12545000Y3850000D03*
%TD*%
D16*
%TO.P,R12,1*%
%TO.N,+3V3*%
X8750000Y69075000D03*
%TO.P,R12,2*%
%TO.N,UART1_TX_LVL*%
X8750000Y67425000D03*
%TD*%
%TO.P,R14,1*%
%TO.N,GND*%
X7000000Y69037500D03*
%TO.P,R14,2*%
%TO.N,PD*%
X7000000Y67387500D03*
%TD*%
D21*
%TO.P,R10,1*%
%TO.N,I2C_SDA*%
X8175000Y60250000D03*
%TO.P,R10,2*%
%TO.N,+3V3*%
X9825000Y60250000D03*
%TD*%
D17*
%TO.P,R1,1*%
%TO.N,+3V3*%
X6750000Y46750000D03*
%TO.P,R1,2*%
%TO.N,EN*%
X5100000Y46750000D03*
%TD*%
D15*
%TO.P,R20,1*%
%TO.N,Net-(R20-Pad1)*%
X10500000Y5550000D03*
%TO.P,R20,2*%
%TO.N,GND*%
X10500000Y7200000D03*
%TD*%
D34*
%TO.P,D2,1,K*%
%TO.N,GND*%
X1575000Y7337500D03*
%TO.P,D2,2,A*%
%TO.N,Net-(D2-A)*%
X1575000Y8912500D03*
%TD*%
D35*
%TO.P,C10,1*%
%TO.N,+5V*%
X4825000Y5600000D03*
%TO.P,C10,2*%
%TO.N,GND*%
X4825000Y7150000D03*
%TD*%
D17*
%TO.P,R5,1*%
%TO.N,UART_TX*%
X-1575000Y64500000D03*
%TO.P,R5,2*%
%TO.N,Net-(R5-Pad2)*%
X-3225000Y64500000D03*
%TD*%
D36*
%TO.P,J1,1,Pin_1*%
%TO.N,Net-(D1-A)*%
X24825000Y49350000D03*
%TO.P,J1,2,Pin_2*%
%TO.N,+5V*%
X24825000Y50600000D03*
D37*
%TO.P,J1,MP*%
%TO.N,N/C*%
X27575000Y46800000D03*
X27575000Y53150000D03*
%TD*%
D21*
%TO.P,R6,1*%
%TO.N,UART_RX*%
X175000Y64500000D03*
%TO.P,R6,2*%
%TO.N,Net-(R6-Pad2)*%
X1825000Y64500000D03*
%TD*%
D16*
%TO.P,R16,1*%
%TO.N,+3V3*%
X11600000Y64750000D03*
%TO.P,R16,2*%
%TO.N,NEOPIXEL*%
X11600000Y63100000D03*
%TD*%
D38*
%TO.P,C5,1*%
%TO.N,+3V3*%
X15875000Y44762500D03*
%TO.P,C5,2*%
%TO.N,GND*%
X14325000Y44762500D03*
%TD*%
D39*
%TO.P,SW1,1,A*%
%TO.N,GND*%
X3400000Y46900000D03*
X-700000Y46900000D03*
%TO.P,SW1,2,B*%
%TO.N,EN*%
X3400000Y48500000D03*
X-700000Y48500000D03*
%TD*%
D40*
%TO.P,U1,1,NC*%
%TO.N,unconnected-(U1-NC-Pad1)*%
X16175000Y51175000D03*
%TO.P,U1,2,NC*%
%TO.N,unconnected-(U1-NC-Pad2)*%
X16175000Y51675000D03*
%TO.P,U1,3,NC*%
%TO.N,unconnected-(U1-NC-Pad3)*%
X16175000Y52175000D03*
%TO.P,U1,4,GND*%
%TO.N,GND*%
X16175000Y52675000D03*
%TO.P,U1,5,SDA*%
%TO.N,I2C_SDA*%
X13275000Y52675000D03*
%TO.P,U1,6,SCL*%
%TO.N,I2C_SCL*%
X13275000Y52175000D03*
%TO.P,U1,7,NC*%
%TO.N,unconnected-(U1-NC-Pad7)*%
X13275000Y51675000D03*
%TO.P,U1,8,VCC*%
%TO.N,+3V3*%
X13275000Y51175000D03*
D41*
%TO.P,U1,9,EP*%
%TO.N,GND*%
X14725000Y51925000D03*
%TD*%
D17*
%TO.P,R2,1*%
%TO.N,+3V3*%
X4900000Y8875000D03*
%TO.P,R2,2*%
%TO.N,Net-(D2-A)*%
X3250000Y8875000D03*
%TD*%
D30*
%TO.P,C4,1*%
%TO.N,/Sensors/SGP30_VDD*%
X8750000Y46775000D03*
%TO.P,C4,2*%
%TO.N,GND*%
X8750000Y45225000D03*
%TD*%
D15*
%TO.P,R4,1*%
%TO.N,+3V3*%
X10500000Y45175000D03*
%TO.P,R4,2*%
%TO.N,/Sensors/SGP30_VDD*%
X10500000Y46825000D03*
%TD*%
D30*
%TO.P,C3,1*%
%TO.N,+3V3*%
X-2600000Y48475000D03*
%TO.P,C3,2*%
%TO.N,GND*%
X-2600000Y46925000D03*
%TD*%
D27*
%TO.P,TP3,1,1*%
%TO.N,Net-(J2-Pin_2)*%
X15200000Y67200000D03*
%TD*%
D30*
%TO.P,C6,1*%
%TO.N,+3V3*%
X-4400000Y48475000D03*
%TO.P,C6,2*%
%TO.N,GND*%
X-4400000Y46925000D03*
%TD*%
D42*
%TO.P,D1,1,K*%
%TO.N,+5V*%
X22275000Y53750000D03*
%TO.P,D1,2,A*%
%TO.N,Net-(D1-A)*%
X22275000Y50950000D03*
%TD*%
D21*
%TO.P,R7,1*%
%TO.N,+3V3*%
X3575000Y64500000D03*
%TO.P,R7,2*%
%TO.N,BOOT*%
X5225000Y64500000D03*
%TD*%
D18*
%TO.P,C8,1*%
%TO.N,+3V3*%
X13300000Y49700000D03*
%TO.P,C8,2*%
%TO.N,GND*%
X14850000Y49700000D03*
%TD*%
D27*
%TO.P,TP1,1,1*%
%TO.N,FAN*%
X20000000Y51500000D03*
%TD*%
D19*
%TO.P,Q1,1,G*%
%TO.N,+3V3*%
X7625000Y65700000D03*
%TO.P,Q1,2,S*%
%TO.N,UART1_TX_LVL*%
X7625000Y63800000D03*
%TO.P,Q1,3,D*%
%TO.N,UART1_TX*%
X9500000Y64750000D03*
%TD*%
D43*
%TO.N,EN*%
X1600000Y51900000D03*
%TO.N,GND*%
X3575000Y7125000D03*
X-4500000Y45700000D03*
X-2575000Y45750000D03*
X7600000Y45600000D03*
D44*
X17000000Y57500000D03*
D43*
X9325000Y9875000D03*
X10575000Y8375000D03*
X6400000Y69900000D03*
X-2000000Y56500000D03*
X6000000Y3750000D03*
X13200000Y44600000D03*
X4500000Y63500000D03*
X7600000Y55700000D03*
X-2000000Y58500000D03*
X6000000Y2000000D03*
X15300000Y48600000D03*
X9550001Y49443800D03*
D44*
X20700000Y46200000D03*
D43*
X2000000Y56500000D03*
X9200000Y42200000D03*
X14250000Y3750000D03*
X5985081Y47695381D03*
X-2000000Y54700000D03*
X13000000Y3000000D03*
X14700000Y51900000D03*
X9200000Y30400000D03*
X13580000Y7130000D03*
X14250000Y2000000D03*
X7000000Y3000000D03*
X-825000Y45750000D03*
X12100000Y56400000D03*
%TO.N,BOOT*%
X4000000Y60500000D03*
%TO.N,+3V3*%
X11800000Y45100000D03*
X17000000Y44600000D03*
X12600000Y63925000D03*
X6400000Y65700000D03*
X8100000Y52300000D03*
X5075000Y11375000D03*
X13964711Y50443781D03*
X13020000Y65450000D03*
X7815962Y69826194D03*
X-4462299Y49437701D03*
X13200000Y46800000D03*
X5075000Y10375000D03*
X6325000Y11375000D03*
D45*
X10600000Y60900000D03*
D43*
X-2250000Y51750000D03*
X3600000Y65700000D03*
X17650000Y45437500D03*
X6000000Y45750000D03*
%TO.N,+5V*%
X10250000Y70000000D03*
D44*
X17000000Y59000000D03*
D43*
X9500000Y2000000D03*
X11500000Y2950000D03*
X9500000Y3750000D03*
X24300000Y52500000D03*
X11500000Y1500000D03*
%TO.N,NEOPIXEL*%
X10657911Y62763492D03*
X3250000Y61250000D03*
D45*
%TO.N,UART1_RX*%
X7400000Y61200000D03*
X5900000Y56600000D03*
%TO.N,FAN*%
X11200000Y53900000D03*
X20600000Y50100000D03*
%TO.N,UART1_TX_LVL*%
X7100000Y62400000D03*
X5900000Y57600000D03*
D43*
%TO.N,I2C_SDA*%
X12300000Y52700000D03*
X14949051Y47664137D03*
%TO.N,Net-(P1-VCONN)*%
X12120000Y4750000D03*
X9500000Y700000D03*
%TO.N,Net-(J3-Pin_5)*%
X1800000Y65700000D03*
%TO.N,Net-(J3-Pin_6)*%
X-3600000Y63700000D03*
%TO.N,Net-(J2-Pin_2)*%
X17000000Y60500000D03*
X14000000Y66500000D03*
%TO.N,PD*%
X6000000Y67000000D03*
X0Y49750000D03*
%TD*%
D46*
%TO.N,EN*%
X1700000Y50700000D02*
X1700000Y48550000D01*
X1750000Y48500000D02*
X3400000Y48500000D01*
X1700000Y50700000D02*
X1700000Y51800000D01*
X5150000Y48500000D02*
X5150000Y46800000D01*
X1700000Y51800000D02*
X1600000Y51900000D01*
X1700000Y48550000D02*
X1750000Y48500000D01*
X1750000Y48500000D02*
X-700000Y48500000D01*
X3400000Y48500000D02*
X5150000Y48500000D01*
%TO.N,GND*%
X8750000Y45225000D02*
X7975000Y45225000D01*
X9550001Y48250000D02*
X9550001Y49443800D01*
D47*
X7000000Y69300000D02*
X6400000Y69900000D01*
D46*
X7975000Y45225000D02*
X7600000Y45600000D01*
X15125000Y46212500D02*
X15775000Y46862500D01*
X14100000Y46212500D02*
X14100000Y44987500D01*
X9550001Y49443800D02*
X10350002Y50243801D01*
D48*
X11750000Y56750000D02*
X12100000Y56400000D01*
X14325000Y44762500D02*
X13362500Y44762500D01*
D46*
X10350002Y50637600D02*
X10350002Y51825002D01*
X10350002Y50243801D02*
X10350002Y50637600D01*
X15475000Y52675000D02*
X14725000Y51925000D01*
D48*
X-2575000Y46975000D02*
X-2575000Y45750000D01*
X3362500Y7337500D02*
X3575000Y7125000D01*
D46*
X10350002Y51825002D02*
X10775000Y52250000D01*
X14850000Y49700000D02*
X14850000Y49050000D01*
D48*
X11750000Y57475000D02*
X11750000Y56750000D01*
D46*
X6700000Y48410300D02*
X5985081Y47695381D01*
D48*
X-700000Y46900000D02*
X-700000Y45875000D01*
X4825000Y7150000D02*
X3600000Y7150000D01*
X3600000Y7150000D02*
X3575000Y7125000D01*
D46*
X16175000Y52675000D02*
X15475000Y52675000D01*
X14100000Y46212500D02*
X15125000Y46212500D01*
X13510000Y7200000D02*
X13580000Y7130000D01*
D48*
X14645800Y57499999D02*
X17000000Y57500000D01*
X20625000Y47300000D02*
X20625000Y46275000D01*
X-4850000Y62550000D02*
X-4850000Y61450000D01*
D46*
X10575000Y7200000D02*
X10575000Y8375000D01*
X15775000Y46862500D02*
X16150000Y46862500D01*
X5050000Y62950000D02*
X4500000Y63500000D01*
D48*
X-4500000Y46975000D02*
X-4500000Y45700000D01*
D46*
X14850000Y49050000D02*
X15300000Y48600000D01*
D48*
X13362500Y44762500D02*
X13200000Y44600000D01*
D46*
X12500000Y7200000D02*
X13510000Y7200000D01*
D48*
X20625000Y46275000D02*
X20700000Y46200000D01*
D46*
X5050000Y62550000D02*
X5050000Y62950000D01*
X3400000Y46900000D02*
X-700000Y46900000D01*
D48*
X-700000Y45875000D02*
X-825000Y45750000D01*
X1575000Y7337500D02*
X3362500Y7337500D01*
X-4850000Y61450000D02*
X-4800000Y61400000D01*
X8100000Y9875000D02*
X9325000Y9875000D01*
D46*
%TO.N,BOOT*%
X5000000Y60600000D02*
X4100000Y60600000D01*
X5000000Y60600000D02*
X5600000Y60600000D01*
X5600000Y60600000D02*
X5700000Y60700000D01*
X4100000Y60600000D02*
X4000000Y60500000D01*
X5700000Y60700000D02*
X5700000Y64025000D01*
X5700000Y64025000D02*
X5225000Y64500000D01*
%TO.N,+3V3*%
X16150000Y46212500D02*
X16150000Y45037500D01*
X13612500Y46862500D02*
X13200000Y46800000D01*
X7200000Y65700000D02*
X6400000Y65700000D01*
X14100000Y46862500D02*
X13612500Y46862500D01*
X3575000Y64500000D02*
X3575000Y65675000D01*
X6350000Y11400000D02*
X9900000Y11400000D01*
X9550001Y51924999D02*
X9225000Y52250000D01*
D49*
X-2300000Y48800000D02*
X-2300000Y50700000D01*
D48*
X15875000Y44762500D02*
X16837500Y44762500D01*
D46*
X16150000Y47512500D02*
X16525000Y47512500D01*
X17600000Y46437500D02*
X17600000Y45362500D01*
D49*
X-2300000Y50700000D02*
X-2300000Y51700000D01*
D46*
X9550001Y50637600D02*
X9550001Y51924999D01*
D48*
X-4400000Y49375402D02*
X-4462299Y49437701D01*
D46*
X3575000Y65675000D02*
X3600000Y65700000D01*
X13200000Y46800000D02*
X13487500Y46862500D01*
D49*
X-2575000Y48525000D02*
X-2300000Y48800000D01*
D46*
X13487500Y46862500D02*
X13550000Y46862500D01*
X9950000Y60250000D02*
X10600000Y60900000D01*
X13300000Y49700000D02*
X13300000Y51150000D01*
D50*
X6625000Y8125000D02*
X5875000Y8875000D01*
D46*
X13300000Y49779070D02*
X13964711Y50443781D01*
D48*
X16837500Y44762500D02*
X17000000Y44600000D01*
D46*
X9225000Y52250000D02*
X8150000Y52250000D01*
X13300000Y49700000D02*
X13300000Y49779070D01*
X11725000Y45175000D02*
X11800000Y45100000D01*
D48*
X-4400000Y48475000D02*
X-4400000Y49375402D01*
D46*
X10500000Y45175000D02*
X11725000Y45175000D01*
D47*
X11775000Y64750000D02*
X12600000Y63925000D01*
D48*
X-4400000Y48475000D02*
X-2600000Y48475000D01*
D46*
X6750000Y46575000D02*
X5925000Y45750000D01*
D49*
X-2300000Y51700000D02*
X-2250000Y51750000D01*
D46*
X8150000Y52250000D02*
X8100000Y52300000D01*
X6325000Y11375000D02*
X6350000Y11400000D01*
X8567156Y69075000D02*
X7815962Y69826194D01*
X16525000Y47512500D02*
X17600000Y46437500D01*
X16150000Y46212500D02*
X17375000Y46212500D01*
X9825000Y58500000D02*
X9825000Y60250000D01*
%TO.N,/Sensors/SGP30_VDD*%
X10500000Y46825000D02*
X8800000Y46825000D01*
X8750000Y48250000D02*
X8750000Y46875000D01*
D50*
%TO.N,+5V*%
X8525000Y5737500D02*
X8525000Y1204998D01*
D46*
X10500000Y69750000D02*
X10250000Y70000000D01*
D50*
X22275000Y53750000D02*
X23000000Y53750000D01*
X7155760Y6900000D02*
X7994239Y6900000D01*
X24750000Y52000000D02*
X24825000Y51925000D01*
X24000000Y52750000D02*
X24250000Y52500000D01*
X24300000Y52500000D02*
X24300000Y52450000D01*
X7994239Y6900000D02*
X8525000Y6369239D01*
D46*
X10500000Y69075000D02*
X10500000Y69750000D01*
D48*
X14645800Y58999999D02*
X17000000Y59000000D01*
D50*
X24825000Y51925000D02*
X24825000Y50600000D01*
X6487500Y5600000D02*
X6625000Y5737500D01*
D48*
X14645800Y58999999D02*
X11775001Y58999999D01*
D50*
X24300000Y52450000D02*
X24750000Y52000000D01*
X6625000Y6369239D02*
X7155760Y6900000D01*
X4825000Y5600000D02*
X6487500Y5600000D01*
X6625000Y5737500D02*
X6625000Y6369239D01*
X23000000Y53750000D02*
X24000000Y52750000D01*
X24250000Y52500000D02*
X24300000Y52500000D01*
X8525000Y6369239D02*
X8525000Y5737500D01*
%TO.N,Net-(D1-A)*%
X22500000Y48250000D02*
X23600000Y49350000D01*
X23875000Y49350000D02*
X24825000Y49350000D01*
X22275000Y50950000D02*
X23875000Y49350000D01*
X23600000Y49350000D02*
X23875000Y49350000D01*
D48*
%TO.N,Net-(D2-A)*%
X1575000Y8912500D02*
X3212500Y8912500D01*
D46*
%TO.N,NEOPIXEL*%
X5000000Y59800000D02*
X3700000Y59800000D01*
D47*
X11600000Y63100000D02*
X10994419Y63100000D01*
X10994419Y63100000D02*
X10657911Y62763492D01*
D46*
X3700000Y59800000D02*
X3250000Y60250000D01*
X3250000Y60250000D02*
X3250000Y61250000D01*
%TO.N,UART1_RX*%
X5900000Y56600000D02*
X5000000Y56600000D01*
X8175000Y61975000D02*
X7400000Y61200000D01*
%TO.N,UART1_TX*%
X10500000Y67425000D02*
X12250000Y67425000D01*
X10500000Y65750000D02*
X10500000Y67425000D01*
X9500000Y64750000D02*
X10500000Y65750000D01*
%TO.N,FAN*%
X20600000Y50100000D02*
X20600000Y49225000D01*
D49*
X20000000Y51500000D02*
X20000000Y50700000D01*
D46*
X10100000Y55000000D02*
X11200000Y53900000D01*
X5000000Y55000000D02*
X10100000Y55000000D01*
D49*
X20000000Y50700000D02*
X20600000Y50100000D01*
D46*
%TO.N,UART1_TX_LVL*%
X5000000Y57400000D02*
X5700000Y57400000D01*
X5700000Y57400000D02*
X5900000Y57600000D01*
X7625000Y63800000D02*
X7625000Y62925000D01*
X8750000Y65451104D02*
X8750000Y67425000D01*
X7625000Y62925000D02*
X7100000Y62400000D01*
X7625000Y63800000D02*
X7625000Y64326104D01*
X7625000Y64326104D02*
X8750000Y65451104D01*
%TO.N,UART_RX*%
X100000Y64425000D02*
X100000Y62500000D01*
%TO.N,UART_TX*%
X-700000Y62500000D02*
X-700000Y63625000D01*
X-700000Y63625000D02*
X-1575000Y64500000D01*
D51*
%TO.N,Net-(P1-CC)*%
X10499999Y-950002D02*
X10499999Y5474999D01*
D46*
X10500000Y5550000D02*
X10499999Y-750002D01*
%TO.N,I2C_SCL*%
X8750000Y50637600D02*
X8212400Y50637600D01*
X11525000Y52400000D02*
X11525000Y53100000D01*
X11800000Y54148529D02*
X11800000Y53375000D01*
X8212400Y50637600D02*
X7300000Y51550000D01*
X12300000Y52000000D02*
X11925000Y52000000D01*
X7300000Y51550000D02*
X7300000Y52750000D01*
X6450000Y58200000D02*
X6750000Y58500000D01*
X6750000Y58500000D02*
X8175000Y58500000D01*
X12589950Y52000000D02*
X12300000Y52000000D01*
X7300000Y52750000D02*
X7750000Y53200000D01*
X12764950Y52175000D02*
X12589950Y52000000D01*
X7750000Y53200000D02*
X11625000Y53200000D01*
X5000000Y58200000D02*
X6450000Y58200000D01*
X11525000Y53100000D02*
X11625000Y53200000D01*
X8175000Y57773529D02*
X11800000Y54148529D01*
X8175000Y58500000D02*
X8175000Y57773529D01*
X11925000Y52000000D02*
X11525000Y52400000D01*
X11800000Y53375000D02*
X11625000Y53200000D01*
X12300000Y52000000D02*
X12300000Y49482538D01*
X13620038Y48162500D02*
X14100000Y48162500D01*
X12300000Y49482538D02*
X13620038Y48162500D01*
X13275000Y52175000D02*
X12764950Y52175000D01*
%TO.N,I2C_SDA*%
X14550000Y47512500D02*
X14100000Y47512500D01*
X11087502Y47512500D02*
X10350002Y48250000D01*
X14650000Y47612500D02*
X14701637Y47664137D01*
X14701637Y47664137D02*
X14949051Y47664137D01*
X9000000Y59100000D02*
X9000000Y57800000D01*
X5750000Y59000000D02*
X7000000Y60250000D01*
X5000000Y59000000D02*
X5750000Y59000000D01*
X14650000Y47612500D02*
X14550000Y47512500D01*
X9000000Y57800000D02*
X13275000Y53525000D01*
X8175000Y59925000D02*
X9000000Y59100000D01*
X12300000Y52700000D02*
X13250000Y52700000D01*
X13275000Y53525000D02*
X13275000Y52675000D01*
X7000000Y60250000D02*
X8175000Y60250000D01*
X14100000Y47512500D02*
X11087502Y47512500D01*
%TO.N,Net-(P1-VCONN)*%
X9500001Y-750002D02*
X9500000Y700000D01*
X12500000Y5550000D02*
X12500000Y5130000D01*
X12500000Y5130000D02*
X12120000Y4750000D01*
%TO.N,Net-(J3-Pin_5)*%
X1825000Y65675000D02*
X1800000Y65700000D01*
X1825000Y64500000D02*
X1825000Y65675000D01*
%TO.N,Net-(J3-Pin_6)*%
X-3225000Y64500000D02*
X-3225000Y64075000D01*
X-3225000Y64075000D02*
X-3600000Y63700000D01*
%TO.N,Net-(J2-Pin_1)*%
X9825000Y62000000D02*
X14645800Y62000001D01*
X17600000Y67200000D02*
X18100000Y66700000D01*
X14645800Y62000001D02*
X17072347Y62000001D01*
X17072347Y62000001D02*
X18099999Y63027653D01*
X18099999Y63027653D02*
X18100000Y66700000D01*
%TO.N,Net-(J2-Pin_2)*%
X14125000Y67200000D02*
X15200000Y67200000D01*
X12250000Y69075000D02*
X14000000Y67325000D01*
X14000000Y67325000D02*
X14000000Y66575000D01*
X14645800Y60500001D02*
X17000000Y60500000D01*
X14000000Y67325000D02*
X14125000Y67200000D01*
D47*
%TO.N,PD*%
X100000Y49850000D02*
X0Y49750000D01*
X100000Y50700000D02*
X100000Y49850000D01*
D49*
X6387500Y67387500D02*
X6000000Y67000000D01*
X7000000Y67387500D02*
X6387500Y67387500D01*
D46*
%TO.N,Net-(U4-SDO)*%
X16150000Y48162500D02*
X17525000Y48162500D01*
%TD*%
%TA.AperFunction,Conductor*%
%TO.N,GND*%
G36*
X7700000Y4445000D02*
G01*
X7700000Y1027298D01*
X7680315Y960259D01*
X7627511Y914504D01*
X7576000Y903298D01*
X7500000Y903298D01*
X7500000Y-476002D01*
X7480315Y-543041D01*
X7427511Y-588796D01*
X7376000Y-600002D01*
X7124000Y-600002D01*
X7056961Y-580317D01*
X7011206Y-527513D01*
X7000000Y-476002D01*
X7000000Y903298D01*
X6757655Y903298D01*
X6698127Y896897D01*
X6698120Y896895D01*
X6563413Y846653D01*
X6563406Y846649D01*
X6448312Y760489D01*
X6448309Y760486D01*
X6362149Y645392D01*
X6362145Y645385D01*
X6311903Y510678D01*
X6311901Y510671D01*
X6305500Y451143D01*
X6305500Y-16759D01*
X6285815Y-83798D01*
X6233011Y-129553D01*
X6163853Y-139497D01*
X6134048Y-131320D01*
X6031435Y-88816D01*
X6031427Y-88814D01*
X5980001Y-78584D01*
X5980001Y-1000000D01*
X5965526Y-1000000D01*
X5963135Y-994228D01*
X5885776Y-916869D01*
X5784702Y-875003D01*
X5675300Y-875003D01*
X5574226Y-916869D01*
X5496867Y-994228D01*
X5494476Y-1000000D01*
X5480001Y-1000000D01*
X5480001Y-78585D01*
X5480000Y-78584D01*
X5428574Y-88814D01*
X5428570Y-88815D01*
X5240506Y-166714D01*
X5240498Y-166718D01*
X5192890Y-198529D01*
X5126212Y-219406D01*
X5058832Y-200921D01*
X5012143Y-148942D01*
X5000000Y-95426D01*
X5000000Y4376000D01*
X5019685Y4443039D01*
X5072489Y4488794D01*
X5124000Y4500000D01*
X7300000Y4500000D01*
X7300000Y4500357D01*
X7319685Y4567396D01*
X7325000Y4573733D01*
X7325000Y5613500D01*
X7344685Y5680539D01*
X7397489Y5726294D01*
X7449000Y5737500D01*
X7700000Y5737500D01*
X7700000Y4445000D01*
G37*
%TD.AperFunction*%
%TD*%
%TA.AperFunction,Conductor*%
%TO.N,+3V3*%
G36*
X7018039Y11855315D02*
G01*
X7063794Y11802511D01*
X7075000Y11751000D01*
X7075000Y10698665D01*
X7055315Y10631626D01*
X7002511Y10585871D01*
X6933353Y10575927D01*
X6907667Y10582483D01*
X6877011Y10593917D01*
X6877012Y10593917D01*
X6820428Y10600000D01*
X6675000Y10600000D01*
X6675000Y9150001D01*
X6675639Y9150001D01*
X6742678Y9130316D01*
X6788433Y9077512D01*
X6798377Y9008354D01*
X6769352Y8944798D01*
X6763320Y8938320D01*
X6750000Y8925000D01*
X6750000Y8136500D01*
X6730315Y8069461D01*
X6677511Y8023706D01*
X6626000Y8012500D01*
X6624000Y8012500D01*
X6556961Y8032185D01*
X6511206Y8084989D01*
X6500000Y8136500D01*
X6500000Y8925000D01*
X6499998Y8925001D01*
X6499361Y8925001D01*
X6432322Y8944686D01*
X6410332Y8970063D01*
X6398798Y8944802D01*
X6357211Y8917221D01*
X6358548Y8914597D01*
X6236958Y8852644D01*
X6236949Y8852637D01*
X6147363Y8763051D01*
X6147360Y8763047D01*
X6089833Y8650145D01*
X6075000Y8556486D01*
X6075000Y8249000D01*
X6055315Y8181961D01*
X6002511Y8136206D01*
X5951000Y8125000D01*
X5554350Y8125000D01*
X5487311Y8144685D01*
X5441556Y8197489D01*
X5431612Y8266647D01*
X5454580Y8322634D01*
X5502346Y8387355D01*
X5547149Y8515396D01*
X5547149Y8515400D01*
X5550000Y8545794D01*
X5550000Y8750000D01*
X5024000Y8750000D01*
X4956961Y8769685D01*
X4911206Y8822489D01*
X4900000Y8874000D01*
X4900000Y8875000D01*
X4899000Y8875000D01*
X4831961Y8894685D01*
X4786206Y8947489D01*
X4775000Y8999000D01*
X4775000Y9000000D01*
X5025000Y9000000D01*
X5549999Y9000000D01*
X5549999Y9204197D01*
X5547148Y9234607D01*
X5502346Y9362646D01*
X5421792Y9471793D01*
X5312645Y9552347D01*
X5234870Y9579561D01*
X5850001Y9579561D01*
X5856081Y9522993D01*
X5903813Y9395019D01*
X5903815Y9395016D01*
X5985670Y9285671D01*
X6095015Y9203816D01*
X6095016Y9203815D01*
X6222991Y9156083D01*
X6222994Y9156082D01*
X6279555Y9150001D01*
X6305078Y9150001D01*
X6372118Y9130319D01*
X6394110Y9104941D01*
X6405648Y9130204D01*
X6411681Y9136683D01*
X6425000Y9150002D01*
X6425000Y9750000D01*
X5850001Y9750000D01*
X5850001Y9579561D01*
X5234870Y9579561D01*
X5184602Y9597150D01*
X5154207Y9600000D01*
X5025000Y9600000D01*
X5025000Y9000000D01*
X4775000Y9000000D01*
X4775000Y9600000D01*
X4645804Y9600000D01*
X4615393Y9597149D01*
X4489954Y9553256D01*
X4420175Y9549695D01*
X4359548Y9584424D01*
X4327321Y9646418D01*
X4325000Y9670298D01*
X4325000Y10170429D01*
X5850000Y10170429D01*
X5850000Y10000000D01*
X6425000Y10000000D01*
X6425000Y10600000D01*
X6279566Y10600000D01*
X6279559Y10599999D01*
X6222992Y10593919D01*
X6095018Y10546187D01*
X6095015Y10546185D01*
X5985670Y10464330D01*
X5903815Y10354985D01*
X5903814Y10354984D01*
X5856083Y10227011D01*
X5850000Y10170429D01*
X4325000Y10170429D01*
X4325000Y11751000D01*
X4344685Y11818039D01*
X4397489Y11863794D01*
X4449000Y11875000D01*
X6951000Y11875000D01*
X7018039Y11855315D01*
G37*
%TD.AperFunction*%
%TD*%
%TA.AperFunction,Conductor*%
%TO.N,+5V*%
G36*
X10092539Y4480315D02*
G01*
X10138294Y4427511D01*
X10149500Y4376000D01*
X10149499Y1269171D01*
X10129814Y1202132D01*
X10077010Y1156377D01*
X10007852Y1146433D01*
X9944296Y1175458D01*
X9943273Y1176355D01*
X9872240Y1239283D01*
X9872238Y1239285D01*
X9732365Y1312697D01*
X9578986Y1350500D01*
X9578985Y1350500D01*
X9421015Y1350500D01*
X9421014Y1350500D01*
X9267634Y1312697D01*
X9127762Y1239285D01*
X9009516Y1134529D01*
X8919781Y1004525D01*
X8919780Y1004524D01*
X8863763Y856819D01*
X8852293Y762352D01*
X8824671Y698174D01*
X8766737Y659117D01*
X8729197Y653298D01*
X8605000Y653298D01*
X8605000Y-476002D01*
X8585315Y-543041D01*
X8532511Y-588796D01*
X8481000Y-600002D01*
X8479000Y-600002D01*
X8411961Y-580317D01*
X8366206Y-527513D01*
X8355000Y-476002D01*
X8355000Y653298D01*
X8347101Y661197D01*
X8306961Y672983D01*
X8261206Y725787D01*
X8250000Y777298D01*
X8250000Y4376000D01*
X8269685Y4443039D01*
X8322489Y4488794D01*
X8374000Y4500000D01*
X10025500Y4500000D01*
X10092539Y4480315D01*
G37*
%TD.AperFunction*%
%TA.AperFunction,Conductor*%
G36*
X11504104Y4480315D02*
G01*
X11539115Y4446440D01*
X11566548Y4406696D01*
X11588431Y4340341D01*
X11570965Y4272689D01*
X11519697Y4225220D01*
X11513488Y4222794D01*
X11405490Y4172433D01*
X11327566Y4094509D01*
X11280991Y3994630D01*
X11280990Y3994625D01*
X11278406Y3975002D01*
X11278408Y3975000D01*
X11581000Y3975000D01*
X11648039Y3955315D01*
X11693794Y3902511D01*
X11705000Y3851000D01*
X11705000Y3850000D01*
X11706000Y3850000D01*
X11773039Y3830315D01*
X11818794Y3777511D01*
X11830000Y3726000D01*
X11830000Y3475001D01*
X11859115Y3475001D01*
X11859806Y3475092D01*
X11860015Y3475060D01*
X11863167Y3475266D01*
X11863213Y3474561D01*
X11928842Y3464331D01*
X11981101Y3417955D01*
X12000000Y3352154D01*
X12000000Y777298D01*
X11980315Y710259D01*
X11927511Y664504D01*
X11876000Y653298D01*
X11645000Y653298D01*
X11645000Y-476002D01*
X11625315Y-543041D01*
X11572511Y-588796D01*
X11521000Y-600002D01*
X11519000Y-600002D01*
X11451961Y-580317D01*
X11406206Y-527513D01*
X11395000Y-476002D01*
X11395000Y653298D01*
X11088971Y653298D01*
X11010072Y637604D01*
X10961690Y637604D01*
X10950308Y639868D01*
X10888397Y672253D01*
X10853823Y732968D01*
X10850499Y761485D01*
X10850500Y3724999D01*
X11278406Y3724999D01*
X11280990Y3705376D01*
X11280991Y3705371D01*
X11327566Y3605492D01*
X11405491Y3527567D01*
X11505373Y3480991D01*
X11505372Y3480991D01*
X11550868Y3475002D01*
X11550884Y3475001D01*
X11580000Y3475002D01*
X11580000Y3725000D01*
X11278408Y3725000D01*
X11278406Y3724999D01*
X10850500Y3724999D01*
X10850500Y4376000D01*
X10870185Y4443039D01*
X10922989Y4488794D01*
X10974500Y4500000D01*
X11437065Y4500000D01*
X11504104Y4480315D01*
G37*
%TD.AperFunction*%
%TD*%
%TA.AperFunction,Conductor*%
%TO.N,GND*%
G36*
X-4781961Y62530315D02*
G01*
X-4736206Y62477511D01*
X-4725000Y62426000D01*
X-4725000Y61980000D01*
X-4711319Y61966319D01*
X-4677834Y61904996D01*
X-4675000Y61878638D01*
X-4675000Y61525000D01*
X-4150000Y61525000D01*
X-4150000Y61624627D01*
X-4150001Y61624629D01*
X-4165253Y61701309D01*
X-4159026Y61770900D01*
X-4116163Y61826078D01*
X-4050273Y61849322D01*
X-4043636Y61849500D01*
X-3675324Y61849500D01*
X-3675323Y61849501D01*
X-3602265Y61864033D01*
X-3602263Y61864033D01*
X-3602263Y61864034D01*
X-3602260Y61864034D01*
X-3568888Y61886333D01*
X-3502214Y61907209D01*
X-3434834Y61888725D01*
X-3431171Y61886372D01*
X-3397740Y61864034D01*
X-3397738Y61864034D01*
X-3397737Y61864033D01*
X-3324679Y61849501D01*
X-3324676Y61849500D01*
X-3324674Y61849500D01*
X-2875324Y61849500D01*
X-2875323Y61849501D01*
X-2802265Y61864033D01*
X-2802263Y61864033D01*
X-2802263Y61864034D01*
X-2802260Y61864034D01*
X-2768888Y61886333D01*
X-2702214Y61907209D01*
X-2634834Y61888725D01*
X-2631171Y61886372D01*
X-2597740Y61864034D01*
X-2597738Y61864034D01*
X-2597737Y61864033D01*
X-2524679Y61849501D01*
X-2524676Y61849500D01*
X-2524674Y61849500D01*
X-2075324Y61849500D01*
X-2075323Y61849501D01*
X-2002265Y61864033D01*
X-2002263Y61864033D01*
X-2002263Y61864034D01*
X-2002260Y61864034D01*
X-1968888Y61886333D01*
X-1902214Y61907209D01*
X-1834834Y61888725D01*
X-1831171Y61886372D01*
X-1797740Y61864034D01*
X-1797738Y61864034D01*
X-1797737Y61864033D01*
X-1724679Y61849501D01*
X-1724676Y61849500D01*
X-1724674Y61849500D01*
X-1275324Y61849500D01*
X-1275323Y61849501D01*
X-1202265Y61864033D01*
X-1202263Y61864033D01*
X-1202263Y61864034D01*
X-1202260Y61864034D01*
X-1168888Y61886333D01*
X-1102214Y61907209D01*
X-1034834Y61888725D01*
X-1031171Y61886372D01*
X-997740Y61864034D01*
X-997738Y61864034D01*
X-997737Y61864033D01*
X-924679Y61849501D01*
X-924676Y61849500D01*
X-924674Y61849500D01*
X-475324Y61849500D01*
X-475323Y61849501D01*
X-402265Y61864033D01*
X-402263Y61864033D01*
X-402263Y61864034D01*
X-402260Y61864034D01*
X-368888Y61886333D01*
X-302214Y61907209D01*
X-234834Y61888725D01*
X-231171Y61886372D01*
X-197740Y61864034D01*
X-197738Y61864034D01*
X-197737Y61864033D01*
X-124679Y61849501D01*
X-124676Y61849500D01*
X-124674Y61849500D01*
X324676Y61849500D01*
X324677Y61849501D01*
X397735Y61864033D01*
X397737Y61864033D01*
X397737Y61864034D01*
X397740Y61864034D01*
X431112Y61886333D01*
X497786Y61907209D01*
X565166Y61888725D01*
X568829Y61886372D01*
X602260Y61864034D01*
X602262Y61864034D01*
X602263Y61864033D01*
X675321Y61849501D01*
X675324Y61849500D01*
X675326Y61849500D01*
X1124676Y61849500D01*
X1124677Y61849501D01*
X1197735Y61864033D01*
X1197737Y61864033D01*
X1197737Y61864034D01*
X1197740Y61864034D01*
X1231112Y61886333D01*
X1297786Y61907209D01*
X1365166Y61888725D01*
X1368829Y61886372D01*
X1402260Y61864034D01*
X1402262Y61864034D01*
X1402263Y61864033D01*
X1475321Y61849501D01*
X1475324Y61849500D01*
X1475326Y61849500D01*
X1924676Y61849500D01*
X1924677Y61849501D01*
X1997735Y61864033D01*
X1997737Y61864033D01*
X1997737Y61864034D01*
X1997740Y61864034D01*
X2031112Y61886333D01*
X2097786Y61907209D01*
X2165166Y61888725D01*
X2168829Y61886372D01*
X2202260Y61864034D01*
X2202262Y61864034D01*
X2202263Y61864033D01*
X2275321Y61849501D01*
X2275324Y61849500D01*
X2637125Y61849500D01*
X2704164Y61829815D01*
X2749919Y61777011D01*
X2759863Y61707853D01*
X2739175Y61655060D01*
X2669781Y61554525D01*
X2669780Y61554524D01*
X2613762Y61406819D01*
X2594722Y61250001D01*
X2594722Y61250000D01*
X2613762Y61093182D01*
X2669780Y60945477D01*
X2669781Y60945476D01*
X2759517Y60815469D01*
X2820109Y60761790D01*
X2857726Y60728465D01*
X2894853Y60669277D01*
X2899500Y60635650D01*
X2899500Y60203856D01*
X2914065Y60149499D01*
X2914065Y60149498D01*
X2923384Y60114716D01*
X2923385Y60114714D01*
X2969527Y60034792D01*
X2969529Y60034789D01*
X2969530Y60034788D01*
X3484788Y59519530D01*
X3484789Y59519529D01*
X3484791Y59519528D01*
X3524750Y59496458D01*
X3564712Y59473386D01*
X3653856Y59449500D01*
X4243126Y59449500D01*
X4310165Y59429815D01*
X4355920Y59377011D01*
X4365864Y59307853D01*
X4364743Y59301309D01*
X4349500Y59224679D01*
X4349500Y58775322D01*
X4364032Y58702265D01*
X4364033Y58702261D01*
X4364034Y58702260D01*
X4386329Y58668892D01*
X4386331Y58668890D01*
X4407208Y58602212D01*
X4388723Y58534832D01*
X4386337Y58531121D01*
X4383327Y58526614D01*
X4364033Y58497740D01*
X4364032Y58497736D01*
X4349500Y58424679D01*
X4349500Y57975322D01*
X4364032Y57902265D01*
X4364033Y57902261D01*
X4364034Y57902260D01*
X4386329Y57868892D01*
X4386331Y57868890D01*
X4407208Y57802212D01*
X4388723Y57734832D01*
X4386337Y57731121D01*
X4381708Y57724193D01*
X4364033Y57697740D01*
X4364032Y57697736D01*
X4349500Y57624679D01*
X4349500Y57175322D01*
X4364032Y57102265D01*
X4364033Y57102261D01*
X4364034Y57102260D01*
X4386329Y57068892D01*
X4386331Y57068890D01*
X4407208Y57002212D01*
X4388723Y56934832D01*
X4386337Y56931121D01*
X4381708Y56924193D01*
X4364033Y56897740D01*
X4364032Y56897736D01*
X4349500Y56824679D01*
X4349500Y56375322D01*
X4364032Y56302265D01*
X4364033Y56302261D01*
X4364034Y56302260D01*
X4386329Y56268892D01*
X4386331Y56268890D01*
X4407208Y56202212D01*
X4388723Y56134832D01*
X4386337Y56131121D01*
X4381708Y56124193D01*
X4364033Y56097740D01*
X4364032Y56097736D01*
X4349500Y56024679D01*
X4349500Y55575322D01*
X4364032Y55502265D01*
X4364033Y55502261D01*
X4364034Y55502260D01*
X4386329Y55468892D01*
X4386331Y55468890D01*
X4407208Y55402212D01*
X4388723Y55334832D01*
X4386337Y55331121D01*
X4383327Y55326614D01*
X4364033Y55297740D01*
X4364032Y55297736D01*
X4349500Y55224679D01*
X4349500Y54775322D01*
X4364032Y54702265D01*
X4364033Y54702261D01*
X4364034Y54702260D01*
X4386329Y54668892D01*
X4386331Y54668890D01*
X4407208Y54602212D01*
X4388723Y54534832D01*
X4386337Y54531121D01*
X4381708Y54524193D01*
X4364033Y54497740D01*
X4364032Y54497736D01*
X4349500Y54424679D01*
X4349500Y53975322D01*
X4364032Y53902265D01*
X4364035Y53902258D01*
X4386631Y53868439D01*
X4407508Y53801761D01*
X4389022Y53734381D01*
X4386632Y53730662D01*
X4364505Y53697546D01*
X4364503Y53697541D01*
X4350000Y53624629D01*
X4350000Y53525000D01*
X4876000Y53525000D01*
X4943039Y53505315D01*
X4988794Y53452511D01*
X5000000Y53401000D01*
X5000000Y53399000D01*
X4980315Y53331961D01*
X4927511Y53286206D01*
X4876000Y53275000D01*
X4350000Y53275000D01*
X4350000Y53175372D01*
X4364503Y53102460D01*
X4364505Y53102454D01*
X4386631Y53069340D01*
X4407508Y53002663D01*
X4389023Y52935283D01*
X4386632Y52931563D01*
X4364034Y52897743D01*
X4364032Y52897736D01*
X4349500Y52824679D01*
X4349500Y52375322D01*
X4364032Y52302265D01*
X4364033Y52302261D01*
X4364034Y52302260D01*
X4386329Y52268892D01*
X4386331Y52268890D01*
X4407208Y52202212D01*
X4388723Y52134832D01*
X4386337Y52131121D01*
X4381708Y52124193D01*
X4364033Y52097740D01*
X4364032Y52097736D01*
X4349500Y52024679D01*
X4349500Y52024674D01*
X4349500Y51575326D01*
X4349500Y51575324D01*
X4349499Y51575324D01*
X4364843Y51498192D01*
X4358616Y51428600D01*
X4315753Y51373423D01*
X4249864Y51350178D01*
X4243226Y51350000D01*
X4225000Y51350000D01*
X4225000Y50825000D01*
X4578638Y50825000D01*
X4645677Y50805315D01*
X4666319Y50788681D01*
X4680000Y50775000D01*
X4926000Y50775000D01*
X4993039Y50755315D01*
X5038794Y50702511D01*
X5050000Y50651000D01*
X5050000Y50649000D01*
X5030315Y50581961D01*
X4977511Y50536206D01*
X4926000Y50525000D01*
X4421362Y50525000D01*
X4354323Y50544685D01*
X4333681Y50561319D01*
X4320000Y50575000D01*
X4224000Y50575000D01*
X4156961Y50594685D01*
X4111206Y50647489D01*
X4100000Y50699000D01*
X4100000Y50700000D01*
X4099000Y50700000D01*
X4031961Y50719685D01*
X3986206Y50772489D01*
X3975000Y50824000D01*
X3975000Y51350000D01*
X3875373Y51350000D01*
X3802459Y51335497D01*
X3802454Y51335495D01*
X3769338Y51313368D01*
X3702660Y51292492D01*
X3635281Y51310978D01*
X3631561Y51313369D01*
X3597742Y51335965D01*
X3597735Y51335968D01*
X3524677Y51350500D01*
X3524674Y51350500D01*
X3075326Y51350500D01*
X3075323Y51350500D01*
X3002264Y51335968D01*
X3002260Y51335967D01*
X2968890Y51313669D01*
X2902212Y51292792D01*
X2834832Y51311277D01*
X2831110Y51313669D01*
X2797739Y51335967D01*
X2797735Y51335968D01*
X2724677Y51350500D01*
X2724674Y51350500D01*
X2275326Y51350500D01*
X2275324Y51350500D01*
X2269068Y51349256D01*
X2199477Y51355488D01*
X2144302Y51398354D01*
X2121061Y51464245D01*
X2137133Y51532241D01*
X2142829Y51541308D01*
X2180220Y51595477D01*
X2236237Y51743182D01*
X2255278Y51900000D01*
X2252243Y51925000D01*
X2236237Y52056819D01*
X2214992Y52112836D01*
X2180220Y52204523D01*
X2090483Y52334530D01*
X1972240Y52439283D01*
X1972238Y52439284D01*
X1972237Y52439285D01*
X1832365Y52512697D01*
X1678986Y52550500D01*
X1678985Y52550500D01*
X1521015Y52550500D01*
X1521014Y52550500D01*
X1367634Y52512697D01*
X1227762Y52439285D01*
X1109516Y52334529D01*
X1019781Y52204525D01*
X1019780Y52204524D01*
X963762Y52056819D01*
X944722Y51900001D01*
X944722Y51900000D01*
X963762Y51743182D01*
X1019780Y51595477D01*
X1033689Y51575326D01*
X1054663Y51544940D01*
X1076546Y51478585D01*
X1059081Y51410934D01*
X1007813Y51363464D01*
X952613Y51350500D01*
X675323Y51350500D01*
X602264Y51335968D01*
X602260Y51335967D01*
X568890Y51313669D01*
X502212Y51292792D01*
X434832Y51311277D01*
X431110Y51313669D01*
X397739Y51335967D01*
X397735Y51335968D01*
X324677Y51350500D01*
X324674Y51350500D01*
X-124674Y51350500D01*
X-124677Y51350500D01*
X-197736Y51335968D01*
X-197740Y51335967D01*
X-231110Y51313669D01*
X-297788Y51292792D01*
X-365168Y51311277D01*
X-368890Y51313669D01*
X-402261Y51335967D01*
X-402265Y51335968D01*
X-475323Y51350500D01*
X-475326Y51350500D01*
X-924674Y51350500D01*
X-924677Y51350500D01*
X-997736Y51335968D01*
X-997740Y51335967D01*
X-1031110Y51313669D01*
X-1097788Y51292792D01*
X-1165168Y51311277D01*
X-1168890Y51313669D01*
X-1202261Y51335967D01*
X-1202265Y51335968D01*
X-1275323Y51350500D01*
X-1275326Y51350500D01*
X-1526155Y51350500D01*
X-1593194Y51370185D01*
X-1638949Y51422989D01*
X-1648893Y51492147D01*
X-1642097Y51518471D01*
X-1620536Y51575324D01*
X-1613763Y51593182D01*
X-1594722Y51750000D01*
X-1613763Y51906818D01*
X-1620659Y51925000D01*
X-1658462Y52024679D01*
X-1669780Y52054523D01*
X-1759517Y52184530D01*
X-1877760Y52289283D01*
X-1877762Y52289284D01*
X-1877763Y52289285D01*
X-2017635Y52362697D01*
X-2171014Y52400500D01*
X-2171015Y52400500D01*
X-2328985Y52400500D01*
X-2328986Y52400500D01*
X-2482366Y52362697D01*
X-2622238Y52289285D01*
X-2740484Y52184529D01*
X-2830219Y52054525D01*
X-2830220Y52054524D01*
X-2886238Y51906819D01*
X-2905278Y51750001D01*
X-2905278Y51750000D01*
X-2886238Y51593183D01*
X-2872512Y51556992D01*
X-2857713Y51517970D01*
X-2852346Y51448308D01*
X-2885493Y51386802D01*
X-2946631Y51352981D01*
X-2973655Y51350000D01*
X-2975000Y51350000D01*
X-2975000Y50824000D01*
X-2994685Y50756961D01*
X-3047489Y50711206D01*
X-3099000Y50700000D01*
X-3100000Y50700000D01*
X-3100000Y50699000D01*
X-3119685Y50631961D01*
X-3172489Y50586206D01*
X-3224000Y50575000D01*
X-4120000Y50575000D01*
X-4133681Y50561319D01*
X-4195004Y50527834D01*
X-4221362Y50525000D01*
X-4726000Y50525000D01*
X-4793039Y50544685D01*
X-4838794Y50597489D01*
X-4850000Y50649000D01*
X-4850000Y50650000D01*
X-4851000Y50650000D01*
X-4918039Y50669685D01*
X-4963794Y50722489D01*
X-4975000Y50774000D01*
X-4975000Y51220000D01*
X-4725000Y51220000D01*
X-4725000Y50775000D01*
X-4480000Y50775000D01*
X-4466319Y50788681D01*
X-4404996Y50822166D01*
X-4378638Y50825000D01*
X-4025000Y50825000D01*
X-3775000Y50825000D01*
X-3225000Y50825000D01*
X-3225000Y51350000D01*
X-3324627Y51350000D01*
X-3397541Y51335497D01*
X-3397545Y51335495D01*
X-3431109Y51313068D01*
X-3497787Y51292190D01*
X-3565167Y51310675D01*
X-3568891Y51313068D01*
X-3602456Y51335495D01*
X-3602460Y51335497D01*
X-3675373Y51350000D01*
X-3775000Y51350000D01*
X-3775000Y50825000D01*
X-4025000Y50825000D01*
X-4025000Y51350000D01*
X-4043735Y51350000D01*
X-4110774Y51369685D01*
X-4156529Y51422489D01*
X-4166473Y51491647D01*
X-4165352Y51498191D01*
X-4150001Y51575372D01*
X-4150000Y51575374D01*
X-4150000Y51675000D01*
X-4675000Y51675000D01*
X-4675000Y51321362D01*
X-4694685Y51254323D01*
X-4711319Y51233681D01*
X-4725000Y51220000D01*
X-4975000Y51220000D01*
X-4975000Y51278638D01*
X-4955315Y51345677D01*
X-4938681Y51366319D01*
X-4925000Y51380000D01*
X-4925000Y51925000D01*
X-4675000Y51925000D01*
X-4150000Y51925000D01*
X-4150000Y52024627D01*
X-4150001Y52024629D01*
X-4164504Y52097541D01*
X-4164506Y52097546D01*
X-4186932Y52131108D01*
X-4207811Y52197785D01*
X-4189327Y52265165D01*
X-4186932Y52268892D01*
X-4164506Y52302455D01*
X-4164504Y52302460D01*
X-4150001Y52375372D01*
X-4150000Y52375374D01*
X-4150000Y52475000D01*
X-4675000Y52475000D01*
X-4675000Y51925000D01*
X-4925000Y51925000D01*
X-4925000Y52725000D01*
X-4675000Y52725000D01*
X-4150000Y52725000D01*
X-4150000Y52824627D01*
X-4150001Y52824629D01*
X-4164504Y52897541D01*
X-4164506Y52897546D01*
X-4186932Y52931108D01*
X-4207811Y52997785D01*
X-4189327Y53065165D01*
X-4186932Y53068892D01*
X-4164506Y53102455D01*
X-4164504Y53102460D01*
X-4150001Y53175372D01*
X-4150000Y53175374D01*
X-4150000Y53275000D01*
X-4675000Y53275000D01*
X-4675000Y52725000D01*
X-4925000Y52725000D01*
X-4925000Y53525000D01*
X-4675000Y53525000D01*
X-4150000Y53525000D01*
X-4150000Y53624627D01*
X-4150001Y53624629D01*
X-4164504Y53697541D01*
X-4164506Y53697546D01*
X-4186932Y53731108D01*
X-4207811Y53797785D01*
X-4189327Y53865165D01*
X-4186932Y53868892D01*
X-4164506Y53902455D01*
X-4164504Y53902460D01*
X-4150001Y53975372D01*
X-4150000Y53975374D01*
X-4150000Y54075000D01*
X-4675000Y54075000D01*
X-4675000Y53525000D01*
X-4925000Y53525000D01*
X-4925000Y54325000D01*
X-4675000Y54325000D01*
X-4150000Y54325000D01*
X-4150000Y54424627D01*
X-4150001Y54424629D01*
X-4164504Y54497541D01*
X-4164506Y54497546D01*
X-4186932Y54531108D01*
X-4207811Y54597785D01*
X-4189327Y54665165D01*
X-4186932Y54668892D01*
X-4164506Y54702455D01*
X-4164504Y54702460D01*
X-4150001Y54775372D01*
X-4150000Y54775374D01*
X-4150000Y54875000D01*
X-4675000Y54875000D01*
X-4675000Y54325000D01*
X-4925000Y54325000D01*
X-4925000Y55125000D01*
X-4675000Y55125000D01*
X-4150000Y55125000D01*
X-4150000Y55224627D01*
X-4150001Y55224629D01*
X-4164504Y55297541D01*
X-4164506Y55297546D01*
X-4186932Y55331108D01*
X-4207811Y55397785D01*
X-4189327Y55465165D01*
X-4186932Y55468892D01*
X-4164506Y55502455D01*
X-4164504Y55502460D01*
X-4150001Y55575372D01*
X-4150000Y55575374D01*
X-4150000Y55675000D01*
X-4675000Y55675000D01*
X-4675000Y55125000D01*
X-4925000Y55125000D01*
X-4925000Y55925000D01*
X-4675000Y55925000D01*
X-4150000Y55925000D01*
X-4150000Y56024627D01*
X-4150001Y56024629D01*
X-4164504Y56097541D01*
X-4164506Y56097546D01*
X-4186932Y56131108D01*
X-4207811Y56197785D01*
X-4189327Y56265165D01*
X-4186932Y56268892D01*
X-4164506Y56302455D01*
X-4164504Y56302460D01*
X-4150001Y56375372D01*
X-4150000Y56375374D01*
X-4150000Y56475000D01*
X-4675000Y56475000D01*
X-4675000Y55925000D01*
X-4925000Y55925000D01*
X-4925000Y56725000D01*
X-4675000Y56725000D01*
X-4150000Y56725000D01*
X-4150000Y56824627D01*
X-4150001Y56824629D01*
X-4164504Y56897541D01*
X-4164506Y56897546D01*
X-4186932Y56931108D01*
X-4207811Y56997785D01*
X-4189327Y57065165D01*
X-4186932Y57068892D01*
X-4164506Y57102455D01*
X-4164504Y57102460D01*
X-4150001Y57175372D01*
X-4150000Y57175374D01*
X-4150000Y57275000D01*
X-4675000Y57275000D01*
X-4675000Y56725000D01*
X-4925000Y56725000D01*
X-4925000Y57525000D01*
X-4675000Y57525000D01*
X-4150000Y57525000D01*
X-4150000Y57624627D01*
X-4150001Y57624629D01*
X-4164504Y57697541D01*
X-4164506Y57697546D01*
X-4186932Y57731108D01*
X-4207811Y57797785D01*
X-4189327Y57865165D01*
X-4186932Y57868892D01*
X-4164506Y57902455D01*
X-4164504Y57902460D01*
X-4150001Y57975372D01*
X-4150000Y57975374D01*
X-4150000Y58075000D01*
X-4675000Y58075000D01*
X-4675000Y57525000D01*
X-4925000Y57525000D01*
X-4925000Y58325000D01*
X-4675000Y58325000D01*
X-4150000Y58325000D01*
X-4150000Y58424627D01*
X-4150001Y58424629D01*
X-4164504Y58497541D01*
X-4164506Y58497546D01*
X-4186932Y58531108D01*
X-4207811Y58597785D01*
X-4189327Y58665165D01*
X-4186932Y58668892D01*
X-4164506Y58702455D01*
X-4164504Y58702460D01*
X-4150001Y58775372D01*
X-4150000Y58775374D01*
X-4150000Y58875000D01*
X-4675000Y58875000D01*
X-4675000Y58325000D01*
X-4925000Y58325000D01*
X-4925000Y59125000D01*
X-4675000Y59125000D01*
X-4150000Y59125000D01*
X-4150000Y59224627D01*
X-4150001Y59224629D01*
X-4164504Y59297541D01*
X-4164506Y59297546D01*
X-4186932Y59331108D01*
X-4207811Y59397785D01*
X-4189327Y59465165D01*
X-4186932Y59468892D01*
X-4164506Y59502455D01*
X-4164504Y59502460D01*
X-4150001Y59575372D01*
X-4150000Y59575374D01*
X-4150000Y59675000D01*
X-4675000Y59675000D01*
X-4675000Y59125000D01*
X-4925000Y59125000D01*
X-4925000Y59925000D01*
X-4675000Y59925000D01*
X-4150000Y59925000D01*
X-4150000Y60024627D01*
X-4150001Y60024629D01*
X-4164504Y60097541D01*
X-4164506Y60097546D01*
X-4186932Y60131108D01*
X-4207811Y60197785D01*
X-4189327Y60265165D01*
X-4186932Y60268892D01*
X-4164506Y60302455D01*
X-4164504Y60302460D01*
X-4150001Y60375372D01*
X-4150000Y60375374D01*
X-4150000Y60475000D01*
X-4675000Y60475000D01*
X-4675000Y59925000D01*
X-4925000Y59925000D01*
X-4925000Y60725000D01*
X-4675000Y60725000D01*
X-4150000Y60725000D01*
X-4150000Y60824627D01*
X-4150001Y60824629D01*
X-4164504Y60897541D01*
X-4164506Y60897546D01*
X-4186932Y60931108D01*
X-4207811Y60997785D01*
X-4189327Y61065165D01*
X-4186932Y61068892D01*
X-4164506Y61102455D01*
X-4164504Y61102460D01*
X-4150001Y61175372D01*
X-4150000Y61175374D01*
X-4150000Y61275000D01*
X-4675000Y61275000D01*
X-4675000Y60725000D01*
X-4925000Y60725000D01*
X-4925000Y61820000D01*
X-4938681Y61833681D01*
X-4972166Y61895004D01*
X-4975000Y61921362D01*
X-4975000Y62426000D01*
X-4955315Y62493039D01*
X-4902511Y62538794D01*
X-4851000Y62550000D01*
X-4849000Y62550000D01*
X-4781961Y62530315D01*
G37*
%TD.AperFunction*%
%TD*%
%TA.AperFunction,Conductor*%
%TO.N,GND*%
G36*
X14943039Y4480315D02*
G01*
X14988794Y4427511D01*
X15000000Y4376000D01*
X15000000Y-405245D01*
X14980315Y-472284D01*
X14927511Y-518039D01*
X14858353Y-527983D01*
X14794797Y-498958D01*
X14788319Y-492926D01*
X14769393Y-474000D01*
X14769386Y-473994D01*
X14641079Y-388263D01*
X14498508Y-329208D01*
X14498500Y-329206D01*
X14394999Y-308618D01*
X14394999Y-831181D01*
X14319727Y-800003D01*
X14220271Y-800003D01*
X14144999Y-831181D01*
X14144999Y-308618D01*
X14041497Y-329206D01*
X14041489Y-329208D01*
X13898918Y-388263D01*
X13898917Y-388263D01*
X13770611Y-473994D01*
X13770604Y-474000D01*
X13657184Y-587421D01*
X13655453Y-585690D01*
X13630720Y-602536D01*
X13622419Y-640702D01*
X13616688Y-650168D01*
X13601689Y-672616D01*
X13548077Y-717421D01*
X13495862Y-723979D01*
X13495862Y-725002D01*
X13487724Y-725002D01*
X13478752Y-726129D01*
X13476396Y-725002D01*
X12874000Y-725002D01*
X12806961Y-705317D01*
X12761206Y-652513D01*
X12750000Y-601002D01*
X12750000Y-600002D01*
X12749000Y-600002D01*
X12681961Y-580317D01*
X12636206Y-527513D01*
X12625000Y-476002D01*
X12625000Y-475002D01*
X12875000Y-475002D01*
X13444500Y-475002D01*
X13444500Y427925D01*
X13444499Y427927D01*
X13429996Y500839D01*
X13429994Y500843D01*
X13374739Y583538D01*
X13292044Y638793D01*
X13292040Y638795D01*
X13219127Y653298D01*
X12875000Y653298D01*
X12875000Y-475002D01*
X12625000Y-475002D01*
X12625000Y653298D01*
X12379500Y653298D01*
X12312461Y672983D01*
X12266706Y725787D01*
X12255500Y777298D01*
X12255500Y3351480D01*
X12275185Y3418519D01*
X12327989Y3464274D01*
X12387610Y3475214D01*
X12390872Y3475001D01*
X12670000Y3475001D01*
X12699115Y3475001D01*
X12744630Y3480993D01*
X12844509Y3527568D01*
X12922433Y3605492D01*
X12969008Y3705371D01*
X12969009Y3705376D01*
X12971593Y3724999D01*
X12971592Y3725000D01*
X12670000Y3725000D01*
X12670000Y3475001D01*
X12390872Y3475001D01*
X12420000Y3475002D01*
X12420000Y3726000D01*
X12439685Y3793039D01*
X12492489Y3838794D01*
X12544000Y3850000D01*
X12545000Y3850000D01*
X12545000Y3851000D01*
X12564685Y3918039D01*
X12617489Y3963794D01*
X12669000Y3975000D01*
X12971592Y3975000D01*
X12971593Y3975002D01*
X12969009Y3994625D01*
X12969008Y3994630D01*
X12922433Y4094509D01*
X12844508Y4172434D01*
X12744623Y4219012D01*
X12742467Y4219640D01*
X12740297Y4221029D01*
X12736031Y4223018D01*
X12736297Y4223589D01*
X12683618Y4257302D01*
X12654472Y4320803D01*
X12664284Y4389980D01*
X12675121Y4409116D01*
X12700220Y4445477D01*
X12700220Y4445478D01*
X12700886Y4446442D01*
X12755170Y4490431D01*
X12802935Y4500000D01*
X14876000Y4500000D01*
X14943039Y4480315D01*
G37*
%TD.AperFunction*%
%TD*%
M02*
