%TF.GenerationSoftware,KiCad,Pcbnew,8.0.7*%
%TF.CreationDate,2024-12-24T11:10:27-06:00*%
%TF.ProjectId,room_environment_monitor,726f6f6d-5f65-46e7-9669-726f6e6d656e,rev?*%
%TF.SameCoordinates,Original*%
%TF.FileFunction,Other,Comment*%
%FSLAX46Y46*%
G04 Gerber Fmt 4.6, Leading zero omitted, Abs format (unit mm)*
G04 Created by KiCad (PCBNEW 8.0.7) date 2024-12-24 11:10:27*
%MOMM*%
%LPD*%
G01*
G04 APERTURE LIST*
%ADD10C,0.150000*%
G04 APERTURE END LIST*
D10*
X14109524Y-3804819D02*
X14728571Y-3804819D01*
X14728571Y-3804819D02*
X14395238Y-4185771D01*
X14395238Y-4185771D02*
X14538095Y-4185771D01*
X14538095Y-4185771D02*
X14633333Y-4233390D01*
X14633333Y-4233390D02*
X14680952Y-4281009D01*
X14680952Y-4281009D02*
X14728571Y-4376247D01*
X14728571Y-4376247D02*
X14728571Y-4614342D01*
X14728571Y-4614342D02*
X14680952Y-4709580D01*
X14680952Y-4709580D02*
X14633333Y-4757200D01*
X14633333Y-4757200D02*
X14538095Y-4804819D01*
X14538095Y-4804819D02*
X14252381Y-4804819D01*
X14252381Y-4804819D02*
X14157143Y-4757200D01*
X14157143Y-4757200D02*
X14109524Y-4709580D01*
X15157143Y-4709580D02*
X15204762Y-4757200D01*
X15204762Y-4757200D02*
X15157143Y-4804819D01*
X15157143Y-4804819D02*
X15109524Y-4757200D01*
X15109524Y-4757200D02*
X15157143Y-4709580D01*
X15157143Y-4709580D02*
X15157143Y-4804819D01*
X15538095Y-3804819D02*
X16157142Y-3804819D01*
X16157142Y-3804819D02*
X15823809Y-4185771D01*
X15823809Y-4185771D02*
X15966666Y-4185771D01*
X15966666Y-4185771D02*
X16061904Y-4233390D01*
X16061904Y-4233390D02*
X16109523Y-4281009D01*
X16109523Y-4281009D02*
X16157142Y-4376247D01*
X16157142Y-4376247D02*
X16157142Y-4614342D01*
X16157142Y-4614342D02*
X16109523Y-4709580D01*
X16109523Y-4709580D02*
X16061904Y-4757200D01*
X16061904Y-4757200D02*
X15966666Y-4804819D01*
X15966666Y-4804819D02*
X15680952Y-4804819D01*
X15680952Y-4804819D02*
X15585714Y-4757200D01*
X15585714Y-4757200D02*
X15538095Y-4709580D01*
X16776190Y-3804819D02*
X16871428Y-3804819D01*
X16871428Y-3804819D02*
X16966666Y-3852438D01*
X16966666Y-3852438D02*
X17014285Y-3900057D01*
X17014285Y-3900057D02*
X17061904Y-3995295D01*
X17061904Y-3995295D02*
X17109523Y-4185771D01*
X17109523Y-4185771D02*
X17109523Y-4423866D01*
X17109523Y-4423866D02*
X17061904Y-4614342D01*
X17061904Y-4614342D02*
X17014285Y-4709580D01*
X17014285Y-4709580D02*
X16966666Y-4757200D01*
X16966666Y-4757200D02*
X16871428Y-4804819D01*
X16871428Y-4804819D02*
X16776190Y-4804819D01*
X16776190Y-4804819D02*
X16680952Y-4757200D01*
X16680952Y-4757200D02*
X16633333Y-4709580D01*
X16633333Y-4709580D02*
X16585714Y-4614342D01*
X16585714Y-4614342D02*
X16538095Y-4423866D01*
X16538095Y-4423866D02*
X16538095Y-4185771D01*
X16538095Y-4185771D02*
X16585714Y-3995295D01*
X16585714Y-3995295D02*
X16633333Y-3900057D01*
X16633333Y-3900057D02*
X16680952Y-3852438D01*
X16680952Y-3852438D02*
X16776190Y-3804819D01*
X17728571Y-3804819D02*
X17823809Y-3804819D01*
X17823809Y-3804819D02*
X17919047Y-3852438D01*
X17919047Y-3852438D02*
X17966666Y-3900057D01*
X17966666Y-3900057D02*
X18014285Y-3995295D01*
X18014285Y-3995295D02*
X18061904Y-4185771D01*
X18061904Y-4185771D02*
X18061904Y-4423866D01*
X18061904Y-4423866D02*
X18014285Y-4614342D01*
X18014285Y-4614342D02*
X17966666Y-4709580D01*
X17966666Y-4709580D02*
X17919047Y-4757200D01*
X17919047Y-4757200D02*
X17823809Y-4804819D01*
X17823809Y-4804819D02*
X17728571Y-4804819D01*
X17728571Y-4804819D02*
X17633333Y-4757200D01*
X17633333Y-4757200D02*
X17585714Y-4709580D01*
X17585714Y-4709580D02*
X17538095Y-4614342D01*
X17538095Y-4614342D02*
X17490476Y-4423866D01*
X17490476Y-4423866D02*
X17490476Y-4185771D01*
X17490476Y-4185771D02*
X17538095Y-3995295D01*
X17538095Y-3995295D02*
X17585714Y-3900057D01*
X17585714Y-3900057D02*
X17633333Y-3852438D01*
X17633333Y-3852438D02*
X17728571Y-3804819D01*
X18680952Y-3804819D02*
X18776190Y-3804819D01*
X18776190Y-3804819D02*
X18871428Y-3852438D01*
X18871428Y-3852438D02*
X18919047Y-3900057D01*
X18919047Y-3900057D02*
X18966666Y-3995295D01*
X18966666Y-3995295D02*
X19014285Y-4185771D01*
X19014285Y-4185771D02*
X19014285Y-4423866D01*
X19014285Y-4423866D02*
X18966666Y-4614342D01*
X18966666Y-4614342D02*
X18919047Y-4709580D01*
X18919047Y-4709580D02*
X18871428Y-4757200D01*
X18871428Y-4757200D02*
X18776190Y-4804819D01*
X18776190Y-4804819D02*
X18680952Y-4804819D01*
X18680952Y-4804819D02*
X18585714Y-4757200D01*
X18585714Y-4757200D02*
X18538095Y-4709580D01*
X18538095Y-4709580D02*
X18490476Y-4614342D01*
X18490476Y-4614342D02*
X18442857Y-4423866D01*
X18442857Y-4423866D02*
X18442857Y-4185771D01*
X18442857Y-4185771D02*
X18490476Y-3995295D01*
X18490476Y-3995295D02*
X18538095Y-3900057D01*
X18538095Y-3900057D02*
X18585714Y-3852438D01*
X18585714Y-3852438D02*
X18680952Y-3804819D01*
X20204762Y-4804819D02*
X20204762Y-4138152D01*
X20204762Y-4233390D02*
X20252381Y-4185771D01*
X20252381Y-4185771D02*
X20347619Y-4138152D01*
X20347619Y-4138152D02*
X20490476Y-4138152D01*
X20490476Y-4138152D02*
X20585714Y-4185771D01*
X20585714Y-4185771D02*
X20633333Y-4281009D01*
X20633333Y-4281009D02*
X20633333Y-4804819D01*
X20633333Y-4281009D02*
X20680952Y-4185771D01*
X20680952Y-4185771D02*
X20776190Y-4138152D01*
X20776190Y-4138152D02*
X20919047Y-4138152D01*
X20919047Y-4138152D02*
X21014286Y-4185771D01*
X21014286Y-4185771D02*
X21061905Y-4281009D01*
X21061905Y-4281009D02*
X21061905Y-4804819D01*
X21538095Y-4804819D02*
X21538095Y-4138152D01*
X21538095Y-4233390D02*
X21585714Y-4185771D01*
X21585714Y-4185771D02*
X21680952Y-4138152D01*
X21680952Y-4138152D02*
X21823809Y-4138152D01*
X21823809Y-4138152D02*
X21919047Y-4185771D01*
X21919047Y-4185771D02*
X21966666Y-4281009D01*
X21966666Y-4281009D02*
X21966666Y-4804819D01*
X21966666Y-4281009D02*
X22014285Y-4185771D01*
X22014285Y-4185771D02*
X22109523Y-4138152D01*
X22109523Y-4138152D02*
X22252380Y-4138152D01*
X22252380Y-4138152D02*
X22347619Y-4185771D01*
X22347619Y-4185771D02*
X22395238Y-4281009D01*
X22395238Y-4281009D02*
X22395238Y-4804819D01*
X19950000Y-500000D02*
X19950000Y-6086420D01*
X16650000Y-500000D02*
X16650000Y-6086420D01*
X19950000Y-5500000D02*
X16650000Y-5500000D01*
X19950000Y-5500000D02*
X16650000Y-5500000D01*
X19950000Y-5500000D02*
X18823496Y-6086421D01*
X19950000Y-5500000D02*
X18823496Y-4913579D01*
X16650000Y-5500000D02*
X17776504Y-4913579D01*
X16650000Y-5500000D02*
X17776504Y-6086421D01*
X23804819Y59827382D02*
X23804819Y59255954D01*
X23804819Y59541668D02*
X22804819Y59541668D01*
X22804819Y59541668D02*
X22947676Y59446430D01*
X22947676Y59446430D02*
X23042914Y59351192D01*
X23042914Y59351192D02*
X23090533Y59255954D01*
X22804819Y60732144D02*
X22804819Y60255954D01*
X22804819Y60255954D02*
X23281009Y60208335D01*
X23281009Y60208335D02*
X23233390Y60255954D01*
X23233390Y60255954D02*
X23185771Y60351192D01*
X23185771Y60351192D02*
X23185771Y60589287D01*
X23185771Y60589287D02*
X23233390Y60684525D01*
X23233390Y60684525D02*
X23281009Y60732144D01*
X23281009Y60732144D02*
X23376247Y60779763D01*
X23376247Y60779763D02*
X23614342Y60779763D01*
X23614342Y60779763D02*
X23709580Y60732144D01*
X23709580Y60732144D02*
X23757200Y60684525D01*
X23757200Y60684525D02*
X23804819Y60589287D01*
X23804819Y60589287D02*
X23804819Y60351192D01*
X23804819Y60351192D02*
X23757200Y60255954D01*
X23757200Y60255954D02*
X23709580Y60208335D01*
X23709580Y61208335D02*
X23757200Y61255954D01*
X23757200Y61255954D02*
X23804819Y61208335D01*
X23804819Y61208335D02*
X23757200Y61160716D01*
X23757200Y61160716D02*
X23709580Y61208335D01*
X23709580Y61208335D02*
X23804819Y61208335D01*
X22900057Y61636906D02*
X22852438Y61684525D01*
X22852438Y61684525D02*
X22804819Y61779763D01*
X22804819Y61779763D02*
X22804819Y62017858D01*
X22804819Y62017858D02*
X22852438Y62113096D01*
X22852438Y62113096D02*
X22900057Y62160715D01*
X22900057Y62160715D02*
X22995295Y62208334D01*
X22995295Y62208334D02*
X23090533Y62208334D01*
X23090533Y62208334D02*
X23233390Y62160715D01*
X23233390Y62160715D02*
X23804819Y61589287D01*
X23804819Y61589287D02*
X23804819Y62208334D01*
X22804819Y63113096D02*
X22804819Y62636906D01*
X22804819Y62636906D02*
X23281009Y62589287D01*
X23281009Y62589287D02*
X23233390Y62636906D01*
X23233390Y62636906D02*
X23185771Y62732144D01*
X23185771Y62732144D02*
X23185771Y62970239D01*
X23185771Y62970239D02*
X23233390Y63065477D01*
X23233390Y63065477D02*
X23281009Y63113096D01*
X23281009Y63113096D02*
X23376247Y63160715D01*
X23376247Y63160715D02*
X23614342Y63160715D01*
X23614342Y63160715D02*
X23709580Y63113096D01*
X23709580Y63113096D02*
X23757200Y63065477D01*
X23757200Y63065477D02*
X23804819Y62970239D01*
X23804819Y62970239D02*
X23804819Y62732144D01*
X23804819Y62732144D02*
X23757200Y62636906D01*
X23757200Y62636906D02*
X23709580Y62589287D01*
X22804819Y63779763D02*
X22804819Y63875001D01*
X22804819Y63875001D02*
X22852438Y63970239D01*
X22852438Y63970239D02*
X22900057Y64017858D01*
X22900057Y64017858D02*
X22995295Y64065477D01*
X22995295Y64065477D02*
X23185771Y64113096D01*
X23185771Y64113096D02*
X23423866Y64113096D01*
X23423866Y64113096D02*
X23614342Y64065477D01*
X23614342Y64065477D02*
X23709580Y64017858D01*
X23709580Y64017858D02*
X23757200Y63970239D01*
X23757200Y63970239D02*
X23804819Y63875001D01*
X23804819Y63875001D02*
X23804819Y63779763D01*
X23804819Y63779763D02*
X23757200Y63684525D01*
X23757200Y63684525D02*
X23709580Y63636906D01*
X23709580Y63636906D02*
X23614342Y63589287D01*
X23614342Y63589287D02*
X23423866Y63541668D01*
X23423866Y63541668D02*
X23185771Y63541668D01*
X23185771Y63541668D02*
X22995295Y63589287D01*
X22995295Y63589287D02*
X22900057Y63636906D01*
X22900057Y63636906D02*
X22852438Y63684525D01*
X22852438Y63684525D02*
X22804819Y63779763D01*
X22804819Y64732144D02*
X22804819Y64827382D01*
X22804819Y64827382D02*
X22852438Y64922620D01*
X22852438Y64922620D02*
X22900057Y64970239D01*
X22900057Y64970239D02*
X22995295Y65017858D01*
X22995295Y65017858D02*
X23185771Y65065477D01*
X23185771Y65065477D02*
X23423866Y65065477D01*
X23423866Y65065477D02*
X23614342Y65017858D01*
X23614342Y65017858D02*
X23709580Y64970239D01*
X23709580Y64970239D02*
X23757200Y64922620D01*
X23757200Y64922620D02*
X23804819Y64827382D01*
X23804819Y64827382D02*
X23804819Y64732144D01*
X23804819Y64732144D02*
X23757200Y64636906D01*
X23757200Y64636906D02*
X23709580Y64589287D01*
X23709580Y64589287D02*
X23614342Y64541668D01*
X23614342Y64541668D02*
X23423866Y64494049D01*
X23423866Y64494049D02*
X23185771Y64494049D01*
X23185771Y64494049D02*
X22995295Y64541668D01*
X22995295Y64541668D02*
X22900057Y64589287D01*
X22900057Y64589287D02*
X22852438Y64636906D01*
X22852438Y64636906D02*
X22804819Y64732144D01*
X23804819Y66255954D02*
X23138152Y66255954D01*
X23233390Y66255954D02*
X23185771Y66303573D01*
X23185771Y66303573D02*
X23138152Y66398811D01*
X23138152Y66398811D02*
X23138152Y66541668D01*
X23138152Y66541668D02*
X23185771Y66636906D01*
X23185771Y66636906D02*
X23281009Y66684525D01*
X23281009Y66684525D02*
X23804819Y66684525D01*
X23281009Y66684525D02*
X23185771Y66732144D01*
X23185771Y66732144D02*
X23138152Y66827382D01*
X23138152Y66827382D02*
X23138152Y66970239D01*
X23138152Y66970239D02*
X23185771Y67065478D01*
X23185771Y67065478D02*
X23281009Y67113097D01*
X23281009Y67113097D02*
X23804819Y67113097D01*
X23804819Y67589287D02*
X23138152Y67589287D01*
X23233390Y67589287D02*
X23185771Y67636906D01*
X23185771Y67636906D02*
X23138152Y67732144D01*
X23138152Y67732144D02*
X23138152Y67875001D01*
X23138152Y67875001D02*
X23185771Y67970239D01*
X23185771Y67970239D02*
X23281009Y68017858D01*
X23281009Y68017858D02*
X23804819Y68017858D01*
X23281009Y68017858D02*
X23185771Y68065477D01*
X23185771Y68065477D02*
X23138152Y68160715D01*
X23138152Y68160715D02*
X23138152Y68303572D01*
X23138152Y68303572D02*
X23185771Y68398811D01*
X23185771Y68398811D02*
X23281009Y68446430D01*
X23281009Y68446430D02*
X23804819Y68446430D01*
X20450000Y56250000D02*
X25086420Y56250000D01*
X20450000Y71500000D02*
X25086420Y71500000D01*
X24500000Y56250000D02*
X24500000Y71500000D01*
X24500000Y56250000D02*
X24500000Y71500000D01*
X24500000Y56250000D02*
X23913579Y57376504D01*
X24500000Y56250000D02*
X25086421Y57376504D01*
X24500000Y71500000D02*
X25086421Y70373496D01*
X24500000Y71500000D02*
X23913579Y70373496D01*
X31554819Y45952382D02*
X31554819Y45380954D01*
X31554819Y45666668D02*
X30554819Y45666668D01*
X30554819Y45666668D02*
X30697676Y45571430D01*
X30697676Y45571430D02*
X30792914Y45476192D01*
X30792914Y45476192D02*
X30840533Y45380954D01*
X30650057Y46333335D02*
X30602438Y46380954D01*
X30602438Y46380954D02*
X30554819Y46476192D01*
X30554819Y46476192D02*
X30554819Y46714287D01*
X30554819Y46714287D02*
X30602438Y46809525D01*
X30602438Y46809525D02*
X30650057Y46857144D01*
X30650057Y46857144D02*
X30745295Y46904763D01*
X30745295Y46904763D02*
X30840533Y46904763D01*
X30840533Y46904763D02*
X30983390Y46857144D01*
X30983390Y46857144D02*
X31554819Y46285716D01*
X31554819Y46285716D02*
X31554819Y46904763D01*
X31459580Y47333335D02*
X31507200Y47380954D01*
X31507200Y47380954D02*
X31554819Y47333335D01*
X31554819Y47333335D02*
X31507200Y47285716D01*
X31507200Y47285716D02*
X31459580Y47333335D01*
X31459580Y47333335D02*
X31554819Y47333335D01*
X30554819Y48285715D02*
X30554819Y47809525D01*
X30554819Y47809525D02*
X31031009Y47761906D01*
X31031009Y47761906D02*
X30983390Y47809525D01*
X30983390Y47809525D02*
X30935771Y47904763D01*
X30935771Y47904763D02*
X30935771Y48142858D01*
X30935771Y48142858D02*
X30983390Y48238096D01*
X30983390Y48238096D02*
X31031009Y48285715D01*
X31031009Y48285715D02*
X31126247Y48333334D01*
X31126247Y48333334D02*
X31364342Y48333334D01*
X31364342Y48333334D02*
X31459580Y48285715D01*
X31459580Y48285715D02*
X31507200Y48238096D01*
X31507200Y48238096D02*
X31554819Y48142858D01*
X31554819Y48142858D02*
X31554819Y47904763D01*
X31554819Y47904763D02*
X31507200Y47809525D01*
X31507200Y47809525D02*
X31459580Y47761906D01*
X30554819Y48952382D02*
X30554819Y49047620D01*
X30554819Y49047620D02*
X30602438Y49142858D01*
X30602438Y49142858D02*
X30650057Y49190477D01*
X30650057Y49190477D02*
X30745295Y49238096D01*
X30745295Y49238096D02*
X30935771Y49285715D01*
X30935771Y49285715D02*
X31173866Y49285715D01*
X31173866Y49285715D02*
X31364342Y49238096D01*
X31364342Y49238096D02*
X31459580Y49190477D01*
X31459580Y49190477D02*
X31507200Y49142858D01*
X31507200Y49142858D02*
X31554819Y49047620D01*
X31554819Y49047620D02*
X31554819Y48952382D01*
X31554819Y48952382D02*
X31507200Y48857144D01*
X31507200Y48857144D02*
X31459580Y48809525D01*
X31459580Y48809525D02*
X31364342Y48761906D01*
X31364342Y48761906D02*
X31173866Y48714287D01*
X31173866Y48714287D02*
X30935771Y48714287D01*
X30935771Y48714287D02*
X30745295Y48761906D01*
X30745295Y48761906D02*
X30650057Y48809525D01*
X30650057Y48809525D02*
X30602438Y48857144D01*
X30602438Y48857144D02*
X30554819Y48952382D01*
X30554819Y49904763D02*
X30554819Y50000001D01*
X30554819Y50000001D02*
X30602438Y50095239D01*
X30602438Y50095239D02*
X30650057Y50142858D01*
X30650057Y50142858D02*
X30745295Y50190477D01*
X30745295Y50190477D02*
X30935771Y50238096D01*
X30935771Y50238096D02*
X31173866Y50238096D01*
X31173866Y50238096D02*
X31364342Y50190477D01*
X31364342Y50190477D02*
X31459580Y50142858D01*
X31459580Y50142858D02*
X31507200Y50095239D01*
X31507200Y50095239D02*
X31554819Y50000001D01*
X31554819Y50000001D02*
X31554819Y49904763D01*
X31554819Y49904763D02*
X31507200Y49809525D01*
X31507200Y49809525D02*
X31459580Y49761906D01*
X31459580Y49761906D02*
X31364342Y49714287D01*
X31364342Y49714287D02*
X31173866Y49666668D01*
X31173866Y49666668D02*
X30935771Y49666668D01*
X30935771Y49666668D02*
X30745295Y49714287D01*
X30745295Y49714287D02*
X30650057Y49761906D01*
X30650057Y49761906D02*
X30602438Y49809525D01*
X30602438Y49809525D02*
X30554819Y49904763D01*
X30554819Y50857144D02*
X30554819Y50952382D01*
X30554819Y50952382D02*
X30602438Y51047620D01*
X30602438Y51047620D02*
X30650057Y51095239D01*
X30650057Y51095239D02*
X30745295Y51142858D01*
X30745295Y51142858D02*
X30935771Y51190477D01*
X30935771Y51190477D02*
X31173866Y51190477D01*
X31173866Y51190477D02*
X31364342Y51142858D01*
X31364342Y51142858D02*
X31459580Y51095239D01*
X31459580Y51095239D02*
X31507200Y51047620D01*
X31507200Y51047620D02*
X31554819Y50952382D01*
X31554819Y50952382D02*
X31554819Y50857144D01*
X31554819Y50857144D02*
X31507200Y50761906D01*
X31507200Y50761906D02*
X31459580Y50714287D01*
X31459580Y50714287D02*
X31364342Y50666668D01*
X31364342Y50666668D02*
X31173866Y50619049D01*
X31173866Y50619049D02*
X30935771Y50619049D01*
X30935771Y50619049D02*
X30745295Y50666668D01*
X30745295Y50666668D02*
X30650057Y50714287D01*
X30650057Y50714287D02*
X30602438Y50761906D01*
X30602438Y50761906D02*
X30554819Y50857144D01*
X31554819Y52380954D02*
X30888152Y52380954D01*
X30983390Y52380954D02*
X30935771Y52428573D01*
X30935771Y52428573D02*
X30888152Y52523811D01*
X30888152Y52523811D02*
X30888152Y52666668D01*
X30888152Y52666668D02*
X30935771Y52761906D01*
X30935771Y52761906D02*
X31031009Y52809525D01*
X31031009Y52809525D02*
X31554819Y52809525D01*
X31031009Y52809525D02*
X30935771Y52857144D01*
X30935771Y52857144D02*
X30888152Y52952382D01*
X30888152Y52952382D02*
X30888152Y53095239D01*
X30888152Y53095239D02*
X30935771Y53190478D01*
X30935771Y53190478D02*
X31031009Y53238097D01*
X31031009Y53238097D02*
X31554819Y53238097D01*
X31554819Y53714287D02*
X30888152Y53714287D01*
X30983390Y53714287D02*
X30935771Y53761906D01*
X30935771Y53761906D02*
X30888152Y53857144D01*
X30888152Y53857144D02*
X30888152Y54000001D01*
X30888152Y54000001D02*
X30935771Y54095239D01*
X30935771Y54095239D02*
X31031009Y54142858D01*
X31031009Y54142858D02*
X31554819Y54142858D01*
X31031009Y54142858D02*
X30935771Y54190477D01*
X30935771Y54190477D02*
X30888152Y54285715D01*
X30888152Y54285715D02*
X30888152Y54428572D01*
X30888152Y54428572D02*
X30935771Y54523811D01*
X30935771Y54523811D02*
X31031009Y54571430D01*
X31031009Y54571430D02*
X31554819Y54571430D01*
X20450000Y56250000D02*
X32836420Y56250000D01*
X20450000Y43750000D02*
X32836420Y43750000D01*
X32250000Y56250000D02*
X32250000Y43750000D01*
X32250000Y56250000D02*
X32250000Y43750000D01*
X32250000Y56250000D02*
X32836421Y55123496D01*
X32250000Y56250000D02*
X31663579Y55123496D01*
X32250000Y43750000D02*
X31663579Y44876504D01*
X32250000Y43750000D02*
X32836421Y44876504D01*
X-13770591Y31092946D02*
X-13770125Y31759613D01*
X-13770125Y31759613D02*
X-12770424Y31330342D01*
X-12769492Y32663675D02*
X-12769892Y32092247D01*
X-12769692Y32377961D02*
X-13769692Y32378660D01*
X-13769692Y32378660D02*
X-13626901Y32283322D01*
X-13626901Y32283322D02*
X-13531730Y32188017D01*
X-13531730Y32188017D02*
X-13484177Y32092746D01*
X-12864430Y33092313D02*
X-12816778Y33139899D01*
X-12816778Y33139899D02*
X-12769192Y33092246D01*
X-12769192Y33092246D02*
X-12816845Y33044661D01*
X-12816845Y33044661D02*
X-12864430Y33092313D01*
X-12864430Y33092313D02*
X-12769192Y33092246D01*
X-13768526Y34045326D02*
X-13768859Y33569136D01*
X-13768859Y33569136D02*
X-13292702Y33521183D01*
X-13292702Y33521183D02*
X-13340288Y33568836D01*
X-13340288Y33568836D02*
X-13387840Y33664107D01*
X-13387840Y33664107D02*
X-13387674Y33902202D01*
X-13387674Y33902202D02*
X-13339988Y33997407D01*
X-13339988Y33997407D02*
X-13292336Y34044993D01*
X-13292336Y34044993D02*
X-13197064Y34092545D01*
X-13197064Y34092545D02*
X-12958969Y34092379D01*
X-12958969Y34092379D02*
X-12863764Y34044693D01*
X-12863764Y34044693D02*
X-12816179Y33997041D01*
X-12816179Y33997041D02*
X-12768626Y33901769D01*
X-12768626Y33901769D02*
X-12768793Y33663674D01*
X-12768793Y33663674D02*
X-12816478Y33568470D01*
X-12816478Y33568470D02*
X-12864131Y33520884D01*
X-13768060Y34711992D02*
X-13767993Y34807231D01*
X-13767993Y34807231D02*
X-13720308Y34902435D01*
X-13720308Y34902435D02*
X-13672655Y34950021D01*
X-13672655Y34950021D02*
X-13577384Y34997573D01*
X-13577384Y34997573D02*
X-13386875Y35045059D01*
X-13386875Y35045059D02*
X-13148779Y35044893D01*
X-13148779Y35044893D02*
X-12958337Y34997141D01*
X-12958337Y34997141D02*
X-12863132Y34949455D01*
X-12863132Y34949455D02*
X-12815546Y34901803D01*
X-12815546Y34901803D02*
X-12767994Y34806531D01*
X-12767994Y34806531D02*
X-12768060Y34711293D01*
X-12768060Y34711293D02*
X-12815746Y34616088D01*
X-12815746Y34616088D02*
X-12863398Y34568503D01*
X-12863398Y34568503D02*
X-12958670Y34520950D01*
X-12958670Y34520950D02*
X-13149179Y34473464D01*
X-13149179Y34473464D02*
X-13387274Y34473631D01*
X-13387274Y34473631D02*
X-13577717Y34521383D01*
X-13577717Y34521383D02*
X-13672922Y34569069D01*
X-13672922Y34569069D02*
X-13720507Y34616721D01*
X-13720507Y34616721D02*
X-13768060Y34711992D01*
X-13767394Y35664373D02*
X-13767327Y35759611D01*
X-13767327Y35759611D02*
X-13719642Y35854816D01*
X-13719642Y35854816D02*
X-13671989Y35902402D01*
X-13671989Y35902402D02*
X-13576718Y35949954D01*
X-13576718Y35949954D02*
X-13386209Y35997440D01*
X-13386209Y35997440D02*
X-13148113Y35997274D01*
X-13148113Y35997274D02*
X-12957671Y35949521D01*
X-12957671Y35949521D02*
X-12862466Y35901836D01*
X-12862466Y35901836D02*
X-12814880Y35854183D01*
X-12814880Y35854183D02*
X-12767328Y35758912D01*
X-12767328Y35758912D02*
X-12767394Y35663674D01*
X-12767394Y35663674D02*
X-12815080Y35568469D01*
X-12815080Y35568469D02*
X-12862732Y35520883D01*
X-12862732Y35520883D02*
X-12958004Y35473331D01*
X-12958004Y35473331D02*
X-13148513Y35425845D01*
X-13148513Y35425845D02*
X-13386608Y35426012D01*
X-13386608Y35426012D02*
X-13577051Y35473764D01*
X-13577051Y35473764D02*
X-13672256Y35521449D01*
X-13672256Y35521449D02*
X-13719841Y35569102D01*
X-13719841Y35569102D02*
X-13767394Y35664373D01*
X-13766728Y36616754D02*
X-13766661Y36711992D01*
X-13766661Y36711992D02*
X-13718976Y36807197D01*
X-13718976Y36807197D02*
X-13671323Y36854783D01*
X-13671323Y36854783D02*
X-13576052Y36902335D01*
X-13576052Y36902335D02*
X-13385543Y36949821D01*
X-13385543Y36949821D02*
X-13147447Y36949654D01*
X-13147447Y36949654D02*
X-12957005Y36901902D01*
X-12957005Y36901902D02*
X-12861800Y36854216D01*
X-12861800Y36854216D02*
X-12814214Y36806564D01*
X-12814214Y36806564D02*
X-12766662Y36711293D01*
X-12766662Y36711293D02*
X-12766728Y36616055D01*
X-12766728Y36616055D02*
X-12814414Y36520850D01*
X-12814414Y36520850D02*
X-12862066Y36473264D01*
X-12862066Y36473264D02*
X-12957338Y36425712D01*
X-12957338Y36425712D02*
X-13147847Y36378226D01*
X-13147847Y36378226D02*
X-13385942Y36378392D01*
X-13385942Y36378392D02*
X-13576385Y36426145D01*
X-13576385Y36426145D02*
X-13671590Y36473830D01*
X-13671590Y36473830D02*
X-13719175Y36521483D01*
X-13719175Y36521483D02*
X-13766728Y36616754D01*
X-12765663Y38139864D02*
X-13432329Y38140330D01*
X-13337091Y38140264D02*
X-13384677Y38187916D01*
X-13384677Y38187916D02*
X-13432229Y38283187D01*
X-13432229Y38283187D02*
X-13432129Y38426045D01*
X-13432129Y38426045D02*
X-13384444Y38521249D01*
X-13384444Y38521249D02*
X-13289172Y38568802D01*
X-13289172Y38568802D02*
X-12765363Y38568435D01*
X-13289172Y38568802D02*
X-13384377Y38616487D01*
X-13384377Y38616487D02*
X-13431929Y38711759D01*
X-13431929Y38711759D02*
X-13431830Y38854616D01*
X-13431830Y38854616D02*
X-13384144Y38949821D01*
X-13384144Y38949821D02*
X-13288873Y38997373D01*
X-13288873Y38997373D02*
X-12765063Y38997007D01*
X-12764730Y39473197D02*
X-13431397Y39473663D01*
X-13336159Y39473596D02*
X-13383744Y39521249D01*
X-13383744Y39521249D02*
X-13431297Y39616520D01*
X-13431297Y39616520D02*
X-13431197Y39759377D01*
X-13431197Y39759377D02*
X-13383511Y39854582D01*
X-13383511Y39854582D02*
X-13288240Y39902134D01*
X-13288240Y39902134D02*
X-12764430Y39901768D01*
X-13288240Y39902134D02*
X-13383445Y39949820D01*
X-13383445Y39949820D02*
X-13430997Y40045091D01*
X-13430997Y40045091D02*
X-13430897Y40187949D01*
X-13430897Y40187949D02*
X-13383212Y40283153D01*
X-13383212Y40283153D02*
X-13287940Y40330706D01*
X-13287940Y40330706D02*
X-12764131Y40330339D01*
X-550000Y350D02*
X-12683566Y8835D01*
X-500000Y71500350D02*
X-12633566Y71508835D01*
X-12097146Y8425D02*
X-12047146Y71508425D01*
X-12097146Y8425D02*
X-12047146Y71508425D01*
X-12097146Y8425D02*
X-12682779Y1135339D01*
X-12097146Y8425D02*
X-11509938Y1134518D01*
X-12047146Y71508425D02*
X-11461513Y70381511D01*
X-12047146Y71508425D02*
X-12634354Y70382332D01*
X-3695181Y-5690475D02*
X-3695181Y-5071428D01*
X-3695181Y-5071428D02*
X-3314229Y-5404761D01*
X-3314229Y-5404761D02*
X-3314229Y-5261904D01*
X-3314229Y-5261904D02*
X-3266610Y-5166666D01*
X-3266610Y-5166666D02*
X-3218991Y-5119047D01*
X-3218991Y-5119047D02*
X-3123753Y-5071428D01*
X-3123753Y-5071428D02*
X-2885658Y-5071428D01*
X-2885658Y-5071428D02*
X-2790420Y-5119047D01*
X-2790420Y-5119047D02*
X-2742800Y-5166666D01*
X-2742800Y-5166666D02*
X-2695181Y-5261904D01*
X-2695181Y-5261904D02*
X-2695181Y-5547618D01*
X-2695181Y-5547618D02*
X-2742800Y-5642856D01*
X-2742800Y-5642856D02*
X-2790420Y-5690475D01*
X-2790420Y-4642856D02*
X-2742800Y-4595237D01*
X-2742800Y-4595237D02*
X-2695181Y-4642856D01*
X-2695181Y-4642856D02*
X-2742800Y-4690475D01*
X-2742800Y-4690475D02*
X-2790420Y-4642856D01*
X-2790420Y-4642856D02*
X-2695181Y-4642856D01*
X-3695181Y-3976190D02*
X-3695181Y-3880952D01*
X-3695181Y-3880952D02*
X-3647562Y-3785714D01*
X-3647562Y-3785714D02*
X-3599943Y-3738095D01*
X-3599943Y-3738095D02*
X-3504705Y-3690476D01*
X-3504705Y-3690476D02*
X-3314229Y-3642857D01*
X-3314229Y-3642857D02*
X-3076134Y-3642857D01*
X-3076134Y-3642857D02*
X-2885658Y-3690476D01*
X-2885658Y-3690476D02*
X-2790420Y-3738095D01*
X-2790420Y-3738095D02*
X-2742800Y-3785714D01*
X-2742800Y-3785714D02*
X-2695181Y-3880952D01*
X-2695181Y-3880952D02*
X-2695181Y-3976190D01*
X-2695181Y-3976190D02*
X-2742800Y-4071428D01*
X-2742800Y-4071428D02*
X-2790420Y-4119047D01*
X-2790420Y-4119047D02*
X-2885658Y-4166666D01*
X-2885658Y-4166666D02*
X-3076134Y-4214285D01*
X-3076134Y-4214285D02*
X-3314229Y-4214285D01*
X-3314229Y-4214285D02*
X-3504705Y-4166666D01*
X-3504705Y-4166666D02*
X-3599943Y-4119047D01*
X-3599943Y-4119047D02*
X-3647562Y-4071428D01*
X-3647562Y-4071428D02*
X-3695181Y-3976190D01*
X-3695181Y-3023809D02*
X-3695181Y-2928571D01*
X-3695181Y-2928571D02*
X-3647562Y-2833333D01*
X-3647562Y-2833333D02*
X-3599943Y-2785714D01*
X-3599943Y-2785714D02*
X-3504705Y-2738095D01*
X-3504705Y-2738095D02*
X-3314229Y-2690476D01*
X-3314229Y-2690476D02*
X-3076134Y-2690476D01*
X-3076134Y-2690476D02*
X-2885658Y-2738095D01*
X-2885658Y-2738095D02*
X-2790420Y-2785714D01*
X-2790420Y-2785714D02*
X-2742800Y-2833333D01*
X-2742800Y-2833333D02*
X-2695181Y-2928571D01*
X-2695181Y-2928571D02*
X-2695181Y-3023809D01*
X-2695181Y-3023809D02*
X-2742800Y-3119047D01*
X-2742800Y-3119047D02*
X-2790420Y-3166666D01*
X-2790420Y-3166666D02*
X-2885658Y-3214285D01*
X-2885658Y-3214285D02*
X-3076134Y-3261904D01*
X-3076134Y-3261904D02*
X-3314229Y-3261904D01*
X-3314229Y-3261904D02*
X-3504705Y-3214285D01*
X-3504705Y-3214285D02*
X-3599943Y-3166666D01*
X-3599943Y-3166666D02*
X-3647562Y-3119047D01*
X-3647562Y-3119047D02*
X-3695181Y-3023809D01*
X-3695181Y-2071428D02*
X-3695181Y-1976190D01*
X-3695181Y-1976190D02*
X-3647562Y-1880952D01*
X-3647562Y-1880952D02*
X-3599943Y-1833333D01*
X-3599943Y-1833333D02*
X-3504705Y-1785714D01*
X-3504705Y-1785714D02*
X-3314229Y-1738095D01*
X-3314229Y-1738095D02*
X-3076134Y-1738095D01*
X-3076134Y-1738095D02*
X-2885658Y-1785714D01*
X-2885658Y-1785714D02*
X-2790420Y-1833333D01*
X-2790420Y-1833333D02*
X-2742800Y-1880952D01*
X-2742800Y-1880952D02*
X-2695181Y-1976190D01*
X-2695181Y-1976190D02*
X-2695181Y-2071428D01*
X-2695181Y-2071428D02*
X-2742800Y-2166666D01*
X-2742800Y-2166666D02*
X-2790420Y-2214285D01*
X-2790420Y-2214285D02*
X-2885658Y-2261904D01*
X-2885658Y-2261904D02*
X-3076134Y-2309523D01*
X-3076134Y-2309523D02*
X-3314229Y-2309523D01*
X-3314229Y-2309523D02*
X-3504705Y-2261904D01*
X-3504705Y-2261904D02*
X-3599943Y-2214285D01*
X-3599943Y-2214285D02*
X-3647562Y-2166666D01*
X-3647562Y-2166666D02*
X-3695181Y-2071428D01*
X-3695181Y-1119047D02*
X-3695181Y-1023809D01*
X-3695181Y-1023809D02*
X-3647562Y-928571D01*
X-3647562Y-928571D02*
X-3599943Y-880952D01*
X-3599943Y-880952D02*
X-3504705Y-833333D01*
X-3504705Y-833333D02*
X-3314229Y-785714D01*
X-3314229Y-785714D02*
X-3076134Y-785714D01*
X-3076134Y-785714D02*
X-2885658Y-833333D01*
X-2885658Y-833333D02*
X-2790420Y-880952D01*
X-2790420Y-880952D02*
X-2742800Y-928571D01*
X-2742800Y-928571D02*
X-2695181Y-1023809D01*
X-2695181Y-1023809D02*
X-2695181Y-1119047D01*
X-2695181Y-1119047D02*
X-2742800Y-1214285D01*
X-2742800Y-1214285D02*
X-2790420Y-1261904D01*
X-2790420Y-1261904D02*
X-2885658Y-1309523D01*
X-2885658Y-1309523D02*
X-3076134Y-1357142D01*
X-3076134Y-1357142D02*
X-3314229Y-1357142D01*
X-3314229Y-1357142D02*
X-3504705Y-1309523D01*
X-3504705Y-1309523D02*
X-3599943Y-1261904D01*
X-3599943Y-1261904D02*
X-3647562Y-1214285D01*
X-3647562Y-1214285D02*
X-3695181Y-1119047D01*
X-2695181Y404763D02*
X-3361848Y404763D01*
X-3266610Y404763D02*
X-3314229Y452382D01*
X-3314229Y452382D02*
X-3361848Y547620D01*
X-3361848Y547620D02*
X-3361848Y690477D01*
X-3361848Y690477D02*
X-3314229Y785715D01*
X-3314229Y785715D02*
X-3218991Y833334D01*
X-3218991Y833334D02*
X-2695181Y833334D01*
X-3218991Y833334D02*
X-3314229Y880953D01*
X-3314229Y880953D02*
X-3361848Y976191D01*
X-3361848Y976191D02*
X-3361848Y1119048D01*
X-3361848Y1119048D02*
X-3314229Y1214287D01*
X-3314229Y1214287D02*
X-3218991Y1261906D01*
X-3218991Y1261906D02*
X-2695181Y1261906D01*
X-2695181Y1738096D02*
X-3361848Y1738096D01*
X-3266610Y1738096D02*
X-3314229Y1785715D01*
X-3314229Y1785715D02*
X-3361848Y1880953D01*
X-3361848Y1880953D02*
X-3361848Y2023810D01*
X-3361848Y2023810D02*
X-3314229Y2119048D01*
X-3314229Y2119048D02*
X-3218991Y2166667D01*
X-3218991Y2166667D02*
X-2695181Y2166667D01*
X-3218991Y2166667D02*
X-3314229Y2214286D01*
X-3314229Y2214286D02*
X-3361848Y2309524D01*
X-3361848Y2309524D02*
X-3361848Y2452381D01*
X-3361848Y2452381D02*
X-3314229Y2547620D01*
X-3314229Y2547620D02*
X-3218991Y2595239D01*
X-3218991Y2595239D02*
X-2695181Y2595239D01*
X2750000Y0D02*
X-2586420Y0D01*
X2750000Y-3000000D02*
X-2586420Y-3000000D01*
X-2000000Y0D02*
X-2000000Y-3000000D01*
X-2000000Y0D02*
X-2000000Y-3000000D01*
X-2000000Y0D02*
X-1413579Y-1126504D01*
X-2000000Y0D02*
X-2586421Y-1126504D01*
X-2000000Y-3000000D02*
X-2586421Y-1873496D01*
X-2000000Y-3000000D02*
X-1413579Y-1873496D01*
X20927381Y40945181D02*
X20355953Y40945181D01*
X20641667Y40945181D02*
X20641667Y41945181D01*
X20641667Y41945181D02*
X20546429Y41802324D01*
X20546429Y41802324D02*
X20451191Y41707086D01*
X20451191Y41707086D02*
X20355953Y41659467D01*
X21546429Y41945181D02*
X21641667Y41945181D01*
X21641667Y41945181D02*
X21736905Y41897562D01*
X21736905Y41897562D02*
X21784524Y41849943D01*
X21784524Y41849943D02*
X21832143Y41754705D01*
X21832143Y41754705D02*
X21879762Y41564229D01*
X21879762Y41564229D02*
X21879762Y41326134D01*
X21879762Y41326134D02*
X21832143Y41135658D01*
X21832143Y41135658D02*
X21784524Y41040420D01*
X21784524Y41040420D02*
X21736905Y40992800D01*
X21736905Y40992800D02*
X21641667Y40945181D01*
X21641667Y40945181D02*
X21546429Y40945181D01*
X21546429Y40945181D02*
X21451191Y40992800D01*
X21451191Y40992800D02*
X21403572Y41040420D01*
X21403572Y41040420D02*
X21355953Y41135658D01*
X21355953Y41135658D02*
X21308334Y41326134D01*
X21308334Y41326134D02*
X21308334Y41564229D01*
X21308334Y41564229D02*
X21355953Y41754705D01*
X21355953Y41754705D02*
X21403572Y41849943D01*
X21403572Y41849943D02*
X21451191Y41897562D01*
X21451191Y41897562D02*
X21546429Y41945181D01*
X22308334Y41040420D02*
X22355953Y40992800D01*
X22355953Y40992800D02*
X22308334Y40945181D01*
X22308334Y40945181D02*
X22260715Y40992800D01*
X22260715Y40992800D02*
X22308334Y41040420D01*
X22308334Y41040420D02*
X22308334Y40945181D01*
X22975000Y41945181D02*
X23070238Y41945181D01*
X23070238Y41945181D02*
X23165476Y41897562D01*
X23165476Y41897562D02*
X23213095Y41849943D01*
X23213095Y41849943D02*
X23260714Y41754705D01*
X23260714Y41754705D02*
X23308333Y41564229D01*
X23308333Y41564229D02*
X23308333Y41326134D01*
X23308333Y41326134D02*
X23260714Y41135658D01*
X23260714Y41135658D02*
X23213095Y41040420D01*
X23213095Y41040420D02*
X23165476Y40992800D01*
X23165476Y40992800D02*
X23070238Y40945181D01*
X23070238Y40945181D02*
X22975000Y40945181D01*
X22975000Y40945181D02*
X22879762Y40992800D01*
X22879762Y40992800D02*
X22832143Y41040420D01*
X22832143Y41040420D02*
X22784524Y41135658D01*
X22784524Y41135658D02*
X22736905Y41326134D01*
X22736905Y41326134D02*
X22736905Y41564229D01*
X22736905Y41564229D02*
X22784524Y41754705D01*
X22784524Y41754705D02*
X22832143Y41849943D01*
X22832143Y41849943D02*
X22879762Y41897562D01*
X22879762Y41897562D02*
X22975000Y41945181D01*
X24213095Y41945181D02*
X23736905Y41945181D01*
X23736905Y41945181D02*
X23689286Y41468991D01*
X23689286Y41468991D02*
X23736905Y41516610D01*
X23736905Y41516610D02*
X23832143Y41564229D01*
X23832143Y41564229D02*
X24070238Y41564229D01*
X24070238Y41564229D02*
X24165476Y41516610D01*
X24165476Y41516610D02*
X24213095Y41468991D01*
X24213095Y41468991D02*
X24260714Y41373753D01*
X24260714Y41373753D02*
X24260714Y41135658D01*
X24260714Y41135658D02*
X24213095Y41040420D01*
X24213095Y41040420D02*
X24165476Y40992800D01*
X24165476Y40992800D02*
X24070238Y40945181D01*
X24070238Y40945181D02*
X23832143Y40945181D01*
X23832143Y40945181D02*
X23736905Y40992800D01*
X23736905Y40992800D02*
X23689286Y41040420D01*
X24879762Y41945181D02*
X24975000Y41945181D01*
X24975000Y41945181D02*
X25070238Y41897562D01*
X25070238Y41897562D02*
X25117857Y41849943D01*
X25117857Y41849943D02*
X25165476Y41754705D01*
X25165476Y41754705D02*
X25213095Y41564229D01*
X25213095Y41564229D02*
X25213095Y41326134D01*
X25213095Y41326134D02*
X25165476Y41135658D01*
X25165476Y41135658D02*
X25117857Y41040420D01*
X25117857Y41040420D02*
X25070238Y40992800D01*
X25070238Y40992800D02*
X24975000Y40945181D01*
X24975000Y40945181D02*
X24879762Y40945181D01*
X24879762Y40945181D02*
X24784524Y40992800D01*
X24784524Y40992800D02*
X24736905Y41040420D01*
X24736905Y41040420D02*
X24689286Y41135658D01*
X24689286Y41135658D02*
X24641667Y41326134D01*
X24641667Y41326134D02*
X24641667Y41564229D01*
X24641667Y41564229D02*
X24689286Y41754705D01*
X24689286Y41754705D02*
X24736905Y41849943D01*
X24736905Y41849943D02*
X24784524Y41897562D01*
X24784524Y41897562D02*
X24879762Y41945181D01*
X25832143Y41945181D02*
X25927381Y41945181D01*
X25927381Y41945181D02*
X26022619Y41897562D01*
X26022619Y41897562D02*
X26070238Y41849943D01*
X26070238Y41849943D02*
X26117857Y41754705D01*
X26117857Y41754705D02*
X26165476Y41564229D01*
X26165476Y41564229D02*
X26165476Y41326134D01*
X26165476Y41326134D02*
X26117857Y41135658D01*
X26117857Y41135658D02*
X26070238Y41040420D01*
X26070238Y41040420D02*
X26022619Y40992800D01*
X26022619Y40992800D02*
X25927381Y40945181D01*
X25927381Y40945181D02*
X25832143Y40945181D01*
X25832143Y40945181D02*
X25736905Y40992800D01*
X25736905Y40992800D02*
X25689286Y41040420D01*
X25689286Y41040420D02*
X25641667Y41135658D01*
X25641667Y41135658D02*
X25594048Y41326134D01*
X25594048Y41326134D02*
X25594048Y41564229D01*
X25594048Y41564229D02*
X25641667Y41754705D01*
X25641667Y41754705D02*
X25689286Y41849943D01*
X25689286Y41849943D02*
X25736905Y41897562D01*
X25736905Y41897562D02*
X25832143Y41945181D01*
X27355953Y40945181D02*
X27355953Y41611848D01*
X27355953Y41516610D02*
X27403572Y41564229D01*
X27403572Y41564229D02*
X27498810Y41611848D01*
X27498810Y41611848D02*
X27641667Y41611848D01*
X27641667Y41611848D02*
X27736905Y41564229D01*
X27736905Y41564229D02*
X27784524Y41468991D01*
X27784524Y41468991D02*
X27784524Y40945181D01*
X27784524Y41468991D02*
X27832143Y41564229D01*
X27832143Y41564229D02*
X27927381Y41611848D01*
X27927381Y41611848D02*
X28070238Y41611848D01*
X28070238Y41611848D02*
X28165477Y41564229D01*
X28165477Y41564229D02*
X28213096Y41468991D01*
X28213096Y41468991D02*
X28213096Y40945181D01*
X28689286Y40945181D02*
X28689286Y41611848D01*
X28689286Y41516610D02*
X28736905Y41564229D01*
X28736905Y41564229D02*
X28832143Y41611848D01*
X28832143Y41611848D02*
X28975000Y41611848D01*
X28975000Y41611848D02*
X29070238Y41564229D01*
X29070238Y41564229D02*
X29117857Y41468991D01*
X29117857Y41468991D02*
X29117857Y40945181D01*
X29117857Y41468991D02*
X29165476Y41564229D01*
X29165476Y41564229D02*
X29260714Y41611848D01*
X29260714Y41611848D02*
X29403571Y41611848D01*
X29403571Y41611848D02*
X29498810Y41564229D01*
X29498810Y41564229D02*
X29546429Y41468991D01*
X29546429Y41468991D02*
X29546429Y40945181D01*
X19950000Y43250000D02*
X19950000Y39663580D01*
X30000000Y43250000D02*
X30000000Y39663580D01*
X19950000Y40250000D02*
X30000000Y40250000D01*
X19950000Y40250000D02*
X30000000Y40250000D01*
X19950000Y40250000D02*
X21076504Y40836421D01*
X19950000Y40250000D02*
X21076504Y39663579D01*
X30000000Y40250000D02*
X28873496Y39663579D01*
X30000000Y40250000D02*
X28873496Y40836421D01*
X-2590476Y-3804819D02*
X-1971429Y-3804819D01*
X-1971429Y-3804819D02*
X-2304762Y-4185771D01*
X-2304762Y-4185771D02*
X-2161905Y-4185771D01*
X-2161905Y-4185771D02*
X-2066667Y-4233390D01*
X-2066667Y-4233390D02*
X-2019048Y-4281009D01*
X-2019048Y-4281009D02*
X-1971429Y-4376247D01*
X-1971429Y-4376247D02*
X-1971429Y-4614342D01*
X-1971429Y-4614342D02*
X-2019048Y-4709580D01*
X-2019048Y-4709580D02*
X-2066667Y-4757200D01*
X-2066667Y-4757200D02*
X-2161905Y-4804819D01*
X-2161905Y-4804819D02*
X-2447619Y-4804819D01*
X-2447619Y-4804819D02*
X-2542857Y-4757200D01*
X-2542857Y-4757200D02*
X-2590476Y-4709580D01*
X-1542857Y-4709580D02*
X-1495238Y-4757200D01*
X-1495238Y-4757200D02*
X-1542857Y-4804819D01*
X-1542857Y-4804819D02*
X-1590476Y-4757200D01*
X-1590476Y-4757200D02*
X-1542857Y-4709580D01*
X-1542857Y-4709580D02*
X-1542857Y-4804819D01*
X-1161905Y-3804819D02*
X-542858Y-3804819D01*
X-542858Y-3804819D02*
X-876191Y-4185771D01*
X-876191Y-4185771D02*
X-733334Y-4185771D01*
X-733334Y-4185771D02*
X-638096Y-4233390D01*
X-638096Y-4233390D02*
X-590477Y-4281009D01*
X-590477Y-4281009D02*
X-542858Y-4376247D01*
X-542858Y-4376247D02*
X-542858Y-4614342D01*
X-542858Y-4614342D02*
X-590477Y-4709580D01*
X-590477Y-4709580D02*
X-638096Y-4757200D01*
X-638096Y-4757200D02*
X-733334Y-4804819D01*
X-733334Y-4804819D02*
X-1019048Y-4804819D01*
X-1019048Y-4804819D02*
X-1114286Y-4757200D01*
X-1114286Y-4757200D02*
X-1161905Y-4709580D01*
X76190Y-3804819D02*
X171428Y-3804819D01*
X171428Y-3804819D02*
X266666Y-3852438D01*
X266666Y-3852438D02*
X314285Y-3900057D01*
X314285Y-3900057D02*
X361904Y-3995295D01*
X361904Y-3995295D02*
X409523Y-4185771D01*
X409523Y-4185771D02*
X409523Y-4423866D01*
X409523Y-4423866D02*
X361904Y-4614342D01*
X361904Y-4614342D02*
X314285Y-4709580D01*
X314285Y-4709580D02*
X266666Y-4757200D01*
X266666Y-4757200D02*
X171428Y-4804819D01*
X171428Y-4804819D02*
X76190Y-4804819D01*
X76190Y-4804819D02*
X-19048Y-4757200D01*
X-19048Y-4757200D02*
X-66667Y-4709580D01*
X-66667Y-4709580D02*
X-114286Y-4614342D01*
X-114286Y-4614342D02*
X-161905Y-4423866D01*
X-161905Y-4423866D02*
X-161905Y-4185771D01*
X-161905Y-4185771D02*
X-114286Y-3995295D01*
X-114286Y-3995295D02*
X-66667Y-3900057D01*
X-66667Y-3900057D02*
X-19048Y-3852438D01*
X-19048Y-3852438D02*
X76190Y-3804819D01*
X1028571Y-3804819D02*
X1123809Y-3804819D01*
X1123809Y-3804819D02*
X1219047Y-3852438D01*
X1219047Y-3852438D02*
X1266666Y-3900057D01*
X1266666Y-3900057D02*
X1314285Y-3995295D01*
X1314285Y-3995295D02*
X1361904Y-4185771D01*
X1361904Y-4185771D02*
X1361904Y-4423866D01*
X1361904Y-4423866D02*
X1314285Y-4614342D01*
X1314285Y-4614342D02*
X1266666Y-4709580D01*
X1266666Y-4709580D02*
X1219047Y-4757200D01*
X1219047Y-4757200D02*
X1123809Y-4804819D01*
X1123809Y-4804819D02*
X1028571Y-4804819D01*
X1028571Y-4804819D02*
X933333Y-4757200D01*
X933333Y-4757200D02*
X885714Y-4709580D01*
X885714Y-4709580D02*
X838095Y-4614342D01*
X838095Y-4614342D02*
X790476Y-4423866D01*
X790476Y-4423866D02*
X790476Y-4185771D01*
X790476Y-4185771D02*
X838095Y-3995295D01*
X838095Y-3995295D02*
X885714Y-3900057D01*
X885714Y-3900057D02*
X933333Y-3852438D01*
X933333Y-3852438D02*
X1028571Y-3804819D01*
X1980952Y-3804819D02*
X2076190Y-3804819D01*
X2076190Y-3804819D02*
X2171428Y-3852438D01*
X2171428Y-3852438D02*
X2219047Y-3900057D01*
X2219047Y-3900057D02*
X2266666Y-3995295D01*
X2266666Y-3995295D02*
X2314285Y-4185771D01*
X2314285Y-4185771D02*
X2314285Y-4423866D01*
X2314285Y-4423866D02*
X2266666Y-4614342D01*
X2266666Y-4614342D02*
X2219047Y-4709580D01*
X2219047Y-4709580D02*
X2171428Y-4757200D01*
X2171428Y-4757200D02*
X2076190Y-4804819D01*
X2076190Y-4804819D02*
X1980952Y-4804819D01*
X1980952Y-4804819D02*
X1885714Y-4757200D01*
X1885714Y-4757200D02*
X1838095Y-4709580D01*
X1838095Y-4709580D02*
X1790476Y-4614342D01*
X1790476Y-4614342D02*
X1742857Y-4423866D01*
X1742857Y-4423866D02*
X1742857Y-4185771D01*
X1742857Y-4185771D02*
X1790476Y-3995295D01*
X1790476Y-3995295D02*
X1838095Y-3900057D01*
X1838095Y-3900057D02*
X1885714Y-3852438D01*
X1885714Y-3852438D02*
X1980952Y-3804819D01*
X3504762Y-4804819D02*
X3504762Y-4138152D01*
X3504762Y-4233390D02*
X3552381Y-4185771D01*
X3552381Y-4185771D02*
X3647619Y-4138152D01*
X3647619Y-4138152D02*
X3790476Y-4138152D01*
X3790476Y-4138152D02*
X3885714Y-4185771D01*
X3885714Y-4185771D02*
X3933333Y-4281009D01*
X3933333Y-4281009D02*
X3933333Y-4804819D01*
X3933333Y-4281009D02*
X3980952Y-4185771D01*
X3980952Y-4185771D02*
X4076190Y-4138152D01*
X4076190Y-4138152D02*
X4219047Y-4138152D01*
X4219047Y-4138152D02*
X4314286Y-4185771D01*
X4314286Y-4185771D02*
X4361905Y-4281009D01*
X4361905Y-4281009D02*
X4361905Y-4804819D01*
X4838095Y-4804819D02*
X4838095Y-4138152D01*
X4838095Y-4233390D02*
X4885714Y-4185771D01*
X4885714Y-4185771D02*
X4980952Y-4138152D01*
X4980952Y-4138152D02*
X5123809Y-4138152D01*
X5123809Y-4138152D02*
X5219047Y-4185771D01*
X5219047Y-4185771D02*
X5266666Y-4281009D01*
X5266666Y-4281009D02*
X5266666Y-4804819D01*
X5266666Y-4281009D02*
X5314285Y-4185771D01*
X5314285Y-4185771D02*
X5409523Y-4138152D01*
X5409523Y-4138152D02*
X5552380Y-4138152D01*
X5552380Y-4138152D02*
X5647619Y-4185771D01*
X5647619Y-4185771D02*
X5695238Y-4281009D01*
X5695238Y-4281009D02*
X5695238Y-4804819D01*
X3250000Y-500000D02*
X3250000Y-6086420D01*
X-50000Y-500000D02*
X-50000Y-6086420D01*
X3250000Y-5500000D02*
X-50000Y-5500000D01*
X3250000Y-5500000D02*
X-50000Y-5500000D01*
X3250000Y-5500000D02*
X2123496Y-6086421D01*
X3250000Y-5500000D02*
X2123496Y-4913579D01*
X-50000Y-5500000D02*
X1076504Y-4913579D01*
X-50000Y-5500000D02*
X1076504Y-6086421D01*
%TO.C,H1*%
X4400000Y2800000D02*
G75*
G02*
X600000Y2800000I-1900000J0D01*
G01*
X600000Y2800000D02*
G75*
G02*
X4400000Y2800000I1900000J0D01*
G01*
%TO.C,H2*%
X19400000Y2800000D02*
G75*
G02*
X15600000Y2800000I-1900000J0D01*
G01*
X15600000Y2800000D02*
G75*
G02*
X19400000Y2800000I1900000J0D01*
G01*
%TO.C,H3*%
X5400000Y69000000D02*
G75*
G02*
X1600000Y69000000I-1900000J0D01*
G01*
X1600000Y69000000D02*
G75*
G02*
X5400000Y69000000I1900000J0D01*
G01*
%TD*%
M02*
