%TF.GenerationSoftware,KiCad,Pcbnew,8.0.7*%
%TF.CreationDate,2024-12-24T11:10:27-06:00*%
%TF.ProjectId,room_environment_monitor,726f6f6d-5f65-46e7-9669-726f6e6d656e,rev?*%
%TF.SameCoordinates,Original*%
%TF.FileFunction,Legend,Top*%
%TF.FilePolarity,Positive*%
%FSLAX46Y46*%
G04 Gerber Fmt 4.6, Leading zero omitted, Abs format (unit mm)*
G04 Created by KiCad (PCBNEW 8.0.7) date 2024-12-24 11:10:27*
%MOMM*%
%LPD*%
G01*
G04 APERTURE LIST*
G04 Aperture macros list*
%AMRoundRect*
0 Rectangle with rounded corners*
0 $1 Rounding radius*
0 $2 $3 $4 $5 $6 $7 $8 $9 X,Y pos of 4 corners*
0 Add a 4 corners polygon primitive as box body*
4,1,4,$2,$3,$4,$5,$6,$7,$8,$9,$2,$3,0*
0 Add four circle primitives for the rounded corners*
1,1,$1+$1,$2,$3*
1,1,$1+$1,$4,$5*
1,1,$1+$1,$6,$7*
1,1,$1+$1,$8,$9*
0 Add four rect primitives between the rounded corners*
20,1,$1+$1,$2,$3,$4,$5,0*
20,1,$1+$1,$4,$5,$6,$7,0*
20,1,$1+$1,$6,$7,$8,$9,0*
20,1,$1+$1,$8,$9,$2,$3,0*%
%AMFreePoly0*
4,1,6,0.725000,-0.725000,-0.725000,-0.725000,-0.725000,0.125000,-0.125000,0.725000,0.725000,0.725000,0.725000,-0.725000,0.725000,-0.725000,$1*%
G04 Aperture macros list end*
%ADD10C,0.150000*%
%ADD11C,0.120000*%
%ADD12C,0.152400*%
%ADD13C,0.100000*%
%ADD14C,0.010000*%
%ADD15C,0.000000*%
%ADD16R,0.400000X0.800000*%
%ADD17R,0.800000X0.400000*%
%ADD18FreePoly0,90.000000*%
%ADD19R,1.450000X1.450000*%
%ADD20R,0.700000X0.700000*%
%ADD21RoundRect,0.200000X0.275000X-0.200000X0.275000X0.200000X-0.275000X0.200000X-0.275000X-0.200000X0*%
%ADD22RoundRect,0.200000X-0.275000X0.200000X-0.275000X-0.200000X0.275000X-0.200000X0.275000X0.200000X0*%
%ADD23RoundRect,0.200000X0.200000X0.275000X-0.200000X0.275000X-0.200000X-0.275000X0.200000X-0.275000X0*%
%ADD24RoundRect,0.225000X-0.225000X-0.250000X0.225000X-0.250000X0.225000X0.250000X-0.225000X0.250000X0*%
%ADD25C,2.200000*%
%ADD26RoundRect,0.150000X-0.587500X-0.150000X0.587500X-0.150000X0.587500X0.150000X-0.587500X0.150000X0*%
%ADD27RoundRect,0.150000X0.150000X-0.512500X0.150000X0.512500X-0.150000X0.512500X-0.150000X-0.512500X0*%
%ADD28RoundRect,0.200000X-0.200000X-0.275000X0.200000X-0.275000X0.200000X0.275000X-0.200000X0.275000X0*%
%ADD29R,0.711200X2.006600*%
%ADD30R,0.812800X2.006600*%
%ADD31R,0.889000X2.006600*%
%ADD32O,1.066800X1.701800*%
%ADD33R,0.500000X0.350000*%
%ADD34C,1.000000*%
%ADD35R,0.355600X0.660400*%
%ADD36R,1.701800X1.244600*%
%ADD37RoundRect,0.225000X-0.250000X0.225000X-0.250000X-0.225000X0.250000X-0.225000X0.250000X0.225000X0*%
%ADD38R,3.352800X0.711200*%
%ADD39R,2.387600X1.600200*%
%ADD40RoundRect,0.062500X0.117500X0.062500X-0.117500X0.062500X-0.117500X-0.062500X0.117500X-0.062500X0*%
%ADD41RoundRect,0.218750X0.256250X-0.218750X0.256250X0.218750X-0.256250X0.218750X-0.256250X-0.218750X0*%
%ADD42RoundRect,0.225000X0.250000X-0.225000X0.250000X0.225000X-0.250000X0.225000X-0.250000X-0.225000X0*%
%ADD43RoundRect,0.200000X0.450000X-0.200000X0.450000X0.200000X-0.450000X0.200000X-0.450000X-0.200000X0*%
%ADD44RoundRect,0.250001X1.249999X-0.799999X1.249999X0.799999X-1.249999X0.799999X-1.249999X-0.799999X0*%
%ADD45RoundRect,0.225000X0.225000X0.250000X-0.225000X0.250000X-0.225000X-0.250000X0.225000X-0.250000X0*%
%ADD46R,0.900000X1.000000*%
%ADD47R,0.750000X0.300000*%
%ADD48R,1.300000X1.500000*%
%ADD49RoundRect,0.250000X-0.300000X0.300000X-0.300000X-0.300000X0.300000X-0.300000X0.300000X0.300000X0*%
G04 APERTURE END LIST*
D10*
X100000Y13100000D02*
X19800000Y13100000D01*
X19825000Y43750000D02*
X100000Y43750000D01*
X-12645181Y55838096D02*
X-11835658Y55838096D01*
X-11835658Y55838096D02*
X-11740420Y55885715D01*
X-11740420Y55885715D02*
X-11692800Y55933334D01*
X-11692800Y55933334D02*
X-11645181Y56028572D01*
X-11645181Y56028572D02*
X-11645181Y56219048D01*
X-11645181Y56219048D02*
X-11692800Y56314286D01*
X-11692800Y56314286D02*
X-11740420Y56361905D01*
X-11740420Y56361905D02*
X-11835658Y56409524D01*
X-11835658Y56409524D02*
X-12645181Y56409524D01*
X-12549943Y56838096D02*
X-12597562Y56885715D01*
X-12597562Y56885715D02*
X-12645181Y56980953D01*
X-12645181Y56980953D02*
X-12645181Y57219048D01*
X-12645181Y57219048D02*
X-12597562Y57314286D01*
X-12597562Y57314286D02*
X-12549943Y57361905D01*
X-12549943Y57361905D02*
X-12454705Y57409524D01*
X-12454705Y57409524D02*
X-12359467Y57409524D01*
X-12359467Y57409524D02*
X-12216610Y57361905D01*
X-12216610Y57361905D02*
X-11645181Y56790477D01*
X-11645181Y56790477D02*
X-11645181Y57409524D01*
X-8280896Y51838095D02*
X-8280896Y52314285D01*
X-7995181Y51742857D02*
X-8995181Y52076190D01*
X-8995181Y52076190D02*
X-7995181Y52409523D01*
X-8661848Y52742857D02*
X-7995181Y52742857D01*
X-8566610Y52742857D02*
X-8614229Y52790476D01*
X-8614229Y52790476D02*
X-8661848Y52885714D01*
X-8661848Y52885714D02*
X-8661848Y53028571D01*
X-8661848Y53028571D02*
X-8614229Y53123809D01*
X-8614229Y53123809D02*
X-8518991Y53171428D01*
X-8518991Y53171428D02*
X-7995181Y53171428D01*
X-8661848Y53504762D02*
X-8661848Y53885714D01*
X-8995181Y53647619D02*
X-8138039Y53647619D01*
X-8138039Y53647619D02*
X-8042800Y53695238D01*
X-8042800Y53695238D02*
X-7995181Y53790476D01*
X-7995181Y53790476D02*
X-7995181Y53885714D01*
X-8042800Y54600000D02*
X-7995181Y54504762D01*
X-7995181Y54504762D02*
X-7995181Y54314286D01*
X-7995181Y54314286D02*
X-8042800Y54219048D01*
X-8042800Y54219048D02*
X-8138039Y54171429D01*
X-8138039Y54171429D02*
X-8518991Y54171429D01*
X-8518991Y54171429D02*
X-8614229Y54219048D01*
X-8614229Y54219048D02*
X-8661848Y54314286D01*
X-8661848Y54314286D02*
X-8661848Y54504762D01*
X-8661848Y54504762D02*
X-8614229Y54600000D01*
X-8614229Y54600000D02*
X-8518991Y54647619D01*
X-8518991Y54647619D02*
X-8423753Y54647619D01*
X-8423753Y54647619D02*
X-8328515Y54171429D01*
X-8661848Y55076191D02*
X-7995181Y55076191D01*
X-8566610Y55076191D02*
X-8614229Y55123810D01*
X-8614229Y55123810D02*
X-8661848Y55219048D01*
X-8661848Y55219048D02*
X-8661848Y55361905D01*
X-8661848Y55361905D02*
X-8614229Y55457143D01*
X-8614229Y55457143D02*
X-8518991Y55504762D01*
X-8518991Y55504762D02*
X-7995181Y55504762D01*
X-8661848Y55980953D02*
X-7995181Y55980953D01*
X-8566610Y55980953D02*
X-8614229Y56028572D01*
X-8614229Y56028572D02*
X-8661848Y56123810D01*
X-8661848Y56123810D02*
X-8661848Y56266667D01*
X-8661848Y56266667D02*
X-8614229Y56361905D01*
X-8614229Y56361905D02*
X-8518991Y56409524D01*
X-8518991Y56409524D02*
X-7995181Y56409524D01*
X-7995181Y57314286D02*
X-8518991Y57314286D01*
X-8518991Y57314286D02*
X-8614229Y57266667D01*
X-8614229Y57266667D02*
X-8661848Y57171429D01*
X-8661848Y57171429D02*
X-8661848Y56980953D01*
X-8661848Y56980953D02*
X-8614229Y56885715D01*
X-8042800Y57314286D02*
X-7995181Y57219048D01*
X-7995181Y57219048D02*
X-7995181Y56980953D01*
X-7995181Y56980953D02*
X-8042800Y56885715D01*
X-8042800Y56885715D02*
X-8138039Y56838096D01*
X-8138039Y56838096D02*
X-8233277Y56838096D01*
X-8233277Y56838096D02*
X-8328515Y56885715D01*
X-8328515Y56885715D02*
X-8376134Y56980953D01*
X-8376134Y56980953D02*
X-8376134Y57219048D01*
X-8376134Y57219048D02*
X-8423753Y57314286D01*
X-8280896Y58504763D02*
X-8280896Y58980953D01*
X-7995181Y58409525D02*
X-8995181Y58742858D01*
X-8995181Y58742858D02*
X-7995181Y59076191D01*
X-7995181Y59409525D02*
X-8661848Y59409525D01*
X-8471372Y59409525D02*
X-8566610Y59457144D01*
X-8566610Y59457144D02*
X-8614229Y59504763D01*
X-8614229Y59504763D02*
X-8661848Y59600001D01*
X-8661848Y59600001D02*
X-8661848Y59695239D01*
X-8042800Y60409525D02*
X-7995181Y60314287D01*
X-7995181Y60314287D02*
X-7995181Y60123811D01*
X-7995181Y60123811D02*
X-8042800Y60028573D01*
X-8042800Y60028573D02*
X-8138039Y59980954D01*
X-8138039Y59980954D02*
X-8518991Y59980954D01*
X-8518991Y59980954D02*
X-8614229Y60028573D01*
X-8614229Y60028573D02*
X-8661848Y60123811D01*
X-8661848Y60123811D02*
X-8661848Y60314287D01*
X-8661848Y60314287D02*
X-8614229Y60409525D01*
X-8614229Y60409525D02*
X-8518991Y60457144D01*
X-8518991Y60457144D02*
X-8423753Y60457144D01*
X-8423753Y60457144D02*
X-8328515Y59980954D01*
X-7995181Y61314287D02*
X-8518991Y61314287D01*
X-8518991Y61314287D02*
X-8614229Y61266668D01*
X-8614229Y61266668D02*
X-8661848Y61171430D01*
X-8661848Y61171430D02*
X-8661848Y60980954D01*
X-8661848Y60980954D02*
X-8614229Y60885716D01*
X-8042800Y61314287D02*
X-7995181Y61219049D01*
X-7995181Y61219049D02*
X-7995181Y60980954D01*
X-7995181Y60980954D02*
X-8042800Y60885716D01*
X-8042800Y60885716D02*
X-8138039Y60838097D01*
X-8138039Y60838097D02*
X-8233277Y60838097D01*
X-8233277Y60838097D02*
X-8328515Y60885716D01*
X-8328515Y60885716D02*
X-8376134Y60980954D01*
X-8376134Y60980954D02*
X-8376134Y61219049D01*
X-8376134Y61219049D02*
X-8423753Y61314287D01*
X18983333Y45745181D02*
X18650000Y46221372D01*
X18411905Y45745181D02*
X18411905Y46745181D01*
X18411905Y46745181D02*
X18792857Y46745181D01*
X18792857Y46745181D02*
X18888095Y46697562D01*
X18888095Y46697562D02*
X18935714Y46649943D01*
X18935714Y46649943D02*
X18983333Y46554705D01*
X18983333Y46554705D02*
X18983333Y46411848D01*
X18983333Y46411848D02*
X18935714Y46316610D01*
X18935714Y46316610D02*
X18888095Y46268991D01*
X18888095Y46268991D02*
X18792857Y46221372D01*
X18792857Y46221372D02*
X18411905Y46221372D01*
X19316667Y46745181D02*
X19935714Y46745181D01*
X19935714Y46745181D02*
X19602381Y46364229D01*
X19602381Y46364229D02*
X19745238Y46364229D01*
X19745238Y46364229D02*
X19840476Y46316610D01*
X19840476Y46316610D02*
X19888095Y46268991D01*
X19888095Y46268991D02*
X19935714Y46173753D01*
X19935714Y46173753D02*
X19935714Y45935658D01*
X19935714Y45935658D02*
X19888095Y45840420D01*
X19888095Y45840420D02*
X19840476Y45792800D01*
X19840476Y45792800D02*
X19745238Y45745181D01*
X19745238Y45745181D02*
X19459524Y45745181D01*
X19459524Y45745181D02*
X19364286Y45792800D01*
X19364286Y45792800D02*
X19316667Y45840420D01*
X14134819Y67333334D02*
X13658628Y67000001D01*
X14134819Y66761906D02*
X13134819Y66761906D01*
X13134819Y66761906D02*
X13134819Y67142858D01*
X13134819Y67142858D02*
X13182438Y67238096D01*
X13182438Y67238096D02*
X13230057Y67285715D01*
X13230057Y67285715D02*
X13325295Y67333334D01*
X13325295Y67333334D02*
X13468152Y67333334D01*
X13468152Y67333334D02*
X13563390Y67285715D01*
X13563390Y67285715D02*
X13611009Y67238096D01*
X13611009Y67238096D02*
X13658628Y67142858D01*
X13658628Y67142858D02*
X13658628Y66761906D01*
X14134819Y67809525D02*
X14134819Y68000001D01*
X14134819Y68000001D02*
X14087200Y68095239D01*
X14087200Y68095239D02*
X14039580Y68142858D01*
X14039580Y68142858D02*
X13896723Y68238096D01*
X13896723Y68238096D02*
X13706247Y68285715D01*
X13706247Y68285715D02*
X13325295Y68285715D01*
X13325295Y68285715D02*
X13230057Y68238096D01*
X13230057Y68238096D02*
X13182438Y68190477D01*
X13182438Y68190477D02*
X13134819Y68095239D01*
X13134819Y68095239D02*
X13134819Y67904763D01*
X13134819Y67904763D02*
X13182438Y67809525D01*
X13182438Y67809525D02*
X13230057Y67761906D01*
X13230057Y67761906D02*
X13325295Y67714287D01*
X13325295Y67714287D02*
X13563390Y67714287D01*
X13563390Y67714287D02*
X13658628Y67761906D01*
X13658628Y67761906D02*
X13706247Y67809525D01*
X13706247Y67809525D02*
X13753866Y67904763D01*
X13753866Y67904763D02*
X13753866Y68095239D01*
X13753866Y68095239D02*
X13706247Y68190477D01*
X13706247Y68190477D02*
X13658628Y68238096D01*
X13658628Y68238096D02*
X13563390Y68285715D01*
X11407142Y70045181D02*
X11073809Y70521372D01*
X10835714Y70045181D02*
X10835714Y71045181D01*
X10835714Y71045181D02*
X11216666Y71045181D01*
X11216666Y71045181D02*
X11311904Y70997562D01*
X11311904Y70997562D02*
X11359523Y70949943D01*
X11359523Y70949943D02*
X11407142Y70854705D01*
X11407142Y70854705D02*
X11407142Y70711848D01*
X11407142Y70711848D02*
X11359523Y70616610D01*
X11359523Y70616610D02*
X11311904Y70568991D01*
X11311904Y70568991D02*
X11216666Y70521372D01*
X11216666Y70521372D02*
X10835714Y70521372D01*
X12359523Y70045181D02*
X11788095Y70045181D01*
X12073809Y70045181D02*
X12073809Y71045181D01*
X12073809Y71045181D02*
X11978571Y70902324D01*
X11978571Y70902324D02*
X11883333Y70807086D01*
X11883333Y70807086D02*
X11788095Y70759467D01*
X12692857Y71045181D02*
X13311904Y71045181D01*
X13311904Y71045181D02*
X12978571Y70664229D01*
X12978571Y70664229D02*
X13121428Y70664229D01*
X13121428Y70664229D02*
X13216666Y70616610D01*
X13216666Y70616610D02*
X13264285Y70568991D01*
X13264285Y70568991D02*
X13311904Y70473753D01*
X13311904Y70473753D02*
X13311904Y70235658D01*
X13311904Y70235658D02*
X13264285Y70140420D01*
X13264285Y70140420D02*
X13216666Y70092800D01*
X13216666Y70092800D02*
X13121428Y70045181D01*
X13121428Y70045181D02*
X12835714Y70045181D01*
X12835714Y70045181D02*
X12740476Y70092800D01*
X12740476Y70092800D02*
X12692857Y70140420D01*
X9908333Y63295181D02*
X9575000Y63771372D01*
X9336905Y63295181D02*
X9336905Y64295181D01*
X9336905Y64295181D02*
X9717857Y64295181D01*
X9717857Y64295181D02*
X9813095Y64247562D01*
X9813095Y64247562D02*
X9860714Y64199943D01*
X9860714Y64199943D02*
X9908333Y64104705D01*
X9908333Y64104705D02*
X9908333Y63961848D01*
X9908333Y63961848D02*
X9860714Y63866610D01*
X9860714Y63866610D02*
X9813095Y63818991D01*
X9813095Y63818991D02*
X9717857Y63771372D01*
X9717857Y63771372D02*
X9336905Y63771372D01*
X10479762Y63866610D02*
X10384524Y63914229D01*
X10384524Y63914229D02*
X10336905Y63961848D01*
X10336905Y63961848D02*
X10289286Y64057086D01*
X10289286Y64057086D02*
X10289286Y64104705D01*
X10289286Y64104705D02*
X10336905Y64199943D01*
X10336905Y64199943D02*
X10384524Y64247562D01*
X10384524Y64247562D02*
X10479762Y64295181D01*
X10479762Y64295181D02*
X10670238Y64295181D01*
X10670238Y64295181D02*
X10765476Y64247562D01*
X10765476Y64247562D02*
X10813095Y64199943D01*
X10813095Y64199943D02*
X10860714Y64104705D01*
X10860714Y64104705D02*
X10860714Y64057086D01*
X10860714Y64057086D02*
X10813095Y63961848D01*
X10813095Y63961848D02*
X10765476Y63914229D01*
X10765476Y63914229D02*
X10670238Y63866610D01*
X10670238Y63866610D02*
X10479762Y63866610D01*
X10479762Y63866610D02*
X10384524Y63818991D01*
X10384524Y63818991D02*
X10336905Y63771372D01*
X10336905Y63771372D02*
X10289286Y63676134D01*
X10289286Y63676134D02*
X10289286Y63485658D01*
X10289286Y63485658D02*
X10336905Y63390420D01*
X10336905Y63390420D02*
X10384524Y63342800D01*
X10384524Y63342800D02*
X10479762Y63295181D01*
X10479762Y63295181D02*
X10670238Y63295181D01*
X10670238Y63295181D02*
X10765476Y63342800D01*
X10765476Y63342800D02*
X10813095Y63390420D01*
X10813095Y63390420D02*
X10860714Y63485658D01*
X10860714Y63485658D02*
X10860714Y63676134D01*
X10860714Y63676134D02*
X10813095Y63771372D01*
X10813095Y63771372D02*
X10765476Y63818991D01*
X10765476Y63818991D02*
X10670238Y63866610D01*
X7033333Y49440420D02*
X6985714Y49392800D01*
X6985714Y49392800D02*
X6842857Y49345181D01*
X6842857Y49345181D02*
X6747619Y49345181D01*
X6747619Y49345181D02*
X6604762Y49392800D01*
X6604762Y49392800D02*
X6509524Y49488039D01*
X6509524Y49488039D02*
X6461905Y49583277D01*
X6461905Y49583277D02*
X6414286Y49773753D01*
X6414286Y49773753D02*
X6414286Y49916610D01*
X6414286Y49916610D02*
X6461905Y50107086D01*
X6461905Y50107086D02*
X6509524Y50202324D01*
X6509524Y50202324D02*
X6604762Y50297562D01*
X6604762Y50297562D02*
X6747619Y50345181D01*
X6747619Y50345181D02*
X6842857Y50345181D01*
X6842857Y50345181D02*
X6985714Y50297562D01*
X6985714Y50297562D02*
X7033333Y50249943D01*
X7985714Y49345181D02*
X7414286Y49345181D01*
X7700000Y49345181D02*
X7700000Y50345181D01*
X7700000Y50345181D02*
X7604762Y50202324D01*
X7604762Y50202324D02*
X7509524Y50107086D01*
X7509524Y50107086D02*
X7414286Y50059467D01*
X9833333Y53320420D02*
X9785714Y53272800D01*
X9785714Y53272800D02*
X9642857Y53225181D01*
X9642857Y53225181D02*
X9547619Y53225181D01*
X9547619Y53225181D02*
X9404762Y53272800D01*
X9404762Y53272800D02*
X9309524Y53368039D01*
X9309524Y53368039D02*
X9261905Y53463277D01*
X9261905Y53463277D02*
X9214286Y53653753D01*
X9214286Y53653753D02*
X9214286Y53796610D01*
X9214286Y53796610D02*
X9261905Y53987086D01*
X9261905Y53987086D02*
X9309524Y54082324D01*
X9309524Y54082324D02*
X9404762Y54177562D01*
X9404762Y54177562D02*
X9547619Y54225181D01*
X9547619Y54225181D02*
X9642857Y54225181D01*
X9642857Y54225181D02*
X9785714Y54177562D01*
X9785714Y54177562D02*
X9833333Y54129943D01*
X10214286Y54129943D02*
X10261905Y54177562D01*
X10261905Y54177562D02*
X10357143Y54225181D01*
X10357143Y54225181D02*
X10595238Y54225181D01*
X10595238Y54225181D02*
X10690476Y54177562D01*
X10690476Y54177562D02*
X10738095Y54129943D01*
X10738095Y54129943D02*
X10785714Y54034705D01*
X10785714Y54034705D02*
X10785714Y53939467D01*
X10785714Y53939467D02*
X10738095Y53796610D01*
X10738095Y53796610D02*
X10166667Y53225181D01*
X10166667Y53225181D02*
X10785714Y53225181D01*
X22529761Y45299943D02*
X22434523Y45347562D01*
X22434523Y45347562D02*
X22339285Y45442800D01*
X22339285Y45442800D02*
X22196428Y45585658D01*
X22196428Y45585658D02*
X22101190Y45633277D01*
X22101190Y45633277D02*
X22005952Y45633277D01*
X22053571Y45395181D02*
X21958333Y45442800D01*
X21958333Y45442800D02*
X21863095Y45538039D01*
X21863095Y45538039D02*
X21815476Y45728515D01*
X21815476Y45728515D02*
X21815476Y46061848D01*
X21815476Y46061848D02*
X21863095Y46252324D01*
X21863095Y46252324D02*
X21958333Y46347562D01*
X21958333Y46347562D02*
X22053571Y46395181D01*
X22053571Y46395181D02*
X22244047Y46395181D01*
X22244047Y46395181D02*
X22339285Y46347562D01*
X22339285Y46347562D02*
X22434523Y46252324D01*
X22434523Y46252324D02*
X22482142Y46061848D01*
X22482142Y46061848D02*
X22482142Y45728515D01*
X22482142Y45728515D02*
X22434523Y45538039D01*
X22434523Y45538039D02*
X22339285Y45442800D01*
X22339285Y45442800D02*
X22244047Y45395181D01*
X22244047Y45395181D02*
X22053571Y45395181D01*
X22815476Y46395181D02*
X23434523Y46395181D01*
X23434523Y46395181D02*
X23101190Y46014229D01*
X23101190Y46014229D02*
X23244047Y46014229D01*
X23244047Y46014229D02*
X23339285Y45966610D01*
X23339285Y45966610D02*
X23386904Y45918991D01*
X23386904Y45918991D02*
X23434523Y45823753D01*
X23434523Y45823753D02*
X23434523Y45585658D01*
X23434523Y45585658D02*
X23386904Y45490420D01*
X23386904Y45490420D02*
X23339285Y45442800D01*
X23339285Y45442800D02*
X23244047Y45395181D01*
X23244047Y45395181D02*
X22958333Y45395181D01*
X22958333Y45395181D02*
X22863095Y45442800D01*
X22863095Y45442800D02*
X22815476Y45490420D01*
X10063095Y10045181D02*
X10063095Y9235658D01*
X10063095Y9235658D02*
X10110714Y9140420D01*
X10110714Y9140420D02*
X10158333Y9092800D01*
X10158333Y9092800D02*
X10253571Y9045181D01*
X10253571Y9045181D02*
X10444047Y9045181D01*
X10444047Y9045181D02*
X10539285Y9092800D01*
X10539285Y9092800D02*
X10586904Y9140420D01*
X10586904Y9140420D02*
X10634523Y9235658D01*
X10634523Y9235658D02*
X10634523Y10045181D01*
X11586904Y10045181D02*
X11110714Y10045181D01*
X11110714Y10045181D02*
X11063095Y9568991D01*
X11063095Y9568991D02*
X11110714Y9616610D01*
X11110714Y9616610D02*
X11205952Y9664229D01*
X11205952Y9664229D02*
X11444047Y9664229D01*
X11444047Y9664229D02*
X11539285Y9616610D01*
X11539285Y9616610D02*
X11586904Y9568991D01*
X11586904Y9568991D02*
X11634523Y9473753D01*
X11634523Y9473753D02*
X11634523Y9235658D01*
X11634523Y9235658D02*
X11586904Y9140420D01*
X11586904Y9140420D02*
X11539285Y9092800D01*
X11539285Y9092800D02*
X11444047Y9045181D01*
X11444047Y9045181D02*
X11205952Y9045181D01*
X11205952Y9045181D02*
X11110714Y9092800D01*
X11110714Y9092800D02*
X11063095Y9140420D01*
X8357142Y56545181D02*
X8023809Y57021372D01*
X7785714Y56545181D02*
X7785714Y57545181D01*
X7785714Y57545181D02*
X8166666Y57545181D01*
X8166666Y57545181D02*
X8261904Y57497562D01*
X8261904Y57497562D02*
X8309523Y57449943D01*
X8309523Y57449943D02*
X8357142Y57354705D01*
X8357142Y57354705D02*
X8357142Y57211848D01*
X8357142Y57211848D02*
X8309523Y57116610D01*
X8309523Y57116610D02*
X8261904Y57068991D01*
X8261904Y57068991D02*
X8166666Y57021372D01*
X8166666Y57021372D02*
X7785714Y57021372D01*
X9309523Y56545181D02*
X8738095Y56545181D01*
X9023809Y56545181D02*
X9023809Y57545181D01*
X9023809Y57545181D02*
X8928571Y57402324D01*
X8928571Y57402324D02*
X8833333Y57307086D01*
X8833333Y57307086D02*
X8738095Y57259467D01*
X10261904Y56545181D02*
X9690476Y56545181D01*
X9976190Y56545181D02*
X9976190Y57545181D01*
X9976190Y57545181D02*
X9880952Y57402324D01*
X9880952Y57402324D02*
X9785714Y57307086D01*
X9785714Y57307086D02*
X9690476Y57259467D01*
X16454819Y-2588094D02*
X15454819Y-2588094D01*
X15454819Y-2588094D02*
X15454819Y-2207142D01*
X15454819Y-2207142D02*
X15502438Y-2111904D01*
X15502438Y-2111904D02*
X15550057Y-2064285D01*
X15550057Y-2064285D02*
X15645295Y-2016666D01*
X15645295Y-2016666D02*
X15788152Y-2016666D01*
X15788152Y-2016666D02*
X15883390Y-2064285D01*
X15883390Y-2064285D02*
X15931009Y-2111904D01*
X15931009Y-2111904D02*
X15978628Y-2207142D01*
X15978628Y-2207142D02*
X15978628Y-2588094D01*
X16454819Y-1064285D02*
X16454819Y-1635713D01*
X16454819Y-1349999D02*
X15454819Y-1349999D01*
X15454819Y-1349999D02*
X15597676Y-1445237D01*
X15597676Y-1445237D02*
X15692914Y-1540475D01*
X15692914Y-1540475D02*
X15740533Y-1635713D01*
X11838095Y48845181D02*
X11838095Y48035658D01*
X11838095Y48035658D02*
X11885714Y47940420D01*
X11885714Y47940420D02*
X11933333Y47892800D01*
X11933333Y47892800D02*
X12028571Y47845181D01*
X12028571Y47845181D02*
X12219047Y47845181D01*
X12219047Y47845181D02*
X12314285Y47892800D01*
X12314285Y47892800D02*
X12361904Y47940420D01*
X12361904Y47940420D02*
X12409523Y48035658D01*
X12409523Y48035658D02*
X12409523Y48845181D01*
X13314285Y48511848D02*
X13314285Y47845181D01*
X13076190Y48892800D02*
X12838095Y48178515D01*
X12838095Y48178515D02*
X13457142Y48178515D01*
X11224819Y49258096D02*
X12034342Y49258096D01*
X12034342Y49258096D02*
X12129580Y49305715D01*
X12129580Y49305715D02*
X12177200Y49353334D01*
X12177200Y49353334D02*
X12224819Y49448572D01*
X12224819Y49448572D02*
X12224819Y49639048D01*
X12224819Y49639048D02*
X12177200Y49734286D01*
X12177200Y49734286D02*
X12129580Y49781905D01*
X12129580Y49781905D02*
X12034342Y49829524D01*
X12034342Y49829524D02*
X11224819Y49829524D01*
X11224819Y50210477D02*
X11224819Y50829524D01*
X11224819Y50829524D02*
X11605771Y50496191D01*
X11605771Y50496191D02*
X11605771Y50639048D01*
X11605771Y50639048D02*
X11653390Y50734286D01*
X11653390Y50734286D02*
X11701009Y50781905D01*
X11701009Y50781905D02*
X11796247Y50829524D01*
X11796247Y50829524D02*
X12034342Y50829524D01*
X12034342Y50829524D02*
X12129580Y50781905D01*
X12129580Y50781905D02*
X12177200Y50734286D01*
X12177200Y50734286D02*
X12224819Y50639048D01*
X12224819Y50639048D02*
X12224819Y50353334D01*
X12224819Y50353334D02*
X12177200Y50258096D01*
X12177200Y50258096D02*
X12129580Y50210477D01*
X11583333Y60140420D02*
X11535714Y60092800D01*
X11535714Y60092800D02*
X11392857Y60045181D01*
X11392857Y60045181D02*
X11297619Y60045181D01*
X11297619Y60045181D02*
X11154762Y60092800D01*
X11154762Y60092800D02*
X11059524Y60188039D01*
X11059524Y60188039D02*
X11011905Y60283277D01*
X11011905Y60283277D02*
X10964286Y60473753D01*
X10964286Y60473753D02*
X10964286Y60616610D01*
X10964286Y60616610D02*
X11011905Y60807086D01*
X11011905Y60807086D02*
X11059524Y60902324D01*
X11059524Y60902324D02*
X11154762Y60997562D01*
X11154762Y60997562D02*
X11297619Y61045181D01*
X11297619Y61045181D02*
X11392857Y61045181D01*
X11392857Y61045181D02*
X11535714Y60997562D01*
X11535714Y60997562D02*
X11583333Y60949943D01*
X11916667Y61045181D02*
X12583333Y61045181D01*
X12583333Y61045181D02*
X12154762Y60045181D01*
X12777142Y7715181D02*
X12443809Y8191372D01*
X12205714Y7715181D02*
X12205714Y8715181D01*
X12205714Y8715181D02*
X12586666Y8715181D01*
X12586666Y8715181D02*
X12681904Y8667562D01*
X12681904Y8667562D02*
X12729523Y8619943D01*
X12729523Y8619943D02*
X12777142Y8524705D01*
X12777142Y8524705D02*
X12777142Y8381848D01*
X12777142Y8381848D02*
X12729523Y8286610D01*
X12729523Y8286610D02*
X12681904Y8238991D01*
X12681904Y8238991D02*
X12586666Y8191372D01*
X12586666Y8191372D02*
X12205714Y8191372D01*
X13729523Y7715181D02*
X13158095Y7715181D01*
X13443809Y7715181D02*
X13443809Y8715181D01*
X13443809Y8715181D02*
X13348571Y8572324D01*
X13348571Y8572324D02*
X13253333Y8477086D01*
X13253333Y8477086D02*
X13158095Y8429467D01*
X14634285Y8715181D02*
X14158095Y8715181D01*
X14158095Y8715181D02*
X14110476Y8238991D01*
X14110476Y8238991D02*
X14158095Y8286610D01*
X14158095Y8286610D02*
X14253333Y8334229D01*
X14253333Y8334229D02*
X14491428Y8334229D01*
X14491428Y8334229D02*
X14586666Y8286610D01*
X14586666Y8286610D02*
X14634285Y8238991D01*
X14634285Y8238991D02*
X14681904Y8143753D01*
X14681904Y8143753D02*
X14681904Y7905658D01*
X14681904Y7905658D02*
X14634285Y7810420D01*
X14634285Y7810420D02*
X14586666Y7762800D01*
X14586666Y7762800D02*
X14491428Y7715181D01*
X14491428Y7715181D02*
X14253333Y7715181D01*
X14253333Y7715181D02*
X14158095Y7762800D01*
X14158095Y7762800D02*
X14110476Y7810420D01*
X13166666Y55795181D02*
X13166666Y55080896D01*
X13166666Y55080896D02*
X13119047Y54938039D01*
X13119047Y54938039D02*
X13023809Y54842800D01*
X13023809Y54842800D02*
X12880952Y54795181D01*
X12880952Y54795181D02*
X12785714Y54795181D01*
X13595238Y55699943D02*
X13642857Y55747562D01*
X13642857Y55747562D02*
X13738095Y55795181D01*
X13738095Y55795181D02*
X13976190Y55795181D01*
X13976190Y55795181D02*
X14071428Y55747562D01*
X14071428Y55747562D02*
X14119047Y55699943D01*
X14119047Y55699943D02*
X14166666Y55604705D01*
X14166666Y55604705D02*
X14166666Y55509467D01*
X14166666Y55509467D02*
X14119047Y55366610D01*
X14119047Y55366610D02*
X13547619Y54795181D01*
X13547619Y54795181D02*
X14166666Y54795181D01*
X7437142Y10800420D02*
X7389523Y10752800D01*
X7389523Y10752800D02*
X7246666Y10705181D01*
X7246666Y10705181D02*
X7151428Y10705181D01*
X7151428Y10705181D02*
X7008571Y10752800D01*
X7008571Y10752800D02*
X6913333Y10848039D01*
X6913333Y10848039D02*
X6865714Y10943277D01*
X6865714Y10943277D02*
X6818095Y11133753D01*
X6818095Y11133753D02*
X6818095Y11276610D01*
X6818095Y11276610D02*
X6865714Y11467086D01*
X6865714Y11467086D02*
X6913333Y11562324D01*
X6913333Y11562324D02*
X7008571Y11657562D01*
X7008571Y11657562D02*
X7151428Y11705181D01*
X7151428Y11705181D02*
X7246666Y11705181D01*
X7246666Y11705181D02*
X7389523Y11657562D01*
X7389523Y11657562D02*
X7437142Y11609943D01*
X8389523Y10705181D02*
X7818095Y10705181D01*
X8103809Y10705181D02*
X8103809Y11705181D01*
X8103809Y11705181D02*
X8008571Y11562324D01*
X8008571Y11562324D02*
X7913333Y11467086D01*
X7913333Y11467086D02*
X7818095Y11419467D01*
X9341904Y10705181D02*
X8770476Y10705181D01*
X9056190Y10705181D02*
X9056190Y11705181D01*
X9056190Y11705181D02*
X8960952Y11562324D01*
X8960952Y11562324D02*
X8865714Y11467086D01*
X8865714Y11467086D02*
X8770476Y11419467D01*
X13306905Y4125181D02*
X13306905Y5125181D01*
X13306905Y5125181D02*
X13545000Y5125181D01*
X13545000Y5125181D02*
X13687857Y5077562D01*
X13687857Y5077562D02*
X13783095Y4982324D01*
X13783095Y4982324D02*
X13830714Y4887086D01*
X13830714Y4887086D02*
X13878333Y4696610D01*
X13878333Y4696610D02*
X13878333Y4553753D01*
X13878333Y4553753D02*
X13830714Y4363277D01*
X13830714Y4363277D02*
X13783095Y4268039D01*
X13783095Y4268039D02*
X13687857Y4172800D01*
X13687857Y4172800D02*
X13545000Y4125181D01*
X13545000Y4125181D02*
X13306905Y4125181D01*
X14211667Y5125181D02*
X14878333Y5125181D01*
X14878333Y5125181D02*
X14449762Y4125181D01*
X7607142Y70345181D02*
X7273809Y70821372D01*
X7035714Y70345181D02*
X7035714Y71345181D01*
X7035714Y71345181D02*
X7416666Y71345181D01*
X7416666Y71345181D02*
X7511904Y71297562D01*
X7511904Y71297562D02*
X7559523Y71249943D01*
X7559523Y71249943D02*
X7607142Y71154705D01*
X7607142Y71154705D02*
X7607142Y71011848D01*
X7607142Y71011848D02*
X7559523Y70916610D01*
X7559523Y70916610D02*
X7511904Y70868991D01*
X7511904Y70868991D02*
X7416666Y70821372D01*
X7416666Y70821372D02*
X7035714Y70821372D01*
X8559523Y70345181D02*
X7988095Y70345181D01*
X8273809Y70345181D02*
X8273809Y71345181D01*
X8273809Y71345181D02*
X8178571Y71202324D01*
X8178571Y71202324D02*
X8083333Y71107086D01*
X8083333Y71107086D02*
X7988095Y71059467D01*
X8940476Y71249943D02*
X8988095Y71297562D01*
X8988095Y71297562D02*
X9083333Y71345181D01*
X9083333Y71345181D02*
X9321428Y71345181D01*
X9321428Y71345181D02*
X9416666Y71297562D01*
X9416666Y71297562D02*
X9464285Y71249943D01*
X9464285Y71249943D02*
X9511904Y71154705D01*
X9511904Y71154705D02*
X9511904Y71059467D01*
X9511904Y71059467D02*
X9464285Y70916610D01*
X9464285Y70916610D02*
X8892857Y70345181D01*
X8892857Y70345181D02*
X9511904Y70345181D01*
X6054819Y68457143D02*
X5578628Y68123810D01*
X6054819Y67885715D02*
X5054819Y67885715D01*
X5054819Y67885715D02*
X5054819Y68266667D01*
X5054819Y68266667D02*
X5102438Y68361905D01*
X5102438Y68361905D02*
X5150057Y68409524D01*
X5150057Y68409524D02*
X5245295Y68457143D01*
X5245295Y68457143D02*
X5388152Y68457143D01*
X5388152Y68457143D02*
X5483390Y68409524D01*
X5483390Y68409524D02*
X5531009Y68361905D01*
X5531009Y68361905D02*
X5578628Y68266667D01*
X5578628Y68266667D02*
X5578628Y67885715D01*
X6054819Y69409524D02*
X6054819Y68838096D01*
X6054819Y69123810D02*
X5054819Y69123810D01*
X5054819Y69123810D02*
X5197676Y69028572D01*
X5197676Y69028572D02*
X5292914Y68933334D01*
X5292914Y68933334D02*
X5340533Y68838096D01*
X5388152Y70266667D02*
X6054819Y70266667D01*
X5007200Y70028572D02*
X5721485Y69790477D01*
X5721485Y69790477D02*
X5721485Y70409524D01*
X7204819Y59107143D02*
X6728628Y58773810D01*
X7204819Y58535715D02*
X6204819Y58535715D01*
X6204819Y58535715D02*
X6204819Y58916667D01*
X6204819Y58916667D02*
X6252438Y59011905D01*
X6252438Y59011905D02*
X6300057Y59059524D01*
X6300057Y59059524D02*
X6395295Y59107143D01*
X6395295Y59107143D02*
X6538152Y59107143D01*
X6538152Y59107143D02*
X6633390Y59059524D01*
X6633390Y59059524D02*
X6681009Y59011905D01*
X6681009Y59011905D02*
X6728628Y58916667D01*
X6728628Y58916667D02*
X6728628Y58535715D01*
X7204819Y60059524D02*
X7204819Y59488096D01*
X7204819Y59773810D02*
X6204819Y59773810D01*
X6204819Y59773810D02*
X6347676Y59678572D01*
X6347676Y59678572D02*
X6442914Y59583334D01*
X6442914Y59583334D02*
X6490533Y59488096D01*
X6204819Y60678572D02*
X6204819Y60773810D01*
X6204819Y60773810D02*
X6252438Y60869048D01*
X6252438Y60869048D02*
X6300057Y60916667D01*
X6300057Y60916667D02*
X6395295Y60964286D01*
X6395295Y60964286D02*
X6585771Y61011905D01*
X6585771Y61011905D02*
X6823866Y61011905D01*
X6823866Y61011905D02*
X7014342Y60964286D01*
X7014342Y60964286D02*
X7109580Y60916667D01*
X7109580Y60916667D02*
X7157200Y60869048D01*
X7157200Y60869048D02*
X7204819Y60773810D01*
X7204819Y60773810D02*
X7204819Y60678572D01*
X7204819Y60678572D02*
X7157200Y60583334D01*
X7157200Y60583334D02*
X7109580Y60535715D01*
X7109580Y60535715D02*
X7014342Y60488096D01*
X7014342Y60488096D02*
X6823866Y60440477D01*
X6823866Y60440477D02*
X6585771Y60440477D01*
X6585771Y60440477D02*
X6395295Y60488096D01*
X6395295Y60488096D02*
X6300057Y60535715D01*
X6300057Y60535715D02*
X6252438Y60583334D01*
X6252438Y60583334D02*
X6204819Y60678572D01*
X4508333Y44795181D02*
X4175000Y45271372D01*
X3936905Y44795181D02*
X3936905Y45795181D01*
X3936905Y45795181D02*
X4317857Y45795181D01*
X4317857Y45795181D02*
X4413095Y45747562D01*
X4413095Y45747562D02*
X4460714Y45699943D01*
X4460714Y45699943D02*
X4508333Y45604705D01*
X4508333Y45604705D02*
X4508333Y45461848D01*
X4508333Y45461848D02*
X4460714Y45366610D01*
X4460714Y45366610D02*
X4413095Y45318991D01*
X4413095Y45318991D02*
X4317857Y45271372D01*
X4317857Y45271372D02*
X3936905Y45271372D01*
X5460714Y44795181D02*
X4889286Y44795181D01*
X5175000Y44795181D02*
X5175000Y45795181D01*
X5175000Y45795181D02*
X5079762Y45652324D01*
X5079762Y45652324D02*
X4984524Y45557086D01*
X4984524Y45557086D02*
X4889286Y45509467D01*
X12787142Y8975181D02*
X12453809Y9451372D01*
X12215714Y8975181D02*
X12215714Y9975181D01*
X12215714Y9975181D02*
X12596666Y9975181D01*
X12596666Y9975181D02*
X12691904Y9927562D01*
X12691904Y9927562D02*
X12739523Y9879943D01*
X12739523Y9879943D02*
X12787142Y9784705D01*
X12787142Y9784705D02*
X12787142Y9641848D01*
X12787142Y9641848D02*
X12739523Y9546610D01*
X12739523Y9546610D02*
X12691904Y9498991D01*
X12691904Y9498991D02*
X12596666Y9451372D01*
X12596666Y9451372D02*
X12215714Y9451372D01*
X13168095Y9879943D02*
X13215714Y9927562D01*
X13215714Y9927562D02*
X13310952Y9975181D01*
X13310952Y9975181D02*
X13549047Y9975181D01*
X13549047Y9975181D02*
X13644285Y9927562D01*
X13644285Y9927562D02*
X13691904Y9879943D01*
X13691904Y9879943D02*
X13739523Y9784705D01*
X13739523Y9784705D02*
X13739523Y9689467D01*
X13739523Y9689467D02*
X13691904Y9546610D01*
X13691904Y9546610D02*
X13120476Y8975181D01*
X13120476Y8975181D02*
X13739523Y8975181D01*
X14358571Y9975181D02*
X14453809Y9975181D01*
X14453809Y9975181D02*
X14549047Y9927562D01*
X14549047Y9927562D02*
X14596666Y9879943D01*
X14596666Y9879943D02*
X14644285Y9784705D01*
X14644285Y9784705D02*
X14691904Y9594229D01*
X14691904Y9594229D02*
X14691904Y9356134D01*
X14691904Y9356134D02*
X14644285Y9165658D01*
X14644285Y9165658D02*
X14596666Y9070420D01*
X14596666Y9070420D02*
X14549047Y9022800D01*
X14549047Y9022800D02*
X14453809Y8975181D01*
X14453809Y8975181D02*
X14358571Y8975181D01*
X14358571Y8975181D02*
X14263333Y9022800D01*
X14263333Y9022800D02*
X14215714Y9070420D01*
X14215714Y9070420D02*
X14168095Y9165658D01*
X14168095Y9165658D02*
X14120476Y9356134D01*
X14120476Y9356134D02*
X14120476Y9594229D01*
X14120476Y9594229D02*
X14168095Y9784705D01*
X14168095Y9784705D02*
X14215714Y9879943D01*
X14215714Y9879943D02*
X14263333Y9927562D01*
X14263333Y9927562D02*
X14358571Y9975181D01*
X586905Y9920181D02*
X586905Y10920181D01*
X586905Y10920181D02*
X825000Y10920181D01*
X825000Y10920181D02*
X967857Y10872562D01*
X967857Y10872562D02*
X1063095Y10777324D01*
X1063095Y10777324D02*
X1110714Y10682086D01*
X1110714Y10682086D02*
X1158333Y10491610D01*
X1158333Y10491610D02*
X1158333Y10348753D01*
X1158333Y10348753D02*
X1110714Y10158277D01*
X1110714Y10158277D02*
X1063095Y10063039D01*
X1063095Y10063039D02*
X967857Y9967800D01*
X967857Y9967800D02*
X825000Y9920181D01*
X825000Y9920181D02*
X586905Y9920181D01*
X1539286Y10824943D02*
X1586905Y10872562D01*
X1586905Y10872562D02*
X1682143Y10920181D01*
X1682143Y10920181D02*
X1920238Y10920181D01*
X1920238Y10920181D02*
X2015476Y10872562D01*
X2015476Y10872562D02*
X2063095Y10824943D01*
X2063095Y10824943D02*
X2110714Y10729705D01*
X2110714Y10729705D02*
X2110714Y10634467D01*
X2110714Y10634467D02*
X2063095Y10491610D01*
X2063095Y10491610D02*
X1491667Y9920181D01*
X1491667Y9920181D02*
X2110714Y9920181D01*
X1932142Y5515420D02*
X1884523Y5467800D01*
X1884523Y5467800D02*
X1741666Y5420181D01*
X1741666Y5420181D02*
X1646428Y5420181D01*
X1646428Y5420181D02*
X1503571Y5467800D01*
X1503571Y5467800D02*
X1408333Y5563039D01*
X1408333Y5563039D02*
X1360714Y5658277D01*
X1360714Y5658277D02*
X1313095Y5848753D01*
X1313095Y5848753D02*
X1313095Y5991610D01*
X1313095Y5991610D02*
X1360714Y6182086D01*
X1360714Y6182086D02*
X1408333Y6277324D01*
X1408333Y6277324D02*
X1503571Y6372562D01*
X1503571Y6372562D02*
X1646428Y6420181D01*
X1646428Y6420181D02*
X1741666Y6420181D01*
X1741666Y6420181D02*
X1884523Y6372562D01*
X1884523Y6372562D02*
X1932142Y6324943D01*
X2884523Y5420181D02*
X2313095Y5420181D01*
X2598809Y5420181D02*
X2598809Y6420181D01*
X2598809Y6420181D02*
X2503571Y6277324D01*
X2503571Y6277324D02*
X2408333Y6182086D01*
X2408333Y6182086D02*
X2313095Y6134467D01*
X3503571Y6420181D02*
X3598809Y6420181D01*
X3598809Y6420181D02*
X3694047Y6372562D01*
X3694047Y6372562D02*
X3741666Y6324943D01*
X3741666Y6324943D02*
X3789285Y6229705D01*
X3789285Y6229705D02*
X3836904Y6039229D01*
X3836904Y6039229D02*
X3836904Y5801134D01*
X3836904Y5801134D02*
X3789285Y5610658D01*
X3789285Y5610658D02*
X3741666Y5515420D01*
X3741666Y5515420D02*
X3694047Y5467800D01*
X3694047Y5467800D02*
X3598809Y5420181D01*
X3598809Y5420181D02*
X3503571Y5420181D01*
X3503571Y5420181D02*
X3408333Y5467800D01*
X3408333Y5467800D02*
X3360714Y5515420D01*
X3360714Y5515420D02*
X3313095Y5610658D01*
X3313095Y5610658D02*
X3265476Y5801134D01*
X3265476Y5801134D02*
X3265476Y6039229D01*
X3265476Y6039229D02*
X3313095Y6229705D01*
X3313095Y6229705D02*
X3360714Y6324943D01*
X3360714Y6324943D02*
X3408333Y6372562D01*
X3408333Y6372562D02*
X3503571Y6420181D01*
X-4295181Y64333334D02*
X-4771372Y64000001D01*
X-4295181Y63761906D02*
X-5295181Y63761906D01*
X-5295181Y63761906D02*
X-5295181Y64142858D01*
X-5295181Y64142858D02*
X-5247562Y64238096D01*
X-5247562Y64238096D02*
X-5199943Y64285715D01*
X-5199943Y64285715D02*
X-5104705Y64333334D01*
X-5104705Y64333334D02*
X-4961848Y64333334D01*
X-4961848Y64333334D02*
X-4866610Y64285715D01*
X-4866610Y64285715D02*
X-4818991Y64238096D01*
X-4818991Y64238096D02*
X-4771372Y64142858D01*
X-4771372Y64142858D02*
X-4771372Y63761906D01*
X-5295181Y65238096D02*
X-5295181Y64761906D01*
X-5295181Y64761906D02*
X-4818991Y64714287D01*
X-4818991Y64714287D02*
X-4866610Y64761906D01*
X-4866610Y64761906D02*
X-4914229Y64857144D01*
X-4914229Y64857144D02*
X-4914229Y65095239D01*
X-4914229Y65095239D02*
X-4866610Y65190477D01*
X-4866610Y65190477D02*
X-4818991Y65238096D01*
X-4818991Y65238096D02*
X-4723753Y65285715D01*
X-4723753Y65285715D02*
X-4485658Y65285715D01*
X-4485658Y65285715D02*
X-4390420Y65238096D01*
X-4390420Y65238096D02*
X-4342800Y65190477D01*
X-4342800Y65190477D02*
X-4295181Y65095239D01*
X-4295181Y65095239D02*
X-4295181Y64857144D01*
X-4295181Y64857144D02*
X-4342800Y64761906D01*
X-4342800Y64761906D02*
X-4390420Y64714287D01*
X24791666Y47395181D02*
X24791666Y46680896D01*
X24791666Y46680896D02*
X24744047Y46538039D01*
X24744047Y46538039D02*
X24648809Y46442800D01*
X24648809Y46442800D02*
X24505952Y46395181D01*
X24505952Y46395181D02*
X24410714Y46395181D01*
X25791666Y46395181D02*
X25220238Y46395181D01*
X25505952Y46395181D02*
X25505952Y47395181D01*
X25505952Y47395181D02*
X25410714Y47252324D01*
X25410714Y47252324D02*
X25315476Y47157086D01*
X25315476Y47157086D02*
X25220238Y47109467D01*
X833333Y66295181D02*
X500000Y66771372D01*
X261905Y66295181D02*
X261905Y67295181D01*
X261905Y67295181D02*
X642857Y67295181D01*
X642857Y67295181D02*
X738095Y67247562D01*
X738095Y67247562D02*
X785714Y67199943D01*
X785714Y67199943D02*
X833333Y67104705D01*
X833333Y67104705D02*
X833333Y66961848D01*
X833333Y66961848D02*
X785714Y66866610D01*
X785714Y66866610D02*
X738095Y66818991D01*
X738095Y66818991D02*
X642857Y66771372D01*
X642857Y66771372D02*
X261905Y66771372D01*
X1690476Y67295181D02*
X1500000Y67295181D01*
X1500000Y67295181D02*
X1404762Y67247562D01*
X1404762Y67247562D02*
X1357143Y67199943D01*
X1357143Y67199943D02*
X1261905Y67057086D01*
X1261905Y67057086D02*
X1214286Y66866610D01*
X1214286Y66866610D02*
X1214286Y66485658D01*
X1214286Y66485658D02*
X1261905Y66390420D01*
X1261905Y66390420D02*
X1309524Y66342800D01*
X1309524Y66342800D02*
X1404762Y66295181D01*
X1404762Y66295181D02*
X1595238Y66295181D01*
X1595238Y66295181D02*
X1690476Y66342800D01*
X1690476Y66342800D02*
X1738095Y66390420D01*
X1738095Y66390420D02*
X1785714Y66485658D01*
X1785714Y66485658D02*
X1785714Y66723753D01*
X1785714Y66723753D02*
X1738095Y66818991D01*
X1738095Y66818991D02*
X1690476Y66866610D01*
X1690476Y66866610D02*
X1595238Y66914229D01*
X1595238Y66914229D02*
X1404762Y66914229D01*
X1404762Y66914229D02*
X1309524Y66866610D01*
X1309524Y66866610D02*
X1261905Y66818991D01*
X1261905Y66818991D02*
X1214286Y66723753D01*
X14104819Y63282143D02*
X13628628Y62948810D01*
X14104819Y62710715D02*
X13104819Y62710715D01*
X13104819Y62710715D02*
X13104819Y63091667D01*
X13104819Y63091667D02*
X13152438Y63186905D01*
X13152438Y63186905D02*
X13200057Y63234524D01*
X13200057Y63234524D02*
X13295295Y63282143D01*
X13295295Y63282143D02*
X13438152Y63282143D01*
X13438152Y63282143D02*
X13533390Y63234524D01*
X13533390Y63234524D02*
X13581009Y63186905D01*
X13581009Y63186905D02*
X13628628Y63091667D01*
X13628628Y63091667D02*
X13628628Y62710715D01*
X14104819Y64234524D02*
X14104819Y63663096D01*
X14104819Y63948810D02*
X13104819Y63948810D01*
X13104819Y63948810D02*
X13247676Y63853572D01*
X13247676Y63853572D02*
X13342914Y63758334D01*
X13342914Y63758334D02*
X13390533Y63663096D01*
X13104819Y65091667D02*
X13104819Y64901191D01*
X13104819Y64901191D02*
X13152438Y64805953D01*
X13152438Y64805953D02*
X13200057Y64758334D01*
X13200057Y64758334D02*
X13342914Y64663096D01*
X13342914Y64663096D02*
X13533390Y64615477D01*
X13533390Y64615477D02*
X13914342Y64615477D01*
X13914342Y64615477D02*
X14009580Y64663096D01*
X14009580Y64663096D02*
X14057200Y64710715D01*
X14057200Y64710715D02*
X14104819Y64805953D01*
X14104819Y64805953D02*
X14104819Y64996429D01*
X14104819Y64996429D02*
X14057200Y65091667D01*
X14057200Y65091667D02*
X14009580Y65139286D01*
X14009580Y65139286D02*
X13914342Y65186905D01*
X13914342Y65186905D02*
X13676247Y65186905D01*
X13676247Y65186905D02*
X13581009Y65139286D01*
X13581009Y65139286D02*
X13533390Y65091667D01*
X13533390Y65091667D02*
X13485771Y64996429D01*
X13485771Y64996429D02*
X13485771Y64805953D01*
X13485771Y64805953D02*
X13533390Y64710715D01*
X13533390Y64710715D02*
X13581009Y64663096D01*
X13581009Y64663096D02*
X13676247Y64615477D01*
X18133333Y44040420D02*
X18085714Y43992800D01*
X18085714Y43992800D02*
X17942857Y43945181D01*
X17942857Y43945181D02*
X17847619Y43945181D01*
X17847619Y43945181D02*
X17704762Y43992800D01*
X17704762Y43992800D02*
X17609524Y44088039D01*
X17609524Y44088039D02*
X17561905Y44183277D01*
X17561905Y44183277D02*
X17514286Y44373753D01*
X17514286Y44373753D02*
X17514286Y44516610D01*
X17514286Y44516610D02*
X17561905Y44707086D01*
X17561905Y44707086D02*
X17609524Y44802324D01*
X17609524Y44802324D02*
X17704762Y44897562D01*
X17704762Y44897562D02*
X17847619Y44945181D01*
X17847619Y44945181D02*
X17942857Y44945181D01*
X17942857Y44945181D02*
X18085714Y44897562D01*
X18085714Y44897562D02*
X18133333Y44849943D01*
X19038095Y44945181D02*
X18561905Y44945181D01*
X18561905Y44945181D02*
X18514286Y44468991D01*
X18514286Y44468991D02*
X18561905Y44516610D01*
X18561905Y44516610D02*
X18657143Y44564229D01*
X18657143Y44564229D02*
X18895238Y44564229D01*
X18895238Y44564229D02*
X18990476Y44516610D01*
X18990476Y44516610D02*
X19038095Y44468991D01*
X19038095Y44468991D02*
X19085714Y44373753D01*
X19085714Y44373753D02*
X19085714Y44135658D01*
X19085714Y44135658D02*
X19038095Y44040420D01*
X19038095Y44040420D02*
X18990476Y43992800D01*
X18990476Y43992800D02*
X18895238Y43945181D01*
X18895238Y43945181D02*
X18657143Y43945181D01*
X18657143Y43945181D02*
X18561905Y43992800D01*
X18561905Y43992800D02*
X18514286Y44040420D01*
X14013095Y54345181D02*
X14013095Y53535658D01*
X14013095Y53535658D02*
X14060714Y53440420D01*
X14060714Y53440420D02*
X14108333Y53392800D01*
X14108333Y53392800D02*
X14203571Y53345181D01*
X14203571Y53345181D02*
X14394047Y53345181D01*
X14394047Y53345181D02*
X14489285Y53392800D01*
X14489285Y53392800D02*
X14536904Y53440420D01*
X14536904Y53440420D02*
X14584523Y53535658D01*
X14584523Y53535658D02*
X14584523Y54345181D01*
X15584523Y53345181D02*
X15013095Y53345181D01*
X15298809Y53345181D02*
X15298809Y54345181D01*
X15298809Y54345181D02*
X15203571Y54202324D01*
X15203571Y54202324D02*
X15108333Y54107086D01*
X15108333Y54107086D02*
X15013095Y54059467D01*
X3158333Y9920181D02*
X2825000Y10396372D01*
X2586905Y9920181D02*
X2586905Y10920181D01*
X2586905Y10920181D02*
X2967857Y10920181D01*
X2967857Y10920181D02*
X3063095Y10872562D01*
X3063095Y10872562D02*
X3110714Y10824943D01*
X3110714Y10824943D02*
X3158333Y10729705D01*
X3158333Y10729705D02*
X3158333Y10586848D01*
X3158333Y10586848D02*
X3110714Y10491610D01*
X3110714Y10491610D02*
X3063095Y10443991D01*
X3063095Y10443991D02*
X2967857Y10396372D01*
X2967857Y10396372D02*
X2586905Y10396372D01*
X3539286Y10824943D02*
X3586905Y10872562D01*
X3586905Y10872562D02*
X3682143Y10920181D01*
X3682143Y10920181D02*
X3920238Y10920181D01*
X3920238Y10920181D02*
X4015476Y10872562D01*
X4015476Y10872562D02*
X4063095Y10824943D01*
X4063095Y10824943D02*
X4110714Y10729705D01*
X4110714Y10729705D02*
X4110714Y10634467D01*
X4110714Y10634467D02*
X4063095Y10491610D01*
X4063095Y10491610D02*
X3491667Y9920181D01*
X3491667Y9920181D02*
X4110714Y9920181D01*
X6583333Y44140420D02*
X6535714Y44092800D01*
X6535714Y44092800D02*
X6392857Y44045181D01*
X6392857Y44045181D02*
X6297619Y44045181D01*
X6297619Y44045181D02*
X6154762Y44092800D01*
X6154762Y44092800D02*
X6059524Y44188039D01*
X6059524Y44188039D02*
X6011905Y44283277D01*
X6011905Y44283277D02*
X5964286Y44473753D01*
X5964286Y44473753D02*
X5964286Y44616610D01*
X5964286Y44616610D02*
X6011905Y44807086D01*
X6011905Y44807086D02*
X6059524Y44902324D01*
X6059524Y44902324D02*
X6154762Y44997562D01*
X6154762Y44997562D02*
X6297619Y45045181D01*
X6297619Y45045181D02*
X6392857Y45045181D01*
X6392857Y45045181D02*
X6535714Y44997562D01*
X6535714Y44997562D02*
X6583333Y44949943D01*
X7440476Y44711848D02*
X7440476Y44045181D01*
X7202381Y45092800D02*
X6964286Y44378515D01*
X6964286Y44378515D02*
X7583333Y44378515D01*
X11933333Y45545181D02*
X11600000Y46021372D01*
X11361905Y45545181D02*
X11361905Y46545181D01*
X11361905Y46545181D02*
X11742857Y46545181D01*
X11742857Y46545181D02*
X11838095Y46497562D01*
X11838095Y46497562D02*
X11885714Y46449943D01*
X11885714Y46449943D02*
X11933333Y46354705D01*
X11933333Y46354705D02*
X11933333Y46211848D01*
X11933333Y46211848D02*
X11885714Y46116610D01*
X11885714Y46116610D02*
X11838095Y46068991D01*
X11838095Y46068991D02*
X11742857Y46021372D01*
X11742857Y46021372D02*
X11361905Y46021372D01*
X12790476Y46211848D02*
X12790476Y45545181D01*
X12552381Y46592800D02*
X12314286Y45878515D01*
X12314286Y45878515D02*
X12933333Y45878515D01*
X-2791667Y44190420D02*
X-2839286Y44142800D01*
X-2839286Y44142800D02*
X-2982143Y44095181D01*
X-2982143Y44095181D02*
X-3077381Y44095181D01*
X-3077381Y44095181D02*
X-3220238Y44142800D01*
X-3220238Y44142800D02*
X-3315476Y44238039D01*
X-3315476Y44238039D02*
X-3363095Y44333277D01*
X-3363095Y44333277D02*
X-3410714Y44523753D01*
X-3410714Y44523753D02*
X-3410714Y44666610D01*
X-3410714Y44666610D02*
X-3363095Y44857086D01*
X-3363095Y44857086D02*
X-3315476Y44952324D01*
X-3315476Y44952324D02*
X-3220238Y45047562D01*
X-3220238Y45047562D02*
X-3077381Y45095181D01*
X-3077381Y45095181D02*
X-2982143Y45095181D01*
X-2982143Y45095181D02*
X-2839286Y45047562D01*
X-2839286Y45047562D02*
X-2791667Y44999943D01*
X-2458333Y45095181D02*
X-1839286Y45095181D01*
X-1839286Y45095181D02*
X-2172619Y44714229D01*
X-2172619Y44714229D02*
X-2029762Y44714229D01*
X-2029762Y44714229D02*
X-1934524Y44666610D01*
X-1934524Y44666610D02*
X-1886905Y44618991D01*
X-1886905Y44618991D02*
X-1839286Y44523753D01*
X-1839286Y44523753D02*
X-1839286Y44285658D01*
X-1839286Y44285658D02*
X-1886905Y44190420D01*
X-1886905Y44190420D02*
X-1934524Y44142800D01*
X-1934524Y44142800D02*
X-2029762Y44095181D01*
X-2029762Y44095181D02*
X-2315476Y44095181D01*
X-2315476Y44095181D02*
X-2410714Y44142800D01*
X-2410714Y44142800D02*
X-2458333Y44190420D01*
X-4566667Y44190420D02*
X-4614286Y44142800D01*
X-4614286Y44142800D02*
X-4757143Y44095181D01*
X-4757143Y44095181D02*
X-4852381Y44095181D01*
X-4852381Y44095181D02*
X-4995238Y44142800D01*
X-4995238Y44142800D02*
X-5090476Y44238039D01*
X-5090476Y44238039D02*
X-5138095Y44333277D01*
X-5138095Y44333277D02*
X-5185714Y44523753D01*
X-5185714Y44523753D02*
X-5185714Y44666610D01*
X-5185714Y44666610D02*
X-5138095Y44857086D01*
X-5138095Y44857086D02*
X-5090476Y44952324D01*
X-5090476Y44952324D02*
X-4995238Y45047562D01*
X-4995238Y45047562D02*
X-4852381Y45095181D01*
X-4852381Y45095181D02*
X-4757143Y45095181D01*
X-4757143Y45095181D02*
X-4614286Y45047562D01*
X-4614286Y45047562D02*
X-4566667Y44999943D01*
X-3709524Y45095181D02*
X-3900000Y45095181D01*
X-3900000Y45095181D02*
X-3995238Y45047562D01*
X-3995238Y45047562D02*
X-4042857Y44999943D01*
X-4042857Y44999943D02*
X-4138095Y44857086D01*
X-4138095Y44857086D02*
X-4185714Y44666610D01*
X-4185714Y44666610D02*
X-4185714Y44285658D01*
X-4185714Y44285658D02*
X-4138095Y44190420D01*
X-4138095Y44190420D02*
X-4090476Y44142800D01*
X-4090476Y44142800D02*
X-3995238Y44095181D01*
X-3995238Y44095181D02*
X-3804762Y44095181D01*
X-3804762Y44095181D02*
X-3709524Y44142800D01*
X-3709524Y44142800D02*
X-3661905Y44190420D01*
X-3661905Y44190420D02*
X-3614286Y44285658D01*
X-3614286Y44285658D02*
X-3614286Y44523753D01*
X-3614286Y44523753D02*
X-3661905Y44618991D01*
X-3661905Y44618991D02*
X-3709524Y44666610D01*
X-3709524Y44666610D02*
X-3804762Y44714229D01*
X-3804762Y44714229D02*
X-3995238Y44714229D01*
X-3995238Y44714229D02*
X-4090476Y44666610D01*
X-4090476Y44666610D02*
X-4138095Y44618991D01*
X-4138095Y44618991D02*
X-4185714Y44523753D01*
X23736905Y53395181D02*
X23736905Y54395181D01*
X23736905Y54395181D02*
X23975000Y54395181D01*
X23975000Y54395181D02*
X24117857Y54347562D01*
X24117857Y54347562D02*
X24213095Y54252324D01*
X24213095Y54252324D02*
X24260714Y54157086D01*
X24260714Y54157086D02*
X24308333Y53966610D01*
X24308333Y53966610D02*
X24308333Y53823753D01*
X24308333Y53823753D02*
X24260714Y53633277D01*
X24260714Y53633277D02*
X24213095Y53538039D01*
X24213095Y53538039D02*
X24117857Y53442800D01*
X24117857Y53442800D02*
X23975000Y53395181D01*
X23975000Y53395181D02*
X23736905Y53395181D01*
X25260714Y53395181D02*
X24689286Y53395181D01*
X24975000Y53395181D02*
X24975000Y54395181D01*
X24975000Y54395181D02*
X24879762Y54252324D01*
X24879762Y54252324D02*
X24784524Y54157086D01*
X24784524Y54157086D02*
X24689286Y54109467D01*
X4833333Y65445181D02*
X4500000Y65921372D01*
X4261905Y65445181D02*
X4261905Y66445181D01*
X4261905Y66445181D02*
X4642857Y66445181D01*
X4642857Y66445181D02*
X4738095Y66397562D01*
X4738095Y66397562D02*
X4785714Y66349943D01*
X4785714Y66349943D02*
X4833333Y66254705D01*
X4833333Y66254705D02*
X4833333Y66111848D01*
X4833333Y66111848D02*
X4785714Y66016610D01*
X4785714Y66016610D02*
X4738095Y65968991D01*
X4738095Y65968991D02*
X4642857Y65921372D01*
X4642857Y65921372D02*
X4261905Y65921372D01*
X5166667Y66445181D02*
X5833333Y66445181D01*
X5833333Y66445181D02*
X5404762Y65445181D01*
X16333333Y49340420D02*
X16285714Y49292800D01*
X16285714Y49292800D02*
X16142857Y49245181D01*
X16142857Y49245181D02*
X16047619Y49245181D01*
X16047619Y49245181D02*
X15904762Y49292800D01*
X15904762Y49292800D02*
X15809524Y49388039D01*
X15809524Y49388039D02*
X15761905Y49483277D01*
X15761905Y49483277D02*
X15714286Y49673753D01*
X15714286Y49673753D02*
X15714286Y49816610D01*
X15714286Y49816610D02*
X15761905Y50007086D01*
X15761905Y50007086D02*
X15809524Y50102324D01*
X15809524Y50102324D02*
X15904762Y50197562D01*
X15904762Y50197562D02*
X16047619Y50245181D01*
X16047619Y50245181D02*
X16142857Y50245181D01*
X16142857Y50245181D02*
X16285714Y50197562D01*
X16285714Y50197562D02*
X16333333Y50149943D01*
X16904762Y49816610D02*
X16809524Y49864229D01*
X16809524Y49864229D02*
X16761905Y49911848D01*
X16761905Y49911848D02*
X16714286Y50007086D01*
X16714286Y50007086D02*
X16714286Y50054705D01*
X16714286Y50054705D02*
X16761905Y50149943D01*
X16761905Y50149943D02*
X16809524Y50197562D01*
X16809524Y50197562D02*
X16904762Y50245181D01*
X16904762Y50245181D02*
X17095238Y50245181D01*
X17095238Y50245181D02*
X17190476Y50197562D01*
X17190476Y50197562D02*
X17238095Y50149943D01*
X17238095Y50149943D02*
X17285714Y50054705D01*
X17285714Y50054705D02*
X17285714Y50007086D01*
X17285714Y50007086D02*
X17238095Y49911848D01*
X17238095Y49911848D02*
X17190476Y49864229D01*
X17190476Y49864229D02*
X17095238Y49816610D01*
X17095238Y49816610D02*
X16904762Y49816610D01*
X16904762Y49816610D02*
X16809524Y49768991D01*
X16809524Y49768991D02*
X16761905Y49721372D01*
X16761905Y49721372D02*
X16714286Y49626134D01*
X16714286Y49626134D02*
X16714286Y49435658D01*
X16714286Y49435658D02*
X16761905Y49340420D01*
X16761905Y49340420D02*
X16809524Y49292800D01*
X16809524Y49292800D02*
X16904762Y49245181D01*
X16904762Y49245181D02*
X17095238Y49245181D01*
X17095238Y49245181D02*
X17190476Y49292800D01*
X17190476Y49292800D02*
X17238095Y49340420D01*
X17238095Y49340420D02*
X17285714Y49435658D01*
X17285714Y49435658D02*
X17285714Y49626134D01*
X17285714Y49626134D02*
X17238095Y49721372D01*
X17238095Y49721372D02*
X17190476Y49768991D01*
X17190476Y49768991D02*
X17095238Y49816610D01*
X10154761Y65449943D02*
X10059523Y65497562D01*
X10059523Y65497562D02*
X9964285Y65592800D01*
X9964285Y65592800D02*
X9821428Y65735658D01*
X9821428Y65735658D02*
X9726190Y65783277D01*
X9726190Y65783277D02*
X9630952Y65783277D01*
X9678571Y65545181D02*
X9583333Y65592800D01*
X9583333Y65592800D02*
X9488095Y65688039D01*
X9488095Y65688039D02*
X9440476Y65878515D01*
X9440476Y65878515D02*
X9440476Y66211848D01*
X9440476Y66211848D02*
X9488095Y66402324D01*
X9488095Y66402324D02*
X9583333Y66497562D01*
X9583333Y66497562D02*
X9678571Y66545181D01*
X9678571Y66545181D02*
X9869047Y66545181D01*
X9869047Y66545181D02*
X9964285Y66497562D01*
X9964285Y66497562D02*
X10059523Y66402324D01*
X10059523Y66402324D02*
X10107142Y66211848D01*
X10107142Y66211848D02*
X10107142Y65878515D01*
X10107142Y65878515D02*
X10059523Y65688039D01*
X10059523Y65688039D02*
X9964285Y65592800D01*
X9964285Y65592800D02*
X9869047Y65545181D01*
X9869047Y65545181D02*
X9678571Y65545181D01*
X11059523Y65545181D02*
X10488095Y65545181D01*
X10773809Y65545181D02*
X10773809Y66545181D01*
X10773809Y66545181D02*
X10678571Y66402324D01*
X10678571Y66402324D02*
X10583333Y66307086D01*
X10583333Y66307086D02*
X10488095Y66259467D01*
D11*
%TO.C,U2*%
X-11100000Y63400000D02*
X-10500000Y63400000D01*
X-11100000Y62650000D02*
X-11100000Y63400000D01*
X-11100000Y50675000D02*
X-11100000Y49825000D01*
X-10900000Y63200000D02*
X5700000Y63200000D01*
X-10900000Y50000000D02*
X-10900000Y63200000D01*
X-5500000Y50000000D02*
X-5500000Y63200000D01*
X5100000Y63400000D02*
X5900000Y63400000D01*
X5100000Y49800000D02*
X5900000Y49800000D01*
X5700000Y63200000D02*
X5700000Y50000000D01*
X5700000Y50000000D02*
X-10900000Y50000000D01*
X5900000Y63400000D02*
X5900000Y62600000D01*
X5900000Y49800000D02*
X5900000Y50600000D01*
%TO.C,R3*%
X17077500Y47025242D02*
X17077500Y47499758D01*
X18122500Y47025242D02*
X18122500Y47499758D01*
%TO.C,R9*%
X11727500Y68487258D02*
X11727500Y68012742D01*
X12772500Y68487258D02*
X12772500Y68012742D01*
%TO.C,R13*%
X9977500Y68487258D02*
X9977500Y68012742D01*
X11022500Y68487258D02*
X11022500Y68012742D01*
%TO.C,R8*%
X9237258Y62522500D02*
X8762742Y62522500D01*
X9237258Y61477500D02*
X8762742Y61477500D01*
%TO.C,C1*%
X5784420Y49010000D02*
X6065580Y49010000D01*
X5784420Y47990000D02*
X6065580Y47990000D01*
%TO.C,C2*%
X9859420Y52760000D02*
X10140580Y52760000D01*
X9859420Y51740000D02*
X10140580Y51740000D01*
%TO.C,Q3*%
X21562500Y49810000D02*
X19887500Y49810000D01*
X21562500Y49810000D02*
X22212500Y49810000D01*
X21562500Y46690000D02*
X20912500Y46690000D01*
X21562500Y46690000D02*
X22212500Y46690000D01*
%TO.C,U5*%
X6015000Y6875000D02*
X6015000Y7675000D01*
X6015000Y6875000D02*
X6015000Y5075000D01*
X9135000Y6875000D02*
X9135000Y7675000D01*
X9135000Y6875000D02*
X9135000Y6075000D01*
%TO.C,R11*%
X8762742Y59022500D02*
X9237258Y59022500D01*
X8762742Y57977500D02*
X9237258Y57977500D01*
D12*
%TO.C,P1*%
X5504200Y1000300D02*
X5504200Y-500000D01*
X14495800Y1000300D02*
X5504200Y1000300D01*
X14495800Y-450000D02*
X14495800Y1000300D01*
D13*
%TO.C,U4*%
X13775000Y48537500D02*
X13925000Y48537500D01*
X13775000Y48387500D02*
X13775000Y48537500D01*
X13925000Y45837500D02*
X13675000Y45837500D01*
X16475000Y48537500D02*
X16325000Y48537500D01*
X16475000Y48537500D02*
X16475000Y48387500D01*
X16475000Y45837500D02*
X16325000Y45837500D01*
X16485000Y45837500D02*
X16485000Y45987500D01*
D11*
%TO.C,TP4*%
X10600000Y11400000D02*
G75*
G02*
X9200000Y11400000I-700000J0D01*
G01*
X9200000Y11400000D02*
G75*
G02*
X10600000Y11400000I700000J0D01*
G01*
D12*
%TO.C,U3*%
X8203801Y50790000D02*
X8203801Y48097600D01*
X10896201Y48097600D02*
X10896201Y50790000D01*
X8401601Y47693800D02*
G75*
G02*
X8198401Y47693800I-101600J0D01*
G01*
X8198401Y47693800D02*
G75*
G02*
X8401601Y47693800I101600J0D01*
G01*
D11*
%TO.C,C7*%
X11240000Y58390580D02*
X11240000Y58109420D01*
X12260000Y58390580D02*
X12260000Y58109420D01*
%TO.C,R15*%
X11977500Y6137742D02*
X11977500Y6612258D01*
X13022500Y6137742D02*
X13022500Y6612258D01*
D14*
%TO.C,REF\u002A\u002A*%
X14200322Y18957931D02*
X14224035Y18943161D01*
X14250686Y18921581D01*
X14250686Y18600035D01*
X14250601Y18505978D01*
X14250237Y18431876D01*
X14249432Y18375104D01*
X14248021Y18333040D01*
X14245841Y18303060D01*
X14242729Y18282541D01*
X14238522Y18268859D01*
X14233056Y18259392D01*
X14229180Y18254726D01*
X14197742Y18234233D01*
X14161941Y18235069D01*
X14130581Y18252544D01*
X14103930Y18274124D01*
X14103930Y18921581D01*
X14130581Y18943161D01*
X14156302Y18958859D01*
X14177308Y18964741D01*
X14200322Y18957931D01*
G36*
X14200322Y18957931D02*
G01*
X14224035Y18943161D01*
X14250686Y18921581D01*
X14250686Y18600035D01*
X14250601Y18505978D01*
X14250237Y18431876D01*
X14249432Y18375104D01*
X14248021Y18333040D01*
X14245841Y18303060D01*
X14242729Y18282541D01*
X14238522Y18268859D01*
X14233056Y18259392D01*
X14229180Y18254726D01*
X14197742Y18234233D01*
X14161941Y18235069D01*
X14130581Y18252544D01*
X14103930Y18274124D01*
X14103930Y18921581D01*
X14130581Y18943161D01*
X14156302Y18958859D01*
X14177308Y18964741D01*
X14200322Y18957931D01*
G37*
X7087886Y18942163D02*
X7094466Y18934590D01*
X7099629Y18924821D01*
X7103544Y18910237D01*
X7106384Y18888223D01*
X7108321Y18856160D01*
X7109525Y18811433D01*
X7110169Y18751423D01*
X7110424Y18673514D01*
X7110463Y18597852D01*
X7110394Y18504006D01*
X7110070Y18430119D01*
X7109322Y18373576D01*
X7107976Y18331759D01*
X7105862Y18302051D01*
X7102808Y18281835D01*
X7098642Y18268494D01*
X7093192Y18259410D01*
X7087886Y18253541D01*
X7054882Y18233861D01*
X7019717Y18235627D01*
X6988253Y18257091D01*
X6981024Y18265471D01*
X6975374Y18275194D01*
X6971109Y18288947D01*
X6968035Y18309419D01*
X6965956Y18339296D01*
X6964678Y18381267D01*
X6964007Y18438019D01*
X6963749Y18512241D01*
X6963708Y18596271D01*
X6963708Y18909323D01*
X6991417Y18937032D01*
X7025571Y18960345D01*
X7058702Y18961185D01*
X7087886Y18942163D01*
G36*
X7087886Y18942163D02*
G01*
X7094466Y18934590D01*
X7099629Y18924821D01*
X7103544Y18910237D01*
X7106384Y18888223D01*
X7108321Y18856160D01*
X7109525Y18811433D01*
X7110169Y18751423D01*
X7110424Y18673514D01*
X7110463Y18597852D01*
X7110394Y18504006D01*
X7110070Y18430119D01*
X7109322Y18373576D01*
X7107976Y18331759D01*
X7105862Y18302051D01*
X7102808Y18281835D01*
X7098642Y18268494D01*
X7093192Y18259410D01*
X7087886Y18253541D01*
X7054882Y18233861D01*
X7019717Y18235627D01*
X6988253Y18257091D01*
X6981024Y18265471D01*
X6975374Y18275194D01*
X6971109Y18288947D01*
X6968035Y18309419D01*
X6965956Y18339296D01*
X6964678Y18381267D01*
X6964007Y18438019D01*
X6963749Y18512241D01*
X6963708Y18596271D01*
X6963708Y18909323D01*
X6991417Y18937032D01*
X7025571Y18960345D01*
X7058702Y18961185D01*
X7087886Y18942163D01*
G37*
X7273921Y25563510D02*
X7377027Y25527762D01*
X7473022Y25471493D01*
X7558753Y25394712D01*
X7631070Y25297427D01*
X7663555Y25236108D01*
X7691668Y25150340D01*
X7705295Y25051323D01*
X7703786Y24949529D01*
X7687031Y24857286D01*
X7641237Y24744568D01*
X7574832Y24646793D01*
X7491191Y24565885D01*
X7393688Y24503768D01*
X7285700Y24462366D01*
X7170601Y24443603D01*
X7051766Y24449402D01*
X6993189Y24461794D01*
X6879028Y24506203D01*
X6777635Y24573967D01*
X6691455Y24662999D01*
X6622934Y24771209D01*
X6617136Y24783027D01*
X6597096Y24827372D01*
X6584513Y24864720D01*
X6577681Y24904120D01*
X6574895Y24954619D01*
X6574432Y25009567D01*
X6575197Y25075585D01*
X6578648Y25123311D01*
X6586523Y25161897D01*
X6600557Y25200494D01*
X6617880Y25238574D01*
X6682495Y25346672D01*
X6762066Y25434197D01*
X6853440Y25501159D01*
X6953464Y25547564D01*
X7058988Y25573419D01*
X7166858Y25578732D01*
X7273921Y25563510D01*
G36*
X7273921Y25563510D02*
G01*
X7377027Y25527762D01*
X7473022Y25471493D01*
X7558753Y25394712D01*
X7631070Y25297427D01*
X7663555Y25236108D01*
X7691668Y25150340D01*
X7705295Y25051323D01*
X7703786Y24949529D01*
X7687031Y24857286D01*
X7641237Y24744568D01*
X7574832Y24646793D01*
X7491191Y24565885D01*
X7393688Y24503768D01*
X7285700Y24462366D01*
X7170601Y24443603D01*
X7051766Y24449402D01*
X6993189Y24461794D01*
X6879028Y24506203D01*
X6777635Y24573967D01*
X6691455Y24662999D01*
X6622934Y24771209D01*
X6617136Y24783027D01*
X6597096Y24827372D01*
X6584513Y24864720D01*
X6577681Y24904120D01*
X6574895Y24954619D01*
X6574432Y25009567D01*
X6575197Y25075585D01*
X6578648Y25123311D01*
X6586523Y25161897D01*
X6600557Y25200494D01*
X6617880Y25238574D01*
X6682495Y25346672D01*
X6762066Y25434197D01*
X6853440Y25501159D01*
X6953464Y25547564D01*
X7058988Y25573419D01*
X7166858Y25578732D01*
X7273921Y25563510D01*
G37*
X14974773Y18964645D02*
X15053480Y18964266D01*
X15114571Y18963475D01*
X15160525Y18962138D01*
X15193822Y18960125D01*
X15216944Y18957302D01*
X15232370Y18953539D01*
X15242579Y18948703D01*
X15247521Y18944986D01*
X15273165Y18912450D01*
X15276267Y18878670D01*
X15260419Y18847982D01*
X15250056Y18835719D01*
X15238904Y18827358D01*
X15222743Y18822151D01*
X15197350Y18819351D01*
X15158506Y18818212D01*
X15101988Y18817987D01*
X15090888Y18817986D01*
X14944952Y18817986D01*
X14944952Y18547052D01*
X14944856Y18461654D01*
X14944419Y18395944D01*
X14943420Y18347034D01*
X14941636Y18312035D01*
X14938845Y18288059D01*
X14934825Y18272215D01*
X14929353Y18261617D01*
X14922374Y18253541D01*
X14889442Y18233696D01*
X14855062Y18235260D01*
X14823884Y18257902D01*
X14821594Y18260708D01*
X14814137Y18271316D01*
X14808455Y18283727D01*
X14804309Y18300958D01*
X14801458Y18326024D01*
X14799662Y18361941D01*
X14798680Y18411725D01*
X14798272Y18478391D01*
X14798197Y18554219D01*
X14798197Y18817986D01*
X14658835Y18817986D01*
X14599030Y18818390D01*
X14557626Y18819968D01*
X14530456Y18823261D01*
X14513354Y18828816D01*
X14502151Y18837177D01*
X14500791Y18838630D01*
X14484433Y18871869D01*
X14485880Y18909446D01*
X14504686Y18942163D01*
X14511958Y18948510D01*
X14521335Y18953542D01*
X14535317Y18957412D01*
X14556404Y18960271D01*
X14587097Y18962273D01*
X14629897Y18963569D01*
X14687303Y18964310D01*
X14761818Y18964650D01*
X14855941Y18964740D01*
X14875968Y18964741D01*
X14974773Y18964645D01*
G36*
X14974773Y18964645D02*
G01*
X15053480Y18964266D01*
X15114571Y18963475D01*
X15160525Y18962138D01*
X15193822Y18960125D01*
X15216944Y18957302D01*
X15232370Y18953539D01*
X15242579Y18948703D01*
X15247521Y18944986D01*
X15273165Y18912450D01*
X15276267Y18878670D01*
X15260419Y18847982D01*
X15250056Y18835719D01*
X15238904Y18827358D01*
X15222743Y18822151D01*
X15197350Y18819351D01*
X15158506Y18818212D01*
X15101988Y18817987D01*
X15090888Y18817986D01*
X14944952Y18817986D01*
X14944952Y18547052D01*
X14944856Y18461654D01*
X14944419Y18395944D01*
X14943420Y18347034D01*
X14941636Y18312035D01*
X14938845Y18288059D01*
X14934825Y18272215D01*
X14929353Y18261617D01*
X14922374Y18253541D01*
X14889442Y18233696D01*
X14855062Y18235260D01*
X14823884Y18257902D01*
X14821594Y18260708D01*
X14814137Y18271316D01*
X14808455Y18283727D01*
X14804309Y18300958D01*
X14801458Y18326024D01*
X14799662Y18361941D01*
X14798680Y18411725D01*
X14798272Y18478391D01*
X14798197Y18554219D01*
X14798197Y18817986D01*
X14658835Y18817986D01*
X14599030Y18818390D01*
X14557626Y18819968D01*
X14530456Y18823261D01*
X14513354Y18828816D01*
X14502151Y18837177D01*
X14500791Y18838630D01*
X14484433Y18871869D01*
X14485880Y18909446D01*
X14504686Y18942163D01*
X14511958Y18948510D01*
X14521335Y18953542D01*
X14535317Y18957412D01*
X14556404Y18960271D01*
X14587097Y18962273D01*
X14629897Y18963569D01*
X14687303Y18964310D01*
X14761818Y18964650D01*
X14855941Y18964740D01*
X14875968Y18964741D01*
X14974773Y18964645D01*
G37*
X16240531Y18959275D02*
X16271910Y18937032D01*
X16299619Y18909323D01*
X16299619Y18599888D01*
X16299546Y18508009D01*
X16299203Y18435968D01*
X16298400Y18381028D01*
X16296949Y18340448D01*
X16294660Y18311491D01*
X16291344Y18291417D01*
X16286813Y18277487D01*
X16280877Y18266963D01*
X16276222Y18260708D01*
X16245491Y18236135D01*
X16210204Y18233467D01*
X16177953Y18248537D01*
X16167296Y18257434D01*
X16160172Y18269251D01*
X16155875Y18288282D01*
X16153699Y18318816D01*
X16152936Y18365146D01*
X16152863Y18400937D01*
X16152863Y18535763D01*
X15656152Y18535763D01*
X15656152Y18413108D01*
X15655639Y18357021D01*
X15653584Y18318475D01*
X15649216Y18292447D01*
X15641764Y18273911D01*
X15632755Y18260708D01*
X15601852Y18236204D01*
X15566904Y18233302D01*
X15533446Y18250719D01*
X15524312Y18259849D01*
X15517860Y18271953D01*
X15513605Y18290807D01*
X15511060Y18320188D01*
X15509737Y18363871D01*
X15509151Y18425633D01*
X15509083Y18439808D01*
X15508599Y18556177D01*
X15508349Y18652081D01*
X15508431Y18729631D01*
X15508939Y18790939D01*
X15509970Y18838118D01*
X15511621Y18873278D01*
X15513987Y18898532D01*
X15517165Y18915991D01*
X15521252Y18927767D01*
X15526342Y18935973D01*
X15531974Y18942163D01*
X15563836Y18961964D01*
X15597065Y18959275D01*
X15628443Y18937032D01*
X15641141Y18922682D01*
X15649234Y18906830D01*
X15653750Y18884254D01*
X15655714Y18849730D01*
X15656152Y18798032D01*
X15656152Y18682519D01*
X16152863Y18682519D01*
X16152863Y18801052D01*
X16153370Y18855660D01*
X16155406Y18892533D01*
X16159743Y18916501D01*
X16167155Y18932393D01*
X16175441Y18942163D01*
X16207302Y18961964D01*
X16240531Y18959275D01*
G36*
X16240531Y18959275D02*
G01*
X16271910Y18937032D01*
X16299619Y18909323D01*
X16299619Y18599888D01*
X16299546Y18508009D01*
X16299203Y18435968D01*
X16298400Y18381028D01*
X16296949Y18340448D01*
X16294660Y18311491D01*
X16291344Y18291417D01*
X16286813Y18277487D01*
X16280877Y18266963D01*
X16276222Y18260708D01*
X16245491Y18236135D01*
X16210204Y18233467D01*
X16177953Y18248537D01*
X16167296Y18257434D01*
X16160172Y18269251D01*
X16155875Y18288282D01*
X16153699Y18318816D01*
X16152936Y18365146D01*
X16152863Y18400937D01*
X16152863Y18535763D01*
X15656152Y18535763D01*
X15656152Y18413108D01*
X15655639Y18357021D01*
X15653584Y18318475D01*
X15649216Y18292447D01*
X15641764Y18273911D01*
X15632755Y18260708D01*
X15601852Y18236204D01*
X15566904Y18233302D01*
X15533446Y18250719D01*
X15524312Y18259849D01*
X15517860Y18271953D01*
X15513605Y18290807D01*
X15511060Y18320188D01*
X15509737Y18363871D01*
X15509151Y18425633D01*
X15509083Y18439808D01*
X15508599Y18556177D01*
X15508349Y18652081D01*
X15508431Y18729631D01*
X15508939Y18790939D01*
X15509970Y18838118D01*
X15511621Y18873278D01*
X15513987Y18898532D01*
X15517165Y18915991D01*
X15521252Y18927767D01*
X15526342Y18935973D01*
X15531974Y18942163D01*
X15563836Y18961964D01*
X15597065Y18959275D01*
X15628443Y18937032D01*
X15641141Y18922682D01*
X15649234Y18906830D01*
X15653750Y18884254D01*
X15655714Y18849730D01*
X15656152Y18798032D01*
X15656152Y18682519D01*
X16152863Y18682519D01*
X16152863Y18801052D01*
X16153370Y18855660D01*
X16155406Y18892533D01*
X16159743Y18916501D01*
X16167155Y18932393D01*
X16175441Y18942163D01*
X16207302Y18961964D01*
X16240531Y18959275D01*
G37*
X11030017Y18964533D02*
X11158996Y18960172D01*
X11268699Y18946947D01*
X11360934Y18924067D01*
X11437510Y18890738D01*
X11500235Y18846170D01*
X11550920Y18789572D01*
X11591371Y18720150D01*
X11592167Y18718457D01*
X11616309Y18656325D01*
X11624911Y18601299D01*
X11617939Y18545921D01*
X11595362Y18482735D01*
X11591080Y18473119D01*
X11561880Y18416842D01*
X11529064Y18373357D01*
X11486710Y18336391D01*
X11428898Y18299673D01*
X11425539Y18297756D01*
X11375212Y18273581D01*
X11318329Y18255526D01*
X11251235Y18242969D01*
X11170273Y18235286D01*
X11071790Y18231855D01*
X11036994Y18231557D01*
X10871302Y18230963D01*
X10847905Y18260708D01*
X10840965Y18270489D01*
X10835550Y18281911D01*
X10831473Y18297713D01*
X10828545Y18320633D01*
X10826575Y18353412D01*
X10825933Y18377719D01*
X10825376Y18398787D01*
X10824758Y18459497D01*
X10824533Y18538282D01*
X10824508Y18599888D01*
X10824508Y18817986D01*
X10982552Y18817986D01*
X10982552Y18377719D01*
X11076434Y18377719D01*
X11131372Y18379325D01*
X11187768Y18383553D01*
X11234053Y18389516D01*
X11236847Y18390018D01*
X11319056Y18412072D01*
X11382822Y18445208D01*
X11430160Y18490961D01*
X11463090Y18550869D01*
X11468816Y18566747D01*
X11474429Y18591475D01*
X11471999Y18615906D01*
X11460175Y18648408D01*
X11453048Y18664374D01*
X11429708Y18706802D01*
X11401588Y18736568D01*
X11370648Y18757297D01*
X11308674Y18784271D01*
X11229359Y18803810D01*
X11136961Y18815062D01*
X11070041Y18817538D01*
X10982552Y18817986D01*
X10824508Y18817986D01*
X10824508Y18909323D01*
X10852217Y18937032D01*
X10864514Y18948264D01*
X10877811Y18955955D01*
X10896380Y18960768D01*
X10924494Y18963362D01*
X10966425Y18964398D01*
X11026445Y18964538D01*
X11030017Y18964533D01*
G36*
X11030017Y18964533D02*
G01*
X11158996Y18960172D01*
X11268699Y18946947D01*
X11360934Y18924067D01*
X11437510Y18890738D01*
X11500235Y18846170D01*
X11550920Y18789572D01*
X11591371Y18720150D01*
X11592167Y18718457D01*
X11616309Y18656325D01*
X11624911Y18601299D01*
X11617939Y18545921D01*
X11595362Y18482735D01*
X11591080Y18473119D01*
X11561880Y18416842D01*
X11529064Y18373357D01*
X11486710Y18336391D01*
X11428898Y18299673D01*
X11425539Y18297756D01*
X11375212Y18273581D01*
X11318329Y18255526D01*
X11251235Y18242969D01*
X11170273Y18235286D01*
X11071790Y18231855D01*
X11036994Y18231557D01*
X10871302Y18230963D01*
X10847905Y18260708D01*
X10840965Y18270489D01*
X10835550Y18281911D01*
X10831473Y18297713D01*
X10828545Y18320633D01*
X10826575Y18353412D01*
X10825933Y18377719D01*
X10825376Y18398787D01*
X10824758Y18459497D01*
X10824533Y18538282D01*
X10824508Y18599888D01*
X10824508Y18817986D01*
X10982552Y18817986D01*
X10982552Y18377719D01*
X11076434Y18377719D01*
X11131372Y18379325D01*
X11187768Y18383553D01*
X11234053Y18389516D01*
X11236847Y18390018D01*
X11319056Y18412072D01*
X11382822Y18445208D01*
X11430160Y18490961D01*
X11463090Y18550869D01*
X11468816Y18566747D01*
X11474429Y18591475D01*
X11471999Y18615906D01*
X11460175Y18648408D01*
X11453048Y18664374D01*
X11429708Y18706802D01*
X11401588Y18736568D01*
X11370648Y18757297D01*
X11308674Y18784271D01*
X11229359Y18803810D01*
X11136961Y18815062D01*
X11070041Y18817538D01*
X10982552Y18817986D01*
X10824508Y18817986D01*
X10824508Y18909323D01*
X10852217Y18937032D01*
X10864514Y18948264D01*
X10877811Y18955955D01*
X10896380Y18960768D01*
X10924494Y18963362D01*
X10966425Y18964398D01*
X11026445Y18964538D01*
X11030017Y18964533D01*
G37*
X3890337Y18964742D02*
X3929819Y18964341D01*
X4045508Y18961549D01*
X4142397Y18953258D01*
X4223789Y18938576D01*
X4292985Y18916615D01*
X4353288Y18886486D01*
X4408000Y18847298D01*
X4427541Y18830276D01*
X4459958Y18790445D01*
X4489188Y18736395D01*
X4511717Y18676485D01*
X4524029Y18619069D01*
X4525308Y18597852D01*
X4517291Y18539039D01*
X4495809Y18474795D01*
X4464709Y18413987D01*
X4427842Y18365478D01*
X4421854Y18359626D01*
X4371129Y18318487D01*
X4315583Y18286373D01*
X4252012Y18262443D01*
X4177214Y18245855D01*
X4087986Y18235767D01*
X3981126Y18231339D01*
X3932180Y18230963D01*
X3869946Y18231263D01*
X3826180Y18232516D01*
X3796777Y18235254D01*
X3777629Y18240007D01*
X3764631Y18247307D01*
X3757663Y18253541D01*
X3751082Y18261114D01*
X3745920Y18270884D01*
X3742005Y18285468D01*
X3739165Y18307482D01*
X3737228Y18339544D01*
X3736200Y18377719D01*
X3881841Y18377719D01*
X3974974Y18377804D01*
X4031015Y18379412D01*
X4089709Y18383552D01*
X4138680Y18389344D01*
X4140170Y18389582D01*
X4219316Y18408718D01*
X4280706Y18438521D01*
X4327403Y18480930D01*
X4357073Y18526847D01*
X4375355Y18577782D01*
X4373937Y18625608D01*
X4352720Y18676875D01*
X4311219Y18729909D01*
X4253710Y18769208D01*
X4178958Y18795477D01*
X4129000Y18804773D01*
X4072292Y18811301D01*
X4012189Y18816026D01*
X3961069Y18817991D01*
X3958041Y18818000D01*
X3881841Y18817986D01*
X3881841Y18377719D01*
X3736200Y18377719D01*
X3736024Y18384272D01*
X3735380Y18444282D01*
X3735125Y18522191D01*
X3735086Y18597852D01*
X3734838Y18698767D01*
X3734891Y18779381D01*
X3735851Y18817986D01*
X3736448Y18841957D01*
X3740710Y18888753D01*
X3748878Y18922030D01*
X3762152Y18944049D01*
X3781734Y18957069D01*
X3808825Y18963351D01*
X3844626Y18965155D01*
X3890337Y18964742D01*
G36*
X3890337Y18964742D02*
G01*
X3929819Y18964341D01*
X4045508Y18961549D01*
X4142397Y18953258D01*
X4223789Y18938576D01*
X4292985Y18916615D01*
X4353288Y18886486D01*
X4408000Y18847298D01*
X4427541Y18830276D01*
X4459958Y18790445D01*
X4489188Y18736395D01*
X4511717Y18676485D01*
X4524029Y18619069D01*
X4525308Y18597852D01*
X4517291Y18539039D01*
X4495809Y18474795D01*
X4464709Y18413987D01*
X4427842Y18365478D01*
X4421854Y18359626D01*
X4371129Y18318487D01*
X4315583Y18286373D01*
X4252012Y18262443D01*
X4177214Y18245855D01*
X4087986Y18235767D01*
X3981126Y18231339D01*
X3932180Y18230963D01*
X3869946Y18231263D01*
X3826180Y18232516D01*
X3796777Y18235254D01*
X3777629Y18240007D01*
X3764631Y18247307D01*
X3757663Y18253541D01*
X3751082Y18261114D01*
X3745920Y18270884D01*
X3742005Y18285468D01*
X3739165Y18307482D01*
X3737228Y18339544D01*
X3736200Y18377719D01*
X3881841Y18377719D01*
X3974974Y18377804D01*
X4031015Y18379412D01*
X4089709Y18383552D01*
X4138680Y18389344D01*
X4140170Y18389582D01*
X4219316Y18408718D01*
X4280706Y18438521D01*
X4327403Y18480930D01*
X4357073Y18526847D01*
X4375355Y18577782D01*
X4373937Y18625608D01*
X4352720Y18676875D01*
X4311219Y18729909D01*
X4253710Y18769208D01*
X4178958Y18795477D01*
X4129000Y18804773D01*
X4072292Y18811301D01*
X4012189Y18816026D01*
X3961069Y18817991D01*
X3958041Y18818000D01*
X3881841Y18817986D01*
X3881841Y18377719D01*
X3736200Y18377719D01*
X3736024Y18384272D01*
X3735380Y18444282D01*
X3735125Y18522191D01*
X3735086Y18597852D01*
X3734838Y18698767D01*
X3734891Y18779381D01*
X3735851Y18817986D01*
X3736448Y18841957D01*
X3740710Y18888753D01*
X3748878Y18922030D01*
X3762152Y18944049D01*
X3781734Y18957069D01*
X3808825Y18963351D01*
X3844626Y18965155D01*
X3890337Y18964742D01*
G37*
X8711594Y18960360D02*
X8735160Y18946535D01*
X8765973Y18923927D01*
X8805630Y18891470D01*
X8855728Y18848100D01*
X8917865Y18792750D01*
X8993636Y18724357D01*
X9080374Y18645724D01*
X9260997Y18481930D01*
X9266641Y18701779D01*
X9268679Y18777457D01*
X9270645Y18833814D01*
X9272974Y18874102D01*
X9276102Y18901573D01*
X9280463Y18919479D01*
X9286492Y18931071D01*
X9294624Y18939600D01*
X9298936Y18943185D01*
X9333467Y18962138D01*
X9366325Y18959367D01*
X9392390Y18943175D01*
X9419041Y18921609D01*
X9422356Y18606657D01*
X9423273Y18514029D01*
X9423740Y18441264D01*
X9423595Y18385647D01*
X9422676Y18344466D01*
X9420821Y18315005D01*
X9417869Y18294553D01*
X9413658Y18280395D01*
X9408026Y18269817D01*
X9401781Y18261334D01*
X9388269Y18245601D01*
X9374825Y18235172D01*
X9359584Y18231169D01*
X9340682Y18234714D01*
X9316253Y18246929D01*
X9284435Y18268937D01*
X9243360Y18301859D01*
X9191166Y18346817D01*
X9125986Y18404933D01*
X9052152Y18471709D01*
X8786863Y18712350D01*
X8781219Y18493219D01*
X8779177Y18417680D01*
X8777206Y18361454D01*
X8774869Y18321284D01*
X8771727Y18293912D01*
X8767344Y18276080D01*
X8761284Y18264529D01*
X8753108Y18256001D01*
X8748924Y18252526D01*
X8711943Y18233436D01*
X8677000Y18236315D01*
X8646572Y18260708D01*
X8639611Y18270522D01*
X8634185Y18281982D01*
X8630105Y18297840D01*
X8627179Y18320845D01*
X8625216Y18353746D01*
X8624025Y18399292D01*
X8623416Y18460235D01*
X8623197Y18539322D01*
X8623174Y18597852D01*
X8623248Y18689401D01*
X8623595Y18761121D01*
X8624407Y18815763D01*
X8625875Y18856076D01*
X8628189Y18884810D01*
X8631541Y18904715D01*
X8636120Y18918540D01*
X8642119Y18929036D01*
X8646572Y18934997D01*
X8657858Y18949117D01*
X8668407Y18959779D01*
X8679815Y18965916D01*
X8693678Y18966465D01*
X8711594Y18960360D01*
G36*
X8711594Y18960360D02*
G01*
X8735160Y18946535D01*
X8765973Y18923927D01*
X8805630Y18891470D01*
X8855728Y18848100D01*
X8917865Y18792750D01*
X8993636Y18724357D01*
X9080374Y18645724D01*
X9260997Y18481930D01*
X9266641Y18701779D01*
X9268679Y18777457D01*
X9270645Y18833814D01*
X9272974Y18874102D01*
X9276102Y18901573D01*
X9280463Y18919479D01*
X9286492Y18931071D01*
X9294624Y18939600D01*
X9298936Y18943185D01*
X9333467Y18962138D01*
X9366325Y18959367D01*
X9392390Y18943175D01*
X9419041Y18921609D01*
X9422356Y18606657D01*
X9423273Y18514029D01*
X9423740Y18441264D01*
X9423595Y18385647D01*
X9422676Y18344466D01*
X9420821Y18315005D01*
X9417869Y18294553D01*
X9413658Y18280395D01*
X9408026Y18269817D01*
X9401781Y18261334D01*
X9388269Y18245601D01*
X9374825Y18235172D01*
X9359584Y18231169D01*
X9340682Y18234714D01*
X9316253Y18246929D01*
X9284435Y18268937D01*
X9243360Y18301859D01*
X9191166Y18346817D01*
X9125986Y18404933D01*
X9052152Y18471709D01*
X8786863Y18712350D01*
X8781219Y18493219D01*
X8779177Y18417680D01*
X8777206Y18361454D01*
X8774869Y18321284D01*
X8771727Y18293912D01*
X8767344Y18276080D01*
X8761284Y18264529D01*
X8753108Y18256001D01*
X8748924Y18252526D01*
X8711943Y18233436D01*
X8677000Y18236315D01*
X8646572Y18260708D01*
X8639611Y18270522D01*
X8634185Y18281982D01*
X8630105Y18297840D01*
X8627179Y18320845D01*
X8625216Y18353746D01*
X8624025Y18399292D01*
X8623416Y18460235D01*
X8623197Y18539322D01*
X8623174Y18597852D01*
X8623248Y18689401D01*
X8623595Y18761121D01*
X8624407Y18815763D01*
X8625875Y18856076D01*
X8628189Y18884810D01*
X8631541Y18904715D01*
X8636120Y18918540D01*
X8642119Y18929036D01*
X8646572Y18934997D01*
X8657858Y18949117D01*
X8668407Y18959779D01*
X8679815Y18965916D01*
X8693678Y18966465D01*
X8711594Y18960360D01*
G37*
X8061627Y18959209D02*
X8130143Y18947713D01*
X8182765Y18929841D01*
X8217000Y18906309D01*
X8226329Y18892884D01*
X8235815Y18861660D01*
X8229431Y18833413D01*
X8209278Y18806626D01*
X8177963Y18794095D01*
X8132525Y18795112D01*
X8097382Y18801902D01*
X8019289Y18814837D01*
X7939482Y18816066D01*
X7850153Y18805567D01*
X7825479Y18801118D01*
X7742417Y18777700D01*
X7677435Y18742863D01*
X7631247Y18697204D01*
X7604563Y18641314D01*
X7599045Y18612420D01*
X7602657Y18553796D01*
X7625979Y18501929D01*
X7666884Y18457830D01*
X7723249Y18422509D01*
X7792948Y18396979D01*
X7873856Y18382249D01*
X7963848Y18379330D01*
X8060798Y18389233D01*
X8066272Y18390167D01*
X8104833Y18397349D01*
X8126214Y18404287D01*
X8135481Y18414581D01*
X8137702Y18431832D01*
X8137752Y18440967D01*
X8137752Y18479319D01*
X8069277Y18479319D01*
X8008808Y18483461D01*
X7967543Y18496661D01*
X7943533Y18520078D01*
X7934831Y18554872D01*
X7934725Y18559414D01*
X7939816Y18589154D01*
X7957275Y18610389D01*
X7989769Y18624442D01*
X8039965Y18632635D01*
X8088585Y18635647D01*
X8159252Y18637375D01*
X8210510Y18634738D01*
X8245469Y18625008D01*
X8267238Y18605455D01*
X8278928Y18573352D01*
X8283648Y18525970D01*
X8284508Y18463737D01*
X8283099Y18394273D01*
X8278860Y18347022D01*
X8271772Y18321796D01*
X8270397Y18319820D01*
X8231480Y18288300D01*
X8174422Y18263338D01*
X8102839Y18245468D01*
X8020350Y18235222D01*
X7930569Y18233135D01*
X7837116Y18239740D01*
X7782152Y18247852D01*
X7695942Y18272254D01*
X7615816Y18312146D01*
X7548731Y18363921D01*
X7538535Y18374269D01*
X7505406Y18417773D01*
X7475514Y18471690D01*
X7452351Y18528216D01*
X7439410Y18579549D01*
X7437850Y18599264D01*
X7444490Y18640389D01*
X7462140Y18691556D01*
X7487411Y18745414D01*
X7516919Y18794613D01*
X7542989Y18827474D01*
X7603943Y18876356D01*
X7682739Y18915263D01*
X7776551Y18943314D01*
X7882558Y18959629D01*
X7979708Y18963616D01*
X8061627Y18959209D01*
G36*
X8061627Y18959209D02*
G01*
X8130143Y18947713D01*
X8182765Y18929841D01*
X8217000Y18906309D01*
X8226329Y18892884D01*
X8235815Y18861660D01*
X8229431Y18833413D01*
X8209278Y18806626D01*
X8177963Y18794095D01*
X8132525Y18795112D01*
X8097382Y18801902D01*
X8019289Y18814837D01*
X7939482Y18816066D01*
X7850153Y18805567D01*
X7825479Y18801118D01*
X7742417Y18777700D01*
X7677435Y18742863D01*
X7631247Y18697204D01*
X7604563Y18641314D01*
X7599045Y18612420D01*
X7602657Y18553796D01*
X7625979Y18501929D01*
X7666884Y18457830D01*
X7723249Y18422509D01*
X7792948Y18396979D01*
X7873856Y18382249D01*
X7963848Y18379330D01*
X8060798Y18389233D01*
X8066272Y18390167D01*
X8104833Y18397349D01*
X8126214Y18404287D01*
X8135481Y18414581D01*
X8137702Y18431832D01*
X8137752Y18440967D01*
X8137752Y18479319D01*
X8069277Y18479319D01*
X8008808Y18483461D01*
X7967543Y18496661D01*
X7943533Y18520078D01*
X7934831Y18554872D01*
X7934725Y18559414D01*
X7939816Y18589154D01*
X7957275Y18610389D01*
X7989769Y18624442D01*
X8039965Y18632635D01*
X8088585Y18635647D01*
X8159252Y18637375D01*
X8210510Y18634738D01*
X8245469Y18625008D01*
X8267238Y18605455D01*
X8278928Y18573352D01*
X8283648Y18525970D01*
X8284508Y18463737D01*
X8283099Y18394273D01*
X8278860Y18347022D01*
X8271772Y18321796D01*
X8270397Y18319820D01*
X8231480Y18288300D01*
X8174422Y18263338D01*
X8102839Y18245468D01*
X8020350Y18235222D01*
X7930569Y18233135D01*
X7837116Y18239740D01*
X7782152Y18247852D01*
X7695942Y18272254D01*
X7615816Y18312146D01*
X7548731Y18363921D01*
X7538535Y18374269D01*
X7505406Y18417773D01*
X7475514Y18471690D01*
X7452351Y18528216D01*
X7439410Y18579549D01*
X7437850Y18599264D01*
X7444490Y18640389D01*
X7462140Y18691556D01*
X7487411Y18745414D01*
X7516919Y18794613D01*
X7542989Y18827474D01*
X7603943Y18876356D01*
X7682739Y18915263D01*
X7776551Y18943314D01*
X7882558Y18959629D01*
X7979708Y18963616D01*
X8061627Y18959209D01*
G37*
X10242051Y18964548D02*
X10318409Y18963634D01*
X10376925Y18961497D01*
X10419963Y18957633D01*
X10449891Y18951541D01*
X10469076Y18942718D01*
X10479884Y18930662D01*
X10484681Y18914869D01*
X10485835Y18894838D01*
X10485841Y18892473D01*
X10484839Y18869816D01*
X10480104Y18852305D01*
X10469041Y18839234D01*
X10449056Y18829895D01*
X10417554Y18823581D01*
X10371940Y18819586D01*
X10309621Y18817202D01*
X10228001Y18815722D01*
X10202985Y18815394D01*
X9960908Y18812341D01*
X9957522Y18747430D01*
X9954137Y18682519D01*
X10122284Y18682519D01*
X10187974Y18682277D01*
X10234880Y18681252D01*
X10266791Y18678997D01*
X10287499Y18675066D01*
X10300792Y18669010D01*
X10310463Y18660384D01*
X10310525Y18660315D01*
X10328064Y18626696D01*
X10327430Y18590360D01*
X10309022Y18559385D01*
X10305379Y18556201D01*
X10292449Y18547996D01*
X10274732Y18542287D01*
X10248278Y18538646D01*
X10209140Y18536641D01*
X10153370Y18535844D01*
X10117702Y18535763D01*
X9955263Y18535763D01*
X9955263Y18377719D01*
X10201869Y18377719D01*
X10283288Y18377577D01*
X10345118Y18376994D01*
X10390345Y18375740D01*
X10421956Y18373581D01*
X10442939Y18370285D01*
X10456281Y18365619D01*
X10464969Y18359351D01*
X10467158Y18357075D01*
X10483322Y18325528D01*
X10484505Y18289640D01*
X10471244Y18258523D01*
X10460751Y18248537D01*
X10449837Y18243039D01*
X10432925Y18238786D01*
X10407341Y18235628D01*
X10370409Y18233416D01*
X10319454Y18232002D01*
X10251802Y18231236D01*
X10164777Y18230970D01*
X10145102Y18230963D01*
X10056619Y18231021D01*
X9987935Y18231341D01*
X9936272Y18232141D01*
X9898853Y18233641D01*
X9872898Y18236059D01*
X9855630Y18239614D01*
X9844270Y18244526D01*
X9836040Y18251013D01*
X9831525Y18255670D01*
X9824729Y18263919D01*
X9819420Y18274139D01*
X9815414Y18289008D01*
X9812529Y18311206D01*
X9810582Y18343415D01*
X9809389Y18388312D01*
X9808769Y18448580D01*
X9808537Y18526897D01*
X9808508Y18592814D01*
X9808579Y18685180D01*
X9808916Y18757691D01*
X9809706Y18813071D01*
X9811134Y18854043D01*
X9813387Y18883330D01*
X9816651Y18903655D01*
X9821112Y18917742D01*
X9826956Y18928313D01*
X9831905Y18934997D01*
X9855302Y18964741D01*
X10145482Y18964741D01*
X10242051Y18964548D01*
G36*
X10242051Y18964548D02*
G01*
X10318409Y18963634D01*
X10376925Y18961497D01*
X10419963Y18957633D01*
X10449891Y18951541D01*
X10469076Y18942718D01*
X10479884Y18930662D01*
X10484681Y18914869D01*
X10485835Y18894838D01*
X10485841Y18892473D01*
X10484839Y18869816D01*
X10480104Y18852305D01*
X10469041Y18839234D01*
X10449056Y18829895D01*
X10417554Y18823581D01*
X10371940Y18819586D01*
X10309621Y18817202D01*
X10228001Y18815722D01*
X10202985Y18815394D01*
X9960908Y18812341D01*
X9957522Y18747430D01*
X9954137Y18682519D01*
X10122284Y18682519D01*
X10187974Y18682277D01*
X10234880Y18681252D01*
X10266791Y18678997D01*
X10287499Y18675066D01*
X10300792Y18669010D01*
X10310463Y18660384D01*
X10310525Y18660315D01*
X10328064Y18626696D01*
X10327430Y18590360D01*
X10309022Y18559385D01*
X10305379Y18556201D01*
X10292449Y18547996D01*
X10274732Y18542287D01*
X10248278Y18538646D01*
X10209140Y18536641D01*
X10153370Y18535844D01*
X10117702Y18535763D01*
X9955263Y18535763D01*
X9955263Y18377719D01*
X10201869Y18377719D01*
X10283288Y18377577D01*
X10345118Y18376994D01*
X10390345Y18375740D01*
X10421956Y18373581D01*
X10442939Y18370285D01*
X10456281Y18365619D01*
X10464969Y18359351D01*
X10467158Y18357075D01*
X10483322Y18325528D01*
X10484505Y18289640D01*
X10471244Y18258523D01*
X10460751Y18248537D01*
X10449837Y18243039D01*
X10432925Y18238786D01*
X10407341Y18235628D01*
X10370409Y18233416D01*
X10319454Y18232002D01*
X10251802Y18231236D01*
X10164777Y18230970D01*
X10145102Y18230963D01*
X10056619Y18231021D01*
X9987935Y18231341D01*
X9936272Y18232141D01*
X9898853Y18233641D01*
X9872898Y18236059D01*
X9855630Y18239614D01*
X9844270Y18244526D01*
X9836040Y18251013D01*
X9831525Y18255670D01*
X9824729Y18263919D01*
X9819420Y18274139D01*
X9815414Y18289008D01*
X9812529Y18311206D01*
X9810582Y18343415D01*
X9809389Y18388312D01*
X9808769Y18448580D01*
X9808537Y18526897D01*
X9808508Y18592814D01*
X9808579Y18685180D01*
X9808916Y18757691D01*
X9809706Y18813071D01*
X9811134Y18854043D01*
X9813387Y18883330D01*
X9816651Y18903655D01*
X9821112Y18917742D01*
X9826956Y18928313D01*
X9831905Y18934997D01*
X9855302Y18964741D01*
X10145482Y18964741D01*
X10242051Y18964548D01*
G37*
X5298914Y18964662D02*
X5368322Y18964290D01*
X5420711Y18963423D01*
X5458861Y18961862D01*
X5485549Y18959405D01*
X5503555Y18955851D01*
X5515659Y18950998D01*
X5524639Y18944647D01*
X5527890Y18941724D01*
X5547665Y18910666D01*
X5551226Y18874980D01*
X5538217Y18843298D01*
X5532202Y18836895D01*
X5522473Y18830687D01*
X5506807Y18825898D01*
X5482300Y18822294D01*
X5446047Y18819644D01*
X5395143Y18817713D01*
X5326682Y18816269D01*
X5264091Y18815390D01*
X5016374Y18812341D01*
X5012989Y18747430D01*
X5009603Y18682519D01*
X5177750Y18682519D01*
X5250749Y18681889D01*
X5304191Y18679255D01*
X5341080Y18673499D01*
X5364420Y18663504D01*
X5377214Y18648152D01*
X5382466Y18626326D01*
X5383263Y18606070D01*
X5380785Y18581216D01*
X5371431Y18562902D01*
X5352325Y18550171D01*
X5320590Y18542067D01*
X5273349Y18537632D01*
X5207725Y18535909D01*
X5171907Y18535763D01*
X5010730Y18535763D01*
X5010730Y18377719D01*
X5259086Y18377719D01*
X5340495Y18377606D01*
X5402366Y18377096D01*
X5447740Y18375938D01*
X5479654Y18373878D01*
X5501149Y18370662D01*
X5515265Y18366036D01*
X5525040Y18359749D01*
X5530019Y18355141D01*
X5547098Y18328248D01*
X5552597Y18304341D01*
X5544745Y18275141D01*
X5530019Y18253541D01*
X5522162Y18246742D01*
X5512020Y18241462D01*
X5496864Y18237510D01*
X5473967Y18234695D01*
X5440599Y18232826D01*
X5394033Y18231710D01*
X5331541Y18231157D01*
X5250394Y18230975D01*
X5208286Y18230963D01*
X5118110Y18231043D01*
X5047784Y18231410D01*
X4994579Y18232256D01*
X4955768Y18233772D01*
X4928621Y18236149D01*
X4910410Y18239579D01*
X4898408Y18244254D01*
X4889886Y18250364D01*
X4886552Y18253541D01*
X4879953Y18261138D01*
X4874781Y18270938D01*
X4870862Y18285569D01*
X4868024Y18307656D01*
X4866093Y18339826D01*
X4864896Y18384705D01*
X4864260Y18444919D01*
X4864011Y18523095D01*
X4863974Y18595885D01*
X4864008Y18689101D01*
X4864243Y18762377D01*
X4864878Y18818350D01*
X4866114Y18859657D01*
X4868152Y18888936D01*
X4871191Y18908824D01*
X4875431Y18921958D01*
X4881073Y18930976D01*
X4888317Y18938515D01*
X4890102Y18940196D01*
X4898763Y18947636D01*
X4908826Y18953399D01*
X4923083Y18957696D01*
X4944325Y18960744D01*
X4975344Y18962757D01*
X5018931Y18963948D01*
X5077877Y18964533D01*
X5154974Y18964725D01*
X5209707Y18964741D01*
X5298914Y18964662D01*
G36*
X5298914Y18964662D02*
G01*
X5368322Y18964290D01*
X5420711Y18963423D01*
X5458861Y18961862D01*
X5485549Y18959405D01*
X5503555Y18955851D01*
X5515659Y18950998D01*
X5524639Y18944647D01*
X5527890Y18941724D01*
X5547665Y18910666D01*
X5551226Y18874980D01*
X5538217Y18843298D01*
X5532202Y18836895D01*
X5522473Y18830687D01*
X5506807Y18825898D01*
X5482300Y18822294D01*
X5446047Y18819644D01*
X5395143Y18817713D01*
X5326682Y18816269D01*
X5264091Y18815390D01*
X5016374Y18812341D01*
X5012989Y18747430D01*
X5009603Y18682519D01*
X5177750Y18682519D01*
X5250749Y18681889D01*
X5304191Y18679255D01*
X5341080Y18673499D01*
X5364420Y18663504D01*
X5377214Y18648152D01*
X5382466Y18626326D01*
X5383263Y18606070D01*
X5380785Y18581216D01*
X5371431Y18562902D01*
X5352325Y18550171D01*
X5320590Y18542067D01*
X5273349Y18537632D01*
X5207725Y18535909D01*
X5171907Y18535763D01*
X5010730Y18535763D01*
X5010730Y18377719D01*
X5259086Y18377719D01*
X5340495Y18377606D01*
X5402366Y18377096D01*
X5447740Y18375938D01*
X5479654Y18373878D01*
X5501149Y18370662D01*
X5515265Y18366036D01*
X5525040Y18359749D01*
X5530019Y18355141D01*
X5547098Y18328248D01*
X5552597Y18304341D01*
X5544745Y18275141D01*
X5530019Y18253541D01*
X5522162Y18246742D01*
X5512020Y18241462D01*
X5496864Y18237510D01*
X5473967Y18234695D01*
X5440599Y18232826D01*
X5394033Y18231710D01*
X5331541Y18231157D01*
X5250394Y18230975D01*
X5208286Y18230963D01*
X5118110Y18231043D01*
X5047784Y18231410D01*
X4994579Y18232256D01*
X4955768Y18233772D01*
X4928621Y18236149D01*
X4910410Y18239579D01*
X4898408Y18244254D01*
X4889886Y18250364D01*
X4886552Y18253541D01*
X4879953Y18261138D01*
X4874781Y18270938D01*
X4870862Y18285569D01*
X4868024Y18307656D01*
X4866093Y18339826D01*
X4864896Y18384705D01*
X4864260Y18444919D01*
X4864011Y18523095D01*
X4863974Y18595885D01*
X4864008Y18689101D01*
X4864243Y18762377D01*
X4864878Y18818350D01*
X4866114Y18859657D01*
X4868152Y18888936D01*
X4871191Y18908824D01*
X4875431Y18921958D01*
X4881073Y18930976D01*
X4888317Y18938515D01*
X4890102Y18940196D01*
X4898763Y18947636D01*
X4908826Y18953399D01*
X4923083Y18957696D01*
X4944325Y18960744D01*
X4975344Y18962757D01*
X5018931Y18963948D01*
X5077877Y18964533D01*
X5154974Y18964725D01*
X5209707Y18964741D01*
X5298914Y18964662D01*
G37*
X13756373Y18962774D02*
X13775963Y18955773D01*
X13776718Y18955431D01*
X13803321Y18935130D01*
X13817978Y18914247D01*
X13820846Y18904456D01*
X13820704Y18891447D01*
X13816669Y18872913D01*
X13807854Y18846551D01*
X13793377Y18810056D01*
X13772353Y18761121D01*
X13743896Y18697443D01*
X13707123Y18616715D01*
X13686883Y18572592D01*
X13650333Y18493823D01*
X13616023Y18421385D01*
X13585260Y18357928D01*
X13559356Y18306100D01*
X13539618Y18268549D01*
X13527358Y18247924D01*
X13524932Y18245075D01*
X13493891Y18232506D01*
X13458829Y18234189D01*
X13430708Y18249476D01*
X13429562Y18250719D01*
X13418376Y18267654D01*
X13399612Y18300638D01*
X13375583Y18345428D01*
X13348605Y18397776D01*
X13338909Y18417066D01*
X13265722Y18563658D01*
X13185948Y18404415D01*
X13157475Y18349393D01*
X13131058Y18301676D01*
X13108856Y18264915D01*
X13093027Y18242764D01*
X13087662Y18238067D01*
X13045965Y18231706D01*
X13011557Y18245075D01*
X13001436Y18259362D01*
X12983922Y18291116D01*
X12960443Y18337211D01*
X12932428Y18394523D01*
X12901307Y18459928D01*
X12868507Y18530301D01*
X12835458Y18602517D01*
X12803589Y18673453D01*
X12774327Y18739983D01*
X12749103Y18798982D01*
X12729344Y18847327D01*
X12716480Y18881893D01*
X12711939Y18899555D01*
X12711985Y18900195D01*
X12723034Y18922420D01*
X12745118Y18945055D01*
X12746418Y18946040D01*
X12773561Y18961383D01*
X12798666Y18961234D01*
X12808076Y18958342D01*
X12819542Y18952090D01*
X12831718Y18939794D01*
X12846065Y18918900D01*
X12864044Y18886859D01*
X12887115Y18841120D01*
X12916738Y18779131D01*
X12943453Y18721910D01*
X12974188Y18655582D01*
X13001729Y18595934D01*
X13024646Y18546083D01*
X13041506Y18509144D01*
X13050881Y18488235D01*
X13052248Y18484963D01*
X13058397Y18490311D01*
X13072530Y18512699D01*
X13092765Y18548862D01*
X13117223Y18595531D01*
X13126956Y18614786D01*
X13159925Y18679804D01*
X13185351Y18727154D01*
X13205320Y18759589D01*
X13221918Y18779862D01*
X13237232Y18790726D01*
X13253348Y18794933D01*
X13263851Y18795408D01*
X13282378Y18793766D01*
X13298612Y18786977D01*
X13314743Y18772242D01*
X13332959Y18746764D01*
X13355447Y18707747D01*
X13384397Y18652394D01*
X13400370Y18620905D01*
X13426278Y18570721D01*
X13448875Y18529104D01*
X13466166Y18499566D01*
X13476158Y18485619D01*
X13477517Y18485038D01*
X13483969Y18496015D01*
X13498416Y18524518D01*
X13519411Y18567564D01*
X13545505Y18622170D01*
X13575254Y18685354D01*
X13589888Y18716737D01*
X13627958Y18797730D01*
X13658613Y18860052D01*
X13683445Y18905737D01*
X13704045Y18936819D01*
X13722006Y18955330D01*
X13738918Y18963304D01*
X13756373Y18962774D01*
G36*
X13756373Y18962774D02*
G01*
X13775963Y18955773D01*
X13776718Y18955431D01*
X13803321Y18935130D01*
X13817978Y18914247D01*
X13820846Y18904456D01*
X13820704Y18891447D01*
X13816669Y18872913D01*
X13807854Y18846551D01*
X13793377Y18810056D01*
X13772353Y18761121D01*
X13743896Y18697443D01*
X13707123Y18616715D01*
X13686883Y18572592D01*
X13650333Y18493823D01*
X13616023Y18421385D01*
X13585260Y18357928D01*
X13559356Y18306100D01*
X13539618Y18268549D01*
X13527358Y18247924D01*
X13524932Y18245075D01*
X13493891Y18232506D01*
X13458829Y18234189D01*
X13430708Y18249476D01*
X13429562Y18250719D01*
X13418376Y18267654D01*
X13399612Y18300638D01*
X13375583Y18345428D01*
X13348605Y18397776D01*
X13338909Y18417066D01*
X13265722Y18563658D01*
X13185948Y18404415D01*
X13157475Y18349393D01*
X13131058Y18301676D01*
X13108856Y18264915D01*
X13093027Y18242764D01*
X13087662Y18238067D01*
X13045965Y18231706D01*
X13011557Y18245075D01*
X13001436Y18259362D01*
X12983922Y18291116D01*
X12960443Y18337211D01*
X12932428Y18394523D01*
X12901307Y18459928D01*
X12868507Y18530301D01*
X12835458Y18602517D01*
X12803589Y18673453D01*
X12774327Y18739983D01*
X12749103Y18798982D01*
X12729344Y18847327D01*
X12716480Y18881893D01*
X12711939Y18899555D01*
X12711985Y18900195D01*
X12723034Y18922420D01*
X12745118Y18945055D01*
X12746418Y18946040D01*
X12773561Y18961383D01*
X12798666Y18961234D01*
X12808076Y18958342D01*
X12819542Y18952090D01*
X12831718Y18939794D01*
X12846065Y18918900D01*
X12864044Y18886859D01*
X12887115Y18841120D01*
X12916738Y18779131D01*
X12943453Y18721910D01*
X12974188Y18655582D01*
X13001729Y18595934D01*
X13024646Y18546083D01*
X13041506Y18509144D01*
X13050881Y18488235D01*
X13052248Y18484963D01*
X13058397Y18490311D01*
X13072530Y18512699D01*
X13092765Y18548862D01*
X13117223Y18595531D01*
X13126956Y18614786D01*
X13159925Y18679804D01*
X13185351Y18727154D01*
X13205320Y18759589D01*
X13221918Y18779862D01*
X13237232Y18790726D01*
X13253348Y18794933D01*
X13263851Y18795408D01*
X13282378Y18793766D01*
X13298612Y18786977D01*
X13314743Y18772242D01*
X13332959Y18746764D01*
X13355447Y18707747D01*
X13384397Y18652394D01*
X13400370Y18620905D01*
X13426278Y18570721D01*
X13448875Y18529104D01*
X13466166Y18499566D01*
X13476158Y18485619D01*
X13477517Y18485038D01*
X13483969Y18496015D01*
X13498416Y18524518D01*
X13519411Y18567564D01*
X13545505Y18622170D01*
X13575254Y18685354D01*
X13589888Y18716737D01*
X13627958Y18797730D01*
X13658613Y18860052D01*
X13683445Y18905737D01*
X13704045Y18936819D01*
X13722006Y18955330D01*
X13738918Y18963304D01*
X13756373Y18962774D01*
G37*
X6320005Y18963457D02*
X6394820Y18958227D01*
X6464402Y18950058D01*
X6524706Y18939258D01*
X6571688Y18926135D01*
X6601302Y18910995D01*
X6605848Y18906539D01*
X6621654Y18871958D01*
X6616861Y18836457D01*
X6592344Y18806083D01*
X6591174Y18805212D01*
X6576754Y18795854D01*
X6561700Y18790932D01*
X6540703Y18790335D01*
X6508451Y18793947D01*
X6459635Y18801654D01*
X6455708Y18802303D01*
X6382969Y18811239D01*
X6304491Y18815647D01*
X6225781Y18815689D01*
X6152347Y18811529D01*
X6089697Y18803329D01*
X6043338Y18791251D01*
X6040292Y18790037D01*
X6006660Y18771193D01*
X5994844Y18752123D01*
X6004094Y18733369D01*
X6033661Y18715471D01*
X6082797Y18698971D01*
X6150751Y18684412D01*
X6196063Y18677402D01*
X6290252Y18663919D01*
X6365164Y18651594D01*
X6423991Y18639359D01*
X6469923Y18626147D01*
X6506153Y18610891D01*
X6535870Y18592523D01*
X6562266Y18569977D01*
X6583478Y18547837D01*
X6608643Y18516989D01*
X6621027Y18490463D01*
X6624900Y18457782D01*
X6625041Y18445813D01*
X6622132Y18406096D01*
X6610506Y18376549D01*
X6590385Y18350322D01*
X6549492Y18310232D01*
X6503891Y18279659D01*
X6450195Y18257605D01*
X6385016Y18243073D01*
X6304964Y18235067D01*
X6206651Y18232590D01*
X6190419Y18232631D01*
X6124859Y18233990D01*
X6059842Y18237078D01*
X6002456Y18241452D01*
X5959786Y18246668D01*
X5956336Y18247267D01*
X5913912Y18257317D01*
X5877928Y18270012D01*
X5857558Y18281618D01*
X5838601Y18312236D01*
X5837281Y18347890D01*
X5853623Y18379664D01*
X5857279Y18383257D01*
X5872393Y18393932D01*
X5891293Y18398532D01*
X5920546Y18397749D01*
X5956057Y18393681D01*
X5995738Y18390046D01*
X6051363Y18386980D01*
X6116302Y18384755D01*
X6183923Y18383644D01*
X6201708Y18383571D01*
X6269580Y18383844D01*
X6319254Y18385162D01*
X6355098Y18387981D01*
X6381484Y18392758D01*
X6402782Y18399951D01*
X6415582Y18405941D01*
X6443708Y18422575D01*
X6461640Y18437640D01*
X6464261Y18441911D01*
X6458732Y18459545D01*
X6432448Y18476616D01*
X6387230Y18492350D01*
X6324900Y18505970D01*
X6306537Y18509004D01*
X6210618Y18524070D01*
X6134067Y18536662D01*
X6073928Y18547697D01*
X6027248Y18558088D01*
X5991071Y18568752D01*
X5962443Y18580603D01*
X5938410Y18594557D01*
X5916016Y18611527D01*
X5892306Y18632430D01*
X5884328Y18639759D01*
X5856355Y18667109D01*
X5841548Y18688779D01*
X5835756Y18713576D01*
X5834819Y18744825D01*
X5845133Y18806103D01*
X5875956Y18858168D01*
X5927113Y18900850D01*
X5998425Y18933983D01*
X6049308Y18948844D01*
X6104608Y18958442D01*
X6170855Y18963872D01*
X6244002Y18965441D01*
X6320005Y18963457D01*
G36*
X6320005Y18963457D02*
G01*
X6394820Y18958227D01*
X6464402Y18950058D01*
X6524706Y18939258D01*
X6571688Y18926135D01*
X6601302Y18910995D01*
X6605848Y18906539D01*
X6621654Y18871958D01*
X6616861Y18836457D01*
X6592344Y18806083D01*
X6591174Y18805212D01*
X6576754Y18795854D01*
X6561700Y18790932D01*
X6540703Y18790335D01*
X6508451Y18793947D01*
X6459635Y18801654D01*
X6455708Y18802303D01*
X6382969Y18811239D01*
X6304491Y18815647D01*
X6225781Y18815689D01*
X6152347Y18811529D01*
X6089697Y18803329D01*
X6043338Y18791251D01*
X6040292Y18790037D01*
X6006660Y18771193D01*
X5994844Y18752123D01*
X6004094Y18733369D01*
X6033661Y18715471D01*
X6082797Y18698971D01*
X6150751Y18684412D01*
X6196063Y18677402D01*
X6290252Y18663919D01*
X6365164Y18651594D01*
X6423991Y18639359D01*
X6469923Y18626147D01*
X6506153Y18610891D01*
X6535870Y18592523D01*
X6562266Y18569977D01*
X6583478Y18547837D01*
X6608643Y18516989D01*
X6621027Y18490463D01*
X6624900Y18457782D01*
X6625041Y18445813D01*
X6622132Y18406096D01*
X6610506Y18376549D01*
X6590385Y18350322D01*
X6549492Y18310232D01*
X6503891Y18279659D01*
X6450195Y18257605D01*
X6385016Y18243073D01*
X6304964Y18235067D01*
X6206651Y18232590D01*
X6190419Y18232631D01*
X6124859Y18233990D01*
X6059842Y18237078D01*
X6002456Y18241452D01*
X5959786Y18246668D01*
X5956336Y18247267D01*
X5913912Y18257317D01*
X5877928Y18270012D01*
X5857558Y18281618D01*
X5838601Y18312236D01*
X5837281Y18347890D01*
X5853623Y18379664D01*
X5857279Y18383257D01*
X5872393Y18393932D01*
X5891293Y18398532D01*
X5920546Y18397749D01*
X5956057Y18393681D01*
X5995738Y18390046D01*
X6051363Y18386980D01*
X6116302Y18384755D01*
X6183923Y18383644D01*
X6201708Y18383571D01*
X6269580Y18383844D01*
X6319254Y18385162D01*
X6355098Y18387981D01*
X6381484Y18392758D01*
X6402782Y18399951D01*
X6415582Y18405941D01*
X6443708Y18422575D01*
X6461640Y18437640D01*
X6464261Y18441911D01*
X6458732Y18459545D01*
X6432448Y18476616D01*
X6387230Y18492350D01*
X6324900Y18505970D01*
X6306537Y18509004D01*
X6210618Y18524070D01*
X6134067Y18536662D01*
X6073928Y18547697D01*
X6027248Y18558088D01*
X5991071Y18568752D01*
X5962443Y18580603D01*
X5938410Y18594557D01*
X5916016Y18611527D01*
X5892306Y18632430D01*
X5884328Y18639759D01*
X5856355Y18667109D01*
X5841548Y18688779D01*
X5835756Y18713576D01*
X5834819Y18744825D01*
X5845133Y18806103D01*
X5875956Y18858168D01*
X5927113Y18900850D01*
X5998425Y18933983D01*
X6049308Y18948844D01*
X6104608Y18958442D01*
X6170855Y18963872D01*
X6244002Y18965441D01*
X6320005Y18963457D01*
G37*
X10439962Y24439501D02*
X10588014Y24423293D01*
X10731452Y24394282D01*
X10876110Y24350955D01*
X11027824Y24291799D01*
X11192428Y24215300D01*
X11222071Y24200483D01*
X11290098Y24166969D01*
X11354256Y24136792D01*
X11408215Y24112834D01*
X11445640Y24097976D01*
X11451389Y24096105D01*
X11506486Y24079598D01*
X11259851Y23720799D01*
X11199552Y23633107D01*
X11144422Y23552988D01*
X11096336Y23483164D01*
X11057168Y23426353D01*
X11028794Y23385277D01*
X11013087Y23362654D01*
X11010536Y23359072D01*
X11000171Y23366562D01*
X10974660Y23389082D01*
X10938563Y23422539D01*
X10918642Y23441450D01*
X10805773Y23531222D01*
X10679014Y23599439D01*
X10569783Y23636805D01*
X10504214Y23648540D01*
X10422116Y23655692D01*
X10333144Y23658126D01*
X10246956Y23655712D01*
X10173205Y23648317D01*
X10143776Y23642653D01*
X10011133Y23597018D01*
X9891606Y23527337D01*
X9785283Y23433740D01*
X9692253Y23316351D01*
X9612605Y23175300D01*
X9546426Y23010714D01*
X9493806Y22822720D01*
X9462533Y22661783D01*
X9454374Y22590737D01*
X9448815Y22498954D01*
X9445802Y22393032D01*
X9445281Y22279566D01*
X9447200Y22165151D01*
X9451503Y22056383D01*
X9458137Y21959857D01*
X9467049Y21882169D01*
X9468979Y21870183D01*
X9511499Y21677108D01*
X9569433Y21506227D01*
X9643133Y21356776D01*
X9732951Y21227989D01*
X9796707Y21158361D01*
X9911286Y21063827D01*
X10036942Y20993754D01*
X10171557Y20948523D01*
X10313011Y20928516D01*
X10459183Y20934115D01*
X10607955Y20965700D01*
X10695911Y20996606D01*
X10817629Y21058494D01*
X10943080Y21147271D01*
X11013353Y21207306D01*
X11052811Y21242053D01*
X11083812Y21267546D01*
X11101458Y21279830D01*
X11103648Y21280205D01*
X11111524Y21267653D01*
X11131932Y21234484D01*
X11163132Y21183542D01*
X11203386Y21117669D01*
X11250957Y21039711D01*
X11304104Y20952510D01*
X11333687Y20903933D01*
X11559648Y20532785D01*
X11277527Y20393361D01*
X11175522Y20343281D01*
X11092889Y20303790D01*
X11024578Y20272927D01*
X10965537Y20248732D01*
X10910714Y20229242D01*
X10855060Y20212497D01*
X10793523Y20196535D01*
X10734540Y20182518D01*
X10682115Y20171671D01*
X10627288Y20163474D01*
X10564572Y20157472D01*
X10488477Y20153210D01*
X10393516Y20150233D01*
X10329513Y20148948D01*
X10238192Y20148070D01*
X10150627Y20148513D01*
X10072612Y20150148D01*
X10009942Y20152851D01*
X9968413Y20156495D01*
X9965952Y20156858D01*
X9750303Y20203513D01*
X9547793Y20274271D01*
X9358495Y20369086D01*
X9182479Y20487911D01*
X9019816Y20630700D01*
X8870578Y20797406D01*
X8762496Y20945567D01*
X8647434Y21139498D01*
X8554423Y21344301D01*
X8483013Y21561617D01*
X8432756Y21793088D01*
X8403201Y22040357D01*
X8393889Y22291441D01*
X8401548Y22534330D01*
X8425613Y22758430D01*
X8466852Y22967523D01*
X8526027Y23165387D01*
X8603904Y23355804D01*
X8613203Y23375532D01*
X8715648Y23559941D01*
X8841472Y23735424D01*
X8987112Y23898350D01*
X9149001Y24045086D01*
X9323576Y24171999D01*
X9486244Y24265095D01*
X9650573Y24338009D01*
X9815251Y24390826D01*
X9986652Y24424985D01*
X10171153Y24441922D01*
X10281459Y24444420D01*
X10439962Y24439501D01*
G36*
X10439962Y24439501D02*
G01*
X10588014Y24423293D01*
X10731452Y24394282D01*
X10876110Y24350955D01*
X11027824Y24291799D01*
X11192428Y24215300D01*
X11222071Y24200483D01*
X11290098Y24166969D01*
X11354256Y24136792D01*
X11408215Y24112834D01*
X11445640Y24097976D01*
X11451389Y24096105D01*
X11506486Y24079598D01*
X11259851Y23720799D01*
X11199552Y23633107D01*
X11144422Y23552988D01*
X11096336Y23483164D01*
X11057168Y23426353D01*
X11028794Y23385277D01*
X11013087Y23362654D01*
X11010536Y23359072D01*
X11000171Y23366562D01*
X10974660Y23389082D01*
X10938563Y23422539D01*
X10918642Y23441450D01*
X10805773Y23531222D01*
X10679014Y23599439D01*
X10569783Y23636805D01*
X10504214Y23648540D01*
X10422116Y23655692D01*
X10333144Y23658126D01*
X10246956Y23655712D01*
X10173205Y23648317D01*
X10143776Y23642653D01*
X10011133Y23597018D01*
X9891606Y23527337D01*
X9785283Y23433740D01*
X9692253Y23316351D01*
X9612605Y23175300D01*
X9546426Y23010714D01*
X9493806Y22822720D01*
X9462533Y22661783D01*
X9454374Y22590737D01*
X9448815Y22498954D01*
X9445802Y22393032D01*
X9445281Y22279566D01*
X9447200Y22165151D01*
X9451503Y22056383D01*
X9458137Y21959857D01*
X9467049Y21882169D01*
X9468979Y21870183D01*
X9511499Y21677108D01*
X9569433Y21506227D01*
X9643133Y21356776D01*
X9732951Y21227989D01*
X9796707Y21158361D01*
X9911286Y21063827D01*
X10036942Y20993754D01*
X10171557Y20948523D01*
X10313011Y20928516D01*
X10459183Y20934115D01*
X10607955Y20965700D01*
X10695911Y20996606D01*
X10817629Y21058494D01*
X10943080Y21147271D01*
X11013353Y21207306D01*
X11052811Y21242053D01*
X11083812Y21267546D01*
X11101458Y21279830D01*
X11103648Y21280205D01*
X11111524Y21267653D01*
X11131932Y21234484D01*
X11163132Y21183542D01*
X11203386Y21117669D01*
X11250957Y21039711D01*
X11304104Y20952510D01*
X11333687Y20903933D01*
X11559648Y20532785D01*
X11277527Y20393361D01*
X11175522Y20343281D01*
X11092889Y20303790D01*
X11024578Y20272927D01*
X10965537Y20248732D01*
X10910714Y20229242D01*
X10855060Y20212497D01*
X10793523Y20196535D01*
X10734540Y20182518D01*
X10682115Y20171671D01*
X10627288Y20163474D01*
X10564572Y20157472D01*
X10488477Y20153210D01*
X10393516Y20150233D01*
X10329513Y20148948D01*
X10238192Y20148070D01*
X10150627Y20148513D01*
X10072612Y20150148D01*
X10009942Y20152851D01*
X9968413Y20156495D01*
X9965952Y20156858D01*
X9750303Y20203513D01*
X9547793Y20274271D01*
X9358495Y20369086D01*
X9182479Y20487911D01*
X9019816Y20630700D01*
X8870578Y20797406D01*
X8762496Y20945567D01*
X8647434Y21139498D01*
X8554423Y21344301D01*
X8483013Y21561617D01*
X8432756Y21793088D01*
X8403201Y22040357D01*
X8393889Y22291441D01*
X8401548Y22534330D01*
X8425613Y22758430D01*
X8466852Y22967523D01*
X8526027Y23165387D01*
X8603904Y23355804D01*
X8613203Y23375532D01*
X8715648Y23559941D01*
X8841472Y23735424D01*
X8987112Y23898350D01*
X9149001Y24045086D01*
X9323576Y24171999D01*
X9486244Y24265095D01*
X9650573Y24338009D01*
X9815251Y24390826D01*
X9986652Y24424985D01*
X10171153Y24441922D01*
X10281459Y24444420D01*
X10439962Y24439501D01*
G37*
X16842270Y24643175D02*
X16959041Y24642696D01*
X16998729Y24642455D01*
X17544486Y24638865D01*
X17551351Y22545081D01*
X17552258Y22261158D01*
X17553062Y22003360D01*
X17553815Y21770354D01*
X17554569Y21560806D01*
X17555375Y21373382D01*
X17556285Y21206750D01*
X17557351Y21059575D01*
X17558624Y20930523D01*
X17560156Y20818261D01*
X17561998Y20721456D01*
X17564203Y20638774D01*
X17566822Y20568881D01*
X17569906Y20510443D01*
X17573508Y20462128D01*
X17577678Y20422600D01*
X17582469Y20390527D01*
X17587931Y20364576D01*
X17594118Y20343411D01*
X17601080Y20325701D01*
X17608869Y20310111D01*
X17617537Y20295307D01*
X17627135Y20279956D01*
X17637715Y20262724D01*
X17639884Y20259054D01*
X17676268Y20196969D01*
X17150431Y20200566D01*
X16624594Y20204162D01*
X16617729Y20319669D01*
X16613992Y20375101D01*
X16610097Y20407149D01*
X16604811Y20419865D01*
X16596903Y20417304D01*
X16590270Y20409976D01*
X16561374Y20383286D01*
X16514279Y20348979D01*
X16455620Y20311154D01*
X16392031Y20273910D01*
X16330149Y20241347D01*
X16282634Y20219923D01*
X16171316Y20184717D01*
X16043596Y20159778D01*
X15908901Y20146059D01*
X15776663Y20144514D01*
X15656308Y20156094D01*
X15654326Y20156426D01*
X15489641Y20197750D01*
X15335479Y20263588D01*
X15193328Y20352526D01*
X15064675Y20463148D01*
X14951007Y20594039D01*
X14853810Y20743784D01*
X14774572Y20910967D01*
X14731430Y21034810D01*
X14702979Y21138419D01*
X14681880Y21238748D01*
X14667488Y21341891D01*
X14659158Y21453943D01*
X14656245Y21580999D01*
X14657535Y21684748D01*
X15670650Y21684748D01*
X15675444Y21510778D01*
X15690568Y21361105D01*
X15716485Y21234403D01*
X15753663Y21129342D01*
X15802565Y21044594D01*
X15863658Y20978831D01*
X15934177Y20932341D01*
X15970871Y20914986D01*
X16002696Y20904581D01*
X16038177Y20899821D01*
X16085841Y20899399D01*
X16137189Y20901252D01*
X16238169Y20910159D01*
X16318035Y20927602D01*
X16343135Y20936339D01*
X16400448Y20962143D01*
X16460897Y20994547D01*
X16487297Y21010767D01*
X16555946Y21055795D01*
X16555946Y22483018D01*
X16480432Y22528282D01*
X16375121Y22579428D01*
X16267525Y22609676D01*
X16161581Y22619205D01*
X16061224Y22608193D01*
X15970387Y22576819D01*
X15893007Y22525260D01*
X15868039Y22500512D01*
X15807856Y22419423D01*
X15759145Y22321266D01*
X15721499Y22204357D01*
X15694512Y22067015D01*
X15677775Y21907556D01*
X15670883Y21724300D01*
X15670650Y21684748D01*
X14657535Y21684748D01*
X14658073Y21727933D01*
X14669647Y21953947D01*
X14692920Y22157808D01*
X14728504Y22342487D01*
X14777013Y22510952D01*
X14839060Y22666174D01*
X14861201Y22712192D01*
X14950385Y22862261D01*
X15058159Y22995623D01*
X15181990Y23110123D01*
X15319342Y23203611D01*
X15467683Y23273932D01*
X15556604Y23302940D01*
X15643933Y23320160D01*
X15749011Y23330406D01*
X15863029Y23333682D01*
X15977177Y23329991D01*
X16082648Y23319340D01*
X16167334Y23302630D01*
X16268128Y23269860D01*
X16365822Y23227721D01*
X16451296Y23180481D01*
X16496789Y23148419D01*
X16528169Y23124578D01*
X16550142Y23110061D01*
X16555141Y23108000D01*
X16556690Y23121282D01*
X16558135Y23159337D01*
X16559443Y23219481D01*
X16560583Y23299027D01*
X16561521Y23395289D01*
X16562226Y23505581D01*
X16562667Y23627219D01*
X16562811Y23751115D01*
X16562730Y23909804D01*
X16562335Y24043592D01*
X16561395Y24155040D01*
X16559680Y24246705D01*
X16556957Y24321147D01*
X16552997Y24380925D01*
X16547569Y24428598D01*
X16540441Y24466726D01*
X16531384Y24497866D01*
X16520167Y24524579D01*
X16506558Y24549423D01*
X16490328Y24574957D01*
X16488240Y24578119D01*
X16467306Y24611190D01*
X16454667Y24633931D01*
X16452973Y24638728D01*
X16466216Y24640241D01*
X16504002Y24641472D01*
X16563416Y24642401D01*
X16641542Y24643008D01*
X16735465Y24643273D01*
X16842270Y24643175D01*
G36*
X16842270Y24643175D02*
G01*
X16959041Y24642696D01*
X16998729Y24642455D01*
X17544486Y24638865D01*
X17551351Y22545081D01*
X17552258Y22261158D01*
X17553062Y22003360D01*
X17553815Y21770354D01*
X17554569Y21560806D01*
X17555375Y21373382D01*
X17556285Y21206750D01*
X17557351Y21059575D01*
X17558624Y20930523D01*
X17560156Y20818261D01*
X17561998Y20721456D01*
X17564203Y20638774D01*
X17566822Y20568881D01*
X17569906Y20510443D01*
X17573508Y20462128D01*
X17577678Y20422600D01*
X17582469Y20390527D01*
X17587931Y20364576D01*
X17594118Y20343411D01*
X17601080Y20325701D01*
X17608869Y20310111D01*
X17617537Y20295307D01*
X17627135Y20279956D01*
X17637715Y20262724D01*
X17639884Y20259054D01*
X17676268Y20196969D01*
X17150431Y20200566D01*
X16624594Y20204162D01*
X16617729Y20319669D01*
X16613992Y20375101D01*
X16610097Y20407149D01*
X16604811Y20419865D01*
X16596903Y20417304D01*
X16590270Y20409976D01*
X16561374Y20383286D01*
X16514279Y20348979D01*
X16455620Y20311154D01*
X16392031Y20273910D01*
X16330149Y20241347D01*
X16282634Y20219923D01*
X16171316Y20184717D01*
X16043596Y20159778D01*
X15908901Y20146059D01*
X15776663Y20144514D01*
X15656308Y20156094D01*
X15654326Y20156426D01*
X15489641Y20197750D01*
X15335479Y20263588D01*
X15193328Y20352526D01*
X15064675Y20463148D01*
X14951007Y20594039D01*
X14853810Y20743784D01*
X14774572Y20910967D01*
X14731430Y21034810D01*
X14702979Y21138419D01*
X14681880Y21238748D01*
X14667488Y21341891D01*
X14659158Y21453943D01*
X14656245Y21580999D01*
X14657535Y21684748D01*
X15670650Y21684748D01*
X15675444Y21510778D01*
X15690568Y21361105D01*
X15716485Y21234403D01*
X15753663Y21129342D01*
X15802565Y21044594D01*
X15863658Y20978831D01*
X15934177Y20932341D01*
X15970871Y20914986D01*
X16002696Y20904581D01*
X16038177Y20899821D01*
X16085841Y20899399D01*
X16137189Y20901252D01*
X16238169Y20910159D01*
X16318035Y20927602D01*
X16343135Y20936339D01*
X16400448Y20962143D01*
X16460897Y20994547D01*
X16487297Y21010767D01*
X16555946Y21055795D01*
X16555946Y22483018D01*
X16480432Y22528282D01*
X16375121Y22579428D01*
X16267525Y22609676D01*
X16161581Y22619205D01*
X16061224Y22608193D01*
X15970387Y22576819D01*
X15893007Y22525260D01*
X15868039Y22500512D01*
X15807856Y22419423D01*
X15759145Y22321266D01*
X15721499Y22204357D01*
X15694512Y22067015D01*
X15677775Y21907556D01*
X15670883Y21724300D01*
X15670650Y21684748D01*
X14657535Y21684748D01*
X14658073Y21727933D01*
X14669647Y21953947D01*
X14692920Y22157808D01*
X14728504Y22342487D01*
X14777013Y22510952D01*
X14839060Y22666174D01*
X14861201Y22712192D01*
X14950385Y22862261D01*
X15058159Y22995623D01*
X15181990Y23110123D01*
X15319342Y23203611D01*
X15467683Y23273932D01*
X15556604Y23302940D01*
X15643933Y23320160D01*
X15749011Y23330406D01*
X15863029Y23333682D01*
X15977177Y23329991D01*
X16082648Y23319340D01*
X16167334Y23302630D01*
X16268128Y23269860D01*
X16365822Y23227721D01*
X16451296Y23180481D01*
X16496789Y23148419D01*
X16528169Y23124578D01*
X16550142Y23110061D01*
X16555141Y23108000D01*
X16556690Y23121282D01*
X16558135Y23159337D01*
X16559443Y23219481D01*
X16560583Y23299027D01*
X16561521Y23395289D01*
X16562226Y23505581D01*
X16562667Y23627219D01*
X16562811Y23751115D01*
X16562730Y23909804D01*
X16562335Y24043592D01*
X16561395Y24155040D01*
X16559680Y24246705D01*
X16556957Y24321147D01*
X16552997Y24380925D01*
X16547569Y24428598D01*
X16540441Y24466726D01*
X16531384Y24497866D01*
X16520167Y24524579D01*
X16506558Y24549423D01*
X16490328Y24574957D01*
X16488240Y24578119D01*
X16467306Y24611190D01*
X16454667Y24633931D01*
X16452973Y24638728D01*
X16466216Y24640241D01*
X16504002Y24641472D01*
X16563416Y24642401D01*
X16641542Y24643008D01*
X16735465Y24643273D01*
X16842270Y24643175D01*
G37*
X13167505Y23335771D02*
X13235531Y23330622D01*
X13430163Y23304727D01*
X13602529Y23263425D01*
X13753470Y23206147D01*
X13883825Y23132326D01*
X13994434Y23041392D01*
X14086135Y22932778D01*
X14159770Y22805915D01*
X14213539Y22668648D01*
X14227187Y22624863D01*
X14239073Y22583859D01*
X14249334Y22543431D01*
X14258113Y22501370D01*
X14265548Y22455469D01*
X14271780Y22403520D01*
X14276950Y22343315D01*
X14281196Y22272648D01*
X14284660Y22189311D01*
X14287481Y22091095D01*
X14289800Y21975795D01*
X14291757Y21841201D01*
X14293491Y21685107D01*
X14295143Y21505305D01*
X14296324Y21364324D01*
X14304270Y20396378D01*
X14355756Y20303230D01*
X14380137Y20258355D01*
X14398280Y20223499D01*
X14406935Y20204946D01*
X14407243Y20203689D01*
X14394014Y20202251D01*
X14356326Y20200926D01*
X14297183Y20199751D01*
X14219586Y20198763D01*
X14126536Y20198001D01*
X14021035Y20197500D01*
X13906084Y20197299D01*
X13892378Y20197297D01*
X13377513Y20197297D01*
X13377513Y20314000D01*
X13376635Y20366740D01*
X13374292Y20407074D01*
X13370921Y20428700D01*
X13369431Y20430702D01*
X13355804Y20422317D01*
X13327757Y20400308D01*
X13291303Y20369399D01*
X13290485Y20368684D01*
X13223962Y20319157D01*
X13139948Y20269425D01*
X13047937Y20224374D01*
X12957421Y20188890D01*
X12917567Y20176764D01*
X12838255Y20161363D01*
X12740935Y20151535D01*
X12634516Y20147420D01*
X12527907Y20149159D01*
X12430017Y20156892D01*
X12361513Y20168019D01*
X12193520Y20217352D01*
X12042281Y20287658D01*
X11908782Y20378067D01*
X11794006Y20487705D01*
X11698937Y20615701D01*
X11624560Y20761182D01*
X11592474Y20849459D01*
X11572365Y20935261D01*
X11559038Y21038264D01*
X11552872Y21148966D01*
X11553074Y21165075D01*
X12481648Y21165075D01*
X12489348Y21082816D01*
X12514989Y21014454D01*
X12562378Y20951030D01*
X12580579Y20932433D01*
X12645282Y20882154D01*
X12720066Y20849944D01*
X12809662Y20834352D01*
X12904012Y20833204D01*
X12993501Y20840784D01*
X13062018Y20855611D01*
X13091775Y20866747D01*
X13145408Y20897096D01*
X13202235Y20939779D01*
X13254082Y20987683D01*
X13292778Y21033699D01*
X13303054Y21050579D01*
X13311042Y21074218D01*
X13316721Y21111832D01*
X13320356Y21167015D01*
X13322211Y21243360D01*
X13322594Y21316019D01*
X13322335Y21400730D01*
X13321287Y21461982D01*
X13319045Y21503773D01*
X13315206Y21530101D01*
X13309365Y21544965D01*
X13301118Y21552361D01*
X13298567Y21553539D01*
X13276400Y21557167D01*
X13232680Y21560134D01*
X13173311Y21562173D01*
X13104196Y21563017D01*
X13089189Y21563018D01*
X12996805Y21561543D01*
X12925432Y21557158D01*
X12868719Y21549262D01*
X12821872Y21537730D01*
X12705669Y21493785D01*
X12614543Y21439757D01*
X12547705Y21374781D01*
X12504365Y21297995D01*
X12483734Y21208533D01*
X12481648Y21165075D01*
X11553074Y21165075D01*
X11554244Y21257867D01*
X11563532Y21355464D01*
X11570777Y21394895D01*
X11617039Y21541299D01*
X11687384Y21676005D01*
X11780484Y21797720D01*
X11895012Y21905153D01*
X12029640Y21997012D01*
X12183040Y22072004D01*
X12313459Y22117542D01*
X12400623Y22141467D01*
X12483996Y22160057D01*
X12568976Y22173916D01*
X12660965Y22183649D01*
X12765362Y22189859D01*
X12887568Y22193149D01*
X12998055Y22194076D01*
X13325677Y22194973D01*
X13319401Y22293453D01*
X13301579Y22400305D01*
X13263667Y22492148D01*
X13207280Y22566690D01*
X13134031Y22621636D01*
X13069535Y22648448D01*
X12977123Y22665346D01*
X12867111Y22667773D01*
X12744656Y22656622D01*
X12614914Y22632790D01*
X12483042Y22597170D01*
X12354198Y22550657D01*
X12260566Y22508117D01*
X12215517Y22486272D01*
X12181156Y22471016D01*
X12163681Y22465063D01*
X12162733Y22465254D01*
X12156703Y22478588D01*
X12141645Y22513932D01*
X12118977Y22567899D01*
X12090115Y22637104D01*
X12056477Y22718160D01*
X12022284Y22800882D01*
X11885586Y23132197D01*
X11982820Y23148167D01*
X12024964Y23156180D01*
X12088319Y23169639D01*
X12167457Y23187321D01*
X12256951Y23208004D01*
X12351373Y23230468D01*
X12388973Y23239597D01*
X12551637Y23277326D01*
X12694050Y23305612D01*
X12821527Y23325028D01*
X12939384Y23336146D01*
X13052938Y23339536D01*
X13167505Y23335771D01*
G36*
X13167505Y23335771D02*
G01*
X13235531Y23330622D01*
X13430163Y23304727D01*
X13602529Y23263425D01*
X13753470Y23206147D01*
X13883825Y23132326D01*
X13994434Y23041392D01*
X14086135Y22932778D01*
X14159770Y22805915D01*
X14213539Y22668648D01*
X14227187Y22624863D01*
X14239073Y22583859D01*
X14249334Y22543431D01*
X14258113Y22501370D01*
X14265548Y22455469D01*
X14271780Y22403520D01*
X14276950Y22343315D01*
X14281196Y22272648D01*
X14284660Y22189311D01*
X14287481Y22091095D01*
X14289800Y21975795D01*
X14291757Y21841201D01*
X14293491Y21685107D01*
X14295143Y21505305D01*
X14296324Y21364324D01*
X14304270Y20396378D01*
X14355756Y20303230D01*
X14380137Y20258355D01*
X14398280Y20223499D01*
X14406935Y20204946D01*
X14407243Y20203689D01*
X14394014Y20202251D01*
X14356326Y20200926D01*
X14297183Y20199751D01*
X14219586Y20198763D01*
X14126536Y20198001D01*
X14021035Y20197500D01*
X13906084Y20197299D01*
X13892378Y20197297D01*
X13377513Y20197297D01*
X13377513Y20314000D01*
X13376635Y20366740D01*
X13374292Y20407074D01*
X13370921Y20428700D01*
X13369431Y20430702D01*
X13355804Y20422317D01*
X13327757Y20400308D01*
X13291303Y20369399D01*
X13290485Y20368684D01*
X13223962Y20319157D01*
X13139948Y20269425D01*
X13047937Y20224374D01*
X12957421Y20188890D01*
X12917567Y20176764D01*
X12838255Y20161363D01*
X12740935Y20151535D01*
X12634516Y20147420D01*
X12527907Y20149159D01*
X12430017Y20156892D01*
X12361513Y20168019D01*
X12193520Y20217352D01*
X12042281Y20287658D01*
X11908782Y20378067D01*
X11794006Y20487705D01*
X11698937Y20615701D01*
X11624560Y20761182D01*
X11592474Y20849459D01*
X11572365Y20935261D01*
X11559038Y21038264D01*
X11552872Y21148966D01*
X11553074Y21165075D01*
X12481648Y21165075D01*
X12489348Y21082816D01*
X12514989Y21014454D01*
X12562378Y20951030D01*
X12580579Y20932433D01*
X12645282Y20882154D01*
X12720066Y20849944D01*
X12809662Y20834352D01*
X12904012Y20833204D01*
X12993501Y20840784D01*
X13062018Y20855611D01*
X13091775Y20866747D01*
X13145408Y20897096D01*
X13202235Y20939779D01*
X13254082Y20987683D01*
X13292778Y21033699D01*
X13303054Y21050579D01*
X13311042Y21074218D01*
X13316721Y21111832D01*
X13320356Y21167015D01*
X13322211Y21243360D01*
X13322594Y21316019D01*
X13322335Y21400730D01*
X13321287Y21461982D01*
X13319045Y21503773D01*
X13315206Y21530101D01*
X13309365Y21544965D01*
X13301118Y21552361D01*
X13298567Y21553539D01*
X13276400Y21557167D01*
X13232680Y21560134D01*
X13173311Y21562173D01*
X13104196Y21563017D01*
X13089189Y21563018D01*
X12996805Y21561543D01*
X12925432Y21557158D01*
X12868719Y21549262D01*
X12821872Y21537730D01*
X12705669Y21493785D01*
X12614543Y21439757D01*
X12547705Y21374781D01*
X12504365Y21297995D01*
X12483734Y21208533D01*
X12481648Y21165075D01*
X11553074Y21165075D01*
X11554244Y21257867D01*
X11563532Y21355464D01*
X11570777Y21394895D01*
X11617039Y21541299D01*
X11687384Y21676005D01*
X11780484Y21797720D01*
X11895012Y21905153D01*
X12029640Y21997012D01*
X12183040Y22072004D01*
X12313459Y22117542D01*
X12400623Y22141467D01*
X12483996Y22160057D01*
X12568976Y22173916D01*
X12660965Y22183649D01*
X12765362Y22189859D01*
X12887568Y22193149D01*
X12998055Y22194076D01*
X13325677Y22194973D01*
X13319401Y22293453D01*
X13301579Y22400305D01*
X13263667Y22492148D01*
X13207280Y22566690D01*
X13134031Y22621636D01*
X13069535Y22648448D01*
X12977123Y22665346D01*
X12867111Y22667773D01*
X12744656Y22656622D01*
X12614914Y22632790D01*
X12483042Y22597170D01*
X12354198Y22550657D01*
X12260566Y22508117D01*
X12215517Y22486272D01*
X12181156Y22471016D01*
X12163681Y22465063D01*
X12162733Y22465254D01*
X12156703Y22478588D01*
X12141645Y22513932D01*
X12118977Y22567899D01*
X12090115Y22637104D01*
X12056477Y22718160D01*
X12022284Y22800882D01*
X11885586Y23132197D01*
X11982820Y23148167D01*
X12024964Y23156180D01*
X12088319Y23169639D01*
X12167457Y23187321D01*
X12256951Y23208004D01*
X12351373Y23230468D01*
X12388973Y23239597D01*
X12551637Y23277326D01*
X12694050Y23305612D01*
X12821527Y23325028D01*
X12939384Y23336146D01*
X13052938Y23339536D01*
X13167505Y23335771D01*
G37*
X4044257Y25126311D02*
X4308780Y25126275D01*
X4431912Y25126270D01*
X6402811Y25126270D01*
X6402811Y25010090D01*
X6415211Y24868709D01*
X6452636Y24738316D01*
X6515423Y24618138D01*
X6603906Y24507398D01*
X6633843Y24477489D01*
X6741534Y24392652D01*
X6860275Y24330779D01*
X6986540Y24291841D01*
X7116803Y24275810D01*
X7247535Y24282658D01*
X7375212Y24312357D01*
X7496305Y24364880D01*
X7607288Y24440197D01*
X7657132Y24485637D01*
X7750017Y24597048D01*
X7818127Y24719565D01*
X7860871Y24851785D01*
X7877653Y24992308D01*
X7877876Y25006133D01*
X7878756Y25126266D01*
X7931557Y25126268D01*
X7978396Y25119911D01*
X8021183Y25104444D01*
X8024011Y25102846D01*
X8033675Y25097832D01*
X8042549Y25093927D01*
X8050665Y25089993D01*
X8058057Y25084894D01*
X8064755Y25077492D01*
X8070792Y25066649D01*
X8076199Y25051228D01*
X8081010Y25030091D01*
X8085255Y25002101D01*
X8088968Y24966121D01*
X8092179Y24921013D01*
X8094922Y24865640D01*
X8097228Y24798863D01*
X8099129Y24719547D01*
X8100658Y24626553D01*
X8101846Y24518743D01*
X8102726Y24394981D01*
X8103330Y24254129D01*
X8103689Y24095050D01*
X8103835Y23916605D01*
X8103802Y23717658D01*
X8103620Y23497071D01*
X8103323Y23253707D01*
X8102941Y22986428D01*
X8102508Y22694097D01*
X8102055Y22375576D01*
X8102002Y22336770D01*
X8101596Y22016218D01*
X8101251Y21721988D01*
X8100931Y21452944D01*
X8100600Y21207948D01*
X8100221Y20985863D01*
X8099757Y20785553D01*
X8099172Y20605881D01*
X8098430Y20445710D01*
X8097494Y20303902D01*
X8096327Y20179321D01*
X8094893Y20070830D01*
X8093156Y19977293D01*
X8091078Y19897571D01*
X8088624Y19830528D01*
X8085756Y19775027D01*
X8082439Y19729932D01*
X8078636Y19694105D01*
X8074310Y19666409D01*
X8069425Y19645707D01*
X8063945Y19630863D01*
X8057832Y19620740D01*
X8051050Y19614200D01*
X8043563Y19610107D01*
X8035334Y19607324D01*
X8026327Y19604713D01*
X8016505Y19601138D01*
X8014106Y19600050D01*
X8006565Y19597604D01*
X7993944Y19595358D01*
X7975141Y19593302D01*
X7949053Y19591428D01*
X7914578Y19589729D01*
X7870615Y19588197D01*
X7816061Y19586823D01*
X7749815Y19585600D01*
X7670774Y19584519D01*
X7577837Y19583573D01*
X7469901Y19582753D01*
X7345864Y19582053D01*
X7204624Y19581462D01*
X7045079Y19580975D01*
X6866128Y19580581D01*
X6666668Y19580275D01*
X6445596Y19580047D01*
X6201812Y19579890D01*
X5934213Y19579795D01*
X5641697Y19579755D01*
X5323161Y19579762D01*
X5219979Y19579772D01*
X4894377Y19579824D01*
X4595119Y19579909D01*
X4321091Y19580037D01*
X4071176Y19580215D01*
X3844260Y19580452D01*
X3639227Y19580758D01*
X3454962Y19581140D01*
X3290350Y19581608D01*
X3144275Y19582170D01*
X3015624Y19582835D01*
X2903279Y19583612D01*
X2806126Y19584509D01*
X2723050Y19585535D01*
X2652936Y19586699D01*
X2594668Y19588009D01*
X2547131Y19589475D01*
X2509210Y19591104D01*
X2479790Y19592907D01*
X2457755Y19594890D01*
X2441990Y19597064D01*
X2431380Y19599437D01*
X2425596Y19601609D01*
X2415316Y19605944D01*
X2405878Y19609141D01*
X2397245Y19612335D01*
X2389381Y19616662D01*
X2382252Y19623256D01*
X2375821Y19633253D01*
X2370053Y19647788D01*
X2364911Y19667997D01*
X2360360Y19695015D01*
X2356365Y19729977D01*
X2352889Y19774019D01*
X2349898Y19828276D01*
X2347354Y19893883D01*
X2345223Y19971976D01*
X2343468Y20063690D01*
X2342055Y20170160D01*
X2341685Y20211027D01*
X2708116Y20211027D01*
X4003266Y20211027D01*
X3978345Y20248783D01*
X3953553Y20287583D01*
X3932560Y20324531D01*
X3915065Y20362212D01*
X3900770Y20403212D01*
X3889377Y20450117D01*
X3880587Y20505513D01*
X3874102Y20571984D01*
X3869623Y20652117D01*
X3866850Y20748498D01*
X3865487Y20863711D01*
X3865233Y21000343D01*
X3865791Y21160980D01*
X3866107Y21220618D01*
X3869675Y21859959D01*
X4274702Y21308551D01*
X4389446Y21152124D01*
X4488857Y21015912D01*
X4574010Y20898110D01*
X4645978Y20796916D01*
X4705834Y20710523D01*
X4754652Y20637126D01*
X4793505Y20574923D01*
X4823466Y20522107D01*
X4845609Y20476875D01*
X4861007Y20437422D01*
X4870734Y20401942D01*
X4875863Y20368632D01*
X4877468Y20335687D01*
X4876621Y20301303D01*
X4876405Y20296981D01*
X4871946Y20210969D01*
X6291308Y20211027D01*
X6540627Y20211027D01*
X7146604Y20211027D01*
X7291266Y20211069D01*
X7410756Y20211259D01*
X7507358Y20211692D01*
X7583358Y20212464D01*
X7641043Y20213670D01*
X7682699Y20215406D01*
X7710611Y20217768D01*
X7727065Y20220850D01*
X7734348Y20224749D01*
X7734745Y20229560D01*
X7730542Y20235378D01*
X7730499Y20235426D01*
X7713187Y20260468D01*
X7690264Y20301185D01*
X7670019Y20341832D01*
X7631621Y20423838D01*
X7623789Y23272756D01*
X6540627Y23272756D01*
X6591854Y23180081D01*
X6643081Y23087405D01*
X6643081Y20396378D01*
X6591854Y20303702D01*
X6540627Y20211027D01*
X6291308Y20211027D01*
X6185735Y20317478D01*
X6157087Y20346594D01*
X6129910Y20374924D01*
X6103011Y20404032D01*
X6075197Y20435480D01*
X6045275Y20470831D01*
X6012054Y20511646D01*
X5974339Y20559489D01*
X5930940Y20615921D01*
X5880662Y20682506D01*
X5822312Y20760805D01*
X5754700Y20852381D01*
X5676631Y20958796D01*
X5586912Y21081613D01*
X5484352Y21222395D01*
X5367758Y21382703D01*
X5272191Y21514202D01*
X5152251Y21679404D01*
X5047620Y21823848D01*
X4957352Y21948906D01*
X4880497Y22055948D01*
X4816109Y22146346D01*
X4763239Y22221471D01*
X4720940Y22282696D01*
X4688264Y22331390D01*
X4664262Y22368926D01*
X4647987Y22396675D01*
X4638492Y22416008D01*
X4634827Y22428297D01*
X4635929Y22434758D01*
X4649276Y22451952D01*
X4678134Y22488345D01*
X4720760Y22541776D01*
X4775415Y22610081D01*
X4840356Y22691097D01*
X4913842Y22782660D01*
X4994132Y22882608D01*
X5079485Y22988776D01*
X5168160Y23099003D01*
X5258414Y23211124D01*
X5308056Y23272756D01*
X5348507Y23322976D01*
X5436698Y23432396D01*
X5521246Y23537222D01*
X5600408Y23635289D01*
X5672444Y23724434D01*
X5735613Y23802495D01*
X5788173Y23867308D01*
X5828383Y23916710D01*
X5852000Y23945513D01*
X5943710Y24053222D01*
X6031940Y24150420D01*
X6113597Y24233924D01*
X6185590Y24300552D01*
X6236681Y24341401D01*
X6297093Y24384865D01*
X4907702Y24384865D01*
X4908092Y24303334D01*
X4904209Y24243394D01*
X4889610Y24187823D01*
X4867012Y24135145D01*
X4852322Y24105385D01*
X4836528Y24075897D01*
X4818186Y24044724D01*
X4795855Y24009907D01*
X4768091Y23969490D01*
X4733451Y23921514D01*
X4690493Y23864022D01*
X4637773Y23795057D01*
X4573849Y23712661D01*
X4497279Y23614876D01*
X4406619Y23499745D01*
X4300426Y23365310D01*
X4288432Y23350141D01*
X3869675Y22820588D01*
X3865622Y23407078D01*
X3864805Y23582749D01*
X3864979Y23731468D01*
X3866151Y23853725D01*
X3868331Y23950011D01*
X3871526Y24020817D01*
X3875744Y24066631D01*
X3877162Y24075321D01*
X3899409Y24166865D01*
X3928557Y24249392D01*
X3961818Y24315747D01*
X3981800Y24343890D01*
X4016278Y24384865D01*
X3362086Y24384865D01*
X3206031Y24384731D01*
X3075533Y24384297D01*
X2968690Y24383511D01*
X2883602Y24382324D01*
X2818365Y24380683D01*
X2771079Y24378539D01*
X2739843Y24375841D01*
X2722754Y24372538D01*
X2717912Y24368579D01*
X2718247Y24367702D01*
X2732115Y24346769D01*
X2755268Y24313588D01*
X2767246Y24296807D01*
X2779631Y24280060D01*
X2790763Y24265085D01*
X2800712Y24250406D01*
X2809549Y24234551D01*
X2817343Y24216045D01*
X2824165Y24193415D01*
X2830084Y24165187D01*
X2835171Y24129887D01*
X2839496Y24086042D01*
X2843129Y24032178D01*
X2846140Y23966820D01*
X2848599Y23888496D01*
X2850577Y23795732D01*
X2852142Y23687053D01*
X2853366Y23560987D01*
X2854319Y23416058D01*
X2855070Y23250794D01*
X2855689Y23063721D01*
X2856248Y22853365D01*
X2856815Y22618252D01*
X2857345Y22402259D01*
X2857845Y22161465D01*
X2858105Y21931726D01*
X2858132Y21714507D01*
X2857933Y21511278D01*
X2857514Y21323504D01*
X2856882Y21152655D01*
X2856044Y21000197D01*
X2855008Y20867597D01*
X2853780Y20756324D01*
X2852367Y20667844D01*
X2850775Y20603625D01*
X2849013Y20565135D01*
X2848679Y20561067D01*
X2836534Y20467752D01*
X2817573Y20392810D01*
X2788698Y20327406D01*
X2746810Y20262707D01*
X2741571Y20255648D01*
X2708116Y20211027D01*
X2341685Y20211027D01*
X2340946Y20292521D01*
X2340107Y20431910D01*
X2339502Y20589461D01*
X2339095Y20766309D01*
X2338850Y20963590D01*
X2338733Y21182440D01*
X2338705Y21423993D01*
X2338733Y21689385D01*
X2338780Y21979751D01*
X2338810Y22296227D01*
X2338811Y22359054D01*
X2338828Y22678863D01*
X2338888Y22972339D01*
X2338998Y23240610D01*
X2339167Y23484802D01*
X2339403Y23706043D01*
X2339716Y23905460D01*
X2340115Y24084180D01*
X2340607Y24243329D01*
X2341203Y24384034D01*
X2341910Y24507424D01*
X2342737Y24614624D01*
X2343693Y24706762D01*
X2344787Y24784965D01*
X2346027Y24850359D01*
X2347422Y24904072D01*
X2348982Y24947231D01*
X2350714Y24980963D01*
X2352628Y25006395D01*
X2354732Y25024653D01*
X2357034Y25036866D01*
X2359545Y25044159D01*
X2359637Y25044341D01*
X2364808Y25055482D01*
X2369115Y25065569D01*
X2373879Y25074654D01*
X2380422Y25082788D01*
X2390065Y25090024D01*
X2404129Y25096414D01*
X2423937Y25102011D01*
X2450809Y25106867D01*
X2486067Y25111034D01*
X2531032Y25114564D01*
X2587026Y25117509D01*
X2655371Y25119923D01*
X2737386Y25121856D01*
X2834395Y25123362D01*
X2947718Y25124492D01*
X3078677Y25125298D01*
X3228593Y25125834D01*
X3398787Y25126151D01*
X3590582Y25126301D01*
X3805298Y25126337D01*
X4044257Y25126311D01*
G36*
X4044257Y25126311D02*
G01*
X4308780Y25126275D01*
X4431912Y25126270D01*
X6402811Y25126270D01*
X6402811Y25010090D01*
X6415211Y24868709D01*
X6452636Y24738316D01*
X6515423Y24618138D01*
X6603906Y24507398D01*
X6633843Y24477489D01*
X6741534Y24392652D01*
X6860275Y24330779D01*
X6986540Y24291841D01*
X7116803Y24275810D01*
X7247535Y24282658D01*
X7375212Y24312357D01*
X7496305Y24364880D01*
X7607288Y24440197D01*
X7657132Y24485637D01*
X7750017Y24597048D01*
X7818127Y24719565D01*
X7860871Y24851785D01*
X7877653Y24992308D01*
X7877876Y25006133D01*
X7878756Y25126266D01*
X7931557Y25126268D01*
X7978396Y25119911D01*
X8021183Y25104444D01*
X8024011Y25102846D01*
X8033675Y25097832D01*
X8042549Y25093927D01*
X8050665Y25089993D01*
X8058057Y25084894D01*
X8064755Y25077492D01*
X8070792Y25066649D01*
X8076199Y25051228D01*
X8081010Y25030091D01*
X8085255Y25002101D01*
X8088968Y24966121D01*
X8092179Y24921013D01*
X8094922Y24865640D01*
X8097228Y24798863D01*
X8099129Y24719547D01*
X8100658Y24626553D01*
X8101846Y24518743D01*
X8102726Y24394981D01*
X8103330Y24254129D01*
X8103689Y24095050D01*
X8103835Y23916605D01*
X8103802Y23717658D01*
X8103620Y23497071D01*
X8103323Y23253707D01*
X8102941Y22986428D01*
X8102508Y22694097D01*
X8102055Y22375576D01*
X8102002Y22336770D01*
X8101596Y22016218D01*
X8101251Y21721988D01*
X8100931Y21452944D01*
X8100600Y21207948D01*
X8100221Y20985863D01*
X8099757Y20785553D01*
X8099172Y20605881D01*
X8098430Y20445710D01*
X8097494Y20303902D01*
X8096327Y20179321D01*
X8094893Y20070830D01*
X8093156Y19977293D01*
X8091078Y19897571D01*
X8088624Y19830528D01*
X8085756Y19775027D01*
X8082439Y19729932D01*
X8078636Y19694105D01*
X8074310Y19666409D01*
X8069425Y19645707D01*
X8063945Y19630863D01*
X8057832Y19620740D01*
X8051050Y19614200D01*
X8043563Y19610107D01*
X8035334Y19607324D01*
X8026327Y19604713D01*
X8016505Y19601138D01*
X8014106Y19600050D01*
X8006565Y19597604D01*
X7993944Y19595358D01*
X7975141Y19593302D01*
X7949053Y19591428D01*
X7914578Y19589729D01*
X7870615Y19588197D01*
X7816061Y19586823D01*
X7749815Y19585600D01*
X7670774Y19584519D01*
X7577837Y19583573D01*
X7469901Y19582753D01*
X7345864Y19582053D01*
X7204624Y19581462D01*
X7045079Y19580975D01*
X6866128Y19580581D01*
X6666668Y19580275D01*
X6445596Y19580047D01*
X6201812Y19579890D01*
X5934213Y19579795D01*
X5641697Y19579755D01*
X5323161Y19579762D01*
X5219979Y19579772D01*
X4894377Y19579824D01*
X4595119Y19579909D01*
X4321091Y19580037D01*
X4071176Y19580215D01*
X3844260Y19580452D01*
X3639227Y19580758D01*
X3454962Y19581140D01*
X3290350Y19581608D01*
X3144275Y19582170D01*
X3015624Y19582835D01*
X2903279Y19583612D01*
X2806126Y19584509D01*
X2723050Y19585535D01*
X2652936Y19586699D01*
X2594668Y19588009D01*
X2547131Y19589475D01*
X2509210Y19591104D01*
X2479790Y19592907D01*
X2457755Y19594890D01*
X2441990Y19597064D01*
X2431380Y19599437D01*
X2425596Y19601609D01*
X2415316Y19605944D01*
X2405878Y19609141D01*
X2397245Y19612335D01*
X2389381Y19616662D01*
X2382252Y19623256D01*
X2375821Y19633253D01*
X2370053Y19647788D01*
X2364911Y19667997D01*
X2360360Y19695015D01*
X2356365Y19729977D01*
X2352889Y19774019D01*
X2349898Y19828276D01*
X2347354Y19893883D01*
X2345223Y19971976D01*
X2343468Y20063690D01*
X2342055Y20170160D01*
X2341685Y20211027D01*
X2708116Y20211027D01*
X4003266Y20211027D01*
X3978345Y20248783D01*
X3953553Y20287583D01*
X3932560Y20324531D01*
X3915065Y20362212D01*
X3900770Y20403212D01*
X3889377Y20450117D01*
X3880587Y20505513D01*
X3874102Y20571984D01*
X3869623Y20652117D01*
X3866850Y20748498D01*
X3865487Y20863711D01*
X3865233Y21000343D01*
X3865791Y21160980D01*
X3866107Y21220618D01*
X3869675Y21859959D01*
X4274702Y21308551D01*
X4389446Y21152124D01*
X4488857Y21015912D01*
X4574010Y20898110D01*
X4645978Y20796916D01*
X4705834Y20710523D01*
X4754652Y20637126D01*
X4793505Y20574923D01*
X4823466Y20522107D01*
X4845609Y20476875D01*
X4861007Y20437422D01*
X4870734Y20401942D01*
X4875863Y20368632D01*
X4877468Y20335687D01*
X4876621Y20301303D01*
X4876405Y20296981D01*
X4871946Y20210969D01*
X6291308Y20211027D01*
X6540627Y20211027D01*
X7146604Y20211027D01*
X7291266Y20211069D01*
X7410756Y20211259D01*
X7507358Y20211692D01*
X7583358Y20212464D01*
X7641043Y20213670D01*
X7682699Y20215406D01*
X7710611Y20217768D01*
X7727065Y20220850D01*
X7734348Y20224749D01*
X7734745Y20229560D01*
X7730542Y20235378D01*
X7730499Y20235426D01*
X7713187Y20260468D01*
X7690264Y20301185D01*
X7670019Y20341832D01*
X7631621Y20423838D01*
X7623789Y23272756D01*
X6540627Y23272756D01*
X6591854Y23180081D01*
X6643081Y23087405D01*
X6643081Y20396378D01*
X6591854Y20303702D01*
X6540627Y20211027D01*
X6291308Y20211027D01*
X6185735Y20317478D01*
X6157087Y20346594D01*
X6129910Y20374924D01*
X6103011Y20404032D01*
X6075197Y20435480D01*
X6045275Y20470831D01*
X6012054Y20511646D01*
X5974339Y20559489D01*
X5930940Y20615921D01*
X5880662Y20682506D01*
X5822312Y20760805D01*
X5754700Y20852381D01*
X5676631Y20958796D01*
X5586912Y21081613D01*
X5484352Y21222395D01*
X5367758Y21382703D01*
X5272191Y21514202D01*
X5152251Y21679404D01*
X5047620Y21823848D01*
X4957352Y21948906D01*
X4880497Y22055948D01*
X4816109Y22146346D01*
X4763239Y22221471D01*
X4720940Y22282696D01*
X4688264Y22331390D01*
X4664262Y22368926D01*
X4647987Y22396675D01*
X4638492Y22416008D01*
X4634827Y22428297D01*
X4635929Y22434758D01*
X4649276Y22451952D01*
X4678134Y22488345D01*
X4720760Y22541776D01*
X4775415Y22610081D01*
X4840356Y22691097D01*
X4913842Y22782660D01*
X4994132Y22882608D01*
X5079485Y22988776D01*
X5168160Y23099003D01*
X5258414Y23211124D01*
X5308056Y23272756D01*
X5348507Y23322976D01*
X5436698Y23432396D01*
X5521246Y23537222D01*
X5600408Y23635289D01*
X5672444Y23724434D01*
X5735613Y23802495D01*
X5788173Y23867308D01*
X5828383Y23916710D01*
X5852000Y23945513D01*
X5943710Y24053222D01*
X6031940Y24150420D01*
X6113597Y24233924D01*
X6185590Y24300552D01*
X6236681Y24341401D01*
X6297093Y24384865D01*
X4907702Y24384865D01*
X4908092Y24303334D01*
X4904209Y24243394D01*
X4889610Y24187823D01*
X4867012Y24135145D01*
X4852322Y24105385D01*
X4836528Y24075897D01*
X4818186Y24044724D01*
X4795855Y24009907D01*
X4768091Y23969490D01*
X4733451Y23921514D01*
X4690493Y23864022D01*
X4637773Y23795057D01*
X4573849Y23712661D01*
X4497279Y23614876D01*
X4406619Y23499745D01*
X4300426Y23365310D01*
X4288432Y23350141D01*
X3869675Y22820588D01*
X3865622Y23407078D01*
X3864805Y23582749D01*
X3864979Y23731468D01*
X3866151Y23853725D01*
X3868331Y23950011D01*
X3871526Y24020817D01*
X3875744Y24066631D01*
X3877162Y24075321D01*
X3899409Y24166865D01*
X3928557Y24249392D01*
X3961818Y24315747D01*
X3981800Y24343890D01*
X4016278Y24384865D01*
X3362086Y24384865D01*
X3206031Y24384731D01*
X3075533Y24384297D01*
X2968690Y24383511D01*
X2883602Y24382324D01*
X2818365Y24380683D01*
X2771079Y24378539D01*
X2739843Y24375841D01*
X2722754Y24372538D01*
X2717912Y24368579D01*
X2718247Y24367702D01*
X2732115Y24346769D01*
X2755268Y24313588D01*
X2767246Y24296807D01*
X2779631Y24280060D01*
X2790763Y24265085D01*
X2800712Y24250406D01*
X2809549Y24234551D01*
X2817343Y24216045D01*
X2824165Y24193415D01*
X2830084Y24165187D01*
X2835171Y24129887D01*
X2839496Y24086042D01*
X2843129Y24032178D01*
X2846140Y23966820D01*
X2848599Y23888496D01*
X2850577Y23795732D01*
X2852142Y23687053D01*
X2853366Y23560987D01*
X2854319Y23416058D01*
X2855070Y23250794D01*
X2855689Y23063721D01*
X2856248Y22853365D01*
X2856815Y22618252D01*
X2857345Y22402259D01*
X2857845Y22161465D01*
X2858105Y21931726D01*
X2858132Y21714507D01*
X2857933Y21511278D01*
X2857514Y21323504D01*
X2856882Y21152655D01*
X2856044Y21000197D01*
X2855008Y20867597D01*
X2853780Y20756324D01*
X2852367Y20667844D01*
X2850775Y20603625D01*
X2849013Y20565135D01*
X2848679Y20561067D01*
X2836534Y20467752D01*
X2817573Y20392810D01*
X2788698Y20327406D01*
X2746810Y20262707D01*
X2741571Y20255648D01*
X2708116Y20211027D01*
X2341685Y20211027D01*
X2340946Y20292521D01*
X2340107Y20431910D01*
X2339502Y20589461D01*
X2339095Y20766309D01*
X2338850Y20963590D01*
X2338733Y21182440D01*
X2338705Y21423993D01*
X2338733Y21689385D01*
X2338780Y21979751D01*
X2338810Y22296227D01*
X2338811Y22359054D01*
X2338828Y22678863D01*
X2338888Y22972339D01*
X2338998Y23240610D01*
X2339167Y23484802D01*
X2339403Y23706043D01*
X2339716Y23905460D01*
X2340115Y24084180D01*
X2340607Y24243329D01*
X2341203Y24384034D01*
X2341910Y24507424D01*
X2342737Y24614624D01*
X2343693Y24706762D01*
X2344787Y24784965D01*
X2346027Y24850359D01*
X2347422Y24904072D01*
X2348982Y24947231D01*
X2350714Y24980963D01*
X2352628Y25006395D01*
X2354732Y25024653D01*
X2357034Y25036866D01*
X2359545Y25044159D01*
X2359637Y25044341D01*
X2364808Y25055482D01*
X2369115Y25065569D01*
X2373879Y25074654D01*
X2380422Y25082788D01*
X2390065Y25090024D01*
X2404129Y25096414D01*
X2423937Y25102011D01*
X2450809Y25106867D01*
X2486067Y25111034D01*
X2531032Y25114564D01*
X2587026Y25117509D01*
X2655371Y25119923D01*
X2737386Y25121856D01*
X2834395Y25123362D01*
X2947718Y25124492D01*
X3078677Y25125298D01*
X3228593Y25125834D01*
X3398787Y25126151D01*
X3590582Y25126301D01*
X3805298Y25126337D01*
X4044257Y25126311D01*
G37*
D12*
%TO.C,J2*%
X14518800Y64372800D02*
X14518800Y62688341D01*
X14518800Y56811659D02*
X14518800Y55127200D01*
X14518800Y55127200D02*
X15001908Y55127200D01*
X15001908Y64372800D02*
X14518800Y64372800D01*
X18054988Y55127200D02*
X18481200Y55127200D01*
X18481200Y64372800D02*
X18054988Y64372800D01*
X18481200Y55127200D02*
X18481200Y64372800D01*
D11*
%TO.C,TP2*%
X18300000Y67200000D02*
G75*
G02*
X16900000Y67200000I-700000J0D01*
G01*
X16900000Y67200000D02*
G75*
G02*
X18300000Y67200000I700000J0D01*
G01*
D15*
%TO.C,kibuzzard-652F2D51*%
G36*
X1787960Y44177940D02*
G01*
X1457231Y44177940D01*
X1300069Y44177940D01*
X42769Y44177940D01*
X-287960Y44177940D01*
X-287960Y44508669D01*
X42769Y44508669D01*
X673006Y44508669D01*
X809531Y44508669D01*
X985744Y44508669D01*
X985744Y45161131D01*
X1044746Y45052211D01*
X1101102Y44943467D01*
X1154812Y44834900D01*
X1205877Y44726333D01*
X1254296Y44617589D01*
X1300069Y44508669D01*
X1457231Y44508669D01*
X1457231Y45491331D01*
X1281019Y45491331D01*
X1281019Y44886494D01*
X1253039Y44948406D01*
X1219900Y45019844D01*
X1182594Y45097234D01*
X1142113Y45177006D01*
X1099448Y45258167D01*
X1055594Y45339725D01*
X1011144Y45418505D01*
X966694Y45491331D01*
X809531Y45491331D01*
X809531Y44508669D01*
X673006Y44508669D01*
X673006Y44670594D01*
X238031Y44670594D01*
X238031Y44946819D01*
X585694Y44946819D01*
X585694Y45108744D01*
X238031Y45108744D01*
X238031Y45329406D01*
X638081Y45329406D01*
X638081Y45491331D01*
X42769Y45491331D01*
X42769Y44508669D01*
X-287960Y44508669D01*
X-287960Y45822060D01*
X42769Y45822060D01*
X1457231Y45822060D01*
X1787960Y45822060D01*
X1787960Y44177940D01*
G37*
%TO.C,kibuzzard-652F0EDE*%
G36*
X15374875Y10234763D02*
G01*
X14878781Y10234763D01*
X14312044Y10234763D01*
X13076175Y10234763D01*
X11930794Y10234763D01*
X11521219Y10234763D01*
X11025125Y10234763D01*
X11025125Y10811819D01*
X11521219Y10811819D01*
X11595038Y10785625D01*
X11698622Y10759431D01*
X11815303Y10739191D01*
X11930794Y10730856D01*
X12068311Y10739488D01*
X12185588Y10765384D01*
X12283219Y10807056D01*
X12361800Y10863016D01*
X12464194Y11011844D01*
X12497531Y11199963D01*
X12481755Y11319620D01*
X12434428Y11421419D01*
X12358526Y11502977D01*
X12257025Y11561913D01*
X12390375Y11685738D01*
X12440381Y11854806D01*
X12435826Y11881000D01*
X12647550Y11881000D01*
X12698226Y11715280D01*
X12750241Y11556257D01*
X12803596Y11403931D01*
X12858291Y11258303D01*
X12931713Y11076667D01*
X13004341Y10911170D01*
X13076175Y10761813D01*
X13321444Y10761813D01*
X13345893Y10811819D01*
X13902469Y10811819D01*
X13976288Y10785625D01*
X14079872Y10759431D01*
X14196553Y10739191D01*
X14312044Y10730856D01*
X14449561Y10739488D01*
X14566838Y10765384D01*
X14664469Y10807056D01*
X14743050Y10863016D01*
X14845444Y11011844D01*
X14878781Y11199963D01*
X14863005Y11319620D01*
X14815678Y11421419D01*
X14739776Y11502977D01*
X14638275Y11561913D01*
X14771625Y11685738D01*
X14821631Y11854806D01*
X14793056Y12019113D01*
X14704950Y12151272D01*
X14553741Y12238188D01*
X14454026Y12261405D01*
X14338238Y12269144D01*
X14211734Y12258130D01*
X14098922Y12225091D01*
X13928663Y12138175D01*
X14033438Y11923863D01*
X14175122Y11991728D01*
X14340619Y12019113D01*
X14475159Y11972678D01*
X14523975Y11845281D01*
X14501353Y11754794D01*
X14443013Y11697644D01*
X14362050Y11666688D01*
X14271563Y11657163D01*
X14162025Y11657163D01*
X14162025Y11414275D01*
X14252513Y11414275D01*
X14382886Y11402666D01*
X14488256Y11367841D01*
X14557908Y11303845D01*
X14581125Y11204725D01*
X14520403Y11045181D01*
X14437357Y10996961D01*
X14309663Y10980888D01*
X14196851Y10987436D01*
X14101303Y11007081D01*
X13959619Y11057088D01*
X13902469Y10811819D01*
X13345893Y10811819D01*
X13394469Y10911170D01*
X13470669Y11076667D01*
X13550044Y11258303D01*
X13609426Y11403931D01*
X13666130Y11556257D01*
X13720154Y11715280D01*
X13771500Y11881000D01*
X13473844Y11881000D01*
X13449138Y11787536D01*
X13417884Y11688119D01*
X13382761Y11585427D01*
X13346447Y11482141D01*
X13309240Y11380045D01*
X13271438Y11280925D01*
X13202381Y11102331D01*
X13136897Y11280925D01*
X13102666Y11380045D01*
X13069031Y11482141D01*
X13036587Y11585427D01*
X13005928Y11688119D01*
X12978246Y11787536D01*
X12954731Y11881000D01*
X12647550Y11881000D01*
X12435826Y11881000D01*
X12411806Y12019113D01*
X12323700Y12151272D01*
X12172491Y12238188D01*
X12072776Y12261405D01*
X11956988Y12269144D01*
X11830484Y12258130D01*
X11717672Y12225091D01*
X11547413Y12138175D01*
X11652188Y11923863D01*
X11793872Y11991728D01*
X11959369Y12019113D01*
X12093909Y11972678D01*
X12142725Y11845281D01*
X12120103Y11754794D01*
X12061763Y11697644D01*
X11980800Y11666688D01*
X11890313Y11657163D01*
X11780775Y11657163D01*
X11780775Y11414275D01*
X11871263Y11414275D01*
X12001636Y11402666D01*
X12107006Y11367841D01*
X12176658Y11303845D01*
X12199875Y11204725D01*
X12139153Y11045181D01*
X12056107Y10996961D01*
X11928413Y10980888D01*
X11815601Y10987436D01*
X11720053Y11007081D01*
X11578369Y11057088D01*
X11521219Y10811819D01*
X11025125Y10811819D01*
X11025125Y12765238D01*
X11521219Y12765238D01*
X14878781Y12765238D01*
X15374875Y12765238D01*
X15374875Y10234763D01*
G37*
D11*
%TO.C,C11*%
X7184420Y10385000D02*
X7465580Y10385000D01*
X7184420Y9365000D02*
X7465580Y9365000D01*
%TO.C,D7*%
X11265000Y4250000D02*
X11265000Y3450000D01*
X12625000Y4250000D02*
X11265000Y4250000D01*
X12625000Y3450000D02*
X11265000Y3450000D01*
%TO.C,R12*%
X8227500Y68487258D02*
X8227500Y68012742D01*
X9272500Y68487258D02*
X9272500Y68012742D01*
%TO.C,R14*%
X6477500Y68449758D02*
X6477500Y67975242D01*
X7522500Y68449758D02*
X7522500Y67975242D01*
%TO.C,R10*%
X8762742Y60772500D02*
X9237258Y60772500D01*
X8762742Y59727500D02*
X9237258Y59727500D01*
%TO.C,R1*%
X6162258Y47272500D02*
X5687742Y47272500D01*
X6162258Y46227500D02*
X5687742Y46227500D01*
%TO.C,R20*%
X9977500Y6137742D02*
X9977500Y6612258D01*
X11022500Y6137742D02*
X11022500Y6612258D01*
%TO.C,D2*%
X840000Y8925000D02*
X840000Y6640000D01*
X840000Y6640000D02*
X2310000Y6640000D01*
X2310000Y6640000D02*
X2310000Y8925000D01*
%TO.C,C10*%
X4315000Y6234420D02*
X4315000Y6515580D01*
X5335000Y6234420D02*
X5335000Y6515580D01*
%TO.C,R5*%
X-2162742Y65022500D02*
X-2637258Y65022500D01*
X-2162742Y63977500D02*
X-2637258Y63977500D01*
%TO.C,J1*%
X24865000Y52210000D02*
X24865000Y51260000D01*
X24865000Y48690000D02*
X24175000Y48690000D01*
X24865000Y47740000D02*
X24865000Y48690000D01*
X25815000Y52210000D02*
X24865000Y52210000D01*
X25815000Y47740000D02*
X24865000Y47740000D01*
X28785000Y48110000D02*
X28785000Y51840000D01*
%TO.C,R6*%
X762742Y65022500D02*
X1237258Y65022500D01*
X762742Y63977500D02*
X1237258Y63977500D01*
%TO.C,R16*%
X11077500Y64162258D02*
X11077500Y63687742D01*
X12122500Y64162258D02*
X12122500Y63687742D01*
D15*
%TO.C,kibuzzard-652F0FC5*%
G36*
X19614288Y53495263D02*
G01*
X19639688Y53396837D01*
X19661119Y53299206D01*
X19680169Y53197606D01*
X19488081Y53197606D01*
X19507925Y53299206D01*
X19530150Y53396837D01*
X19555550Y53495263D01*
X19584919Y53600831D01*
X19614288Y53495263D01*
G37*
G36*
X21034835Y52477940D02*
G01*
X20704106Y52477940D01*
X20546944Y52477940D01*
X19759544Y52477940D01*
X18495894Y52477940D01*
X18165165Y52477940D01*
X18165165Y52808669D01*
X18495894Y52808669D01*
X18691156Y52808669D01*
X19203919Y52808669D01*
X19407119Y52808669D01*
X19451569Y53035681D01*
X19713506Y53035681D01*
X19759544Y52808669D01*
X19969094Y52808669D01*
X20056406Y52808669D01*
X20232619Y52808669D01*
X20232619Y53461131D01*
X20291621Y53352211D01*
X20347977Y53243467D01*
X20401687Y53134900D01*
X20452752Y53026333D01*
X20501171Y52917589D01*
X20546944Y52808669D01*
X20704106Y52808669D01*
X20704106Y53791331D01*
X20527894Y53791331D01*
X20527894Y53186494D01*
X20499914Y53248406D01*
X20466775Y53319844D01*
X20429469Y53397234D01*
X20388988Y53477006D01*
X20346323Y53558167D01*
X20302469Y53639725D01*
X20258019Y53718505D01*
X20213569Y53791331D01*
X20056406Y53791331D01*
X20056406Y52808669D01*
X19969094Y52808669D01*
X19942900Y52920079D01*
X19916389Y53028252D01*
X19889560Y53133185D01*
X19862414Y53234881D01*
X19834950Y53333338D01*
X19800372Y53452747D01*
X19765695Y53568883D01*
X19730919Y53681744D01*
X19696044Y53791331D01*
X19483319Y53791331D01*
X19449684Y53682637D01*
X19415453Y53570867D01*
X19380627Y53456021D01*
X19345206Y53338100D01*
X19316695Y53240469D01*
X19288310Y53138710D01*
X19260053Y53032824D01*
X19231922Y52922810D01*
X19203919Y52808669D01*
X18691156Y52808669D01*
X18691156Y53229356D01*
X19046756Y53229356D01*
X19046756Y53391281D01*
X18691156Y53391281D01*
X18691156Y53629406D01*
X19097556Y53629406D01*
X19097556Y53791331D01*
X18495894Y53791331D01*
X18495894Y52808669D01*
X18165165Y52808669D01*
X18165165Y54122060D01*
X18495894Y54122060D01*
X20704106Y54122060D01*
X21034835Y54122060D01*
X21034835Y52477940D01*
G37*
D11*
%TO.C,C5*%
X15240580Y45272500D02*
X14959420Y45272500D01*
X15240580Y44252500D02*
X14959420Y44252500D01*
%TO.C,SW1*%
X-850000Y47750000D02*
X-850000Y47650000D01*
X-850000Y46150000D02*
X3550000Y46150000D01*
X3550000Y49250000D02*
X-850000Y49250000D01*
X3550000Y47750000D02*
X3550000Y47650000D01*
D10*
%TO.C,U1*%
X14725000Y50800000D02*
X13225000Y50800000D01*
X16225000Y53050000D02*
X13225000Y53050000D01*
D15*
%TO.C,kibuzzard-652F50CA*%
G36*
X11254919Y28755562D02*
G01*
X11299369Y28719844D01*
X11324769Y28669838D01*
X11332706Y28611894D01*
X11034256Y28611894D01*
X11047750Y28670631D01*
X11076325Y28721431D01*
X11122362Y28756356D01*
X11188244Y28769056D01*
X11254919Y28755562D01*
G37*
G36*
X874653Y28982178D02*
G01*
X929819Y28954794D01*
X965537Y28907963D01*
X977444Y28840494D01*
X932994Y28730163D01*
X874653Y28700992D01*
X788531Y28691269D01*
X745669Y28691269D01*
X745669Y28986544D01*
X777419Y28990513D01*
X804406Y28991306D01*
X874653Y28982178D01*
G37*
G36*
X1725355Y28747427D02*
G01*
X1771987Y28701588D01*
X1798777Y28630745D01*
X1807706Y28540456D01*
X1797983Y28449969D01*
X1768812Y28378531D01*
X1720592Y28332097D01*
X1653719Y28316619D01*
X1585258Y28332097D01*
X1538625Y28378531D01*
X1511836Y28449969D01*
X1502906Y28540456D01*
X1512630Y28630745D01*
X1541800Y28701588D01*
X1590020Y28747427D01*
X1656894Y28762706D01*
X1725355Y28747427D01*
G37*
G36*
X2519105Y28747427D02*
G01*
X2565737Y28701588D01*
X2592527Y28630745D01*
X2601456Y28540456D01*
X2591733Y28449969D01*
X2562562Y28378531D01*
X2514342Y28332097D01*
X2447469Y28316619D01*
X2379008Y28332097D01*
X2332375Y28378531D01*
X2305586Y28449969D01*
X2296656Y28540456D01*
X2306380Y28630745D01*
X2335550Y28701588D01*
X2383770Y28747427D01*
X2450644Y28762706D01*
X2519105Y28747427D01*
G37*
G36*
X8869105Y28747427D02*
G01*
X8915737Y28701588D01*
X8942527Y28630745D01*
X8951456Y28540456D01*
X8941733Y28449969D01*
X8912562Y28378531D01*
X8864342Y28332097D01*
X8797469Y28316619D01*
X8729008Y28332097D01*
X8682375Y28378531D01*
X8655586Y28449969D01*
X8646656Y28540456D01*
X8656380Y28630745D01*
X8685550Y28701588D01*
X8733770Y28747427D01*
X8800644Y28762706D01*
X8869105Y28747427D01*
G37*
G36*
X15219105Y28747427D02*
G01*
X15265738Y28701588D01*
X15292527Y28630745D01*
X15301456Y28540456D01*
X15291733Y28449969D01*
X15262563Y28378531D01*
X15214342Y28332097D01*
X15147469Y28316619D01*
X15079008Y28332097D01*
X15032375Y28378531D01*
X15005586Y28449969D01*
X14996656Y28540456D01*
X15006380Y28630745D01*
X15035550Y28701588D01*
X15083770Y28747427D01*
X15150644Y28762706D01*
X15219105Y28747427D01*
G37*
G36*
X18394105Y28747427D02*
G01*
X18440738Y28701588D01*
X18467527Y28630745D01*
X18476456Y28540456D01*
X18466733Y28449969D01*
X18437563Y28378531D01*
X18389342Y28332097D01*
X18322469Y28316619D01*
X18254008Y28332097D01*
X18207375Y28378531D01*
X18180586Y28449969D01*
X18171656Y28540456D01*
X18181380Y28630745D01*
X18210550Y28701588D01*
X18258770Y28747427D01*
X18325644Y28762706D01*
X18394105Y28747427D01*
G37*
G36*
X19780323Y27816027D02*
G01*
X19449594Y27816027D01*
X19059069Y27816027D01*
X18325644Y27816027D01*
X17644606Y27816027D01*
X16869906Y27816027D01*
X16246019Y27816027D01*
X15150644Y27816027D01*
X14715669Y27816027D01*
X12882106Y27816027D01*
X12277269Y27816027D01*
X11242219Y27816027D01*
X10737394Y27816027D01*
X9896019Y27816027D01*
X8800644Y27816027D01*
X7946569Y27816027D01*
X7344906Y27816027D01*
X6328906Y27816027D01*
X5927269Y27816027D01*
X4533444Y27816027D01*
X3593644Y27816027D01*
X2450644Y27816027D01*
X1656894Y27816027D01*
X1240969Y27816027D01*
X550406Y27816027D01*
X219677Y27816027D01*
X219677Y29135769D01*
X550406Y29135769D01*
X550406Y28167394D01*
X745669Y28167394D01*
X745669Y28529344D01*
X847269Y28529344D01*
X901045Y28439452D01*
X951250Y28350750D01*
X996692Y28260858D01*
X1036181Y28167394D01*
X1240969Y28167394D01*
X1195725Y28271375D01*
X1140956Y28380913D01*
X1082219Y28485688D01*
X1046935Y28542044D01*
X1304469Y28542044D01*
X1310819Y28457311D01*
X1329869Y28380913D01*
X1360627Y28313642D01*
X1402100Y28256294D01*
X1453297Y28209859D01*
X1513225Y28175331D01*
X1581289Y28153900D01*
X1656894Y28146756D01*
X1732498Y28153900D01*
X1800562Y28175331D01*
X1860292Y28209859D01*
X1910894Y28256294D01*
X1951772Y28313642D01*
X1982331Y28380913D01*
X2001381Y28457311D01*
X2007731Y28542044D01*
X2098219Y28542044D01*
X2104569Y28457311D01*
X2123619Y28380913D01*
X2154377Y28313642D01*
X2195850Y28256294D01*
X2247047Y28209859D01*
X2306975Y28175331D01*
X2375039Y28153900D01*
X2450644Y28146756D01*
X2526248Y28153900D01*
X2594312Y28175331D01*
X2654042Y28209859D01*
X2704644Y28256294D01*
X2745522Y28313642D01*
X2776081Y28380913D01*
X2795131Y28457311D01*
X2801481Y28542044D01*
X2795131Y28625586D01*
X2776081Y28701588D01*
X2745323Y28768659D01*
X2703850Y28825413D01*
X2652653Y28871053D01*
X2627977Y28884944D01*
X2891969Y28884944D01*
X2891969Y28167394D01*
X3050719Y28167394D01*
X3050719Y28753181D01*
X3076912Y28757944D01*
X3099931Y28759531D01*
X3148350Y28729369D01*
X3163431Y28623006D01*
X3163431Y28451556D01*
X3322181Y28451556D01*
X3322181Y28600781D01*
X3319006Y28681744D01*
X3311069Y28748419D01*
X3339644Y28757150D01*
X3369806Y28759531D01*
X3394412Y28754769D01*
X3415050Y28735719D01*
X3429337Y28694444D01*
X3434894Y28623006D01*
X3434894Y28167394D01*
X3593644Y28167394D01*
X4533444Y28167394D01*
X5163681Y28167394D01*
X5163681Y28329319D01*
X4728706Y28329319D01*
X4728706Y28605544D01*
X5076369Y28605544D01*
X5076369Y28767469D01*
X4728706Y28767469D01*
X4728706Y28889706D01*
X5327194Y28889706D01*
X5327194Y28167394D01*
X5522456Y28167394D01*
X5522456Y28753181D01*
X5567700Y28757944D01*
X5611356Y28759531D01*
X5708194Y28713494D01*
X5726053Y28652772D01*
X5732006Y28562681D01*
X5732006Y28167394D01*
X5927269Y28167394D01*
X5927269Y28588081D01*
X5923697Y28660908D01*
X5912981Y28726988D01*
X5864562Y28834938D01*
X5771694Y28904788D01*
X5740336Y28913519D01*
X6043156Y28913519D01*
X6076940Y28803039D01*
X6111617Y28697023D01*
X6147187Y28595473D01*
X6183650Y28498388D01*
X6232598Y28377297D01*
X6281017Y28266965D01*
X6328906Y28167394D01*
X6492419Y28167394D01*
X6541102Y28266965D01*
X6591902Y28377297D01*
X6644819Y28498388D01*
X6684407Y28595473D01*
X6722209Y28697023D01*
X6758226Y28803039D01*
X6792456Y28913519D01*
X6871831Y28913519D01*
X6871831Y28751594D01*
X7078206Y28751594D01*
X7078206Y28476956D01*
X7081381Y28403534D01*
X7090906Y28338844D01*
X7134562Y28236450D01*
X7217112Y28172156D01*
X7274858Y28155487D01*
X7344906Y28149931D01*
X7442537Y28160250D01*
X7556044Y28199144D01*
X7530644Y28356306D01*
X7444919Y28326937D01*
X7379831Y28319794D01*
X7298075Y28352337D01*
X7273469Y28451556D01*
X7273469Y28864306D01*
X7749719Y28864306D01*
X7749719Y28167394D01*
X7946569Y28167394D01*
X7946569Y28542044D01*
X8448219Y28542044D01*
X8454569Y28457311D01*
X8473619Y28380913D01*
X8504377Y28313642D01*
X8545850Y28256294D01*
X8597047Y28209859D01*
X8656975Y28175331D01*
X8725039Y28153900D01*
X8800644Y28146756D01*
X8876248Y28153900D01*
X8944312Y28175331D01*
X9004042Y28209859D01*
X9054644Y28256294D01*
X9095522Y28313642D01*
X9126081Y28380913D01*
X9145131Y28457311D01*
X9151481Y28542044D01*
X9145131Y28625586D01*
X9126081Y28701588D01*
X9095323Y28768659D01*
X9053850Y28825413D01*
X9002653Y28871053D01*
X8969517Y28889706D01*
X9295944Y28889706D01*
X9295944Y28167394D01*
X9491206Y28167394D01*
X9491206Y28753181D01*
X9536450Y28757944D01*
X9580106Y28759531D01*
X9676944Y28713494D01*
X9694803Y28652772D01*
X9700756Y28562681D01*
X9700756Y28167394D01*
X9896019Y28167394D01*
X9896019Y28588081D01*
X9892447Y28660908D01*
X9881731Y28726988D01*
X9833312Y28834938D01*
X9766827Y28884944D01*
X10035719Y28884944D01*
X10035719Y28167394D01*
X10194469Y28167394D01*
X10194469Y28753181D01*
X10220662Y28757944D01*
X10243681Y28759531D01*
X10292100Y28729369D01*
X10307181Y28623006D01*
X10307181Y28451556D01*
X10465931Y28451556D01*
X10465931Y28600781D01*
X10462756Y28681744D01*
X10454819Y28748419D01*
X10483394Y28757150D01*
X10513556Y28759531D01*
X10538162Y28754769D01*
X10558800Y28735719D01*
X10573087Y28694444D01*
X10578644Y28623006D01*
X10578644Y28167394D01*
X10737394Y28167394D01*
X10737394Y28534106D01*
X10832644Y28534106D01*
X10839787Y28444809D01*
X10861219Y28367419D01*
X10895945Y28301736D01*
X10942975Y28247562D01*
X11001713Y28205097D01*
X11071562Y28174537D01*
X11151930Y28156083D01*
X11242219Y28149931D01*
X11370806Y28161837D01*
X11478756Y28191206D01*
X11451769Y28357894D01*
X11362075Y28332494D01*
X11250156Y28319794D01*
X11163638Y28330311D01*
X11094581Y28361863D01*
X11049337Y28411670D01*
X11034256Y28476956D01*
X11518444Y28476956D01*
X11520825Y28510294D01*
X11521619Y28549981D01*
X11512094Y28664899D01*
X11483519Y28759884D01*
X11435894Y28834938D01*
X11369924Y28889177D01*
X11368565Y28889706D01*
X11677194Y28889706D01*
X11677194Y28167394D01*
X11872456Y28167394D01*
X11872456Y28753181D01*
X11917700Y28757944D01*
X11961356Y28759531D01*
X12058194Y28713494D01*
X12076053Y28652772D01*
X12082006Y28562681D01*
X12082006Y28167394D01*
X12277269Y28167394D01*
X12277269Y28588081D01*
X12273697Y28660908D01*
X12262981Y28726988D01*
X12214562Y28834938D01*
X12121694Y28904788D01*
X12090336Y28913519D01*
X12428081Y28913519D01*
X12428081Y28751594D01*
X12597944Y28751594D01*
X12597944Y28445206D01*
X12602706Y28360473D01*
X12616994Y28293600D01*
X12672556Y28203906D01*
X12761456Y28161044D01*
X12882106Y28149931D01*
X13003550Y28159456D01*
X13032722Y28167394D01*
X13994944Y28167394D01*
X14174331Y28167394D01*
X14166394Y28930981D01*
X14282281Y28515056D01*
X14425156Y28515056D01*
X14545806Y28930981D01*
X14536281Y28167394D01*
X14715669Y28167394D01*
X14712097Y28293005D01*
X14707731Y28415837D01*
X14702373Y28536884D01*
X14702092Y28542044D01*
X14798219Y28542044D01*
X14804569Y28457311D01*
X14823619Y28380913D01*
X14854377Y28313642D01*
X14895850Y28256294D01*
X14947047Y28209859D01*
X15006975Y28175331D01*
X15075039Y28153900D01*
X15150644Y28146756D01*
X15226248Y28153900D01*
X15294312Y28175331D01*
X15354042Y28209859D01*
X15404644Y28256294D01*
X15445522Y28313642D01*
X15476081Y28380913D01*
X15495131Y28457311D01*
X15501481Y28542044D01*
X15495131Y28625586D01*
X15476081Y28701588D01*
X15445323Y28768659D01*
X15403850Y28825413D01*
X15352653Y28871053D01*
X15319517Y28889706D01*
X15645944Y28889706D01*
X15645944Y28167394D01*
X15841206Y28167394D01*
X15841206Y28753181D01*
X15886450Y28757944D01*
X15930106Y28759531D01*
X16026944Y28713494D01*
X16044803Y28652772D01*
X16050756Y28562681D01*
X16050756Y28167394D01*
X16246019Y28167394D01*
X16246019Y28588081D01*
X16242447Y28660908D01*
X16231731Y28726988D01*
X16183313Y28834938D01*
X16090444Y28904788D01*
X16059086Y28913519D01*
X16396831Y28913519D01*
X16396831Y28751594D01*
X16603206Y28751594D01*
X16603206Y28476956D01*
X16606381Y28403534D01*
X16615906Y28338844D01*
X16659563Y28236450D01*
X16742113Y28172156D01*
X16799858Y28155487D01*
X16869906Y28149931D01*
X16967537Y28160250D01*
X17081044Y28199144D01*
X17055644Y28356306D01*
X16969919Y28326937D01*
X16904831Y28319794D01*
X16823075Y28352337D01*
X16798469Y28451556D01*
X16798469Y28913519D01*
X17190581Y28913519D01*
X17190581Y28751594D01*
X17360444Y28751594D01*
X17360444Y28445206D01*
X17365206Y28360473D01*
X17379494Y28293600D01*
X17435056Y28203906D01*
X17523956Y28161044D01*
X17644606Y28149931D01*
X17766050Y28159456D01*
X17882731Y28191206D01*
X17855744Y28359481D01*
X17805737Y28338844D01*
X17761288Y28326937D01*
X17716838Y28321381D01*
X17666831Y28319794D01*
X17620794Y28324556D01*
X17585869Y28343606D01*
X17563644Y28383294D01*
X17555706Y28449969D01*
X17555706Y28542044D01*
X17973219Y28542044D01*
X17979569Y28457311D01*
X17998619Y28380913D01*
X18029377Y28313642D01*
X18070850Y28256294D01*
X18122047Y28209859D01*
X18181975Y28175331D01*
X18250039Y28153900D01*
X18325644Y28146756D01*
X18401248Y28153900D01*
X18469313Y28175331D01*
X18529042Y28209859D01*
X18579644Y28256294D01*
X18620522Y28313642D01*
X18651081Y28380913D01*
X18670131Y28457311D01*
X18676481Y28542044D01*
X18670131Y28625586D01*
X18651081Y28701588D01*
X18620323Y28768659D01*
X18578850Y28825413D01*
X18535221Y28864306D01*
X18862219Y28864306D01*
X18862219Y28167394D01*
X19059069Y28167394D01*
X19059069Y28721431D01*
X19140031Y28736513D01*
X19220994Y28740481D01*
X19263856Y28738894D01*
X19316244Y28733338D01*
X19369425Y28724606D01*
X19414669Y28715081D01*
X19449594Y28896056D01*
X19388475Y28911138D01*
X19321006Y28920663D01*
X19258300Y28926219D01*
X19213056Y28927806D01*
X19110464Y28923441D01*
X19021763Y28910344D01*
X18940998Y28890103D01*
X18862219Y28864306D01*
X18535221Y28864306D01*
X18527653Y28871053D01*
X18467725Y28904788D01*
X18400058Y28925623D01*
X18325644Y28932569D01*
X18252222Y28925623D01*
X18184356Y28904788D01*
X18123833Y28871053D01*
X18072438Y28825413D01*
X18030766Y28768659D01*
X17999412Y28701588D01*
X17979767Y28625586D01*
X17973219Y28542044D01*
X17555706Y28542044D01*
X17555706Y28751594D01*
X17868444Y28751594D01*
X17868444Y28913519D01*
X17555706Y28913519D01*
X17555706Y29132594D01*
X17360444Y29100844D01*
X17360444Y28913519D01*
X17190581Y28913519D01*
X16798469Y28913519D01*
X16666706Y28913519D01*
X16396831Y28913519D01*
X16059086Y28913519D01*
X16024166Y28923242D01*
X15942806Y28929394D01*
X15855692Y28926219D01*
X15775325Y28916694D01*
X15704483Y28903597D01*
X15645944Y28889706D01*
X15319517Y28889706D01*
X15292725Y28904788D01*
X15225058Y28925623D01*
X15150644Y28932569D01*
X15077222Y28925623D01*
X15009356Y28904788D01*
X14948833Y28871053D01*
X14897438Y28825413D01*
X14855766Y28768659D01*
X14824413Y28701588D01*
X14804767Y28625586D01*
X14798219Y28542044D01*
X14702092Y28542044D01*
X14695825Y28657138D01*
X14687888Y28777589D01*
X14678363Y28899231D01*
X14667845Y29023056D01*
X14658841Y29127831D01*
X16544469Y29127831D01*
X16580187Y29037344D01*
X16666706Y29004006D01*
X16754019Y29037344D01*
X16790531Y29127831D01*
X16754019Y29219906D01*
X16666706Y29253244D01*
X16580187Y29219906D01*
X16544469Y29127831D01*
X14658841Y29127831D01*
X14656931Y29150056D01*
X14495006Y29150056D01*
X14466431Y29065919D01*
X14431506Y28957175D01*
X14391819Y28836525D01*
X14352131Y28715081D01*
X14315619Y28829381D01*
X14277519Y28951619D01*
X14241800Y29064331D01*
X14214019Y29150056D01*
X14052094Y29150056D01*
X14041577Y29042503D01*
X14032250Y28926219D01*
X14024114Y28803584D01*
X14017169Y28676981D01*
X14011017Y28547997D01*
X14005262Y28418219D01*
X13999905Y28290425D01*
X13994944Y28167394D01*
X13032722Y28167394D01*
X13120231Y28191206D01*
X13093244Y28359481D01*
X13043237Y28338844D01*
X12998787Y28326937D01*
X12954337Y28321381D01*
X12904331Y28319794D01*
X12858294Y28324556D01*
X12823369Y28343606D01*
X12801144Y28383294D01*
X12793206Y28449969D01*
X12793206Y28751594D01*
X13105944Y28751594D01*
X13105944Y28913519D01*
X12793206Y28913519D01*
X12793206Y29132594D01*
X12597944Y29100844D01*
X12597944Y28913519D01*
X12428081Y28913519D01*
X12090336Y28913519D01*
X12055416Y28923242D01*
X11974056Y28929394D01*
X11886942Y28926219D01*
X11806575Y28916694D01*
X11735733Y28903597D01*
X11677194Y28889706D01*
X11368565Y28889706D01*
X11286316Y28921721D01*
X11185069Y28932569D01*
X11119187Y28926219D01*
X11054894Y28907169D01*
X10994966Y28875617D01*
X10942181Y28831763D01*
X10897731Y28775605D01*
X10862806Y28707144D01*
X10840184Y28626578D01*
X10832644Y28534106D01*
X10737394Y28534106D01*
X10737394Y28613481D01*
X10735409Y28686308D01*
X10729456Y28749212D01*
X10698500Y28845256D01*
X10635794Y28902406D01*
X10534194Y28921456D01*
X10457994Y28907963D01*
X10394494Y28877006D01*
X10338137Y28911138D01*
X10264319Y28921456D01*
X10157956Y28911931D01*
X10035719Y28884944D01*
X9766827Y28884944D01*
X9740444Y28904788D01*
X9674166Y28923242D01*
X9592806Y28929394D01*
X9505692Y28926219D01*
X9425325Y28916694D01*
X9354483Y28903597D01*
X9295944Y28889706D01*
X8969517Y28889706D01*
X8942725Y28904788D01*
X8875058Y28925623D01*
X8800644Y28932569D01*
X8727222Y28925623D01*
X8659356Y28904788D01*
X8598833Y28871053D01*
X8547437Y28825413D01*
X8505766Y28768659D01*
X8474412Y28701588D01*
X8454767Y28625586D01*
X8448219Y28542044D01*
X7946569Y28542044D01*
X7946569Y28721431D01*
X8027531Y28736513D01*
X8108494Y28740481D01*
X8151356Y28738894D01*
X8203744Y28733338D01*
X8256925Y28724606D01*
X8302169Y28715081D01*
X8337094Y28896056D01*
X8275975Y28911138D01*
X8208506Y28920663D01*
X8145800Y28926219D01*
X8100556Y28927806D01*
X7997964Y28923441D01*
X7909262Y28910344D01*
X7828498Y28890103D01*
X7749719Y28864306D01*
X7273469Y28864306D01*
X7273469Y28913519D01*
X7141706Y28913519D01*
X6871831Y28913519D01*
X6792456Y28913519D01*
X6594019Y28913519D01*
X6577548Y28851209D01*
X6556712Y28784931D01*
X6533297Y28716470D01*
X6509087Y28647612D01*
X6484283Y28579548D01*
X6459081Y28513469D01*
X6413044Y28394406D01*
X6369387Y28513469D01*
X6346567Y28579548D01*
X6324144Y28647612D01*
X6302514Y28716470D01*
X6282075Y28784931D01*
X6263620Y28851209D01*
X6247944Y28913519D01*
X6043156Y28913519D01*
X5740336Y28913519D01*
X5705416Y28923242D01*
X5624056Y28929394D01*
X5536942Y28926219D01*
X5456575Y28916694D01*
X5385733Y28903597D01*
X5327194Y28889706D01*
X4728706Y28889706D01*
X4728706Y28988131D01*
X5128756Y28988131D01*
X5128756Y29127831D01*
X7019469Y29127831D01*
X7055187Y29037344D01*
X7141706Y29004006D01*
X7229019Y29037344D01*
X7265531Y29127831D01*
X7229019Y29219906D01*
X7141706Y29253244D01*
X7055187Y29219906D01*
X7019469Y29127831D01*
X5128756Y29127831D01*
X5128756Y29150056D01*
X4533444Y29150056D01*
X4533444Y28167394D01*
X3593644Y28167394D01*
X3593644Y28613481D01*
X3591659Y28686308D01*
X3585706Y28749212D01*
X3554750Y28845256D01*
X3492044Y28902406D01*
X3390444Y28921456D01*
X3314244Y28907963D01*
X3250744Y28877006D01*
X3194387Y28911138D01*
X3120569Y28921456D01*
X3014206Y28911931D01*
X2891969Y28884944D01*
X2627977Y28884944D01*
X2592725Y28904788D01*
X2525058Y28925623D01*
X2450644Y28932569D01*
X2377222Y28925623D01*
X2309356Y28904788D01*
X2248833Y28871053D01*
X2197437Y28825413D01*
X2155766Y28768659D01*
X2124412Y28701588D01*
X2104767Y28625586D01*
X2098219Y28542044D01*
X2007731Y28542044D01*
X2001381Y28625586D01*
X1982331Y28701588D01*
X1951573Y28768659D01*
X1910100Y28825413D01*
X1858903Y28871053D01*
X1798975Y28904788D01*
X1731308Y28925623D01*
X1656894Y28932569D01*
X1583472Y28925623D01*
X1515606Y28904788D01*
X1455083Y28871053D01*
X1403687Y28825413D01*
X1362016Y28768659D01*
X1330662Y28701588D01*
X1311017Y28625586D01*
X1304469Y28542044D01*
X1046935Y28542044D01*
X1025069Y28576969D01*
X1094522Y28621816D01*
X1140956Y28683331D01*
X1167150Y28757150D01*
X1175881Y28838906D01*
X1169333Y28916098D01*
X1149687Y28982575D01*
X1074281Y29083381D01*
X1020306Y29117909D01*
X956806Y29142119D01*
X884575Y29156406D01*
X804406Y29161169D01*
X748844Y29159581D01*
X682169Y29155613D01*
X613112Y29147675D01*
X550406Y29135769D01*
X219677Y29135769D01*
X219677Y29583973D01*
X550406Y29583973D01*
X19449594Y29583973D01*
X19780323Y29583973D01*
X19780323Y27816027D01*
G37*
D11*
%TO.C,R2*%
X4312258Y9397500D02*
X3837742Y9397500D01*
X4312258Y8352500D02*
X3837742Y8352500D01*
%TO.C,C4*%
X8240000Y46140580D02*
X8240000Y45859420D01*
X9260000Y46140580D02*
X9260000Y45859420D01*
%TO.C,R4*%
X9977500Y45762742D02*
X9977500Y46237258D01*
X11022500Y45762742D02*
X11022500Y46237258D01*
%TO.C,C3*%
X-3110000Y47840580D02*
X-3110000Y47559420D01*
X-2090000Y47840580D02*
X-2090000Y47559420D01*
%TO.C,TP3*%
X15900000Y67200000D02*
G75*
G02*
X14500000Y67200000I-700000J0D01*
G01*
X14500000Y67200000D02*
G75*
G02*
X15900000Y67200000I700000J0D01*
G01*
%TO.C,C6*%
X-4910000Y47840580D02*
X-4910000Y47559420D01*
X-3890000Y47840580D02*
X-3890000Y47559420D01*
%TO.C,D1*%
X21275000Y54560000D02*
X21275000Y50700000D01*
X23275000Y54560000D02*
X21275000Y54560000D01*
X23275000Y54560000D02*
X23275000Y50700000D01*
%TO.C,R7*%
X4162742Y65022500D02*
X4637258Y65022500D01*
X4162742Y63977500D02*
X4637258Y63977500D01*
%TO.C,C8*%
X13934420Y50210000D02*
X14215580Y50210000D01*
X13934420Y49190000D02*
X14215580Y49190000D01*
%TO.C,TP1*%
X20700000Y51500000D02*
G75*
G02*
X19300000Y51500000I-700000J0D01*
G01*
X19300000Y51500000D02*
G75*
G02*
X20700000Y51500000I700000J0D01*
G01*
%TO.C,Q1*%
X8562500Y66310000D02*
X6887500Y66310000D01*
X8562500Y66310000D02*
X9212500Y66310000D01*
X8562500Y63190000D02*
X7912500Y63190000D01*
X8562500Y63190000D02*
X9212500Y63190000D01*
D15*
%TO.C,kibuzzard-6559AD6D*%
G36*
X967283Y27261037D02*
G01*
X1027966Y27230914D01*
X1067256Y27179400D01*
X1080353Y27105184D01*
X1031458Y26983820D01*
X967283Y26951733D01*
X872549Y26941037D01*
X825401Y26941037D01*
X825401Y27265839D01*
X860326Y27270205D01*
X890012Y27271078D01*
X967283Y27261037D01*
G37*
G36*
X5153190Y25978271D02*
G01*
X4789388Y25978271D01*
X4361557Y25978271D01*
X2587367Y25978271D01*
X1499453Y25978271D01*
X1370231Y25978271D01*
X610612Y25978271D01*
X246810Y25978271D01*
X246810Y27429987D01*
X610612Y27429987D01*
X610612Y26364774D01*
X825401Y26364774D01*
X825401Y26762919D01*
X937161Y26762919D01*
X996315Y26664038D01*
X1051540Y26566466D01*
X1101526Y26467585D01*
X1144964Y26364774D01*
X1370231Y26364774D01*
X1499453Y26364774D01*
X2192714Y26364774D01*
X2192714Y26542892D01*
X1714242Y26542892D01*
X1714242Y26846739D01*
X2096671Y26846739D01*
X2096671Y27024857D01*
X1714242Y27024857D01*
X1714242Y27267586D01*
X2154297Y27267586D01*
X2154297Y27445703D01*
X2285266Y27445703D01*
X2305347Y27347913D01*
X2334161Y27225676D01*
X2357250Y27134192D01*
X2382280Y27039021D01*
X2409249Y26940164D01*
X2437771Y26839366D01*
X2467458Y26738375D01*
X2498308Y26637189D01*
X2544147Y26493124D01*
X2587367Y26364774D01*
X2809141Y26364774D01*
X2821042Y26397953D01*
X4069933Y26397953D01*
X4119701Y26378744D01*
X4192171Y26360409D01*
X4275991Y26347312D01*
X4361557Y26342073D01*
X4461530Y26348622D01*
X4548406Y26368267D01*
X4622185Y26399699D01*
X4682867Y26441609D01*
X4763194Y26552496D01*
X4789388Y26691323D01*
X4777552Y26792606D01*
X4742045Y26877590D01*
X4682867Y26946276D01*
X4599629Y26998275D01*
X4491944Y27033200D01*
X4359811Y27051051D01*
X4368542Y27150587D01*
X4377273Y27267586D01*
X4749224Y27267586D01*
X4749224Y27445703D01*
X4197409Y27445703D01*
X4190861Y27312333D01*
X4181693Y27174161D01*
X4169469Y27032060D01*
X4153753Y26886903D01*
X4273808Y26883192D01*
X4368542Y26872060D01*
X4495145Y26830150D01*
X4554518Y26765539D01*
X4569361Y26682592D01*
X4560629Y26624966D01*
X4528324Y26575197D01*
X4463713Y26539399D01*
X4359811Y26525429D01*
X4278173Y26529358D01*
X4211379Y26541146D01*
X4113589Y26576071D01*
X4069933Y26397953D01*
X2821042Y26397953D01*
X2842513Y26457811D01*
X2875110Y26552981D01*
X2906931Y26650286D01*
X2937490Y26748076D01*
X2966303Y26844702D01*
X2993370Y26940164D01*
X3030478Y27079209D01*
X3063220Y27211706D01*
X3091378Y27334816D01*
X3114734Y27445703D01*
X2889468Y27445703D01*
X2873752Y27354898D01*
X2854543Y27250123D01*
X2832715Y27136835D01*
X2809141Y27020491D01*
X2783820Y26903492D01*
X2756753Y26788240D01*
X2728813Y26680191D01*
X2700873Y26584802D01*
X2672715Y26681500D01*
X2644120Y26789986D01*
X2616180Y26905239D01*
X2589986Y27022237D01*
X2565757Y27138363D01*
X2543711Y27250996D01*
X2525375Y27355116D01*
X2512278Y27445703D01*
X2285266Y27445703D01*
X2154297Y27445703D01*
X1499453Y27445703D01*
X1499453Y26364774D01*
X1370231Y26364774D01*
X1320462Y26479154D01*
X1260217Y26599645D01*
X1195606Y26714897D01*
X1132741Y26815307D01*
X1209139Y26864638D01*
X1260217Y26932306D01*
X1289030Y27013506D01*
X1298634Y27103438D01*
X1291431Y27188350D01*
X1269821Y27261474D01*
X1186874Y27372361D01*
X1127502Y27410342D01*
X1057652Y27436972D01*
X978197Y27452688D01*
X890012Y27457927D01*
X828893Y27456181D01*
X755551Y27451815D01*
X679589Y27443084D01*
X610612Y27429987D01*
X246810Y27429987D01*
X246810Y27821729D01*
X610612Y27821729D01*
X4789388Y27821729D01*
X5153190Y27821729D01*
X5153190Y25978271D01*
G37*
%TO.C,kibuzzard-652F08CD*%
G36*
X17195734Y69417897D02*
G01*
X17250900Y69390512D01*
X17286619Y69343681D01*
X17298525Y69276213D01*
X17254075Y69165881D01*
X17195734Y69136711D01*
X17109612Y69126988D01*
X17066750Y69126988D01*
X17066750Y69422263D01*
X17098500Y69426231D01*
X17125487Y69427025D01*
X17195734Y69417897D01*
G37*
G36*
X18686529Y68272383D02*
G01*
X18355800Y68272383D01*
X18144662Y68272383D01*
X17562050Y68272383D01*
X15763412Y68272383D01*
X14899812Y68272383D01*
X14444200Y68272383D01*
X14113471Y68272383D01*
X14113471Y69423850D01*
X14444200Y69423850D01*
X14702962Y69423850D01*
X14702962Y68603112D01*
X14899812Y68603112D01*
X15215725Y68603112D01*
X15426862Y68603112D01*
X15463375Y68689036D01*
X15506237Y68784881D01*
X15552275Y68883902D01*
X15598312Y68979350D01*
X15644945Y68880925D01*
X15689594Y68782500D01*
X15729877Y68688441D01*
X15763412Y68603112D01*
X15974550Y68603112D01*
X15931687Y68707094D01*
X15902517Y68770594D01*
X15868981Y68838856D01*
X15831873Y68910492D01*
X15791987Y68984112D01*
X15750316Y69057137D01*
X15707850Y69126988D01*
X15950864Y69571488D01*
X16871487Y69571488D01*
X16871487Y68603112D01*
X17066750Y68603112D01*
X17066750Y68965063D01*
X17168350Y68965063D01*
X17222127Y68875170D01*
X17272331Y68786469D01*
X17317773Y68696577D01*
X17357262Y68603112D01*
X17562050Y68603112D01*
X17596975Y68603112D01*
X17808112Y68603112D01*
X17844625Y68689036D01*
X17887487Y68784881D01*
X17933525Y68883902D01*
X17979562Y68979350D01*
X18026195Y68880925D01*
X18070844Y68782500D01*
X18111127Y68688441D01*
X18144662Y68603112D01*
X18355800Y68603112D01*
X18312937Y68707094D01*
X18283767Y68770594D01*
X18250231Y68838856D01*
X18213123Y68910492D01*
X18173237Y68984112D01*
X18131566Y69057137D01*
X18089100Y69126988D01*
X18339925Y69585775D01*
X18143075Y69585775D01*
X17979562Y69271450D01*
X17823987Y69585775D01*
X17612850Y69585775D01*
X17870025Y69122225D01*
X17831131Y69052573D01*
X17790650Y68980144D01*
X17750367Y68907317D01*
X17712069Y68836475D01*
X17676350Y68769006D01*
X17643806Y68706300D01*
X17596975Y68603112D01*
X17562050Y68603112D01*
X17516806Y68707094D01*
X17462037Y68816631D01*
X17403300Y68921406D01*
X17346150Y69012687D01*
X17415603Y69057534D01*
X17462037Y69119050D01*
X17488231Y69192869D01*
X17496962Y69274625D01*
X17490414Y69351817D01*
X17470769Y69418294D01*
X17395362Y69519100D01*
X17341387Y69553628D01*
X17277887Y69577838D01*
X17205656Y69592125D01*
X17125487Y69596888D01*
X17069925Y69595300D01*
X17003250Y69591331D01*
X16934194Y69583394D01*
X16871487Y69571488D01*
X15950864Y69571488D01*
X15958675Y69585775D01*
X15761825Y69585775D01*
X15598312Y69271450D01*
X15442737Y69585775D01*
X15231600Y69585775D01*
X15488775Y69122225D01*
X15449881Y69052573D01*
X15409400Y68980144D01*
X15369117Y68907317D01*
X15330819Y68836475D01*
X15295100Y68769006D01*
X15262556Y68706300D01*
X15215725Y68603112D01*
X14899812Y68603112D01*
X14899812Y69423850D01*
X15158575Y69423850D01*
X15158575Y69585775D01*
X14444200Y69585775D01*
X14444200Y69423850D01*
X14113471Y69423850D01*
X14113471Y69927617D01*
X14444200Y69927617D01*
X18355800Y69927617D01*
X18686529Y69927617D01*
X18686529Y68272383D01*
G37*
%TD*%
%LPC*%
D16*
%TO.C,U2*%
X-3900000Y50700000D03*
X-3100000Y50700000D03*
X-2300000Y50700000D03*
X-1500000Y50700000D03*
X-700000Y50700000D03*
X100000Y50700000D03*
X900000Y50700000D03*
X1700000Y50700000D03*
X2500000Y50700000D03*
X3300000Y50700000D03*
X4100000Y50700000D03*
D17*
X5000000Y51800000D03*
X5000000Y52600000D03*
X5000000Y53400000D03*
X5000000Y54200000D03*
X5000000Y55000000D03*
X5000000Y55800000D03*
X5000000Y56600000D03*
X5000000Y57400000D03*
X5000000Y58200000D03*
X5000000Y59000000D03*
X5000000Y59800000D03*
X5000000Y60600000D03*
X5000000Y61400000D03*
D16*
X4100000Y62500000D03*
X3300000Y62500000D03*
X2500000Y62500000D03*
X1700000Y62500000D03*
X900000Y62500000D03*
X100000Y62500000D03*
X-700000Y62500000D03*
X-1500000Y62500000D03*
X-2300000Y62500000D03*
X-3100000Y62500000D03*
X-3900000Y62500000D03*
D17*
X-4800000Y61400000D03*
X-4800000Y60600000D03*
X-4800000Y59800000D03*
X-4800000Y59000000D03*
X-4800000Y58200000D03*
X-4800000Y57400000D03*
X-4800000Y56600000D03*
X-4800000Y55800000D03*
X-4800000Y55000000D03*
X-4800000Y54200000D03*
X-4800000Y53400000D03*
X-4800000Y52600000D03*
X-4800000Y51800000D03*
D18*
X-1875000Y54625000D03*
D19*
X100000Y54625000D03*
X2075000Y54625000D03*
X-1875000Y56600000D03*
X100000Y56600000D03*
X2075000Y56600000D03*
X-1875000Y58575000D03*
X100000Y58575000D03*
X2075000Y58575000D03*
D20*
X-4850000Y62550000D03*
X5050000Y62550000D03*
X5050000Y50650000D03*
X-4850000Y50650000D03*
%TD*%
D21*
%TO.C,R3*%
X17600000Y46437500D03*
X17600000Y48087500D03*
%TD*%
D22*
%TO.C,R9*%
X12250000Y69075000D03*
X12250000Y67425000D03*
%TD*%
%TO.C,R13*%
X10500000Y69075000D03*
X10500000Y67425000D03*
%TD*%
D23*
%TO.C,R8*%
X9825000Y62000000D03*
X8175000Y62000000D03*
%TD*%
D24*
%TO.C,C1*%
X5150000Y48500000D03*
X6700000Y48500000D03*
%TD*%
D25*
%TO.C,H1*%
X2500000Y2800000D03*
%TD*%
D24*
%TO.C,C2*%
X9225000Y52250000D03*
X10775000Y52250000D03*
%TD*%
D26*
%TO.C,Q3*%
X20625000Y49200000D03*
X20625000Y47300000D03*
X22500000Y48250000D03*
%TD*%
D27*
%TO.C,U5*%
X6625000Y5737500D03*
X7575000Y5737500D03*
X8525000Y5737500D03*
X8525000Y8012500D03*
X6625000Y8012500D03*
%TD*%
D28*
%TO.C,R11*%
X8175000Y58500000D03*
X9825000Y58500000D03*
%TD*%
D29*
%TO.C,P1*%
X10499999Y-600002D03*
D30*
X8480000Y-600002D03*
D31*
X7250000Y-600002D03*
D29*
X9500001Y-600002D03*
D30*
X11520000Y-600002D03*
D31*
X12750000Y-600002D03*
D32*
X14269999Y-1400003D03*
X5730001Y-1400003D03*
%TD*%
D33*
%TO.C,U4*%
X14100000Y46212500D03*
X14100000Y46862500D03*
X14100000Y47512500D03*
X14100000Y48162500D03*
X16150000Y48162500D03*
X16150000Y47512500D03*
X16150000Y46862500D03*
X16150000Y46212500D03*
%TD*%
D34*
%TO.C,TP4*%
X9900000Y11400000D03*
%TD*%
D35*
%TO.C,U3*%
X8750000Y48250000D03*
X9550001Y48250000D03*
X10350002Y48250000D03*
X10350002Y50637600D03*
X9550001Y50637600D03*
X8750000Y50637600D03*
D36*
X9550001Y49443800D03*
%TD*%
D25*
%TO.C,H2*%
X17500000Y2800000D03*
%TD*%
D37*
%TO.C,C7*%
X11750000Y59025000D03*
X11750000Y57475000D03*
%TD*%
D25*
%TO.C,H3*%
X3500000Y69000000D03*
%TD*%
D21*
%TO.C,R15*%
X12500000Y5550000D03*
X12500000Y7200000D03*
%TD*%
D38*
%TO.C,J2*%
X14645800Y62000001D03*
X14645800Y60500001D03*
X14645800Y58999999D03*
X14645800Y57499999D03*
D39*
X16528448Y64050002D03*
X16528448Y55449998D03*
%TD*%
D34*
%TO.C,TP2*%
X17600000Y67200000D03*
%TD*%
D24*
%TO.C,C11*%
X6550000Y9875000D03*
X8100000Y9875000D03*
%TD*%
D40*
%TO.C,D7*%
X11705000Y3850000D03*
X12545000Y3850000D03*
%TD*%
D22*
%TO.C,R12*%
X8750000Y69075000D03*
X8750000Y67425000D03*
%TD*%
%TO.C,R14*%
X7000000Y69037500D03*
X7000000Y67387500D03*
%TD*%
D28*
%TO.C,R10*%
X8175000Y60250000D03*
X9825000Y60250000D03*
%TD*%
D23*
%TO.C,R1*%
X6750000Y46750000D03*
X5100000Y46750000D03*
%TD*%
D21*
%TO.C,R20*%
X10500000Y5550000D03*
X10500000Y7200000D03*
%TD*%
D41*
%TO.C,D2*%
X1575000Y7337500D03*
X1575000Y8912500D03*
%TD*%
D42*
%TO.C,C10*%
X4825000Y5600000D03*
X4825000Y7150000D03*
%TD*%
D23*
%TO.C,R5*%
X-1575000Y64500000D03*
X-3225000Y64500000D03*
%TD*%
D43*
%TO.C,J1*%
X24825000Y49350000D03*
X24825000Y50600000D03*
D44*
X27575000Y46800000D03*
X27575000Y53150000D03*
%TD*%
D28*
%TO.C,R6*%
X175000Y64500000D03*
X1825000Y64500000D03*
%TD*%
D22*
%TO.C,R16*%
X11600000Y64750000D03*
X11600000Y63100000D03*
%TD*%
D45*
%TO.C,C5*%
X15875000Y44762500D03*
X14325000Y44762500D03*
%TD*%
D46*
%TO.C,SW1*%
X3400000Y46900000D03*
X-700000Y46900000D03*
X3400000Y48500000D03*
X-700000Y48500000D03*
%TD*%
D47*
%TO.C,U1*%
X16175000Y51175000D03*
X16175000Y51675000D03*
X16175000Y52175000D03*
X16175000Y52675000D03*
X13275000Y52675000D03*
X13275000Y52175000D03*
X13275000Y51675000D03*
X13275000Y51175000D03*
D48*
X14725000Y51925000D03*
%TD*%
D23*
%TO.C,R2*%
X4900000Y8875000D03*
X3250000Y8875000D03*
%TD*%
D37*
%TO.C,C4*%
X8750000Y46775000D03*
X8750000Y45225000D03*
%TD*%
D21*
%TO.C,R4*%
X10500000Y45175000D03*
X10500000Y46825000D03*
%TD*%
D37*
%TO.C,C3*%
X-2600000Y48475000D03*
X-2600000Y46925000D03*
%TD*%
D34*
%TO.C,TP3*%
X15200000Y67200000D03*
%TD*%
D37*
%TO.C,C6*%
X-4400000Y48475000D03*
X-4400000Y46925000D03*
%TD*%
D49*
%TO.C,D1*%
X22275000Y53750000D03*
X22275000Y50950000D03*
%TD*%
D28*
%TO.C,R7*%
X3575000Y64500000D03*
X5225000Y64500000D03*
%TD*%
D24*
%TO.C,C8*%
X13300000Y49700000D03*
X14850000Y49700000D03*
%TD*%
D34*
%TO.C,TP1*%
X20000000Y51500000D03*
%TD*%
D26*
%TO.C,Q1*%
X7625000Y65700000D03*
X7625000Y63800000D03*
X9500000Y64750000D03*
%TD*%
%LPD*%
M02*
