%TF.GenerationSoftware,KiCad,Pcbnew,8.0.7*%
%TF.CreationDate,2024-12-24T11:10:27-06:00*%
%TF.ProjectId,room_environment_monitor,726f6f6d-5f65-46e7-9669-726f6e6d656e,rev?*%
%TF.SameCoordinates,Original*%
%TF.FileFunction,Legend,Bot*%
%TF.FilePolarity,Positive*%
%FSLAX46Y46*%
G04 Gerber Fmt 4.6, Leading zero omitted, Abs format (unit mm)*
G04 Created by KiCad (PCBNEW 8.0.7) date 2024-12-24 11:10:27*
%MOMM*%
%LPD*%
G01*
G04 APERTURE LIST*
G04 Aperture macros list*
%AMRoundRect*
0 Rectangle with rounded corners*
0 $1 Rounding radius*
0 $2 $3 $4 $5 $6 $7 $8 $9 X,Y pos of 4 corners*
0 Add a 4 corners polygon primitive as box body*
4,1,4,$2,$3,$4,$5,$6,$7,$8,$9,$2,$3,0*
0 Add four circle primitives for the rounded corners*
1,1,$1+$1,$2,$3*
1,1,$1+$1,$4,$5*
1,1,$1+$1,$6,$7*
1,1,$1+$1,$8,$9*
0 Add four rect primitives between the rounded corners*
20,1,$1+$1,$2,$3,$4,$5,0*
20,1,$1+$1,$4,$5,$6,$7,0*
20,1,$1+$1,$6,$7,$8,$9,0*
20,1,$1+$1,$8,$9,$2,$3,0*%
G04 Aperture macros list end*
%ADD10C,0.150000*%
%ADD11C,0.120000*%
%ADD12C,2.200000*%
%ADD13O,1.066800X1.701800*%
%ADD14R,0.850000X1.600000*%
%ADD15RoundRect,0.150000X0.625000X-0.150000X0.625000X0.150000X-0.625000X0.150000X-0.625000X-0.150000X0*%
%ADD16RoundRect,0.250000X0.650000X-0.350000X0.650000X0.350000X-0.650000X0.350000X-0.650000X-0.350000X0*%
%ADD17RoundRect,0.250001X0.462499X0.624999X-0.462499X0.624999X-0.462499X-0.624999X0.462499X-0.624999X0*%
G04 APERTURE END LIST*
D10*
X6500000Y21900000D02*
X13500000Y21900000D01*
X6500000Y68900000D02*
X6500000Y21900000D01*
X13500000Y68900000D02*
X6500000Y68900000D01*
X13500000Y21900000D02*
X13500000Y68900000D01*
X9238094Y41145181D02*
X9238094Y42145181D01*
X9238094Y42145181D02*
X8999999Y42145181D01*
X8999999Y42145181D02*
X8857142Y42097562D01*
X8857142Y42097562D02*
X8761904Y42002324D01*
X8761904Y42002324D02*
X8714285Y41907086D01*
X8714285Y41907086D02*
X8666666Y41716610D01*
X8666666Y41716610D02*
X8666666Y41573753D01*
X8666666Y41573753D02*
X8714285Y41383277D01*
X8714285Y41383277D02*
X8761904Y41288039D01*
X8761904Y41288039D02*
X8857142Y41192800D01*
X8857142Y41192800D02*
X8999999Y41145181D01*
X8999999Y41145181D02*
X9238094Y41145181D01*
X7809523Y41811848D02*
X7809523Y41145181D01*
X8047618Y42192800D02*
X8285713Y41478515D01*
X8285713Y41478515D02*
X7666666Y41478515D01*
X11329819Y41564286D02*
X11329819Y42135714D01*
X11329819Y41850000D02*
X10329819Y41850000D01*
X10329819Y41850000D02*
X10472676Y41945238D01*
X10472676Y41945238D02*
X10567914Y42040476D01*
X10567914Y42040476D02*
X10615533Y42135714D01*
X1253333Y53385181D02*
X1253333Y52670896D01*
X1253333Y52670896D02*
X1300952Y52528039D01*
X1300952Y52528039D02*
X1396190Y52432800D01*
X1396190Y52432800D02*
X1539047Y52385181D01*
X1539047Y52385181D02*
X1634285Y52385181D01*
X872380Y53385181D02*
X253333Y53385181D01*
X253333Y53385181D02*
X586666Y53004229D01*
X586666Y53004229D02*
X443809Y53004229D01*
X443809Y53004229D02*
X348571Y52956610D01*
X348571Y52956610D02*
X300952Y52908991D01*
X300952Y52908991D02*
X253333Y52813753D01*
X253333Y52813753D02*
X253333Y52575658D01*
X253333Y52575658D02*
X300952Y52480420D01*
X300952Y52480420D02*
X348571Y52432800D01*
X348571Y52432800D02*
X443809Y52385181D01*
X443809Y52385181D02*
X729523Y52385181D01*
X729523Y52385181D02*
X824761Y52432800D01*
X824761Y52432800D02*
X872380Y52480420D01*
X13204819Y57888095D02*
X12204819Y57888095D01*
X12204819Y57888095D02*
X12204819Y57650000D01*
X12204819Y57650000D02*
X12252438Y57507143D01*
X12252438Y57507143D02*
X12347676Y57411905D01*
X12347676Y57411905D02*
X12442914Y57364286D01*
X12442914Y57364286D02*
X12633390Y57316667D01*
X12633390Y57316667D02*
X12776247Y57316667D01*
X12776247Y57316667D02*
X12966723Y57364286D01*
X12966723Y57364286D02*
X13061961Y57411905D01*
X13061961Y57411905D02*
X13157200Y57507143D01*
X13157200Y57507143D02*
X13204819Y57650000D01*
X13204819Y57650000D02*
X13204819Y57888095D01*
X12204819Y56983333D02*
X12204819Y56364286D01*
X12204819Y56364286D02*
X12585771Y56697619D01*
X12585771Y56697619D02*
X12585771Y56554762D01*
X12585771Y56554762D02*
X12633390Y56459524D01*
X12633390Y56459524D02*
X12681009Y56411905D01*
X12681009Y56411905D02*
X12776247Y56364286D01*
X12776247Y56364286D02*
X13014342Y56364286D01*
X13014342Y56364286D02*
X13109580Y56411905D01*
X13109580Y56411905D02*
X13157200Y56459524D01*
X13157200Y56459524D02*
X13204819Y56554762D01*
X13204819Y56554762D02*
X13204819Y56840476D01*
X13204819Y56840476D02*
X13157200Y56935714D01*
X13157200Y56935714D02*
X13109580Y56983333D01*
X13204819Y34338095D02*
X12204819Y34338095D01*
X12204819Y34338095D02*
X12204819Y34100000D01*
X12204819Y34100000D02*
X12252438Y33957143D01*
X12252438Y33957143D02*
X12347676Y33861905D01*
X12347676Y33861905D02*
X12442914Y33814286D01*
X12442914Y33814286D02*
X12633390Y33766667D01*
X12633390Y33766667D02*
X12776247Y33766667D01*
X12776247Y33766667D02*
X12966723Y33814286D01*
X12966723Y33814286D02*
X13061961Y33861905D01*
X13061961Y33861905D02*
X13157200Y33957143D01*
X13157200Y33957143D02*
X13204819Y34100000D01*
X13204819Y34100000D02*
X13204819Y34338095D01*
X12204819Y32861905D02*
X12204819Y33338095D01*
X12204819Y33338095D02*
X12681009Y33385714D01*
X12681009Y33385714D02*
X12633390Y33338095D01*
X12633390Y33338095D02*
X12585771Y33242857D01*
X12585771Y33242857D02*
X12585771Y33004762D01*
X12585771Y33004762D02*
X12633390Y32909524D01*
X12633390Y32909524D02*
X12681009Y32861905D01*
X12681009Y32861905D02*
X12776247Y32814286D01*
X12776247Y32814286D02*
X13014342Y32814286D01*
X13014342Y32814286D02*
X13109580Y32861905D01*
X13109580Y32861905D02*
X13157200Y32909524D01*
X13157200Y32909524D02*
X13204819Y33004762D01*
X13204819Y33004762D02*
X13204819Y33242857D01*
X13204819Y33242857D02*
X13157200Y33338095D01*
X13157200Y33338095D02*
X13109580Y33385714D01*
X11329819Y29814286D02*
X11329819Y30385714D01*
X11329819Y30100000D02*
X10329819Y30100000D01*
X10329819Y30100000D02*
X10472676Y30195238D01*
X10472676Y30195238D02*
X10567914Y30290476D01*
X10567914Y30290476D02*
X10615533Y30385714D01*
X10750594Y66815181D02*
X10750594Y67815181D01*
X10750594Y67815181D02*
X10512499Y67815181D01*
X10512499Y67815181D02*
X10369642Y67767562D01*
X10369642Y67767562D02*
X10274404Y67672324D01*
X10274404Y67672324D02*
X10226785Y67577086D01*
X10226785Y67577086D02*
X10179166Y67386610D01*
X10179166Y67386610D02*
X10179166Y67243753D01*
X10179166Y67243753D02*
X10226785Y67053277D01*
X10226785Y67053277D02*
X10274404Y66958039D01*
X10274404Y66958039D02*
X10369642Y66862800D01*
X10369642Y66862800D02*
X10512499Y66815181D01*
X10512499Y66815181D02*
X10750594Y66815181D01*
X9322023Y67815181D02*
X9512499Y67815181D01*
X9512499Y67815181D02*
X9607737Y67767562D01*
X9607737Y67767562D02*
X9655356Y67719943D01*
X9655356Y67719943D02*
X9750594Y67577086D01*
X9750594Y67577086D02*
X9798213Y67386610D01*
X9798213Y67386610D02*
X9798213Y67005658D01*
X9798213Y67005658D02*
X9750594Y66910420D01*
X9750594Y66910420D02*
X9702975Y66862800D01*
X9702975Y66862800D02*
X9607737Y66815181D01*
X9607737Y66815181D02*
X9417261Y66815181D01*
X9417261Y66815181D02*
X9322023Y66862800D01*
X9322023Y66862800D02*
X9274404Y66910420D01*
X9274404Y66910420D02*
X9226785Y67005658D01*
X9226785Y67005658D02*
X9226785Y67243753D01*
X9226785Y67243753D02*
X9274404Y67338991D01*
X9274404Y67338991D02*
X9322023Y67386610D01*
X9322023Y67386610D02*
X9417261Y67434229D01*
X9417261Y67434229D02*
X9607737Y67434229D01*
X9607737Y67434229D02*
X9702975Y67386610D01*
X9702975Y67386610D02*
X9750594Y67338991D01*
X9750594Y67338991D02*
X9798213Y67243753D01*
D11*
%TO.C,D4*%
X8050000Y48300000D02*
X9125000Y48300000D01*
X8050000Y42400000D02*
X8050000Y48300000D01*
X11950000Y42400000D02*
X11950000Y48300000D01*
%TO.C,J3*%
X-4435000Y53660000D02*
X-4435000Y59540000D01*
X-2465000Y60710000D02*
X35000Y60710000D01*
X-2465000Y52490000D02*
X35000Y52490000D01*
X35000Y60710000D02*
X35000Y59660000D01*
X35000Y53540000D02*
X1025000Y53540000D01*
X35000Y52490000D02*
X35000Y53540000D01*
%TO.C,D3*%
X8050000Y60100000D02*
X9125000Y60100000D01*
X8050000Y54200000D02*
X8050000Y60100000D01*
X11950000Y54200000D02*
X11950000Y60100000D01*
%TO.C,D5*%
X8050000Y36550000D02*
X9125000Y36550000D01*
X8050000Y30650000D02*
X8050000Y36550000D01*
X11950000Y30650000D02*
X11950000Y36550000D01*
%TO.C,D6*%
X8412500Y66585000D02*
X12472500Y66585000D01*
X12472500Y66585000D02*
X12472500Y64315000D01*
X12472500Y64315000D02*
X8412500Y64315000D01*
%TD*%
%LPC*%
D12*
%TO.C,H1*%
X2500000Y2800000D03*
%TD*%
D13*
%TO.C,P1*%
X14269999Y-1400003D03*
X5730001Y-1400003D03*
%TD*%
D12*
%TO.C,H2*%
X17500000Y2800000D03*
%TD*%
%TO.C,H3*%
X3500000Y69000000D03*
%TD*%
D14*
%TO.C,D4*%
X10875000Y43600000D03*
X9125000Y43600000D03*
X9125000Y47100000D03*
X10875000Y47100000D03*
%TD*%
D15*
%TO.C,J3*%
X250000Y54100000D03*
X250000Y55100000D03*
X250000Y56100000D03*
X250000Y57100000D03*
X250000Y58100000D03*
X250000Y59100000D03*
D16*
X-3625000Y52800000D03*
X-3625000Y60400000D03*
%TD*%
D14*
%TO.C,D3*%
X10875000Y55400000D03*
X9125000Y55400000D03*
X9125000Y58900000D03*
X10875000Y58900000D03*
%TD*%
%TO.C,D5*%
X10875000Y31850000D03*
X9125000Y31850000D03*
X9125000Y35350000D03*
X10875000Y35350000D03*
%TD*%
D17*
%TO.C,D6*%
X11500000Y65450000D03*
X8525000Y65450000D03*
%TD*%
%LPD*%
M02*
