M48
; DRILL file {KiCad 8.0.7} date 2024-12-24T11:10:27-0600
; FORMAT={-:-/ absolute / inch / decimal}
; #@! TF.CreationDate,2024-12-24T11:10:27-06:00
; #@! TF.GenerationSoftware,Kicad,Pcbnew,8.0.7
; #@! TF.FileFunction,Plated,1,4,PTH
FMAT,2
INCH
; #@! TA.AperFunction,Plated,PTH,ViaDrill
T1C0.0118
; #@! TA.AperFunction,Plated,PTH,ViaDrill
T2C0.0157
; #@! TA.AperFunction,Plated,PTH,ComponentDrill
T3C0.0197
; #@! TA.AperFunction,Plated,PTH,ComponentDrill
T4C0.0217
; #@! TA.AperFunction,Plated,PTH,ViaDrill
T5C0.0315
%
G90
G05
T1
X0.2323Y2.2677
X0.2323Y2.2283
X0.2795Y2.4567
X0.2913Y2.4094
X0.4173Y2.3976
X0.4409Y2.122
X0.811Y1.9724
T2
X-0.1772Y1.7992
X-0.1757Y1.9464
X-0.1417Y2.5079
X-0.1014Y1.8012
X-0.0886Y2.0374
X-0.0787Y2.3031
X-0.0787Y2.2244
X-0.0787Y2.1535
X-0.0325Y1.8012
X0.0Y1.9587
X0.063Y2.0433
X0.0709Y2.5866
X0.0787Y2.2244
X0.128Y2.4114
X0.1407Y0.2805
X0.1417Y2.5866
X0.1575Y2.3819
X0.1772Y2.5
X0.1998Y0.4478
X0.1998Y0.4085
X0.2356Y1.8778
X0.2362Y2.6378
X0.2362Y1.8012
X0.2362Y0.1476
X0.2362Y0.0787
X0.249Y0.4478
X0.252Y2.752
X0.252Y2.5866
X0.2756Y0.1181
X0.2992Y2.1929
X0.2992Y1.7953
X0.3077Y2.7491
X0.3189Y2.0591
X0.3622Y1.6614
X0.3622Y1.1969
X0.3671Y0.3888
X0.374Y0.1476
X0.374Y0.0787
X0.374Y0.0276
X0.376Y1.9466
X0.4035Y2.7559
X0.4163Y0.3297
X0.4196Y2.471
X0.4528Y0.1161
X0.4528Y0.0591
X0.4646Y1.7756
X0.4764Y2.2205
X0.4772Y0.187
X0.4843Y2.0748
X0.4961Y2.5167
X0.5118Y0.1181
X0.5126Y2.5768
X0.5197Y1.8425
X0.5197Y1.7559
X0.5346Y0.2807
X0.5498Y1.986
X0.5512Y2.6181
X0.561Y0.1476
X0.561Y0.0787
X0.5787Y2.0433
X0.5885Y1.8765
X0.6024Y1.9134
X0.6693Y2.3819
X0.6693Y1.7559
X0.6949Y1.7889
X0.9567Y2.0669
T5
X0.6693Y2.3228
X0.6693Y2.2638
X0.815Y1.8189
T3
G00X0.5618Y-0.0413
M15
G01X0.5618Y-0.0689
M16
G05
T4
G00X0.2256Y-0.0453
M15
G01X0.2256Y-0.065
M16
G05
M30
