%TF.GenerationSoftware,KiCad,Pcbnew,8.0.7*%
%TF.CreationDate,2024-12-24T11:10:27-06:00*%
%TF.ProjectId,room_environment_monitor,726f6f6d-5f65-46e7-9669-726f6e6d656e,rev?*%
%TF.SameCoordinates,Original*%
%TF.FileFunction,Paste,Top*%
%TF.FilePolarity,Positive*%
%FSLAX46Y46*%
G04 Gerber Fmt 4.6, Leading zero omitted, Abs format (unit mm)*
G04 Created by KiCad (PCBNEW 8.0.7) date 2024-12-24 11:10:27*
%MOMM*%
%LPD*%
G01*
G04 APERTURE LIST*
G04 Aperture macros list*
%AMRoundRect*
0 Rectangle with rounded corners*
0 $1 Rounding radius*
0 $2 $3 $4 $5 $6 $7 $8 $9 X,Y pos of 4 corners*
0 Add a 4 corners polygon primitive as box body*
4,1,4,$2,$3,$4,$5,$6,$7,$8,$9,$2,$3,0*
0 Add four circle primitives for the rounded corners*
1,1,$1+$1,$2,$3*
1,1,$1+$1,$4,$5*
1,1,$1+$1,$6,$7*
1,1,$1+$1,$8,$9*
0 Add four rect primitives between the rounded corners*
20,1,$1+$1,$2,$3,$4,$5,0*
20,1,$1+$1,$4,$5,$6,$7,0*
20,1,$1+$1,$6,$7,$8,$9,0*
20,1,$1+$1,$8,$9,$2,$3,0*%
%AMFreePoly0*
4,1,6,0.725000,-0.725000,-0.725000,-0.725000,-0.725000,0.125000,-0.125000,0.725000,0.725000,0.725000,0.725000,-0.725000,0.725000,-0.725000,$1*%
G04 Aperture macros list end*
%ADD10R,0.400000X0.800000*%
%ADD11R,0.800000X0.400000*%
%ADD12FreePoly0,90.000000*%
%ADD13R,1.450000X1.450000*%
%ADD14R,0.700000X0.700000*%
%ADD15RoundRect,0.200000X0.275000X-0.200000X0.275000X0.200000X-0.275000X0.200000X-0.275000X-0.200000X0*%
%ADD16RoundRect,0.200000X-0.275000X0.200000X-0.275000X-0.200000X0.275000X-0.200000X0.275000X0.200000X0*%
%ADD17RoundRect,0.200000X0.200000X0.275000X-0.200000X0.275000X-0.200000X-0.275000X0.200000X-0.275000X0*%
%ADD18RoundRect,0.225000X-0.225000X-0.250000X0.225000X-0.250000X0.225000X0.250000X-0.225000X0.250000X0*%
%ADD19RoundRect,0.150000X-0.587500X-0.150000X0.587500X-0.150000X0.587500X0.150000X-0.587500X0.150000X0*%
%ADD20RoundRect,0.150000X0.150000X-0.512500X0.150000X0.512500X-0.150000X0.512500X-0.150000X-0.512500X0*%
%ADD21RoundRect,0.200000X-0.200000X-0.275000X0.200000X-0.275000X0.200000X0.275000X-0.200000X0.275000X0*%
%ADD22R,0.711200X2.006600*%
%ADD23R,0.812800X2.006600*%
%ADD24R,0.889000X2.006600*%
%ADD25R,0.500000X0.350000*%
%ADD26R,0.355600X0.660400*%
%ADD27R,1.701800X1.244600*%
%ADD28RoundRect,0.225000X-0.250000X0.225000X-0.250000X-0.225000X0.250000X-0.225000X0.250000X0.225000X0*%
%ADD29R,3.352800X0.711200*%
%ADD30R,2.387600X1.600200*%
%ADD31RoundRect,0.062500X0.117500X0.062500X-0.117500X0.062500X-0.117500X-0.062500X0.117500X-0.062500X0*%
%ADD32RoundRect,0.218750X0.256250X-0.218750X0.256250X0.218750X-0.256250X0.218750X-0.256250X-0.218750X0*%
%ADD33RoundRect,0.225000X0.250000X-0.225000X0.250000X0.225000X-0.250000X0.225000X-0.250000X-0.225000X0*%
%ADD34RoundRect,0.200000X0.450000X-0.200000X0.450000X0.200000X-0.450000X0.200000X-0.450000X-0.200000X0*%
%ADD35RoundRect,0.250001X1.249999X-0.799999X1.249999X0.799999X-1.249999X0.799999X-1.249999X-0.799999X0*%
%ADD36RoundRect,0.225000X0.225000X0.250000X-0.225000X0.250000X-0.225000X-0.250000X0.225000X-0.250000X0*%
%ADD37R,0.900000X1.000000*%
%ADD38R,0.500000X0.600000*%
%ADD39R,0.750000X0.300000*%
%ADD40RoundRect,0.250000X-0.300000X0.300000X-0.300000X-0.300000X0.300000X-0.300000X0.300000X0.300000X0*%
G04 APERTURE END LIST*
D10*
%TO.C,U2*%
X-3900000Y50700000D03*
X-3100000Y50700000D03*
X-2300000Y50700000D03*
X-1500000Y50700000D03*
X-700000Y50700000D03*
X100000Y50700000D03*
X900000Y50700000D03*
X1700000Y50700000D03*
X2500000Y50700000D03*
X3300000Y50700000D03*
X4100000Y50700000D03*
D11*
X5000000Y51800000D03*
X5000000Y52600000D03*
X5000000Y53400000D03*
X5000000Y54200000D03*
X5000000Y55000000D03*
X5000000Y55800000D03*
X5000000Y56600000D03*
X5000000Y57400000D03*
X5000000Y58200000D03*
X5000000Y59000000D03*
X5000000Y59800000D03*
X5000000Y60600000D03*
X5000000Y61400000D03*
D10*
X4100000Y62500000D03*
X3300000Y62500000D03*
X2500000Y62500000D03*
X1700000Y62500000D03*
X900000Y62500000D03*
X100000Y62500000D03*
X-700000Y62500000D03*
X-1500000Y62500000D03*
X-2300000Y62500000D03*
X-3100000Y62500000D03*
X-3900000Y62500000D03*
D11*
X-4800000Y61400000D03*
X-4800000Y60600000D03*
X-4800000Y59800000D03*
X-4800000Y59000000D03*
X-4800000Y58200000D03*
X-4800000Y57400000D03*
X-4800000Y56600000D03*
X-4800000Y55800000D03*
X-4800000Y55000000D03*
X-4800000Y54200000D03*
X-4800000Y53400000D03*
X-4800000Y52600000D03*
X-4800000Y51800000D03*
D12*
X-1875000Y54625000D03*
D13*
X100000Y54625000D03*
X2075000Y54625000D03*
X-1875000Y56600000D03*
X100000Y56600000D03*
X2075000Y56600000D03*
X-1875000Y58575000D03*
X100000Y58575000D03*
X2075000Y58575000D03*
D14*
X-4850000Y62550000D03*
X5050000Y62550000D03*
X5050000Y50650000D03*
X-4850000Y50650000D03*
%TD*%
D15*
%TO.C,R3*%
X17600000Y46437500D03*
X17600000Y48087500D03*
%TD*%
D16*
%TO.C,R9*%
X12250000Y69075000D03*
X12250000Y67425000D03*
%TD*%
%TO.C,R13*%
X10500000Y69075000D03*
X10500000Y67425000D03*
%TD*%
D17*
%TO.C,R8*%
X9825000Y62000000D03*
X8175000Y62000000D03*
%TD*%
D18*
%TO.C,C1*%
X5150000Y48500000D03*
X6700000Y48500000D03*
%TD*%
%TO.C,C2*%
X9225000Y52250000D03*
X10775000Y52250000D03*
%TD*%
D19*
%TO.C,Q3*%
X20625000Y49200000D03*
X20625000Y47300000D03*
X22500000Y48250000D03*
%TD*%
D20*
%TO.C,U5*%
X6625000Y5737500D03*
X7575000Y5737500D03*
X8525000Y5737500D03*
X8525000Y8012500D03*
X6625000Y8012500D03*
%TD*%
D21*
%TO.C,R11*%
X8175000Y58500000D03*
X9825000Y58500000D03*
%TD*%
D22*
%TO.C,P1*%
X10499999Y-600002D03*
D23*
X8480000Y-600002D03*
D24*
X7250000Y-600002D03*
D22*
X9500001Y-600002D03*
D23*
X11520000Y-600002D03*
D24*
X12750000Y-600002D03*
%TD*%
D25*
%TO.C,U4*%
X14100000Y46212500D03*
X14100000Y46862500D03*
X14100000Y47512500D03*
X14100000Y48162500D03*
X16150000Y48162500D03*
X16150000Y47512500D03*
X16150000Y46862500D03*
X16150000Y46212500D03*
%TD*%
D26*
%TO.C,U3*%
X8750000Y48250000D03*
X9550001Y48250000D03*
X10350002Y48250000D03*
X10350002Y50637600D03*
X9550001Y50637600D03*
X8750000Y50637600D03*
D27*
X9550001Y49443800D03*
%TD*%
D28*
%TO.C,C7*%
X11750000Y59025000D03*
X11750000Y57475000D03*
%TD*%
D15*
%TO.C,R15*%
X12500000Y5550000D03*
X12500000Y7200000D03*
%TD*%
D29*
%TO.C,J2*%
X14645800Y62000001D03*
X14645800Y60500001D03*
X14645800Y58999999D03*
X14645800Y57499999D03*
D30*
X16528448Y64050002D03*
X16528448Y55449998D03*
%TD*%
D18*
%TO.C,C11*%
X6550000Y9875000D03*
X8100000Y9875000D03*
%TD*%
D31*
%TO.C,D7*%
X11705000Y3850000D03*
X12545000Y3850000D03*
%TD*%
D16*
%TO.C,R12*%
X8750000Y69075000D03*
X8750000Y67425000D03*
%TD*%
%TO.C,R14*%
X7000000Y69037500D03*
X7000000Y67387500D03*
%TD*%
D21*
%TO.C,R10*%
X8175000Y60250000D03*
X9825000Y60250000D03*
%TD*%
D17*
%TO.C,R1*%
X6750000Y46750000D03*
X5100000Y46750000D03*
%TD*%
D15*
%TO.C,R20*%
X10500000Y5550000D03*
X10500000Y7200000D03*
%TD*%
D32*
%TO.C,D2*%
X1575000Y7337500D03*
X1575000Y8912500D03*
%TD*%
D33*
%TO.C,C10*%
X4825000Y5600000D03*
X4825000Y7150000D03*
%TD*%
D17*
%TO.C,R5*%
X-1575000Y64500000D03*
X-3225000Y64500000D03*
%TD*%
D34*
%TO.C,J1*%
X24825000Y49350000D03*
X24825000Y50600000D03*
D35*
X27575000Y46800000D03*
X27575000Y53150000D03*
%TD*%
D21*
%TO.C,R6*%
X175000Y64500000D03*
X1825000Y64500000D03*
%TD*%
D16*
%TO.C,R16*%
X11600000Y64750000D03*
X11600000Y63100000D03*
%TD*%
D36*
%TO.C,C5*%
X15875000Y44762500D03*
X14325000Y44762500D03*
%TD*%
D37*
%TO.C,SW1*%
X3400000Y46900000D03*
X-700000Y46900000D03*
X3400000Y48500000D03*
X-700000Y48500000D03*
%TD*%
D38*
%TO.C,U1*%
X15050000Y51550000D03*
X15050000Y52300000D03*
X14400000Y51550000D03*
X14400000Y52300000D03*
D39*
X16175000Y51175000D03*
X16175000Y51675000D03*
X16175000Y52175000D03*
X16175000Y52675000D03*
X13275000Y52675000D03*
X13275000Y52175000D03*
X13275000Y51675000D03*
X13275000Y51175000D03*
%TD*%
D17*
%TO.C,R2*%
X4900000Y8875000D03*
X3250000Y8875000D03*
%TD*%
D28*
%TO.C,C4*%
X8750000Y46775000D03*
X8750000Y45225000D03*
%TD*%
D15*
%TO.C,R4*%
X10500000Y45175000D03*
X10500000Y46825000D03*
%TD*%
D28*
%TO.C,C3*%
X-2600000Y48475000D03*
X-2600000Y46925000D03*
%TD*%
%TO.C,C6*%
X-4400000Y48475000D03*
X-4400000Y46925000D03*
%TD*%
D40*
%TO.C,D1*%
X22275000Y53750000D03*
X22275000Y50950000D03*
%TD*%
D21*
%TO.C,R7*%
X3575000Y64500000D03*
X5225000Y64500000D03*
%TD*%
D18*
%TO.C,C8*%
X13300000Y49700000D03*
X14850000Y49700000D03*
%TD*%
D19*
%TO.C,Q1*%
X7625000Y65700000D03*
X7625000Y63800000D03*
X9500000Y64750000D03*
%TD*%
M02*
