G04 #@! TF.GenerationSoftware,KiCad,Pcbnew,7.0.7*
G04 #@! TF.CreationDate,2023-11-09T12:03:22-05:00*
G04 #@! TF.ProjectId,programmer,70726f67-7261-46d6-9d65-722e6b696361,rev?*
G04 #@! TF.SameCoordinates,Original*
G04 #@! TF.FileFunction,Legend,Top*
G04 #@! TF.FilePolarity,Positive*
%FSLAX46Y46*%
G04 Gerber Fmt 4.6, Leading zero omitted, Abs format (unit mm)*
G04 Created by KiCad (PCBNEW 7.0.7) date 2023-11-09 12:03:22*
%MOMM*%
%LPD*%
G01*
G04 APERTURE LIST*
G04 Aperture macros list*
%AMRoundRect*
0 Rectangle with rounded corners*
0 $1 Rounding radius*
0 $2 $3 $4 $5 $6 $7 $8 $9 X,Y pos of 4 corners*
0 Add a 4 corners polygon primitive as box body*
4,1,4,$2,$3,$4,$5,$6,$7,$8,$9,$2,$3,0*
0 Add four circle primitives for the rounded corners*
1,1,$1+$1,$2,$3*
1,1,$1+$1,$4,$5*
1,1,$1+$1,$6,$7*
1,1,$1+$1,$8,$9*
0 Add four rect primitives between the rounded corners*
20,1,$1+$1,$2,$3,$4,$5,0*
20,1,$1+$1,$4,$5,$6,$7,0*
20,1,$1+$1,$6,$7,$8,$9,0*
20,1,$1+$1,$8,$9,$2,$3,0*%
G04 Aperture macros list end*
%ADD10C,0.150000*%
%ADD11C,0.120000*%
%ADD12C,0.100000*%
%ADD13RoundRect,0.250000X-0.337500X-0.475000X0.337500X-0.475000X0.337500X0.475000X-0.337500X0.475000X0*%
%ADD14R,1.400000X1.600000*%
%ADD15RoundRect,0.150000X-0.150000X-0.625000X0.150000X-0.625000X0.150000X0.625000X-0.150000X0.625000X0*%
%ADD16RoundRect,0.250000X-0.350000X-0.650000X0.350000X-0.650000X0.350000X0.650000X-0.350000X0.650000X0*%
%ADD17RoundRect,0.150000X0.587500X0.150000X-0.587500X0.150000X-0.587500X-0.150000X0.587500X-0.150000X0*%
%ADD18RoundRect,0.150000X-0.587500X-0.150000X0.587500X-0.150000X0.587500X0.150000X-0.587500X0.150000X0*%
%ADD19O,1.700000X1.700000*%
%ADD20RoundRect,0.250000X0.337500X0.475000X-0.337500X0.475000X-0.337500X-0.475000X0.337500X-0.475000X0*%
G04 APERTURE END LIST*
D10*
X131913333Y-72905080D02*
X131865714Y-72952700D01*
X131865714Y-72952700D02*
X131722857Y-73000319D01*
X131722857Y-73000319D02*
X131627619Y-73000319D01*
X131627619Y-73000319D02*
X131484762Y-72952700D01*
X131484762Y-72952700D02*
X131389524Y-72857461D01*
X131389524Y-72857461D02*
X131341905Y-72762223D01*
X131341905Y-72762223D02*
X131294286Y-72571747D01*
X131294286Y-72571747D02*
X131294286Y-72428890D01*
X131294286Y-72428890D02*
X131341905Y-72238414D01*
X131341905Y-72238414D02*
X131389524Y-72143176D01*
X131389524Y-72143176D02*
X131484762Y-72047938D01*
X131484762Y-72047938D02*
X131627619Y-72000319D01*
X131627619Y-72000319D02*
X131722857Y-72000319D01*
X131722857Y-72000319D02*
X131865714Y-72047938D01*
X131865714Y-72047938D02*
X131913333Y-72095557D01*
X132294286Y-72095557D02*
X132341905Y-72047938D01*
X132341905Y-72047938D02*
X132437143Y-72000319D01*
X132437143Y-72000319D02*
X132675238Y-72000319D01*
X132675238Y-72000319D02*
X132770476Y-72047938D01*
X132770476Y-72047938D02*
X132818095Y-72095557D01*
X132818095Y-72095557D02*
X132865714Y-72190795D01*
X132865714Y-72190795D02*
X132865714Y-72286033D01*
X132865714Y-72286033D02*
X132818095Y-72428890D01*
X132818095Y-72428890D02*
X132246667Y-73000319D01*
X132246667Y-73000319D02*
X132865714Y-73000319D01*
X122094666Y-87846819D02*
X122094666Y-88561104D01*
X122094666Y-88561104D02*
X122047047Y-88703961D01*
X122047047Y-88703961D02*
X121951809Y-88799200D01*
X121951809Y-88799200D02*
X121808952Y-88846819D01*
X121808952Y-88846819D02*
X121713714Y-88846819D01*
X123094666Y-88846819D02*
X122523238Y-88846819D01*
X122808952Y-88846819D02*
X122808952Y-87846819D01*
X122808952Y-87846819D02*
X122713714Y-87989676D01*
X122713714Y-87989676D02*
X122618476Y-88084914D01*
X122618476Y-88084914D02*
X122523238Y-88132533D01*
X124110761Y-69130057D02*
X124015523Y-69082438D01*
X124015523Y-69082438D02*
X123920285Y-68987200D01*
X123920285Y-68987200D02*
X123777428Y-68844342D01*
X123777428Y-68844342D02*
X123682190Y-68796723D01*
X123682190Y-68796723D02*
X123586952Y-68796723D01*
X123634571Y-69034819D02*
X123539333Y-68987200D01*
X123539333Y-68987200D02*
X123444095Y-68891961D01*
X123444095Y-68891961D02*
X123396476Y-68701485D01*
X123396476Y-68701485D02*
X123396476Y-68368152D01*
X123396476Y-68368152D02*
X123444095Y-68177676D01*
X123444095Y-68177676D02*
X123539333Y-68082438D01*
X123539333Y-68082438D02*
X123634571Y-68034819D01*
X123634571Y-68034819D02*
X123825047Y-68034819D01*
X123825047Y-68034819D02*
X123920285Y-68082438D01*
X123920285Y-68082438D02*
X124015523Y-68177676D01*
X124015523Y-68177676D02*
X124063142Y-68368152D01*
X124063142Y-68368152D02*
X124063142Y-68701485D01*
X124063142Y-68701485D02*
X124015523Y-68891961D01*
X124015523Y-68891961D02*
X123920285Y-68987200D01*
X123920285Y-68987200D02*
X123825047Y-69034819D01*
X123825047Y-69034819D02*
X123634571Y-69034819D01*
X124444095Y-68130057D02*
X124491714Y-68082438D01*
X124491714Y-68082438D02*
X124586952Y-68034819D01*
X124586952Y-68034819D02*
X124825047Y-68034819D01*
X124825047Y-68034819D02*
X124920285Y-68082438D01*
X124920285Y-68082438D02*
X124967904Y-68130057D01*
X124967904Y-68130057D02*
X125015523Y-68225295D01*
X125015523Y-68225295D02*
X125015523Y-68320533D01*
X125015523Y-68320533D02*
X124967904Y-68463390D01*
X124967904Y-68463390D02*
X124396476Y-69034819D01*
X124396476Y-69034819D02*
X125015523Y-69034819D01*
X130460761Y-70146057D02*
X130365523Y-70098438D01*
X130365523Y-70098438D02*
X130270285Y-70003200D01*
X130270285Y-70003200D02*
X130127428Y-69860342D01*
X130127428Y-69860342D02*
X130032190Y-69812723D01*
X130032190Y-69812723D02*
X129936952Y-69812723D01*
X129984571Y-70050819D02*
X129889333Y-70003200D01*
X129889333Y-70003200D02*
X129794095Y-69907961D01*
X129794095Y-69907961D02*
X129746476Y-69717485D01*
X129746476Y-69717485D02*
X129746476Y-69384152D01*
X129746476Y-69384152D02*
X129794095Y-69193676D01*
X129794095Y-69193676D02*
X129889333Y-69098438D01*
X129889333Y-69098438D02*
X129984571Y-69050819D01*
X129984571Y-69050819D02*
X130175047Y-69050819D01*
X130175047Y-69050819D02*
X130270285Y-69098438D01*
X130270285Y-69098438D02*
X130365523Y-69193676D01*
X130365523Y-69193676D02*
X130413142Y-69384152D01*
X130413142Y-69384152D02*
X130413142Y-69717485D01*
X130413142Y-69717485D02*
X130365523Y-69907961D01*
X130365523Y-69907961D02*
X130270285Y-70003200D01*
X130270285Y-70003200D02*
X130175047Y-70050819D01*
X130175047Y-70050819D02*
X129984571Y-70050819D01*
X131365523Y-70050819D02*
X130794095Y-70050819D01*
X131079809Y-70050819D02*
X131079809Y-69050819D01*
X131079809Y-69050819D02*
X130984571Y-69193676D01*
X130984571Y-69193676D02*
X130889333Y-69288914D01*
X130889333Y-69288914D02*
X130794095Y-69336533D01*
X134112095Y-68034819D02*
X134112095Y-68844342D01*
X134112095Y-68844342D02*
X134159714Y-68939580D01*
X134159714Y-68939580D02*
X134207333Y-68987200D01*
X134207333Y-68987200D02*
X134302571Y-69034819D01*
X134302571Y-69034819D02*
X134493047Y-69034819D01*
X134493047Y-69034819D02*
X134588285Y-68987200D01*
X134588285Y-68987200D02*
X134635904Y-68939580D01*
X134635904Y-68939580D02*
X134683523Y-68844342D01*
X134683523Y-68844342D02*
X134683523Y-68034819D01*
X135683523Y-69034819D02*
X135112095Y-69034819D01*
X135397809Y-69034819D02*
X135397809Y-68034819D01*
X135397809Y-68034819D02*
X135302571Y-68177676D01*
X135302571Y-68177676D02*
X135207333Y-68272914D01*
X135207333Y-68272914D02*
X135112095Y-68320533D01*
X120737333Y-73003580D02*
X120689714Y-73051200D01*
X120689714Y-73051200D02*
X120546857Y-73098819D01*
X120546857Y-73098819D02*
X120451619Y-73098819D01*
X120451619Y-73098819D02*
X120308762Y-73051200D01*
X120308762Y-73051200D02*
X120213524Y-72955961D01*
X120213524Y-72955961D02*
X120165905Y-72860723D01*
X120165905Y-72860723D02*
X120118286Y-72670247D01*
X120118286Y-72670247D02*
X120118286Y-72527390D01*
X120118286Y-72527390D02*
X120165905Y-72336914D01*
X120165905Y-72336914D02*
X120213524Y-72241676D01*
X120213524Y-72241676D02*
X120308762Y-72146438D01*
X120308762Y-72146438D02*
X120451619Y-72098819D01*
X120451619Y-72098819D02*
X120546857Y-72098819D01*
X120546857Y-72098819D02*
X120689714Y-72146438D01*
X120689714Y-72146438D02*
X120737333Y-72194057D01*
X121689714Y-73098819D02*
X121118286Y-73098819D01*
X121404000Y-73098819D02*
X121404000Y-72098819D01*
X121404000Y-72098819D02*
X121308762Y-72241676D01*
X121308762Y-72241676D02*
X121213524Y-72336914D01*
X121213524Y-72336914D02*
X121118286Y-72384533D01*
G36*
X121941960Y-87690060D02*
G01*
X121611231Y-87690060D01*
X121454069Y-87690060D01*
X120196769Y-87690060D01*
X119866040Y-87690060D01*
X119866040Y-86376669D01*
X120196769Y-86376669D01*
X120196769Y-87359331D01*
X120827006Y-87359331D01*
X120827006Y-87197406D01*
X120392031Y-87197406D01*
X120392031Y-86921181D01*
X120739694Y-86921181D01*
X120739694Y-86759256D01*
X120392031Y-86759256D01*
X120392031Y-86538594D01*
X120792081Y-86538594D01*
X120792081Y-86376669D01*
X120963531Y-86376669D01*
X120963531Y-87359331D01*
X121139744Y-87359331D01*
X121139744Y-86706869D01*
X121198746Y-86815789D01*
X121255102Y-86924533D01*
X121308812Y-87033100D01*
X121359877Y-87141667D01*
X121408296Y-87250411D01*
X121454069Y-87359331D01*
X121611231Y-87359331D01*
X121611231Y-86376669D01*
X121435019Y-86376669D01*
X121435019Y-86981506D01*
X121407039Y-86919594D01*
X121373900Y-86848156D01*
X121336594Y-86770766D01*
X121296113Y-86690994D01*
X121253448Y-86609833D01*
X121209594Y-86528275D01*
X121165144Y-86449495D01*
X121120694Y-86376669D01*
X120963531Y-86376669D01*
X120792081Y-86376669D01*
X120196769Y-86376669D01*
X119866040Y-86376669D01*
X119866040Y-86045940D01*
X120196769Y-86045940D01*
X121611231Y-86045940D01*
X121941960Y-86045940D01*
X121941960Y-87690060D01*
G37*
G36*
X133935523Y-87711492D02*
G01*
X133604794Y-87711492D01*
X133346031Y-87711492D01*
X132455444Y-87711492D01*
X131661694Y-87711492D01*
X130828256Y-87711492D01*
X130555206Y-87711492D01*
X130224477Y-87711492D01*
X130224477Y-87344250D01*
X130555206Y-87344250D01*
X130623866Y-87356752D01*
X130693319Y-87365681D01*
X130761978Y-87371039D01*
X130828256Y-87372825D01*
X130906639Y-87369055D01*
X130979863Y-87357744D01*
X131045744Y-87337503D01*
X131102100Y-87306944D01*
X131183856Y-87211694D01*
X131206478Y-87144820D01*
X131214019Y-87063262D01*
X131205089Y-86996587D01*
X131178300Y-86933087D01*
X131126508Y-86877525D01*
X131107855Y-86868000D01*
X131306094Y-86868000D01*
X131311799Y-86987211D01*
X131328914Y-87090845D01*
X131357439Y-87178902D01*
X131397375Y-87251381D01*
X131467313Y-87323260D01*
X131555419Y-87366387D01*
X131661694Y-87380762D01*
X131765410Y-87366387D01*
X131852194Y-87323260D01*
X131922044Y-87251381D01*
X131962327Y-87178902D01*
X131991100Y-87090845D01*
X132008364Y-86987211D01*
X132014119Y-86868000D01*
X132099844Y-86868000D01*
X132105549Y-86987211D01*
X132122664Y-87090845D01*
X132151189Y-87178902D01*
X132191125Y-87251381D01*
X132261063Y-87323260D01*
X132349169Y-87366387D01*
X132455444Y-87380762D01*
X132559160Y-87366387D01*
X132645944Y-87323260D01*
X132715794Y-87251381D01*
X132756077Y-87178902D01*
X132784850Y-87090845D01*
X132802114Y-86987211D01*
X132807869Y-86868000D01*
X132802213Y-86748789D01*
X132785247Y-86645155D01*
X132756970Y-86557098D01*
X132717381Y-86484619D01*
X132647884Y-86412740D01*
X132576029Y-86377462D01*
X132890419Y-86377462D01*
X132890419Y-86539387D01*
X133149181Y-86539387D01*
X133149181Y-87360125D01*
X133346031Y-87360125D01*
X133346031Y-86539387D01*
X133604794Y-86539387D01*
X133604794Y-86377462D01*
X132890419Y-86377462D01*
X132576029Y-86377462D01*
X132560042Y-86369613D01*
X132453856Y-86355237D01*
X132350845Y-86369613D01*
X132264062Y-86412740D01*
X132193506Y-86484619D01*
X132152529Y-86557098D01*
X132123259Y-86645155D01*
X132105698Y-86748789D01*
X132099844Y-86868000D01*
X132014119Y-86868000D01*
X132008463Y-86748789D01*
X131991497Y-86645155D01*
X131963220Y-86557098D01*
X131923631Y-86484619D01*
X131854134Y-86412740D01*
X131766292Y-86369613D01*
X131660106Y-86355237D01*
X131557095Y-86369613D01*
X131470312Y-86412740D01*
X131399756Y-86484619D01*
X131358779Y-86557098D01*
X131329509Y-86645155D01*
X131311948Y-86748789D01*
X131306094Y-86868000D01*
X131107855Y-86868000D01*
X131042569Y-86834662D01*
X131133850Y-86748937D01*
X131159448Y-86690994D01*
X131167981Y-86625112D01*
X131153694Y-86533037D01*
X131099719Y-86449694D01*
X130990181Y-86389369D01*
X130910012Y-86372105D01*
X130809206Y-86366350D01*
X130677444Y-86373494D01*
X130555206Y-86390162D01*
X130555206Y-87344250D01*
X130224477Y-87344250D01*
X130224477Y-86024508D01*
X130555206Y-86024508D01*
X133604794Y-86024508D01*
X133935523Y-86024508D01*
X133935523Y-87711492D01*
G37*
G36*
X132534819Y-86552087D02*
G01*
X132581650Y-86625112D01*
X132603875Y-86733856D01*
X132608042Y-86798745D01*
X132609431Y-86868000D01*
X132608042Y-86937056D01*
X132603875Y-87001350D01*
X132581650Y-87110094D01*
X132534025Y-87183912D01*
X132453856Y-87210900D01*
X132372894Y-87183912D01*
X132326063Y-87110887D01*
X132303838Y-87002144D01*
X132299670Y-86937255D01*
X132298281Y-86868000D01*
X132299670Y-86798944D01*
X132303838Y-86734650D01*
X132326063Y-86625906D01*
X132372894Y-86552087D01*
X132453856Y-86525100D01*
X132534819Y-86552087D01*
G37*
G36*
X131741069Y-86552087D02*
G01*
X131787900Y-86625112D01*
X131810125Y-86733856D01*
X131814292Y-86798745D01*
X131815681Y-86868000D01*
X131814292Y-86937056D01*
X131810125Y-87001350D01*
X131787900Y-87110094D01*
X131740275Y-87183912D01*
X131660106Y-87210900D01*
X131579144Y-87183912D01*
X131532313Y-87110887D01*
X131510088Y-87002144D01*
X131505920Y-86937255D01*
X131504531Y-86868000D01*
X131505920Y-86798944D01*
X131510088Y-86734650D01*
X131532313Y-86625906D01*
X131579144Y-86552087D01*
X131660106Y-86525100D01*
X131741069Y-86552087D01*
G37*
G36*
X130976687Y-86960869D02*
G01*
X131021931Y-87063262D01*
X131006056Y-87133906D01*
X130965575Y-87176769D01*
X130909219Y-87197406D01*
X130844131Y-87202962D01*
X130795713Y-87201375D01*
X130750469Y-87196612D01*
X130750469Y-86929912D01*
X130855244Y-86929912D01*
X130976687Y-86960869D01*
G37*
G36*
X130891756Y-86540181D02*
G01*
X130936206Y-86556056D01*
X130966369Y-86589394D01*
X130977481Y-86645750D01*
X130939381Y-86735444D01*
X130826669Y-86767987D01*
X130750469Y-86767987D01*
X130750469Y-86542562D01*
X130793331Y-86537800D01*
X130839369Y-86536212D01*
X130891756Y-86540181D01*
G37*
D11*
X131818748Y-73490500D02*
X132341252Y-73490500D01*
X131818748Y-74960500D02*
X132341252Y-74960500D01*
X117640000Y-85929500D02*
X117640000Y-84929500D01*
X118640000Y-85929500D02*
X117640000Y-85929500D01*
X119640000Y-83929500D02*
X122240000Y-83929500D01*
X117690000Y-77929500D02*
X117690000Y-83729500D01*
X124190000Y-77829500D02*
X124190000Y-83829500D01*
X119640000Y-77729500D02*
X122240000Y-77729500D01*
X135380000Y-75729500D02*
X135380000Y-76729500D01*
X134380000Y-75729500D02*
X135380000Y-75729500D01*
X133380000Y-77729500D02*
X130780000Y-77729500D01*
X135330000Y-83729500D02*
X135330000Y-77929500D01*
X128830000Y-83829500D02*
X128830000Y-77829500D01*
X133380000Y-83929500D02*
X130780000Y-83929500D01*
X122382000Y-89147000D02*
X123432000Y-89147000D01*
X122382000Y-91647000D02*
X122382000Y-89147000D01*
X123432000Y-89147000D02*
X123432000Y-88157000D01*
X123552000Y-93617000D02*
X129432000Y-93617000D01*
X130602000Y-89147000D02*
X129552000Y-89147000D01*
X130602000Y-91647000D02*
X130602000Y-89147000D01*
X124193500Y-72483500D02*
X125868500Y-72483500D01*
X124193500Y-72483500D02*
X123543500Y-72483500D01*
X124193500Y-69363500D02*
X124843500Y-69363500D01*
X124193500Y-69363500D02*
X123543500Y-69363500D01*
X128814000Y-69363500D02*
X127139000Y-69363500D01*
X128814000Y-69363500D02*
X129464000Y-69363500D01*
X128814000Y-72483500D02*
X128164000Y-72483500D01*
X128814000Y-72483500D02*
X129464000Y-72483500D01*
D12*
X117500400Y-39522400D02*
X117500400Y-67665600D01*
X117500400Y-67665600D02*
X135382000Y-67665600D01*
X117602000Y-39522400D02*
X117500400Y-39522400D01*
X135382000Y-67665600D02*
X135483600Y-67665600D01*
X135483600Y-39522400D02*
X117602000Y-39522400D01*
X135483600Y-67665600D02*
X135483600Y-39522400D01*
D11*
X121201252Y-74960500D02*
X120678748Y-74960500D01*
X121201252Y-73490500D02*
X120678748Y-73490500D01*
%LPC*%
D13*
X131042500Y-74225500D03*
X133117500Y-74225500D03*
D14*
X118690000Y-84829500D03*
X118690000Y-76829500D03*
X123190000Y-84829500D03*
X123190000Y-76829500D03*
X134330000Y-76829500D03*
X134330000Y-84829500D03*
X129830000Y-76829500D03*
X129830000Y-84829500D03*
D15*
X123992000Y-88932000D03*
X124992000Y-88932000D03*
X125992000Y-88932000D03*
X126992000Y-88932000D03*
X127992000Y-88932000D03*
X128992000Y-88932000D03*
D16*
X122692000Y-92807000D03*
X130292000Y-92807000D03*
D17*
X125131000Y-71873500D03*
X125131000Y-69973500D03*
X123256000Y-70923500D03*
D18*
X127876500Y-69973500D03*
X127876500Y-71873500D03*
X129751500Y-70923500D03*
D19*
X120142000Y-44704000D03*
X120142000Y-47244000D03*
X120142000Y-49784000D03*
X120142000Y-52324000D03*
X120142000Y-54864000D03*
X120142000Y-57404000D03*
X120142000Y-59944000D03*
X120142000Y-62484000D03*
X132842000Y-62484000D03*
X132842000Y-59944000D03*
X132842000Y-57404000D03*
X132842000Y-54864000D03*
X132842000Y-52324000D03*
X132842000Y-49784000D03*
X132842000Y-47244000D03*
X132842000Y-44704000D03*
D20*
X121977500Y-74225500D03*
X119902500Y-74225500D03*
%LPD*%
M02*
