G04 #@! TF.GenerationSoftware,KiCad,Pcbnew,7.0.7*
G04 #@! TF.CreationDate,2023-11-19T01:45:29-05:00*
G04 #@! TF.ProjectId,room_environment_monitor,726f6f6d-5f65-46e7-9669-726f6e6d656e,rev?*
G04 #@! TF.SameCoordinates,Original*
G04 #@! TF.FileFunction,Legend,Bot*
G04 #@! TF.FilePolarity,Positive*
%FSLAX46Y46*%
G04 Gerber Fmt 4.6, Leading zero omitted, Abs format (unit mm)*
G04 Created by KiCad (PCBNEW 7.0.7) date 2023-11-19 01:45:29*
%MOMM*%
%LPD*%
G01*
G04 APERTURE LIST*
G04 Aperture macros list*
%AMRoundRect*
0 Rectangle with rounded corners*
0 $1 Rounding radius*
0 $2 $3 $4 $5 $6 $7 $8 $9 X,Y pos of 4 corners*
0 Add a 4 corners polygon primitive as box body*
4,1,4,$2,$3,$4,$5,$6,$7,$8,$9,$2,$3,0*
0 Add four circle primitives for the rounded corners*
1,1,$1+$1,$2,$3*
1,1,$1+$1,$4,$5*
1,1,$1+$1,$6,$7*
1,1,$1+$1,$8,$9*
0 Add four rect primitives between the rounded corners*
20,1,$1+$1,$2,$3,$4,$5,0*
20,1,$1+$1,$4,$5,$6,$7,0*
20,1,$1+$1,$6,$7,$8,$9,0*
20,1,$1+$1,$8,$9,$2,$3,0*%
G04 Aperture macros list end*
%ADD10C,0.150000*%
%ADD11C,0.120000*%
%ADD12C,2.200000*%
%ADD13O,1.066800X1.701800*%
%ADD14R,0.850000X1.600000*%
%ADD15RoundRect,0.250000X0.650000X-0.350000X0.650000X0.350000X-0.650000X0.350000X-0.650000X-0.350000X0*%
%ADD16RoundRect,0.150000X0.625000X-0.150000X0.625000X0.150000X-0.625000X0.150000X-0.625000X-0.150000X0*%
%ADD17RoundRect,0.250001X0.462499X0.624999X-0.462499X0.624999X-0.462499X-0.624999X0.462499X-0.624999X0*%
G04 APERTURE END LIST*
D10*
X106500000Y-119600000D02*
X113500000Y-119600000D01*
X106500000Y-72600000D02*
X106500000Y-119600000D01*
X113500000Y-72600000D02*
X106500000Y-72600000D01*
X113500000Y-119600000D02*
X113500000Y-72600000D01*
X109238094Y-100354819D02*
X109238094Y-99354819D01*
X109238094Y-99354819D02*
X108999999Y-99354819D01*
X108999999Y-99354819D02*
X108857142Y-99402438D01*
X108857142Y-99402438D02*
X108761904Y-99497676D01*
X108761904Y-99497676D02*
X108714285Y-99592914D01*
X108714285Y-99592914D02*
X108666666Y-99783390D01*
X108666666Y-99783390D02*
X108666666Y-99926247D01*
X108666666Y-99926247D02*
X108714285Y-100116723D01*
X108714285Y-100116723D02*
X108761904Y-100211961D01*
X108761904Y-100211961D02*
X108857142Y-100307200D01*
X108857142Y-100307200D02*
X108999999Y-100354819D01*
X108999999Y-100354819D02*
X109238094Y-100354819D01*
X107809523Y-99688152D02*
X107809523Y-100354819D01*
X108047618Y-99307200D02*
X108285713Y-100021485D01*
X108285713Y-100021485D02*
X107666666Y-100021485D01*
X111329819Y-99935714D02*
X111329819Y-99364286D01*
X111329819Y-99650000D02*
X110329819Y-99650000D01*
X110329819Y-99650000D02*
X110472676Y-99554762D01*
X110472676Y-99554762D02*
X110567914Y-99459524D01*
X110567914Y-99459524D02*
X110615533Y-99364286D01*
X101253333Y-88114819D02*
X101253333Y-88829104D01*
X101253333Y-88829104D02*
X101300952Y-88971961D01*
X101300952Y-88971961D02*
X101396190Y-89067200D01*
X101396190Y-89067200D02*
X101539047Y-89114819D01*
X101539047Y-89114819D02*
X101634285Y-89114819D01*
X100872380Y-88114819D02*
X100253333Y-88114819D01*
X100253333Y-88114819D02*
X100586666Y-88495771D01*
X100586666Y-88495771D02*
X100443809Y-88495771D01*
X100443809Y-88495771D02*
X100348571Y-88543390D01*
X100348571Y-88543390D02*
X100300952Y-88591009D01*
X100300952Y-88591009D02*
X100253333Y-88686247D01*
X100253333Y-88686247D02*
X100253333Y-88924342D01*
X100253333Y-88924342D02*
X100300952Y-89019580D01*
X100300952Y-89019580D02*
X100348571Y-89067200D01*
X100348571Y-89067200D02*
X100443809Y-89114819D01*
X100443809Y-89114819D02*
X100729523Y-89114819D01*
X100729523Y-89114819D02*
X100824761Y-89067200D01*
X100824761Y-89067200D02*
X100872380Y-89019580D01*
X113204819Y-83611905D02*
X112204819Y-83611905D01*
X112204819Y-83611905D02*
X112204819Y-83850000D01*
X112204819Y-83850000D02*
X112252438Y-83992857D01*
X112252438Y-83992857D02*
X112347676Y-84088095D01*
X112347676Y-84088095D02*
X112442914Y-84135714D01*
X112442914Y-84135714D02*
X112633390Y-84183333D01*
X112633390Y-84183333D02*
X112776247Y-84183333D01*
X112776247Y-84183333D02*
X112966723Y-84135714D01*
X112966723Y-84135714D02*
X113061961Y-84088095D01*
X113061961Y-84088095D02*
X113157200Y-83992857D01*
X113157200Y-83992857D02*
X113204819Y-83850000D01*
X113204819Y-83850000D02*
X113204819Y-83611905D01*
X112204819Y-84516667D02*
X112204819Y-85135714D01*
X112204819Y-85135714D02*
X112585771Y-84802381D01*
X112585771Y-84802381D02*
X112585771Y-84945238D01*
X112585771Y-84945238D02*
X112633390Y-85040476D01*
X112633390Y-85040476D02*
X112681009Y-85088095D01*
X112681009Y-85088095D02*
X112776247Y-85135714D01*
X112776247Y-85135714D02*
X113014342Y-85135714D01*
X113014342Y-85135714D02*
X113109580Y-85088095D01*
X113109580Y-85088095D02*
X113157200Y-85040476D01*
X113157200Y-85040476D02*
X113204819Y-84945238D01*
X113204819Y-84945238D02*
X113204819Y-84659524D01*
X113204819Y-84659524D02*
X113157200Y-84564286D01*
X113157200Y-84564286D02*
X113109580Y-84516667D01*
X113204819Y-107161905D02*
X112204819Y-107161905D01*
X112204819Y-107161905D02*
X112204819Y-107400000D01*
X112204819Y-107400000D02*
X112252438Y-107542857D01*
X112252438Y-107542857D02*
X112347676Y-107638095D01*
X112347676Y-107638095D02*
X112442914Y-107685714D01*
X112442914Y-107685714D02*
X112633390Y-107733333D01*
X112633390Y-107733333D02*
X112776247Y-107733333D01*
X112776247Y-107733333D02*
X112966723Y-107685714D01*
X112966723Y-107685714D02*
X113061961Y-107638095D01*
X113061961Y-107638095D02*
X113157200Y-107542857D01*
X113157200Y-107542857D02*
X113204819Y-107400000D01*
X113204819Y-107400000D02*
X113204819Y-107161905D01*
X112204819Y-108638095D02*
X112204819Y-108161905D01*
X112204819Y-108161905D02*
X112681009Y-108114286D01*
X112681009Y-108114286D02*
X112633390Y-108161905D01*
X112633390Y-108161905D02*
X112585771Y-108257143D01*
X112585771Y-108257143D02*
X112585771Y-108495238D01*
X112585771Y-108495238D02*
X112633390Y-108590476D01*
X112633390Y-108590476D02*
X112681009Y-108638095D01*
X112681009Y-108638095D02*
X112776247Y-108685714D01*
X112776247Y-108685714D02*
X113014342Y-108685714D01*
X113014342Y-108685714D02*
X113109580Y-108638095D01*
X113109580Y-108638095D02*
X113157200Y-108590476D01*
X113157200Y-108590476D02*
X113204819Y-108495238D01*
X113204819Y-108495238D02*
X113204819Y-108257143D01*
X113204819Y-108257143D02*
X113157200Y-108161905D01*
X113157200Y-108161905D02*
X113109580Y-108114286D01*
X111329819Y-111685714D02*
X111329819Y-111114286D01*
X111329819Y-111400000D02*
X110329819Y-111400000D01*
X110329819Y-111400000D02*
X110472676Y-111304762D01*
X110472676Y-111304762D02*
X110567914Y-111209524D01*
X110567914Y-111209524D02*
X110615533Y-111114286D01*
X110750594Y-74684819D02*
X110750594Y-73684819D01*
X110750594Y-73684819D02*
X110512499Y-73684819D01*
X110512499Y-73684819D02*
X110369642Y-73732438D01*
X110369642Y-73732438D02*
X110274404Y-73827676D01*
X110274404Y-73827676D02*
X110226785Y-73922914D01*
X110226785Y-73922914D02*
X110179166Y-74113390D01*
X110179166Y-74113390D02*
X110179166Y-74256247D01*
X110179166Y-74256247D02*
X110226785Y-74446723D01*
X110226785Y-74446723D02*
X110274404Y-74541961D01*
X110274404Y-74541961D02*
X110369642Y-74637200D01*
X110369642Y-74637200D02*
X110512499Y-74684819D01*
X110512499Y-74684819D02*
X110750594Y-74684819D01*
X109322023Y-73684819D02*
X109512499Y-73684819D01*
X109512499Y-73684819D02*
X109607737Y-73732438D01*
X109607737Y-73732438D02*
X109655356Y-73780057D01*
X109655356Y-73780057D02*
X109750594Y-73922914D01*
X109750594Y-73922914D02*
X109798213Y-74113390D01*
X109798213Y-74113390D02*
X109798213Y-74494342D01*
X109798213Y-74494342D02*
X109750594Y-74589580D01*
X109750594Y-74589580D02*
X109702975Y-74637200D01*
X109702975Y-74637200D02*
X109607737Y-74684819D01*
X109607737Y-74684819D02*
X109417261Y-74684819D01*
X109417261Y-74684819D02*
X109322023Y-74637200D01*
X109322023Y-74637200D02*
X109274404Y-74589580D01*
X109274404Y-74589580D02*
X109226785Y-74494342D01*
X109226785Y-74494342D02*
X109226785Y-74256247D01*
X109226785Y-74256247D02*
X109274404Y-74161009D01*
X109274404Y-74161009D02*
X109322023Y-74113390D01*
X109322023Y-74113390D02*
X109417261Y-74065771D01*
X109417261Y-74065771D02*
X109607737Y-74065771D01*
X109607737Y-74065771D02*
X109702975Y-74113390D01*
X109702975Y-74113390D02*
X109750594Y-74161009D01*
X109750594Y-74161009D02*
X109798213Y-74256247D01*
D11*
X108050000Y-93200000D02*
X109125000Y-93200000D01*
X111950000Y-99100000D02*
X111950000Y-93200000D01*
X108050000Y-99100000D02*
X108050000Y-93200000D01*
X100035000Y-80790000D02*
X100035000Y-81840000D01*
X97535000Y-80790000D02*
X100035000Y-80790000D01*
X95565000Y-87840000D02*
X95565000Y-81960000D01*
X100035000Y-87960000D02*
X101025000Y-87960000D01*
X100035000Y-89010000D02*
X100035000Y-87960000D01*
X97535000Y-89010000D02*
X100035000Y-89010000D01*
X108050000Y-81400000D02*
X109125000Y-81400000D01*
X111950000Y-87300000D02*
X111950000Y-81400000D01*
X108050000Y-87300000D02*
X108050000Y-81400000D01*
X108050000Y-104950000D02*
X109125000Y-104950000D01*
X111950000Y-110850000D02*
X111950000Y-104950000D01*
X108050000Y-110850000D02*
X108050000Y-104950000D01*
X108412500Y-74915000D02*
X112472500Y-74915000D01*
X112472500Y-74915000D02*
X112472500Y-77185000D01*
X112472500Y-77185000D02*
X108412500Y-77185000D01*
%LPC*%
D12*
X102500000Y-138700000D03*
D13*
X105730001Y-142900003D03*
X114269999Y-142900003D03*
D12*
X117500000Y-138700000D03*
X103500000Y-72500000D03*
D14*
X110875000Y-94400000D03*
X109125000Y-94400000D03*
X109125000Y-97900000D03*
X110875000Y-97900000D03*
D15*
X96375000Y-81100000D03*
X96375000Y-88700000D03*
D16*
X100250000Y-82400000D03*
X100250000Y-83400000D03*
X100250000Y-84400000D03*
X100250000Y-85400000D03*
X100250000Y-86400000D03*
X100250000Y-87400000D03*
D14*
X110875000Y-82600000D03*
X109125000Y-82600000D03*
X109125000Y-86100000D03*
X110875000Y-86100000D03*
X110875000Y-106150000D03*
X109125000Y-106150000D03*
X109125000Y-109650000D03*
X110875000Y-109650000D03*
D17*
X108525000Y-76050000D03*
X111500000Y-76050000D03*
%LPD*%
M02*
