M48
; DRILL file {KiCad 7.0.7} date 2023 November 19, Sunday 01:45:31
; FORMAT={-:-/ absolute / inch / decimal}
; #@! TF.CreationDate,2023-11-19T01:45:31-05:00
; #@! TF.GenerationSoftware,Kicad,Pcbnew,7.0.7
; #@! TF.FileFunction,Plated,1,4,PTH
FMAT,2
INCH
; #@! TA.AperFunction,Plated,PTH,ViaDrill
T1C0.0118
; #@! TA.AperFunction,Plated,PTH,ViaDrill
T2C0.0157
; #@! TA.AperFunction,Plated,PTH,ComponentDrill
T3C0.0197
; #@! TA.AperFunction,Plated,PTH,ComponentDrill
T4C0.0217
; #@! TA.AperFunction,Plated,PTH,ViaDrill
T5C0.0315
%
G90
G05
T1
X4.1693Y-3.3031
X4.1693Y-3.3425
X4.2165Y-3.1142
X4.2283Y-3.1614
X4.3543Y-3.1732
X4.378Y-3.4488
X4.748Y-3.5984
T2
X3.7598Y-3.7717
X3.7613Y-3.6245
X3.7953Y-3.063
X3.8356Y-3.7697
X3.8484Y-3.5335
X3.8583Y-3.2677
X3.8583Y-3.3465
X3.8583Y-3.4173
X3.9045Y-3.7697
X3.937Y-3.6122
X4.0Y-3.5276
X4.0079Y-2.9843
X4.0157Y-3.3465
X4.065Y-3.1594
X4.0778Y-5.2904
X4.0787Y-2.9843
X4.0945Y-3.189
X4.1142Y-3.0709
X4.1368Y-5.123
X4.1368Y-5.1624
X4.1726Y-3.6931
X4.1732Y-2.9331
X4.1732Y-3.7697
X4.1732Y-5.4232
X4.1732Y-5.4921
X4.186Y-5.123
X4.189Y-2.8189
X4.189Y-2.9843
X4.2126Y-5.4528
X4.2362Y-3.378
X4.2362Y-3.7756
X4.2447Y-2.8218
X4.2559Y-3.5118
X4.2992Y-3.9094
X4.2992Y-4.374
X4.3041Y-5.1821
X4.311Y-5.4232
X4.311Y-5.4921
X4.311Y-5.5433
X4.313Y-3.6243
X4.3406Y-2.815
X4.3533Y-5.2411
X4.3566Y-3.0999
X4.3898Y-5.4547
X4.3898Y-5.5118
X4.4016Y-3.7953
X4.4134Y-3.3504
X4.4142Y-5.3839
X4.4213Y-3.4961
X4.4331Y-3.0541
X4.4488Y-5.4528
X4.4496Y-2.9941
X4.4567Y-3.7283
X4.4567Y-3.815
X4.4717Y-5.2902
X4.4868Y-3.5849
X4.4882Y-2.9528
X4.498Y-5.4232
X4.498Y-5.4921
X4.5157Y-3.5276
X4.5256Y-3.6943
X4.5394Y-3.6575
X4.6063Y-3.189
X4.6063Y-3.815
X4.6319Y-3.782
X4.8937Y-3.5039
T5
X4.6063Y-3.248
X4.6063Y-3.3071
X4.752Y-3.752
T3
G00X4.4988Y-5.6122
M15
G01X4.4988Y-5.6398
M16
G05
T4
G00X4.1626Y-5.6161
M15
G01X4.1626Y-5.6358
M16
G05
T0
M30
