G04 #@! TF.GenerationSoftware,KiCad,Pcbnew,7.0.7*
G04 #@! TF.CreationDate,2023-11-19T01:45:29-05:00*
G04 #@! TF.ProjectId,room_environment_monitor,726f6f6d-5f65-46e7-9669-726f6e6d656e,rev?*
G04 #@! TF.SameCoordinates,Original*
G04 #@! TF.FileFunction,Copper,L3,Inr*
G04 #@! TF.FilePolarity,Positive*
%FSLAX46Y46*%
G04 Gerber Fmt 4.6, Leading zero omitted, Abs format (unit mm)*
G04 Created by KiCad (PCBNEW 7.0.7) date 2023-11-19 01:45:29*
%MOMM*%
%LPD*%
G01*
G04 APERTURE LIST*
G04 #@! TA.AperFunction,ComponentPad*
%ADD10O,1.066800X1.701800*%
G04 #@! TD*
G04 #@! TA.AperFunction,ViaPad*
%ADD11C,0.800000*%
G04 #@! TD*
G04 #@! TA.AperFunction,ViaPad*
%ADD12C,1.200000*%
G04 #@! TD*
G04 #@! TA.AperFunction,ViaPad*
%ADD13C,0.600000*%
G04 #@! TD*
G04 APERTURE END LIST*
D10*
X105730001Y-142900003D03*
X114269999Y-142900003D03*
D11*
X113964711Y-91056219D03*
X96400000Y-77800000D03*
X101600000Y-89600000D03*
X103575000Y-134375000D03*
X95500000Y-95800000D03*
X97425000Y-95750000D03*
X107600000Y-95900000D03*
D12*
X117000000Y-84000000D03*
D11*
X109325000Y-131625000D03*
X110575000Y-133125000D03*
X106400000Y-71600000D03*
X98000000Y-85000000D03*
X106000000Y-137750000D03*
X113200000Y-96900000D03*
X104500000Y-78000000D03*
X107600000Y-85800000D03*
X98000000Y-83000000D03*
X106000000Y-139500000D03*
X115300000Y-92900000D03*
X109550001Y-92056200D03*
D12*
X120700000Y-95300000D03*
D11*
X102000000Y-85000000D03*
X109200000Y-99300000D03*
X114250000Y-137750000D03*
X105985081Y-93804619D03*
X98000000Y-86800000D03*
X113000000Y-138500000D03*
X114700000Y-89600000D03*
X109200000Y-111100000D03*
X113580000Y-134370000D03*
X114250000Y-139500000D03*
X107000000Y-138500000D03*
X99175000Y-95750000D03*
X112100000Y-85100000D03*
X104000000Y-81000000D03*
X111800000Y-96400000D03*
X117000000Y-96900000D03*
X112600000Y-77575000D03*
X106400000Y-75800000D03*
X108100000Y-89200000D03*
X105075000Y-130125000D03*
X113020000Y-76050000D03*
X107815962Y-71673806D03*
X95537701Y-92062299D03*
X113200000Y-94700000D03*
X105075000Y-131125000D03*
X106325000Y-130125000D03*
D13*
X110600000Y-80600000D03*
D11*
X97750000Y-89750000D03*
X103600000Y-75800000D03*
X117650000Y-96062500D03*
X106000000Y-95750000D03*
X110250000Y-71500000D03*
D12*
X117000000Y-82500000D03*
D11*
X109500000Y-139500000D03*
X111500000Y-138550000D03*
X109500000Y-137750000D03*
X124300000Y-89000000D03*
X111500000Y-140000000D03*
X110657911Y-78736508D03*
X103250000Y-80250000D03*
D13*
X107400000Y-80300000D03*
X105900000Y-84900000D03*
X111200000Y-87600000D03*
X120600000Y-91400000D03*
X107100000Y-79100000D03*
X105900000Y-83900000D03*
D11*
X112300000Y-88800000D03*
X114949051Y-93835863D03*
X112120000Y-136750000D03*
X109500000Y-140800000D03*
X101800000Y-75800000D03*
X117000000Y-81000000D03*
X114000000Y-75000000D03*
X106000000Y-74500000D03*
X100000000Y-91750000D03*
G04 #@! TA.AperFunction,Conductor*
G36*
X119942539Y-70020185D02*
G01*
X119988294Y-70072989D01*
X119999500Y-70124500D01*
X119999500Y-85225467D01*
X119999416Y-85225889D01*
X119999459Y-85250001D01*
X119999500Y-85250099D01*
X119999616Y-85250382D01*
X119999618Y-85250384D01*
X119999808Y-85250462D01*
X120000000Y-85250541D01*
X120000002Y-85250539D01*
X120024616Y-85250524D01*
X120024616Y-85250528D01*
X120024760Y-85250500D01*
X129875500Y-85250500D01*
X129942539Y-85270185D01*
X129988294Y-85322989D01*
X129999500Y-85374500D01*
X129999500Y-97625500D01*
X129979815Y-97692539D01*
X129927011Y-97738294D01*
X129875500Y-97749500D01*
X120024760Y-97749500D01*
X120024554Y-97749459D01*
X120000000Y-97749459D01*
X119999901Y-97749500D01*
X119999617Y-97749616D01*
X119999615Y-97749618D01*
X119999459Y-97749999D01*
X119999476Y-97774616D01*
X119999471Y-97774616D01*
X119999500Y-97774759D01*
X119999500Y-141375500D01*
X119979815Y-141442539D01*
X119927011Y-141488294D01*
X119875500Y-141499500D01*
X116724760Y-141499500D01*
X116724554Y-141499459D01*
X116700000Y-141499459D01*
X116699901Y-141499500D01*
X116699617Y-141499616D01*
X116699615Y-141499618D01*
X116699459Y-141499999D01*
X116699476Y-141524616D01*
X116699471Y-141524616D01*
X116699499Y-141524759D01*
X116699500Y-144375500D01*
X116679815Y-144442539D01*
X116627012Y-144488294D01*
X116575500Y-144499500D01*
X114325903Y-144499500D01*
X114266842Y-144482157D01*
X114237200Y-144497328D01*
X114214095Y-144499500D01*
X105785905Y-144499500D01*
X105726844Y-144482157D01*
X105697202Y-144497328D01*
X105674097Y-144499500D01*
X103424500Y-144499500D01*
X103357461Y-144479815D01*
X103311706Y-144427011D01*
X103300500Y-144375500D01*
X103300500Y-143268296D01*
X104696100Y-143268296D01*
X104711060Y-143420185D01*
X104770180Y-143615075D01*
X104866181Y-143794681D01*
X104866185Y-143794688D01*
X104995385Y-143952118D01*
X105152815Y-144081318D01*
X105152822Y-144081322D01*
X105332428Y-144177323D01*
X105332430Y-144177324D01*
X105527321Y-144236444D01*
X105686251Y-144252097D01*
X105730226Y-144269854D01*
X105750970Y-144256523D01*
X105773750Y-144252097D01*
X105932681Y-144236444D01*
X106127572Y-144177324D01*
X106307185Y-144081319D01*
X106464616Y-143952118D01*
X106593817Y-143794687D01*
X106689822Y-143615074D01*
X106748942Y-143420183D01*
X106763901Y-143268300D01*
X106763901Y-143268296D01*
X113236099Y-143268296D01*
X113251058Y-143420185D01*
X113310178Y-143615075D01*
X113406179Y-143794681D01*
X113406183Y-143794688D01*
X113535383Y-143952118D01*
X113692813Y-144081318D01*
X113692820Y-144081322D01*
X113872426Y-144177323D01*
X113872428Y-144177324D01*
X114067319Y-144236444D01*
X114226249Y-144252097D01*
X114270224Y-144269854D01*
X114290968Y-144256523D01*
X114313748Y-144252097D01*
X114472679Y-144236444D01*
X114667570Y-144177324D01*
X114847183Y-144081319D01*
X115004614Y-143952118D01*
X115133815Y-143794687D01*
X115229820Y-143615074D01*
X115288940Y-143420183D01*
X115303899Y-143268300D01*
X115303899Y-142531706D01*
X115288940Y-142379823D01*
X115229820Y-142184932D01*
X115133815Y-142005319D01*
X115133814Y-142005317D01*
X115004614Y-141847887D01*
X114847184Y-141718687D01*
X114847177Y-141718683D01*
X114667571Y-141622682D01*
X114472681Y-141563562D01*
X114269999Y-141543600D01*
X114067316Y-141563562D01*
X113872426Y-141622682D01*
X113692820Y-141718683D01*
X113692813Y-141718687D01*
X113535383Y-141847887D01*
X113406183Y-142005317D01*
X113406179Y-142005324D01*
X113310178Y-142184930D01*
X113251058Y-142379820D01*
X113236099Y-142531709D01*
X113236099Y-143268296D01*
X106763901Y-143268296D01*
X106763901Y-142531706D01*
X106748942Y-142379823D01*
X106689822Y-142184932D01*
X106593817Y-142005319D01*
X106593816Y-142005317D01*
X106464616Y-141847887D01*
X106307186Y-141718687D01*
X106307179Y-141718683D01*
X106127573Y-141622682D01*
X105932683Y-141563562D01*
X105730001Y-141543600D01*
X105527318Y-141563562D01*
X105332428Y-141622682D01*
X105152822Y-141718683D01*
X105152815Y-141718687D01*
X104995385Y-141847887D01*
X104866185Y-142005317D01*
X104866181Y-142005324D01*
X104770180Y-142184930D01*
X104711060Y-142379820D01*
X104696100Y-142531709D01*
X104696100Y-143268296D01*
X103300500Y-143268296D01*
X103300500Y-141524759D01*
X103300528Y-141524616D01*
X103300524Y-141524616D01*
X103300539Y-141500002D01*
X103300541Y-141500000D01*
X103300462Y-141499808D01*
X103300384Y-141499618D01*
X103300382Y-141499616D01*
X103300099Y-141499500D01*
X103300000Y-141499459D01*
X103275446Y-141499459D01*
X103275240Y-141499500D01*
X100124500Y-141499500D01*
X100057461Y-141479815D01*
X100011706Y-141427011D01*
X100000500Y-141375500D01*
X100000500Y-140800000D01*
X108594540Y-140800000D01*
X108614326Y-140988256D01*
X108614327Y-140988259D01*
X108672818Y-141168277D01*
X108672821Y-141168284D01*
X108767467Y-141332216D01*
X108852821Y-141427011D01*
X108894129Y-141472888D01*
X109047265Y-141584148D01*
X109047270Y-141584151D01*
X109220192Y-141661142D01*
X109220197Y-141661144D01*
X109405354Y-141700500D01*
X109405355Y-141700500D01*
X109594644Y-141700500D01*
X109594646Y-141700500D01*
X109779803Y-141661144D01*
X109952730Y-141584151D01*
X110105871Y-141472888D01*
X110232533Y-141332216D01*
X110327179Y-141168284D01*
X110385674Y-140988256D01*
X110405460Y-140800000D01*
X110385674Y-140611744D01*
X110327179Y-140431716D01*
X110232533Y-140267784D01*
X110201188Y-140232972D01*
X110170958Y-140169981D01*
X110179583Y-140100645D01*
X110201188Y-140067028D01*
X110202915Y-140065109D01*
X110232533Y-140032216D01*
X110251133Y-140000000D01*
X110594540Y-140000000D01*
X110614326Y-140188256D01*
X110614327Y-140188259D01*
X110672818Y-140368277D01*
X110672821Y-140368284D01*
X110767467Y-140532216D01*
X110839071Y-140611740D01*
X110894129Y-140672888D01*
X111047265Y-140784148D01*
X111047270Y-140784151D01*
X111220192Y-140861142D01*
X111220197Y-140861144D01*
X111405354Y-140900500D01*
X111405355Y-140900500D01*
X111594644Y-140900500D01*
X111594646Y-140900500D01*
X111779803Y-140861144D01*
X111952730Y-140784151D01*
X112105871Y-140672888D01*
X112232533Y-140532216D01*
X112327179Y-140368284D01*
X112385674Y-140188256D01*
X112405460Y-140000000D01*
X112385674Y-139811744D01*
X112327179Y-139631716D01*
X112232533Y-139467784D01*
X112133655Y-139357969D01*
X112103427Y-139294981D01*
X112112052Y-139225646D01*
X112133655Y-139192030D01*
X112180361Y-139140157D01*
X112239847Y-139103510D01*
X112309704Y-139104841D01*
X112364660Y-139140159D01*
X112394129Y-139172888D01*
X112547265Y-139284148D01*
X112547270Y-139284151D01*
X112720192Y-139361142D01*
X112720197Y-139361144D01*
X112905354Y-139400500D01*
X112905355Y-139400500D01*
X113094644Y-139400500D01*
X113094646Y-139400500D01*
X113194760Y-139379220D01*
X113264426Y-139384536D01*
X113320160Y-139426673D01*
X113344265Y-139492253D01*
X113344515Y-139499759D01*
X113344540Y-139499998D01*
X113344540Y-139500000D01*
X113364326Y-139688256D01*
X113364327Y-139688259D01*
X113422818Y-139868277D01*
X113422821Y-139868284D01*
X113517467Y-140032216D01*
X113641512Y-140169981D01*
X113644129Y-140172888D01*
X113797265Y-140284148D01*
X113797270Y-140284151D01*
X113970192Y-140361142D01*
X113970197Y-140361144D01*
X114155354Y-140400500D01*
X114155355Y-140400500D01*
X114344644Y-140400500D01*
X114344646Y-140400500D01*
X114529803Y-140361144D01*
X114702730Y-140284151D01*
X114855871Y-140172888D01*
X114982533Y-140032216D01*
X115077179Y-139868284D01*
X115135674Y-139688256D01*
X115155460Y-139500000D01*
X115135674Y-139311744D01*
X115077179Y-139131716D01*
X114982533Y-138967784D01*
X114855871Y-138827112D01*
X114715762Y-138725317D01*
X114696240Y-138700000D01*
X116144341Y-138700000D01*
X116164936Y-138935403D01*
X116164938Y-138935413D01*
X116226094Y-139163655D01*
X116226096Y-139163659D01*
X116226097Y-139163663D01*
X116268698Y-139255020D01*
X116325964Y-139377828D01*
X116325965Y-139377830D01*
X116461505Y-139571402D01*
X116628597Y-139738494D01*
X116822169Y-139874034D01*
X116822171Y-139874035D01*
X117036337Y-139973903D01*
X117264592Y-140035063D01*
X117441034Y-140050500D01*
X117558966Y-140050500D01*
X117735408Y-140035063D01*
X117963663Y-139973903D01*
X118177829Y-139874035D01*
X118371401Y-139738495D01*
X118538495Y-139571401D01*
X118674035Y-139377830D01*
X118773903Y-139163663D01*
X118835063Y-138935408D01*
X118855659Y-138700000D01*
X118835063Y-138464592D01*
X118773903Y-138236337D01*
X118674035Y-138022171D01*
X118674034Y-138022169D01*
X118538494Y-137828597D01*
X118371402Y-137661505D01*
X118177830Y-137525965D01*
X118177828Y-137525964D01*
X118070746Y-137476030D01*
X117963663Y-137426097D01*
X117963659Y-137426096D01*
X117963655Y-137426094D01*
X117735413Y-137364938D01*
X117735403Y-137364936D01*
X117558966Y-137349500D01*
X117441034Y-137349500D01*
X117264596Y-137364936D01*
X117264586Y-137364938D01*
X117036344Y-137426094D01*
X117036337Y-137426096D01*
X117036337Y-137426097D01*
X117033783Y-137427288D01*
X116822171Y-137525964D01*
X116822169Y-137525965D01*
X116628597Y-137661505D01*
X116461506Y-137828597D01*
X116461501Y-137828604D01*
X116325967Y-138022165D01*
X116325965Y-138022169D01*
X116226098Y-138236335D01*
X116226094Y-138236344D01*
X116164938Y-138464586D01*
X116164936Y-138464596D01*
X116144341Y-138699999D01*
X116144341Y-138700000D01*
X114696240Y-138700000D01*
X114673097Y-138669988D01*
X114667118Y-138600375D01*
X114699723Y-138538580D01*
X114715763Y-138524682D01*
X114749736Y-138499999D01*
X114855871Y-138422888D01*
X114982533Y-138282216D01*
X115077179Y-138118284D01*
X115135674Y-137938256D01*
X115155460Y-137750000D01*
X115135674Y-137561744D01*
X115077179Y-137381716D01*
X114982533Y-137217784D01*
X114855871Y-137077112D01*
X114855870Y-137077111D01*
X114702734Y-136965851D01*
X114702729Y-136965848D01*
X114529807Y-136888857D01*
X114529802Y-136888855D01*
X114384001Y-136857865D01*
X114344646Y-136849500D01*
X114155354Y-136849500D01*
X114122897Y-136856398D01*
X113970197Y-136888855D01*
X113970192Y-136888857D01*
X113797270Y-136965848D01*
X113797265Y-136965851D01*
X113644129Y-137077111D01*
X113517466Y-137217785D01*
X113422821Y-137381715D01*
X113422819Y-137381719D01*
X113369930Y-137544495D01*
X113330492Y-137602170D01*
X113266133Y-137629368D01*
X113226219Y-137627466D01*
X113094646Y-137599500D01*
X112905354Y-137599500D01*
X112860020Y-137609136D01*
X112790353Y-137603819D01*
X112734620Y-137561681D01*
X112710516Y-137496100D01*
X112725694Y-137427899D01*
X112742084Y-137404881D01*
X112852533Y-137282216D01*
X112947179Y-137118284D01*
X113005674Y-136938256D01*
X113025460Y-136750000D01*
X113005674Y-136561744D01*
X112947179Y-136381716D01*
X112852533Y-136217784D01*
X112725871Y-136077112D01*
X112725870Y-136077111D01*
X112572734Y-135965851D01*
X112572729Y-135965848D01*
X112399807Y-135888857D01*
X112399802Y-135888855D01*
X112254000Y-135857865D01*
X112214646Y-135849500D01*
X112025354Y-135849500D01*
X111992897Y-135856398D01*
X111840197Y-135888855D01*
X111840192Y-135888857D01*
X111667270Y-135965848D01*
X111667265Y-135965851D01*
X111514129Y-136077111D01*
X111387466Y-136217785D01*
X111292821Y-136381715D01*
X111292818Y-136381722D01*
X111234327Y-136561740D01*
X111234326Y-136561744D01*
X111214540Y-136750000D01*
X111234326Y-136938256D01*
X111234327Y-136938259D01*
X111292818Y-137118277D01*
X111292821Y-137118284D01*
X111387467Y-137282216D01*
X111477060Y-137381719D01*
X111514129Y-137422888D01*
X111514132Y-137422890D01*
X111517287Y-137425183D01*
X111518670Y-137426977D01*
X111518958Y-137427236D01*
X111518910Y-137427288D01*
X111559953Y-137480513D01*
X111565931Y-137550127D01*
X111533324Y-137611921D01*
X111472485Y-137646278D01*
X111444401Y-137649500D01*
X111405354Y-137649500D01*
X111372897Y-137656398D01*
X111220197Y-137688855D01*
X111220192Y-137688857D01*
X111047270Y-137765848D01*
X111047265Y-137765851D01*
X110894129Y-137877111D01*
X110767466Y-138017785D01*
X110672821Y-138181715D01*
X110672818Y-138181722D01*
X110640166Y-138282216D01*
X110614326Y-138361744D01*
X110594540Y-138550000D01*
X110614326Y-138738256D01*
X110614327Y-138738259D01*
X110672818Y-138918277D01*
X110672821Y-138918284D01*
X110767467Y-139082216D01*
X110787839Y-139104841D01*
X110866342Y-139192028D01*
X110896572Y-139255020D01*
X110887947Y-139324355D01*
X110866342Y-139357972D01*
X110767466Y-139467785D01*
X110672821Y-139631715D01*
X110672818Y-139631722D01*
X110638126Y-139738495D01*
X110614326Y-139811744D01*
X110594540Y-140000000D01*
X110251133Y-140000000D01*
X110327179Y-139868284D01*
X110385674Y-139688256D01*
X110405460Y-139500000D01*
X110385674Y-139311744D01*
X110327179Y-139131716D01*
X110232533Y-138967784D01*
X110105871Y-138827112D01*
X109965762Y-138725317D01*
X109923097Y-138669988D01*
X109917118Y-138600375D01*
X109949723Y-138538580D01*
X109965763Y-138524682D01*
X109999736Y-138499999D01*
X110105871Y-138422888D01*
X110232533Y-138282216D01*
X110327179Y-138118284D01*
X110385674Y-137938256D01*
X110405460Y-137750000D01*
X110385674Y-137561744D01*
X110327179Y-137381716D01*
X110232533Y-137217784D01*
X110105871Y-137077112D01*
X110105870Y-137077111D01*
X109952734Y-136965851D01*
X109952729Y-136965848D01*
X109779807Y-136888857D01*
X109779802Y-136888855D01*
X109634000Y-136857865D01*
X109594646Y-136849500D01*
X109405354Y-136849500D01*
X109372897Y-136856398D01*
X109220197Y-136888855D01*
X109220192Y-136888857D01*
X109047270Y-136965848D01*
X109047265Y-136965851D01*
X108894129Y-137077111D01*
X108767466Y-137217785D01*
X108672821Y-137381715D01*
X108672818Y-137381722D01*
X108614346Y-137561681D01*
X108614326Y-137561744D01*
X108594540Y-137750000D01*
X108614326Y-137938256D01*
X108614327Y-137938259D01*
X108672818Y-138118277D01*
X108672821Y-138118284D01*
X108767467Y-138282216D01*
X108839071Y-138361740D01*
X108894129Y-138422888D01*
X109034236Y-138524682D01*
X109076902Y-138580012D01*
X109082881Y-138649625D01*
X109050275Y-138711420D01*
X109034236Y-138725318D01*
X108894129Y-138827111D01*
X108767466Y-138967785D01*
X108672821Y-139131715D01*
X108672818Y-139131722D01*
X108614327Y-139311740D01*
X108614326Y-139311744D01*
X108594540Y-139500000D01*
X108614326Y-139688256D01*
X108614327Y-139688259D01*
X108672818Y-139868277D01*
X108672821Y-139868284D01*
X108767467Y-140032216D01*
X108783930Y-140050500D01*
X108798812Y-140067029D01*
X108829041Y-140130021D01*
X108820415Y-140199356D01*
X108798812Y-140232971D01*
X108767466Y-140267785D01*
X108672821Y-140431715D01*
X108672818Y-140431722D01*
X108640166Y-140532216D01*
X108614326Y-140611744D01*
X108594540Y-140800000D01*
X100000500Y-140800000D01*
X100000500Y-138700000D01*
X101144341Y-138700000D01*
X101164936Y-138935403D01*
X101164938Y-138935413D01*
X101226094Y-139163655D01*
X101226096Y-139163659D01*
X101226097Y-139163663D01*
X101268698Y-139255020D01*
X101325964Y-139377828D01*
X101325965Y-139377830D01*
X101461505Y-139571402D01*
X101628597Y-139738494D01*
X101822169Y-139874034D01*
X101822171Y-139874035D01*
X102036337Y-139973903D01*
X102264592Y-140035063D01*
X102441034Y-140050500D01*
X102558966Y-140050500D01*
X102735408Y-140035063D01*
X102963663Y-139973903D01*
X103177829Y-139874035D01*
X103371401Y-139738495D01*
X103538495Y-139571401D01*
X103588491Y-139500000D01*
X105094540Y-139500000D01*
X105114326Y-139688256D01*
X105114327Y-139688259D01*
X105172818Y-139868277D01*
X105172821Y-139868284D01*
X105267467Y-140032216D01*
X105391512Y-140169981D01*
X105394129Y-140172888D01*
X105547265Y-140284148D01*
X105547270Y-140284151D01*
X105720192Y-140361142D01*
X105720197Y-140361144D01*
X105905354Y-140400500D01*
X105905355Y-140400500D01*
X106094644Y-140400500D01*
X106094646Y-140400500D01*
X106279803Y-140361144D01*
X106452730Y-140284151D01*
X106605871Y-140172888D01*
X106732533Y-140032216D01*
X106827179Y-139868284D01*
X106885674Y-139688256D01*
X106904247Y-139511536D01*
X106930832Y-139446924D01*
X106988129Y-139406939D01*
X107027568Y-139400500D01*
X107094644Y-139400500D01*
X107094646Y-139400500D01*
X107279803Y-139361144D01*
X107452730Y-139284151D01*
X107605871Y-139172888D01*
X107732533Y-139032216D01*
X107827179Y-138868284D01*
X107885674Y-138688256D01*
X107905460Y-138500000D01*
X107885674Y-138311744D01*
X107827179Y-138131716D01*
X107732533Y-137967784D01*
X107605871Y-137827112D01*
X107605870Y-137827111D01*
X107452734Y-137715851D01*
X107452729Y-137715848D01*
X107279807Y-137638857D01*
X107279802Y-137638855D01*
X107107207Y-137602170D01*
X107094646Y-137599500D01*
X106988033Y-137599500D01*
X106920994Y-137579815D01*
X106875239Y-137527011D01*
X106870102Y-137513818D01*
X106827181Y-137381722D01*
X106827180Y-137381719D01*
X106827179Y-137381716D01*
X106732533Y-137217784D01*
X106605871Y-137077112D01*
X106605870Y-137077111D01*
X106452734Y-136965851D01*
X106452729Y-136965848D01*
X106279807Y-136888857D01*
X106279802Y-136888855D01*
X106134001Y-136857865D01*
X106094646Y-136849500D01*
X105905354Y-136849500D01*
X105872897Y-136856398D01*
X105720197Y-136888855D01*
X105720192Y-136888857D01*
X105547270Y-136965848D01*
X105547265Y-136965851D01*
X105394129Y-137077111D01*
X105267466Y-137217785D01*
X105172821Y-137381715D01*
X105172818Y-137381722D01*
X105114346Y-137561681D01*
X105114326Y-137561744D01*
X105094540Y-137750000D01*
X105114326Y-137938256D01*
X105114327Y-137938259D01*
X105172818Y-138118277D01*
X105172821Y-138118284D01*
X105267467Y-138282216D01*
X105339071Y-138361740D01*
X105394129Y-138422888D01*
X105534236Y-138524682D01*
X105576902Y-138580012D01*
X105582881Y-138649625D01*
X105550275Y-138711420D01*
X105534236Y-138725318D01*
X105394129Y-138827111D01*
X105267466Y-138967785D01*
X105172821Y-139131715D01*
X105172818Y-139131722D01*
X105114327Y-139311740D01*
X105114326Y-139311744D01*
X105094540Y-139500000D01*
X103588491Y-139500000D01*
X103674035Y-139377830D01*
X103773903Y-139163663D01*
X103835063Y-138935408D01*
X103855659Y-138700000D01*
X103835063Y-138464592D01*
X103773903Y-138236337D01*
X103674035Y-138022171D01*
X103674034Y-138022169D01*
X103538494Y-137828597D01*
X103371402Y-137661505D01*
X103177830Y-137525965D01*
X103177828Y-137525964D01*
X103070746Y-137476030D01*
X102963663Y-137426097D01*
X102963659Y-137426096D01*
X102963655Y-137426094D01*
X102735413Y-137364938D01*
X102735403Y-137364936D01*
X102558966Y-137349500D01*
X102441034Y-137349500D01*
X102264596Y-137364936D01*
X102264586Y-137364938D01*
X102036344Y-137426094D01*
X102036337Y-137426096D01*
X102036337Y-137426097D01*
X102033783Y-137427288D01*
X101822171Y-137525964D01*
X101822169Y-137525965D01*
X101628597Y-137661505D01*
X101461506Y-137828597D01*
X101461501Y-137828604D01*
X101325967Y-138022165D01*
X101325965Y-138022169D01*
X101226098Y-138236335D01*
X101226094Y-138236344D01*
X101164938Y-138464586D01*
X101164936Y-138464596D01*
X101144341Y-138699999D01*
X101144341Y-138700000D01*
X100000500Y-138700000D01*
X100000500Y-134375000D01*
X102669540Y-134375000D01*
X102689326Y-134563256D01*
X102689327Y-134563259D01*
X102747818Y-134743277D01*
X102747821Y-134743284D01*
X102842467Y-134907216D01*
X102964627Y-135042888D01*
X102969129Y-135047888D01*
X103122265Y-135159148D01*
X103122270Y-135159151D01*
X103295192Y-135236142D01*
X103295197Y-135236144D01*
X103480354Y-135275500D01*
X103480355Y-135275500D01*
X103669644Y-135275500D01*
X103669646Y-135275500D01*
X103854803Y-135236144D01*
X104027730Y-135159151D01*
X104180871Y-135047888D01*
X104307533Y-134907216D01*
X104402179Y-134743284D01*
X104460674Y-134563256D01*
X104480460Y-134375000D01*
X104479934Y-134370000D01*
X112674540Y-134370000D01*
X112694326Y-134558256D01*
X112694327Y-134558259D01*
X112752818Y-134738277D01*
X112752821Y-134738284D01*
X112847467Y-134902216D01*
X112974128Y-135042888D01*
X112974129Y-135042888D01*
X113127265Y-135154148D01*
X113127270Y-135154151D01*
X113300192Y-135231142D01*
X113300197Y-135231144D01*
X113485354Y-135270500D01*
X113485355Y-135270500D01*
X113674644Y-135270500D01*
X113674646Y-135270500D01*
X113859803Y-135231144D01*
X114032730Y-135154151D01*
X114185871Y-135042888D01*
X114312533Y-134902216D01*
X114407179Y-134738284D01*
X114465674Y-134558256D01*
X114485460Y-134370000D01*
X114465674Y-134181744D01*
X114407179Y-134001716D01*
X114312533Y-133837784D01*
X114185871Y-133697112D01*
X114130959Y-133657216D01*
X114032734Y-133585851D01*
X114032729Y-133585848D01*
X113859807Y-133508857D01*
X113859802Y-133508855D01*
X113698169Y-133474500D01*
X113674646Y-133469500D01*
X113485354Y-133469500D01*
X113461831Y-133474500D01*
X113300197Y-133508855D01*
X113300192Y-133508857D01*
X113127270Y-133585848D01*
X113127265Y-133585851D01*
X112974129Y-133697111D01*
X112847466Y-133837785D01*
X112752821Y-134001715D01*
X112752818Y-134001722D01*
X112694327Y-134181740D01*
X112694326Y-134181744D01*
X112674540Y-134370000D01*
X104479934Y-134370000D01*
X104460674Y-134186744D01*
X104402179Y-134006716D01*
X104307533Y-133842784D01*
X104180871Y-133702112D01*
X104119077Y-133657216D01*
X104027734Y-133590851D01*
X104027729Y-133590848D01*
X103854807Y-133513857D01*
X103854802Y-133513855D01*
X103709001Y-133482865D01*
X103669646Y-133474500D01*
X103480354Y-133474500D01*
X103447897Y-133481398D01*
X103295197Y-133513855D01*
X103295192Y-133513857D01*
X103122270Y-133590848D01*
X103122265Y-133590851D01*
X102969129Y-133702111D01*
X102842466Y-133842785D01*
X102747821Y-134006715D01*
X102747818Y-134006722D01*
X102689327Y-134186740D01*
X102689326Y-134186744D01*
X102669540Y-134375000D01*
X100000500Y-134375000D01*
X100000500Y-131625000D01*
X108419540Y-131625000D01*
X108439326Y-131813256D01*
X108439327Y-131813259D01*
X108497818Y-131993277D01*
X108497819Y-131993279D01*
X108497821Y-131993284D01*
X108592467Y-132157216D01*
X108688487Y-132263857D01*
X108719129Y-132297888D01*
X108872265Y-132409148D01*
X108872270Y-132409151D01*
X109045192Y-132486142D01*
X109045197Y-132486144D01*
X109230354Y-132525500D01*
X109230355Y-132525500D01*
X109419644Y-132525500D01*
X109419646Y-132525500D01*
X109604803Y-132486144D01*
X109642224Y-132469482D01*
X109658928Y-132462046D01*
X109728178Y-132452761D01*
X109791454Y-132482389D01*
X109828668Y-132541523D01*
X109828004Y-132611390D01*
X109816751Y-132637325D01*
X109747821Y-132756715D01*
X109747818Y-132756722D01*
X109689327Y-132936740D01*
X109689326Y-132936744D01*
X109669540Y-133125000D01*
X109689326Y-133313256D01*
X109689327Y-133313259D01*
X109747818Y-133493277D01*
X109747821Y-133493284D01*
X109842467Y-133657216D01*
X109878389Y-133697111D01*
X109969129Y-133797888D01*
X110122265Y-133909148D01*
X110122270Y-133909151D01*
X110295192Y-133986142D01*
X110295197Y-133986144D01*
X110480354Y-134025500D01*
X110480355Y-134025500D01*
X110669644Y-134025500D01*
X110669646Y-134025500D01*
X110854803Y-133986144D01*
X111027730Y-133909151D01*
X111180871Y-133797888D01*
X111307533Y-133657216D01*
X111402179Y-133493284D01*
X111460674Y-133313256D01*
X111480460Y-133125000D01*
X111460674Y-132936744D01*
X111402179Y-132756716D01*
X111307533Y-132592784D01*
X111180871Y-132452112D01*
X111180870Y-132452111D01*
X111027734Y-132340851D01*
X111027729Y-132340848D01*
X110854807Y-132263857D01*
X110854802Y-132263855D01*
X110709000Y-132232865D01*
X110669646Y-132224500D01*
X110480354Y-132224500D01*
X110447897Y-132231398D01*
X110295197Y-132263855D01*
X110295192Y-132263857D01*
X110241069Y-132287954D01*
X110171819Y-132297238D01*
X110108543Y-132267609D01*
X110071330Y-132208473D01*
X110071996Y-132138607D01*
X110083242Y-132112685D01*
X110152179Y-131993284D01*
X110210674Y-131813256D01*
X110230460Y-131625000D01*
X110210674Y-131436744D01*
X110152179Y-131256716D01*
X110057533Y-131092784D01*
X109930871Y-130952112D01*
X109930870Y-130952111D01*
X109777734Y-130840851D01*
X109777729Y-130840848D01*
X109604807Y-130763857D01*
X109604802Y-130763855D01*
X109459000Y-130732865D01*
X109419646Y-130724500D01*
X109230354Y-130724500D01*
X109197897Y-130731398D01*
X109045197Y-130763855D01*
X109045192Y-130763857D01*
X108872270Y-130840848D01*
X108872265Y-130840851D01*
X108719129Y-130952111D01*
X108592466Y-131092785D01*
X108497821Y-131256715D01*
X108497818Y-131256722D01*
X108439327Y-131436740D01*
X108439326Y-131436744D01*
X108419540Y-131625000D01*
X100000500Y-131625000D01*
X100000500Y-130724500D01*
X100000500Y-111100000D01*
X108294540Y-111100000D01*
X108314326Y-111288256D01*
X108314327Y-111288259D01*
X108372818Y-111468277D01*
X108372821Y-111468284D01*
X108467467Y-111632216D01*
X108594129Y-111772888D01*
X108747265Y-111884148D01*
X108747270Y-111884151D01*
X108920192Y-111961142D01*
X108920197Y-111961144D01*
X109105354Y-112000500D01*
X109105355Y-112000500D01*
X109294644Y-112000500D01*
X109294646Y-112000500D01*
X109479803Y-111961144D01*
X109652730Y-111884151D01*
X109805871Y-111772888D01*
X109932533Y-111632216D01*
X110027179Y-111468284D01*
X110085674Y-111288256D01*
X110105460Y-111100000D01*
X110085674Y-110911744D01*
X110027179Y-110731716D01*
X109932533Y-110567784D01*
X109805871Y-110427112D01*
X109805870Y-110427111D01*
X109652734Y-110315851D01*
X109652729Y-110315848D01*
X109479807Y-110238857D01*
X109479802Y-110238855D01*
X109334000Y-110207865D01*
X109294646Y-110199500D01*
X109105354Y-110199500D01*
X109072897Y-110206398D01*
X108920197Y-110238855D01*
X108920192Y-110238857D01*
X108747270Y-110315848D01*
X108747265Y-110315851D01*
X108594129Y-110427111D01*
X108467466Y-110567785D01*
X108372821Y-110731715D01*
X108372818Y-110731722D01*
X108314327Y-110911740D01*
X108314326Y-110911744D01*
X108294540Y-111100000D01*
X100000500Y-111100000D01*
X100000500Y-99300000D01*
X108294540Y-99300000D01*
X108314326Y-99488256D01*
X108314327Y-99488259D01*
X108372818Y-99668277D01*
X108372821Y-99668284D01*
X108467467Y-99832216D01*
X108594128Y-99972887D01*
X108594129Y-99972888D01*
X108747265Y-100084148D01*
X108747270Y-100084151D01*
X108920192Y-100161142D01*
X108920197Y-100161144D01*
X109105354Y-100200500D01*
X109105355Y-100200500D01*
X109294644Y-100200500D01*
X109294646Y-100200500D01*
X109479803Y-100161144D01*
X109652730Y-100084151D01*
X109805871Y-99972888D01*
X109932533Y-99832216D01*
X110027179Y-99668284D01*
X110085674Y-99488256D01*
X110105460Y-99300000D01*
X110085674Y-99111744D01*
X110027179Y-98931716D01*
X109932533Y-98767784D01*
X109805871Y-98627112D01*
X109805870Y-98627111D01*
X109652734Y-98515851D01*
X109652729Y-98515848D01*
X109479807Y-98438857D01*
X109479802Y-98438855D01*
X109334000Y-98407865D01*
X109294646Y-98399500D01*
X109105354Y-98399500D01*
X109072897Y-98406398D01*
X108920197Y-98438855D01*
X108920192Y-98438857D01*
X108747270Y-98515848D01*
X108747265Y-98515851D01*
X108594129Y-98627111D01*
X108467466Y-98767785D01*
X108372821Y-98931715D01*
X108372818Y-98931722D01*
X108314327Y-99111740D01*
X108314326Y-99111744D01*
X108294540Y-99300000D01*
X100000500Y-99300000D01*
X100000500Y-97774754D01*
X100000528Y-97774616D01*
X100000524Y-97774616D01*
X100000539Y-97750002D01*
X100000541Y-97750000D01*
X100000462Y-97749808D01*
X100000384Y-97749618D01*
X100000382Y-97749616D01*
X100000099Y-97749500D01*
X100000000Y-97749459D01*
X99975446Y-97749459D01*
X99975240Y-97749500D01*
X94624500Y-97749500D01*
X94557461Y-97729815D01*
X94511706Y-97677011D01*
X94500500Y-97625500D01*
X94500500Y-96900000D01*
X112294540Y-96900000D01*
X112314326Y-97088256D01*
X112314327Y-97088259D01*
X112372818Y-97268277D01*
X112372821Y-97268284D01*
X112467467Y-97432216D01*
X112594128Y-97572887D01*
X112594129Y-97572888D01*
X112747265Y-97684148D01*
X112747270Y-97684151D01*
X112920192Y-97761142D01*
X112920197Y-97761144D01*
X113105354Y-97800500D01*
X113105355Y-97800500D01*
X113294644Y-97800500D01*
X113294646Y-97800500D01*
X113479803Y-97761144D01*
X113652730Y-97684151D01*
X113805871Y-97572888D01*
X113932533Y-97432216D01*
X114027179Y-97268284D01*
X114085674Y-97088256D01*
X114105460Y-96900000D01*
X114085674Y-96711744D01*
X114027179Y-96531716D01*
X113932533Y-96367784D01*
X113805871Y-96227112D01*
X113805870Y-96227111D01*
X113652734Y-96115851D01*
X113652729Y-96115848D01*
X113479807Y-96038857D01*
X113479802Y-96038855D01*
X113320004Y-96004890D01*
X113294646Y-95999500D01*
X113105354Y-95999500D01*
X113079996Y-96004890D01*
X112920197Y-96038855D01*
X112920192Y-96038857D01*
X112747270Y-96115848D01*
X112747265Y-96115851D01*
X112594129Y-96227111D01*
X112467466Y-96367785D01*
X112372821Y-96531715D01*
X112372818Y-96531722D01*
X112317979Y-96700500D01*
X112314326Y-96711744D01*
X112294540Y-96900000D01*
X94500500Y-96900000D01*
X94500500Y-96332589D01*
X94520185Y-96265550D01*
X94572989Y-96219795D01*
X94642147Y-96209851D01*
X94705703Y-96238876D01*
X94731885Y-96270587D01*
X94767466Y-96332214D01*
X94767467Y-96332216D01*
X94894129Y-96472888D01*
X95047265Y-96584148D01*
X95047270Y-96584151D01*
X95220192Y-96661142D01*
X95220197Y-96661144D01*
X95405354Y-96700500D01*
X95405355Y-96700500D01*
X95594644Y-96700500D01*
X95594646Y-96700500D01*
X95779803Y-96661144D01*
X95952730Y-96584151D01*
X96105871Y-96472888D01*
X96232533Y-96332216D01*
X96327179Y-96168284D01*
X96352692Y-96089763D01*
X96392127Y-96032089D01*
X96456486Y-96004890D01*
X96525332Y-96016804D01*
X96576809Y-96064048D01*
X96588552Y-96089761D01*
X96597817Y-96118276D01*
X96597821Y-96118284D01*
X96692467Y-96282216D01*
X96765227Y-96363024D01*
X96819129Y-96422888D01*
X96972265Y-96534148D01*
X96972270Y-96534151D01*
X97145192Y-96611142D01*
X97145197Y-96611144D01*
X97330354Y-96650500D01*
X97330355Y-96650500D01*
X97519644Y-96650500D01*
X97519646Y-96650500D01*
X97704803Y-96611144D01*
X97877730Y-96534151D01*
X98030871Y-96422888D01*
X98157533Y-96282216D01*
X98192613Y-96221454D01*
X98243179Y-96173240D01*
X98311786Y-96160016D01*
X98376651Y-96185984D01*
X98407385Y-96221453D01*
X98435755Y-96270590D01*
X98442467Y-96282216D01*
X98569129Y-96422888D01*
X98722265Y-96534148D01*
X98722270Y-96534151D01*
X98895192Y-96611142D01*
X98895197Y-96611144D01*
X99080354Y-96650500D01*
X99080355Y-96650500D01*
X99269644Y-96650500D01*
X99269646Y-96650500D01*
X99454803Y-96611144D01*
X99627730Y-96534151D01*
X99780871Y-96422888D01*
X99907533Y-96282216D01*
X100002179Y-96118284D01*
X100060674Y-95938256D01*
X100064695Y-95900000D01*
X106694540Y-95900000D01*
X106714326Y-96088256D01*
X106714327Y-96088259D01*
X106772818Y-96268277D01*
X106772821Y-96268284D01*
X106867467Y-96432216D01*
X106957063Y-96531722D01*
X106994129Y-96572888D01*
X107147265Y-96684148D01*
X107147270Y-96684151D01*
X107320192Y-96761142D01*
X107320197Y-96761144D01*
X107505354Y-96800500D01*
X107505355Y-96800500D01*
X107694644Y-96800500D01*
X107694646Y-96800500D01*
X107879803Y-96761144D01*
X108052730Y-96684151D01*
X108205871Y-96572888D01*
X108332533Y-96432216D01*
X108427179Y-96268284D01*
X108485674Y-96088256D01*
X108505460Y-95900000D01*
X108485674Y-95711744D01*
X108427179Y-95531716D01*
X108332533Y-95367784D01*
X108271500Y-95300000D01*
X119594785Y-95300000D01*
X119613602Y-95503082D01*
X119669417Y-95699247D01*
X119669422Y-95699260D01*
X119760327Y-95881821D01*
X119883237Y-96044581D01*
X120033958Y-96181980D01*
X120033960Y-96181982D01*
X120106848Y-96227112D01*
X120207363Y-96289348D01*
X120397544Y-96363024D01*
X120598024Y-96400500D01*
X120598026Y-96400500D01*
X120801974Y-96400500D01*
X120801976Y-96400500D01*
X121002456Y-96363024D01*
X121192637Y-96289348D01*
X121366041Y-96181981D01*
X121494122Y-96065219D01*
X121516762Y-96044581D01*
X121521085Y-96038857D01*
X121639673Y-95881821D01*
X121730582Y-95699250D01*
X121786397Y-95503083D01*
X121805215Y-95300000D01*
X121786397Y-95096917D01*
X121730582Y-94900750D01*
X121639673Y-94718179D01*
X121516764Y-94555421D01*
X121516762Y-94555418D01*
X121366041Y-94418019D01*
X121366039Y-94418017D01*
X121192642Y-94310655D01*
X121192635Y-94310651D01*
X121097546Y-94273814D01*
X121002456Y-94236976D01*
X120801976Y-94199500D01*
X120598024Y-94199500D01*
X120397544Y-94236976D01*
X120397541Y-94236976D01*
X120397541Y-94236977D01*
X120207364Y-94310651D01*
X120207357Y-94310655D01*
X120033960Y-94418017D01*
X120033958Y-94418019D01*
X119883237Y-94555418D01*
X119760327Y-94718178D01*
X119669422Y-94900739D01*
X119669417Y-94900752D01*
X119613602Y-95096917D01*
X119594785Y-95299999D01*
X119594785Y-95300000D01*
X108271500Y-95300000D01*
X108205871Y-95227112D01*
X108205870Y-95227111D01*
X108052734Y-95115851D01*
X108052729Y-95115848D01*
X107879807Y-95038857D01*
X107879802Y-95038855D01*
X107734001Y-95007865D01*
X107694646Y-94999500D01*
X107505354Y-94999500D01*
X107472897Y-95006398D01*
X107320197Y-95038855D01*
X107320192Y-95038857D01*
X107147270Y-95115848D01*
X107147265Y-95115851D01*
X106994129Y-95227111D01*
X106867466Y-95367785D01*
X106772821Y-95531715D01*
X106772818Y-95531722D01*
X106718382Y-95699260D01*
X106714326Y-95711744D01*
X106694540Y-95900000D01*
X100064695Y-95900000D01*
X100080460Y-95750000D01*
X100060674Y-95561744D01*
X100002179Y-95381716D01*
X99907533Y-95217784D01*
X99780871Y-95077112D01*
X99780870Y-95077111D01*
X99627734Y-94965851D01*
X99627729Y-94965848D01*
X99454807Y-94888857D01*
X99454802Y-94888855D01*
X99309000Y-94857865D01*
X99269646Y-94849500D01*
X99080354Y-94849500D01*
X99047897Y-94856398D01*
X98895197Y-94888855D01*
X98895192Y-94888857D01*
X98722270Y-94965848D01*
X98722265Y-94965851D01*
X98569129Y-95077111D01*
X98442467Y-95217783D01*
X98407387Y-95278544D01*
X98356820Y-95326759D01*
X98288212Y-95339981D01*
X98223348Y-95314013D01*
X98192613Y-95278544D01*
X98179063Y-95255076D01*
X98157533Y-95217784D01*
X98030871Y-95077112D01*
X98030870Y-95077111D01*
X97877734Y-94965851D01*
X97877729Y-94965848D01*
X97704807Y-94888857D01*
X97704802Y-94888855D01*
X97559000Y-94857865D01*
X97519646Y-94849500D01*
X97330354Y-94849500D01*
X97297897Y-94856398D01*
X97145197Y-94888855D01*
X97145192Y-94888857D01*
X96972270Y-94965848D01*
X96972265Y-94965851D01*
X96819129Y-95077111D01*
X96692466Y-95217785D01*
X96597821Y-95381715D01*
X96597818Y-95381722D01*
X96572308Y-95460235D01*
X96532870Y-95517911D01*
X96468512Y-95545109D01*
X96399665Y-95533194D01*
X96348190Y-95485950D01*
X96336446Y-95460236D01*
X96327180Y-95431719D01*
X96327179Y-95431718D01*
X96327179Y-95431716D01*
X96232533Y-95267784D01*
X96105871Y-95127112D01*
X96090369Y-95115849D01*
X95952734Y-95015851D01*
X95952729Y-95015848D01*
X95779807Y-94938857D01*
X95779802Y-94938855D01*
X95634001Y-94907865D01*
X95594646Y-94899500D01*
X95405354Y-94899500D01*
X95372897Y-94906398D01*
X95220197Y-94938855D01*
X95220192Y-94938857D01*
X95047270Y-95015848D01*
X95047265Y-95015851D01*
X94894129Y-95127111D01*
X94767466Y-95267785D01*
X94731887Y-95329410D01*
X94681320Y-95377626D01*
X94612713Y-95390849D01*
X94547848Y-95364881D01*
X94507320Y-95307967D01*
X94500500Y-95267410D01*
X94500500Y-93804619D01*
X105079621Y-93804619D01*
X105099407Y-93992875D01*
X105099408Y-93992878D01*
X105157899Y-94172896D01*
X105157902Y-94172903D01*
X105252548Y-94336835D01*
X105325645Y-94418017D01*
X105379210Y-94477507D01*
X105532346Y-94588767D01*
X105532351Y-94588770D01*
X105705273Y-94665761D01*
X105705278Y-94665763D01*
X105890435Y-94705119D01*
X105890436Y-94705119D01*
X106079725Y-94705119D01*
X106079727Y-94705119D01*
X106264884Y-94665763D01*
X106437811Y-94588770D01*
X106590952Y-94477507D01*
X106717614Y-94336835D01*
X106812260Y-94172903D01*
X106870755Y-93992875D01*
X106887257Y-93835863D01*
X114043591Y-93835863D01*
X114063377Y-94024119D01*
X114063378Y-94024122D01*
X114121869Y-94204140D01*
X114121872Y-94204147D01*
X114216518Y-94368079D01*
X114315048Y-94477507D01*
X114343180Y-94508751D01*
X114496316Y-94620011D01*
X114496321Y-94620014D01*
X114669243Y-94697005D01*
X114669248Y-94697007D01*
X114854405Y-94736363D01*
X114854406Y-94736363D01*
X115043695Y-94736363D01*
X115043697Y-94736363D01*
X115228854Y-94697007D01*
X115401781Y-94620014D01*
X115554922Y-94508751D01*
X115681584Y-94368079D01*
X115776230Y-94204147D01*
X115834725Y-94024119D01*
X115854511Y-93835863D01*
X115839959Y-93697406D01*
X115852527Y-93628682D01*
X115890394Y-93584132D01*
X115905871Y-93572888D01*
X116032533Y-93432216D01*
X116127179Y-93268284D01*
X116185674Y-93088256D01*
X116205460Y-92900000D01*
X116185674Y-92711744D01*
X116127179Y-92531716D01*
X116032533Y-92367784D01*
X115905871Y-92227112D01*
X115905870Y-92227111D01*
X115752734Y-92115851D01*
X115752729Y-92115848D01*
X115579807Y-92038857D01*
X115579802Y-92038855D01*
X115434001Y-92007865D01*
X115394646Y-91999500D01*
X115205354Y-91999500D01*
X115172897Y-92006398D01*
X115020197Y-92038855D01*
X115020192Y-92038857D01*
X114847270Y-92115848D01*
X114847265Y-92115851D01*
X114694129Y-92227111D01*
X114567466Y-92367785D01*
X114472821Y-92531715D01*
X114472818Y-92531722D01*
X114414327Y-92711740D01*
X114414326Y-92711744D01*
X114400810Y-92840348D01*
X114394540Y-92900000D01*
X114409091Y-93038451D01*
X114396521Y-93107181D01*
X114358660Y-93151726D01*
X114343185Y-93162969D01*
X114343174Y-93162979D01*
X114216517Y-93303648D01*
X114121872Y-93467578D01*
X114121869Y-93467585D01*
X114063378Y-93647603D01*
X114063377Y-93647607D01*
X114043591Y-93835863D01*
X106887257Y-93835863D01*
X106890541Y-93804619D01*
X106870755Y-93616363D01*
X106812260Y-93436335D01*
X106717614Y-93272403D01*
X106590952Y-93131731D01*
X106531114Y-93088256D01*
X106437815Y-93020470D01*
X106437810Y-93020467D01*
X106264888Y-92943476D01*
X106264883Y-92943474D01*
X106119081Y-92912484D01*
X106079727Y-92904119D01*
X105890435Y-92904119D01*
X105857978Y-92911017D01*
X105705278Y-92943474D01*
X105705273Y-92943476D01*
X105532351Y-93020467D01*
X105532346Y-93020470D01*
X105379210Y-93131730D01*
X105252547Y-93272404D01*
X105157902Y-93436334D01*
X105157899Y-93436341D01*
X105099408Y-93616359D01*
X105099407Y-93616363D01*
X105079621Y-93804619D01*
X94500500Y-93804619D01*
X94500500Y-91750000D01*
X99094540Y-91750000D01*
X99114326Y-91938256D01*
X99114327Y-91938259D01*
X99172818Y-92118277D01*
X99172821Y-92118284D01*
X99267467Y-92282216D01*
X99344513Y-92367784D01*
X99394129Y-92422888D01*
X99547265Y-92534148D01*
X99547270Y-92534151D01*
X99720192Y-92611142D01*
X99720197Y-92611144D01*
X99905354Y-92650500D01*
X99905355Y-92650500D01*
X100094644Y-92650500D01*
X100094646Y-92650500D01*
X100279803Y-92611144D01*
X100452730Y-92534151D01*
X100605871Y-92422888D01*
X100732533Y-92282216D01*
X100827179Y-92118284D01*
X100847351Y-92056200D01*
X108644541Y-92056200D01*
X108664327Y-92244456D01*
X108664328Y-92244459D01*
X108722819Y-92424477D01*
X108722822Y-92424484D01*
X108817468Y-92588416D01*
X108873369Y-92650500D01*
X108944130Y-92729088D01*
X109097266Y-92840348D01*
X109097271Y-92840351D01*
X109270193Y-92917342D01*
X109270198Y-92917344D01*
X109455355Y-92956700D01*
X109455356Y-92956700D01*
X109644645Y-92956700D01*
X109644647Y-92956700D01*
X109829804Y-92917344D01*
X110002731Y-92840351D01*
X110155872Y-92729088D01*
X110282534Y-92588416D01*
X110377180Y-92424484D01*
X110435675Y-92244456D01*
X110455461Y-92056200D01*
X110435675Y-91867944D01*
X110377180Y-91687916D01*
X110282534Y-91523984D01*
X110170901Y-91400003D01*
X119794435Y-91400003D01*
X119814630Y-91579249D01*
X119814631Y-91579254D01*
X119874211Y-91749523D01*
X119970184Y-91902262D01*
X120097738Y-92029816D01*
X120112127Y-92038857D01*
X120238522Y-92118277D01*
X120250478Y-92125789D01*
X120420744Y-92185368D01*
X120420745Y-92185368D01*
X120420750Y-92185369D01*
X120599996Y-92205565D01*
X120600000Y-92205565D01*
X120600004Y-92205565D01*
X120779249Y-92185369D01*
X120779252Y-92185368D01*
X120779255Y-92185368D01*
X120949522Y-92125789D01*
X121102262Y-92029816D01*
X121229816Y-91902262D01*
X121325789Y-91749522D01*
X121385368Y-91579255D01*
X121387341Y-91561744D01*
X121405565Y-91400003D01*
X121405565Y-91399996D01*
X121385369Y-91220750D01*
X121385368Y-91220745D01*
X121362608Y-91155700D01*
X121325789Y-91050478D01*
X121229816Y-90897738D01*
X121102262Y-90770184D01*
X121102261Y-90770183D01*
X120949523Y-90674211D01*
X120779254Y-90614631D01*
X120779249Y-90614630D01*
X120600004Y-90594435D01*
X120599996Y-90594435D01*
X120420750Y-90614630D01*
X120420745Y-90614631D01*
X120250476Y-90674211D01*
X120097737Y-90770184D01*
X119970184Y-90897737D01*
X119874211Y-91050476D01*
X119814631Y-91220745D01*
X119814630Y-91220750D01*
X119794435Y-91399996D01*
X119794435Y-91400003D01*
X110170901Y-91400003D01*
X110155872Y-91383312D01*
X110153684Y-91381722D01*
X110002735Y-91272051D01*
X110002730Y-91272048D01*
X109829808Y-91195057D01*
X109829803Y-91195055D01*
X109684001Y-91164065D01*
X109644647Y-91155700D01*
X109455355Y-91155700D01*
X109422898Y-91162598D01*
X109270198Y-91195055D01*
X109270193Y-91195057D01*
X109097271Y-91272048D01*
X109097266Y-91272051D01*
X108944130Y-91383311D01*
X108817467Y-91523985D01*
X108722822Y-91687915D01*
X108722819Y-91687922D01*
X108664328Y-91867940D01*
X108664327Y-91867944D01*
X108644541Y-92056200D01*
X100847351Y-92056200D01*
X100885674Y-91938256D01*
X100905460Y-91750000D01*
X100885674Y-91561744D01*
X100827179Y-91381716D01*
X100732533Y-91217784D01*
X100605871Y-91077112D01*
X100605870Y-91077111D01*
X100452734Y-90965851D01*
X100452729Y-90965848D01*
X100279807Y-90888857D01*
X100279802Y-90888855D01*
X100134000Y-90857865D01*
X100094646Y-90849500D01*
X99905354Y-90849500D01*
X99872897Y-90856398D01*
X99720197Y-90888855D01*
X99720192Y-90888857D01*
X99547270Y-90965848D01*
X99547265Y-90965851D01*
X99394129Y-91077111D01*
X99267466Y-91217785D01*
X99172821Y-91381715D01*
X99172818Y-91381722D01*
X99114327Y-91561740D01*
X99114326Y-91561744D01*
X99094540Y-91750000D01*
X94500500Y-91750000D01*
X94500500Y-89600000D01*
X100694540Y-89600000D01*
X100714326Y-89788256D01*
X100714327Y-89788259D01*
X100772818Y-89968277D01*
X100772821Y-89968284D01*
X100867467Y-90132216D01*
X100994128Y-90272887D01*
X100994129Y-90272888D01*
X101147265Y-90384148D01*
X101147270Y-90384151D01*
X101320192Y-90461142D01*
X101320197Y-90461144D01*
X101505354Y-90500500D01*
X101505355Y-90500500D01*
X101694644Y-90500500D01*
X101694646Y-90500500D01*
X101879803Y-90461144D01*
X102052730Y-90384151D01*
X102205871Y-90272888D01*
X102332533Y-90132216D01*
X102427179Y-89968284D01*
X102485674Y-89788256D01*
X102505460Y-89600000D01*
X102485674Y-89411744D01*
X102427179Y-89231716D01*
X102332533Y-89067784D01*
X102205871Y-88927112D01*
X102205870Y-88927111D01*
X102052734Y-88815851D01*
X102052729Y-88815848D01*
X101879807Y-88738857D01*
X101879802Y-88738855D01*
X101734001Y-88707865D01*
X101694646Y-88699500D01*
X101505354Y-88699500D01*
X101472897Y-88706398D01*
X101320197Y-88738855D01*
X101320192Y-88738857D01*
X101147270Y-88815848D01*
X101147265Y-88815851D01*
X100994129Y-88927111D01*
X100867466Y-89067785D01*
X100772821Y-89231715D01*
X100772818Y-89231722D01*
X100740166Y-89332216D01*
X100714326Y-89411744D01*
X100694540Y-89600000D01*
X94500500Y-89600000D01*
X94500500Y-86800000D01*
X97094540Y-86800000D01*
X97114326Y-86988256D01*
X97114327Y-86988259D01*
X97172818Y-87168277D01*
X97172821Y-87168284D01*
X97267467Y-87332216D01*
X97347179Y-87420745D01*
X97394129Y-87472888D01*
X97547265Y-87584148D01*
X97547270Y-87584151D01*
X97720192Y-87661142D01*
X97720197Y-87661144D01*
X97905354Y-87700500D01*
X97905355Y-87700500D01*
X98094644Y-87700500D01*
X98094646Y-87700500D01*
X98279803Y-87661144D01*
X98417126Y-87600003D01*
X110394435Y-87600003D01*
X110414630Y-87779249D01*
X110414631Y-87779254D01*
X110474211Y-87949523D01*
X110515886Y-88015848D01*
X110570184Y-88102262D01*
X110697738Y-88229816D01*
X110850478Y-88325789D01*
X111020744Y-88385368D01*
X111020745Y-88385368D01*
X111020750Y-88385369D01*
X111199996Y-88405565D01*
X111200000Y-88405565D01*
X111200004Y-88405565D01*
X111300703Y-88394219D01*
X111369524Y-88406273D01*
X111420904Y-88453623D01*
X111438528Y-88521233D01*
X111432517Y-88555757D01*
X111414326Y-88611744D01*
X111394540Y-88800000D01*
X111414326Y-88988256D01*
X111414327Y-88988259D01*
X111472818Y-89168277D01*
X111472821Y-89168284D01*
X111567467Y-89332216D01*
X111599937Y-89368277D01*
X111694129Y-89472888D01*
X111847265Y-89584148D01*
X111847270Y-89584151D01*
X112020192Y-89661142D01*
X112020197Y-89661144D01*
X112205354Y-89700500D01*
X112205355Y-89700500D01*
X112394644Y-89700500D01*
X112394646Y-89700500D01*
X112579803Y-89661144D01*
X112717133Y-89600000D01*
X113794540Y-89600000D01*
X113814326Y-89788256D01*
X113814327Y-89788259D01*
X113872818Y-89968277D01*
X113872821Y-89968284D01*
X113967467Y-90132216D01*
X114094128Y-90272887D01*
X114094129Y-90272888D01*
X114247265Y-90384148D01*
X114247270Y-90384151D01*
X114420192Y-90461142D01*
X114420197Y-90461144D01*
X114605354Y-90500500D01*
X114605355Y-90500500D01*
X114794644Y-90500500D01*
X114794646Y-90500500D01*
X114979803Y-90461144D01*
X115152730Y-90384151D01*
X115305871Y-90272888D01*
X115432533Y-90132216D01*
X115527179Y-89968284D01*
X115585674Y-89788256D01*
X115605460Y-89600000D01*
X115585674Y-89411744D01*
X115527179Y-89231716D01*
X115432533Y-89067784D01*
X115371500Y-89000000D01*
X123394540Y-89000000D01*
X123414326Y-89188256D01*
X123414327Y-89188259D01*
X123472818Y-89368277D01*
X123472821Y-89368284D01*
X123567467Y-89532216D01*
X123683553Y-89661142D01*
X123694129Y-89672888D01*
X123847265Y-89784148D01*
X123847270Y-89784151D01*
X124020192Y-89861142D01*
X124020197Y-89861144D01*
X124205354Y-89900500D01*
X124205355Y-89900500D01*
X124394644Y-89900500D01*
X124394646Y-89900500D01*
X124579803Y-89861144D01*
X124752730Y-89784151D01*
X124905871Y-89672888D01*
X125032533Y-89532216D01*
X125127179Y-89368284D01*
X125185674Y-89188256D01*
X125205460Y-89000000D01*
X125185674Y-88811744D01*
X125127179Y-88631716D01*
X125032533Y-88467784D01*
X124905871Y-88327112D01*
X124904049Y-88325788D01*
X124752734Y-88215851D01*
X124752729Y-88215848D01*
X124579807Y-88138857D01*
X124579802Y-88138855D01*
X124407640Y-88102262D01*
X124394646Y-88099500D01*
X124205354Y-88099500D01*
X124192360Y-88102262D01*
X124020197Y-88138855D01*
X124020192Y-88138857D01*
X123847270Y-88215848D01*
X123847265Y-88215851D01*
X123694129Y-88327111D01*
X123567466Y-88467785D01*
X123472821Y-88631715D01*
X123472818Y-88631722D01*
X123418142Y-88799999D01*
X123414326Y-88811744D01*
X123394540Y-89000000D01*
X115371500Y-89000000D01*
X115305871Y-88927112D01*
X115305870Y-88927111D01*
X115152734Y-88815851D01*
X115152729Y-88815848D01*
X114979807Y-88738857D01*
X114979802Y-88738855D01*
X114834001Y-88707865D01*
X114794646Y-88699500D01*
X114605354Y-88699500D01*
X114572897Y-88706398D01*
X114420197Y-88738855D01*
X114420192Y-88738857D01*
X114247270Y-88815848D01*
X114247265Y-88815851D01*
X114094129Y-88927111D01*
X113967466Y-89067785D01*
X113872821Y-89231715D01*
X113872818Y-89231722D01*
X113840166Y-89332216D01*
X113814326Y-89411744D01*
X113794540Y-89600000D01*
X112717133Y-89600000D01*
X112752730Y-89584151D01*
X112905871Y-89472888D01*
X113032533Y-89332216D01*
X113127179Y-89168284D01*
X113185674Y-88988256D01*
X113205460Y-88800000D01*
X113185674Y-88611744D01*
X113127179Y-88431716D01*
X113032533Y-88267784D01*
X112905871Y-88127112D01*
X112871668Y-88102262D01*
X112752734Y-88015851D01*
X112752729Y-88015848D01*
X112579807Y-87938857D01*
X112579802Y-87938855D01*
X112434001Y-87907865D01*
X112394646Y-87899500D01*
X112205354Y-87899500D01*
X112205353Y-87899500D01*
X112134350Y-87914592D01*
X112064683Y-87909276D01*
X112008950Y-87867139D01*
X111984845Y-87801559D01*
X111985350Y-87779419D01*
X112005565Y-87600003D01*
X112005565Y-87599996D01*
X111985369Y-87420750D01*
X111985368Y-87420745D01*
X111925788Y-87250476D01*
X111829815Y-87097737D01*
X111702262Y-86970184D01*
X111549523Y-86874211D01*
X111379254Y-86814631D01*
X111379249Y-86814630D01*
X111200004Y-86794435D01*
X111199996Y-86794435D01*
X111020750Y-86814630D01*
X111020745Y-86814631D01*
X110850476Y-86874211D01*
X110697737Y-86970184D01*
X110570184Y-87097737D01*
X110474211Y-87250476D01*
X110414631Y-87420745D01*
X110414630Y-87420750D01*
X110394435Y-87599996D01*
X110394435Y-87600003D01*
X98417126Y-87600003D01*
X98452730Y-87584151D01*
X98605871Y-87472888D01*
X98732533Y-87332216D01*
X98827179Y-87168284D01*
X98885674Y-86988256D01*
X98905460Y-86800000D01*
X98885674Y-86611744D01*
X98827179Y-86431716D01*
X98732533Y-86267784D01*
X98605871Y-86127112D01*
X98605870Y-86127111D01*
X98452734Y-86015851D01*
X98452731Y-86015850D01*
X98452730Y-86015849D01*
X98446957Y-86013279D01*
X98393721Y-85968031D01*
X98373399Y-85901182D01*
X98392443Y-85833958D01*
X98444809Y-85787702D01*
X98446920Y-85786737D01*
X98452730Y-85784151D01*
X98605871Y-85672888D01*
X98732533Y-85532216D01*
X98827179Y-85368284D01*
X98885674Y-85188256D01*
X98905460Y-85000000D01*
X101094540Y-85000000D01*
X101114326Y-85188256D01*
X101114327Y-85188259D01*
X101172818Y-85368277D01*
X101172821Y-85368284D01*
X101267467Y-85532216D01*
X101339069Y-85611738D01*
X101394129Y-85672888D01*
X101547265Y-85784148D01*
X101547270Y-85784151D01*
X101720192Y-85861142D01*
X101720197Y-85861144D01*
X101905354Y-85900500D01*
X101905355Y-85900500D01*
X102094644Y-85900500D01*
X102094646Y-85900500D01*
X102279803Y-85861144D01*
X102452730Y-85784151D01*
X102605871Y-85672888D01*
X102732533Y-85532216D01*
X102827179Y-85368284D01*
X102885674Y-85188256D01*
X102905460Y-85000000D01*
X102894950Y-84900003D01*
X105094435Y-84900003D01*
X105114630Y-85079249D01*
X105114631Y-85079254D01*
X105174211Y-85249523D01*
X105244797Y-85361859D01*
X105270184Y-85402262D01*
X105397738Y-85529816D01*
X105401558Y-85532216D01*
X105528125Y-85611744D01*
X105550478Y-85625789D01*
X105685079Y-85672888D01*
X105720745Y-85685368D01*
X105720750Y-85685369D01*
X105899996Y-85705565D01*
X105900000Y-85705565D01*
X105900004Y-85705565D01*
X106079249Y-85685369D01*
X106079252Y-85685368D01*
X106079255Y-85685368D01*
X106249522Y-85625789D01*
X106402262Y-85529816D01*
X106529816Y-85402262D01*
X106529826Y-85402244D01*
X106530018Y-85402006D01*
X106530199Y-85401878D01*
X106534740Y-85397338D01*
X106535534Y-85398132D01*
X106587202Y-85361859D01*
X106657013Y-85359000D01*
X106717287Y-85394338D01*
X106748888Y-85456653D01*
X106744906Y-85517624D01*
X106714327Y-85611738D01*
X106714327Y-85611740D01*
X106714326Y-85611744D01*
X106707900Y-85672888D01*
X106695833Y-85787702D01*
X106694540Y-85800000D01*
X106714326Y-85988256D01*
X106714327Y-85988259D01*
X106772818Y-86168277D01*
X106772821Y-86168284D01*
X106867467Y-86332216D01*
X106957063Y-86431722D01*
X106994129Y-86472888D01*
X107147265Y-86584148D01*
X107147270Y-86584151D01*
X107320192Y-86661142D01*
X107320197Y-86661144D01*
X107505354Y-86700500D01*
X107505355Y-86700500D01*
X107694644Y-86700500D01*
X107694646Y-86700500D01*
X107879803Y-86661144D01*
X108052730Y-86584151D01*
X108205871Y-86472888D01*
X108332533Y-86332216D01*
X108427179Y-86168284D01*
X108485674Y-85988256D01*
X108505460Y-85800000D01*
X108485674Y-85611744D01*
X108427179Y-85431716D01*
X108332533Y-85267784D01*
X108205871Y-85127112D01*
X108169243Y-85100500D01*
X108168555Y-85100000D01*
X111194540Y-85100000D01*
X111214326Y-85288256D01*
X111214327Y-85288259D01*
X111272818Y-85468277D01*
X111272821Y-85468284D01*
X111367467Y-85632216D01*
X111433511Y-85705565D01*
X111494129Y-85772888D01*
X111647265Y-85884148D01*
X111647270Y-85884151D01*
X111820192Y-85961142D01*
X111820197Y-85961144D01*
X112005354Y-86000500D01*
X112005355Y-86000500D01*
X112194644Y-86000500D01*
X112194646Y-86000500D01*
X112379803Y-85961144D01*
X112552730Y-85884151D01*
X112705871Y-85772888D01*
X112832533Y-85632216D01*
X112927179Y-85468284D01*
X112985674Y-85288256D01*
X113005460Y-85100000D01*
X112985674Y-84911744D01*
X112927179Y-84731716D01*
X112832533Y-84567784D01*
X112705871Y-84427112D01*
X112670297Y-84401266D01*
X112552734Y-84315851D01*
X112552729Y-84315848D01*
X112379807Y-84238857D01*
X112379802Y-84238855D01*
X112234000Y-84207865D01*
X112194646Y-84199500D01*
X112005354Y-84199500D01*
X111972897Y-84206398D01*
X111820197Y-84238855D01*
X111820192Y-84238857D01*
X111647270Y-84315848D01*
X111647265Y-84315851D01*
X111494129Y-84427111D01*
X111367466Y-84567785D01*
X111272821Y-84731715D01*
X111272818Y-84731722D01*
X111223996Y-84881982D01*
X111214326Y-84911744D01*
X111194540Y-85100000D01*
X108168555Y-85100000D01*
X108052734Y-85015851D01*
X108052729Y-85015848D01*
X107879807Y-84938857D01*
X107879802Y-84938855D01*
X107697012Y-84900003D01*
X107694646Y-84899500D01*
X107505354Y-84899500D01*
X107502988Y-84900003D01*
X107320197Y-84938855D01*
X107320192Y-84938857D01*
X107147270Y-85015848D01*
X107147265Y-85015851D01*
X106994129Y-85127111D01*
X106994128Y-85127112D01*
X106874806Y-85259632D01*
X106815320Y-85296280D01*
X106745463Y-85294949D01*
X106687415Y-85256062D01*
X106659605Y-85191965D01*
X106665616Y-85135703D01*
X106685367Y-85079259D01*
X106685369Y-85079249D01*
X106705565Y-84900003D01*
X106705565Y-84899996D01*
X106685369Y-84720750D01*
X106685368Y-84720745D01*
X106625788Y-84550475D01*
X106572691Y-84465973D01*
X106553690Y-84398736D01*
X106572691Y-84334027D01*
X106625788Y-84249524D01*
X106625789Y-84249522D01*
X106685368Y-84079255D01*
X106694298Y-84000000D01*
X115894785Y-84000000D01*
X115913602Y-84203082D01*
X115969417Y-84399247D01*
X115969422Y-84399260D01*
X116060327Y-84581821D01*
X116183237Y-84744581D01*
X116333958Y-84881980D01*
X116333960Y-84881982D01*
X116382028Y-84911744D01*
X116507363Y-84989348D01*
X116697544Y-85063024D01*
X116898024Y-85100500D01*
X116898026Y-85100500D01*
X117101974Y-85100500D01*
X117101976Y-85100500D01*
X117302456Y-85063024D01*
X117492637Y-84989348D01*
X117666041Y-84881981D01*
X117816764Y-84744579D01*
X117939673Y-84581821D01*
X118030582Y-84399250D01*
X118086397Y-84203083D01*
X118105215Y-84000000D01*
X118095948Y-83899996D01*
X118086397Y-83796917D01*
X118051107Y-83672888D01*
X118030582Y-83600750D01*
X117996456Y-83532216D01*
X117939671Y-83418175D01*
X117869101Y-83324725D01*
X117844409Y-83259364D01*
X117858974Y-83191030D01*
X117869094Y-83175282D01*
X117939673Y-83081821D01*
X118030582Y-82899250D01*
X118086397Y-82703083D01*
X118105215Y-82500000D01*
X118086397Y-82296917D01*
X118030582Y-82100750D01*
X117939673Y-81918179D01*
X117816764Y-81755421D01*
X117816762Y-81755418D01*
X117750540Y-81695049D01*
X117714258Y-81635338D01*
X117716019Y-81565490D01*
X117729875Y-81538185D01*
X117729284Y-81537844D01*
X117753071Y-81496642D01*
X117827179Y-81368284D01*
X117885674Y-81188256D01*
X117905460Y-81000000D01*
X117885674Y-80811744D01*
X117827179Y-80631716D01*
X117732533Y-80467784D01*
X117605871Y-80327112D01*
X117568559Y-80300003D01*
X117452734Y-80215851D01*
X117452729Y-80215848D01*
X117279807Y-80138857D01*
X117279802Y-80138855D01*
X117134000Y-80107865D01*
X117094646Y-80099500D01*
X116905354Y-80099500D01*
X116872897Y-80106398D01*
X116720197Y-80138855D01*
X116720192Y-80138857D01*
X116547270Y-80215848D01*
X116547265Y-80215851D01*
X116394129Y-80327111D01*
X116267466Y-80467785D01*
X116172821Y-80631715D01*
X116172818Y-80631722D01*
X116123921Y-80782214D01*
X116114326Y-80811744D01*
X116094540Y-81000000D01*
X116114326Y-81188256D01*
X116114327Y-81188259D01*
X116172818Y-81368277D01*
X116172821Y-81368284D01*
X116270716Y-81537844D01*
X116269169Y-81538736D01*
X116289719Y-81596340D01*
X116273890Y-81664393D01*
X116249460Y-81695048D01*
X116183238Y-81755418D01*
X116060327Y-81918178D01*
X115969422Y-82100739D01*
X115969417Y-82100752D01*
X115913602Y-82296917D01*
X115894785Y-82499999D01*
X115894785Y-82500000D01*
X115913602Y-82703082D01*
X115969417Y-82899247D01*
X115969422Y-82899260D01*
X116060328Y-83081824D01*
X116130898Y-83175274D01*
X116155590Y-83240635D01*
X116141025Y-83308970D01*
X116130898Y-83324726D01*
X116060328Y-83418175D01*
X115969422Y-83600739D01*
X115969417Y-83600752D01*
X115913602Y-83796917D01*
X115894785Y-83999999D01*
X115894785Y-84000000D01*
X106694298Y-84000000D01*
X106704224Y-83911902D01*
X106705565Y-83900003D01*
X106705565Y-83899996D01*
X106685369Y-83720750D01*
X106685368Y-83720745D01*
X106668622Y-83672888D01*
X106625789Y-83550478D01*
X106529816Y-83397738D01*
X106402262Y-83270184D01*
X106378767Y-83255421D01*
X106249523Y-83174211D01*
X106079254Y-83114631D01*
X106079249Y-83114630D01*
X105900004Y-83094435D01*
X105899996Y-83094435D01*
X105720750Y-83114630D01*
X105720745Y-83114631D01*
X105550476Y-83174211D01*
X105397737Y-83270184D01*
X105270184Y-83397737D01*
X105174211Y-83550476D01*
X105114631Y-83720745D01*
X105114630Y-83720750D01*
X105094435Y-83899996D01*
X105094435Y-83900003D01*
X105114630Y-84079249D01*
X105114633Y-84079262D01*
X105174209Y-84249520D01*
X105227309Y-84334029D01*
X105246309Y-84401266D01*
X105227309Y-84465971D01*
X105174209Y-84550479D01*
X105114633Y-84720737D01*
X105114630Y-84720750D01*
X105094435Y-84899996D01*
X105094435Y-84900003D01*
X102894950Y-84900003D01*
X102885674Y-84811744D01*
X102827179Y-84631716D01*
X102732533Y-84467784D01*
X102605871Y-84327112D01*
X102590369Y-84315849D01*
X102452734Y-84215851D01*
X102452729Y-84215848D01*
X102279807Y-84138857D01*
X102279802Y-84138855D01*
X102134000Y-84107865D01*
X102094646Y-84099500D01*
X101905354Y-84099500D01*
X101872897Y-84106398D01*
X101720197Y-84138855D01*
X101720192Y-84138857D01*
X101547270Y-84215848D01*
X101547265Y-84215851D01*
X101394129Y-84327111D01*
X101267466Y-84467785D01*
X101172821Y-84631715D01*
X101172818Y-84631722D01*
X101114327Y-84811740D01*
X101114326Y-84811744D01*
X101094540Y-85000000D01*
X98905460Y-85000000D01*
X98885674Y-84811744D01*
X98827179Y-84631716D01*
X98732533Y-84467784D01*
X98605871Y-84327112D01*
X98590369Y-84315849D01*
X98452734Y-84215851D01*
X98452729Y-84215848D01*
X98279807Y-84138857D01*
X98279800Y-84138855D01*
X98197161Y-84121290D01*
X98135679Y-84088098D01*
X98101902Y-84026935D01*
X98106554Y-83957221D01*
X98148158Y-83901088D01*
X98197161Y-83878710D01*
X98203201Y-83877426D01*
X98279803Y-83861144D01*
X98452730Y-83784151D01*
X98605871Y-83672888D01*
X98732533Y-83532216D01*
X98827179Y-83368284D01*
X98885674Y-83188256D01*
X98905460Y-83000000D01*
X98885674Y-82811744D01*
X98827179Y-82631716D01*
X98732533Y-82467784D01*
X98605871Y-82327112D01*
X98605870Y-82327111D01*
X98452734Y-82215851D01*
X98452729Y-82215848D01*
X98279807Y-82138857D01*
X98279802Y-82138855D01*
X98134001Y-82107865D01*
X98094646Y-82099500D01*
X97905354Y-82099500D01*
X97872897Y-82106398D01*
X97720197Y-82138855D01*
X97720192Y-82138857D01*
X97547270Y-82215848D01*
X97547265Y-82215851D01*
X97394129Y-82327111D01*
X97267466Y-82467785D01*
X97172821Y-82631715D01*
X97172818Y-82631722D01*
X97149632Y-82703083D01*
X97114326Y-82811744D01*
X97094540Y-83000000D01*
X97114326Y-83188256D01*
X97114327Y-83188259D01*
X97172818Y-83368277D01*
X97172821Y-83368284D01*
X97267467Y-83532216D01*
X97394128Y-83672887D01*
X97394129Y-83672888D01*
X97547265Y-83784148D01*
X97547270Y-83784151D01*
X97720192Y-83861142D01*
X97720197Y-83861144D01*
X97802839Y-83878710D01*
X97864321Y-83911902D01*
X97898097Y-83973065D01*
X97893445Y-84042780D01*
X97851840Y-84098912D01*
X97802839Y-84121290D01*
X97720197Y-84138855D01*
X97720192Y-84138857D01*
X97547270Y-84215848D01*
X97547265Y-84215851D01*
X97394129Y-84327111D01*
X97267466Y-84467785D01*
X97172821Y-84631715D01*
X97172818Y-84631722D01*
X97114327Y-84811740D01*
X97114326Y-84811744D01*
X97094540Y-85000000D01*
X97114326Y-85188256D01*
X97114327Y-85188259D01*
X97172818Y-85368277D01*
X97172821Y-85368284D01*
X97267467Y-85532216D01*
X97339069Y-85611738D01*
X97394129Y-85672888D01*
X97547265Y-85784148D01*
X97547267Y-85784149D01*
X97547270Y-85784151D01*
X97553043Y-85786721D01*
X97606280Y-85831972D01*
X97626600Y-85898822D01*
X97607554Y-85966045D01*
X97555187Y-86012300D01*
X97553072Y-86013265D01*
X97550151Y-86014566D01*
X97547267Y-86015850D01*
X97547265Y-86015851D01*
X97394129Y-86127111D01*
X97267466Y-86267785D01*
X97172821Y-86431715D01*
X97172818Y-86431722D01*
X97114327Y-86611740D01*
X97114326Y-86611744D01*
X97094540Y-86800000D01*
X94500500Y-86800000D01*
X94500500Y-80250000D01*
X102344540Y-80250000D01*
X102364326Y-80438256D01*
X102364327Y-80438259D01*
X102422818Y-80618277D01*
X102422821Y-80618284D01*
X102517467Y-80782216D01*
X102644128Y-80922888D01*
X102644129Y-80922888D01*
X102797265Y-81034148D01*
X102797270Y-81034151D01*
X102957666Y-81105565D01*
X102970197Y-81111144D01*
X103028080Y-81123447D01*
X103089558Y-81156637D01*
X103120227Y-81206418D01*
X103172818Y-81368277D01*
X103172821Y-81368284D01*
X103267467Y-81532216D01*
X103325205Y-81596340D01*
X103394129Y-81672888D01*
X103547265Y-81784148D01*
X103547270Y-81784151D01*
X103720192Y-81861142D01*
X103720197Y-81861144D01*
X103905354Y-81900500D01*
X103905355Y-81900500D01*
X104094644Y-81900500D01*
X104094646Y-81900500D01*
X104279803Y-81861144D01*
X104452730Y-81784151D01*
X104605871Y-81672888D01*
X104732533Y-81532216D01*
X104827179Y-81368284D01*
X104885674Y-81188256D01*
X104905460Y-81000000D01*
X104885674Y-80811744D01*
X104827179Y-80631716D01*
X104732533Y-80467784D01*
X104605871Y-80327112D01*
X104568559Y-80300003D01*
X104452734Y-80215851D01*
X104452729Y-80215848D01*
X104279807Y-80138857D01*
X104279803Y-80138856D01*
X104221921Y-80126552D01*
X104160439Y-80093359D01*
X104129772Y-80043580D01*
X104077181Y-79881721D01*
X104077178Y-79881715D01*
X103982533Y-79717784D01*
X103855871Y-79577112D01*
X103851878Y-79574211D01*
X103702734Y-79465851D01*
X103702729Y-79465848D01*
X103529807Y-79388857D01*
X103529802Y-79388855D01*
X103384000Y-79357865D01*
X103344646Y-79349500D01*
X103155354Y-79349500D01*
X103122897Y-79356398D01*
X102970197Y-79388855D01*
X102970192Y-79388857D01*
X102797270Y-79465848D01*
X102797265Y-79465851D01*
X102644129Y-79577111D01*
X102517466Y-79717785D01*
X102422821Y-79881715D01*
X102422818Y-79881722D01*
X102370228Y-80043580D01*
X102364326Y-80061744D01*
X102344540Y-80250000D01*
X94500500Y-80250000D01*
X94500500Y-79100003D01*
X106294435Y-79100003D01*
X106314630Y-79279249D01*
X106314631Y-79279254D01*
X106374211Y-79449523D01*
X106470184Y-79602262D01*
X106597740Y-79729818D01*
X106646974Y-79760753D01*
X106693266Y-79813087D01*
X106703915Y-79882141D01*
X106685999Y-79931715D01*
X106674210Y-79950478D01*
X106614633Y-80120737D01*
X106614630Y-80120750D01*
X106594435Y-80299996D01*
X106594435Y-80300003D01*
X106614630Y-80479249D01*
X106614631Y-80479254D01*
X106674211Y-80649523D01*
X106757587Y-80782214D01*
X106770184Y-80802262D01*
X106897738Y-80929816D01*
X107050478Y-81025789D01*
X107220745Y-81085368D01*
X107220750Y-81085369D01*
X107399996Y-81105565D01*
X107400000Y-81105565D01*
X107400004Y-81105565D01*
X107579249Y-81085369D01*
X107579252Y-81085368D01*
X107579255Y-81085368D01*
X107749522Y-81025789D01*
X107902262Y-80929816D01*
X108029816Y-80802262D01*
X108125789Y-80649522D01*
X108185368Y-80479255D01*
X108185369Y-80479249D01*
X108205565Y-80300003D01*
X108205565Y-80299996D01*
X108185369Y-80120750D01*
X108185368Y-80120745D01*
X108125788Y-79950476D01*
X108047816Y-79826385D01*
X108029816Y-79797738D01*
X107902262Y-79670184D01*
X107902260Y-79670182D01*
X107853022Y-79639244D01*
X107806732Y-79586910D01*
X107796084Y-79517856D01*
X107814001Y-79468282D01*
X107825789Y-79449522D01*
X107885368Y-79279255D01*
X107905565Y-79100000D01*
X107885821Y-78924767D01*
X107885369Y-78920750D01*
X107885368Y-78920745D01*
X107864512Y-78861142D01*
X107825789Y-78750478D01*
X107817011Y-78736508D01*
X109752451Y-78736508D01*
X109772237Y-78924764D01*
X109772238Y-78924767D01*
X109830729Y-79104785D01*
X109830732Y-79104792D01*
X109925378Y-79268724D01*
X110033545Y-79388855D01*
X110052040Y-79409396D01*
X110205176Y-79520656D01*
X110205181Y-79520659D01*
X110378103Y-79597650D01*
X110378108Y-79597652D01*
X110563265Y-79637008D01*
X110563266Y-79637008D01*
X110752555Y-79637008D01*
X110752557Y-79637008D01*
X110937714Y-79597652D01*
X111110641Y-79520659D01*
X111263782Y-79409396D01*
X111390444Y-79268724D01*
X111485090Y-79104792D01*
X111543585Y-78924764D01*
X111563371Y-78736508D01*
X111543585Y-78548252D01*
X111487035Y-78374211D01*
X111485092Y-78368230D01*
X111485091Y-78368229D01*
X111485090Y-78368224D01*
X111390444Y-78204292D01*
X111263782Y-78063620D01*
X111263781Y-78063619D01*
X111110645Y-77952359D01*
X111110640Y-77952356D01*
X110937718Y-77875365D01*
X110937713Y-77875363D01*
X110791912Y-77844373D01*
X110752557Y-77836008D01*
X110563265Y-77836008D01*
X110530808Y-77842906D01*
X110378108Y-77875363D01*
X110378103Y-77875365D01*
X110205181Y-77952356D01*
X110205176Y-77952359D01*
X110052040Y-78063619D01*
X109925377Y-78204293D01*
X109830732Y-78368223D01*
X109830729Y-78368230D01*
X109796724Y-78472888D01*
X109772237Y-78548252D01*
X109752451Y-78736508D01*
X107817011Y-78736508D01*
X107817010Y-78736507D01*
X107729815Y-78597737D01*
X107602262Y-78470184D01*
X107449523Y-78374211D01*
X107279254Y-78314631D01*
X107279249Y-78314630D01*
X107100004Y-78294435D01*
X107099996Y-78294435D01*
X106920750Y-78314630D01*
X106920745Y-78314631D01*
X106750476Y-78374211D01*
X106597737Y-78470184D01*
X106470184Y-78597737D01*
X106374211Y-78750476D01*
X106314631Y-78920745D01*
X106314630Y-78920750D01*
X106294435Y-79099996D01*
X106294435Y-79100003D01*
X94500500Y-79100003D01*
X94500500Y-77800000D01*
X95494540Y-77800000D01*
X95514326Y-77988256D01*
X95514327Y-77988259D01*
X95572818Y-78168277D01*
X95572821Y-78168284D01*
X95667467Y-78332216D01*
X95699937Y-78368277D01*
X95794129Y-78472888D01*
X95947265Y-78584148D01*
X95947270Y-78584151D01*
X96120192Y-78661142D01*
X96120197Y-78661144D01*
X96305354Y-78700500D01*
X96305355Y-78700500D01*
X96494644Y-78700500D01*
X96494646Y-78700500D01*
X96679803Y-78661144D01*
X96852730Y-78584151D01*
X97005871Y-78472888D01*
X97132533Y-78332216D01*
X97227179Y-78168284D01*
X97281858Y-78000000D01*
X103594540Y-78000000D01*
X103614326Y-78188256D01*
X103614327Y-78188259D01*
X103672818Y-78368277D01*
X103672821Y-78368284D01*
X103767467Y-78532216D01*
X103883553Y-78661142D01*
X103894129Y-78672888D01*
X104047265Y-78784148D01*
X104047270Y-78784151D01*
X104220192Y-78861142D01*
X104220197Y-78861144D01*
X104405354Y-78900500D01*
X104405355Y-78900500D01*
X104594644Y-78900500D01*
X104594646Y-78900500D01*
X104779803Y-78861144D01*
X104952730Y-78784151D01*
X105105871Y-78672888D01*
X105232533Y-78532216D01*
X105327179Y-78368284D01*
X105385674Y-78188256D01*
X105405460Y-78000000D01*
X105385674Y-77811744D01*
X105327179Y-77631716D01*
X105232533Y-77467784D01*
X105105871Y-77327112D01*
X105105870Y-77327111D01*
X104952734Y-77215851D01*
X104952729Y-77215848D01*
X104779807Y-77138857D01*
X104779802Y-77138855D01*
X104634000Y-77107865D01*
X104594646Y-77099500D01*
X104405354Y-77099500D01*
X104372897Y-77106398D01*
X104220197Y-77138855D01*
X104220192Y-77138857D01*
X104047270Y-77215848D01*
X104047265Y-77215851D01*
X103894129Y-77327111D01*
X103767466Y-77467785D01*
X103672821Y-77631715D01*
X103672818Y-77631722D01*
X103618142Y-77800000D01*
X103614326Y-77811744D01*
X103594540Y-78000000D01*
X97281858Y-78000000D01*
X97285674Y-77988256D01*
X97305460Y-77800000D01*
X97285674Y-77611744D01*
X97227179Y-77431716D01*
X97132533Y-77267784D01*
X97005871Y-77127112D01*
X97005870Y-77127111D01*
X96852734Y-77015851D01*
X96852729Y-77015848D01*
X96679807Y-76938857D01*
X96679802Y-76938855D01*
X96534000Y-76907865D01*
X96494646Y-76899500D01*
X96305354Y-76899500D01*
X96272897Y-76906398D01*
X96120197Y-76938855D01*
X96120192Y-76938857D01*
X95947270Y-77015848D01*
X95947265Y-77015851D01*
X95794129Y-77127111D01*
X95667466Y-77267785D01*
X95572821Y-77431715D01*
X95572818Y-77431722D01*
X95514327Y-77611740D01*
X95514326Y-77611744D01*
X95494540Y-77800000D01*
X94500500Y-77800000D01*
X94500500Y-75924500D01*
X94520185Y-75857461D01*
X94572989Y-75811706D01*
X94624500Y-75800500D01*
X99975240Y-75800500D01*
X99975383Y-75800528D01*
X99975384Y-75800524D01*
X99999997Y-75800539D01*
X100000000Y-75800541D01*
X100000383Y-75800383D01*
X100000500Y-75800099D01*
X100000541Y-75800000D01*
X100894540Y-75800000D01*
X100914326Y-75988256D01*
X100914327Y-75988259D01*
X100972818Y-76168277D01*
X100972821Y-76168284D01*
X101067467Y-76332216D01*
X101194128Y-76472887D01*
X101194129Y-76472888D01*
X101347265Y-76584148D01*
X101347270Y-76584151D01*
X101520192Y-76661142D01*
X101520197Y-76661144D01*
X101705354Y-76700500D01*
X101705355Y-76700500D01*
X101894644Y-76700500D01*
X101894646Y-76700500D01*
X102079803Y-76661144D01*
X102252730Y-76584151D01*
X102405871Y-76472888D01*
X102532533Y-76332216D01*
X102627179Y-76168284D01*
X102685674Y-75988256D01*
X102705460Y-75800000D01*
X102685674Y-75611744D01*
X102627179Y-75431716D01*
X102532533Y-75267784D01*
X102405871Y-75127112D01*
X102405870Y-75127111D01*
X102252734Y-75015851D01*
X102252729Y-75015848D01*
X102079807Y-74938857D01*
X102079802Y-74938855D01*
X101934001Y-74907865D01*
X101894646Y-74899500D01*
X101705354Y-74899500D01*
X101672897Y-74906398D01*
X101520197Y-74938855D01*
X101520192Y-74938857D01*
X101347270Y-75015848D01*
X101347265Y-75015851D01*
X101194129Y-75127111D01*
X101067466Y-75267785D01*
X100972821Y-75431715D01*
X100972818Y-75431722D01*
X100940166Y-75532216D01*
X100914326Y-75611744D01*
X100894540Y-75800000D01*
X100000541Y-75800000D01*
X100000540Y-75799997D01*
X100000583Y-75775889D01*
X100000500Y-75775467D01*
X100000500Y-74500000D01*
X105094540Y-74500000D01*
X105114326Y-74688256D01*
X105114327Y-74688259D01*
X105172818Y-74868277D01*
X105172821Y-74868284D01*
X105267467Y-75032216D01*
X105352911Y-75127111D01*
X105394129Y-75172888D01*
X105547265Y-75284148D01*
X105547270Y-75284151D01*
X105720192Y-75361142D01*
X105720197Y-75361144D01*
X105905354Y-75400500D01*
X105905355Y-75400500D01*
X106094644Y-75400500D01*
X106094646Y-75400500D01*
X106279803Y-75361144D01*
X106452730Y-75284151D01*
X106605871Y-75172888D01*
X106732533Y-75032216D01*
X106751133Y-75000000D01*
X113094540Y-75000000D01*
X113114326Y-75188256D01*
X113114327Y-75188259D01*
X113172818Y-75368277D01*
X113172821Y-75368284D01*
X113267467Y-75532216D01*
X113339071Y-75611740D01*
X113394129Y-75672888D01*
X113547265Y-75784148D01*
X113547270Y-75784151D01*
X113720192Y-75861142D01*
X113720197Y-75861144D01*
X113905354Y-75900500D01*
X113905355Y-75900500D01*
X114094644Y-75900500D01*
X114094646Y-75900500D01*
X114279803Y-75861144D01*
X114452730Y-75784151D01*
X114605871Y-75672888D01*
X114732533Y-75532216D01*
X114827179Y-75368284D01*
X114885674Y-75188256D01*
X114905460Y-75000000D01*
X114885674Y-74811744D01*
X114827179Y-74631716D01*
X114732533Y-74467784D01*
X114605871Y-74327112D01*
X114584719Y-74311744D01*
X114452734Y-74215851D01*
X114452729Y-74215848D01*
X114279807Y-74138857D01*
X114279802Y-74138855D01*
X114134001Y-74107865D01*
X114094646Y-74099500D01*
X113905354Y-74099500D01*
X113872897Y-74106398D01*
X113720197Y-74138855D01*
X113720192Y-74138857D01*
X113547270Y-74215848D01*
X113547265Y-74215851D01*
X113394129Y-74327111D01*
X113267466Y-74467785D01*
X113172821Y-74631715D01*
X113172818Y-74631722D01*
X113114327Y-74811740D01*
X113114326Y-74811744D01*
X113094540Y-75000000D01*
X106751133Y-75000000D01*
X106827179Y-74868284D01*
X106885674Y-74688256D01*
X106905460Y-74500000D01*
X106885674Y-74311744D01*
X106827179Y-74131716D01*
X106732533Y-73967784D01*
X106605871Y-73827112D01*
X106532638Y-73773905D01*
X106452734Y-73715851D01*
X106452729Y-73715848D01*
X106279807Y-73638857D01*
X106279802Y-73638855D01*
X106134001Y-73607865D01*
X106094646Y-73599500D01*
X105905354Y-73599500D01*
X105872897Y-73606398D01*
X105720197Y-73638855D01*
X105720192Y-73638857D01*
X105547270Y-73715848D01*
X105547265Y-73715851D01*
X105394129Y-73827111D01*
X105267466Y-73967785D01*
X105172821Y-74131715D01*
X105172818Y-74131722D01*
X105114327Y-74311740D01*
X105114326Y-74311744D01*
X105094540Y-74500000D01*
X100000500Y-74500000D01*
X100000500Y-72500000D01*
X102144341Y-72500000D01*
X102164936Y-72735403D01*
X102164938Y-72735413D01*
X102226094Y-72963655D01*
X102226096Y-72963659D01*
X102226097Y-72963663D01*
X102276030Y-73070746D01*
X102325964Y-73177828D01*
X102325965Y-73177830D01*
X102461505Y-73371402D01*
X102628597Y-73538494D01*
X102822169Y-73674034D01*
X102822171Y-73674035D01*
X103036337Y-73773903D01*
X103264592Y-73835063D01*
X103441034Y-73850500D01*
X103558966Y-73850500D01*
X103735408Y-73835063D01*
X103963663Y-73773903D01*
X104177829Y-73674035D01*
X104371401Y-73538495D01*
X104538495Y-73371401D01*
X104674035Y-73177830D01*
X104773903Y-72963663D01*
X104835063Y-72735408D01*
X104855659Y-72500000D01*
X104835063Y-72264592D01*
X104773903Y-72036337D01*
X104674035Y-71822171D01*
X104674034Y-71822169D01*
X104538494Y-71628597D01*
X104509897Y-71600000D01*
X105494540Y-71600000D01*
X105514326Y-71788256D01*
X105514327Y-71788259D01*
X105572818Y-71968277D01*
X105572821Y-71968284D01*
X105667467Y-72132216D01*
X105786654Y-72264586D01*
X105794129Y-72272888D01*
X105947265Y-72384148D01*
X105947270Y-72384151D01*
X106120192Y-72461142D01*
X106120197Y-72461144D01*
X106305354Y-72500500D01*
X106305355Y-72500500D01*
X106494644Y-72500500D01*
X106494646Y-72500500D01*
X106679803Y-72461144D01*
X106852730Y-72384151D01*
X107005871Y-72272888D01*
X107132533Y-72132216D01*
X107227179Y-71968284D01*
X107285674Y-71788256D01*
X107305460Y-71600000D01*
X107294950Y-71500000D01*
X109344540Y-71500000D01*
X109364326Y-71688256D01*
X109364327Y-71688259D01*
X109422818Y-71868277D01*
X109422821Y-71868284D01*
X109517467Y-72032216D01*
X109607506Y-72132214D01*
X109644129Y-72172888D01*
X109797265Y-72284148D01*
X109797270Y-72284151D01*
X109970192Y-72361142D01*
X109970197Y-72361144D01*
X110155354Y-72400500D01*
X110155355Y-72400500D01*
X110344644Y-72400500D01*
X110344646Y-72400500D01*
X110529803Y-72361144D01*
X110702730Y-72284151D01*
X110855871Y-72172888D01*
X110982533Y-72032216D01*
X111077179Y-71868284D01*
X111135674Y-71688256D01*
X111155460Y-71500000D01*
X111135674Y-71311744D01*
X111077179Y-71131716D01*
X110982533Y-70967784D01*
X110855871Y-70827112D01*
X110840369Y-70815849D01*
X110702734Y-70715851D01*
X110702729Y-70715848D01*
X110529807Y-70638857D01*
X110529802Y-70638855D01*
X110384001Y-70607865D01*
X110344646Y-70599500D01*
X110155354Y-70599500D01*
X110122897Y-70606398D01*
X109970197Y-70638855D01*
X109970192Y-70638857D01*
X109797270Y-70715848D01*
X109797265Y-70715851D01*
X109644129Y-70827111D01*
X109517466Y-70967785D01*
X109422821Y-71131715D01*
X109422818Y-71131722D01*
X109364327Y-71311740D01*
X109364326Y-71311744D01*
X109344540Y-71500000D01*
X107294950Y-71500000D01*
X107285674Y-71411744D01*
X107227179Y-71231716D01*
X107132533Y-71067784D01*
X107005871Y-70927112D01*
X107005870Y-70927111D01*
X106852734Y-70815851D01*
X106852729Y-70815848D01*
X106679807Y-70738857D01*
X106679802Y-70738855D01*
X106534000Y-70707865D01*
X106494646Y-70699500D01*
X106305354Y-70699500D01*
X106272897Y-70706398D01*
X106120197Y-70738855D01*
X106120192Y-70738857D01*
X105947270Y-70815848D01*
X105947265Y-70815851D01*
X105794129Y-70927111D01*
X105667466Y-71067785D01*
X105572821Y-71231715D01*
X105572818Y-71231722D01*
X105542197Y-71325965D01*
X105514326Y-71411744D01*
X105494540Y-71600000D01*
X104509897Y-71600000D01*
X104371402Y-71461505D01*
X104177830Y-71325965D01*
X104177828Y-71325964D01*
X104070745Y-71276031D01*
X103963663Y-71226097D01*
X103963659Y-71226096D01*
X103963655Y-71226094D01*
X103735413Y-71164938D01*
X103735403Y-71164936D01*
X103558966Y-71149500D01*
X103441034Y-71149500D01*
X103264596Y-71164936D01*
X103264586Y-71164938D01*
X103036344Y-71226094D01*
X103036335Y-71226098D01*
X102822171Y-71325964D01*
X102822169Y-71325965D01*
X102628597Y-71461505D01*
X102461506Y-71628597D01*
X102461501Y-71628604D01*
X102325967Y-71822165D01*
X102325965Y-71822169D01*
X102226098Y-72036335D01*
X102226094Y-72036344D01*
X102164938Y-72264586D01*
X102164936Y-72264596D01*
X102144341Y-72499999D01*
X102144341Y-72500000D01*
X100000500Y-72500000D01*
X100000500Y-70124500D01*
X100020185Y-70057461D01*
X100072989Y-70011706D01*
X100124500Y-70000500D01*
X119875500Y-70000500D01*
X119942539Y-70020185D01*
G37*
G04 #@! TD.AperFunction*
M02*
