M48
; DRILL file {KiCad 7.0.7} date 2023 October 18, Wednesday 20:35:32
; FORMAT={-:-/ absolute / inch / decimal}
; #@! TF.CreationDate,2023-10-18T20:35:32-04:00
; #@! TF.GenerationSoftware,Kicad,Pcbnew,7.0.7
; #@! TF.FileFunction,Plated,1,4,PTH
FMAT,2
INCH
; #@! TA.AperFunction,Plated,PTH,ViaDrill
T1C0.0118
; #@! TA.AperFunction,Plated,PTH,ViaDrill
T2C0.0157
; #@! TA.AperFunction,Plated,PTH,ComponentDrill
T3C0.0197
; #@! TA.AperFunction,Plated,PTH,ComponentDrill
T4C0.0217
; #@! TA.AperFunction,Plated,PTH,ViaDrill
T5C0.0315
%
G90
G05
T1
X4.1693Y-3.3031
X4.1693Y-3.3425
X4.2008Y-2.9646
X4.2165Y-3.1142
X4.2283Y-3.1614
X4.3543Y-3.1732
X4.378Y-3.4488
X4.748Y-3.5984
T2
X3.7598Y-3.7717
X3.7613Y-3.6245
X3.8356Y-3.7697
X3.8437Y-3.0642
X3.8484Y-3.5335
X3.8583Y-3.2677
X3.8583Y-3.3465
X3.8583Y-3.4173
X3.9045Y-3.7697
X3.937Y-3.6122
X4.0Y-3.5276
X4.0079Y-2.9843
X4.0157Y-3.3465
X4.065Y-3.1594
X4.0778Y-5.2904
X4.0787Y-2.9843
X4.0945Y-3.189
X4.1142Y-3.0709
X4.1368Y-5.123
X4.1368Y-5.1624
X4.1726Y-3.6931
X4.1732Y-2.9331
X4.1732Y-3.7697
X4.1732Y-5.4232
X4.1732Y-5.4921
X4.186Y-5.123
X4.1929Y-2.815
X4.2126Y-5.4528
X4.2362Y-3.378
X4.2362Y-3.7756
X4.2441Y-3.5551
X4.2559Y-3.5118
X4.3012Y-4.3701
X4.3041Y-5.1821
X4.311Y-5.4232
X4.311Y-5.4921
X4.311Y-5.5433
X4.313Y-3.6243
X4.3228Y-3.9016
X4.3406Y-2.815
X4.3533Y-5.2411
X4.3566Y-3.0999
X4.3898Y-5.4547
X4.3898Y-5.5118
X4.4016Y-3.7953
X4.4142Y-5.3839
X4.4331Y-3.0541
X4.435Y-3.6378
X4.439Y-2.9823
X4.4449Y-3.752
X4.4488Y-5.4528
X4.4717Y-5.2902
X4.4882Y-2.9528
X4.498Y-5.4232
X4.498Y-5.4921
X4.5Y-3.5512
X4.5827Y-3.7244
X4.6063Y-3.189
X4.6063Y-3.6969
X4.8937Y-3.5039
T5
X4.6063Y-3.248
X4.6063Y-3.3071
X4.748Y-3.7598
T3
G00X4.4988Y-5.6181
M15
G01X4.4988Y-5.6457
M16
G05
T4
G00X4.1626Y-5.622
M15
G01X4.1626Y-5.6417
M16
G05
T0
M30
