%TF.GenerationSoftware,KiCad,Pcbnew,7.0.7*%
%TF.CreationDate,2023-10-18T20:35:36-04:00*%
%TF.ProjectId,room_environment_monitor,726f6f6d-5f65-46e7-9669-726f6e6d656e,rev?*%
%TF.SameCoordinates,Original*%
%TF.FileFunction,Copper,L2,Inr*%
%TF.FilePolarity,Positive*%
%FSLAX46Y46*%
G04 Gerber Fmt 4.6, Leading zero omitted, Abs format (unit mm)*
G04 Created by KiCad (PCBNEW 7.0.7) date 2023-10-18 20:35:36*
%MOMM*%
%LPD*%
G01*
G04 APERTURE LIST*
%TA.AperFunction,ComponentPad*%
%ADD10O,1.066800X1.701800*%
%TD*%
%TA.AperFunction,ViaPad*%
%ADD11C,0.800000*%
%TD*%
%TA.AperFunction,ViaPad*%
%ADD12C,1.200000*%
%TD*%
%TA.AperFunction,ViaPad*%
%ADD13C,0.600000*%
%TD*%
%TA.AperFunction,Profile*%
%ADD14C,0.100000*%
%TD*%
%ADD15C,0.050000*%
%ADD16C,0.152400*%
%ADD17C,0.060000*%
%ADD18C,0.150000*%
%ADD19C,0.075000*%
%ADD20C,0.100000*%
%ADD21C,0.025400*%
%ADD22C,0.508000*%
G04 APERTURE END LIST*
D10*
%TO.N,GND*%
%TO.C,P1*%
X114269999Y-143050003D03*
X105730001Y-143050003D03*
%TD*%
D11*
%TO.N,EN*%
X101600000Y-89600000D03*
%TO.N,GND*%
X103575000Y-134375000D03*
X95500000Y-95800000D03*
X97425000Y-95750000D03*
X107600000Y-95900000D03*
X109325000Y-131625000D03*
X110575000Y-133125000D03*
X98000000Y-85000000D03*
X106000000Y-137750000D03*
X112750000Y-75750000D03*
X104500000Y-78000000D03*
X107600000Y-85800000D03*
X98000000Y-83000000D03*
X106000000Y-139500000D03*
X109550001Y-92056200D03*
D12*
X120600000Y-95500000D03*
D11*
X102000000Y-85000000D03*
X109800000Y-99100000D03*
X114250000Y-137750000D03*
X105985081Y-93804619D03*
X98000000Y-86800000D03*
X113000000Y-138500000D03*
X109250000Y-111000000D03*
X113580000Y-134370000D03*
X114250000Y-139500000D03*
X107000000Y-138500000D03*
X112900000Y-95300000D03*
X99175000Y-95750000D03*
D12*
X117000000Y-84000000D03*
D11*
%TO.N,BOOT*%
X104000000Y-81000000D03*
%TO.N,+3V3*%
X111800000Y-96400000D03*
X117000000Y-93900000D03*
X112600000Y-77575000D03*
D13*
X106700000Y-75300000D03*
D11*
X108100000Y-89200000D03*
X105075000Y-130125000D03*
X95537701Y-92062299D03*
X112649500Y-92400000D03*
X105075000Y-131125000D03*
X106325000Y-130125000D03*
D13*
X110600000Y-80600000D03*
D11*
X97750000Y-89750000D03*
X103600000Y-75800000D03*
X116400000Y-94600000D03*
X106500000Y-71500000D03*
X106000000Y-95750000D03*
%TO.N,+5V*%
X110250000Y-71500000D03*
D12*
X117000000Y-82500000D03*
D11*
X109500000Y-139500000D03*
X111500000Y-138550000D03*
X109500000Y-137750000D03*
X124300000Y-89000000D03*
X111500000Y-140000000D03*
%TO.N,NEOPIXEL*%
X110657911Y-78736508D03*
X103250000Y-80250000D03*
D13*
%TO.N,UART1_RX*%
X107400000Y-80300000D03*
X105900000Y-84900000D03*
%TO.N,FAN*%
X111200000Y-87600000D03*
X120600000Y-91400000D03*
%TO.N,UART1_TX_LVL*%
X107100000Y-79100000D03*
X105900000Y-83900000D03*
D11*
%TO.N,I2C_SDA*%
X107800000Y-90300000D03*
X114300000Y-90200000D03*
%TO.N,Net-(P1-VCONN)*%
X112120000Y-136750000D03*
X109500000Y-140800000D03*
%TO.N,Net-(J3-Pin_5)*%
X101800000Y-75800000D03*
%TO.N,Net-(J3-Pin_6)*%
X97630000Y-77830000D03*
%TO.N,Net-(J2-Pin_2)*%
X117000000Y-81000000D03*
X114000000Y-75000000D03*
%TO.N,PD*%
X106000000Y-74500000D03*
X100000000Y-91750000D03*
%TD*%
%TA.AperFunction,Conductor*%
%TO.N,GND*%
G36*
X119942539Y-70020185D02*
G01*
X119988294Y-70072989D01*
X119999500Y-70124500D01*
X119999500Y-85225467D01*
X119999416Y-85225889D01*
X119999459Y-85250001D01*
X119999500Y-85250099D01*
X119999616Y-85250382D01*
X119999618Y-85250384D01*
X119999808Y-85250462D01*
X120000000Y-85250541D01*
X120000002Y-85250539D01*
X120024616Y-85250524D01*
X120024616Y-85250528D01*
X120024760Y-85250500D01*
X129875500Y-85250500D01*
X129942539Y-85270185D01*
X129988294Y-85322989D01*
X129999500Y-85374500D01*
X129999500Y-97625500D01*
X129979815Y-97692539D01*
X129927011Y-97738294D01*
X129875500Y-97749500D01*
X120024760Y-97749500D01*
X120024554Y-97749459D01*
X120000000Y-97749459D01*
X119999901Y-97749500D01*
X119999617Y-97749616D01*
X119999615Y-97749618D01*
X119999459Y-97749999D01*
X119999476Y-97774616D01*
X119999471Y-97774616D01*
X119999500Y-97774759D01*
X119999500Y-141375500D01*
X119979815Y-141442539D01*
X119927011Y-141488294D01*
X119875500Y-141499500D01*
X116724760Y-141499500D01*
X116724554Y-141499459D01*
X116700000Y-141499459D01*
X116699901Y-141499500D01*
X116699617Y-141499616D01*
X116699615Y-141499618D01*
X116699459Y-141499999D01*
X116699476Y-141524616D01*
X116699471Y-141524616D01*
X116699499Y-141524759D01*
X116699500Y-144375500D01*
X116679815Y-144442539D01*
X116627012Y-144488294D01*
X116575500Y-144499500D01*
X114839426Y-144499500D01*
X114772387Y-144479815D01*
X114726632Y-144427011D01*
X114716688Y-144357853D01*
X114745713Y-144294297D01*
X114780973Y-144266142D01*
X114846897Y-144230904D01*
X114846903Y-144230900D01*
X115004259Y-144101763D01*
X115133396Y-143944407D01*
X115133400Y-143944401D01*
X115229352Y-143764888D01*
X115229353Y-143764885D01*
X115288446Y-143570083D01*
X115303399Y-143418264D01*
X115303399Y-143300003D01*
X114643999Y-143300003D01*
X114576960Y-143280318D01*
X114531205Y-143227514D01*
X114519999Y-143176003D01*
X114519999Y-142924003D01*
X114539684Y-142856964D01*
X114592488Y-142811209D01*
X114643999Y-142800003D01*
X115303399Y-142800003D01*
X115303399Y-142681741D01*
X115288446Y-142529922D01*
X115229353Y-142335120D01*
X115229352Y-142335117D01*
X115133400Y-142155604D01*
X115133396Y-142155598D01*
X115004259Y-141998242D01*
X114846903Y-141869105D01*
X114846897Y-141869101D01*
X114667382Y-141773148D01*
X114519999Y-141728439D01*
X114519999Y-142343738D01*
X114500314Y-142410777D01*
X114447510Y-142456532D01*
X114378352Y-142466476D01*
X114371808Y-142465356D01*
X114325432Y-142456131D01*
X114269999Y-142445105D01*
X114269998Y-142445105D01*
X114168190Y-142465356D01*
X114098598Y-142459128D01*
X114043421Y-142416264D01*
X114020177Y-142350374D01*
X114019999Y-142343738D01*
X114019999Y-141728439D01*
X114019998Y-141728439D01*
X113872615Y-141773148D01*
X113693100Y-141869101D01*
X113693094Y-141869105D01*
X113535738Y-141998242D01*
X113406601Y-142155598D01*
X113406597Y-142155604D01*
X113310645Y-142335117D01*
X113310644Y-142335120D01*
X113251551Y-142529922D01*
X113236599Y-142681741D01*
X113236599Y-142800003D01*
X113895999Y-142800003D01*
X113963038Y-142819688D01*
X114008793Y-142872492D01*
X114019999Y-142924003D01*
X114019999Y-143176003D01*
X114000314Y-143243042D01*
X113947510Y-143288797D01*
X113895999Y-143300003D01*
X113236599Y-143300003D01*
X113236599Y-143418264D01*
X113251551Y-143570083D01*
X113310644Y-143764885D01*
X113310645Y-143764888D01*
X113406597Y-143944401D01*
X113406601Y-143944407D01*
X113535738Y-144101763D01*
X113693094Y-144230900D01*
X113693100Y-144230904D01*
X113759025Y-144266142D01*
X113808869Y-144315104D01*
X113824330Y-144383242D01*
X113800499Y-144448921D01*
X113744941Y-144491290D01*
X113700572Y-144499500D01*
X106299428Y-144499500D01*
X106232389Y-144479815D01*
X106186634Y-144427011D01*
X106176690Y-144357853D01*
X106205715Y-144294297D01*
X106240975Y-144266142D01*
X106306899Y-144230904D01*
X106306905Y-144230900D01*
X106464261Y-144101763D01*
X106593398Y-143944407D01*
X106593402Y-143944401D01*
X106689354Y-143764888D01*
X106689355Y-143764885D01*
X106748448Y-143570083D01*
X106763400Y-143418264D01*
X106763401Y-143300003D01*
X106129001Y-143300003D01*
X106061962Y-143280318D01*
X106016207Y-143227514D01*
X106005001Y-143176003D01*
X106005001Y-142924003D01*
X106024686Y-142856964D01*
X106077490Y-142811209D01*
X106129001Y-142800003D01*
X106763401Y-142800003D01*
X106763400Y-142681741D01*
X106748448Y-142529922D01*
X106689355Y-142335120D01*
X106689354Y-142335117D01*
X106593402Y-142155604D01*
X106593398Y-142155598D01*
X106464261Y-141998242D01*
X106306905Y-141869105D01*
X106306899Y-141869101D01*
X106127384Y-141773148D01*
X105980001Y-141728439D01*
X105980001Y-142418248D01*
X105960316Y-142485287D01*
X105907512Y-142531042D01*
X105838354Y-142540986D01*
X105831817Y-142539867D01*
X105730001Y-142519615D01*
X105628191Y-142539865D01*
X105558600Y-142533638D01*
X105503423Y-142490774D01*
X105480179Y-142424884D01*
X105480001Y-142418248D01*
X105480001Y-141728439D01*
X105480000Y-141728439D01*
X105332617Y-141773148D01*
X105153102Y-141869101D01*
X105153096Y-141869105D01*
X104995740Y-141998242D01*
X104866603Y-142155598D01*
X104866599Y-142155604D01*
X104770647Y-142335117D01*
X104770646Y-142335120D01*
X104711553Y-142529922D01*
X104696601Y-142681741D01*
X104696600Y-142800002D01*
X104696601Y-142800003D01*
X105331001Y-142800003D01*
X105398040Y-142819688D01*
X105443795Y-142872492D01*
X105455001Y-142924003D01*
X105455001Y-143176003D01*
X105435316Y-143243042D01*
X105382512Y-143288797D01*
X105331001Y-143300003D01*
X104696601Y-143300003D01*
X104696601Y-143418264D01*
X104711553Y-143570083D01*
X104770646Y-143764885D01*
X104770647Y-143764888D01*
X104866599Y-143944401D01*
X104866603Y-143944407D01*
X104995740Y-144101763D01*
X105153096Y-144230900D01*
X105153102Y-144230904D01*
X105219027Y-144266142D01*
X105268871Y-144315104D01*
X105284332Y-144383242D01*
X105260501Y-144448921D01*
X105204943Y-144491290D01*
X105160574Y-144499500D01*
X103424500Y-144499500D01*
X103357461Y-144479815D01*
X103311706Y-144427011D01*
X103300500Y-144375500D01*
X103300500Y-141524759D01*
X103300528Y-141524616D01*
X103300524Y-141524616D01*
X103300539Y-141500002D01*
X103300541Y-141500000D01*
X103300462Y-141499808D01*
X103300384Y-141499618D01*
X103300382Y-141499616D01*
X103300099Y-141499500D01*
X103300000Y-141499459D01*
X103275446Y-141499459D01*
X103275240Y-141499500D01*
X100124500Y-141499500D01*
X100057461Y-141479815D01*
X100011706Y-141427011D01*
X100000500Y-141375500D01*
X100000500Y-140800000D01*
X108594540Y-140800000D01*
X108614326Y-140988256D01*
X108614327Y-140988259D01*
X108672818Y-141168277D01*
X108672821Y-141168284D01*
X108767467Y-141332216D01*
X108852821Y-141427011D01*
X108894129Y-141472888D01*
X109047265Y-141584148D01*
X109047270Y-141584151D01*
X109220192Y-141661142D01*
X109220197Y-141661144D01*
X109405354Y-141700500D01*
X109405355Y-141700500D01*
X109594644Y-141700500D01*
X109594646Y-141700500D01*
X109779803Y-141661144D01*
X109952730Y-141584151D01*
X110105871Y-141472888D01*
X110232533Y-141332216D01*
X110327179Y-141168284D01*
X110385674Y-140988256D01*
X110405460Y-140800000D01*
X110385674Y-140611744D01*
X110327179Y-140431716D01*
X110232533Y-140267784D01*
X110201188Y-140232972D01*
X110170958Y-140169981D01*
X110179583Y-140100645D01*
X110201188Y-140067028D01*
X110202915Y-140065109D01*
X110232533Y-140032216D01*
X110251133Y-140000000D01*
X110594540Y-140000000D01*
X110614326Y-140188256D01*
X110614327Y-140188259D01*
X110672818Y-140368277D01*
X110672821Y-140368284D01*
X110767467Y-140532216D01*
X110839071Y-140611740D01*
X110894129Y-140672888D01*
X111047265Y-140784148D01*
X111047270Y-140784151D01*
X111220192Y-140861142D01*
X111220197Y-140861144D01*
X111405354Y-140900500D01*
X111405355Y-140900500D01*
X111594644Y-140900500D01*
X111594646Y-140900500D01*
X111779803Y-140861144D01*
X111952730Y-140784151D01*
X112105871Y-140672888D01*
X112232533Y-140532216D01*
X112327179Y-140368284D01*
X112385674Y-140188256D01*
X112405460Y-140000000D01*
X112385674Y-139811744D01*
X112327179Y-139631716D01*
X112232533Y-139467784D01*
X112133655Y-139357969D01*
X112103427Y-139294981D01*
X112112052Y-139225646D01*
X112128533Y-139200000D01*
X116144341Y-139200000D01*
X116164936Y-139435403D01*
X116164938Y-139435413D01*
X116226094Y-139663655D01*
X116226096Y-139663659D01*
X116226097Y-139663663D01*
X116276030Y-139770745D01*
X116325964Y-139877828D01*
X116325965Y-139877830D01*
X116461505Y-140071402D01*
X116628597Y-140238494D01*
X116822169Y-140374034D01*
X116822171Y-140374035D01*
X117036337Y-140473903D01*
X117264592Y-140535063D01*
X117441034Y-140550500D01*
X117558966Y-140550500D01*
X117735408Y-140535063D01*
X117963663Y-140473903D01*
X118177829Y-140374035D01*
X118371401Y-140238495D01*
X118538495Y-140071401D01*
X118674035Y-139877830D01*
X118773903Y-139663663D01*
X118835063Y-139435408D01*
X118855659Y-139200000D01*
X118854961Y-139192027D01*
X118835063Y-138964596D01*
X118835063Y-138964592D01*
X118773903Y-138736337D01*
X118674035Y-138522171D01*
X118674034Y-138522169D01*
X118538494Y-138328597D01*
X118371402Y-138161505D01*
X118177830Y-138025965D01*
X118177828Y-138025964D01*
X118070746Y-137976031D01*
X117963663Y-137926097D01*
X117963659Y-137926096D01*
X117963655Y-137926094D01*
X117735413Y-137864938D01*
X117735403Y-137864936D01*
X117558966Y-137849500D01*
X117441034Y-137849500D01*
X117264596Y-137864936D01*
X117264586Y-137864938D01*
X117036344Y-137926094D01*
X117036335Y-137926098D01*
X116822171Y-138025964D01*
X116822169Y-138025965D01*
X116628597Y-138161505D01*
X116461506Y-138328597D01*
X116461501Y-138328604D01*
X116325967Y-138522165D01*
X116325965Y-138522169D01*
X116226098Y-138736335D01*
X116226094Y-138736344D01*
X116164938Y-138964586D01*
X116164936Y-138964596D01*
X116144341Y-139199999D01*
X116144341Y-139200000D01*
X112128533Y-139200000D01*
X112133653Y-139192032D01*
X112232533Y-139082216D01*
X112327179Y-138918284D01*
X112385674Y-138738256D01*
X112405460Y-138550000D01*
X112385674Y-138361744D01*
X112327179Y-138181716D01*
X112232533Y-138017784D01*
X112105871Y-137877112D01*
X112105867Y-137877109D01*
X112102713Y-137874817D01*
X112101329Y-137873022D01*
X112101042Y-137872764D01*
X112101089Y-137872711D01*
X112060047Y-137819487D01*
X112054069Y-137749873D01*
X112086676Y-137688079D01*
X112147515Y-137653722D01*
X112175599Y-137650500D01*
X112214644Y-137650500D01*
X112214646Y-137650500D01*
X112399803Y-137611144D01*
X112572730Y-137534151D01*
X112725871Y-137422888D01*
X112852533Y-137282216D01*
X112947179Y-137118284D01*
X113005674Y-136938256D01*
X113025460Y-136750000D01*
X113005674Y-136561744D01*
X112947179Y-136381716D01*
X112852533Y-136217784D01*
X112725871Y-136077112D01*
X112725870Y-136077111D01*
X112572734Y-135965851D01*
X112572729Y-135965848D01*
X112399807Y-135888857D01*
X112399802Y-135888855D01*
X112254000Y-135857865D01*
X112214646Y-135849500D01*
X112025354Y-135849500D01*
X111992897Y-135856398D01*
X111840197Y-135888855D01*
X111840192Y-135888857D01*
X111667270Y-135965848D01*
X111667265Y-135965851D01*
X111514129Y-136077111D01*
X111387466Y-136217785D01*
X111292821Y-136381715D01*
X111292818Y-136381722D01*
X111234327Y-136561740D01*
X111234326Y-136561744D01*
X111214540Y-136750000D01*
X111234326Y-136938256D01*
X111234327Y-136938259D01*
X111292818Y-137118277D01*
X111292821Y-137118284D01*
X111387467Y-137282216D01*
X111477063Y-137381722D01*
X111514129Y-137422888D01*
X111514132Y-137422890D01*
X111517287Y-137425183D01*
X111518670Y-137426977D01*
X111518958Y-137427236D01*
X111518910Y-137427288D01*
X111559953Y-137480513D01*
X111565931Y-137550127D01*
X111533324Y-137611921D01*
X111472485Y-137646278D01*
X111444401Y-137649500D01*
X111405354Y-137649500D01*
X111385491Y-137653722D01*
X111220197Y-137688855D01*
X111220192Y-137688857D01*
X111047270Y-137765848D01*
X111047265Y-137765851D01*
X110894129Y-137877111D01*
X110767466Y-138017785D01*
X110672821Y-138181715D01*
X110672818Y-138181722D01*
X110614327Y-138361740D01*
X110614326Y-138361744D01*
X110594540Y-138550000D01*
X110614326Y-138738256D01*
X110614327Y-138738259D01*
X110672818Y-138918277D01*
X110672821Y-138918284D01*
X110767467Y-139082216D01*
X110812036Y-139131715D01*
X110866342Y-139192028D01*
X110896572Y-139255020D01*
X110887947Y-139324355D01*
X110866342Y-139357972D01*
X110767466Y-139467785D01*
X110672821Y-139631715D01*
X110672818Y-139631722D01*
X110614327Y-139811740D01*
X110614326Y-139811744D01*
X110594540Y-140000000D01*
X110251133Y-140000000D01*
X110327179Y-139868284D01*
X110385674Y-139688256D01*
X110405460Y-139500000D01*
X110385674Y-139311744D01*
X110327179Y-139131716D01*
X110232533Y-138967784D01*
X110105871Y-138827112D01*
X109965762Y-138725317D01*
X109923097Y-138669988D01*
X109917118Y-138600375D01*
X109949723Y-138538580D01*
X109965763Y-138524682D01*
X109969227Y-138522165D01*
X110105871Y-138422888D01*
X110232533Y-138282216D01*
X110327179Y-138118284D01*
X110385674Y-137938256D01*
X110405460Y-137750000D01*
X110385674Y-137561744D01*
X110327179Y-137381716D01*
X110232533Y-137217784D01*
X110105871Y-137077112D01*
X110105870Y-137077111D01*
X109952734Y-136965851D01*
X109952729Y-136965848D01*
X109779807Y-136888857D01*
X109779802Y-136888855D01*
X109634000Y-136857865D01*
X109594646Y-136849500D01*
X109405354Y-136849500D01*
X109372897Y-136856398D01*
X109220197Y-136888855D01*
X109220192Y-136888857D01*
X109047270Y-136965848D01*
X109047265Y-136965851D01*
X108894129Y-137077111D01*
X108767466Y-137217785D01*
X108672821Y-137381715D01*
X108672818Y-137381722D01*
X108614327Y-137561740D01*
X108614326Y-137561744D01*
X108594540Y-137750000D01*
X108614326Y-137938256D01*
X108614327Y-137938259D01*
X108672818Y-138118277D01*
X108672821Y-138118284D01*
X108767467Y-138282216D01*
X108839071Y-138361740D01*
X108894129Y-138422888D01*
X109034236Y-138524682D01*
X109076902Y-138580012D01*
X109082881Y-138649625D01*
X109050275Y-138711420D01*
X109034236Y-138725318D01*
X108894129Y-138827111D01*
X108767466Y-138967785D01*
X108672821Y-139131715D01*
X108672818Y-139131722D01*
X108614327Y-139311740D01*
X108614326Y-139311744D01*
X108594540Y-139500000D01*
X108614326Y-139688256D01*
X108614327Y-139688259D01*
X108672818Y-139868277D01*
X108672821Y-139868284D01*
X108767467Y-140032216D01*
X108784082Y-140050669D01*
X108798812Y-140067029D01*
X108829041Y-140130021D01*
X108820415Y-140199356D01*
X108798812Y-140232971D01*
X108767466Y-140267785D01*
X108672821Y-140431715D01*
X108672818Y-140431722D01*
X108614327Y-140611740D01*
X108614326Y-140611744D01*
X108594540Y-140800000D01*
X100000500Y-140800000D01*
X100000500Y-139200000D01*
X101144341Y-139200000D01*
X101164936Y-139435403D01*
X101164938Y-139435413D01*
X101226094Y-139663655D01*
X101226096Y-139663659D01*
X101226097Y-139663663D01*
X101276030Y-139770746D01*
X101325964Y-139877828D01*
X101325965Y-139877830D01*
X101461505Y-140071402D01*
X101628597Y-140238494D01*
X101822169Y-140374034D01*
X101822171Y-140374035D01*
X102036337Y-140473903D01*
X102264592Y-140535063D01*
X102441034Y-140550500D01*
X102558966Y-140550500D01*
X102735408Y-140535063D01*
X102963663Y-140473903D01*
X103177829Y-140374035D01*
X103371401Y-140238495D01*
X103538495Y-140071401D01*
X103674035Y-139877830D01*
X103773903Y-139663663D01*
X103835063Y-139435408D01*
X103855659Y-139200000D01*
X103854961Y-139192027D01*
X103835063Y-138964596D01*
X103835063Y-138964592D01*
X103773903Y-138736337D01*
X103674035Y-138522171D01*
X103674034Y-138522169D01*
X103538494Y-138328597D01*
X103371402Y-138161505D01*
X103177830Y-138025965D01*
X103177828Y-138025964D01*
X103070745Y-137976031D01*
X102963663Y-137926097D01*
X102963659Y-137926096D01*
X102963655Y-137926094D01*
X102735413Y-137864938D01*
X102735403Y-137864936D01*
X102558966Y-137849500D01*
X102441034Y-137849500D01*
X102264596Y-137864936D01*
X102264586Y-137864938D01*
X102036344Y-137926094D01*
X102036335Y-137926098D01*
X101822171Y-138025964D01*
X101822169Y-138025965D01*
X101628597Y-138161505D01*
X101461506Y-138328597D01*
X101461501Y-138328604D01*
X101325967Y-138522165D01*
X101325965Y-138522169D01*
X101226098Y-138736335D01*
X101226094Y-138736344D01*
X101164938Y-138964586D01*
X101164936Y-138964596D01*
X101144341Y-139199999D01*
X101144341Y-139200000D01*
X100000500Y-139200000D01*
X100000500Y-131125000D01*
X104169540Y-131125000D01*
X104189326Y-131313256D01*
X104189327Y-131313259D01*
X104247818Y-131493277D01*
X104247821Y-131493284D01*
X104342467Y-131657216D01*
X104469128Y-131797888D01*
X104469129Y-131797888D01*
X104622265Y-131909148D01*
X104622270Y-131909151D01*
X104795192Y-131986142D01*
X104795197Y-131986144D01*
X104980354Y-132025500D01*
X104980355Y-132025500D01*
X105169644Y-132025500D01*
X105169646Y-132025500D01*
X105354803Y-131986144D01*
X105527730Y-131909151D01*
X105680871Y-131797888D01*
X105807533Y-131657216D01*
X105902179Y-131493284D01*
X105960674Y-131313256D01*
X105980460Y-131125000D01*
X105980459Y-131124998D01*
X105981139Y-131118537D01*
X105982466Y-131118676D01*
X106000145Y-131058471D01*
X106052949Y-131012716D01*
X106122107Y-131002772D01*
X106130226Y-131004217D01*
X106230354Y-131025500D01*
X106230355Y-131025500D01*
X106419644Y-131025500D01*
X106419646Y-131025500D01*
X106604803Y-130986144D01*
X106777730Y-130909151D01*
X106930871Y-130797888D01*
X107057533Y-130657216D01*
X107152179Y-130493284D01*
X107210674Y-130313256D01*
X107230460Y-130125000D01*
X107210674Y-129936744D01*
X107152179Y-129756716D01*
X107057533Y-129592784D01*
X106930871Y-129452112D01*
X106930870Y-129452111D01*
X106777734Y-129340851D01*
X106777729Y-129340848D01*
X106604807Y-129263857D01*
X106604802Y-129263855D01*
X106459001Y-129232865D01*
X106419646Y-129224500D01*
X106230354Y-129224500D01*
X106197897Y-129231398D01*
X106045197Y-129263855D01*
X106045192Y-129263857D01*
X105872271Y-129340848D01*
X105772885Y-129413056D01*
X105707078Y-129436535D01*
X105639025Y-129420709D01*
X105627115Y-129413056D01*
X105603966Y-129396237D01*
X105527730Y-129340849D01*
X105527728Y-129340848D01*
X105527729Y-129340848D01*
X105354807Y-129263857D01*
X105354802Y-129263855D01*
X105209000Y-129232865D01*
X105169646Y-129224500D01*
X104980354Y-129224500D01*
X104947897Y-129231398D01*
X104795197Y-129263855D01*
X104795192Y-129263857D01*
X104622270Y-129340848D01*
X104622265Y-129340851D01*
X104469129Y-129452111D01*
X104342466Y-129592785D01*
X104247821Y-129756715D01*
X104247818Y-129756722D01*
X104189327Y-129936740D01*
X104189326Y-129936744D01*
X104169540Y-130125000D01*
X104189326Y-130313256D01*
X104189327Y-130313259D01*
X104247818Y-130493277D01*
X104247820Y-130493281D01*
X104247821Y-130493284D01*
X104288072Y-130563001D01*
X104304543Y-130630901D01*
X104288072Y-130686999D01*
X104247820Y-130756718D01*
X104247818Y-130756722D01*
X104189327Y-130936740D01*
X104189326Y-130936744D01*
X104169540Y-131125000D01*
X100000500Y-131125000D01*
X100000500Y-129224500D01*
X100000500Y-97774754D01*
X100000528Y-97774616D01*
X100000524Y-97774616D01*
X100000539Y-97750002D01*
X100000541Y-97750000D01*
X100000462Y-97749808D01*
X100000384Y-97749618D01*
X100000382Y-97749616D01*
X100000099Y-97749500D01*
X100000000Y-97749459D01*
X99975446Y-97749459D01*
X99975240Y-97749500D01*
X94624500Y-97749500D01*
X94557461Y-97729815D01*
X94511706Y-97677011D01*
X94500500Y-97625500D01*
X94500500Y-95750000D01*
X105094540Y-95750000D01*
X105114326Y-95938256D01*
X105114327Y-95938259D01*
X105172818Y-96118277D01*
X105172821Y-96118284D01*
X105267467Y-96282216D01*
X105394128Y-96422888D01*
X105394129Y-96422888D01*
X105547265Y-96534148D01*
X105547270Y-96534151D01*
X105720192Y-96611142D01*
X105720197Y-96611144D01*
X105905354Y-96650500D01*
X105905355Y-96650500D01*
X106094644Y-96650500D01*
X106094646Y-96650500D01*
X106279803Y-96611144D01*
X106452730Y-96534151D01*
X106605871Y-96422888D01*
X106626480Y-96400000D01*
X110894540Y-96400000D01*
X110914326Y-96588256D01*
X110914327Y-96588259D01*
X110972818Y-96768277D01*
X110972821Y-96768284D01*
X111067467Y-96932216D01*
X111194128Y-97072887D01*
X111194129Y-97072888D01*
X111347265Y-97184148D01*
X111347270Y-97184151D01*
X111520192Y-97261142D01*
X111520197Y-97261144D01*
X111705354Y-97300500D01*
X111705355Y-97300500D01*
X111894644Y-97300500D01*
X111894646Y-97300500D01*
X112079803Y-97261144D01*
X112252730Y-97184151D01*
X112405871Y-97072888D01*
X112532533Y-96932216D01*
X112627179Y-96768284D01*
X112685674Y-96588256D01*
X112705460Y-96400000D01*
X112685674Y-96211744D01*
X112627179Y-96031716D01*
X112532533Y-95867784D01*
X112405871Y-95727112D01*
X112405870Y-95727111D01*
X112252734Y-95615851D01*
X112252729Y-95615848D01*
X112079807Y-95538857D01*
X112079802Y-95538855D01*
X111934000Y-95507865D01*
X111894646Y-95499500D01*
X111705354Y-95499500D01*
X111672897Y-95506398D01*
X111520197Y-95538855D01*
X111520192Y-95538857D01*
X111347270Y-95615848D01*
X111347265Y-95615851D01*
X111194129Y-95727111D01*
X111067466Y-95867785D01*
X110972821Y-96031715D01*
X110972818Y-96031722D01*
X110914327Y-96211740D01*
X110914326Y-96211744D01*
X110894540Y-96400000D01*
X106626480Y-96400000D01*
X106732533Y-96282216D01*
X106827179Y-96118284D01*
X106885674Y-95938256D01*
X106905460Y-95750000D01*
X106885674Y-95561744D01*
X106827179Y-95381716D01*
X106732533Y-95217784D01*
X106605871Y-95077112D01*
X106605870Y-95077111D01*
X106452734Y-94965851D01*
X106452729Y-94965848D01*
X106279807Y-94888857D01*
X106279802Y-94888855D01*
X106134001Y-94857865D01*
X106094646Y-94849500D01*
X105905354Y-94849500D01*
X105872897Y-94856398D01*
X105720197Y-94888855D01*
X105720192Y-94888857D01*
X105547270Y-94965848D01*
X105547265Y-94965851D01*
X105394129Y-95077111D01*
X105267466Y-95217785D01*
X105172821Y-95381715D01*
X105172818Y-95381722D01*
X105121762Y-95538857D01*
X105114326Y-95561744D01*
X105094540Y-95750000D01*
X94500500Y-95750000D01*
X94500500Y-94600000D01*
X115494540Y-94600000D01*
X115514326Y-94788256D01*
X115514327Y-94788259D01*
X115572818Y-94968277D01*
X115572821Y-94968284D01*
X115667467Y-95132216D01*
X115744513Y-95217784D01*
X115794129Y-95272888D01*
X115947265Y-95384148D01*
X115947270Y-95384151D01*
X116120192Y-95461142D01*
X116120197Y-95461144D01*
X116305354Y-95500500D01*
X116305355Y-95500500D01*
X116494644Y-95500500D01*
X116494646Y-95500500D01*
X116679803Y-95461144D01*
X116852730Y-95384151D01*
X117005871Y-95272888D01*
X117132533Y-95132216D01*
X117227179Y-94968284D01*
X117279906Y-94806005D01*
X117319342Y-94748332D01*
X117347392Y-94731050D01*
X117452730Y-94684151D01*
X117605871Y-94572888D01*
X117732533Y-94432216D01*
X117827179Y-94268284D01*
X117885674Y-94088256D01*
X117905460Y-93900000D01*
X117885674Y-93711744D01*
X117827179Y-93531716D01*
X117732533Y-93367784D01*
X117605871Y-93227112D01*
X117605870Y-93227111D01*
X117452734Y-93115851D01*
X117452729Y-93115848D01*
X117279807Y-93038857D01*
X117279802Y-93038855D01*
X117134000Y-93007865D01*
X117094646Y-92999500D01*
X116905354Y-92999500D01*
X116872897Y-93006398D01*
X116720197Y-93038855D01*
X116720192Y-93038857D01*
X116547270Y-93115848D01*
X116547265Y-93115851D01*
X116394129Y-93227111D01*
X116267466Y-93367785D01*
X116172821Y-93531715D01*
X116172818Y-93531722D01*
X116120094Y-93693991D01*
X116080656Y-93751667D01*
X116052599Y-93768952D01*
X115947269Y-93815848D01*
X115794129Y-93927111D01*
X115667466Y-94067785D01*
X115572821Y-94231715D01*
X115572818Y-94231722D01*
X115514327Y-94411740D01*
X115514326Y-94411744D01*
X115494540Y-94600000D01*
X94500500Y-94600000D01*
X94500500Y-92529588D01*
X94520185Y-92462549D01*
X94572989Y-92416794D01*
X94642147Y-92406850D01*
X94705703Y-92435875D01*
X94731886Y-92467587D01*
X94805168Y-92594515D01*
X94931829Y-92735186D01*
X94931830Y-92735187D01*
X95084966Y-92846447D01*
X95084971Y-92846450D01*
X95257893Y-92923441D01*
X95257898Y-92923443D01*
X95443055Y-92962799D01*
X95443056Y-92962799D01*
X95632345Y-92962799D01*
X95632347Y-92962799D01*
X95817504Y-92923443D01*
X95990431Y-92846450D01*
X96143572Y-92735187D01*
X96270234Y-92594515D01*
X96364880Y-92430583D01*
X96423375Y-92250555D01*
X96443161Y-92062299D01*
X96423375Y-91874043D01*
X96383071Y-91750000D01*
X99094540Y-91750000D01*
X99114326Y-91938256D01*
X99114327Y-91938259D01*
X99172818Y-92118277D01*
X99172821Y-92118284D01*
X99267467Y-92282216D01*
X99379688Y-92406850D01*
X99394129Y-92422888D01*
X99547265Y-92534148D01*
X99547270Y-92534151D01*
X99720192Y-92611142D01*
X99720197Y-92611144D01*
X99905354Y-92650500D01*
X99905355Y-92650500D01*
X100094644Y-92650500D01*
X100094646Y-92650500D01*
X100279803Y-92611144D01*
X100452730Y-92534151D01*
X100605871Y-92422888D01*
X100626480Y-92400000D01*
X111744040Y-92400000D01*
X111763826Y-92588256D01*
X111763827Y-92588259D01*
X111822318Y-92768277D01*
X111822321Y-92768284D01*
X111916967Y-92932216D01*
X112012987Y-93038857D01*
X112043629Y-93072888D01*
X112196765Y-93184148D01*
X112196770Y-93184151D01*
X112369692Y-93261142D01*
X112369697Y-93261144D01*
X112554854Y-93300500D01*
X112554855Y-93300500D01*
X112744144Y-93300500D01*
X112744146Y-93300500D01*
X112929303Y-93261144D01*
X113102230Y-93184151D01*
X113255371Y-93072888D01*
X113382033Y-92932216D01*
X113476679Y-92768284D01*
X113535174Y-92588256D01*
X113554960Y-92400000D01*
X113535174Y-92211744D01*
X113476679Y-92031716D01*
X113382033Y-91867784D01*
X113255371Y-91727112D01*
X113243446Y-91718448D01*
X113102234Y-91615851D01*
X113102229Y-91615848D01*
X112929307Y-91538857D01*
X112929302Y-91538855D01*
X112783501Y-91507865D01*
X112744146Y-91499500D01*
X112554854Y-91499500D01*
X112522397Y-91506398D01*
X112369697Y-91538855D01*
X112369692Y-91538857D01*
X112196770Y-91615848D01*
X112196765Y-91615851D01*
X112043629Y-91727111D01*
X111916966Y-91867785D01*
X111822321Y-92031715D01*
X111822318Y-92031722D01*
X111763827Y-92211740D01*
X111763826Y-92211744D01*
X111744040Y-92400000D01*
X100626480Y-92400000D01*
X100732533Y-92282216D01*
X100827179Y-92118284D01*
X100885674Y-91938256D01*
X100905460Y-91750000D01*
X100885674Y-91561744D01*
X100833121Y-91400003D01*
X119794435Y-91400003D01*
X119814630Y-91579249D01*
X119814631Y-91579254D01*
X119874211Y-91749523D01*
X119874511Y-91750000D01*
X119970184Y-91902262D01*
X120097738Y-92029816D01*
X120188080Y-92086581D01*
X120238522Y-92118277D01*
X120250478Y-92125789D01*
X120420744Y-92185368D01*
X120420745Y-92185368D01*
X120420750Y-92185369D01*
X120599996Y-92205565D01*
X120600000Y-92205565D01*
X120600004Y-92205565D01*
X120779249Y-92185369D01*
X120779252Y-92185368D01*
X120779255Y-92185368D01*
X120949522Y-92125789D01*
X121102262Y-92029816D01*
X121229816Y-91902262D01*
X121325789Y-91749522D01*
X121385368Y-91579255D01*
X121387341Y-91561744D01*
X121405565Y-91400003D01*
X121405565Y-91399996D01*
X121385369Y-91220750D01*
X121385368Y-91220745D01*
X121384332Y-91217784D01*
X121325789Y-91050478D01*
X121229816Y-90897738D01*
X121102262Y-90770184D01*
X121102261Y-90770183D01*
X120949523Y-90674211D01*
X120779254Y-90614631D01*
X120779249Y-90614630D01*
X120600004Y-90594435D01*
X120599996Y-90594435D01*
X120420750Y-90614630D01*
X120420745Y-90614631D01*
X120250476Y-90674211D01*
X120097737Y-90770184D01*
X119970184Y-90897737D01*
X119874211Y-91050476D01*
X119814631Y-91220745D01*
X119814630Y-91220750D01*
X119794435Y-91399996D01*
X119794435Y-91400003D01*
X100833121Y-91400003D01*
X100827179Y-91381716D01*
X100732533Y-91217784D01*
X100605871Y-91077112D01*
X100583893Y-91061144D01*
X100452734Y-90965851D01*
X100452729Y-90965848D01*
X100279807Y-90888857D01*
X100279802Y-90888855D01*
X100134000Y-90857865D01*
X100094646Y-90849500D01*
X99905354Y-90849500D01*
X99872897Y-90856398D01*
X99720197Y-90888855D01*
X99720192Y-90888857D01*
X99547270Y-90965848D01*
X99547265Y-90965851D01*
X99394129Y-91077111D01*
X99267466Y-91217785D01*
X99172821Y-91381715D01*
X99172818Y-91381722D01*
X99121762Y-91538857D01*
X99114326Y-91561744D01*
X99094540Y-91750000D01*
X96383071Y-91750000D01*
X96364880Y-91694015D01*
X96270234Y-91530083D01*
X96143572Y-91389411D01*
X96132981Y-91381716D01*
X95990435Y-91278150D01*
X95990430Y-91278147D01*
X95817508Y-91201156D01*
X95817503Y-91201154D01*
X95671702Y-91170164D01*
X95632347Y-91161799D01*
X95443055Y-91161799D01*
X95410598Y-91168697D01*
X95257898Y-91201154D01*
X95257893Y-91201156D01*
X95084971Y-91278147D01*
X95084966Y-91278150D01*
X94931830Y-91389410D01*
X94805166Y-91530084D01*
X94731887Y-91657009D01*
X94681320Y-91705225D01*
X94612713Y-91718448D01*
X94547848Y-91692480D01*
X94507320Y-91635565D01*
X94500500Y-91595009D01*
X94500500Y-89750000D01*
X96844540Y-89750000D01*
X96864326Y-89938256D01*
X96864327Y-89938259D01*
X96922818Y-90118277D01*
X96922821Y-90118284D01*
X97017467Y-90282216D01*
X97109247Y-90384148D01*
X97144129Y-90422888D01*
X97297265Y-90534148D01*
X97297270Y-90534151D01*
X97470192Y-90611142D01*
X97470197Y-90611144D01*
X97655354Y-90650500D01*
X97655355Y-90650500D01*
X97844644Y-90650500D01*
X97844646Y-90650500D01*
X98029803Y-90611144D01*
X98202730Y-90534151D01*
X98355871Y-90422888D01*
X98482533Y-90282216D01*
X98577179Y-90118284D01*
X98635674Y-89938256D01*
X98655460Y-89750000D01*
X98639695Y-89600000D01*
X100694540Y-89600000D01*
X100714326Y-89788256D01*
X100714327Y-89788259D01*
X100772818Y-89968277D01*
X100772821Y-89968284D01*
X100867467Y-90132216D01*
X100994128Y-90272887D01*
X100994129Y-90272888D01*
X101147265Y-90384148D01*
X101147270Y-90384151D01*
X101320192Y-90461142D01*
X101320197Y-90461144D01*
X101505354Y-90500500D01*
X101505355Y-90500500D01*
X101694644Y-90500500D01*
X101694646Y-90500500D01*
X101879803Y-90461144D01*
X102052730Y-90384151D01*
X102168554Y-90300000D01*
X106894540Y-90300000D01*
X106914326Y-90488256D01*
X106914327Y-90488259D01*
X106972818Y-90668277D01*
X106972821Y-90668284D01*
X107067467Y-90832216D01*
X107187790Y-90965848D01*
X107194129Y-90972888D01*
X107347265Y-91084148D01*
X107347270Y-91084151D01*
X107520192Y-91161142D01*
X107520197Y-91161144D01*
X107705354Y-91200500D01*
X107705355Y-91200500D01*
X107894644Y-91200500D01*
X107894646Y-91200500D01*
X108079803Y-91161144D01*
X108252730Y-91084151D01*
X108405871Y-90972888D01*
X108532533Y-90832216D01*
X108627179Y-90668284D01*
X108685674Y-90488256D01*
X108705460Y-90300000D01*
X108694950Y-90200000D01*
X113394540Y-90200000D01*
X113414326Y-90388256D01*
X113414327Y-90388259D01*
X113472818Y-90568277D01*
X113472821Y-90568284D01*
X113567467Y-90732216D01*
X113601654Y-90770184D01*
X113694129Y-90872888D01*
X113847265Y-90984148D01*
X113847270Y-90984151D01*
X114020192Y-91061142D01*
X114020197Y-91061144D01*
X114205354Y-91100500D01*
X114205355Y-91100500D01*
X114394644Y-91100500D01*
X114394646Y-91100500D01*
X114579803Y-91061144D01*
X114752730Y-90984151D01*
X114905871Y-90872888D01*
X115032533Y-90732216D01*
X115127179Y-90568284D01*
X115185674Y-90388256D01*
X115205460Y-90200000D01*
X115185674Y-90011744D01*
X115127179Y-89831716D01*
X115032533Y-89667784D01*
X114905871Y-89527112D01*
X114905870Y-89527111D01*
X114752734Y-89415851D01*
X114752729Y-89415848D01*
X114579807Y-89338857D01*
X114579802Y-89338855D01*
X114434000Y-89307865D01*
X114394646Y-89299500D01*
X114205354Y-89299500D01*
X114172897Y-89306398D01*
X114020197Y-89338855D01*
X114020192Y-89338857D01*
X113847270Y-89415848D01*
X113847265Y-89415851D01*
X113694129Y-89527111D01*
X113567466Y-89667785D01*
X113472821Y-89831715D01*
X113472818Y-89831722D01*
X113428449Y-89968277D01*
X113414326Y-90011744D01*
X113394540Y-90200000D01*
X108694950Y-90200000D01*
X108685674Y-90111744D01*
X108654582Y-90016056D01*
X108652588Y-89946218D01*
X108688668Y-89886385D01*
X108699624Y-89877426D01*
X108705871Y-89872888D01*
X108832533Y-89732216D01*
X108927179Y-89568284D01*
X108985674Y-89388256D01*
X109005460Y-89200000D01*
X108985674Y-89011744D01*
X108981858Y-89000000D01*
X123394540Y-89000000D01*
X123414326Y-89188256D01*
X123414327Y-89188259D01*
X123472818Y-89368277D01*
X123472821Y-89368284D01*
X123567467Y-89532216D01*
X123648827Y-89622575D01*
X123694129Y-89672888D01*
X123847265Y-89784148D01*
X123847270Y-89784151D01*
X124020192Y-89861142D01*
X124020197Y-89861144D01*
X124205354Y-89900500D01*
X124205355Y-89900500D01*
X124394644Y-89900500D01*
X124394646Y-89900500D01*
X124579803Y-89861144D01*
X124752730Y-89784151D01*
X124905871Y-89672888D01*
X125032533Y-89532216D01*
X125127179Y-89368284D01*
X125185674Y-89188256D01*
X125205460Y-89000000D01*
X125185674Y-88811744D01*
X125127179Y-88631716D01*
X125032533Y-88467784D01*
X124905871Y-88327112D01*
X124904049Y-88325788D01*
X124752734Y-88215851D01*
X124752729Y-88215848D01*
X124579807Y-88138857D01*
X124579802Y-88138855D01*
X124407640Y-88102262D01*
X124394646Y-88099500D01*
X124205354Y-88099500D01*
X124192360Y-88102262D01*
X124020197Y-88138855D01*
X124020192Y-88138857D01*
X123847270Y-88215848D01*
X123847265Y-88215851D01*
X123694129Y-88327111D01*
X123567466Y-88467785D01*
X123472821Y-88631715D01*
X123472818Y-88631722D01*
X123414327Y-88811740D01*
X123414326Y-88811744D01*
X123394540Y-89000000D01*
X108981858Y-89000000D01*
X108927179Y-88831716D01*
X108832533Y-88667784D01*
X108705871Y-88527112D01*
X108705870Y-88527111D01*
X108552734Y-88415851D01*
X108552729Y-88415848D01*
X108379807Y-88338857D01*
X108379802Y-88338855D01*
X108234001Y-88307865D01*
X108194646Y-88299500D01*
X108005354Y-88299500D01*
X107972897Y-88306398D01*
X107820197Y-88338855D01*
X107820192Y-88338857D01*
X107647270Y-88415848D01*
X107647265Y-88415851D01*
X107494129Y-88527111D01*
X107367466Y-88667785D01*
X107272821Y-88831715D01*
X107272818Y-88831722D01*
X107218142Y-89000000D01*
X107214326Y-89011744D01*
X107194540Y-89200000D01*
X107214326Y-89388256D01*
X107214327Y-89388259D01*
X107245416Y-89483941D01*
X107247411Y-89553782D01*
X107211331Y-89613615D01*
X107200373Y-89622575D01*
X107194130Y-89627110D01*
X107194129Y-89627111D01*
X107067466Y-89767785D01*
X106972821Y-89931715D01*
X106972818Y-89931722D01*
X106914327Y-90111740D01*
X106914326Y-90111744D01*
X106894540Y-90300000D01*
X102168554Y-90300000D01*
X102205871Y-90272888D01*
X102332533Y-90132216D01*
X102427179Y-89968284D01*
X102485674Y-89788256D01*
X102505460Y-89600000D01*
X102485674Y-89411744D01*
X102427179Y-89231716D01*
X102332533Y-89067784D01*
X102205871Y-88927112D01*
X102205870Y-88927111D01*
X102052734Y-88815851D01*
X102052729Y-88815848D01*
X101879807Y-88738857D01*
X101879802Y-88738855D01*
X101734001Y-88707865D01*
X101694646Y-88699500D01*
X101505354Y-88699500D01*
X101472897Y-88706398D01*
X101320197Y-88738855D01*
X101320192Y-88738857D01*
X101147270Y-88815848D01*
X101147265Y-88815851D01*
X100994129Y-88927111D01*
X100867466Y-89067785D01*
X100772821Y-89231715D01*
X100772818Y-89231722D01*
X100714327Y-89411740D01*
X100714326Y-89411744D01*
X100694540Y-89600000D01*
X98639695Y-89600000D01*
X98635674Y-89561744D01*
X98577179Y-89381716D01*
X98482533Y-89217784D01*
X98355871Y-89077112D01*
X98355870Y-89077111D01*
X98202734Y-88965851D01*
X98202729Y-88965848D01*
X98029807Y-88888857D01*
X98029802Y-88888855D01*
X97884000Y-88857865D01*
X97844646Y-88849500D01*
X97655354Y-88849500D01*
X97622897Y-88856398D01*
X97470197Y-88888855D01*
X97470192Y-88888857D01*
X97297270Y-88965848D01*
X97297265Y-88965851D01*
X97144129Y-89077111D01*
X97017466Y-89217785D01*
X96922821Y-89381715D01*
X96922818Y-89381722D01*
X96873921Y-89532214D01*
X96864326Y-89561744D01*
X96844540Y-89750000D01*
X94500500Y-89750000D01*
X94500500Y-87600003D01*
X110394435Y-87600003D01*
X110414630Y-87779249D01*
X110414631Y-87779254D01*
X110474211Y-87949523D01*
X110568449Y-88099500D01*
X110570184Y-88102262D01*
X110697738Y-88229816D01*
X110850478Y-88325789D01*
X111020744Y-88385368D01*
X111020745Y-88385368D01*
X111020750Y-88385369D01*
X111199996Y-88405565D01*
X111200000Y-88405565D01*
X111200004Y-88405565D01*
X111379249Y-88385369D01*
X111379252Y-88385368D01*
X111379255Y-88385368D01*
X111549522Y-88325789D01*
X111702262Y-88229816D01*
X111829816Y-88102262D01*
X111925789Y-87949522D01*
X111985368Y-87779255D01*
X112005565Y-87600000D01*
X111985368Y-87420745D01*
X111925789Y-87250478D01*
X111829816Y-87097738D01*
X111702262Y-86970184D01*
X111702261Y-86970183D01*
X111549523Y-86874211D01*
X111379254Y-86814631D01*
X111379249Y-86814630D01*
X111200004Y-86794435D01*
X111199996Y-86794435D01*
X111020750Y-86814630D01*
X111020745Y-86814631D01*
X110850476Y-86874211D01*
X110697737Y-86970184D01*
X110570184Y-87097737D01*
X110474211Y-87250476D01*
X110414631Y-87420745D01*
X110414630Y-87420750D01*
X110394435Y-87599996D01*
X110394435Y-87600003D01*
X94500500Y-87600003D01*
X94500500Y-84900003D01*
X105094435Y-84900003D01*
X105114630Y-85079249D01*
X105114631Y-85079254D01*
X105174211Y-85249523D01*
X105174851Y-85250541D01*
X105270184Y-85402262D01*
X105397738Y-85529816D01*
X105550478Y-85625789D01*
X105720745Y-85685368D01*
X105720750Y-85685369D01*
X105899996Y-85705565D01*
X105900000Y-85705565D01*
X105900004Y-85705565D01*
X106079249Y-85685369D01*
X106079252Y-85685368D01*
X106079255Y-85685368D01*
X106249522Y-85625789D01*
X106402262Y-85529816D01*
X106529816Y-85402262D01*
X106625789Y-85249522D01*
X106685368Y-85079255D01*
X106705565Y-84900000D01*
X106685368Y-84720745D01*
X106625789Y-84550478D01*
X106625788Y-84550475D01*
X106572691Y-84465973D01*
X106553690Y-84398736D01*
X106572691Y-84334027D01*
X106625788Y-84249524D01*
X106625789Y-84249522D01*
X106685368Y-84079255D01*
X106705565Y-83900000D01*
X106685368Y-83720745D01*
X106625789Y-83550478D01*
X106529816Y-83397738D01*
X106402262Y-83270184D01*
X106361512Y-83244579D01*
X106249523Y-83174211D01*
X106079254Y-83114631D01*
X106079249Y-83114630D01*
X105900004Y-83094435D01*
X105899996Y-83094435D01*
X105720750Y-83114630D01*
X105720745Y-83114631D01*
X105550476Y-83174211D01*
X105397737Y-83270184D01*
X105270184Y-83397737D01*
X105174211Y-83550476D01*
X105114631Y-83720745D01*
X105114630Y-83720750D01*
X105094435Y-83899996D01*
X105094435Y-83900003D01*
X105114630Y-84079249D01*
X105114633Y-84079262D01*
X105174209Y-84249520D01*
X105227309Y-84334029D01*
X105246309Y-84401266D01*
X105227309Y-84465971D01*
X105174209Y-84550479D01*
X105114633Y-84720737D01*
X105114630Y-84720750D01*
X105094435Y-84899996D01*
X105094435Y-84900003D01*
X94500500Y-84900003D01*
X94500500Y-82500000D01*
X115894785Y-82500000D01*
X115913602Y-82703082D01*
X115969417Y-82899247D01*
X115969422Y-82899260D01*
X116060327Y-83081821D01*
X116183237Y-83244581D01*
X116333958Y-83381980D01*
X116333960Y-83381982D01*
X116359407Y-83397738D01*
X116507363Y-83489348D01*
X116697544Y-83563024D01*
X116898024Y-83600500D01*
X116898026Y-83600500D01*
X117101974Y-83600500D01*
X117101976Y-83600500D01*
X117302456Y-83563024D01*
X117492637Y-83489348D01*
X117666041Y-83381981D01*
X117816764Y-83244579D01*
X117939673Y-83081821D01*
X118030582Y-82899250D01*
X118086397Y-82703083D01*
X118105215Y-82500000D01*
X118086397Y-82296917D01*
X118030582Y-82100750D01*
X117939673Y-81918179D01*
X117816764Y-81755421D01*
X117816762Y-81755418D01*
X117750540Y-81695049D01*
X117714258Y-81635338D01*
X117716019Y-81565490D01*
X117729875Y-81538185D01*
X117729284Y-81537844D01*
X117753071Y-81496642D01*
X117827179Y-81368284D01*
X117885674Y-81188256D01*
X117905460Y-81000000D01*
X117885674Y-80811744D01*
X117827179Y-80631716D01*
X117732533Y-80467784D01*
X117605871Y-80327112D01*
X117568559Y-80300003D01*
X117452734Y-80215851D01*
X117452729Y-80215848D01*
X117279807Y-80138857D01*
X117279802Y-80138855D01*
X117134000Y-80107865D01*
X117094646Y-80099500D01*
X116905354Y-80099500D01*
X116872897Y-80106398D01*
X116720197Y-80138855D01*
X116720192Y-80138857D01*
X116547270Y-80215848D01*
X116547265Y-80215851D01*
X116394129Y-80327111D01*
X116267466Y-80467785D01*
X116172821Y-80631715D01*
X116172818Y-80631722D01*
X116124882Y-80779255D01*
X116114326Y-80811744D01*
X116094540Y-81000000D01*
X116114326Y-81188256D01*
X116114327Y-81188259D01*
X116172818Y-81368277D01*
X116172821Y-81368284D01*
X116270716Y-81537844D01*
X116269169Y-81538736D01*
X116289719Y-81596340D01*
X116273890Y-81664393D01*
X116249460Y-81695048D01*
X116183238Y-81755418D01*
X116060327Y-81918178D01*
X115969422Y-82100739D01*
X115969417Y-82100752D01*
X115913602Y-82296917D01*
X115894785Y-82499999D01*
X115894785Y-82500000D01*
X94500500Y-82500000D01*
X94500500Y-80250000D01*
X102344540Y-80250000D01*
X102364326Y-80438256D01*
X102364327Y-80438259D01*
X102422818Y-80618277D01*
X102422821Y-80618284D01*
X102517467Y-80782216D01*
X102644128Y-80922888D01*
X102644129Y-80922888D01*
X102797265Y-81034148D01*
X102797270Y-81034151D01*
X102957666Y-81105565D01*
X102970197Y-81111144D01*
X103028080Y-81123447D01*
X103089558Y-81156637D01*
X103120227Y-81206418D01*
X103172818Y-81368277D01*
X103172821Y-81368284D01*
X103267467Y-81532216D01*
X103325205Y-81596340D01*
X103394129Y-81672888D01*
X103547265Y-81784148D01*
X103547270Y-81784151D01*
X103720192Y-81861142D01*
X103720197Y-81861144D01*
X103905354Y-81900500D01*
X103905355Y-81900500D01*
X104094644Y-81900500D01*
X104094646Y-81900500D01*
X104279803Y-81861144D01*
X104452730Y-81784151D01*
X104605871Y-81672888D01*
X104732533Y-81532216D01*
X104827179Y-81368284D01*
X104885674Y-81188256D01*
X104905460Y-81000000D01*
X104885674Y-80811744D01*
X104827179Y-80631716D01*
X104732533Y-80467784D01*
X104605871Y-80327112D01*
X104568559Y-80300003D01*
X104452734Y-80215851D01*
X104452729Y-80215848D01*
X104279807Y-80138857D01*
X104279803Y-80138856D01*
X104221921Y-80126552D01*
X104160439Y-80093359D01*
X104129772Y-80043580D01*
X104077181Y-79881721D01*
X104077178Y-79881715D01*
X104072846Y-79874211D01*
X103982533Y-79717784D01*
X103855871Y-79577112D01*
X103851878Y-79574211D01*
X103702734Y-79465851D01*
X103702729Y-79465848D01*
X103529807Y-79388857D01*
X103529802Y-79388855D01*
X103384000Y-79357865D01*
X103344646Y-79349500D01*
X103155354Y-79349500D01*
X103122897Y-79356398D01*
X102970197Y-79388855D01*
X102970192Y-79388857D01*
X102797270Y-79465848D01*
X102797265Y-79465851D01*
X102644129Y-79577111D01*
X102517466Y-79717785D01*
X102422821Y-79881715D01*
X102422818Y-79881722D01*
X102370228Y-80043580D01*
X102364326Y-80061744D01*
X102344540Y-80250000D01*
X94500500Y-80250000D01*
X94500500Y-79100003D01*
X106294435Y-79100003D01*
X106314630Y-79279249D01*
X106314631Y-79279254D01*
X106374211Y-79449523D01*
X106470184Y-79602262D01*
X106597740Y-79729818D01*
X106646974Y-79760753D01*
X106693266Y-79813087D01*
X106703915Y-79882141D01*
X106685999Y-79931715D01*
X106674210Y-79950478D01*
X106614633Y-80120737D01*
X106614630Y-80120750D01*
X106594435Y-80299996D01*
X106594435Y-80300003D01*
X106614630Y-80479249D01*
X106614631Y-80479254D01*
X106674211Y-80649523D01*
X106755724Y-80779249D01*
X106770184Y-80802262D01*
X106897738Y-80929816D01*
X107050478Y-81025789D01*
X107220745Y-81085368D01*
X107220750Y-81085369D01*
X107399996Y-81105565D01*
X107400000Y-81105565D01*
X107400004Y-81105565D01*
X107579249Y-81085369D01*
X107579252Y-81085368D01*
X107579255Y-81085368D01*
X107749522Y-81025789D01*
X107902262Y-80929816D01*
X108029816Y-80802262D01*
X108125789Y-80649522D01*
X108185368Y-80479255D01*
X108185369Y-80479249D01*
X108205565Y-80300003D01*
X108205565Y-80299996D01*
X108185369Y-80120750D01*
X108185368Y-80120745D01*
X108177934Y-80099500D01*
X108125789Y-79950478D01*
X108113999Y-79931715D01*
X108047816Y-79826385D01*
X108029816Y-79797738D01*
X107902262Y-79670184D01*
X107902260Y-79670182D01*
X107853022Y-79639244D01*
X107806732Y-79586910D01*
X107796084Y-79517856D01*
X107814001Y-79468282D01*
X107825789Y-79449522D01*
X107885368Y-79279255D01*
X107905565Y-79100000D01*
X107885821Y-78924767D01*
X107885369Y-78920750D01*
X107885368Y-78920745D01*
X107825788Y-78750476D01*
X107817011Y-78736508D01*
X109752451Y-78736508D01*
X109772237Y-78924764D01*
X109772238Y-78924767D01*
X109830729Y-79104785D01*
X109830732Y-79104792D01*
X109925378Y-79268724D01*
X110033545Y-79388855D01*
X110052040Y-79409396D01*
X110205176Y-79520656D01*
X110205181Y-79520659D01*
X110384045Y-79600296D01*
X110382810Y-79603069D01*
X110429632Y-79634885D01*
X110457017Y-79699165D01*
X110445303Y-79768045D01*
X110398209Y-79819658D01*
X110374823Y-79830699D01*
X110250479Y-79874209D01*
X110097737Y-79970184D01*
X109970184Y-80097737D01*
X109874211Y-80250476D01*
X109814631Y-80420745D01*
X109814630Y-80420750D01*
X109794435Y-80599996D01*
X109794435Y-80600003D01*
X109814630Y-80779249D01*
X109814631Y-80779254D01*
X109874211Y-80949523D01*
X109927385Y-81034148D01*
X109970184Y-81102262D01*
X110097738Y-81229816D01*
X110250478Y-81325789D01*
X110371902Y-81368277D01*
X110420745Y-81385368D01*
X110420750Y-81385369D01*
X110599996Y-81405565D01*
X110600000Y-81405565D01*
X110600004Y-81405565D01*
X110779249Y-81385369D01*
X110779252Y-81385368D01*
X110779255Y-81385368D01*
X110949522Y-81325789D01*
X111102262Y-81229816D01*
X111229816Y-81102262D01*
X111325789Y-80949522D01*
X111385368Y-80779255D01*
X111399985Y-80649523D01*
X111405565Y-80600003D01*
X111405565Y-80599996D01*
X111385369Y-80420750D01*
X111385368Y-80420745D01*
X111352604Y-80327111D01*
X111325789Y-80250478D01*
X111304031Y-80215851D01*
X111255652Y-80138856D01*
X111229816Y-80097738D01*
X111102262Y-79970184D01*
X111041039Y-79931715D01*
X110949520Y-79874209D01*
X110871362Y-79846860D01*
X110814587Y-79806138D01*
X110788840Y-79741185D01*
X110802297Y-79672623D01*
X110850685Y-79622221D01*
X110886530Y-79608531D01*
X110937714Y-79597652D01*
X111110641Y-79520659D01*
X111263782Y-79409396D01*
X111390444Y-79268724D01*
X111485090Y-79104792D01*
X111543585Y-78924764D01*
X111563371Y-78736508D01*
X111543585Y-78548252D01*
X111485090Y-78368224D01*
X111390444Y-78204292D01*
X111263782Y-78063620D01*
X111201344Y-78018256D01*
X111110645Y-77952359D01*
X111110640Y-77952356D01*
X110937718Y-77875365D01*
X110937713Y-77875363D01*
X110791912Y-77844373D01*
X110752557Y-77836008D01*
X110563265Y-77836008D01*
X110530808Y-77842906D01*
X110378108Y-77875363D01*
X110378103Y-77875365D01*
X110205181Y-77952356D01*
X110205176Y-77952359D01*
X110052040Y-78063619D01*
X109925377Y-78204293D01*
X109830732Y-78368223D01*
X109830729Y-78368230D01*
X109772238Y-78548248D01*
X109772237Y-78548252D01*
X109752451Y-78736508D01*
X107817011Y-78736508D01*
X107729815Y-78597737D01*
X107602262Y-78470184D01*
X107449523Y-78374211D01*
X107279254Y-78314631D01*
X107279249Y-78314630D01*
X107100004Y-78294435D01*
X107099996Y-78294435D01*
X106920750Y-78314630D01*
X106920745Y-78314631D01*
X106750476Y-78374211D01*
X106597737Y-78470184D01*
X106470184Y-78597737D01*
X106374211Y-78750476D01*
X106314631Y-78920745D01*
X106314630Y-78920750D01*
X106294435Y-79099996D01*
X106294435Y-79100003D01*
X94500500Y-79100003D01*
X94500500Y-77830000D01*
X96724540Y-77830000D01*
X96744326Y-78018256D01*
X96744327Y-78018259D01*
X96802818Y-78198277D01*
X96802821Y-78198284D01*
X96897467Y-78362216D01*
X96994682Y-78470184D01*
X97024129Y-78502888D01*
X97177265Y-78614148D01*
X97177270Y-78614151D01*
X97350192Y-78691142D01*
X97350197Y-78691144D01*
X97535354Y-78730500D01*
X97535355Y-78730500D01*
X97724644Y-78730500D01*
X97724646Y-78730500D01*
X97909803Y-78691144D01*
X98082730Y-78614151D01*
X98235871Y-78502888D01*
X98362533Y-78362216D01*
X98457179Y-78198284D01*
X98515674Y-78018256D01*
X98535460Y-77830000D01*
X98515674Y-77641744D01*
X98493987Y-77575000D01*
X111694540Y-77575000D01*
X111714326Y-77763256D01*
X111714327Y-77763259D01*
X111772818Y-77943277D01*
X111772821Y-77943284D01*
X111867467Y-78107216D01*
X111954875Y-78204292D01*
X111994129Y-78247888D01*
X112147265Y-78359148D01*
X112147270Y-78359151D01*
X112320192Y-78436142D01*
X112320197Y-78436144D01*
X112505354Y-78475500D01*
X112505355Y-78475500D01*
X112694644Y-78475500D01*
X112694646Y-78475500D01*
X112879803Y-78436144D01*
X113052730Y-78359151D01*
X113205871Y-78247888D01*
X113332533Y-78107216D01*
X113427179Y-77943284D01*
X113485674Y-77763256D01*
X113505460Y-77575000D01*
X113485674Y-77386744D01*
X113427179Y-77206716D01*
X113332533Y-77042784D01*
X113205871Y-76902112D01*
X113205870Y-76902111D01*
X113052734Y-76790851D01*
X113052729Y-76790848D01*
X112879807Y-76713857D01*
X112879802Y-76713855D01*
X112734000Y-76682865D01*
X112694646Y-76674500D01*
X112505354Y-76674500D01*
X112472897Y-76681398D01*
X112320197Y-76713855D01*
X112320192Y-76713857D01*
X112147270Y-76790848D01*
X112147265Y-76790851D01*
X111994129Y-76902111D01*
X111867466Y-77042785D01*
X111772821Y-77206715D01*
X111772818Y-77206722D01*
X111714327Y-77386740D01*
X111714326Y-77386744D01*
X111694540Y-77575000D01*
X98493987Y-77575000D01*
X98457179Y-77461716D01*
X98362533Y-77297784D01*
X98235871Y-77157112D01*
X98235870Y-77157111D01*
X98082734Y-77045851D01*
X98082729Y-77045848D01*
X97909807Y-76968857D01*
X97909802Y-76968855D01*
X97764000Y-76937865D01*
X97724646Y-76929500D01*
X97535354Y-76929500D01*
X97502897Y-76936398D01*
X97350197Y-76968855D01*
X97350192Y-76968857D01*
X97177270Y-77045848D01*
X97177265Y-77045851D01*
X97024129Y-77157111D01*
X96897466Y-77297785D01*
X96802821Y-77461715D01*
X96802818Y-77461722D01*
X96744327Y-77641740D01*
X96744326Y-77641744D01*
X96724540Y-77830000D01*
X94500500Y-77830000D01*
X94500500Y-75924500D01*
X94520185Y-75857461D01*
X94572989Y-75811706D01*
X94624500Y-75800500D01*
X99975240Y-75800500D01*
X99975383Y-75800528D01*
X99975384Y-75800524D01*
X99999997Y-75800539D01*
X100000000Y-75800541D01*
X100000383Y-75800383D01*
X100000500Y-75800099D01*
X100000541Y-75800000D01*
X100894540Y-75800000D01*
X100914326Y-75988256D01*
X100914327Y-75988259D01*
X100972818Y-76168277D01*
X100972821Y-76168284D01*
X101067467Y-76332216D01*
X101194128Y-76472887D01*
X101194129Y-76472888D01*
X101347265Y-76584148D01*
X101347270Y-76584151D01*
X101520192Y-76661142D01*
X101520197Y-76661144D01*
X101705354Y-76700500D01*
X101705355Y-76700500D01*
X101894644Y-76700500D01*
X101894646Y-76700500D01*
X102079803Y-76661144D01*
X102252730Y-76584151D01*
X102405871Y-76472888D01*
X102532533Y-76332216D01*
X102592613Y-76228153D01*
X102643179Y-76179939D01*
X102711786Y-76166715D01*
X102776651Y-76192683D01*
X102807386Y-76228153D01*
X102867467Y-76332216D01*
X102994128Y-76472887D01*
X102994129Y-76472888D01*
X103147265Y-76584148D01*
X103147270Y-76584151D01*
X103320192Y-76661142D01*
X103320197Y-76661144D01*
X103505354Y-76700500D01*
X103505355Y-76700500D01*
X103694644Y-76700500D01*
X103694646Y-76700500D01*
X103879803Y-76661144D01*
X104052730Y-76584151D01*
X104205871Y-76472888D01*
X104332533Y-76332216D01*
X104427179Y-76168284D01*
X104485674Y-75988256D01*
X104505460Y-75800000D01*
X104485674Y-75611744D01*
X104431112Y-75443823D01*
X104427181Y-75431722D01*
X104427180Y-75431721D01*
X104427179Y-75431716D01*
X104332533Y-75267784D01*
X104205871Y-75127112D01*
X104205870Y-75127111D01*
X104052734Y-75015851D01*
X104052729Y-75015848D01*
X103879807Y-74938857D01*
X103879802Y-74938855D01*
X103734001Y-74907865D01*
X103694646Y-74899500D01*
X103505354Y-74899500D01*
X103472897Y-74906398D01*
X103320197Y-74938855D01*
X103320192Y-74938857D01*
X103147270Y-75015848D01*
X103147265Y-75015851D01*
X102994129Y-75127111D01*
X102867465Y-75267785D01*
X102807387Y-75371845D01*
X102756820Y-75420061D01*
X102688213Y-75433284D01*
X102623348Y-75407316D01*
X102592613Y-75371845D01*
X102532534Y-75267785D01*
X102405870Y-75127111D01*
X102252734Y-75015851D01*
X102252729Y-75015848D01*
X102079807Y-74938857D01*
X102079802Y-74938855D01*
X101934001Y-74907865D01*
X101894646Y-74899500D01*
X101705354Y-74899500D01*
X101672897Y-74906398D01*
X101520197Y-74938855D01*
X101520192Y-74938857D01*
X101347270Y-75015848D01*
X101347265Y-75015851D01*
X101194129Y-75127111D01*
X101067466Y-75267785D01*
X100972821Y-75431715D01*
X100972818Y-75431722D01*
X100940166Y-75532216D01*
X100914326Y-75611744D01*
X100894540Y-75800000D01*
X100000541Y-75800000D01*
X100000540Y-75799997D01*
X100000583Y-75775889D01*
X100000500Y-75775467D01*
X100000500Y-74500000D01*
X105094540Y-74500000D01*
X105114326Y-74688256D01*
X105114327Y-74688259D01*
X105172818Y-74868277D01*
X105172821Y-74868284D01*
X105267467Y-75032216D01*
X105347179Y-75120745D01*
X105394129Y-75172888D01*
X105547265Y-75284148D01*
X105547270Y-75284151D01*
X105720191Y-75361142D01*
X105720193Y-75361142D01*
X105720197Y-75361144D01*
X105818731Y-75382088D01*
X105880210Y-75415279D01*
X105912151Y-75472745D01*
X105912332Y-75472682D01*
X105912698Y-75473728D01*
X105913838Y-75475779D01*
X105914630Y-75479251D01*
X105974210Y-75649521D01*
X105988893Y-75672888D01*
X106070184Y-75802262D01*
X106197738Y-75929816D01*
X106350478Y-76025789D01*
X106520745Y-76085368D01*
X106520750Y-76085369D01*
X106699996Y-76105565D01*
X106700000Y-76105565D01*
X106700004Y-76105565D01*
X106879249Y-76085369D01*
X106879252Y-76085368D01*
X106879255Y-76085368D01*
X107049522Y-76025789D01*
X107202262Y-75929816D01*
X107329816Y-75802262D01*
X107425789Y-75649522D01*
X107485368Y-75479255D01*
X107485368Y-75479252D01*
X107485369Y-75479249D01*
X107505565Y-75300003D01*
X107505565Y-75299996D01*
X107485369Y-75120750D01*
X107485368Y-75120745D01*
X107443117Y-75000000D01*
X113094540Y-75000000D01*
X113114326Y-75188256D01*
X113114327Y-75188259D01*
X113172818Y-75368277D01*
X113172821Y-75368284D01*
X113267467Y-75532216D01*
X113339071Y-75611740D01*
X113394129Y-75672888D01*
X113547265Y-75784148D01*
X113547270Y-75784151D01*
X113720192Y-75861142D01*
X113720197Y-75861144D01*
X113905354Y-75900500D01*
X113905355Y-75900500D01*
X114094644Y-75900500D01*
X114094646Y-75900500D01*
X114279803Y-75861144D01*
X114452730Y-75784151D01*
X114605871Y-75672888D01*
X114732533Y-75532216D01*
X114827179Y-75368284D01*
X114885674Y-75188256D01*
X114905460Y-75000000D01*
X114885674Y-74811744D01*
X114827179Y-74631716D01*
X114732533Y-74467784D01*
X114605871Y-74327112D01*
X114584719Y-74311744D01*
X114452734Y-74215851D01*
X114452729Y-74215848D01*
X114279807Y-74138857D01*
X114279802Y-74138855D01*
X114134001Y-74107865D01*
X114094646Y-74099500D01*
X113905354Y-74099500D01*
X113872897Y-74106398D01*
X113720197Y-74138855D01*
X113720192Y-74138857D01*
X113547270Y-74215848D01*
X113547265Y-74215851D01*
X113394129Y-74327111D01*
X113267466Y-74467785D01*
X113172821Y-74631715D01*
X113172818Y-74631722D01*
X113114327Y-74811740D01*
X113114326Y-74811744D01*
X113094540Y-75000000D01*
X107443117Y-75000000D01*
X107425788Y-74950476D01*
X107374139Y-74868277D01*
X107329816Y-74797738D01*
X107202262Y-74670184D01*
X107141039Y-74631715D01*
X107049521Y-74574210D01*
X106999267Y-74556626D01*
X106982210Y-74550657D01*
X106925435Y-74509936D01*
X106899845Y-74446580D01*
X106885674Y-74311744D01*
X106827179Y-74131716D01*
X106732533Y-73967784D01*
X106605871Y-73827112D01*
X106532638Y-73773905D01*
X106452734Y-73715851D01*
X106452729Y-73715848D01*
X106279807Y-73638857D01*
X106279802Y-73638855D01*
X106134001Y-73607865D01*
X106094646Y-73599500D01*
X105905354Y-73599500D01*
X105872897Y-73606398D01*
X105720197Y-73638855D01*
X105720192Y-73638857D01*
X105547270Y-73715848D01*
X105547265Y-73715851D01*
X105394129Y-73827111D01*
X105267466Y-73967785D01*
X105172821Y-74131715D01*
X105172818Y-74131722D01*
X105114327Y-74311740D01*
X105114326Y-74311744D01*
X105094540Y-74500000D01*
X100000500Y-74500000D01*
X100000500Y-72500000D01*
X102144341Y-72500000D01*
X102164936Y-72735403D01*
X102164938Y-72735413D01*
X102226094Y-72963655D01*
X102226096Y-72963659D01*
X102226097Y-72963663D01*
X102276030Y-73070746D01*
X102325964Y-73177828D01*
X102325965Y-73177830D01*
X102461505Y-73371402D01*
X102628597Y-73538494D01*
X102822169Y-73674034D01*
X102822171Y-73674035D01*
X103036337Y-73773903D01*
X103264592Y-73835063D01*
X103441034Y-73850500D01*
X103558966Y-73850500D01*
X103735408Y-73835063D01*
X103963663Y-73773903D01*
X104177829Y-73674035D01*
X104371401Y-73538495D01*
X104538495Y-73371401D01*
X104674035Y-73177830D01*
X104773903Y-72963663D01*
X104835063Y-72735408D01*
X104855659Y-72500000D01*
X104835063Y-72264592D01*
X104773903Y-72036337D01*
X104674035Y-71822171D01*
X104674034Y-71822169D01*
X104538494Y-71628597D01*
X104409897Y-71500000D01*
X105594540Y-71500000D01*
X105614326Y-71688256D01*
X105614327Y-71688259D01*
X105672818Y-71868277D01*
X105672821Y-71868284D01*
X105767467Y-72032216D01*
X105894129Y-72172887D01*
X105894129Y-72172888D01*
X106047265Y-72284148D01*
X106047270Y-72284151D01*
X106220192Y-72361142D01*
X106220197Y-72361144D01*
X106405354Y-72400500D01*
X106405355Y-72400500D01*
X106594644Y-72400500D01*
X106594646Y-72400500D01*
X106779803Y-72361144D01*
X106952730Y-72284151D01*
X107105871Y-72172888D01*
X107232533Y-72032216D01*
X107327179Y-71868284D01*
X107385674Y-71688256D01*
X107405460Y-71500000D01*
X109344540Y-71500000D01*
X109364326Y-71688256D01*
X109364327Y-71688259D01*
X109422818Y-71868277D01*
X109422821Y-71868284D01*
X109517467Y-72032216D01*
X109644128Y-72172887D01*
X109644129Y-72172888D01*
X109797265Y-72284148D01*
X109797270Y-72284151D01*
X109970192Y-72361142D01*
X109970197Y-72361144D01*
X110155354Y-72400500D01*
X110155355Y-72400500D01*
X110344644Y-72400500D01*
X110344646Y-72400500D01*
X110529803Y-72361144D01*
X110702730Y-72284151D01*
X110855871Y-72172888D01*
X110982533Y-72032216D01*
X111077179Y-71868284D01*
X111135674Y-71688256D01*
X111155460Y-71500000D01*
X111135674Y-71311744D01*
X111077179Y-71131716D01*
X110982533Y-70967784D01*
X110855871Y-70827112D01*
X110855870Y-70827111D01*
X110702734Y-70715851D01*
X110702729Y-70715848D01*
X110529807Y-70638857D01*
X110529802Y-70638855D01*
X110384001Y-70607865D01*
X110344646Y-70599500D01*
X110155354Y-70599500D01*
X110122897Y-70606398D01*
X109970197Y-70638855D01*
X109970192Y-70638857D01*
X109797270Y-70715848D01*
X109797265Y-70715851D01*
X109644129Y-70827111D01*
X109517466Y-70967785D01*
X109422821Y-71131715D01*
X109422818Y-71131722D01*
X109392154Y-71226098D01*
X109364326Y-71311744D01*
X109344540Y-71500000D01*
X107405460Y-71500000D01*
X107385674Y-71311744D01*
X107327179Y-71131716D01*
X107232533Y-70967784D01*
X107105871Y-70827112D01*
X107105870Y-70827111D01*
X106952734Y-70715851D01*
X106952729Y-70715848D01*
X106779807Y-70638857D01*
X106779802Y-70638855D01*
X106634000Y-70607865D01*
X106594646Y-70599500D01*
X106405354Y-70599500D01*
X106372897Y-70606398D01*
X106220197Y-70638855D01*
X106220192Y-70638857D01*
X106047270Y-70715848D01*
X106047265Y-70715851D01*
X105894129Y-70827111D01*
X105767466Y-70967785D01*
X105672821Y-71131715D01*
X105672818Y-71131722D01*
X105642154Y-71226098D01*
X105614326Y-71311744D01*
X105594540Y-71500000D01*
X104409897Y-71500000D01*
X104371402Y-71461505D01*
X104177830Y-71325965D01*
X104177828Y-71325964D01*
X104070745Y-71276031D01*
X103963663Y-71226097D01*
X103963659Y-71226096D01*
X103963655Y-71226094D01*
X103735413Y-71164938D01*
X103735403Y-71164936D01*
X103558966Y-71149500D01*
X103441034Y-71149500D01*
X103264596Y-71164936D01*
X103264586Y-71164938D01*
X103036344Y-71226094D01*
X103036335Y-71226098D01*
X102822171Y-71325964D01*
X102822169Y-71325965D01*
X102628597Y-71461505D01*
X102461506Y-71628597D01*
X102461501Y-71628604D01*
X102325967Y-71822165D01*
X102325965Y-71822169D01*
X102226098Y-72036335D01*
X102226094Y-72036344D01*
X102164938Y-72264586D01*
X102164936Y-72264596D01*
X102144341Y-72499999D01*
X102144341Y-72500000D01*
X100000500Y-72500000D01*
X100000500Y-70124500D01*
X100020185Y-70057461D01*
X100072989Y-70011706D01*
X100124500Y-70000500D01*
X119875500Y-70000500D01*
X119942539Y-70020185D01*
G37*
%TD.AperFunction*%
%TD*%
D14*
X120000000Y-70000000D02*
X120000000Y-85250000D01*
X103300000Y-144500000D02*
X103300000Y-141500000D01*
X120000000Y-85250000D02*
X130000000Y-85250000D01*
X100000000Y-70000000D02*
X120000000Y-70000000D01*
X100000000Y-75800000D02*
X100000000Y-70000000D01*
X100000000Y-97750000D02*
X94500000Y-97750000D01*
X120000000Y-97750000D02*
X120000000Y-141500000D01*
X130000000Y-85250000D02*
X130000000Y-97750000D01*
X116700000Y-144500000D02*
X103300000Y-144500000D01*
X103300000Y-141500000D02*
X100000000Y-141500000D01*
X116700000Y-141500000D02*
X116700000Y-144500000D01*
X100000000Y-141500000D02*
X100000000Y-97750000D01*
X130000000Y-97750000D02*
X120000000Y-97750000D01*
X94500000Y-75800000D02*
X100000000Y-75800000D01*
X94500000Y-75800000D02*
X94500000Y-97750000D01*
X120000000Y-141500000D02*
X116700000Y-141500000D01*
D15*
%TO.C,R3*%
X116270000Y-93480000D02*
X116270000Y-90520000D01*
X117730000Y-93480000D02*
X116270000Y-93480000D01*
X116270000Y-90520000D02*
X117730000Y-90520000D01*
X117730000Y-90520000D02*
X117730000Y-93480000D01*
%TO.C,R9*%
X112980000Y-71770000D02*
X112980000Y-74730000D01*
X111520000Y-71770000D02*
X112980000Y-71770000D01*
X112980000Y-74730000D02*
X111520000Y-74730000D01*
X111520000Y-74730000D02*
X111520000Y-71770000D01*
%TO.C,R13*%
X111230000Y-71770000D02*
X111230000Y-74730000D01*
X109770000Y-71770000D02*
X111230000Y-71770000D01*
X111230000Y-74730000D02*
X109770000Y-74730000D01*
X109770000Y-74730000D02*
X109770000Y-71770000D01*
%TO.C,R8*%
X110480000Y-80230000D02*
X107520000Y-80230000D01*
X110480000Y-78770000D02*
X110480000Y-80230000D01*
X107520000Y-80230000D02*
X107520000Y-78770000D01*
X107520000Y-78770000D02*
X110480000Y-78770000D01*
%TO.C,C1*%
X104445000Y-92270000D02*
X107405000Y-92270000D01*
X104445000Y-93730000D02*
X104445000Y-92270000D01*
X107405000Y-92270000D02*
X107405000Y-93730000D01*
X107405000Y-93730000D02*
X104445000Y-93730000D01*
%TO.C,H1*%
X104650000Y-139200000D02*
G75*
G03*
X104650000Y-139200000I-2150000J0D01*
G01*
%TO.C,C2*%
X108520000Y-88520000D02*
X111480000Y-88520000D01*
X108520000Y-89980000D02*
X108520000Y-88520000D01*
X111480000Y-88520000D02*
X111480000Y-89980000D01*
X111480000Y-89980000D02*
X108520000Y-89980000D01*
%TO.C,Q3*%
X119642500Y-91550000D02*
X119642500Y-94950000D01*
X119642500Y-94950000D02*
X123482500Y-94950000D01*
X123482500Y-91550000D02*
X119642500Y-91550000D01*
X123482500Y-94950000D02*
X123482500Y-91550000D01*
%TO.C,U5*%
X105875000Y-136675000D02*
X109275000Y-136675000D01*
X109275000Y-136675000D02*
X109275000Y-132575000D01*
X105875000Y-132575000D02*
X105875000Y-136675000D01*
X109275000Y-132575000D02*
X105875000Y-132575000D01*
%TO.C,R11*%
X107520000Y-82270000D02*
X110480000Y-82270000D01*
X107520000Y-83730000D02*
X107520000Y-82270000D01*
X110480000Y-82270000D02*
X110480000Y-83730000D01*
X110480000Y-83730000D02*
X107520000Y-83730000D01*
%TO.C,U4*%
X112985000Y-93485000D02*
X112985000Y-90665000D01*
X116065000Y-93485000D02*
X112985000Y-93485000D01*
X112985000Y-90665000D02*
X116065000Y-90665000D01*
X116065000Y-90665000D02*
X116065000Y-93485000D01*
%TO.C,TP4*%
X110900000Y-130100000D02*
G75*
G03*
X110900000Y-130100000I-1000000J0D01*
G01*
D16*
%TO.C,U3*%
X108318201Y-93834200D02*
X108318201Y-93529400D01*
X110781801Y-93834200D02*
X108318201Y-93834200D01*
X110781801Y-93834200D02*
X110781801Y-93529400D01*
X108076801Y-93529400D02*
X108076801Y-90583000D01*
X108318201Y-93529400D02*
X108076801Y-93529400D01*
X111023201Y-93529400D02*
X110781801Y-93529400D01*
X108076801Y-90583000D02*
X108318201Y-90583000D01*
X110781801Y-90583000D02*
X111023201Y-90583000D01*
X111023201Y-90583000D02*
X111023201Y-93529400D01*
X108318201Y-90278200D02*
X108318201Y-90583000D01*
X108318201Y-90278200D02*
X110781801Y-90278200D01*
X110781801Y-90278200D02*
X110781801Y-90583000D01*
D15*
%TO.C,H2*%
X119650000Y-139200000D02*
G75*
G03*
X119650000Y-139200000I-2150000J0D01*
G01*
%TO.C,C7*%
X112480000Y-81770000D02*
X112480000Y-84730000D01*
X111020000Y-81770000D02*
X112480000Y-81770000D01*
X112480000Y-84730000D02*
X111020000Y-84730000D01*
X111020000Y-84730000D02*
X111020000Y-81770000D01*
%TO.C,H3*%
X105650000Y-72500000D02*
G75*
G03*
X105650000Y-72500000I-2150000J0D01*
G01*
%TO.C,R15*%
X111770000Y-136605000D02*
X111770000Y-133645000D01*
X113230000Y-136605000D02*
X111770000Y-136605000D01*
X111770000Y-133645000D02*
X113230000Y-133645000D01*
X113230000Y-133645000D02*
X113230000Y-136605000D01*
%TO.C,U2*%
X88900000Y-91700000D02*
X88900000Y-78100000D01*
X105900000Y-91700000D02*
X88900000Y-91700000D01*
X88900000Y-78100000D02*
X105900000Y-78100000D01*
X105900000Y-78100000D02*
X105900000Y-91700000D01*
D16*
%TO.C,J2*%
X118608200Y-76002199D02*
X112715400Y-76002199D01*
X112715400Y-76002199D02*
X112715400Y-87497801D01*
X118608200Y-87497801D02*
X118608200Y-76002199D01*
X112715400Y-87497801D02*
X118608200Y-87497801D01*
D15*
%TO.C,TP2*%
X118600000Y-74300000D02*
G75*
G03*
X118600000Y-74300000I-1000000J0D01*
G01*
%TO.C,C11*%
X105845000Y-130895000D02*
X108805000Y-130895000D01*
X105845000Y-132355000D02*
X105845000Y-130895000D01*
X108805000Y-130895000D02*
X108805000Y-132355000D01*
X108805000Y-132355000D02*
X105845000Y-132355000D01*
%TO.C,D7*%
X111375000Y-137370000D02*
X111375000Y-137930000D01*
X111375000Y-137930000D02*
X111575000Y-137930000D01*
X111575000Y-137200000D02*
X112675000Y-137200000D01*
X111575000Y-137370000D02*
X111375000Y-137370000D01*
X111575000Y-137370000D02*
X111575000Y-137200000D01*
X111575000Y-138100000D02*
X111575000Y-137930000D01*
X112675000Y-137200000D02*
X112675000Y-137370000D01*
X112675000Y-137370000D02*
X112875000Y-137370000D01*
X112675000Y-137930000D02*
X112675000Y-138100000D01*
X112675000Y-138100000D02*
X111575000Y-138100000D01*
X112875000Y-137370000D02*
X112875000Y-137930000D01*
X112875000Y-137930000D02*
X112675000Y-137930000D01*
%TO.C,R12*%
X109480000Y-71770000D02*
X109480000Y-74730000D01*
X108020000Y-71770000D02*
X109480000Y-71770000D01*
X109480000Y-74730000D02*
X108020000Y-74730000D01*
X108020000Y-74730000D02*
X108020000Y-71770000D01*
%TO.C,R14*%
X106270000Y-74767500D02*
X106270000Y-71807500D01*
X107730000Y-74767500D02*
X106270000Y-74767500D01*
X106270000Y-71807500D02*
X107730000Y-71807500D01*
X107730000Y-71807500D02*
X107730000Y-74767500D01*
%TO.C,R10*%
X107520000Y-80520000D02*
X110480000Y-80520000D01*
X107520000Y-81980000D02*
X107520000Y-80520000D01*
X110480000Y-80520000D02*
X110480000Y-81980000D01*
X110480000Y-81980000D02*
X107520000Y-81980000D01*
%TO.C,R1*%
X107405000Y-95480000D02*
X104445000Y-95480000D01*
X107405000Y-94020000D02*
X107405000Y-95480000D01*
X104445000Y-95480000D02*
X104445000Y-94020000D01*
X104445000Y-94020000D02*
X107405000Y-94020000D01*
%TO.C,R20*%
X109770000Y-136605000D02*
X109770000Y-133645000D01*
X111230000Y-136605000D02*
X109770000Y-136605000D01*
X109770000Y-133645000D02*
X111230000Y-133645000D01*
X111230000Y-133645000D02*
X111230000Y-136605000D01*
%TO.C,D2*%
X100845000Y-134855000D02*
X100845000Y-131895000D01*
X102305000Y-134855000D02*
X100845000Y-134855000D01*
X100845000Y-131895000D02*
X102305000Y-131895000D01*
X102305000Y-131895000D02*
X102305000Y-134855000D01*
%TO.C,C10*%
X104095000Y-136605000D02*
X104095000Y-133645000D01*
X105555000Y-136605000D02*
X104095000Y-136605000D01*
X104095000Y-133645000D02*
X105555000Y-133645000D01*
X105555000Y-133645000D02*
X105555000Y-136605000D01*
%TO.C,R5*%
X99080000Y-77730000D02*
X96120000Y-77730000D01*
X99080000Y-76270000D02*
X99080000Y-77730000D01*
X96120000Y-77730000D02*
X96120000Y-76270000D01*
X96120000Y-76270000D02*
X99080000Y-76270000D01*
%TO.C,J1*%
X123675000Y-96245000D02*
X129575000Y-96245000D01*
X129575000Y-96245000D02*
X129575000Y-86805000D01*
X123675000Y-86805000D02*
X123675000Y-96245000D01*
X129575000Y-86805000D02*
X123675000Y-86805000D01*
%TO.C,R6*%
X99520000Y-76270000D02*
X102480000Y-76270000D01*
X99520000Y-77730000D02*
X99520000Y-76270000D01*
X102480000Y-76270000D02*
X102480000Y-77730000D01*
X102480000Y-77730000D02*
X99520000Y-77730000D01*
%TO.C,R16*%
X112330000Y-76095000D02*
X112330000Y-79055000D01*
X110870000Y-76095000D02*
X112330000Y-76095000D01*
X112330000Y-79055000D02*
X110870000Y-79055000D01*
X110870000Y-79055000D02*
X110870000Y-76095000D01*
%TO.C,C5*%
X115980000Y-95230000D02*
X113020000Y-95230000D01*
X115980000Y-93770000D02*
X115980000Y-95230000D01*
X113020000Y-95230000D02*
X113020000Y-93770000D01*
X113020000Y-93770000D02*
X115980000Y-93770000D01*
%TO.C,SW1*%
X104150000Y-95600000D02*
X98550000Y-95600000D01*
X104150000Y-92000000D02*
X104150000Y-95600000D01*
X98550000Y-95600000D02*
X98550000Y-92000000D01*
X98550000Y-92000000D02*
X104150000Y-92000000D01*
%TO.C,R2*%
X105555000Y-133355000D02*
X102595000Y-133355000D01*
X105555000Y-131895000D02*
X105555000Y-133355000D01*
X102595000Y-133355000D02*
X102595000Y-131895000D01*
X102595000Y-131895000D02*
X105555000Y-131895000D01*
%TO.C,C4*%
X109480000Y-94020000D02*
X109480000Y-96980000D01*
X108020000Y-94020000D02*
X109480000Y-94020000D01*
X109480000Y-96980000D02*
X108020000Y-96980000D01*
X108020000Y-96980000D02*
X108020000Y-94020000D01*
%TO.C,R4*%
X109770000Y-96980000D02*
X109770000Y-94020000D01*
X111230000Y-96980000D02*
X109770000Y-96980000D01*
X109770000Y-94020000D02*
X111230000Y-94020000D01*
X111230000Y-94020000D02*
X111230000Y-96980000D01*
%TO.C,C3*%
X98130000Y-92320000D02*
X98130000Y-95280000D01*
X96670000Y-92320000D02*
X98130000Y-92320000D01*
X98130000Y-95280000D02*
X96670000Y-95280000D01*
X96670000Y-95280000D02*
X96670000Y-92320000D01*
%TO.C,TP3*%
X116200000Y-74300000D02*
G75*
G03*
X116200000Y-74300000I-1000000J0D01*
G01*
%TO.C,C6*%
X96330000Y-92320000D02*
X96330000Y-95280000D01*
X94870000Y-92320000D02*
X96330000Y-92320000D01*
X96330000Y-95280000D02*
X94870000Y-95280000D01*
X94870000Y-95280000D02*
X94870000Y-92320000D01*
%TO.C,D1*%
X123425000Y-86950000D02*
X121125000Y-86950000D01*
X123425000Y-86950000D02*
X123425000Y-91350000D01*
X123425000Y-91350000D02*
X121125000Y-91350000D01*
X121125000Y-91350000D02*
X121125000Y-86950000D01*
%TO.C,R7*%
X102920000Y-76270000D02*
X105880000Y-76270000D01*
X102920000Y-77730000D02*
X102920000Y-76270000D01*
X105880000Y-76270000D02*
X105880000Y-77730000D01*
X105880000Y-77730000D02*
X102920000Y-77730000D01*
%TO.C,TP1*%
X121000000Y-90000000D02*
G75*
G03*
X121000000Y-90000000I-1000000J0D01*
G01*
%TO.C,Q1*%
X106642500Y-75050000D02*
X106642500Y-78450000D01*
X106642500Y-78450000D02*
X110482500Y-78450000D01*
X110482500Y-75050000D02*
X106642500Y-75050000D01*
X110482500Y-78450000D02*
X110482500Y-75050000D01*
%TD*%
D17*
X117181927Y-92066666D02*
X116991451Y-92199999D01*
X117181927Y-92295237D02*
X116781927Y-92295237D01*
X116781927Y-92295237D02*
X116781927Y-92142856D01*
X116781927Y-92142856D02*
X116800975Y-92104761D01*
X116800975Y-92104761D02*
X116820022Y-92085714D01*
X116820022Y-92085714D02*
X116858118Y-92066666D01*
X116858118Y-92066666D02*
X116915260Y-92066666D01*
X116915260Y-92066666D02*
X116953356Y-92085714D01*
X116953356Y-92085714D02*
X116972403Y-92104761D01*
X116972403Y-92104761D02*
X116991451Y-92142856D01*
X116991451Y-92142856D02*
X116991451Y-92295237D01*
X116781927Y-91933333D02*
X116781927Y-91685714D01*
X116781927Y-91685714D02*
X116934308Y-91819047D01*
X116934308Y-91819047D02*
X116934308Y-91761904D01*
X116934308Y-91761904D02*
X116953356Y-91723809D01*
X116953356Y-91723809D02*
X116972403Y-91704761D01*
X116972403Y-91704761D02*
X117010499Y-91685714D01*
X117010499Y-91685714D02*
X117105737Y-91685714D01*
X117105737Y-91685714D02*
X117143832Y-91704761D01*
X117143832Y-91704761D02*
X117162880Y-91723809D01*
X117162880Y-91723809D02*
X117181927Y-91761904D01*
X117181927Y-91761904D02*
X117181927Y-91876190D01*
X117181927Y-91876190D02*
X117162880Y-91914285D01*
X117162880Y-91914285D02*
X117143832Y-91933333D01*
X112431927Y-73316666D02*
X112241451Y-73449999D01*
X112431927Y-73545237D02*
X112031927Y-73545237D01*
X112031927Y-73545237D02*
X112031927Y-73392856D01*
X112031927Y-73392856D02*
X112050975Y-73354761D01*
X112050975Y-73354761D02*
X112070022Y-73335714D01*
X112070022Y-73335714D02*
X112108118Y-73316666D01*
X112108118Y-73316666D02*
X112165260Y-73316666D01*
X112165260Y-73316666D02*
X112203356Y-73335714D01*
X112203356Y-73335714D02*
X112222403Y-73354761D01*
X112222403Y-73354761D02*
X112241451Y-73392856D01*
X112241451Y-73392856D02*
X112241451Y-73545237D01*
X112431927Y-73126190D02*
X112431927Y-73049999D01*
X112431927Y-73049999D02*
X112412880Y-73011904D01*
X112412880Y-73011904D02*
X112393832Y-72992856D01*
X112393832Y-72992856D02*
X112336689Y-72954761D01*
X112336689Y-72954761D02*
X112260499Y-72935714D01*
X112260499Y-72935714D02*
X112108118Y-72935714D01*
X112108118Y-72935714D02*
X112070022Y-72954761D01*
X112070022Y-72954761D02*
X112050975Y-72973809D01*
X112050975Y-72973809D02*
X112031927Y-73011904D01*
X112031927Y-73011904D02*
X112031927Y-73088095D01*
X112031927Y-73088095D02*
X112050975Y-73126190D01*
X112050975Y-73126190D02*
X112070022Y-73145237D01*
X112070022Y-73145237D02*
X112108118Y-73164285D01*
X112108118Y-73164285D02*
X112203356Y-73164285D01*
X112203356Y-73164285D02*
X112241451Y-73145237D01*
X112241451Y-73145237D02*
X112260499Y-73126190D01*
X112260499Y-73126190D02*
X112279546Y-73088095D01*
X112279546Y-73088095D02*
X112279546Y-73011904D01*
X112279546Y-73011904D02*
X112260499Y-72973809D01*
X112260499Y-72973809D02*
X112241451Y-72954761D01*
X112241451Y-72954761D02*
X112203356Y-72935714D01*
X110681927Y-73507142D02*
X110491451Y-73640475D01*
X110681927Y-73735713D02*
X110281927Y-73735713D01*
X110281927Y-73735713D02*
X110281927Y-73583332D01*
X110281927Y-73583332D02*
X110300975Y-73545237D01*
X110300975Y-73545237D02*
X110320022Y-73526190D01*
X110320022Y-73526190D02*
X110358118Y-73507142D01*
X110358118Y-73507142D02*
X110415260Y-73507142D01*
X110415260Y-73507142D02*
X110453356Y-73526190D01*
X110453356Y-73526190D02*
X110472403Y-73545237D01*
X110472403Y-73545237D02*
X110491451Y-73583332D01*
X110491451Y-73583332D02*
X110491451Y-73735713D01*
X110681927Y-73126190D02*
X110681927Y-73354761D01*
X110681927Y-73240475D02*
X110281927Y-73240475D01*
X110281927Y-73240475D02*
X110339070Y-73278571D01*
X110339070Y-73278571D02*
X110377165Y-73316666D01*
X110377165Y-73316666D02*
X110396213Y-73354761D01*
X110281927Y-72992857D02*
X110281927Y-72745238D01*
X110281927Y-72745238D02*
X110434308Y-72878571D01*
X110434308Y-72878571D02*
X110434308Y-72821428D01*
X110434308Y-72821428D02*
X110453356Y-72783333D01*
X110453356Y-72783333D02*
X110472403Y-72764285D01*
X110472403Y-72764285D02*
X110510499Y-72745238D01*
X110510499Y-72745238D02*
X110605737Y-72745238D01*
X110605737Y-72745238D02*
X110643832Y-72764285D01*
X110643832Y-72764285D02*
X110662880Y-72783333D01*
X110662880Y-72783333D02*
X110681927Y-72821428D01*
X110681927Y-72821428D02*
X110681927Y-72935714D01*
X110681927Y-72935714D02*
X110662880Y-72973809D01*
X110662880Y-72973809D02*
X110643832Y-72992857D01*
X108933333Y-79681927D02*
X108800000Y-79491451D01*
X108704762Y-79681927D02*
X108704762Y-79281927D01*
X108704762Y-79281927D02*
X108857143Y-79281927D01*
X108857143Y-79281927D02*
X108895238Y-79300975D01*
X108895238Y-79300975D02*
X108914285Y-79320022D01*
X108914285Y-79320022D02*
X108933333Y-79358118D01*
X108933333Y-79358118D02*
X108933333Y-79415260D01*
X108933333Y-79415260D02*
X108914285Y-79453356D01*
X108914285Y-79453356D02*
X108895238Y-79472403D01*
X108895238Y-79472403D02*
X108857143Y-79491451D01*
X108857143Y-79491451D02*
X108704762Y-79491451D01*
X109161904Y-79453356D02*
X109123809Y-79434308D01*
X109123809Y-79434308D02*
X109104762Y-79415260D01*
X109104762Y-79415260D02*
X109085714Y-79377165D01*
X109085714Y-79377165D02*
X109085714Y-79358118D01*
X109085714Y-79358118D02*
X109104762Y-79320022D01*
X109104762Y-79320022D02*
X109123809Y-79300975D01*
X109123809Y-79300975D02*
X109161904Y-79281927D01*
X109161904Y-79281927D02*
X109238095Y-79281927D01*
X109238095Y-79281927D02*
X109276190Y-79300975D01*
X109276190Y-79300975D02*
X109295238Y-79320022D01*
X109295238Y-79320022D02*
X109314285Y-79358118D01*
X109314285Y-79358118D02*
X109314285Y-79377165D01*
X109314285Y-79377165D02*
X109295238Y-79415260D01*
X109295238Y-79415260D02*
X109276190Y-79434308D01*
X109276190Y-79434308D02*
X109238095Y-79453356D01*
X109238095Y-79453356D02*
X109161904Y-79453356D01*
X109161904Y-79453356D02*
X109123809Y-79472403D01*
X109123809Y-79472403D02*
X109104762Y-79491451D01*
X109104762Y-79491451D02*
X109085714Y-79529546D01*
X109085714Y-79529546D02*
X109085714Y-79605737D01*
X109085714Y-79605737D02*
X109104762Y-79643832D01*
X109104762Y-79643832D02*
X109123809Y-79662880D01*
X109123809Y-79662880D02*
X109161904Y-79681927D01*
X109161904Y-79681927D02*
X109238095Y-79681927D01*
X109238095Y-79681927D02*
X109276190Y-79662880D01*
X109276190Y-79662880D02*
X109295238Y-79643832D01*
X109295238Y-79643832D02*
X109314285Y-79605737D01*
X109314285Y-79605737D02*
X109314285Y-79529546D01*
X109314285Y-79529546D02*
X109295238Y-79491451D01*
X109295238Y-79491451D02*
X109276190Y-79472403D01*
X109276190Y-79472403D02*
X109238095Y-79453356D01*
X105858333Y-93143832D02*
X105839285Y-93162880D01*
X105839285Y-93162880D02*
X105782143Y-93181927D01*
X105782143Y-93181927D02*
X105744047Y-93181927D01*
X105744047Y-93181927D02*
X105686904Y-93162880D01*
X105686904Y-93162880D02*
X105648809Y-93124784D01*
X105648809Y-93124784D02*
X105629762Y-93086689D01*
X105629762Y-93086689D02*
X105610714Y-93010499D01*
X105610714Y-93010499D02*
X105610714Y-92953356D01*
X105610714Y-92953356D02*
X105629762Y-92877165D01*
X105629762Y-92877165D02*
X105648809Y-92839070D01*
X105648809Y-92839070D02*
X105686904Y-92800975D01*
X105686904Y-92800975D02*
X105744047Y-92781927D01*
X105744047Y-92781927D02*
X105782143Y-92781927D01*
X105782143Y-92781927D02*
X105839285Y-92800975D01*
X105839285Y-92800975D02*
X105858333Y-92820022D01*
X106239285Y-93181927D02*
X106010714Y-93181927D01*
X106125000Y-93181927D02*
X106125000Y-92781927D01*
X106125000Y-92781927D02*
X106086904Y-92839070D01*
X106086904Y-92839070D02*
X106048809Y-92877165D01*
X106048809Y-92877165D02*
X106010714Y-92896213D01*
D18*
X101738095Y-139654819D02*
X101738095Y-138654819D01*
X101738095Y-139131009D02*
X102309523Y-139131009D01*
X102309523Y-139654819D02*
X102309523Y-138654819D01*
X103309523Y-139654819D02*
X102738095Y-139654819D01*
X103023809Y-139654819D02*
X103023809Y-138654819D01*
X103023809Y-138654819D02*
X102928571Y-138797676D01*
X102928571Y-138797676D02*
X102833333Y-138892914D01*
X102833333Y-138892914D02*
X102738095Y-138940533D01*
D17*
X109933333Y-89393832D02*
X109914285Y-89412880D01*
X109914285Y-89412880D02*
X109857143Y-89431927D01*
X109857143Y-89431927D02*
X109819047Y-89431927D01*
X109819047Y-89431927D02*
X109761904Y-89412880D01*
X109761904Y-89412880D02*
X109723809Y-89374784D01*
X109723809Y-89374784D02*
X109704762Y-89336689D01*
X109704762Y-89336689D02*
X109685714Y-89260499D01*
X109685714Y-89260499D02*
X109685714Y-89203356D01*
X109685714Y-89203356D02*
X109704762Y-89127165D01*
X109704762Y-89127165D02*
X109723809Y-89089070D01*
X109723809Y-89089070D02*
X109761904Y-89050975D01*
X109761904Y-89050975D02*
X109819047Y-89031927D01*
X109819047Y-89031927D02*
X109857143Y-89031927D01*
X109857143Y-89031927D02*
X109914285Y-89050975D01*
X109914285Y-89050975D02*
X109933333Y-89070022D01*
X110085714Y-89070022D02*
X110104762Y-89050975D01*
X110104762Y-89050975D02*
X110142857Y-89031927D01*
X110142857Y-89031927D02*
X110238095Y-89031927D01*
X110238095Y-89031927D02*
X110276190Y-89050975D01*
X110276190Y-89050975D02*
X110295238Y-89070022D01*
X110295238Y-89070022D02*
X110314285Y-89108118D01*
X110314285Y-89108118D02*
X110314285Y-89146213D01*
X110314285Y-89146213D02*
X110295238Y-89203356D01*
X110295238Y-89203356D02*
X110066666Y-89431927D01*
X110066666Y-89431927D02*
X110314285Y-89431927D01*
X107356927Y-134929761D02*
X107680737Y-134929761D01*
X107680737Y-134929761D02*
X107718832Y-134910714D01*
X107718832Y-134910714D02*
X107737880Y-134891666D01*
X107737880Y-134891666D02*
X107756927Y-134853571D01*
X107756927Y-134853571D02*
X107756927Y-134777380D01*
X107756927Y-134777380D02*
X107737880Y-134739285D01*
X107737880Y-134739285D02*
X107718832Y-134720238D01*
X107718832Y-134720238D02*
X107680737Y-134701190D01*
X107680737Y-134701190D02*
X107356927Y-134701190D01*
X107356927Y-134320237D02*
X107356927Y-134510713D01*
X107356927Y-134510713D02*
X107547403Y-134529761D01*
X107547403Y-134529761D02*
X107528356Y-134510713D01*
X107528356Y-134510713D02*
X107509308Y-134472618D01*
X107509308Y-134472618D02*
X107509308Y-134377380D01*
X107509308Y-134377380D02*
X107528356Y-134339285D01*
X107528356Y-134339285D02*
X107547403Y-134320237D01*
X107547403Y-134320237D02*
X107585499Y-134301190D01*
X107585499Y-134301190D02*
X107680737Y-134301190D01*
X107680737Y-134301190D02*
X107718832Y-134320237D01*
X107718832Y-134320237D02*
X107737880Y-134339285D01*
X107737880Y-134339285D02*
X107756927Y-134377380D01*
X107756927Y-134377380D02*
X107756927Y-134472618D01*
X107756927Y-134472618D02*
X107737880Y-134510713D01*
X107737880Y-134510713D02*
X107718832Y-134529761D01*
X108742857Y-83181927D02*
X108609524Y-82991451D01*
X108514286Y-83181927D02*
X108514286Y-82781927D01*
X108514286Y-82781927D02*
X108666667Y-82781927D01*
X108666667Y-82781927D02*
X108704762Y-82800975D01*
X108704762Y-82800975D02*
X108723809Y-82820022D01*
X108723809Y-82820022D02*
X108742857Y-82858118D01*
X108742857Y-82858118D02*
X108742857Y-82915260D01*
X108742857Y-82915260D02*
X108723809Y-82953356D01*
X108723809Y-82953356D02*
X108704762Y-82972403D01*
X108704762Y-82972403D02*
X108666667Y-82991451D01*
X108666667Y-82991451D02*
X108514286Y-82991451D01*
X109123809Y-83181927D02*
X108895238Y-83181927D01*
X109009524Y-83181927D02*
X109009524Y-82781927D01*
X109009524Y-82781927D02*
X108971428Y-82839070D01*
X108971428Y-82839070D02*
X108933333Y-82877165D01*
X108933333Y-82877165D02*
X108895238Y-82896213D01*
X109504761Y-83181927D02*
X109276190Y-83181927D01*
X109390476Y-83181927D02*
X109390476Y-82781927D01*
X109390476Y-82781927D02*
X109352380Y-82839070D01*
X109352380Y-82839070D02*
X109314285Y-82877165D01*
X109314285Y-82877165D02*
X109276190Y-82896213D01*
D18*
X110738094Y-141795182D02*
X110738094Y-142795182D01*
X110738094Y-142795182D02*
X110357142Y-142795182D01*
X110357142Y-142795182D02*
X110261904Y-142747563D01*
X110261904Y-142747563D02*
X110214285Y-142699944D01*
X110214285Y-142699944D02*
X110166666Y-142604706D01*
X110166666Y-142604706D02*
X110166666Y-142461849D01*
X110166666Y-142461849D02*
X110214285Y-142366611D01*
X110214285Y-142366611D02*
X110261904Y-142318992D01*
X110261904Y-142318992D02*
X110357142Y-142271373D01*
X110357142Y-142271373D02*
X110738094Y-142271373D01*
X109214285Y-141795182D02*
X109785713Y-141795182D01*
X109499999Y-141795182D02*
X109499999Y-142795182D01*
X109499999Y-142795182D02*
X109595237Y-142652325D01*
X109595237Y-142652325D02*
X109690475Y-142557087D01*
X109690475Y-142557087D02*
X109785713Y-142509468D01*
D19*
X114252409Y-92455952D02*
X114657171Y-92455952D01*
X114657171Y-92455952D02*
X114704790Y-92432142D01*
X114704790Y-92432142D02*
X114728600Y-92408333D01*
X114728600Y-92408333D02*
X114752409Y-92360714D01*
X114752409Y-92360714D02*
X114752409Y-92265476D01*
X114752409Y-92265476D02*
X114728600Y-92217857D01*
X114728600Y-92217857D02*
X114704790Y-92194047D01*
X114704790Y-92194047D02*
X114657171Y-92170238D01*
X114657171Y-92170238D02*
X114252409Y-92170238D01*
X114419076Y-91717856D02*
X114752409Y-91717856D01*
X114228600Y-91836904D02*
X114585742Y-91955951D01*
X114585742Y-91955951D02*
X114585742Y-91646428D01*
D18*
X109004820Y-92818104D02*
X109814343Y-92818104D01*
X109814343Y-92818104D02*
X109909581Y-92770485D01*
X109909581Y-92770485D02*
X109957201Y-92722866D01*
X109957201Y-92722866D02*
X110004820Y-92627628D01*
X110004820Y-92627628D02*
X110004820Y-92437152D01*
X110004820Y-92437152D02*
X109957201Y-92341914D01*
X109957201Y-92341914D02*
X109909581Y-92294295D01*
X109909581Y-92294295D02*
X109814343Y-92246676D01*
X109814343Y-92246676D02*
X109004820Y-92246676D01*
X109004820Y-91865723D02*
X109004820Y-91246676D01*
X109004820Y-91246676D02*
X109385772Y-91580009D01*
X109385772Y-91580009D02*
X109385772Y-91437152D01*
X109385772Y-91437152D02*
X109433391Y-91341914D01*
X109433391Y-91341914D02*
X109481010Y-91294295D01*
X109481010Y-91294295D02*
X109576248Y-91246676D01*
X109576248Y-91246676D02*
X109814343Y-91246676D01*
X109814343Y-91246676D02*
X109909581Y-91294295D01*
X109909581Y-91294295D02*
X109957201Y-91341914D01*
X109957201Y-91341914D02*
X110004820Y-91437152D01*
X110004820Y-91437152D02*
X110004820Y-91722866D01*
X110004820Y-91722866D02*
X109957201Y-91818104D01*
X109957201Y-91818104D02*
X109909581Y-91865723D01*
X116738095Y-139654819D02*
X116738095Y-138654819D01*
X116738095Y-139131009D02*
X117309523Y-139131009D01*
X117309523Y-139654819D02*
X117309523Y-138654819D01*
X117738095Y-138750057D02*
X117785714Y-138702438D01*
X117785714Y-138702438D02*
X117880952Y-138654819D01*
X117880952Y-138654819D02*
X118119047Y-138654819D01*
X118119047Y-138654819D02*
X118214285Y-138702438D01*
X118214285Y-138702438D02*
X118261904Y-138750057D01*
X118261904Y-138750057D02*
X118309523Y-138845295D01*
X118309523Y-138845295D02*
X118309523Y-138940533D01*
X118309523Y-138940533D02*
X118261904Y-139083390D01*
X118261904Y-139083390D02*
X117690476Y-139654819D01*
X117690476Y-139654819D02*
X118309523Y-139654819D01*
X102738095Y-72954819D02*
X102738095Y-71954819D01*
X102738095Y-72431009D02*
X103309523Y-72431009D01*
X103309523Y-72954819D02*
X103309523Y-71954819D01*
X103690476Y-71954819D02*
X104309523Y-71954819D01*
X104309523Y-71954819D02*
X103976190Y-72335771D01*
X103976190Y-72335771D02*
X104119047Y-72335771D01*
X104119047Y-72335771D02*
X104214285Y-72383390D01*
X104214285Y-72383390D02*
X104261904Y-72431009D01*
X104261904Y-72431009D02*
X104309523Y-72526247D01*
X104309523Y-72526247D02*
X104309523Y-72764342D01*
X104309523Y-72764342D02*
X104261904Y-72859580D01*
X104261904Y-72859580D02*
X104214285Y-72907200D01*
X104214285Y-72907200D02*
X104119047Y-72954819D01*
X104119047Y-72954819D02*
X103833333Y-72954819D01*
X103833333Y-72954819D02*
X103738095Y-72907200D01*
X103738095Y-72907200D02*
X103690476Y-72859580D01*
D17*
X112681927Y-135382142D02*
X112491451Y-135515475D01*
X112681927Y-135610713D02*
X112281927Y-135610713D01*
X112281927Y-135610713D02*
X112281927Y-135458332D01*
X112281927Y-135458332D02*
X112300975Y-135420237D01*
X112300975Y-135420237D02*
X112320022Y-135401190D01*
X112320022Y-135401190D02*
X112358118Y-135382142D01*
X112358118Y-135382142D02*
X112415260Y-135382142D01*
X112415260Y-135382142D02*
X112453356Y-135401190D01*
X112453356Y-135401190D02*
X112472403Y-135420237D01*
X112472403Y-135420237D02*
X112491451Y-135458332D01*
X112491451Y-135458332D02*
X112491451Y-135610713D01*
X112681927Y-135001190D02*
X112681927Y-135229761D01*
X112681927Y-135115475D02*
X112281927Y-135115475D01*
X112281927Y-135115475D02*
X112339070Y-135153571D01*
X112339070Y-135153571D02*
X112377165Y-135191666D01*
X112377165Y-135191666D02*
X112396213Y-135229761D01*
X112281927Y-134639285D02*
X112281927Y-134829761D01*
X112281927Y-134829761D02*
X112472403Y-134848809D01*
X112472403Y-134848809D02*
X112453356Y-134829761D01*
X112453356Y-134829761D02*
X112434308Y-134791666D01*
X112434308Y-134791666D02*
X112434308Y-134696428D01*
X112434308Y-134696428D02*
X112453356Y-134658333D01*
X112453356Y-134658333D02*
X112472403Y-134639285D01*
X112472403Y-134639285D02*
X112510499Y-134620238D01*
X112510499Y-134620238D02*
X112605737Y-134620238D01*
X112605737Y-134620238D02*
X112643832Y-134639285D01*
X112643832Y-134639285D02*
X112662880Y-134658333D01*
X112662880Y-134658333D02*
X112681927Y-134696428D01*
X112681927Y-134696428D02*
X112681927Y-134791666D01*
X112681927Y-134791666D02*
X112662880Y-134829761D01*
X112662880Y-134829761D02*
X112643832Y-134848809D01*
D18*
X99554819Y-85661904D02*
X100364342Y-85661904D01*
X100364342Y-85661904D02*
X100459580Y-85614285D01*
X100459580Y-85614285D02*
X100507200Y-85566666D01*
X100507200Y-85566666D02*
X100554819Y-85471428D01*
X100554819Y-85471428D02*
X100554819Y-85280952D01*
X100554819Y-85280952D02*
X100507200Y-85185714D01*
X100507200Y-85185714D02*
X100459580Y-85138095D01*
X100459580Y-85138095D02*
X100364342Y-85090476D01*
X100364342Y-85090476D02*
X99554819Y-85090476D01*
X99650057Y-84661904D02*
X99602438Y-84614285D01*
X99602438Y-84614285D02*
X99554819Y-84519047D01*
X99554819Y-84519047D02*
X99554819Y-84280952D01*
X99554819Y-84280952D02*
X99602438Y-84185714D01*
X99602438Y-84185714D02*
X99650057Y-84138095D01*
X99650057Y-84138095D02*
X99745295Y-84090476D01*
X99745295Y-84090476D02*
X99840533Y-84090476D01*
X99840533Y-84090476D02*
X99983390Y-84138095D01*
X99983390Y-84138095D02*
X100554819Y-84709523D01*
X100554819Y-84709523D02*
X100554819Y-84090476D01*
X115190980Y-81416666D02*
X114476695Y-81416666D01*
X114476695Y-81416666D02*
X114333838Y-81369047D01*
X114333838Y-81369047D02*
X114238600Y-81273809D01*
X114238600Y-81273809D02*
X114190980Y-81130952D01*
X114190980Y-81130952D02*
X114190980Y-81035714D01*
X115095742Y-81845238D02*
X115143361Y-81892857D01*
X115143361Y-81892857D02*
X115190980Y-81988095D01*
X115190980Y-81988095D02*
X115190980Y-82226190D01*
X115190980Y-82226190D02*
X115143361Y-82321428D01*
X115143361Y-82321428D02*
X115095742Y-82369047D01*
X115095742Y-82369047D02*
X115000504Y-82416666D01*
X115000504Y-82416666D02*
X114905266Y-82416666D01*
X114905266Y-82416666D02*
X114762409Y-82369047D01*
X114762409Y-82369047D02*
X114190980Y-81797619D01*
X114190980Y-81797619D02*
X114190980Y-82416666D01*
D17*
X107067857Y-131768832D02*
X107048809Y-131787880D01*
X107048809Y-131787880D02*
X106991667Y-131806927D01*
X106991667Y-131806927D02*
X106953571Y-131806927D01*
X106953571Y-131806927D02*
X106896428Y-131787880D01*
X106896428Y-131787880D02*
X106858333Y-131749784D01*
X106858333Y-131749784D02*
X106839286Y-131711689D01*
X106839286Y-131711689D02*
X106820238Y-131635499D01*
X106820238Y-131635499D02*
X106820238Y-131578356D01*
X106820238Y-131578356D02*
X106839286Y-131502165D01*
X106839286Y-131502165D02*
X106858333Y-131464070D01*
X106858333Y-131464070D02*
X106896428Y-131425975D01*
X106896428Y-131425975D02*
X106953571Y-131406927D01*
X106953571Y-131406927D02*
X106991667Y-131406927D01*
X106991667Y-131406927D02*
X107048809Y-131425975D01*
X107048809Y-131425975D02*
X107067857Y-131445022D01*
X107448809Y-131806927D02*
X107220238Y-131806927D01*
X107334524Y-131806927D02*
X107334524Y-131406927D01*
X107334524Y-131406927D02*
X107296428Y-131464070D01*
X107296428Y-131464070D02*
X107258333Y-131502165D01*
X107258333Y-131502165D02*
X107220238Y-131521213D01*
X107829761Y-131806927D02*
X107601190Y-131806927D01*
X107715476Y-131806927D02*
X107715476Y-131406927D01*
X107715476Y-131406927D02*
X107677380Y-131464070D01*
X107677380Y-131464070D02*
X107639285Y-131502165D01*
X107639285Y-131502165D02*
X107601190Y-131521213D01*
X107181927Y-73544642D02*
X106991451Y-73677975D01*
X107181927Y-73773213D02*
X106781927Y-73773213D01*
X106781927Y-73773213D02*
X106781927Y-73620832D01*
X106781927Y-73620832D02*
X106800975Y-73582737D01*
X106800975Y-73582737D02*
X106820022Y-73563690D01*
X106820022Y-73563690D02*
X106858118Y-73544642D01*
X106858118Y-73544642D02*
X106915260Y-73544642D01*
X106915260Y-73544642D02*
X106953356Y-73563690D01*
X106953356Y-73563690D02*
X106972403Y-73582737D01*
X106972403Y-73582737D02*
X106991451Y-73620832D01*
X106991451Y-73620832D02*
X106991451Y-73773213D01*
X107181927Y-73163690D02*
X107181927Y-73392261D01*
X107181927Y-73277975D02*
X106781927Y-73277975D01*
X106781927Y-73277975D02*
X106839070Y-73316071D01*
X106839070Y-73316071D02*
X106877165Y-73354166D01*
X106877165Y-73354166D02*
X106896213Y-73392261D01*
X106915260Y-72820833D02*
X107181927Y-72820833D01*
X106762880Y-72916071D02*
X107048594Y-73011309D01*
X107048594Y-73011309D02*
X107048594Y-72763690D01*
X108742857Y-81431927D02*
X108609524Y-81241451D01*
X108514286Y-81431927D02*
X108514286Y-81031927D01*
X108514286Y-81031927D02*
X108666667Y-81031927D01*
X108666667Y-81031927D02*
X108704762Y-81050975D01*
X108704762Y-81050975D02*
X108723809Y-81070022D01*
X108723809Y-81070022D02*
X108742857Y-81108118D01*
X108742857Y-81108118D02*
X108742857Y-81165260D01*
X108742857Y-81165260D02*
X108723809Y-81203356D01*
X108723809Y-81203356D02*
X108704762Y-81222403D01*
X108704762Y-81222403D02*
X108666667Y-81241451D01*
X108666667Y-81241451D02*
X108514286Y-81241451D01*
X109123809Y-81431927D02*
X108895238Y-81431927D01*
X109009524Y-81431927D02*
X109009524Y-81031927D01*
X109009524Y-81031927D02*
X108971428Y-81089070D01*
X108971428Y-81089070D02*
X108933333Y-81127165D01*
X108933333Y-81127165D02*
X108895238Y-81146213D01*
X109371428Y-81031927D02*
X109409523Y-81031927D01*
X109409523Y-81031927D02*
X109447619Y-81050975D01*
X109447619Y-81050975D02*
X109466666Y-81070022D01*
X109466666Y-81070022D02*
X109485714Y-81108118D01*
X109485714Y-81108118D02*
X109504761Y-81184308D01*
X109504761Y-81184308D02*
X109504761Y-81279546D01*
X109504761Y-81279546D02*
X109485714Y-81355737D01*
X109485714Y-81355737D02*
X109466666Y-81393832D01*
X109466666Y-81393832D02*
X109447619Y-81412880D01*
X109447619Y-81412880D02*
X109409523Y-81431927D01*
X109409523Y-81431927D02*
X109371428Y-81431927D01*
X109371428Y-81431927D02*
X109333333Y-81412880D01*
X109333333Y-81412880D02*
X109314285Y-81393832D01*
X109314285Y-81393832D02*
X109295238Y-81355737D01*
X109295238Y-81355737D02*
X109276190Y-81279546D01*
X109276190Y-81279546D02*
X109276190Y-81184308D01*
X109276190Y-81184308D02*
X109295238Y-81108118D01*
X109295238Y-81108118D02*
X109314285Y-81070022D01*
X109314285Y-81070022D02*
X109333333Y-81050975D01*
X109333333Y-81050975D02*
X109371428Y-81031927D01*
X105858333Y-94931927D02*
X105725000Y-94741451D01*
X105629762Y-94931927D02*
X105629762Y-94531927D01*
X105629762Y-94531927D02*
X105782143Y-94531927D01*
X105782143Y-94531927D02*
X105820238Y-94550975D01*
X105820238Y-94550975D02*
X105839285Y-94570022D01*
X105839285Y-94570022D02*
X105858333Y-94608118D01*
X105858333Y-94608118D02*
X105858333Y-94665260D01*
X105858333Y-94665260D02*
X105839285Y-94703356D01*
X105839285Y-94703356D02*
X105820238Y-94722403D01*
X105820238Y-94722403D02*
X105782143Y-94741451D01*
X105782143Y-94741451D02*
X105629762Y-94741451D01*
X106239285Y-94931927D02*
X106010714Y-94931927D01*
X106125000Y-94931927D02*
X106125000Y-94531927D01*
X106125000Y-94531927D02*
X106086904Y-94589070D01*
X106086904Y-94589070D02*
X106048809Y-94627165D01*
X106048809Y-94627165D02*
X106010714Y-94646213D01*
X110681927Y-135382142D02*
X110491451Y-135515475D01*
X110681927Y-135610713D02*
X110281927Y-135610713D01*
X110281927Y-135610713D02*
X110281927Y-135458332D01*
X110281927Y-135458332D02*
X110300975Y-135420237D01*
X110300975Y-135420237D02*
X110320022Y-135401190D01*
X110320022Y-135401190D02*
X110358118Y-135382142D01*
X110358118Y-135382142D02*
X110415260Y-135382142D01*
X110415260Y-135382142D02*
X110453356Y-135401190D01*
X110453356Y-135401190D02*
X110472403Y-135420237D01*
X110472403Y-135420237D02*
X110491451Y-135458332D01*
X110491451Y-135458332D02*
X110491451Y-135610713D01*
X110320022Y-135229761D02*
X110300975Y-135210713D01*
X110300975Y-135210713D02*
X110281927Y-135172618D01*
X110281927Y-135172618D02*
X110281927Y-135077380D01*
X110281927Y-135077380D02*
X110300975Y-135039285D01*
X110300975Y-135039285D02*
X110320022Y-135020237D01*
X110320022Y-135020237D02*
X110358118Y-135001190D01*
X110358118Y-135001190D02*
X110396213Y-135001190D01*
X110396213Y-135001190D02*
X110453356Y-135020237D01*
X110453356Y-135020237D02*
X110681927Y-135248809D01*
X110681927Y-135248809D02*
X110681927Y-135001190D01*
X110281927Y-134753571D02*
X110281927Y-134715476D01*
X110281927Y-134715476D02*
X110300975Y-134677380D01*
X110300975Y-134677380D02*
X110320022Y-134658333D01*
X110320022Y-134658333D02*
X110358118Y-134639285D01*
X110358118Y-134639285D02*
X110434308Y-134620238D01*
X110434308Y-134620238D02*
X110529546Y-134620238D01*
X110529546Y-134620238D02*
X110605737Y-134639285D01*
X110605737Y-134639285D02*
X110643832Y-134658333D01*
X110643832Y-134658333D02*
X110662880Y-134677380D01*
X110662880Y-134677380D02*
X110681927Y-134715476D01*
X110681927Y-134715476D02*
X110681927Y-134753571D01*
X110681927Y-134753571D02*
X110662880Y-134791666D01*
X110662880Y-134791666D02*
X110643832Y-134810714D01*
X110643832Y-134810714D02*
X110605737Y-134829761D01*
X110605737Y-134829761D02*
X110529546Y-134848809D01*
X110529546Y-134848809D02*
X110434308Y-134848809D01*
X110434308Y-134848809D02*
X110358118Y-134829761D01*
X110358118Y-134829761D02*
X110320022Y-134810714D01*
X110320022Y-134810714D02*
X110300975Y-134791666D01*
X110300975Y-134791666D02*
X110281927Y-134753571D01*
X101756927Y-133670237D02*
X101356927Y-133670237D01*
X101356927Y-133670237D02*
X101356927Y-133574999D01*
X101356927Y-133574999D02*
X101375975Y-133517856D01*
X101375975Y-133517856D02*
X101414070Y-133479761D01*
X101414070Y-133479761D02*
X101452165Y-133460714D01*
X101452165Y-133460714D02*
X101528356Y-133441666D01*
X101528356Y-133441666D02*
X101585499Y-133441666D01*
X101585499Y-133441666D02*
X101661689Y-133460714D01*
X101661689Y-133460714D02*
X101699784Y-133479761D01*
X101699784Y-133479761D02*
X101737880Y-133517856D01*
X101737880Y-133517856D02*
X101756927Y-133574999D01*
X101756927Y-133574999D02*
X101756927Y-133670237D01*
X101395022Y-133289285D02*
X101375975Y-133270237D01*
X101375975Y-133270237D02*
X101356927Y-133232142D01*
X101356927Y-133232142D02*
X101356927Y-133136904D01*
X101356927Y-133136904D02*
X101375975Y-133098809D01*
X101375975Y-133098809D02*
X101395022Y-133079761D01*
X101395022Y-133079761D02*
X101433118Y-133060714D01*
X101433118Y-133060714D02*
X101471213Y-133060714D01*
X101471213Y-133060714D02*
X101528356Y-133079761D01*
X101528356Y-133079761D02*
X101756927Y-133308333D01*
X101756927Y-133308333D02*
X101756927Y-133060714D01*
X97533333Y-77181927D02*
X97400000Y-76991451D01*
X97304762Y-77181927D02*
X97304762Y-76781927D01*
X97304762Y-76781927D02*
X97457143Y-76781927D01*
X97457143Y-76781927D02*
X97495238Y-76800975D01*
X97495238Y-76800975D02*
X97514285Y-76820022D01*
X97514285Y-76820022D02*
X97533333Y-76858118D01*
X97533333Y-76858118D02*
X97533333Y-76915260D01*
X97533333Y-76915260D02*
X97514285Y-76953356D01*
X97514285Y-76953356D02*
X97495238Y-76972403D01*
X97495238Y-76972403D02*
X97457143Y-76991451D01*
X97457143Y-76991451D02*
X97304762Y-76991451D01*
X97895238Y-76781927D02*
X97704762Y-76781927D01*
X97704762Y-76781927D02*
X97685714Y-76972403D01*
X97685714Y-76972403D02*
X97704762Y-76953356D01*
X97704762Y-76953356D02*
X97742857Y-76934308D01*
X97742857Y-76934308D02*
X97838095Y-76934308D01*
X97838095Y-76934308D02*
X97876190Y-76953356D01*
X97876190Y-76953356D02*
X97895238Y-76972403D01*
X97895238Y-76972403D02*
X97914285Y-77010499D01*
X97914285Y-77010499D02*
X97914285Y-77105737D01*
X97914285Y-77105737D02*
X97895238Y-77143832D01*
X97895238Y-77143832D02*
X97876190Y-77162880D01*
X97876190Y-77162880D02*
X97838095Y-77181927D01*
X97838095Y-77181927D02*
X97742857Y-77181927D01*
X97742857Y-77181927D02*
X97704762Y-77162880D01*
X97704762Y-77162880D02*
X97685714Y-77143832D01*
D18*
X125929819Y-91858333D02*
X126644104Y-91858333D01*
X126644104Y-91858333D02*
X126786961Y-91905952D01*
X126786961Y-91905952D02*
X126882200Y-92001190D01*
X126882200Y-92001190D02*
X126929819Y-92144047D01*
X126929819Y-92144047D02*
X126929819Y-92239285D01*
X126929819Y-90858333D02*
X126929819Y-91429761D01*
X126929819Y-91144047D02*
X125929819Y-91144047D01*
X125929819Y-91144047D02*
X126072676Y-91239285D01*
X126072676Y-91239285D02*
X126167914Y-91334523D01*
X126167914Y-91334523D02*
X126215533Y-91429761D01*
D17*
X100933333Y-77181927D02*
X100800000Y-76991451D01*
X100704762Y-77181927D02*
X100704762Y-76781927D01*
X100704762Y-76781927D02*
X100857143Y-76781927D01*
X100857143Y-76781927D02*
X100895238Y-76800975D01*
X100895238Y-76800975D02*
X100914285Y-76820022D01*
X100914285Y-76820022D02*
X100933333Y-76858118D01*
X100933333Y-76858118D02*
X100933333Y-76915260D01*
X100933333Y-76915260D02*
X100914285Y-76953356D01*
X100914285Y-76953356D02*
X100895238Y-76972403D01*
X100895238Y-76972403D02*
X100857143Y-76991451D01*
X100857143Y-76991451D02*
X100704762Y-76991451D01*
X101276190Y-76781927D02*
X101200000Y-76781927D01*
X101200000Y-76781927D02*
X101161904Y-76800975D01*
X101161904Y-76800975D02*
X101142857Y-76820022D01*
X101142857Y-76820022D02*
X101104762Y-76877165D01*
X101104762Y-76877165D02*
X101085714Y-76953356D01*
X101085714Y-76953356D02*
X101085714Y-77105737D01*
X101085714Y-77105737D02*
X101104762Y-77143832D01*
X101104762Y-77143832D02*
X101123809Y-77162880D01*
X101123809Y-77162880D02*
X101161904Y-77181927D01*
X101161904Y-77181927D02*
X101238095Y-77181927D01*
X101238095Y-77181927D02*
X101276190Y-77162880D01*
X101276190Y-77162880D02*
X101295238Y-77143832D01*
X101295238Y-77143832D02*
X101314285Y-77105737D01*
X101314285Y-77105737D02*
X101314285Y-77010499D01*
X101314285Y-77010499D02*
X101295238Y-76972403D01*
X101295238Y-76972403D02*
X101276190Y-76953356D01*
X101276190Y-76953356D02*
X101238095Y-76934308D01*
X101238095Y-76934308D02*
X101161904Y-76934308D01*
X101161904Y-76934308D02*
X101123809Y-76953356D01*
X101123809Y-76953356D02*
X101104762Y-76972403D01*
X101104762Y-76972403D02*
X101085714Y-77010499D01*
X111781927Y-77832142D02*
X111591451Y-77965475D01*
X111781927Y-78060713D02*
X111381927Y-78060713D01*
X111381927Y-78060713D02*
X111381927Y-77908332D01*
X111381927Y-77908332D02*
X111400975Y-77870237D01*
X111400975Y-77870237D02*
X111420022Y-77851190D01*
X111420022Y-77851190D02*
X111458118Y-77832142D01*
X111458118Y-77832142D02*
X111515260Y-77832142D01*
X111515260Y-77832142D02*
X111553356Y-77851190D01*
X111553356Y-77851190D02*
X111572403Y-77870237D01*
X111572403Y-77870237D02*
X111591451Y-77908332D01*
X111591451Y-77908332D02*
X111591451Y-78060713D01*
X111781927Y-77451190D02*
X111781927Y-77679761D01*
X111781927Y-77565475D02*
X111381927Y-77565475D01*
X111381927Y-77565475D02*
X111439070Y-77603571D01*
X111439070Y-77603571D02*
X111477165Y-77641666D01*
X111477165Y-77641666D02*
X111496213Y-77679761D01*
X111381927Y-77108333D02*
X111381927Y-77184523D01*
X111381927Y-77184523D02*
X111400975Y-77222619D01*
X111400975Y-77222619D02*
X111420022Y-77241666D01*
X111420022Y-77241666D02*
X111477165Y-77279761D01*
X111477165Y-77279761D02*
X111553356Y-77298809D01*
X111553356Y-77298809D02*
X111705737Y-77298809D01*
X111705737Y-77298809D02*
X111743832Y-77279761D01*
X111743832Y-77279761D02*
X111762880Y-77260714D01*
X111762880Y-77260714D02*
X111781927Y-77222619D01*
X111781927Y-77222619D02*
X111781927Y-77146428D01*
X111781927Y-77146428D02*
X111762880Y-77108333D01*
X111762880Y-77108333D02*
X111743832Y-77089285D01*
X111743832Y-77089285D02*
X111705737Y-77070238D01*
X111705737Y-77070238D02*
X111610499Y-77070238D01*
X111610499Y-77070238D02*
X111572403Y-77089285D01*
X111572403Y-77089285D02*
X111553356Y-77108333D01*
X111553356Y-77108333D02*
X111534308Y-77146428D01*
X111534308Y-77146428D02*
X111534308Y-77222619D01*
X111534308Y-77222619D02*
X111553356Y-77260714D01*
X111553356Y-77260714D02*
X111572403Y-77279761D01*
X111572403Y-77279761D02*
X111610499Y-77298809D01*
X114433333Y-94643832D02*
X114414285Y-94662880D01*
X114414285Y-94662880D02*
X114357143Y-94681927D01*
X114357143Y-94681927D02*
X114319047Y-94681927D01*
X114319047Y-94681927D02*
X114261904Y-94662880D01*
X114261904Y-94662880D02*
X114223809Y-94624784D01*
X114223809Y-94624784D02*
X114204762Y-94586689D01*
X114204762Y-94586689D02*
X114185714Y-94510499D01*
X114185714Y-94510499D02*
X114185714Y-94453356D01*
X114185714Y-94453356D02*
X114204762Y-94377165D01*
X114204762Y-94377165D02*
X114223809Y-94339070D01*
X114223809Y-94339070D02*
X114261904Y-94300975D01*
X114261904Y-94300975D02*
X114319047Y-94281927D01*
X114319047Y-94281927D02*
X114357143Y-94281927D01*
X114357143Y-94281927D02*
X114414285Y-94300975D01*
X114414285Y-94300975D02*
X114433333Y-94320022D01*
X114795238Y-94281927D02*
X114604762Y-94281927D01*
X114604762Y-94281927D02*
X114585714Y-94472403D01*
X114585714Y-94472403D02*
X114604762Y-94453356D01*
X114604762Y-94453356D02*
X114642857Y-94434308D01*
X114642857Y-94434308D02*
X114738095Y-94434308D01*
X114738095Y-94434308D02*
X114776190Y-94453356D01*
X114776190Y-94453356D02*
X114795238Y-94472403D01*
X114795238Y-94472403D02*
X114814285Y-94510499D01*
X114814285Y-94510499D02*
X114814285Y-94605737D01*
X114814285Y-94605737D02*
X114795238Y-94643832D01*
X114795238Y-94643832D02*
X114776190Y-94662880D01*
X114776190Y-94662880D02*
X114738095Y-94681927D01*
X114738095Y-94681927D02*
X114642857Y-94681927D01*
X114642857Y-94681927D02*
X114604762Y-94662880D01*
X114604762Y-94662880D02*
X114585714Y-94643832D01*
X104008333Y-132806927D02*
X103875000Y-132616451D01*
X103779762Y-132806927D02*
X103779762Y-132406927D01*
X103779762Y-132406927D02*
X103932143Y-132406927D01*
X103932143Y-132406927D02*
X103970238Y-132425975D01*
X103970238Y-132425975D02*
X103989285Y-132445022D01*
X103989285Y-132445022D02*
X104008333Y-132483118D01*
X104008333Y-132483118D02*
X104008333Y-132540260D01*
X104008333Y-132540260D02*
X103989285Y-132578356D01*
X103989285Y-132578356D02*
X103970238Y-132597403D01*
X103970238Y-132597403D02*
X103932143Y-132616451D01*
X103932143Y-132616451D02*
X103779762Y-132616451D01*
X104160714Y-132445022D02*
X104179762Y-132425975D01*
X104179762Y-132425975D02*
X104217857Y-132406927D01*
X104217857Y-132406927D02*
X104313095Y-132406927D01*
X104313095Y-132406927D02*
X104351190Y-132425975D01*
X104351190Y-132425975D02*
X104370238Y-132445022D01*
X104370238Y-132445022D02*
X104389285Y-132483118D01*
X104389285Y-132483118D02*
X104389285Y-132521213D01*
X104389285Y-132521213D02*
X104370238Y-132578356D01*
X104370238Y-132578356D02*
X104141666Y-132806927D01*
X104141666Y-132806927D02*
X104389285Y-132806927D01*
X110681927Y-95566666D02*
X110491451Y-95699999D01*
X110681927Y-95795237D02*
X110281927Y-95795237D01*
X110281927Y-95795237D02*
X110281927Y-95642856D01*
X110281927Y-95642856D02*
X110300975Y-95604761D01*
X110300975Y-95604761D02*
X110320022Y-95585714D01*
X110320022Y-95585714D02*
X110358118Y-95566666D01*
X110358118Y-95566666D02*
X110415260Y-95566666D01*
X110415260Y-95566666D02*
X110453356Y-95585714D01*
X110453356Y-95585714D02*
X110472403Y-95604761D01*
X110472403Y-95604761D02*
X110491451Y-95642856D01*
X110491451Y-95642856D02*
X110491451Y-95795237D01*
X110415260Y-95223809D02*
X110681927Y-95223809D01*
X110262880Y-95319047D02*
X110548594Y-95414285D01*
X110548594Y-95414285D02*
X110548594Y-95166666D01*
X97543832Y-93866666D02*
X97562880Y-93885714D01*
X97562880Y-93885714D02*
X97581927Y-93942856D01*
X97581927Y-93942856D02*
X97581927Y-93980952D01*
X97581927Y-93980952D02*
X97562880Y-94038095D01*
X97562880Y-94038095D02*
X97524784Y-94076190D01*
X97524784Y-94076190D02*
X97486689Y-94095237D01*
X97486689Y-94095237D02*
X97410499Y-94114285D01*
X97410499Y-94114285D02*
X97353356Y-94114285D01*
X97353356Y-94114285D02*
X97277165Y-94095237D01*
X97277165Y-94095237D02*
X97239070Y-94076190D01*
X97239070Y-94076190D02*
X97200975Y-94038095D01*
X97200975Y-94038095D02*
X97181927Y-93980952D01*
X97181927Y-93980952D02*
X97181927Y-93942856D01*
X97181927Y-93942856D02*
X97200975Y-93885714D01*
X97200975Y-93885714D02*
X97220022Y-93866666D01*
X97181927Y-93733333D02*
X97181927Y-93485714D01*
X97181927Y-93485714D02*
X97334308Y-93619047D01*
X97334308Y-93619047D02*
X97334308Y-93561904D01*
X97334308Y-93561904D02*
X97353356Y-93523809D01*
X97353356Y-93523809D02*
X97372403Y-93504761D01*
X97372403Y-93504761D02*
X97410499Y-93485714D01*
X97410499Y-93485714D02*
X97505737Y-93485714D01*
X97505737Y-93485714D02*
X97543832Y-93504761D01*
X97543832Y-93504761D02*
X97562880Y-93523809D01*
X97562880Y-93523809D02*
X97581927Y-93561904D01*
X97581927Y-93561904D02*
X97581927Y-93676190D01*
X97581927Y-93676190D02*
X97562880Y-93714285D01*
X97562880Y-93714285D02*
X97543832Y-93733333D01*
X95743832Y-93866666D02*
X95762880Y-93885714D01*
X95762880Y-93885714D02*
X95781927Y-93942856D01*
X95781927Y-93942856D02*
X95781927Y-93980952D01*
X95781927Y-93980952D02*
X95762880Y-94038095D01*
X95762880Y-94038095D02*
X95724784Y-94076190D01*
X95724784Y-94076190D02*
X95686689Y-94095237D01*
X95686689Y-94095237D02*
X95610499Y-94114285D01*
X95610499Y-94114285D02*
X95553356Y-94114285D01*
X95553356Y-94114285D02*
X95477165Y-94095237D01*
X95477165Y-94095237D02*
X95439070Y-94076190D01*
X95439070Y-94076190D02*
X95400975Y-94038095D01*
X95400975Y-94038095D02*
X95381927Y-93980952D01*
X95381927Y-93980952D02*
X95381927Y-93942856D01*
X95381927Y-93942856D02*
X95400975Y-93885714D01*
X95400975Y-93885714D02*
X95420022Y-93866666D01*
X95381927Y-93523809D02*
X95381927Y-93599999D01*
X95381927Y-93599999D02*
X95400975Y-93638095D01*
X95400975Y-93638095D02*
X95420022Y-93657142D01*
X95420022Y-93657142D02*
X95477165Y-93695237D01*
X95477165Y-93695237D02*
X95553356Y-93714285D01*
X95553356Y-93714285D02*
X95705737Y-93714285D01*
X95705737Y-93714285D02*
X95743832Y-93695237D01*
X95743832Y-93695237D02*
X95762880Y-93676190D01*
X95762880Y-93676190D02*
X95781927Y-93638095D01*
X95781927Y-93638095D02*
X95781927Y-93561904D01*
X95781927Y-93561904D02*
X95762880Y-93523809D01*
X95762880Y-93523809D02*
X95743832Y-93504761D01*
X95743832Y-93504761D02*
X95705737Y-93485714D01*
X95705737Y-93485714D02*
X95610499Y-93485714D01*
X95610499Y-93485714D02*
X95572403Y-93504761D01*
X95572403Y-93504761D02*
X95553356Y-93523809D01*
X95553356Y-93523809D02*
X95534308Y-93561904D01*
X95534308Y-93561904D02*
X95534308Y-93638095D01*
X95534308Y-93638095D02*
X95553356Y-93676190D01*
X95553356Y-93676190D02*
X95572403Y-93695237D01*
X95572403Y-93695237D02*
X95610499Y-93714285D01*
D20*
%TO.C,R3*%
X116587500Y-92800000D02*
X116587500Y-91200000D01*
X117412500Y-92800000D02*
X116587500Y-92800000D01*
X116587500Y-91200000D02*
X117412500Y-91200000D01*
X117412500Y-91200000D02*
X117412500Y-92800000D01*
%TO.C,R9*%
X112662500Y-72450000D02*
X112662500Y-74050000D01*
X111837500Y-72450000D02*
X112662500Y-72450000D01*
X112662500Y-74050000D02*
X111837500Y-74050000D01*
X111837500Y-74050000D02*
X111837500Y-72450000D01*
%TO.C,R13*%
X110912500Y-72450000D02*
X110912500Y-74050000D01*
X110087500Y-72450000D02*
X110912500Y-72450000D01*
X110912500Y-74050000D02*
X110087500Y-74050000D01*
X110087500Y-74050000D02*
X110087500Y-72450000D01*
%TO.C,R8*%
X109800000Y-79912500D02*
X108200000Y-79912500D01*
X109800000Y-79087500D02*
X109800000Y-79912500D01*
X108200000Y-79912500D02*
X108200000Y-79087500D01*
X108200000Y-79087500D02*
X109800000Y-79087500D01*
%TO.C,C1*%
X105125000Y-92600000D02*
X106725000Y-92600000D01*
X105125000Y-93400000D02*
X105125000Y-92600000D01*
X106725000Y-92600000D02*
X106725000Y-93400000D01*
X106725000Y-93400000D02*
X105125000Y-93400000D01*
%TO.C,C2*%
X109200000Y-88850000D02*
X110800000Y-88850000D01*
X109200000Y-89650000D02*
X109200000Y-88850000D01*
X110800000Y-88850000D02*
X110800000Y-89650000D01*
X110800000Y-89650000D02*
X109200000Y-89650000D01*
%TO.C,Q3*%
X120912500Y-92125000D02*
X121237500Y-91800000D01*
X120912500Y-94700000D02*
X120912500Y-92125000D01*
X121237500Y-91800000D02*
X122212500Y-91800000D01*
X122212500Y-91800000D02*
X122212500Y-94700000D01*
X122212500Y-94700000D02*
X120912500Y-94700000D01*
%TO.C,U5*%
X106525000Y-135425000D02*
X106125000Y-135025000D01*
X109025000Y-135425000D02*
X106525000Y-135425000D01*
X106125000Y-135025000D02*
X106125000Y-133825000D01*
X106125000Y-133825000D02*
X109025000Y-133825000D01*
X109025000Y-133825000D02*
X109025000Y-135425000D01*
%TO.C,R11*%
X108200000Y-82587500D02*
X109800000Y-82587500D01*
X108200000Y-83412500D02*
X108200000Y-82587500D01*
X109800000Y-82587500D02*
X109800000Y-83412500D01*
X109800000Y-83412500D02*
X108200000Y-83412500D01*
D21*
%TO.C,P1*%
X114400000Y-144500000D02*
X114400000Y-140776700D01*
X114400000Y-140780000D02*
X105600000Y-140780000D01*
X105600000Y-144500000D02*
X114400000Y-144500000D01*
X105600000Y-140780000D02*
X105600000Y-144500000D01*
D20*
%TO.C,U4*%
X114025000Y-93325000D02*
X113275000Y-92575000D01*
X115775000Y-93325000D02*
X114025000Y-93325000D01*
X113275000Y-92575000D02*
X113275000Y-90825000D01*
X113275000Y-90825000D02*
X115775000Y-90825000D01*
X115775000Y-90825000D02*
X115775000Y-93325000D01*
D21*
%TO.C,U3*%
X108330801Y-93275400D02*
X110769201Y-93275400D01*
X110769201Y-93275400D02*
X110769201Y-90837000D01*
X108330801Y-90837000D02*
X108330801Y-93275400D01*
X110769201Y-90837000D02*
X108330801Y-90837000D01*
X108330801Y-92361000D02*
G75*
G03*
X108330801Y-91751400I0J304800D01*
G01*
X108826201Y-92919800D02*
G75*
G03*
X108826201Y-92919800I-76200J0D01*
G01*
D20*
%TO.C,C7*%
X112150000Y-82450000D02*
X112150000Y-84050000D01*
X111350000Y-82450000D02*
X112150000Y-82450000D01*
X112150000Y-84050000D02*
X111350000Y-84050000D01*
X111350000Y-84050000D02*
X111350000Y-82450000D01*
%TO.C,R15*%
X112087500Y-135925000D02*
X112087500Y-134325000D01*
X112912500Y-135925000D02*
X112087500Y-135925000D01*
X112087500Y-134325000D02*
X112912500Y-134325000D01*
X112912500Y-134325000D02*
X112912500Y-135925000D01*
%TO.C,U2*%
X105700000Y-91500000D02*
X89100000Y-91500000D01*
X105700000Y-91500000D02*
X105700000Y-78300000D01*
X94500000Y-90700000D02*
X95300000Y-91500000D01*
X89100000Y-78300000D02*
X89100000Y-91500000D01*
X94500000Y-78300000D02*
X94500000Y-91500000D01*
X105700000Y-78300000D02*
X89100000Y-78300000D01*
D21*
%TO.C,J2*%
X118354200Y-77254200D02*
X114645800Y-77254200D01*
X114645800Y-77254200D02*
X114645800Y-86245800D01*
X118354200Y-86245800D02*
X118354200Y-77254200D01*
X114645800Y-86245800D02*
X118354200Y-86245800D01*
D22*
X116931800Y-79500000D02*
G75*
G03*
X116931800Y-79500000I-381000J0D01*
G01*
D20*
%TO.C,C11*%
X106525000Y-131225000D02*
X108125000Y-131225000D01*
X106525000Y-132025000D02*
X106525000Y-131225000D01*
X108125000Y-131225000D02*
X108125000Y-132025000D01*
X108125000Y-132025000D02*
X106525000Y-132025000D01*
%TO.C,D7*%
X111725000Y-137350000D02*
X112525000Y-137350000D01*
X111725000Y-137950000D02*
X111725000Y-137350000D01*
X111975000Y-137650000D02*
X111875000Y-137650000D01*
X111975000Y-137650000D02*
X112275000Y-137850000D01*
X111975000Y-137850000D02*
X111975000Y-137450000D01*
X112275000Y-137450000D02*
X111975000Y-137650000D01*
X112275000Y-137650000D02*
X112375000Y-137650000D01*
X112275000Y-137850000D02*
X112275000Y-137450000D01*
X112525000Y-137350000D02*
X112525000Y-137950000D01*
X112525000Y-137950000D02*
X111725000Y-137950000D01*
%TO.C,R12*%
X109162500Y-72450000D02*
X109162500Y-74050000D01*
X108337500Y-72450000D02*
X109162500Y-72450000D01*
X109162500Y-74050000D02*
X108337500Y-74050000D01*
X108337500Y-74050000D02*
X108337500Y-72450000D01*
%TO.C,R14*%
X106587500Y-74087500D02*
X106587500Y-72487500D01*
X107412500Y-74087500D02*
X106587500Y-74087500D01*
X106587500Y-72487500D02*
X107412500Y-72487500D01*
X107412500Y-72487500D02*
X107412500Y-74087500D01*
%TO.C,R10*%
X108200000Y-80837500D02*
X109800000Y-80837500D01*
X108200000Y-81662500D02*
X108200000Y-80837500D01*
X109800000Y-80837500D02*
X109800000Y-81662500D01*
X109800000Y-81662500D02*
X108200000Y-81662500D01*
%TO.C,R1*%
X106725000Y-95162500D02*
X105125000Y-95162500D01*
X106725000Y-94337500D02*
X106725000Y-95162500D01*
X105125000Y-95162500D02*
X105125000Y-94337500D01*
X105125000Y-94337500D02*
X106725000Y-94337500D01*
%TO.C,R20*%
X110087500Y-135925000D02*
X110087500Y-134325000D01*
X110912500Y-135925000D02*
X110087500Y-135925000D01*
X110087500Y-134325000D02*
X110912500Y-134325000D01*
X110912500Y-134325000D02*
X110912500Y-135925000D01*
%TO.C,D2*%
X101475000Y-134175000D02*
X101975000Y-134175000D01*
X101975000Y-134175000D02*
X101975000Y-132575000D01*
X101175000Y-133875000D02*
X101475000Y-134175000D01*
X101175000Y-132575000D02*
X101175000Y-133875000D01*
X101975000Y-132575000D02*
X101175000Y-132575000D01*
%TO.C,C10*%
X104425000Y-135925000D02*
X104425000Y-134325000D01*
X105225000Y-135925000D02*
X104425000Y-135925000D01*
X104425000Y-134325000D02*
X105225000Y-134325000D01*
X105225000Y-134325000D02*
X105225000Y-135925000D01*
%TO.C,R5*%
X98400000Y-77412500D02*
X96800000Y-77412500D01*
X98400000Y-76587500D02*
X98400000Y-77412500D01*
X96800000Y-77412500D02*
X96800000Y-76587500D01*
X96800000Y-76587500D02*
X98400000Y-76587500D01*
%TO.C,J1*%
X126675000Y-95350000D02*
X126475000Y-95150000D01*
X128475000Y-95350000D02*
X126675000Y-95350000D01*
X125875000Y-95150000D02*
X125875000Y-93650000D01*
X126475000Y-95150000D02*
X125875000Y-95150000D01*
X128675000Y-95150000D02*
X128475000Y-95350000D01*
X124975000Y-93650000D02*
X128675000Y-93650000D01*
X124975000Y-93650000D02*
X124975000Y-89400000D01*
X128675000Y-93650000D02*
X128675000Y-95150000D01*
X128675000Y-93650000D02*
X128675000Y-89400000D01*
X124975000Y-92650000D02*
X125682107Y-92150000D01*
X127300000Y-92300000D02*
X127900000Y-92300000D01*
X127900000Y-92300000D02*
X127900000Y-92000000D01*
X125682107Y-92150000D02*
X124975000Y-91650000D01*
X127300000Y-92000000D02*
X127300000Y-92300000D01*
X127900000Y-92000000D02*
X127300000Y-92000000D01*
X127300000Y-91050000D02*
X127900000Y-91050000D01*
X127900000Y-91050000D02*
X127900000Y-90750000D01*
X127300000Y-90750000D02*
X127300000Y-91050000D01*
X127900000Y-90750000D02*
X127300000Y-90750000D01*
X124975000Y-89400000D02*
X128675000Y-89400000D01*
X128675000Y-89400000D02*
X128675000Y-87900000D01*
X125875000Y-87900000D02*
X125875000Y-89400000D01*
X126475000Y-87900000D02*
X125875000Y-87900000D01*
X128675000Y-87900000D02*
X128475000Y-87700000D01*
X126675000Y-87700000D02*
X126475000Y-87900000D01*
X128475000Y-87700000D02*
X126675000Y-87700000D01*
%TO.C,R6*%
X100200000Y-76587500D02*
X101800000Y-76587500D01*
X100200000Y-77412500D02*
X100200000Y-76587500D01*
X101800000Y-76587500D02*
X101800000Y-77412500D01*
X101800000Y-77412500D02*
X100200000Y-77412500D01*
%TO.C,R16*%
X112012500Y-76775000D02*
X112012500Y-78375000D01*
X111187500Y-76775000D02*
X112012500Y-76775000D01*
X112012500Y-78375000D02*
X111187500Y-78375000D01*
X111187500Y-78375000D02*
X111187500Y-76775000D01*
%TO.C,C5*%
X115300000Y-94900000D02*
X113700000Y-94900000D01*
X115300000Y-94100000D02*
X115300000Y-94900000D01*
X113700000Y-94900000D02*
X113700000Y-94100000D01*
X113700000Y-94100000D02*
X115300000Y-94100000D01*
%TO.C,SW1*%
X103450000Y-95200000D02*
X99250000Y-95200000D01*
X103450000Y-92400000D02*
X103450000Y-95200000D01*
X99250000Y-95200000D02*
X99250000Y-92400000D01*
X99250000Y-92400000D02*
X103450000Y-92400000D01*
X102150000Y-93800000D02*
G75*
G03*
X102150000Y-93800000I-800000J0D01*
G01*
%TO.C,R2*%
X104875000Y-133037500D02*
X103275000Y-133037500D01*
X104875000Y-132212500D02*
X104875000Y-133037500D01*
X103275000Y-133037500D02*
X103275000Y-132212500D01*
X103275000Y-132212500D02*
X104875000Y-132212500D01*
%TO.C,C4*%
X109150000Y-94700000D02*
X109150000Y-96300000D01*
X108350000Y-94700000D02*
X109150000Y-94700000D01*
X109150000Y-96300000D02*
X108350000Y-96300000D01*
X108350000Y-96300000D02*
X108350000Y-94700000D01*
%TO.C,R4*%
X110087500Y-96300000D02*
X110087500Y-94700000D01*
X110912500Y-96300000D02*
X110087500Y-96300000D01*
X110087500Y-94700000D02*
X110912500Y-94700000D01*
X110912500Y-94700000D02*
X110912500Y-96300000D01*
%TO.C,C3*%
X97800000Y-93000000D02*
X97800000Y-94600000D01*
X97000000Y-93000000D02*
X97800000Y-93000000D01*
X97800000Y-94600000D02*
X97000000Y-94600000D01*
X97000000Y-94600000D02*
X97000000Y-93000000D01*
%TO.C,C6*%
X96000000Y-93000000D02*
X96000000Y-94600000D01*
X95200000Y-93000000D02*
X96000000Y-93000000D01*
X96000000Y-94600000D02*
X95200000Y-94600000D01*
X95200000Y-94600000D02*
X95200000Y-93000000D01*
%TO.C,D1*%
X123175000Y-87750000D02*
X123175000Y-90550000D01*
X121375000Y-87750000D02*
X123175000Y-87750000D01*
X122275000Y-88400000D02*
X122275000Y-88800000D01*
X122275000Y-88800000D02*
X122825000Y-88800000D01*
X122275000Y-88800000D02*
X121725000Y-88800000D01*
X122275000Y-88800000D02*
X122675000Y-89400000D01*
X122675000Y-89400000D02*
X121875000Y-89400000D01*
X122275000Y-89400000D02*
X122275000Y-89900000D01*
X121875000Y-89400000D02*
X122275000Y-88800000D01*
X123175000Y-90550000D02*
X121375000Y-90550000D01*
X121375000Y-90550000D02*
X121375000Y-87750000D01*
%TO.C,R7*%
X103600000Y-76587500D02*
X105200000Y-76587500D01*
X103600000Y-77412500D02*
X103600000Y-76587500D01*
X105200000Y-76587500D02*
X105200000Y-77412500D01*
X105200000Y-77412500D02*
X103600000Y-77412500D01*
%TO.C,Q1*%
X107912500Y-75625000D02*
X108237500Y-75300000D01*
X107912500Y-78200000D02*
X107912500Y-75625000D01*
X108237500Y-75300000D02*
X109212500Y-75300000D01*
X109212500Y-75300000D02*
X109212500Y-78200000D01*
X109212500Y-78200000D02*
X107912500Y-78200000D01*
%TD*%
M02*
