%TF.GenerationSoftware,KiCad,Pcbnew,7.0.7*%
%TF.CreationDate,2023-10-18T20:35:36-04:00*%
%TF.ProjectId,room_environment_monitor,726f6f6d-5f65-46e7-9669-726f6e6d656e,rev?*%
%TF.SameCoordinates,Original*%
%TF.FileFunction,Copper,L4,Bot*%
%TF.FilePolarity,Positive*%
%FSLAX46Y46*%
G04 Gerber Fmt 4.6, Leading zero omitted, Abs format (unit mm)*
G04 Created by KiCad (PCBNEW 7.0.7) date 2023-10-18 20:35:36*
%MOMM*%
%LPD*%
G01*
G04 APERTURE LIST*
G04 Aperture macros list*
%AMRoundRect*
0 Rectangle with rounded corners*
0 $1 Rounding radius*
0 $2 $3 $4 $5 $6 $7 $8 $9 X,Y pos of 4 corners*
0 Add a 4 corners polygon primitive as box body*
4,1,4,$2,$3,$4,$5,$6,$7,$8,$9,$2,$3,0*
0 Add four circle primitives for the rounded corners*
1,1,$1+$1,$2,$3*
1,1,$1+$1,$4,$5*
1,1,$1+$1,$6,$7*
1,1,$1+$1,$8,$9*
0 Add four rect primitives between the rounded corners*
20,1,$1+$1,$2,$3,$4,$5,0*
20,1,$1+$1,$4,$5,$6,$7,0*
20,1,$1+$1,$6,$7,$8,$9,0*
20,1,$1+$1,$8,$9,$2,$3,0*%
G04 Aperture macros list end*
%TA.AperFunction,ComponentPad*%
%ADD10O,1.066800X1.701800*%
%TD*%
%TA.AperFunction,SMDPad,CuDef*%
%ADD11R,0.850000X1.600000*%
%TD*%
%TA.AperFunction,SMDPad,CuDef*%
%ADD12RoundRect,0.150000X0.625000X-0.150000X0.625000X0.150000X-0.625000X0.150000X-0.625000X-0.150000X0*%
%TD*%
%TA.AperFunction,SMDPad,CuDef*%
%ADD13RoundRect,0.250000X0.650000X-0.350000X0.650000X0.350000X-0.650000X0.350000X-0.650000X-0.350000X0*%
%TD*%
%TA.AperFunction,SMDPad,CuDef*%
%ADD14RoundRect,0.250001X0.462499X0.624999X-0.462499X0.624999X-0.462499X-0.624999X0.462499X-0.624999X0*%
%TD*%
%TA.AperFunction,ViaPad*%
%ADD15C,0.800000*%
%TD*%
%TA.AperFunction,ViaPad*%
%ADD16C,1.200000*%
%TD*%
%TA.AperFunction,ViaPad*%
%ADD17C,0.600000*%
%TD*%
%TA.AperFunction,Conductor*%
%ADD18C,0.200000*%
%TD*%
%TA.AperFunction,Conductor*%
%ADD19C,0.300000*%
%TD*%
%TA.AperFunction,Conductor*%
%ADD20C,0.400000*%
%TD*%
%TA.AperFunction,Conductor*%
%ADD21C,0.250000*%
%TD*%
%TA.AperFunction,Profile*%
%ADD22C,0.100000*%
%TD*%
%ADD23C,0.050000*%
%ADD24C,0.152400*%
%ADD25C,0.060000*%
%ADD26C,0.150000*%
%ADD27C,0.075000*%
%ADD28C,0.100000*%
%ADD29C,0.025400*%
%ADD30C,0.508000*%
G04 APERTURE END LIST*
D10*
%TO.P,P1,S1,SHIELD*%
%TO.N,GND*%
X114269999Y-143050003D03*
X105730001Y-143050003D03*
%TD*%
D11*
%TO.P,D4,1,DOUT*%
%TO.N,Net-(D4-DOUT)*%
X110875000Y-97600000D03*
%TO.P,D4,2,VSS*%
%TO.N,GND*%
X109125000Y-97600000D03*
%TO.P,D4,3,DIN*%
%TO.N,Net-(D3-DOUT)*%
X109125000Y-94100000D03*
%TO.P,D4,4,VDD*%
%TO.N,+5V*%
X110875000Y-94100000D03*
%TD*%
D12*
%TO.P,J3,1,Pin_1*%
%TO.N,+5V*%
X100250000Y-87400000D03*
%TO.P,J3,2,Pin_2*%
%TO.N,GND*%
X100250000Y-86400000D03*
%TO.P,J3,3,Pin_3*%
%TO.N,EN*%
X100250000Y-85400000D03*
%TO.P,J3,4,Pin_4*%
%TO.N,BOOT*%
X100250000Y-84400000D03*
%TO.P,J3,5,Pin_5*%
%TO.N,Net-(J3-Pin_5)*%
X100250000Y-83400000D03*
%TO.P,J3,6,Pin_6*%
%TO.N,Net-(J3-Pin_6)*%
X100250000Y-82400000D03*
D13*
%TO.P,J3,MP*%
%TO.N,N/C*%
X96375000Y-88700000D03*
X96375000Y-81100000D03*
%TD*%
D11*
%TO.P,D3,1,DOUT*%
%TO.N,Net-(D3-DOUT)*%
X110875000Y-85800000D03*
%TO.P,D3,2,VSS*%
%TO.N,GND*%
X109125000Y-85800000D03*
%TO.P,D3,3,DIN*%
%TO.N,NEOPIXEL*%
X109125000Y-82300000D03*
%TO.P,D3,4,VDD*%
%TO.N,+5V*%
X110875000Y-82300000D03*
%TD*%
%TO.P,D5,1,DOUT*%
%TO.N,unconnected-(D5-DOUT-Pad1)*%
X110875000Y-109350000D03*
%TO.P,D5,2,VSS*%
%TO.N,GND*%
X109125000Y-109350000D03*
%TO.P,D5,3,DIN*%
%TO.N,Net-(D4-DOUT)*%
X109125000Y-105850000D03*
%TO.P,D5,4,VDD*%
%TO.N,+5V*%
X110875000Y-105850000D03*
%TD*%
D14*
%TO.P,D6,1,K*%
%TO.N,GND*%
X111500000Y-75750000D03*
%TO.P,D6,2,A*%
%TO.N,PD*%
X108525000Y-75750000D03*
%TD*%
D15*
%TO.N,EN*%
X101600000Y-89600000D03*
%TO.N,GND*%
X103575000Y-134375000D03*
X95500000Y-95800000D03*
X97425000Y-95750000D03*
X107600000Y-95900000D03*
X109325000Y-131625000D03*
X110575000Y-133125000D03*
X98000000Y-85000000D03*
X106000000Y-137750000D03*
X112750000Y-75750000D03*
X104500000Y-78000000D03*
X107600000Y-85800000D03*
X98000000Y-83000000D03*
X106000000Y-139500000D03*
X109550001Y-92056200D03*
D16*
X120600000Y-95500000D03*
D15*
X102000000Y-85000000D03*
X109800000Y-99100000D03*
X114250000Y-137750000D03*
X105985081Y-93804619D03*
X98000000Y-86800000D03*
X113000000Y-138500000D03*
X109250000Y-111000000D03*
X113580000Y-134370000D03*
X114250000Y-139500000D03*
X107000000Y-138500000D03*
X112900000Y-95300000D03*
X99175000Y-95750000D03*
D16*
X117000000Y-84000000D03*
D15*
%TO.N,BOOT*%
X104000000Y-81000000D03*
%TO.N,+3V3*%
X111800000Y-96400000D03*
X117000000Y-93900000D03*
X112600000Y-77575000D03*
D17*
X106700000Y-75300000D03*
D15*
X108100000Y-89200000D03*
X105075000Y-130125000D03*
X95537701Y-92062299D03*
X112649500Y-92400000D03*
X105075000Y-131125000D03*
X106325000Y-130125000D03*
D17*
X110600000Y-80600000D03*
D15*
X97750000Y-89750000D03*
X103600000Y-75800000D03*
X116400000Y-94600000D03*
X106500000Y-71500000D03*
X106000000Y-95750000D03*
%TO.N,+5V*%
X110250000Y-71500000D03*
D16*
X117000000Y-82500000D03*
D15*
X109500000Y-139500000D03*
X111500000Y-138550000D03*
X109500000Y-137750000D03*
X124300000Y-89000000D03*
X111500000Y-140000000D03*
%TO.N,NEOPIXEL*%
X110657911Y-78736508D03*
X103250000Y-80250000D03*
D17*
%TO.N,UART1_RX*%
X107400000Y-80300000D03*
X105900000Y-84900000D03*
%TO.N,FAN*%
X111200000Y-87600000D03*
X120600000Y-91400000D03*
%TO.N,UART1_TX_LVL*%
X107100000Y-79100000D03*
X105900000Y-83900000D03*
D15*
%TO.N,I2C_SDA*%
X107800000Y-90300000D03*
X114300000Y-90200000D03*
%TO.N,Net-(P1-VCONN)*%
X112120000Y-136750000D03*
X109500000Y-140800000D03*
%TO.N,Net-(J3-Pin_5)*%
X101800000Y-75800000D03*
%TO.N,Net-(J3-Pin_6)*%
X97630000Y-77830000D03*
%TO.N,Net-(J2-Pin_2)*%
X117000000Y-81000000D03*
X114000000Y-75000000D03*
%TO.N,PD*%
X106000000Y-74500000D03*
X100000000Y-91750000D03*
%TD*%
D18*
%TO.N,EN*%
X101600000Y-86338604D02*
X101600000Y-89600000D01*
X100661396Y-85400000D02*
X101600000Y-86338604D01*
%TO.N,GND*%
X109125000Y-98425000D02*
X109800000Y-99100000D01*
X107800000Y-86000000D02*
X107600000Y-85800000D01*
D19*
X111500000Y-75750000D02*
X112750000Y-75750000D01*
D20*
X109125000Y-109500000D02*
X109125000Y-110875000D01*
X109125000Y-110875000D02*
X109250000Y-111000000D01*
D18*
X109125000Y-86000000D02*
X107800000Y-86000000D01*
X100250000Y-86400000D02*
X98400000Y-86400000D01*
X98400000Y-86400000D02*
X98000000Y-86800000D01*
%TO.N,BOOT*%
X104000000Y-81061396D02*
X104000000Y-81000000D01*
X100661396Y-84400000D02*
X104000000Y-81061396D01*
%TO.N,Net-(D3-DOUT)*%
X108400000Y-87100000D02*
X109775000Y-87100000D01*
X108550000Y-94250000D02*
X106600000Y-92300000D01*
X109125000Y-94250000D02*
X108550000Y-94250000D01*
X106600000Y-88900000D02*
X108400000Y-87100000D01*
X109775000Y-87100000D02*
X110875000Y-86000000D01*
X106600000Y-92300000D02*
X106600000Y-88900000D01*
%TO.N,NEOPIXEL*%
X103250000Y-80250000D02*
X105000000Y-78500000D01*
X111600000Y-83600000D02*
X111450000Y-83750000D01*
X111450000Y-83750000D02*
X110375000Y-83750000D01*
X110750000Y-78500000D02*
X111600000Y-79350000D01*
X111600000Y-79350000D02*
X111600000Y-83600000D01*
X105000000Y-78500000D02*
X110750000Y-78500000D01*
X110375000Y-83750000D02*
X109125000Y-82500000D01*
%TO.N,Net-(D4-DOUT)*%
X110875000Y-97750000D02*
X110875000Y-101725000D01*
X110875000Y-101725000D02*
X109125000Y-103475000D01*
X109125000Y-103475000D02*
X109125000Y-106000000D01*
%TO.N,UART1_RX*%
X106900000Y-83900000D02*
X105900000Y-84900000D01*
X106900000Y-80800000D02*
X106900000Y-83900000D01*
X107400000Y-80300000D02*
X106900000Y-80800000D01*
%TO.N,FAN*%
X116800000Y-87600000D02*
X120600000Y-91400000D01*
X111200000Y-87600000D02*
X116800000Y-87600000D01*
%TO.N,UART1_TX_LVL*%
X106200000Y-80000000D02*
X107100000Y-79100000D01*
X105900000Y-83900000D02*
X106200000Y-83600000D01*
X106200000Y-83600000D02*
X106200000Y-80000000D01*
%TO.N,I2C_SDA*%
X112700500Y-90300000D02*
X112800500Y-90200000D01*
X107800000Y-90300000D02*
X112700500Y-90300000D01*
X112800500Y-90200000D02*
X114300000Y-90200000D01*
%TO.N,Net-(P1-VCONN)*%
X109500000Y-140800000D02*
X109500000Y-140510050D01*
X110500000Y-139510050D02*
X110500000Y-138810000D01*
X110500000Y-137170000D02*
X110500000Y-138810000D01*
X109500000Y-140510050D02*
X110500000Y-139510050D01*
X112120000Y-136750000D02*
X110920000Y-136750000D01*
X110590000Y-137080000D02*
X110500000Y-137170000D01*
X110920000Y-136750000D02*
X110590000Y-137080000D01*
%TO.N,Net-(J3-Pin_5)*%
X101800000Y-75800000D02*
X101800000Y-82261396D01*
X101800000Y-82261396D02*
X100661396Y-83400000D01*
%TO.N,Net-(J3-Pin_6)*%
X100250000Y-80430664D02*
X100250000Y-82400000D01*
X97659668Y-77840332D02*
X100250000Y-80430664D01*
%TO.N,Net-(J2-Pin_2)*%
X117000000Y-81000000D02*
X117000000Y-78000000D01*
X117000000Y-78000000D02*
X114000000Y-75000000D01*
D21*
%TO.N,PD*%
X95000000Y-90500000D02*
X95000000Y-77750000D01*
X100750000Y-75000000D02*
X101250000Y-74500000D01*
X100750000Y-76000000D02*
X100750000Y-75000000D01*
X96250000Y-91750000D02*
X95000000Y-90500000D01*
X96000000Y-76750000D02*
X100000000Y-76750000D01*
X95000000Y-77750000D02*
X96000000Y-76750000D01*
X107275000Y-74500000D02*
X108525000Y-75750000D01*
X106000000Y-74500000D02*
X107275000Y-74500000D01*
X101250000Y-74500000D02*
X106000000Y-74500000D01*
X100000000Y-76750000D02*
X100750000Y-76000000D01*
X100000000Y-91750000D02*
X96250000Y-91750000D01*
%TD*%
%TA.AperFunction,Conductor*%
%TO.N,+5V*%
G36*
X119942539Y-70020185D02*
G01*
X119988294Y-70072989D01*
X119999500Y-70124500D01*
X119999500Y-85225467D01*
X119999416Y-85225889D01*
X119999459Y-85250001D01*
X119999500Y-85250099D01*
X119999616Y-85250382D01*
X119999618Y-85250384D01*
X119999808Y-85250462D01*
X120000000Y-85250541D01*
X120000002Y-85250539D01*
X120024616Y-85250524D01*
X120024616Y-85250528D01*
X120024760Y-85250500D01*
X129875500Y-85250500D01*
X129942539Y-85270185D01*
X129988294Y-85322989D01*
X129999500Y-85374500D01*
X129999500Y-97625500D01*
X129979815Y-97692539D01*
X129927011Y-97738294D01*
X129875500Y-97749500D01*
X120024760Y-97749500D01*
X120024554Y-97749459D01*
X120000000Y-97749459D01*
X119999901Y-97749500D01*
X119999617Y-97749616D01*
X119999615Y-97749618D01*
X119999459Y-97749999D01*
X119999476Y-97774616D01*
X119999471Y-97774616D01*
X119999500Y-97774759D01*
X119999500Y-141375500D01*
X119979815Y-141442539D01*
X119927011Y-141488294D01*
X119875500Y-141499500D01*
X116724760Y-141499500D01*
X116724554Y-141499459D01*
X116700000Y-141499459D01*
X116699901Y-141499500D01*
X116699617Y-141499616D01*
X116699615Y-141499618D01*
X116699459Y-141499999D01*
X116699476Y-141524616D01*
X116699471Y-141524616D01*
X116699499Y-141524759D01*
X116699500Y-144375500D01*
X116679815Y-144442539D01*
X116627012Y-144488294D01*
X116575500Y-144499500D01*
X103424500Y-144499500D01*
X103357461Y-144479815D01*
X103311706Y-144427011D01*
X103300500Y-144375500D01*
X103300500Y-143411531D01*
X104946101Y-143411531D01*
X104960917Y-143543032D01*
X104960919Y-143543042D01*
X105019262Y-143709776D01*
X105019263Y-143709777D01*
X105113245Y-143859349D01*
X105238155Y-143984259D01*
X105387727Y-144078241D01*
X105554463Y-144136585D01*
X105554469Y-144136585D01*
X105554471Y-144136586D01*
X105729997Y-144156363D01*
X105730001Y-144156363D01*
X105730005Y-144156363D01*
X105905530Y-144136586D01*
X105905529Y-144136586D01*
X105905539Y-144136585D01*
X106072275Y-144078241D01*
X106221847Y-143984259D01*
X106346757Y-143859349D01*
X106440739Y-143709777D01*
X106499083Y-143543041D01*
X106513900Y-143411531D01*
X113486099Y-143411531D01*
X113500915Y-143543032D01*
X113500917Y-143543042D01*
X113559260Y-143709776D01*
X113559261Y-143709777D01*
X113653243Y-143859349D01*
X113778153Y-143984259D01*
X113927725Y-144078241D01*
X114094461Y-144136585D01*
X114094467Y-144136585D01*
X114094469Y-144136586D01*
X114269995Y-144156363D01*
X114269999Y-144156363D01*
X114270003Y-144156363D01*
X114445528Y-144136586D01*
X114445527Y-144136586D01*
X114445537Y-144136585D01*
X114612273Y-144078241D01*
X114761845Y-143984259D01*
X114886755Y-143859349D01*
X114980737Y-143709777D01*
X115039081Y-143543041D01*
X115053899Y-143411525D01*
X115053899Y-142688481D01*
X115039081Y-142556965D01*
X114980737Y-142390229D01*
X114886755Y-142240657D01*
X114761845Y-142115747D01*
X114612273Y-142021765D01*
X114612274Y-142021765D01*
X114612272Y-142021764D01*
X114445538Y-141963421D01*
X114445528Y-141963419D01*
X114270003Y-141943643D01*
X114269995Y-141943643D01*
X114094469Y-141963419D01*
X114094459Y-141963421D01*
X113927725Y-142021764D01*
X113927722Y-142021766D01*
X113778152Y-142115747D01*
X113653243Y-142240656D01*
X113559262Y-142390226D01*
X113559260Y-142390229D01*
X113500917Y-142556963D01*
X113500915Y-142556973D01*
X113486099Y-142688474D01*
X113486099Y-143411531D01*
X106513900Y-143411531D01*
X106513901Y-143411525D01*
X106513901Y-142688481D01*
X106499083Y-142556965D01*
X106440739Y-142390229D01*
X106346757Y-142240657D01*
X106221847Y-142115747D01*
X106072275Y-142021765D01*
X106072276Y-142021765D01*
X106072274Y-142021764D01*
X105905540Y-141963421D01*
X105905530Y-141963419D01*
X105730005Y-141943643D01*
X105729997Y-141943643D01*
X105554471Y-141963419D01*
X105554461Y-141963421D01*
X105387727Y-142021764D01*
X105387724Y-142021766D01*
X105238154Y-142115747D01*
X105113245Y-142240656D01*
X105019264Y-142390226D01*
X105019262Y-142390229D01*
X104960919Y-142556963D01*
X104960917Y-142556973D01*
X104946101Y-142688474D01*
X104946101Y-143411531D01*
X103300500Y-143411531D01*
X103300500Y-141524759D01*
X103300528Y-141524616D01*
X103300524Y-141524616D01*
X103300539Y-141500002D01*
X103300541Y-141500000D01*
X103300462Y-141499808D01*
X103300384Y-141499618D01*
X103300382Y-141499616D01*
X103300099Y-141499500D01*
X103300000Y-141499459D01*
X103275446Y-141499459D01*
X103275240Y-141499500D01*
X100124500Y-141499500D01*
X100057461Y-141479815D01*
X100011706Y-141427011D01*
X100000500Y-141375500D01*
X100000500Y-140800000D01*
X108844722Y-140800000D01*
X108863762Y-140956818D01*
X108919780Y-141104522D01*
X108919780Y-141104523D01*
X109009517Y-141234530D01*
X109127760Y-141339283D01*
X109127762Y-141339284D01*
X109267634Y-141412696D01*
X109421014Y-141450500D01*
X109421015Y-141450500D01*
X109578985Y-141450500D01*
X109732365Y-141412696D01*
X109803235Y-141375500D01*
X109872240Y-141339283D01*
X109990483Y-141234530D01*
X110080220Y-141104523D01*
X110136237Y-140956818D01*
X110155278Y-140800000D01*
X110136237Y-140643182D01*
X110089409Y-140519708D01*
X110084043Y-140450049D01*
X110117190Y-140388542D01*
X110117430Y-140388300D01*
X110713046Y-139792684D01*
X110732902Y-139776561D01*
X110740669Y-139771487D01*
X110760873Y-139745527D01*
X110765941Y-139739789D01*
X110768376Y-139737356D01*
X110772162Y-139732052D01*
X110781048Y-139719608D01*
X110812513Y-139679181D01*
X110812512Y-139679181D01*
X110812517Y-139679176D01*
X110812519Y-139679169D01*
X110815982Y-139672768D01*
X110816021Y-139672690D01*
X110816058Y-139672620D01*
X110819233Y-139666124D01*
X110819240Y-139666116D01*
X110833860Y-139617006D01*
X110850500Y-139568538D01*
X110850500Y-139568534D01*
X110851692Y-139561391D01*
X110851701Y-139561321D01*
X110851714Y-139561243D01*
X110852617Y-139554000D01*
X110850500Y-139502807D01*
X110850500Y-139500000D01*
X113594722Y-139500000D01*
X113613762Y-139656818D01*
X113657251Y-139771486D01*
X113669780Y-139804523D01*
X113759517Y-139934530D01*
X113877760Y-140039283D01*
X113877762Y-140039284D01*
X114017634Y-140112696D01*
X114171014Y-140150500D01*
X114171015Y-140150500D01*
X114328985Y-140150500D01*
X114482365Y-140112696D01*
X114561043Y-140071402D01*
X114622240Y-140039283D01*
X114740483Y-139934530D01*
X114830220Y-139804523D01*
X114886237Y-139656818D01*
X114905278Y-139500000D01*
X114886237Y-139343182D01*
X114831935Y-139200000D01*
X116144341Y-139200000D01*
X116164936Y-139435403D01*
X116164938Y-139435413D01*
X116226094Y-139663655D01*
X116226096Y-139663659D01*
X116226097Y-139663663D01*
X116252185Y-139719608D01*
X116325964Y-139877828D01*
X116325965Y-139877830D01*
X116461505Y-140071402D01*
X116628597Y-140238494D01*
X116822169Y-140374034D01*
X116822171Y-140374035D01*
X117036337Y-140473903D01*
X117264592Y-140535063D01*
X117441034Y-140550500D01*
X117558966Y-140550500D01*
X117735408Y-140535063D01*
X117963663Y-140473903D01*
X118177829Y-140374035D01*
X118371401Y-140238495D01*
X118538495Y-140071401D01*
X118674035Y-139877830D01*
X118773903Y-139663663D01*
X118835063Y-139435408D01*
X118855659Y-139200000D01*
X118835063Y-138964592D01*
X118773903Y-138736337D01*
X118674035Y-138522171D01*
X118674034Y-138522169D01*
X118538494Y-138328597D01*
X118371402Y-138161505D01*
X118177830Y-138025965D01*
X118177828Y-138025964D01*
X118037901Y-137960715D01*
X117963663Y-137926097D01*
X117963659Y-137926096D01*
X117963655Y-137926094D01*
X117735413Y-137864938D01*
X117735403Y-137864936D01*
X117558966Y-137849500D01*
X117441034Y-137849500D01*
X117264596Y-137864936D01*
X117264586Y-137864938D01*
X117036344Y-137926094D01*
X117036335Y-137926098D01*
X116822171Y-138025964D01*
X116822169Y-138025965D01*
X116628597Y-138161505D01*
X116461506Y-138328597D01*
X116461501Y-138328604D01*
X116325967Y-138522165D01*
X116325965Y-138522169D01*
X116226098Y-138736335D01*
X116226094Y-138736344D01*
X116164938Y-138964586D01*
X116164936Y-138964596D01*
X116144341Y-139199999D01*
X116144341Y-139200000D01*
X114831935Y-139200000D01*
X114830220Y-139195477D01*
X114740483Y-139065470D01*
X114622240Y-138960717D01*
X114622238Y-138960716D01*
X114622237Y-138960715D01*
X114482365Y-138887303D01*
X114328986Y-138849500D01*
X114328985Y-138849500D01*
X114171015Y-138849500D01*
X114171014Y-138849500D01*
X114017634Y-138887303D01*
X113877762Y-138960715D01*
X113759516Y-139065471D01*
X113669781Y-139195475D01*
X113669780Y-139195476D01*
X113613762Y-139343181D01*
X113594722Y-139499999D01*
X113594722Y-139500000D01*
X110850500Y-139500000D01*
X110850500Y-138729606D01*
X110850499Y-138729597D01*
X110850499Y-138500000D01*
X112344722Y-138500000D01*
X112363762Y-138656818D01*
X112410844Y-138780960D01*
X112419780Y-138804523D01*
X112509517Y-138934530D01*
X112627760Y-139039283D01*
X112627762Y-139039284D01*
X112767634Y-139112696D01*
X112921014Y-139150500D01*
X112921015Y-139150500D01*
X113078985Y-139150500D01*
X113232365Y-139112696D01*
X113240562Y-139108394D01*
X113372240Y-139039283D01*
X113490483Y-138934530D01*
X113580220Y-138804523D01*
X113636237Y-138656818D01*
X113655278Y-138500000D01*
X113652975Y-138481037D01*
X113639202Y-138367601D01*
X113650662Y-138298678D01*
X113697566Y-138246892D01*
X113765022Y-138228685D01*
X113831613Y-138249837D01*
X113844518Y-138259834D01*
X113869452Y-138281923D01*
X113877762Y-138289285D01*
X114017634Y-138362696D01*
X114171014Y-138400500D01*
X114171015Y-138400500D01*
X114328985Y-138400500D01*
X114482365Y-138362696D01*
X114547321Y-138328604D01*
X114622240Y-138289283D01*
X114740483Y-138184530D01*
X114830220Y-138054523D01*
X114886237Y-137906818D01*
X114905278Y-137750000D01*
X114886237Y-137593182D01*
X114830220Y-137445477D01*
X114740483Y-137315470D01*
X114622240Y-137210717D01*
X114622238Y-137210716D01*
X114622237Y-137210715D01*
X114482365Y-137137303D01*
X114328986Y-137099500D01*
X114328985Y-137099500D01*
X114171015Y-137099500D01*
X114171014Y-137099500D01*
X114017634Y-137137303D01*
X113877762Y-137210715D01*
X113759516Y-137315471D01*
X113669781Y-137445475D01*
X113669780Y-137445476D01*
X113613762Y-137593181D01*
X113594722Y-137749999D01*
X113594722Y-137750000D01*
X113610797Y-137882398D01*
X113599336Y-137951322D01*
X113552432Y-138003107D01*
X113484976Y-138021314D01*
X113418385Y-138000161D01*
X113405479Y-137990163D01*
X113372240Y-137960717D01*
X113372237Y-137960714D01*
X113232365Y-137887303D01*
X113078986Y-137849500D01*
X113078985Y-137849500D01*
X112921015Y-137849500D01*
X112921014Y-137849500D01*
X112767634Y-137887303D01*
X112627762Y-137960715D01*
X112509516Y-138065471D01*
X112419781Y-138195475D01*
X112419780Y-138195476D01*
X112363762Y-138343181D01*
X112344722Y-138499999D01*
X112344722Y-138500000D01*
X110850499Y-138500000D01*
X110850499Y-138054523D01*
X110850499Y-137366539D01*
X110870184Y-137299504D01*
X110886809Y-137278872D01*
X111028864Y-137136817D01*
X111090187Y-137103334D01*
X111116544Y-137100500D01*
X111506436Y-137100500D01*
X111573475Y-137120185D01*
X111608487Y-137154062D01*
X111629515Y-137184528D01*
X111629516Y-137184529D01*
X111629517Y-137184530D01*
X111747760Y-137289283D01*
X111747762Y-137289284D01*
X111887634Y-137362696D01*
X112041014Y-137400500D01*
X112041015Y-137400500D01*
X112198985Y-137400500D01*
X112352365Y-137362696D01*
X112352364Y-137362696D01*
X112492240Y-137289283D01*
X112610483Y-137184530D01*
X112700220Y-137054523D01*
X112756237Y-136906818D01*
X112775278Y-136750000D01*
X112756237Y-136593182D01*
X112700220Y-136445477D01*
X112610483Y-136315470D01*
X112492240Y-136210717D01*
X112492238Y-136210716D01*
X112492237Y-136210715D01*
X112352365Y-136137303D01*
X112198986Y-136099500D01*
X112198985Y-136099500D01*
X112041015Y-136099500D01*
X112041014Y-136099500D01*
X111887634Y-136137303D01*
X111747762Y-136210715D01*
X111629515Y-136315471D01*
X111608487Y-136345938D01*
X111554205Y-136389930D01*
X111506436Y-136399500D01*
X110969206Y-136399500D01*
X110943761Y-136396861D01*
X110934685Y-136394958D01*
X110934682Y-136394958D01*
X110902068Y-136399023D01*
X110894392Y-136399500D01*
X110890960Y-136399500D01*
X110876619Y-136401892D01*
X110869448Y-136403089D01*
X110852621Y-136405186D01*
X110818607Y-136409427D01*
X110818606Y-136409427D01*
X110818601Y-136409428D01*
X110811575Y-136411519D01*
X110804623Y-136413906D01*
X110759555Y-136438295D01*
X110713512Y-136460803D01*
X110707566Y-136465048D01*
X110701742Y-136469581D01*
X110667041Y-136507274D01*
X110667042Y-136507275D01*
X110383516Y-136790802D01*
X110337224Y-136837092D01*
X110286951Y-136887365D01*
X110267102Y-136903484D01*
X110259332Y-136908560D01*
X110259332Y-136908561D01*
X110239143Y-136934498D01*
X110234067Y-136940248D01*
X110231634Y-136942681D01*
X110231623Y-136942694D01*
X110218954Y-136960438D01*
X110187483Y-137000872D01*
X110183975Y-137007353D01*
X110180760Y-137013932D01*
X110166138Y-137063045D01*
X110149498Y-137111516D01*
X110148294Y-137118733D01*
X110147382Y-137126046D01*
X110149500Y-137177230D01*
X110149500Y-139313505D01*
X110129815Y-139380544D01*
X110113181Y-139401186D01*
X109370945Y-140143421D01*
X109312940Y-140176137D01*
X109267632Y-140187304D01*
X109127762Y-140260715D01*
X109009516Y-140365471D01*
X108919781Y-140495475D01*
X108919780Y-140495476D01*
X108863762Y-140643181D01*
X108844722Y-140799999D01*
X108844722Y-140800000D01*
X100000500Y-140800000D01*
X100000500Y-139200000D01*
X101144341Y-139200000D01*
X101164936Y-139435403D01*
X101164938Y-139435413D01*
X101226094Y-139663655D01*
X101226096Y-139663659D01*
X101226097Y-139663663D01*
X101252185Y-139719608D01*
X101325964Y-139877828D01*
X101325965Y-139877830D01*
X101461505Y-140071402D01*
X101628597Y-140238494D01*
X101822169Y-140374034D01*
X101822171Y-140374035D01*
X102036337Y-140473903D01*
X102264592Y-140535063D01*
X102441034Y-140550500D01*
X102558966Y-140550500D01*
X102735408Y-140535063D01*
X102963663Y-140473903D01*
X103177829Y-140374035D01*
X103371401Y-140238495D01*
X103538495Y-140071401D01*
X103674035Y-139877830D01*
X103773903Y-139663663D01*
X103817756Y-139500000D01*
X105344722Y-139500000D01*
X105363762Y-139656818D01*
X105407251Y-139771486D01*
X105419780Y-139804523D01*
X105509517Y-139934530D01*
X105627760Y-140039283D01*
X105627762Y-140039284D01*
X105767634Y-140112696D01*
X105921014Y-140150500D01*
X105921015Y-140150500D01*
X106078985Y-140150500D01*
X106232365Y-140112696D01*
X106311043Y-140071402D01*
X106372240Y-140039283D01*
X106490483Y-139934530D01*
X106580220Y-139804523D01*
X106636237Y-139656818D01*
X106655278Y-139500000D01*
X106636237Y-139343182D01*
X106609765Y-139273383D01*
X106604399Y-139203721D01*
X106637546Y-139142215D01*
X106698684Y-139108394D01*
X106759972Y-139112438D01*
X106760351Y-139110901D01*
X106921014Y-139150500D01*
X106921015Y-139150500D01*
X107078985Y-139150500D01*
X107232365Y-139112696D01*
X107240562Y-139108394D01*
X107372240Y-139039283D01*
X107490483Y-138934530D01*
X107580220Y-138804523D01*
X107636237Y-138656818D01*
X107655278Y-138500000D01*
X107652976Y-138481037D01*
X107636237Y-138343181D01*
X107592814Y-138228685D01*
X107580220Y-138195477D01*
X107490483Y-138065470D01*
X107372240Y-137960717D01*
X107372238Y-137960716D01*
X107372237Y-137960715D01*
X107232365Y-137887303D01*
X107078986Y-137849500D01*
X107078985Y-137849500D01*
X106921015Y-137849500D01*
X106921014Y-137849500D01*
X106808952Y-137877120D01*
X106739150Y-137874051D01*
X106682088Y-137833730D01*
X106655883Y-137768961D01*
X106655278Y-137756723D01*
X106655278Y-137749999D01*
X106636237Y-137593181D01*
X106614992Y-137537163D01*
X106580220Y-137445477D01*
X106490483Y-137315470D01*
X106372240Y-137210717D01*
X106372238Y-137210716D01*
X106372237Y-137210715D01*
X106232365Y-137137303D01*
X106078986Y-137099500D01*
X106078985Y-137099500D01*
X105921015Y-137099500D01*
X105921014Y-137099500D01*
X105767634Y-137137303D01*
X105627762Y-137210715D01*
X105509516Y-137315471D01*
X105419781Y-137445475D01*
X105419780Y-137445476D01*
X105363762Y-137593181D01*
X105344722Y-137749999D01*
X105344722Y-137750000D01*
X105363762Y-137906818D01*
X105408949Y-138025964D01*
X105419780Y-138054523D01*
X105509517Y-138184530D01*
X105627760Y-138289283D01*
X105627762Y-138289284D01*
X105767634Y-138362696D01*
X105921014Y-138400500D01*
X105921015Y-138400500D01*
X106078985Y-138400500D01*
X106191049Y-138372879D01*
X106260849Y-138375948D01*
X106317911Y-138416268D01*
X106344117Y-138481037D01*
X106344722Y-138493276D01*
X106344722Y-138500000D01*
X106363763Y-138656818D01*
X106390233Y-138726615D01*
X106395600Y-138796278D01*
X106362452Y-138857785D01*
X106301314Y-138891606D01*
X106240028Y-138887560D01*
X106239649Y-138889099D01*
X106078986Y-138849500D01*
X106078985Y-138849500D01*
X105921015Y-138849500D01*
X105921014Y-138849500D01*
X105767634Y-138887303D01*
X105627762Y-138960715D01*
X105509516Y-139065471D01*
X105419781Y-139195475D01*
X105419780Y-139195476D01*
X105363762Y-139343181D01*
X105344722Y-139499999D01*
X105344722Y-139500000D01*
X103817756Y-139500000D01*
X103835063Y-139435408D01*
X103855659Y-139200000D01*
X103835063Y-138964592D01*
X103773903Y-138736337D01*
X103674035Y-138522171D01*
X103674034Y-138522169D01*
X103538494Y-138328597D01*
X103371402Y-138161505D01*
X103177830Y-138025965D01*
X103177828Y-138025964D01*
X103037901Y-137960715D01*
X102963663Y-137926097D01*
X102963659Y-137926096D01*
X102963655Y-137926094D01*
X102735413Y-137864938D01*
X102735403Y-137864936D01*
X102558966Y-137849500D01*
X102441034Y-137849500D01*
X102264596Y-137864936D01*
X102264586Y-137864938D01*
X102036344Y-137926094D01*
X102036335Y-137926098D01*
X101822171Y-138025964D01*
X101822169Y-138025965D01*
X101628597Y-138161505D01*
X101461506Y-138328597D01*
X101461501Y-138328604D01*
X101325967Y-138522165D01*
X101325965Y-138522169D01*
X101226098Y-138736335D01*
X101226094Y-138736344D01*
X101164938Y-138964586D01*
X101164936Y-138964596D01*
X101144341Y-139199999D01*
X101144341Y-139200000D01*
X100000500Y-139200000D01*
X100000500Y-134375000D01*
X102919722Y-134375000D01*
X102938762Y-134531818D01*
X102992884Y-134674523D01*
X102994780Y-134679523D01*
X103084517Y-134809530D01*
X103202760Y-134914283D01*
X103202762Y-134914284D01*
X103342634Y-134987696D01*
X103496014Y-135025500D01*
X103496015Y-135025500D01*
X103653985Y-135025500D01*
X103807365Y-134987696D01*
X103816892Y-134982696D01*
X103947240Y-134914283D01*
X104065483Y-134809530D01*
X104155220Y-134679523D01*
X104211237Y-134531818D01*
X104230278Y-134375000D01*
X104229671Y-134370000D01*
X112924722Y-134370000D01*
X112943762Y-134526818D01*
X112999779Y-134674522D01*
X112999780Y-134674523D01*
X113089517Y-134804530D01*
X113207760Y-134909283D01*
X113219860Y-134915633D01*
X113347634Y-134982696D01*
X113501014Y-135020500D01*
X113501015Y-135020500D01*
X113658985Y-135020500D01*
X113812365Y-134982696D01*
X113812364Y-134982696D01*
X113952240Y-134909283D01*
X114070483Y-134804530D01*
X114160220Y-134674523D01*
X114216237Y-134526818D01*
X114235278Y-134370000D01*
X114216237Y-134213182D01*
X114160220Y-134065477D01*
X114070483Y-133935470D01*
X113952240Y-133830717D01*
X113952238Y-133830716D01*
X113952237Y-133830715D01*
X113812365Y-133757303D01*
X113658986Y-133719500D01*
X113658985Y-133719500D01*
X113501015Y-133719500D01*
X113501014Y-133719500D01*
X113347634Y-133757303D01*
X113207762Y-133830715D01*
X113089516Y-133935471D01*
X112999781Y-134065475D01*
X112999780Y-134065476D01*
X112943762Y-134213181D01*
X112924722Y-134369999D01*
X112924722Y-134370000D01*
X104229671Y-134370000D01*
X104211237Y-134218182D01*
X104209340Y-134213181D01*
X104189992Y-134162164D01*
X104155220Y-134070477D01*
X104065483Y-133940470D01*
X103947240Y-133835717D01*
X103947238Y-133835716D01*
X103947237Y-133835715D01*
X103807365Y-133762303D01*
X103653986Y-133724500D01*
X103653985Y-133724500D01*
X103496015Y-133724500D01*
X103496014Y-133724500D01*
X103342634Y-133762303D01*
X103202762Y-133835715D01*
X103084516Y-133940471D01*
X102994781Y-134070475D01*
X102994780Y-134070476D01*
X102938762Y-134218181D01*
X102919722Y-134374999D01*
X102919722Y-134375000D01*
X100000500Y-134375000D01*
X100000500Y-133125000D01*
X109919722Y-133125000D01*
X109938762Y-133281818D01*
X109994780Y-133429523D01*
X110084517Y-133559530D01*
X110202760Y-133664283D01*
X110202762Y-133664284D01*
X110342634Y-133737696D01*
X110496014Y-133775500D01*
X110496015Y-133775500D01*
X110653985Y-133775500D01*
X110807365Y-133737696D01*
X110807364Y-133737696D01*
X110947240Y-133664283D01*
X111065483Y-133559530D01*
X111155220Y-133429523D01*
X111211237Y-133281818D01*
X111230278Y-133125000D01*
X111211237Y-132968182D01*
X111155220Y-132820477D01*
X111065483Y-132690470D01*
X110947240Y-132585717D01*
X110947238Y-132585716D01*
X110947237Y-132585715D01*
X110807365Y-132512303D01*
X110653986Y-132474500D01*
X110653985Y-132474500D01*
X110496015Y-132474500D01*
X110496014Y-132474500D01*
X110342634Y-132512303D01*
X110202762Y-132585715D01*
X110084516Y-132690471D01*
X109994781Y-132820475D01*
X109994780Y-132820476D01*
X109938762Y-132968181D01*
X109919722Y-133124999D01*
X109919722Y-133125000D01*
X100000500Y-133125000D01*
X100000500Y-131125000D01*
X104419722Y-131125000D01*
X104438762Y-131281818D01*
X104453424Y-131320477D01*
X104494780Y-131429523D01*
X104584517Y-131559530D01*
X104702760Y-131664283D01*
X104702762Y-131664284D01*
X104842634Y-131737696D01*
X104996014Y-131775500D01*
X104996015Y-131775500D01*
X105153985Y-131775500D01*
X105307365Y-131737696D01*
X105307364Y-131737695D01*
X105447240Y-131664283D01*
X105491582Y-131625000D01*
X108669722Y-131625000D01*
X108688762Y-131781818D01*
X108744780Y-131929523D01*
X108834517Y-132059530D01*
X108952760Y-132164283D01*
X108952762Y-132164284D01*
X109092634Y-132237696D01*
X109246014Y-132275500D01*
X109246015Y-132275500D01*
X109403985Y-132275500D01*
X109557365Y-132237696D01*
X109557364Y-132237696D01*
X109697240Y-132164283D01*
X109815483Y-132059530D01*
X109905220Y-131929523D01*
X109961237Y-131781818D01*
X109980278Y-131625000D01*
X109961237Y-131468182D01*
X109905220Y-131320477D01*
X109815483Y-131190470D01*
X109697240Y-131085717D01*
X109697238Y-131085716D01*
X109697237Y-131085715D01*
X109557365Y-131012303D01*
X109403986Y-130974500D01*
X109403985Y-130974500D01*
X109246015Y-130974500D01*
X109246014Y-130974500D01*
X109092634Y-131012303D01*
X108952762Y-131085715D01*
X108834516Y-131190471D01*
X108744781Y-131320475D01*
X108744780Y-131320476D01*
X108688762Y-131468181D01*
X108669722Y-131624999D01*
X108669722Y-131625000D01*
X105491582Y-131625000D01*
X105565483Y-131559530D01*
X105655220Y-131429523D01*
X105711237Y-131281818D01*
X105730278Y-131125000D01*
X105711237Y-130968182D01*
X105655220Y-130820477D01*
X105568912Y-130695438D01*
X105547030Y-130629086D01*
X105564495Y-130561434D01*
X105568905Y-130554571D01*
X105597950Y-130512492D01*
X105652233Y-130468502D01*
X105721682Y-130460843D01*
X105784247Y-130491947D01*
X105802049Y-130512492D01*
X105834517Y-130559530D01*
X105952760Y-130664283D01*
X105952762Y-130664284D01*
X106092634Y-130737696D01*
X106246014Y-130775500D01*
X106246015Y-130775500D01*
X106403985Y-130775500D01*
X106557365Y-130737696D01*
X106557365Y-130737695D01*
X106697240Y-130664283D01*
X106815483Y-130559530D01*
X106905220Y-130429523D01*
X106961237Y-130281818D01*
X106980278Y-130125000D01*
X106961237Y-129968182D01*
X106905220Y-129820477D01*
X106815483Y-129690470D01*
X106697240Y-129585717D01*
X106697238Y-129585716D01*
X106697237Y-129585715D01*
X106557365Y-129512303D01*
X106403986Y-129474500D01*
X106403985Y-129474500D01*
X106246015Y-129474500D01*
X106246014Y-129474500D01*
X106092634Y-129512303D01*
X105952762Y-129585715D01*
X105834517Y-129690469D01*
X105802050Y-129737507D01*
X105747766Y-129781497D01*
X105678318Y-129789156D01*
X105615753Y-129758052D01*
X105597950Y-129737507D01*
X105565483Y-129690470D01*
X105447240Y-129585717D01*
X105447238Y-129585716D01*
X105447237Y-129585715D01*
X105307365Y-129512303D01*
X105153986Y-129474500D01*
X105153985Y-129474500D01*
X104996015Y-129474500D01*
X104996014Y-129474500D01*
X104842634Y-129512303D01*
X104702762Y-129585715D01*
X104584516Y-129690471D01*
X104494781Y-129820475D01*
X104494780Y-129820476D01*
X104438762Y-129968181D01*
X104419722Y-130124999D01*
X104419722Y-130125000D01*
X104438762Y-130281818D01*
X104494780Y-130429523D01*
X104494781Y-130429524D01*
X104581086Y-130554560D01*
X104602969Y-130620915D01*
X104585503Y-130688566D01*
X104581086Y-130695440D01*
X104494781Y-130820475D01*
X104494780Y-130820476D01*
X104438762Y-130968181D01*
X104419722Y-131124999D01*
X104419722Y-131125000D01*
X100000500Y-131125000D01*
X100000500Y-129474500D01*
X100000500Y-110174678D01*
X108449500Y-110174678D01*
X108464032Y-110247735D01*
X108464033Y-110247739D01*
X108464034Y-110247740D01*
X108519399Y-110330601D01*
X108602260Y-110385966D01*
X108612415Y-110392751D01*
X108611074Y-110394756D01*
X108652355Y-110428021D01*
X108674421Y-110494315D01*
X108674500Y-110498743D01*
X108674500Y-110660307D01*
X108666442Y-110704278D01*
X108613763Y-110843181D01*
X108594722Y-110999999D01*
X108594722Y-111000000D01*
X108613762Y-111156818D01*
X108669780Y-111304523D01*
X108759517Y-111434530D01*
X108877760Y-111539283D01*
X108877762Y-111539284D01*
X109017634Y-111612696D01*
X109171014Y-111650500D01*
X109171015Y-111650500D01*
X109328985Y-111650500D01*
X109482365Y-111612696D01*
X109482364Y-111612695D01*
X109622240Y-111539283D01*
X109740483Y-111434530D01*
X109830220Y-111304523D01*
X109886237Y-111156818D01*
X109905278Y-111000000D01*
X109886237Y-110843182D01*
X109830220Y-110695477D01*
X109740483Y-110565470D01*
X109705435Y-110534420D01*
X109668310Y-110475233D01*
X109669077Y-110405367D01*
X109707494Y-110347007D01*
X109718769Y-110338506D01*
X109730601Y-110330601D01*
X109785966Y-110247740D01*
X109800499Y-110174678D01*
X110199500Y-110174678D01*
X110214032Y-110247735D01*
X110214033Y-110247739D01*
X110214034Y-110247740D01*
X110269399Y-110330601D01*
X110352260Y-110385965D01*
X110352260Y-110385966D01*
X110352264Y-110385967D01*
X110425321Y-110400499D01*
X110425324Y-110400500D01*
X110425326Y-110400500D01*
X111324676Y-110400500D01*
X111324677Y-110400499D01*
X111397740Y-110385966D01*
X111480601Y-110330601D01*
X111535966Y-110247740D01*
X111550500Y-110174674D01*
X111550500Y-108525326D01*
X111550500Y-108525325D01*
X111550500Y-108525323D01*
X111550499Y-108525321D01*
X111535967Y-108452264D01*
X111535966Y-108452260D01*
X111535965Y-108452259D01*
X111480601Y-108369399D01*
X111397740Y-108314034D01*
X111397739Y-108314033D01*
X111397735Y-108314032D01*
X111324677Y-108299500D01*
X111324674Y-108299500D01*
X110425326Y-108299500D01*
X110425323Y-108299500D01*
X110352264Y-108314032D01*
X110352260Y-108314033D01*
X110269399Y-108369399D01*
X110214033Y-108452260D01*
X110214032Y-108452264D01*
X110199500Y-108525321D01*
X110199500Y-110174678D01*
X109800499Y-110174678D01*
X109800500Y-110174674D01*
X109800500Y-108525326D01*
X109800500Y-108525325D01*
X109800500Y-108525323D01*
X109800499Y-108525321D01*
X109785967Y-108452264D01*
X109785966Y-108452260D01*
X109785965Y-108452260D01*
X109730601Y-108369399D01*
X109647740Y-108314034D01*
X109647739Y-108314033D01*
X109647735Y-108314032D01*
X109574677Y-108299500D01*
X109574674Y-108299500D01*
X108675326Y-108299500D01*
X108675323Y-108299500D01*
X108602264Y-108314032D01*
X108602260Y-108314033D01*
X108519399Y-108369399D01*
X108464033Y-108452260D01*
X108464032Y-108452264D01*
X108449500Y-108525321D01*
X108449500Y-110174678D01*
X100000500Y-110174678D01*
X100000500Y-106674678D01*
X108449500Y-106674678D01*
X108464032Y-106747735D01*
X108464033Y-106747739D01*
X108464034Y-106747740D01*
X108519399Y-106830601D01*
X108601554Y-106885494D01*
X108602260Y-106885966D01*
X108602264Y-106885967D01*
X108675321Y-106900499D01*
X108675324Y-106900500D01*
X108675326Y-106900500D01*
X109574676Y-106900500D01*
X109574677Y-106900499D01*
X109647740Y-106885966D01*
X109730601Y-106830601D01*
X109785966Y-106747740D01*
X109800500Y-106674674D01*
X109800500Y-105975000D01*
X110200000Y-105975000D01*
X110200000Y-106674628D01*
X110214503Y-106747540D01*
X110214505Y-106747544D01*
X110269760Y-106830239D01*
X110352455Y-106885494D01*
X110352459Y-106885496D01*
X110425371Y-106899999D01*
X110425374Y-106900000D01*
X110750000Y-106900000D01*
X110750000Y-105975000D01*
X111000000Y-105975000D01*
X111000000Y-106900000D01*
X111324626Y-106900000D01*
X111324628Y-106899999D01*
X111397540Y-106885496D01*
X111397544Y-106885494D01*
X111480239Y-106830239D01*
X111535494Y-106747544D01*
X111535496Y-106747540D01*
X111549999Y-106674628D01*
X111550000Y-106674626D01*
X111550000Y-105975000D01*
X111000000Y-105975000D01*
X110750000Y-105975000D01*
X110200000Y-105975000D01*
X109800500Y-105975000D01*
X109800500Y-105725000D01*
X110200000Y-105725000D01*
X110750000Y-105725000D01*
X110750000Y-104800000D01*
X111000000Y-104800000D01*
X111000000Y-105725000D01*
X111550000Y-105725000D01*
X111550000Y-105025373D01*
X111549999Y-105025371D01*
X111535496Y-104952459D01*
X111535494Y-104952455D01*
X111480239Y-104869760D01*
X111397544Y-104814505D01*
X111397540Y-104814503D01*
X111324627Y-104800000D01*
X111000000Y-104800000D01*
X110750000Y-104800000D01*
X110425373Y-104800000D01*
X110352459Y-104814503D01*
X110352455Y-104814505D01*
X110269760Y-104869760D01*
X110214505Y-104952455D01*
X110214503Y-104952459D01*
X110200000Y-105025371D01*
X110200000Y-105725000D01*
X109800500Y-105725000D01*
X109800500Y-105025326D01*
X109800500Y-105025325D01*
X109800500Y-105025323D01*
X109800499Y-105025321D01*
X109785967Y-104952264D01*
X109785966Y-104952260D01*
X109785965Y-104952260D01*
X109730601Y-104869399D01*
X109647740Y-104814034D01*
X109647739Y-104814033D01*
X109647736Y-104814032D01*
X109575307Y-104799625D01*
X109513396Y-104767240D01*
X109478822Y-104706524D01*
X109475500Y-104678016D01*
X109475500Y-103671542D01*
X109495185Y-103604502D01*
X109511814Y-103583866D01*
X111088043Y-102007636D01*
X111107894Y-101991516D01*
X111115669Y-101986437D01*
X111135864Y-101960488D01*
X111140942Y-101954737D01*
X111143375Y-101952306D01*
X111156038Y-101934569D01*
X111187517Y-101894126D01*
X111187519Y-101894119D01*
X111191017Y-101887655D01*
X111194235Y-101881072D01*
X111194240Y-101881066D01*
X111208861Y-101831954D01*
X111225500Y-101783488D01*
X111225500Y-101783479D01*
X111226706Y-101776258D01*
X111227617Y-101768951D01*
X111225500Y-101717758D01*
X111225500Y-98771991D01*
X111245185Y-98704952D01*
X111297989Y-98659197D01*
X111325309Y-98650374D01*
X111397735Y-98635967D01*
X111397735Y-98635966D01*
X111397740Y-98635966D01*
X111480601Y-98580601D01*
X111535966Y-98497740D01*
X111550500Y-98424674D01*
X111550499Y-97166746D01*
X111570185Y-97099707D01*
X111622989Y-97053952D01*
X111692147Y-97044008D01*
X111704163Y-97046346D01*
X111721015Y-97050500D01*
X111721017Y-97050500D01*
X111878985Y-97050500D01*
X112032365Y-97012696D01*
X112049501Y-97003702D01*
X112172240Y-96939283D01*
X112290483Y-96834530D01*
X112380220Y-96704523D01*
X112436237Y-96556818D01*
X112455278Y-96400000D01*
X112436237Y-96243182D01*
X112435262Y-96240612D01*
X112413993Y-96184528D01*
X112380220Y-96095477D01*
X112290483Y-95965470D01*
X112172240Y-95860717D01*
X112172238Y-95860716D01*
X112172237Y-95860715D01*
X112032365Y-95787303D01*
X111878986Y-95749500D01*
X111878985Y-95749500D01*
X111721015Y-95749500D01*
X111721014Y-95749500D01*
X111567634Y-95787303D01*
X111427762Y-95860715D01*
X111309516Y-95965471D01*
X111219781Y-96095475D01*
X111219780Y-96095476D01*
X111163762Y-96243181D01*
X111152671Y-96334530D01*
X111144722Y-96400000D01*
X111146003Y-96410554D01*
X111134545Y-96479474D01*
X111087642Y-96531262D01*
X111022908Y-96549500D01*
X110425323Y-96549500D01*
X110352264Y-96564032D01*
X110352260Y-96564033D01*
X110269399Y-96619399D01*
X110214033Y-96702260D01*
X110214032Y-96702264D01*
X110199500Y-96775321D01*
X110199499Y-96775323D01*
X110199499Y-98371044D01*
X110179814Y-98438084D01*
X110127010Y-98483838D01*
X110057852Y-98493782D01*
X110039651Y-98489083D01*
X110039648Y-98489099D01*
X109894825Y-98453404D01*
X109834445Y-98418248D01*
X109802656Y-98356029D01*
X109800500Y-98333007D01*
X109800500Y-96775323D01*
X109800499Y-96775321D01*
X109785967Y-96702264D01*
X109785966Y-96702260D01*
X109785965Y-96702260D01*
X109730601Y-96619399D01*
X109647740Y-96564034D01*
X109647739Y-96564033D01*
X109647735Y-96564032D01*
X109574677Y-96549500D01*
X109574674Y-96549500D01*
X108675326Y-96549500D01*
X108675323Y-96549500D01*
X108602264Y-96564032D01*
X108602260Y-96564033D01*
X108519399Y-96619399D01*
X108464033Y-96702260D01*
X108464032Y-96702264D01*
X108449500Y-96775321D01*
X108449500Y-98424678D01*
X108464032Y-98497735D01*
X108464033Y-98497739D01*
X108464034Y-98497740D01*
X108519399Y-98580601D01*
X108602259Y-98635966D01*
X108602260Y-98635966D01*
X108602264Y-98635967D01*
X108675321Y-98650499D01*
X108675324Y-98650500D01*
X108675326Y-98650500D01*
X108803456Y-98650500D01*
X108870495Y-98670185D01*
X108891137Y-98686819D01*
X109119309Y-98914991D01*
X109152794Y-98976314D01*
X109154724Y-99017617D01*
X109144722Y-99099999D01*
X109144722Y-99100000D01*
X109163762Y-99256818D01*
X109219780Y-99404523D01*
X109309517Y-99534530D01*
X109427760Y-99639283D01*
X109427762Y-99639284D01*
X109567634Y-99712696D01*
X109721014Y-99750500D01*
X109721015Y-99750500D01*
X109878985Y-99750500D01*
X110032365Y-99712696D01*
X110032364Y-99712696D01*
X110172240Y-99639283D01*
X110290483Y-99534530D01*
X110298449Y-99522988D01*
X110352731Y-99478998D01*
X110422179Y-99471337D01*
X110484745Y-99502439D01*
X110520563Y-99562429D01*
X110524500Y-99593427D01*
X110524500Y-101528455D01*
X110504815Y-101595494D01*
X110488181Y-101616136D01*
X108911955Y-103192361D01*
X108892106Y-103208482D01*
X108884331Y-103213562D01*
X108864143Y-103239498D01*
X108859067Y-103245248D01*
X108856634Y-103247681D01*
X108856623Y-103247694D01*
X108843954Y-103265438D01*
X108812483Y-103305872D01*
X108808975Y-103312353D01*
X108805760Y-103318932D01*
X108791138Y-103368045D01*
X108774498Y-103416516D01*
X108773294Y-103423733D01*
X108772382Y-103431046D01*
X108774500Y-103482230D01*
X108774500Y-104678008D01*
X108754815Y-104745047D01*
X108702011Y-104790802D01*
X108674692Y-104799625D01*
X108602263Y-104814032D01*
X108602260Y-104814033D01*
X108519399Y-104869399D01*
X108464033Y-104952260D01*
X108464032Y-104952264D01*
X108449500Y-105025321D01*
X108449500Y-106674678D01*
X100000500Y-106674678D01*
X100000500Y-97774754D01*
X100000528Y-97774616D01*
X100000524Y-97774616D01*
X100000539Y-97750002D01*
X100000541Y-97750000D01*
X100000462Y-97749808D01*
X100000384Y-97749618D01*
X100000382Y-97749616D01*
X100000099Y-97749500D01*
X100000000Y-97749459D01*
X99975446Y-97749459D01*
X99975240Y-97749500D01*
X94624500Y-97749500D01*
X94557461Y-97729815D01*
X94511706Y-97677011D01*
X94500500Y-97625500D01*
X94500500Y-95800000D01*
X94844722Y-95800000D01*
X94863762Y-95956818D01*
X94916349Y-96095476D01*
X94919780Y-96104523D01*
X95009517Y-96234530D01*
X95127760Y-96339283D01*
X95127762Y-96339284D01*
X95267634Y-96412696D01*
X95421014Y-96450500D01*
X95421015Y-96450500D01*
X95578985Y-96450500D01*
X95732365Y-96412696D01*
X95756557Y-96399999D01*
X95872240Y-96339283D01*
X95990483Y-96234530D01*
X96080220Y-96104523D01*
X96136237Y-95956818D01*
X96155278Y-95800000D01*
X96153737Y-95787304D01*
X96149207Y-95750000D01*
X96769722Y-95750000D01*
X96788762Y-95906818D01*
X96825112Y-96002663D01*
X96844780Y-96054523D01*
X96934517Y-96184530D01*
X97052760Y-96289283D01*
X97052762Y-96289284D01*
X97192634Y-96362696D01*
X97346014Y-96400500D01*
X97346015Y-96400500D01*
X97503985Y-96400500D01*
X97657365Y-96362696D01*
X97711034Y-96334528D01*
X97797240Y-96289283D01*
X97915483Y-96184530D01*
X98005220Y-96054523D01*
X98061237Y-95906818D01*
X98080278Y-95750000D01*
X98519722Y-95750000D01*
X98538762Y-95906818D01*
X98575112Y-96002663D01*
X98594780Y-96054523D01*
X98684517Y-96184530D01*
X98802760Y-96289283D01*
X98802762Y-96289284D01*
X98942634Y-96362696D01*
X99096014Y-96400500D01*
X99096015Y-96400500D01*
X99253985Y-96400500D01*
X99407365Y-96362696D01*
X99461034Y-96334528D01*
X99547240Y-96289283D01*
X99665483Y-96184530D01*
X99755220Y-96054523D01*
X99811237Y-95906818D01*
X99830278Y-95750000D01*
X105344722Y-95750000D01*
X105363762Y-95906818D01*
X105400112Y-96002663D01*
X105419780Y-96054523D01*
X105509517Y-96184530D01*
X105627760Y-96289283D01*
X105627762Y-96289284D01*
X105767634Y-96362696D01*
X105921014Y-96400500D01*
X105921015Y-96400500D01*
X106078985Y-96400500D01*
X106232365Y-96362696D01*
X106286034Y-96334528D01*
X106372240Y-96289283D01*
X106490483Y-96184530D01*
X106580220Y-96054523D01*
X106636237Y-95906818D01*
X106637065Y-95900000D01*
X106944722Y-95900000D01*
X106963762Y-96056818D01*
X107012197Y-96184528D01*
X107019780Y-96204523D01*
X107109517Y-96334530D01*
X107227760Y-96439283D01*
X107227762Y-96439284D01*
X107367634Y-96512696D01*
X107521014Y-96550500D01*
X107521015Y-96550500D01*
X107678985Y-96550500D01*
X107832365Y-96512696D01*
X107895663Y-96479474D01*
X107972240Y-96439283D01*
X108090483Y-96334530D01*
X108180220Y-96204523D01*
X108236237Y-96056818D01*
X108255278Y-95900000D01*
X108236237Y-95743182D01*
X108180220Y-95595477D01*
X108090483Y-95465470D01*
X107972240Y-95360717D01*
X107972238Y-95360716D01*
X107972237Y-95360715D01*
X107856557Y-95300000D01*
X112244722Y-95300000D01*
X112263762Y-95456818D01*
X112316349Y-95595476D01*
X112319780Y-95604523D01*
X112409517Y-95734530D01*
X112527760Y-95839283D01*
X112527762Y-95839284D01*
X112667634Y-95912696D01*
X112821014Y-95950500D01*
X112821015Y-95950500D01*
X112978985Y-95950500D01*
X113132365Y-95912696D01*
X113231401Y-95860717D01*
X113272240Y-95839283D01*
X113390483Y-95734530D01*
X113480220Y-95604523D01*
X113519860Y-95500000D01*
X119744815Y-95500000D01*
X119763503Y-95677805D01*
X119763504Y-95677807D01*
X119818747Y-95847829D01*
X119818750Y-95847835D01*
X119908141Y-96002665D01*
X119949812Y-96048946D01*
X120027764Y-96135521D01*
X120027767Y-96135523D01*
X120027770Y-96135526D01*
X120172407Y-96240612D01*
X120335733Y-96313329D01*
X120510609Y-96350500D01*
X120510610Y-96350500D01*
X120689389Y-96350500D01*
X120689391Y-96350500D01*
X120864267Y-96313329D01*
X121027593Y-96240612D01*
X121172230Y-96135526D01*
X121291859Y-96002665D01*
X121381250Y-95847835D01*
X121436497Y-95677803D01*
X121455185Y-95500000D01*
X121436497Y-95322197D01*
X121400274Y-95210715D01*
X121381252Y-95152170D01*
X121381249Y-95152164D01*
X121291859Y-94997335D01*
X121226438Y-94924678D01*
X121172235Y-94864478D01*
X121172232Y-94864476D01*
X121172231Y-94864475D01*
X121172230Y-94864474D01*
X121027593Y-94759388D01*
X120864267Y-94686671D01*
X120864265Y-94686670D01*
X120736594Y-94659533D01*
X120689391Y-94649500D01*
X120510609Y-94649500D01*
X120479954Y-94656015D01*
X120335733Y-94686670D01*
X120335728Y-94686672D01*
X120172408Y-94759387D01*
X120027768Y-94864475D01*
X119908140Y-94997336D01*
X119818750Y-95152164D01*
X119818747Y-95152170D01*
X119763504Y-95322192D01*
X119763503Y-95322194D01*
X119744815Y-95500000D01*
X113519860Y-95500000D01*
X113536237Y-95456818D01*
X113555278Y-95300000D01*
X113553737Y-95287304D01*
X113536237Y-95143181D01*
X113512366Y-95080239D01*
X113480220Y-94995477D01*
X113390483Y-94865470D01*
X113272240Y-94760717D01*
X113272238Y-94760716D01*
X113272237Y-94760715D01*
X113132365Y-94687303D01*
X112978986Y-94649500D01*
X112978985Y-94649500D01*
X112821015Y-94649500D01*
X112821014Y-94649500D01*
X112667634Y-94687303D01*
X112527762Y-94760715D01*
X112409516Y-94865471D01*
X112319781Y-94995475D01*
X112319780Y-94995476D01*
X112263762Y-95143181D01*
X112244722Y-95299999D01*
X112244722Y-95300000D01*
X107856557Y-95300000D01*
X107832365Y-95287303D01*
X107678986Y-95249500D01*
X107678985Y-95249500D01*
X107521015Y-95249500D01*
X107521014Y-95249500D01*
X107367634Y-95287303D01*
X107227762Y-95360715D01*
X107109516Y-95465471D01*
X107019781Y-95595475D01*
X107019780Y-95595476D01*
X106963762Y-95743181D01*
X106944722Y-95899999D01*
X106944722Y-95900000D01*
X106637065Y-95900000D01*
X106655278Y-95750000D01*
X106636516Y-95595475D01*
X106636237Y-95593181D01*
X106599182Y-95495476D01*
X106580220Y-95445477D01*
X106490483Y-95315470D01*
X106372240Y-95210717D01*
X106372238Y-95210716D01*
X106372237Y-95210715D01*
X106232365Y-95137303D01*
X106078986Y-95099500D01*
X106078985Y-95099500D01*
X105921015Y-95099500D01*
X105921014Y-95099500D01*
X105767634Y-95137303D01*
X105627762Y-95210715D01*
X105509516Y-95315471D01*
X105419781Y-95445475D01*
X105419780Y-95445476D01*
X105363762Y-95593181D01*
X105344722Y-95749999D01*
X105344722Y-95750000D01*
X99830278Y-95750000D01*
X99811516Y-95595475D01*
X99811237Y-95593181D01*
X99774182Y-95495476D01*
X99755220Y-95445477D01*
X99665483Y-95315470D01*
X99547240Y-95210717D01*
X99547238Y-95210716D01*
X99547237Y-95210715D01*
X99407365Y-95137303D01*
X99253986Y-95099500D01*
X99253985Y-95099500D01*
X99096015Y-95099500D01*
X99096014Y-95099500D01*
X98942634Y-95137303D01*
X98802762Y-95210715D01*
X98684516Y-95315471D01*
X98594781Y-95445475D01*
X98594780Y-95445476D01*
X98538762Y-95593181D01*
X98519722Y-95749999D01*
X98519722Y-95750000D01*
X98080278Y-95750000D01*
X98061516Y-95595475D01*
X98061237Y-95593181D01*
X98024182Y-95495476D01*
X98005220Y-95445477D01*
X97915483Y-95315470D01*
X97797240Y-95210717D01*
X97797238Y-95210716D01*
X97797237Y-95210715D01*
X97657365Y-95137303D01*
X97503986Y-95099500D01*
X97503985Y-95099500D01*
X97346015Y-95099500D01*
X97346014Y-95099500D01*
X97192634Y-95137303D01*
X97052762Y-95210715D01*
X96934516Y-95315471D01*
X96844781Y-95445475D01*
X96844780Y-95445476D01*
X96788762Y-95593181D01*
X96769722Y-95749999D01*
X96769722Y-95750000D01*
X96149207Y-95750000D01*
X96136237Y-95643181D01*
X96081935Y-95500000D01*
X96080220Y-95495477D01*
X95990483Y-95365470D01*
X95872240Y-95260717D01*
X95872238Y-95260716D01*
X95872237Y-95260715D01*
X95732365Y-95187303D01*
X95578986Y-95149500D01*
X95578985Y-95149500D01*
X95421015Y-95149500D01*
X95421014Y-95149500D01*
X95267634Y-95187303D01*
X95127762Y-95260715D01*
X95009516Y-95365471D01*
X94919781Y-95495475D01*
X94919780Y-95495476D01*
X94863762Y-95643181D01*
X94844722Y-95799999D01*
X94844722Y-95800000D01*
X94500500Y-95800000D01*
X94500500Y-93804619D01*
X105329803Y-93804619D01*
X105348843Y-93961437D01*
X105385017Y-94056818D01*
X105404861Y-94109142D01*
X105494598Y-94239149D01*
X105612841Y-94343902D01*
X105612843Y-94343903D01*
X105752715Y-94417315D01*
X105906095Y-94455119D01*
X105906096Y-94455119D01*
X106064066Y-94455119D01*
X106217446Y-94417315D01*
X106217445Y-94417314D01*
X106357321Y-94343902D01*
X106475564Y-94239149D01*
X106565301Y-94109142D01*
X106621318Y-93961437D01*
X106640359Y-93804619D01*
X106621318Y-93647801D01*
X106565301Y-93500096D01*
X106475564Y-93370089D01*
X106357321Y-93265336D01*
X106357319Y-93265335D01*
X106357318Y-93265334D01*
X106217446Y-93191922D01*
X106064067Y-93154119D01*
X106064066Y-93154119D01*
X105906096Y-93154119D01*
X105906095Y-93154119D01*
X105752715Y-93191922D01*
X105612843Y-93265334D01*
X105494597Y-93370090D01*
X105404862Y-93500094D01*
X105404861Y-93500095D01*
X105348843Y-93647800D01*
X105329803Y-93804618D01*
X105329803Y-93804619D01*
X94500500Y-93804619D01*
X94500500Y-90833250D01*
X94520185Y-90766211D01*
X94572989Y-90720456D01*
X94642147Y-90710512D01*
X94705703Y-90739537D01*
X94708456Y-90741996D01*
X94734760Y-90766211D01*
X94739971Y-90771008D01*
X95260430Y-91291468D01*
X95293915Y-91352791D01*
X95288931Y-91422483D01*
X95247059Y-91478416D01*
X95230376Y-91488945D01*
X95165462Y-91523015D01*
X95165460Y-91523016D01*
X95165461Y-91523016D01*
X95054103Y-91621670D01*
X95047217Y-91627770D01*
X94957482Y-91757774D01*
X94957481Y-91757775D01*
X94901463Y-91905480D01*
X94882423Y-92062298D01*
X94882423Y-92062299D01*
X94901463Y-92219117D01*
X94941853Y-92325614D01*
X94957481Y-92366822D01*
X95047218Y-92496829D01*
X95165461Y-92601582D01*
X95165463Y-92601583D01*
X95305335Y-92674995D01*
X95458715Y-92712799D01*
X95458716Y-92712799D01*
X95616686Y-92712799D01*
X95770066Y-92674995D01*
X95770065Y-92674994D01*
X95909941Y-92601582D01*
X96028184Y-92496829D01*
X96117921Y-92366822D01*
X96173938Y-92219117D01*
X96176598Y-92212104D01*
X96177957Y-92212619D01*
X96208926Y-92159439D01*
X96271147Y-92127654D01*
X96294161Y-92125500D01*
X99403692Y-92125500D01*
X99470731Y-92145185D01*
X99505742Y-92179061D01*
X99508163Y-92182569D01*
X99509515Y-92184528D01*
X99509517Y-92184530D01*
X99627760Y-92289283D01*
X99627762Y-92289284D01*
X99767634Y-92362696D01*
X99921014Y-92400500D01*
X99921015Y-92400500D01*
X100078985Y-92400500D01*
X100232365Y-92362696D01*
X100296494Y-92329038D01*
X100372240Y-92289283D01*
X100376717Y-92285317D01*
X106244957Y-92285317D01*
X106249023Y-92317937D01*
X106249500Y-92325614D01*
X106249500Y-92329038D01*
X106253087Y-92350541D01*
X106259427Y-92401393D01*
X106261520Y-92408426D01*
X106263908Y-92415381D01*
X106288295Y-92460444D01*
X106310801Y-92506483D01*
X106315065Y-92512455D01*
X106319580Y-92518256D01*
X106357275Y-92552958D01*
X108267362Y-94463044D01*
X108283489Y-94482902D01*
X108288563Y-94490669D01*
X108288565Y-94490671D01*
X108314505Y-94510860D01*
X108320268Y-94515950D01*
X108322693Y-94518375D01*
X108322695Y-94518377D01*
X108340437Y-94531044D01*
X108380874Y-94562517D01*
X108384511Y-94564485D01*
X108388540Y-94568483D01*
X108388984Y-94568829D01*
X108388942Y-94568882D01*
X108434104Y-94613701D01*
X108449500Y-94673543D01*
X108449500Y-94924678D01*
X108464032Y-94997735D01*
X108464033Y-94997739D01*
X108464034Y-94997740D01*
X108519399Y-95080601D01*
X108601554Y-95135494D01*
X108602260Y-95135966D01*
X108602264Y-95135967D01*
X108675321Y-95150499D01*
X108675324Y-95150500D01*
X108675326Y-95150500D01*
X109574676Y-95150500D01*
X109574677Y-95150499D01*
X109647740Y-95135966D01*
X109730601Y-95080601D01*
X109785966Y-94997740D01*
X109800500Y-94924674D01*
X109800500Y-94225000D01*
X110200000Y-94225000D01*
X110200000Y-94924628D01*
X110214503Y-94997540D01*
X110214505Y-94997544D01*
X110269760Y-95080239D01*
X110352455Y-95135494D01*
X110352459Y-95135496D01*
X110425371Y-95149999D01*
X110425374Y-95150000D01*
X110750000Y-95150000D01*
X110750000Y-94225000D01*
X111000000Y-94225000D01*
X111000000Y-95150000D01*
X111324626Y-95150000D01*
X111324628Y-95149999D01*
X111397540Y-95135496D01*
X111397544Y-95135494D01*
X111480239Y-95080239D01*
X111535494Y-94997544D01*
X111535496Y-94997540D01*
X111549999Y-94924628D01*
X111550000Y-94924626D01*
X111550000Y-94600000D01*
X115744721Y-94600000D01*
X115763762Y-94756818D01*
X115819780Y-94904523D01*
X115909517Y-95034530D01*
X116027760Y-95139283D01*
X116027762Y-95139284D01*
X116167634Y-95212696D01*
X116321014Y-95250500D01*
X116321015Y-95250500D01*
X116478985Y-95250500D01*
X116632365Y-95212696D01*
X116636139Y-95210715D01*
X116772240Y-95139283D01*
X116890483Y-95034530D01*
X116980220Y-94904523D01*
X117036237Y-94756818D01*
X117050425Y-94639962D01*
X117078046Y-94575786D01*
X117135980Y-94536729D01*
X117143839Y-94534515D01*
X117232365Y-94512696D01*
X117372240Y-94439283D01*
X117490483Y-94334530D01*
X117580220Y-94204523D01*
X117636237Y-94056818D01*
X117655278Y-93900000D01*
X117636237Y-93743182D01*
X117636236Y-93743180D01*
X117600063Y-93647800D01*
X117580220Y-93595477D01*
X117490483Y-93465470D01*
X117372240Y-93360717D01*
X117372238Y-93360716D01*
X117372237Y-93360715D01*
X117232365Y-93287303D01*
X117078986Y-93249500D01*
X117078985Y-93249500D01*
X116921015Y-93249500D01*
X116921014Y-93249500D01*
X116767634Y-93287303D01*
X116627762Y-93360715D01*
X116509516Y-93465471D01*
X116419781Y-93595475D01*
X116419780Y-93595476D01*
X116363763Y-93743180D01*
X116349574Y-93860036D01*
X116321952Y-93924214D01*
X116264018Y-93963270D01*
X116256153Y-93965486D01*
X116167633Y-93987304D01*
X116027762Y-94060715D01*
X115909516Y-94165471D01*
X115819781Y-94295475D01*
X115819780Y-94295476D01*
X115763762Y-94443181D01*
X115744721Y-94599999D01*
X115744721Y-94600000D01*
X111550000Y-94600000D01*
X111550000Y-94225000D01*
X111000000Y-94225000D01*
X110750000Y-94225000D01*
X110200000Y-94225000D01*
X109800500Y-94225000D01*
X109800500Y-93975000D01*
X110200000Y-93975000D01*
X110750000Y-93975000D01*
X110750000Y-93050000D01*
X111000000Y-93050000D01*
X111000000Y-93975000D01*
X111550000Y-93975000D01*
X111550000Y-93275373D01*
X111549999Y-93275371D01*
X111535496Y-93202459D01*
X111535494Y-93202455D01*
X111480239Y-93119760D01*
X111397544Y-93064505D01*
X111397540Y-93064503D01*
X111324627Y-93050000D01*
X111000000Y-93050000D01*
X110750000Y-93050000D01*
X110425373Y-93050000D01*
X110352459Y-93064503D01*
X110352455Y-93064505D01*
X110269760Y-93119760D01*
X110214505Y-93202455D01*
X110214503Y-93202459D01*
X110200000Y-93275371D01*
X110200000Y-93975000D01*
X109800500Y-93975000D01*
X109800500Y-93275326D01*
X109800500Y-93275325D01*
X109800500Y-93275323D01*
X109800499Y-93275321D01*
X109785967Y-93202264D01*
X109785966Y-93202260D01*
X109779058Y-93191922D01*
X109730601Y-93119399D01*
X109647740Y-93064034D01*
X109647739Y-93064033D01*
X109647735Y-93064032D01*
X109574677Y-93049500D01*
X109574674Y-93049500D01*
X108675326Y-93049500D01*
X108675323Y-93049500D01*
X108602264Y-93064032D01*
X108602260Y-93064033D01*
X108519399Y-93119399D01*
X108464033Y-93202260D01*
X108464032Y-93202264D01*
X108449500Y-93275321D01*
X108449500Y-93354456D01*
X108429815Y-93421495D01*
X108377011Y-93467250D01*
X108307853Y-93477194D01*
X108244297Y-93448169D01*
X108237819Y-93442137D01*
X106986819Y-92191137D01*
X106953334Y-92129814D01*
X106950500Y-92103456D01*
X106950500Y-92056200D01*
X108894723Y-92056200D01*
X108913763Y-92213018D01*
X108956466Y-92325614D01*
X108969781Y-92360723D01*
X109059518Y-92490730D01*
X109177761Y-92595483D01*
X109177763Y-92595484D01*
X109317635Y-92668896D01*
X109471015Y-92706700D01*
X109471016Y-92706700D01*
X109628986Y-92706700D01*
X109782366Y-92668896D01*
X109782365Y-92668895D01*
X109922241Y-92595483D01*
X110040484Y-92490730D01*
X110103110Y-92400000D01*
X111994222Y-92400000D01*
X112013262Y-92556818D01*
X112069280Y-92704522D01*
X112069280Y-92704523D01*
X112159017Y-92834530D01*
X112277260Y-92939283D01*
X112277262Y-92939284D01*
X112417134Y-93012696D01*
X112570514Y-93050500D01*
X112570515Y-93050500D01*
X112728485Y-93050500D01*
X112881865Y-93012696D01*
X112881864Y-93012696D01*
X113021740Y-92939283D01*
X113139983Y-92834530D01*
X113229720Y-92704523D01*
X113285737Y-92556818D01*
X113304778Y-92400000D01*
X113300750Y-92366822D01*
X113285737Y-92243181D01*
X113261420Y-92179063D01*
X113229720Y-92095477D01*
X113139983Y-91965470D01*
X113021740Y-91860717D01*
X113021738Y-91860716D01*
X113021737Y-91860715D01*
X112881865Y-91787303D01*
X112728486Y-91749500D01*
X112728485Y-91749500D01*
X112570515Y-91749500D01*
X112570514Y-91749500D01*
X112417134Y-91787303D01*
X112277262Y-91860715D01*
X112159016Y-91965471D01*
X112069281Y-92095475D01*
X112069280Y-92095476D01*
X112013262Y-92243181D01*
X111994222Y-92399999D01*
X111994222Y-92400000D01*
X110103110Y-92400000D01*
X110130221Y-92360723D01*
X110186238Y-92213018D01*
X110205279Y-92056200D01*
X110205076Y-92054524D01*
X110186238Y-91899381D01*
X110145749Y-91792621D01*
X110130221Y-91751677D01*
X110040484Y-91621670D01*
X109922241Y-91516917D01*
X109922239Y-91516916D01*
X109922238Y-91516915D01*
X109782366Y-91443503D01*
X109628987Y-91405700D01*
X109628986Y-91405700D01*
X109471016Y-91405700D01*
X109471015Y-91405700D01*
X109317635Y-91443503D01*
X109177763Y-91516915D01*
X109059517Y-91621671D01*
X108969782Y-91751675D01*
X108969781Y-91751676D01*
X108913763Y-91899381D01*
X108894723Y-92056199D01*
X108894723Y-92056200D01*
X106950500Y-92056200D01*
X106950500Y-90571135D01*
X106970185Y-90504096D01*
X107022989Y-90458341D01*
X107092147Y-90448397D01*
X107155703Y-90477422D01*
X107190441Y-90527162D01*
X107219780Y-90604523D01*
X107309517Y-90734530D01*
X107427760Y-90839283D01*
X107427762Y-90839284D01*
X107567634Y-90912696D01*
X107721014Y-90950500D01*
X107721015Y-90950500D01*
X107878985Y-90950500D01*
X108032365Y-90912696D01*
X108032364Y-90912696D01*
X108172240Y-90839283D01*
X108290483Y-90734530D01*
X108311513Y-90704061D01*
X108365795Y-90660070D01*
X108413564Y-90650500D01*
X112651289Y-90650500D01*
X112676734Y-90653138D01*
X112685815Y-90655043D01*
X112701505Y-90653087D01*
X112718439Y-90650977D01*
X112726115Y-90650500D01*
X112729535Y-90650500D01*
X112729540Y-90650500D01*
X112733108Y-90649904D01*
X112751039Y-90646913D01*
X112778458Y-90643494D01*
X112801893Y-90640573D01*
X112801902Y-90640568D01*
X112808951Y-90638470D01*
X112815877Y-90636092D01*
X112815881Y-90636092D01*
X112860944Y-90611704D01*
X112906984Y-90589198D01*
X112906987Y-90589194D01*
X112912877Y-90584988D01*
X112912935Y-90584944D01*
X112913006Y-90584893D01*
X112918756Y-90580419D01*
X112918758Y-90580418D01*
X112918759Y-90580416D01*
X112923613Y-90576640D01*
X112988609Y-90551003D01*
X112999766Y-90550500D01*
X113686436Y-90550500D01*
X113753475Y-90570185D01*
X113788487Y-90604062D01*
X113809515Y-90634528D01*
X113809516Y-90634529D01*
X113809517Y-90634530D01*
X113927760Y-90739283D01*
X113927762Y-90739284D01*
X114067634Y-90812696D01*
X114221014Y-90850500D01*
X114221015Y-90850500D01*
X114378985Y-90850500D01*
X114532365Y-90812696D01*
X114540474Y-90808440D01*
X114672240Y-90739283D01*
X114790483Y-90634530D01*
X114880220Y-90504523D01*
X114936237Y-90356818D01*
X114955278Y-90200000D01*
X114941642Y-90087692D01*
X114936237Y-90043181D01*
X114900708Y-89949500D01*
X114880220Y-89895477D01*
X114790483Y-89765470D01*
X114672240Y-89660717D01*
X114672238Y-89660716D01*
X114672237Y-89660715D01*
X114532365Y-89587303D01*
X114378986Y-89549500D01*
X114378985Y-89549500D01*
X114221015Y-89549500D01*
X114221014Y-89549500D01*
X114067634Y-89587303D01*
X113927762Y-89660715D01*
X113809515Y-89765471D01*
X113788487Y-89795938D01*
X113734205Y-89839930D01*
X113686436Y-89849500D01*
X112849706Y-89849500D01*
X112824261Y-89846861D01*
X112815185Y-89844958D01*
X112815182Y-89844958D01*
X112782568Y-89849023D01*
X112774892Y-89849500D01*
X112771460Y-89849500D01*
X112757119Y-89851892D01*
X112749948Y-89853089D01*
X112733121Y-89855186D01*
X112699107Y-89859427D01*
X112699106Y-89859427D01*
X112699101Y-89859428D01*
X112692075Y-89861519D01*
X112685123Y-89863906D01*
X112685119Y-89863907D01*
X112685119Y-89863908D01*
X112640054Y-89888294D01*
X112640055Y-89888295D01*
X112594012Y-89910803D01*
X112588060Y-89915052D01*
X112577405Y-89923347D01*
X112512413Y-89948995D01*
X112501235Y-89949500D01*
X108561915Y-89949500D01*
X108494876Y-89929815D01*
X108449121Y-89877011D01*
X108439177Y-89807853D01*
X108468202Y-89744297D01*
X108479682Y-89732689D01*
X108590483Y-89634530D01*
X108680220Y-89504523D01*
X108736237Y-89356818D01*
X108755278Y-89200000D01*
X108751086Y-89165471D01*
X108736237Y-89043181D01*
X108711214Y-88977201D01*
X108680220Y-88895477D01*
X108590483Y-88765470D01*
X108472240Y-88660717D01*
X108472238Y-88660716D01*
X108472237Y-88660715D01*
X108332365Y-88587303D01*
X108178986Y-88549500D01*
X108178985Y-88549500D01*
X108021015Y-88549500D01*
X108021014Y-88549500D01*
X107867634Y-88587303D01*
X107727762Y-88660715D01*
X107609516Y-88765471D01*
X107519781Y-88895475D01*
X107519780Y-88895476D01*
X107463762Y-89043181D01*
X107444722Y-89199999D01*
X107444722Y-89200000D01*
X107463762Y-89356818D01*
X107515712Y-89493796D01*
X107519780Y-89504523D01*
X107541446Y-89535912D01*
X107545609Y-89541943D01*
X107567492Y-89608298D01*
X107550027Y-89675949D01*
X107501186Y-89722179D01*
X107427761Y-89760716D01*
X107427759Y-89760717D01*
X107427760Y-89760717D01*
X107311283Y-89863906D01*
X107309516Y-89865471D01*
X107219781Y-89995475D01*
X107219780Y-89995476D01*
X107190442Y-90072835D01*
X107148264Y-90128538D01*
X107082666Y-90152595D01*
X107014476Y-90137368D01*
X106965343Y-90087692D01*
X106950500Y-90028864D01*
X106950500Y-89096543D01*
X106970185Y-89029504D01*
X106986814Y-89008867D01*
X108508863Y-87486818D01*
X108570186Y-87453334D01*
X108596544Y-87450500D01*
X109725789Y-87450500D01*
X109751234Y-87453138D01*
X109760315Y-87455043D01*
X109776005Y-87453087D01*
X109792939Y-87450977D01*
X109800615Y-87450500D01*
X109804035Y-87450500D01*
X109804040Y-87450500D01*
X109807608Y-87449904D01*
X109825539Y-87446913D01*
X109852958Y-87443494D01*
X109876393Y-87440573D01*
X109876402Y-87440568D01*
X109883451Y-87438470D01*
X109890377Y-87436092D01*
X109890381Y-87436092D01*
X109935444Y-87411704D01*
X109981484Y-87389198D01*
X109981487Y-87389194D01*
X109987453Y-87384935D01*
X109993254Y-87380419D01*
X109993258Y-87380418D01*
X110027957Y-87342724D01*
X110483862Y-86886819D01*
X110545186Y-86853334D01*
X110571544Y-86850500D01*
X110947538Y-86850500D01*
X111014577Y-86870185D01*
X111060332Y-86922989D01*
X111070276Y-86992147D01*
X111041251Y-87055703D01*
X110994990Y-87089061D01*
X110922377Y-87119137D01*
X110807379Y-87207379D01*
X110719137Y-87322377D01*
X110663671Y-87456287D01*
X110663670Y-87456291D01*
X110644750Y-87599999D01*
X110644750Y-87600000D01*
X110663670Y-87743708D01*
X110663671Y-87743712D01*
X110719137Y-87877622D01*
X110719138Y-87877624D01*
X110719139Y-87877625D01*
X110807379Y-87992621D01*
X110922375Y-88080861D01*
X111056291Y-88136330D01*
X111183280Y-88153048D01*
X111199999Y-88155250D01*
X111200000Y-88155250D01*
X111200001Y-88155250D01*
X111214977Y-88153278D01*
X111343709Y-88136330D01*
X111477625Y-88080861D01*
X111592621Y-87992621D01*
X111592623Y-87992617D01*
X111592627Y-87992615D01*
X111598372Y-87986871D01*
X111600888Y-87989387D01*
X111644183Y-87957797D01*
X111686092Y-87950500D01*
X116603456Y-87950500D01*
X116670495Y-87970185D01*
X116691137Y-87986819D01*
X120008440Y-91304122D01*
X120041925Y-91365445D01*
X120043067Y-91391873D01*
X120044750Y-91391873D01*
X120044749Y-91400000D01*
X120063670Y-91543708D01*
X120063671Y-91543712D01*
X120119137Y-91677622D01*
X120119138Y-91677624D01*
X120119139Y-91677625D01*
X120207379Y-91792621D01*
X120322375Y-91880861D01*
X120456291Y-91936330D01*
X120583280Y-91953048D01*
X120599999Y-91955250D01*
X120600000Y-91955250D01*
X120600001Y-91955250D01*
X120614977Y-91953278D01*
X120743709Y-91936330D01*
X120877625Y-91880861D01*
X120992621Y-91792621D01*
X121080861Y-91677625D01*
X121136330Y-91543709D01*
X121155250Y-91400000D01*
X121136330Y-91256291D01*
X121080861Y-91122375D01*
X120992621Y-91007379D01*
X120877625Y-90919139D01*
X120877624Y-90919138D01*
X120877622Y-90919137D01*
X120743712Y-90863671D01*
X120743710Y-90863670D01*
X120743709Y-90863670D01*
X120643675Y-90850500D01*
X120600001Y-90844750D01*
X120591873Y-90844750D01*
X120591873Y-90841243D01*
X120538613Y-90832772D01*
X120504122Y-90808440D01*
X117082637Y-87386955D01*
X117066511Y-87367098D01*
X117061437Y-87359331D01*
X117035487Y-87339133D01*
X117029741Y-87334059D01*
X117027307Y-87331625D01*
X117027306Y-87331624D01*
X117027305Y-87331623D01*
X117020848Y-87327013D01*
X117009561Y-87318955D01*
X116969126Y-87287483D01*
X116969122Y-87287481D01*
X116962648Y-87283977D01*
X116956069Y-87280760D01*
X116906954Y-87266138D01*
X116858486Y-87249498D01*
X116851269Y-87248294D01*
X116843953Y-87247382D01*
X116794725Y-87249419D01*
X116792769Y-87249500D01*
X111686092Y-87249500D01*
X111619053Y-87229815D01*
X111599587Y-87211913D01*
X111598372Y-87213129D01*
X111592627Y-87207384D01*
X111592621Y-87207379D01*
X111477625Y-87119139D01*
X111477624Y-87119138D01*
X111477622Y-87119137D01*
X111367514Y-87073530D01*
X111313110Y-87029690D01*
X111291045Y-86963396D01*
X111308324Y-86895696D01*
X111359461Y-86848085D01*
X111390774Y-86837351D01*
X111397740Y-86835966D01*
X111480601Y-86780601D01*
X111535966Y-86697740D01*
X111550500Y-86624674D01*
X111550500Y-84975326D01*
X111550500Y-84975323D01*
X111550499Y-84975321D01*
X111535967Y-84902264D01*
X111535966Y-84902260D01*
X111529024Y-84891871D01*
X111480601Y-84819399D01*
X111397740Y-84764034D01*
X111397739Y-84764033D01*
X111397735Y-84764032D01*
X111324677Y-84749500D01*
X111324674Y-84749500D01*
X110425326Y-84749500D01*
X110425323Y-84749500D01*
X110352264Y-84764032D01*
X110352260Y-84764033D01*
X110269399Y-84819399D01*
X110214033Y-84902260D01*
X110214032Y-84902264D01*
X110199500Y-84975321D01*
X110199500Y-86128455D01*
X110179815Y-86195494D01*
X110163181Y-86216136D01*
X110012181Y-86367136D01*
X109950858Y-86400621D01*
X109881166Y-86395637D01*
X109825233Y-86353765D01*
X109800816Y-86288301D01*
X109800500Y-86279455D01*
X109800500Y-84975323D01*
X109800499Y-84975321D01*
X109785967Y-84902264D01*
X109785966Y-84902260D01*
X109779024Y-84891871D01*
X109730601Y-84819399D01*
X109647740Y-84764034D01*
X109647739Y-84764033D01*
X109647735Y-84764032D01*
X109574677Y-84749500D01*
X109574674Y-84749500D01*
X108675326Y-84749500D01*
X108675323Y-84749500D01*
X108602264Y-84764032D01*
X108602260Y-84764033D01*
X108519399Y-84819399D01*
X108464033Y-84902260D01*
X108464032Y-84902264D01*
X108449500Y-84975321D01*
X108449500Y-85525500D01*
X108429815Y-85592539D01*
X108377011Y-85638294D01*
X108325500Y-85649500D01*
X108324224Y-85649500D01*
X108257185Y-85629815D01*
X108211430Y-85577011D01*
X108208282Y-85569471D01*
X108201603Y-85551860D01*
X108180220Y-85495477D01*
X108090483Y-85365470D01*
X107972240Y-85260717D01*
X107972238Y-85260716D01*
X107972237Y-85260715D01*
X107832365Y-85187303D01*
X107678986Y-85149500D01*
X107678985Y-85149500D01*
X107521015Y-85149500D01*
X107521014Y-85149500D01*
X107367634Y-85187303D01*
X107227762Y-85260715D01*
X107109516Y-85365471D01*
X107019781Y-85495475D01*
X107019780Y-85495476D01*
X106963762Y-85643181D01*
X106944722Y-85799999D01*
X106944722Y-85800000D01*
X106963762Y-85956818D01*
X107019780Y-86104523D01*
X107109517Y-86234530D01*
X107227760Y-86339283D01*
X107227762Y-86339284D01*
X107367634Y-86412696D01*
X107521014Y-86450500D01*
X107521015Y-86450500D01*
X107678985Y-86450500D01*
X107832365Y-86412696D01*
X107923805Y-86364703D01*
X107981431Y-86350500D01*
X108325500Y-86350500D01*
X108392539Y-86370185D01*
X108438294Y-86422989D01*
X108449500Y-86474500D01*
X108449500Y-86630766D01*
X108446755Y-86630766D01*
X108435773Y-86687882D01*
X108387580Y-86738470D01*
X108340873Y-86754157D01*
X108298607Y-86759426D01*
X108291575Y-86761519D01*
X108284623Y-86763906D01*
X108239555Y-86788295D01*
X108193512Y-86810803D01*
X108187566Y-86815048D01*
X108181742Y-86819581D01*
X108147042Y-86857275D01*
X106386955Y-88617361D01*
X106367106Y-88633482D01*
X106359331Y-88638562D01*
X106339143Y-88664498D01*
X106334067Y-88670248D01*
X106331634Y-88672681D01*
X106331623Y-88672694D01*
X106318954Y-88690438D01*
X106287483Y-88730872D01*
X106283975Y-88737353D01*
X106280760Y-88743932D01*
X106266138Y-88793045D01*
X106249498Y-88841516D01*
X106248294Y-88848733D01*
X106247382Y-88856046D01*
X106249500Y-88907230D01*
X106249500Y-92250788D01*
X106246861Y-92276232D01*
X106244957Y-92285311D01*
X106244957Y-92285317D01*
X100376717Y-92285317D01*
X100490483Y-92184530D01*
X100580220Y-92054523D01*
X100636237Y-91906818D01*
X100655278Y-91750000D01*
X100636237Y-91593182D01*
X100580220Y-91445477D01*
X100490483Y-91315470D01*
X100372240Y-91210717D01*
X100372238Y-91210716D01*
X100372237Y-91210715D01*
X100232365Y-91137303D01*
X100078986Y-91099500D01*
X100078985Y-91099500D01*
X99921015Y-91099500D01*
X99921014Y-91099500D01*
X99767634Y-91137303D01*
X99627762Y-91210715D01*
X99509516Y-91315470D01*
X99507089Y-91318987D01*
X99505742Y-91320938D01*
X99451463Y-91364929D01*
X99403692Y-91374500D01*
X96456899Y-91374500D01*
X96389860Y-91354815D01*
X96369218Y-91338181D01*
X95411819Y-90380781D01*
X95378334Y-90319458D01*
X95375500Y-90293100D01*
X95375500Y-89632418D01*
X95395185Y-89565379D01*
X95447989Y-89519624D01*
X95517147Y-89509680D01*
X95542833Y-89516236D01*
X95617517Y-89544091D01*
X95617516Y-89544091D01*
X95624444Y-89544835D01*
X95677127Y-89550500D01*
X96978978Y-89550499D01*
X97046017Y-89570184D01*
X97091772Y-89622987D01*
X97102074Y-89689444D01*
X97094722Y-89749998D01*
X97094722Y-89750000D01*
X97113762Y-89906818D01*
X97165479Y-90043182D01*
X97169780Y-90054523D01*
X97259517Y-90184530D01*
X97377760Y-90289283D01*
X97377762Y-90289284D01*
X97517634Y-90362696D01*
X97671014Y-90400500D01*
X97671015Y-90400500D01*
X97828985Y-90400500D01*
X97982365Y-90362696D01*
X97993564Y-90356818D01*
X98122240Y-90289283D01*
X98240483Y-90184530D01*
X98330220Y-90054523D01*
X98386237Y-89906818D01*
X98405278Y-89750000D01*
X98403176Y-89732684D01*
X98386237Y-89593181D01*
X98354569Y-89509680D01*
X98330220Y-89445477D01*
X98240483Y-89315470D01*
X98122240Y-89210717D01*
X98122238Y-89210716D01*
X98122237Y-89210715D01*
X97982365Y-89137303D01*
X97828986Y-89099500D01*
X97828985Y-89099500D01*
X97671015Y-89099500D01*
X97671013Y-89099500D01*
X97664438Y-89100298D01*
X97595515Y-89088833D01*
X97543732Y-89041926D01*
X97525499Y-88977204D01*
X97525499Y-88302128D01*
X97519091Y-88242517D01*
X97479485Y-88136329D01*
X97468797Y-88107671D01*
X97468793Y-88107664D01*
X97382547Y-87992455D01*
X97382544Y-87992452D01*
X97267335Y-87906206D01*
X97267328Y-87906202D01*
X97132482Y-87855908D01*
X97132483Y-87855908D01*
X97072883Y-87849501D01*
X97072881Y-87849500D01*
X97072873Y-87849500D01*
X97072864Y-87849500D01*
X95677129Y-87849500D01*
X95677123Y-87849501D01*
X95617514Y-87855909D01*
X95542832Y-87883763D01*
X95473140Y-87888747D01*
X95411817Y-87855261D01*
X95378333Y-87793937D01*
X95375500Y-87767581D01*
X95375500Y-87525000D01*
X99225001Y-87525000D01*
X99225001Y-87581479D01*
X99239835Y-87675149D01*
X99239837Y-87675155D01*
X99297356Y-87788041D01*
X99297363Y-87788050D01*
X99386949Y-87877636D01*
X99386953Y-87877639D01*
X99499855Y-87935166D01*
X99593514Y-87949999D01*
X100124999Y-87949999D01*
X100125000Y-87949998D01*
X100125000Y-87525000D01*
X99225001Y-87525000D01*
X95375500Y-87525000D01*
X95375500Y-85000000D01*
X97344722Y-85000000D01*
X97363762Y-85156818D01*
X97406757Y-85270185D01*
X97419780Y-85304523D01*
X97509517Y-85434530D01*
X97627760Y-85539283D01*
X97627762Y-85539284D01*
X97767634Y-85612696D01*
X97921014Y-85650500D01*
X97921015Y-85650500D01*
X98078985Y-85650500D01*
X98232365Y-85612696D01*
X98270770Y-85592539D01*
X98372240Y-85539283D01*
X98490483Y-85434530D01*
X98580220Y-85304523D01*
X98636237Y-85156818D01*
X98655278Y-85000000D01*
X98652282Y-84975321D01*
X98636237Y-84843181D01*
X98606219Y-84764032D01*
X98580220Y-84695477D01*
X98490483Y-84565470D01*
X98372240Y-84460717D01*
X98372238Y-84460716D01*
X98372237Y-84460715D01*
X98232365Y-84387303D01*
X98078986Y-84349500D01*
X98078985Y-84349500D01*
X97921015Y-84349500D01*
X97921014Y-84349500D01*
X97767634Y-84387303D01*
X97627762Y-84460715D01*
X97509516Y-84565471D01*
X97419781Y-84695475D01*
X97419780Y-84695476D01*
X97363762Y-84843181D01*
X97344722Y-84999999D01*
X97344722Y-85000000D01*
X95375500Y-85000000D01*
X95375500Y-83000000D01*
X97344722Y-83000000D01*
X97363762Y-83156818D01*
X97411078Y-83281578D01*
X97419780Y-83304523D01*
X97509517Y-83434530D01*
X97627760Y-83539283D01*
X97627762Y-83539284D01*
X97767634Y-83612696D01*
X97921014Y-83650500D01*
X97921015Y-83650500D01*
X98078985Y-83650500D01*
X98232365Y-83612696D01*
X98270332Y-83592769D01*
X98372240Y-83539283D01*
X98490483Y-83434530D01*
X98580220Y-83304523D01*
X98636237Y-83156818D01*
X98655278Y-83000000D01*
X98639936Y-82873642D01*
X98636237Y-82843181D01*
X98612259Y-82779956D01*
X98580220Y-82695477D01*
X98490483Y-82565470D01*
X98372240Y-82460717D01*
X98372238Y-82460716D01*
X98372237Y-82460715D01*
X98232365Y-82387303D01*
X98078986Y-82349500D01*
X98078985Y-82349500D01*
X97921015Y-82349500D01*
X97921014Y-82349500D01*
X97767634Y-82387303D01*
X97627762Y-82460715D01*
X97509516Y-82565471D01*
X97419781Y-82695475D01*
X97419780Y-82695476D01*
X97363762Y-82843181D01*
X97344722Y-82999999D01*
X97344722Y-83000000D01*
X95375500Y-83000000D01*
X95375500Y-82032418D01*
X95395185Y-81965379D01*
X95447989Y-81919624D01*
X95517147Y-81909680D01*
X95542833Y-81916236D01*
X95617517Y-81944091D01*
X95617516Y-81944091D01*
X95624444Y-81944835D01*
X95677127Y-81950500D01*
X97072872Y-81950499D01*
X97132483Y-81944091D01*
X97267331Y-81893796D01*
X97382546Y-81807546D01*
X97468796Y-81692331D01*
X97519091Y-81557483D01*
X97525500Y-81497873D01*
X97525499Y-80702128D01*
X97523607Y-80684530D01*
X97519091Y-80642516D01*
X97468797Y-80507671D01*
X97468793Y-80507664D01*
X97382547Y-80392455D01*
X97382544Y-80392452D01*
X97267335Y-80306206D01*
X97267328Y-80306202D01*
X97132482Y-80255908D01*
X97132483Y-80255908D01*
X97072883Y-80249501D01*
X97072881Y-80249500D01*
X97072873Y-80249500D01*
X97072864Y-80249500D01*
X95677129Y-80249500D01*
X95677123Y-80249501D01*
X95617514Y-80255909D01*
X95542832Y-80283763D01*
X95473140Y-80288747D01*
X95411817Y-80255261D01*
X95378333Y-80193937D01*
X95375500Y-80167581D01*
X95375500Y-77956898D01*
X95395185Y-77889859D01*
X95411819Y-77869217D01*
X96119218Y-77161819D01*
X96180541Y-77128334D01*
X96206899Y-77125500D01*
X97117290Y-77125500D01*
X97184329Y-77145185D01*
X97230084Y-77197989D01*
X97240028Y-77267147D01*
X97211003Y-77330703D01*
X97199516Y-77342316D01*
X97139517Y-77395468D01*
X97049781Y-77525475D01*
X97049780Y-77525476D01*
X96993762Y-77673181D01*
X96974722Y-77829999D01*
X96974722Y-77830000D01*
X96993762Y-77986818D01*
X97040048Y-78108863D01*
X97049780Y-78134523D01*
X97139517Y-78264530D01*
X97257760Y-78369283D01*
X97257762Y-78369284D01*
X97397634Y-78442696D01*
X97551014Y-78480500D01*
X97551015Y-78480500D01*
X97708984Y-78480500D01*
X97708985Y-78480500D01*
X97717431Y-78478418D01*
X97787233Y-78481487D01*
X97834788Y-78511134D01*
X99863181Y-80539527D01*
X99896666Y-80600850D01*
X99899500Y-80627208D01*
X99899500Y-81725500D01*
X99879815Y-81792539D01*
X99827011Y-81838294D01*
X99775501Y-81849500D01*
X99593482Y-81849500D01*
X99512519Y-81862323D01*
X99499696Y-81864354D01*
X99386658Y-81921950D01*
X99386657Y-81921950D01*
X99386657Y-81921951D01*
X99386652Y-81921954D01*
X99296954Y-82011652D01*
X99296951Y-82011657D01*
X99239352Y-82124698D01*
X99224500Y-82218475D01*
X99224500Y-82581517D01*
X99231934Y-82628455D01*
X99239354Y-82675304D01*
X99296950Y-82788342D01*
X99296952Y-82788344D01*
X99296954Y-82788347D01*
X99320926Y-82812319D01*
X99354411Y-82873642D01*
X99349427Y-82943334D01*
X99320926Y-82987681D01*
X99296954Y-83011652D01*
X99296951Y-83011657D01*
X99239352Y-83124698D01*
X99224500Y-83218475D01*
X99224500Y-83581517D01*
X99230972Y-83622377D01*
X99239354Y-83675304D01*
X99296950Y-83788342D01*
X99296952Y-83788344D01*
X99296954Y-83788347D01*
X99320926Y-83812319D01*
X99354411Y-83873642D01*
X99349427Y-83943334D01*
X99320926Y-83987681D01*
X99296954Y-84011652D01*
X99296951Y-84011657D01*
X99296950Y-84011658D01*
X99285592Y-84033949D01*
X99239352Y-84124698D01*
X99224500Y-84218475D01*
X99224500Y-84581517D01*
X99233054Y-84635523D01*
X99239354Y-84675304D01*
X99296950Y-84788342D01*
X99296952Y-84788344D01*
X99296954Y-84788347D01*
X99320926Y-84812319D01*
X99354411Y-84873642D01*
X99349427Y-84943334D01*
X99320926Y-84987681D01*
X99296954Y-85011652D01*
X99296951Y-85011657D01*
X99239352Y-85124698D01*
X99224500Y-85218475D01*
X99224500Y-85581517D01*
X99232150Y-85629815D01*
X99239354Y-85675304D01*
X99296950Y-85788342D01*
X99296952Y-85788344D01*
X99296954Y-85788347D01*
X99320926Y-85812319D01*
X99354411Y-85873642D01*
X99349427Y-85943334D01*
X99320926Y-85987681D01*
X99295426Y-86013181D01*
X99234103Y-86046666D01*
X99207745Y-86049500D01*
X98449206Y-86049500D01*
X98423761Y-86046861D01*
X98414685Y-86044958D01*
X98414682Y-86044958D01*
X98382068Y-86049023D01*
X98374392Y-86049500D01*
X98370960Y-86049500D01*
X98356619Y-86051892D01*
X98349448Y-86053089D01*
X98332621Y-86055186D01*
X98298607Y-86059427D01*
X98298606Y-86059427D01*
X98298601Y-86059428D01*
X98291575Y-86061519D01*
X98284623Y-86063906D01*
X98239555Y-86088295D01*
X98193512Y-86110803D01*
X98187556Y-86115055D01*
X98174973Y-86124849D01*
X98109979Y-86150492D01*
X98083871Y-86150093D01*
X98078985Y-86149500D01*
X97921015Y-86149500D01*
X97921014Y-86149500D01*
X97767634Y-86187303D01*
X97627762Y-86260715D01*
X97509516Y-86365471D01*
X97419781Y-86495475D01*
X97419780Y-86495476D01*
X97363762Y-86643181D01*
X97344722Y-86799999D01*
X97344722Y-86800000D01*
X97363762Y-86956818D01*
X97408026Y-87073530D01*
X97419780Y-87104523D01*
X97509517Y-87234530D01*
X97627760Y-87339283D01*
X97627762Y-87339284D01*
X97767634Y-87412696D01*
X97921014Y-87450500D01*
X97921015Y-87450500D01*
X98078985Y-87450500D01*
X98232365Y-87412696D01*
X98277136Y-87389198D01*
X98372240Y-87339283D01*
X98490483Y-87234530D01*
X98580220Y-87104523D01*
X98636237Y-86956818D01*
X98640345Y-86922989D01*
X98648047Y-86859554D01*
X98675669Y-86795376D01*
X98733603Y-86756319D01*
X98771143Y-86750500D01*
X99207745Y-86750500D01*
X99274784Y-86770185D01*
X99295426Y-86786819D01*
X99321279Y-86812672D01*
X99354764Y-86873995D01*
X99349780Y-86943687D01*
X99321279Y-86988034D01*
X99297363Y-87011949D01*
X99297360Y-87011953D01*
X99239833Y-87124855D01*
X99225000Y-87218513D01*
X99225000Y-87275000D01*
X100251000Y-87275000D01*
X100318039Y-87294685D01*
X100363794Y-87347489D01*
X100375000Y-87399000D01*
X100375000Y-87949999D01*
X100906479Y-87949999D01*
X101000149Y-87935164D01*
X101000152Y-87935163D01*
X101069204Y-87899979D01*
X101137873Y-87887082D01*
X101202614Y-87913358D01*
X101242871Y-87970464D01*
X101249500Y-88010463D01*
X101249500Y-88985649D01*
X101229815Y-89052688D01*
X101207728Y-89078462D01*
X101141310Y-89137304D01*
X101109516Y-89165471D01*
X101019781Y-89295475D01*
X101019780Y-89295476D01*
X100963762Y-89443181D01*
X100944722Y-89599999D01*
X100944722Y-89600000D01*
X100963762Y-89756818D01*
X101016349Y-89895476D01*
X101019780Y-89904523D01*
X101109517Y-90034530D01*
X101227760Y-90139283D01*
X101227762Y-90139284D01*
X101367634Y-90212696D01*
X101521014Y-90250500D01*
X101521015Y-90250500D01*
X101678985Y-90250500D01*
X101832365Y-90212696D01*
X101946876Y-90152595D01*
X101972240Y-90139283D01*
X102090483Y-90034530D01*
X102180220Y-89904523D01*
X102236237Y-89756818D01*
X102255278Y-89600000D01*
X102253737Y-89587304D01*
X102236237Y-89443181D01*
X102214992Y-89387163D01*
X102180220Y-89295477D01*
X102090483Y-89165470D01*
X101992272Y-89078463D01*
X101955147Y-89019276D01*
X101950500Y-88985649D01*
X101950500Y-86387816D01*
X101953139Y-86362369D01*
X101955043Y-86353290D01*
X101953270Y-86339068D01*
X101950977Y-86320666D01*
X101950500Y-86312990D01*
X101950500Y-86309566D01*
X101950499Y-86309555D01*
X101946911Y-86288060D01*
X101943503Y-86260717D01*
X101940573Y-86237212D01*
X101940571Y-86237208D01*
X101938486Y-86230207D01*
X101938476Y-86230176D01*
X101938466Y-86230144D01*
X101936092Y-86223228D01*
X101936092Y-86223223D01*
X101911705Y-86178160D01*
X101911704Y-86178160D01*
X101889202Y-86132126D01*
X101889200Y-86132123D01*
X101889199Y-86132121D01*
X101889197Y-86132119D01*
X101884982Y-86126217D01*
X101884938Y-86126160D01*
X101884880Y-86126079D01*
X101880419Y-86120347D01*
X101842724Y-86085645D01*
X101506415Y-85749337D01*
X101472930Y-85688014D01*
X101477914Y-85618323D01*
X101519785Y-85562389D01*
X101585250Y-85537972D01*
X101651722Y-85551860D01*
X101767634Y-85612696D01*
X101921014Y-85650500D01*
X101921015Y-85650500D01*
X102078985Y-85650500D01*
X102232365Y-85612696D01*
X102270770Y-85592539D01*
X102372240Y-85539283D01*
X102490483Y-85434530D01*
X102580220Y-85304523D01*
X102636237Y-85156818D01*
X102655278Y-85000000D01*
X102652282Y-84975321D01*
X102636237Y-84843181D01*
X102606219Y-84764032D01*
X102580220Y-84695477D01*
X102490483Y-84565470D01*
X102372240Y-84460717D01*
X102372238Y-84460716D01*
X102372237Y-84460715D01*
X102232365Y-84387303D01*
X102078986Y-84349500D01*
X102078985Y-84349500D01*
X101921015Y-84349500D01*
X101921014Y-84349500D01*
X101767634Y-84387303D01*
X101627762Y-84460715D01*
X101509516Y-84565470D01*
X101501546Y-84577017D01*
X101447261Y-84621005D01*
X101377812Y-84628661D01*
X101315248Y-84597555D01*
X101279434Y-84537562D01*
X101275499Y-84506577D01*
X101275499Y-84332938D01*
X101295184Y-84265900D01*
X101311813Y-84245263D01*
X103870257Y-81686819D01*
X103931581Y-81653334D01*
X103957939Y-81650500D01*
X104078985Y-81650500D01*
X104232365Y-81612696D01*
X104232364Y-81612695D01*
X104372240Y-81539283D01*
X104490483Y-81434530D01*
X104580220Y-81304523D01*
X104636237Y-81156818D01*
X104655278Y-81000000D01*
X104638607Y-80862696D01*
X104636237Y-80843181D01*
X104598512Y-80743709D01*
X104580220Y-80695477D01*
X104490483Y-80565470D01*
X104372240Y-80460717D01*
X104372238Y-80460716D01*
X104372237Y-80460715D01*
X104232365Y-80387303D01*
X104078986Y-80349500D01*
X104078985Y-80349500D01*
X104027214Y-80349500D01*
X103960175Y-80329815D01*
X103914420Y-80277011D01*
X103904118Y-80240448D01*
X103902143Y-80224181D01*
X103895274Y-80167616D01*
X103906734Y-80098696D01*
X103930686Y-80064993D01*
X105108861Y-78886819D01*
X105170185Y-78853334D01*
X105196543Y-78850500D01*
X106436203Y-78850500D01*
X106503242Y-78870185D01*
X106548997Y-78922989D01*
X106559142Y-78990686D01*
X106544749Y-79100000D01*
X106544750Y-79108128D01*
X106541456Y-79108128D01*
X106532192Y-79162588D01*
X106508439Y-79195877D01*
X105986955Y-79717361D01*
X105967106Y-79733482D01*
X105959331Y-79738562D01*
X105939143Y-79764498D01*
X105934067Y-79770248D01*
X105931634Y-79772681D01*
X105931623Y-79772694D01*
X105918954Y-79790438D01*
X105887483Y-79830872D01*
X105883975Y-79837353D01*
X105880760Y-79843932D01*
X105866138Y-79893045D01*
X105849498Y-79941516D01*
X105848294Y-79948733D01*
X105847382Y-79956046D01*
X105849500Y-80007230D01*
X105849500Y-83243546D01*
X105829815Y-83310585D01*
X105777011Y-83356340D01*
X105757599Y-83363319D01*
X105756293Y-83363668D01*
X105622377Y-83419137D01*
X105507379Y-83507379D01*
X105419137Y-83622377D01*
X105363671Y-83756287D01*
X105363670Y-83756291D01*
X105345704Y-83892757D01*
X105344750Y-83900000D01*
X105359656Y-84013224D01*
X105363670Y-84043708D01*
X105363671Y-84043712D01*
X105419137Y-84177622D01*
X105419138Y-84177624D01*
X105419139Y-84177625D01*
X105507379Y-84292621D01*
X105516711Y-84299782D01*
X105519113Y-84301625D01*
X105560316Y-84358053D01*
X105564470Y-84427799D01*
X105530257Y-84488719D01*
X105519113Y-84498375D01*
X105507381Y-84507377D01*
X105419137Y-84622377D01*
X105363671Y-84756287D01*
X105363670Y-84756291D01*
X105352231Y-84843181D01*
X105344750Y-84900000D01*
X105357915Y-85000000D01*
X105363670Y-85043708D01*
X105363671Y-85043712D01*
X105419137Y-85177622D01*
X105419138Y-85177624D01*
X105419139Y-85177625D01*
X105507379Y-85292621D01*
X105622375Y-85380861D01*
X105756291Y-85436330D01*
X105883280Y-85453048D01*
X105899999Y-85455250D01*
X105900000Y-85455250D01*
X105900001Y-85455250D01*
X105914977Y-85453278D01*
X106043709Y-85436330D01*
X106177625Y-85380861D01*
X106292621Y-85292621D01*
X106380861Y-85177625D01*
X106436330Y-85043709D01*
X106455250Y-84900000D01*
X106455250Y-84899999D01*
X106455250Y-84891871D01*
X106459049Y-84891871D01*
X106466388Y-84840418D01*
X106491556Y-84804124D01*
X107113046Y-84182634D01*
X107132902Y-84166511D01*
X107140669Y-84161437D01*
X107160873Y-84135477D01*
X107165941Y-84129739D01*
X107168376Y-84127306D01*
X107172162Y-84122002D01*
X107181048Y-84109558D01*
X107212513Y-84069131D01*
X107212512Y-84069131D01*
X107212517Y-84069126D01*
X107212519Y-84069119D01*
X107215982Y-84062718D01*
X107216021Y-84062640D01*
X107216058Y-84062570D01*
X107219235Y-84056072D01*
X107219240Y-84056066D01*
X107233860Y-84006956D01*
X107250500Y-83958488D01*
X107250499Y-83958483D01*
X107251695Y-83951316D01*
X107251703Y-83951259D01*
X107251709Y-83951223D01*
X107252617Y-83943949D01*
X107250500Y-83892757D01*
X107250500Y-80996543D01*
X107270185Y-80929504D01*
X107286813Y-80908867D01*
X107304121Y-80891559D01*
X107365440Y-80858075D01*
X107391871Y-80857145D01*
X107391871Y-80855250D01*
X107400000Y-80855250D01*
X107543709Y-80836330D01*
X107677625Y-80780861D01*
X107792621Y-80692621D01*
X107880861Y-80577625D01*
X107936330Y-80443709D01*
X107955250Y-80300000D01*
X107953768Y-80288747D01*
X107952223Y-80277011D01*
X107936330Y-80156291D01*
X107880861Y-80022375D01*
X107792621Y-79907379D01*
X107677625Y-79819139D01*
X107677624Y-79819138D01*
X107677622Y-79819137D01*
X107543712Y-79763671D01*
X107543710Y-79763670D01*
X107543709Y-79763670D01*
X107515203Y-79759917D01*
X107495394Y-79757309D01*
X107431498Y-79729042D01*
X107393028Y-79670717D01*
X107392197Y-79600852D01*
X107429270Y-79541629D01*
X107436075Y-79536010D01*
X107492621Y-79492621D01*
X107580861Y-79377625D01*
X107636330Y-79243709D01*
X107655250Y-79100000D01*
X107654860Y-79097041D01*
X107650552Y-79064320D01*
X107640858Y-78990685D01*
X107651623Y-78921651D01*
X107698003Y-78869395D01*
X107763797Y-78850500D01*
X109919841Y-78850500D01*
X109986880Y-78870185D01*
X110032635Y-78922989D01*
X110035783Y-78930529D01*
X110077691Y-79041031D01*
X110167428Y-79171038D01*
X110285671Y-79275791D01*
X110285673Y-79275792D01*
X110425545Y-79349204D01*
X110578925Y-79387008D01*
X110578926Y-79387008D01*
X110736896Y-79387008D01*
X110890272Y-79349205D01*
X110890272Y-79349204D01*
X110890276Y-79349204D01*
X110949336Y-79318206D01*
X111017840Y-79304481D01*
X111082894Y-79329972D01*
X111094635Y-79340316D01*
X111140670Y-79386351D01*
X111213181Y-79458862D01*
X111246666Y-79520185D01*
X111249500Y-79546543D01*
X111249500Y-80176858D01*
X111229815Y-80243897D01*
X111177011Y-80289652D01*
X111107853Y-80299596D01*
X111044297Y-80270571D01*
X111027125Y-80252345D01*
X111017988Y-80240438D01*
X110992621Y-80207379D01*
X110877625Y-80119139D01*
X110877624Y-80119138D01*
X110877622Y-80119137D01*
X110743712Y-80063671D01*
X110743710Y-80063670D01*
X110743709Y-80063670D01*
X110669637Y-80053918D01*
X110600001Y-80044750D01*
X110599999Y-80044750D01*
X110456291Y-80063670D01*
X110456287Y-80063671D01*
X110322377Y-80119137D01*
X110207379Y-80207379D01*
X110119137Y-80322377D01*
X110063671Y-80456287D01*
X110063670Y-80456291D01*
X110044750Y-80599999D01*
X110044750Y-80600000D01*
X110063670Y-80743708D01*
X110063671Y-80743712D01*
X110119137Y-80877622D01*
X110119138Y-80877624D01*
X110119139Y-80877625D01*
X110207379Y-80992621D01*
X110272654Y-81042708D01*
X110327023Y-81084428D01*
X110368225Y-81140856D01*
X110372380Y-81210602D01*
X110338167Y-81271522D01*
X110320428Y-81285905D01*
X110269759Y-81319761D01*
X110214505Y-81402455D01*
X110214503Y-81402459D01*
X110200000Y-81475371D01*
X110200000Y-82175000D01*
X110876000Y-82175000D01*
X110943039Y-82194685D01*
X110988794Y-82247489D01*
X111000000Y-82299000D01*
X111000000Y-82301000D01*
X110980315Y-82368039D01*
X110927511Y-82413794D01*
X110876000Y-82425000D01*
X110200000Y-82425000D01*
X110200000Y-82779956D01*
X110180315Y-82846995D01*
X110127511Y-82892750D01*
X110058353Y-82902694D01*
X109994797Y-82873669D01*
X109988332Y-82867650D01*
X109836818Y-82716136D01*
X109803334Y-82654813D01*
X109800500Y-82628455D01*
X109800500Y-81475323D01*
X109800499Y-81475321D01*
X109785967Y-81402264D01*
X109785966Y-81402260D01*
X109785965Y-81402259D01*
X109730601Y-81319399D01*
X109647740Y-81264034D01*
X109647739Y-81264033D01*
X109647735Y-81264032D01*
X109574677Y-81249500D01*
X109574674Y-81249500D01*
X108675326Y-81249500D01*
X108675323Y-81249500D01*
X108602264Y-81264032D01*
X108602260Y-81264033D01*
X108519399Y-81319399D01*
X108464033Y-81402260D01*
X108464032Y-81402264D01*
X108449500Y-81475321D01*
X108449500Y-83124678D01*
X108464032Y-83197735D01*
X108464033Y-83197739D01*
X108464034Y-83197740D01*
X108519399Y-83280601D01*
X108602260Y-83335966D01*
X108602264Y-83335967D01*
X108675321Y-83350499D01*
X108675324Y-83350500D01*
X108675326Y-83350500D01*
X109428456Y-83350500D01*
X109495495Y-83370185D01*
X109516137Y-83386819D01*
X110092362Y-83963044D01*
X110108486Y-83982899D01*
X110113563Y-83990669D01*
X110139508Y-84010862D01*
X110145260Y-84015942D01*
X110147693Y-84018375D01*
X110165438Y-84031044D01*
X110205874Y-84062517D01*
X110205876Y-84062517D01*
X110212310Y-84065999D01*
X110212344Y-84066016D01*
X110212390Y-84066041D01*
X110218932Y-84069239D01*
X110218933Y-84069239D01*
X110218934Y-84069240D01*
X110233078Y-84073451D01*
X110268045Y-84083862D01*
X110316509Y-84100499D01*
X110316512Y-84100500D01*
X110316515Y-84100500D01*
X110323625Y-84101687D01*
X110323731Y-84101700D01*
X110323855Y-84101720D01*
X110331046Y-84102617D01*
X110382231Y-84100500D01*
X111400789Y-84100500D01*
X111426234Y-84103138D01*
X111435315Y-84105043D01*
X111451005Y-84103087D01*
X111467939Y-84100977D01*
X111475615Y-84100500D01*
X111479035Y-84100500D01*
X111479040Y-84100500D01*
X111482608Y-84099904D01*
X111500539Y-84096913D01*
X111527958Y-84093494D01*
X111551393Y-84090573D01*
X111551402Y-84090568D01*
X111558451Y-84088470D01*
X111565377Y-84086092D01*
X111565381Y-84086092D01*
X111610444Y-84061704D01*
X111656484Y-84039198D01*
X111656487Y-84039194D01*
X111662453Y-84034935D01*
X111668254Y-84030419D01*
X111668258Y-84030418D01*
X111696259Y-84000000D01*
X116144815Y-84000000D01*
X116163503Y-84177805D01*
X116163504Y-84177807D01*
X116218747Y-84347829D01*
X116218750Y-84347835D01*
X116308141Y-84502665D01*
X116312384Y-84507377D01*
X116427764Y-84635521D01*
X116427767Y-84635523D01*
X116427770Y-84635526D01*
X116572407Y-84740612D01*
X116735733Y-84813329D01*
X116910609Y-84850500D01*
X116910610Y-84850500D01*
X117089389Y-84850500D01*
X117089391Y-84850500D01*
X117264267Y-84813329D01*
X117427593Y-84740612D01*
X117572230Y-84635526D01*
X117578412Y-84628661D01*
X117620860Y-84581517D01*
X117691859Y-84502665D01*
X117781250Y-84347835D01*
X117836497Y-84177803D01*
X117855185Y-84000000D01*
X117836497Y-83822197D01*
X117808873Y-83737181D01*
X117781252Y-83652170D01*
X117781249Y-83652164D01*
X117780614Y-83651064D01*
X117691859Y-83497335D01*
X117603768Y-83399500D01*
X117572235Y-83364478D01*
X117572232Y-83364476D01*
X117572231Y-83364475D01*
X117572230Y-83364474D01*
X117427593Y-83259388D01*
X117264267Y-83186671D01*
X117264265Y-83186670D01*
X117136594Y-83159533D01*
X117089391Y-83149500D01*
X116910609Y-83149500D01*
X116879954Y-83156015D01*
X116735733Y-83186670D01*
X116735728Y-83186672D01*
X116572408Y-83259387D01*
X116427768Y-83364475D01*
X116308140Y-83497336D01*
X116218750Y-83652164D01*
X116218747Y-83652170D01*
X116163504Y-83822192D01*
X116163503Y-83822194D01*
X116144815Y-84000000D01*
X111696259Y-84000000D01*
X111702957Y-83992724D01*
X111813050Y-83882630D01*
X111832902Y-83866511D01*
X111840669Y-83861437D01*
X111860873Y-83835477D01*
X111865941Y-83829739D01*
X111868375Y-83827307D01*
X111881044Y-83809561D01*
X111912517Y-83769126D01*
X111912518Y-83769120D01*
X111916017Y-83762655D01*
X111919235Y-83756072D01*
X111919240Y-83756066D01*
X111933861Y-83706954D01*
X111950500Y-83658488D01*
X111950500Y-83658479D01*
X111951706Y-83651256D01*
X111952617Y-83643952D01*
X111950500Y-83592770D01*
X111950500Y-81497864D01*
X111950499Y-79399202D01*
X111953137Y-79373772D01*
X111955043Y-79364686D01*
X111952006Y-79340322D01*
X111950977Y-79332062D01*
X111950500Y-79324386D01*
X111950500Y-79320962D01*
X111950499Y-79320951D01*
X111946911Y-79299456D01*
X111940573Y-79248610D01*
X111940573Y-79248608D01*
X111940571Y-79248604D01*
X111938486Y-79241603D01*
X111938476Y-79241572D01*
X111938466Y-79241540D01*
X111936092Y-79234624D01*
X111936092Y-79234619D01*
X111911705Y-79189556D01*
X111898522Y-79162588D01*
X111889202Y-79143522D01*
X111889200Y-79143519D01*
X111889199Y-79143517D01*
X111889197Y-79143515D01*
X111884982Y-79137613D01*
X111884938Y-79137556D01*
X111884880Y-79137475D01*
X111880419Y-79131743D01*
X111842724Y-79097041D01*
X111293893Y-78548211D01*
X111265632Y-78504501D01*
X111238130Y-78431983D01*
X111150151Y-78304524D01*
X111148394Y-78301978D01*
X111030151Y-78197225D01*
X111030149Y-78197224D01*
X111030148Y-78197223D01*
X110890276Y-78123811D01*
X110736897Y-78086008D01*
X110736896Y-78086008D01*
X110578926Y-78086008D01*
X110425548Y-78123811D01*
X110425546Y-78123811D01*
X110425546Y-78123812D01*
X110403661Y-78135297D01*
X110346039Y-78149500D01*
X105277092Y-78149500D01*
X105210053Y-78129815D01*
X105164298Y-78077011D01*
X105153996Y-78010554D01*
X105155278Y-78000000D01*
X105136237Y-77843182D01*
X105131237Y-77829999D01*
X105094002Y-77731818D01*
X105080220Y-77695477D01*
X104990483Y-77565470D01*
X104872240Y-77460717D01*
X104872238Y-77460716D01*
X104872237Y-77460715D01*
X104732365Y-77387303D01*
X104578986Y-77349500D01*
X104578985Y-77349500D01*
X104421015Y-77349500D01*
X104421014Y-77349500D01*
X104267634Y-77387303D01*
X104127762Y-77460715D01*
X104009516Y-77565471D01*
X103919781Y-77695475D01*
X103919780Y-77695476D01*
X103863762Y-77843181D01*
X103844722Y-77999999D01*
X103844722Y-78000000D01*
X103863762Y-78156818D01*
X103918065Y-78300000D01*
X103919780Y-78304523D01*
X104009517Y-78434530D01*
X104127760Y-78539283D01*
X104199730Y-78577056D01*
X104249941Y-78625638D01*
X104265916Y-78693657D01*
X104242582Y-78759515D01*
X104229784Y-78774532D01*
X103439274Y-79565042D01*
X103377951Y-79598527D01*
X103336721Y-79598004D01*
X103336430Y-79600404D01*
X103328985Y-79599500D01*
X103171015Y-79599500D01*
X103171014Y-79599500D01*
X103017634Y-79637303D01*
X102877762Y-79710715D01*
X102759516Y-79815471D01*
X102669781Y-79945475D01*
X102669780Y-79945476D01*
X102613762Y-80093181D01*
X102594722Y-80249999D01*
X102594722Y-80250000D01*
X102613762Y-80406818D01*
X102663727Y-80538563D01*
X102669780Y-80554523D01*
X102759517Y-80684530D01*
X102877760Y-80789283D01*
X102877762Y-80789284D01*
X103017634Y-80862696D01*
X103171014Y-80900500D01*
X103222786Y-80900500D01*
X103289825Y-80920185D01*
X103335580Y-80972989D01*
X103345882Y-81009554D01*
X103361372Y-81137128D01*
X103349911Y-81206051D01*
X103325957Y-81239755D01*
X102362181Y-82203532D01*
X102300858Y-82237017D01*
X102231167Y-82232033D01*
X102175233Y-82190161D01*
X102150816Y-82124697D01*
X102150500Y-82115851D01*
X102150500Y-76414350D01*
X102170185Y-76347311D01*
X102192271Y-76321536D01*
X102290483Y-76234530D01*
X102380220Y-76104523D01*
X102436237Y-75956818D01*
X102455278Y-75800000D01*
X102944722Y-75800000D01*
X102963762Y-75956818D01*
X103000818Y-76054524D01*
X103019780Y-76104523D01*
X103109517Y-76234530D01*
X103227760Y-76339283D01*
X103227762Y-76339284D01*
X103367634Y-76412696D01*
X103521014Y-76450500D01*
X103521015Y-76450500D01*
X103678985Y-76450500D01*
X103832365Y-76412696D01*
X103878226Y-76388626D01*
X103972240Y-76339283D01*
X104090483Y-76234530D01*
X104180220Y-76104523D01*
X104236237Y-75956818D01*
X104255278Y-75800000D01*
X104255232Y-75799617D01*
X104236237Y-75643181D01*
X104214992Y-75587163D01*
X104180220Y-75495477D01*
X104090483Y-75365470D01*
X103972240Y-75260717D01*
X103972238Y-75260716D01*
X103972237Y-75260715D01*
X103832365Y-75187303D01*
X103678986Y-75149500D01*
X103678985Y-75149500D01*
X103521015Y-75149500D01*
X103521014Y-75149500D01*
X103367634Y-75187303D01*
X103227762Y-75260715D01*
X103109516Y-75365471D01*
X103019781Y-75495475D01*
X103019780Y-75495476D01*
X102963762Y-75643181D01*
X102944722Y-75799999D01*
X102944722Y-75800000D01*
X102455278Y-75800000D01*
X102455232Y-75799617D01*
X102436237Y-75643181D01*
X102414992Y-75587164D01*
X102380220Y-75495477D01*
X102290483Y-75365470D01*
X102172240Y-75260717D01*
X102172238Y-75260716D01*
X102172237Y-75260715D01*
X102032365Y-75187303D01*
X101878986Y-75149500D01*
X101878985Y-75149500D01*
X101721015Y-75149500D01*
X101721014Y-75149500D01*
X101567634Y-75187303D01*
X101427762Y-75260715D01*
X101383418Y-75300000D01*
X101334835Y-75343041D01*
X101331727Y-75345794D01*
X101268493Y-75375515D01*
X101199230Y-75366331D01*
X101145927Y-75321158D01*
X101125507Y-75254339D01*
X101125500Y-75252978D01*
X101125500Y-75206899D01*
X101145185Y-75139860D01*
X101161819Y-75119218D01*
X101369219Y-74911819D01*
X101430542Y-74878334D01*
X101456900Y-74875500D01*
X105403692Y-74875500D01*
X105470731Y-74895185D01*
X105505742Y-74929061D01*
X105509517Y-74934530D01*
X105627760Y-75039283D01*
X105627762Y-75039284D01*
X105767634Y-75112696D01*
X105921014Y-75150500D01*
X106023037Y-75150500D01*
X106090076Y-75170185D01*
X106135831Y-75222989D01*
X106145976Y-75290685D01*
X106145518Y-75294170D01*
X106144750Y-75300000D01*
X106153369Y-75365470D01*
X106163670Y-75443708D01*
X106163671Y-75443712D01*
X106219137Y-75577622D01*
X106219138Y-75577624D01*
X106219139Y-75577625D01*
X106307379Y-75692621D01*
X106422375Y-75780861D01*
X106422376Y-75780861D01*
X106422377Y-75780862D01*
X106467013Y-75799350D01*
X106556291Y-75836330D01*
X106683280Y-75853048D01*
X106699999Y-75855250D01*
X106700000Y-75855250D01*
X106700001Y-75855250D01*
X106714977Y-75853278D01*
X106843709Y-75836330D01*
X106977625Y-75780861D01*
X107092621Y-75692621D01*
X107180861Y-75577625D01*
X107236330Y-75443709D01*
X107255250Y-75300000D01*
X107255249Y-75299997D01*
X107256017Y-75294170D01*
X107284283Y-75230273D01*
X107342608Y-75191802D01*
X107412473Y-75190971D01*
X107466637Y-75222674D01*
X107525681Y-75281718D01*
X107559166Y-75343041D01*
X107562000Y-75369399D01*
X107562000Y-76422863D01*
X107562001Y-76422882D01*
X107568408Y-76482481D01*
X107618702Y-76617327D01*
X107618703Y-76617328D01*
X107618704Y-76617330D01*
X107704954Y-76732546D01*
X107820170Y-76818796D01*
X107820171Y-76818796D01*
X107820172Y-76818797D01*
X107955018Y-76869091D01*
X107955017Y-76869091D01*
X107961945Y-76869835D01*
X108014628Y-76875500D01*
X108014637Y-76875500D01*
X109035363Y-76875500D01*
X109035372Y-76875500D01*
X109094982Y-76869091D01*
X109229830Y-76818796D01*
X109345046Y-76732546D01*
X109431296Y-76617330D01*
X109481591Y-76482482D01*
X109488000Y-76422872D01*
X109488000Y-76422863D01*
X110537000Y-76422863D01*
X110537001Y-76422882D01*
X110543408Y-76482481D01*
X110593702Y-76617327D01*
X110593703Y-76617328D01*
X110593704Y-76617330D01*
X110679954Y-76732546D01*
X110795170Y-76818796D01*
X110795171Y-76818796D01*
X110795172Y-76818797D01*
X110930018Y-76869091D01*
X110930017Y-76869091D01*
X110936945Y-76869835D01*
X110989628Y-76875500D01*
X110989637Y-76875500D01*
X112010363Y-76875500D01*
X112010372Y-76875500D01*
X112069982Y-76869091D01*
X112069983Y-76869090D01*
X112077316Y-76868302D01*
X112146075Y-76880706D01*
X112197213Y-76928316D01*
X112214493Y-76996016D01*
X112192429Y-77062310D01*
X112172800Y-77084406D01*
X112109516Y-77140470D01*
X112019781Y-77270475D01*
X112019780Y-77270476D01*
X111963762Y-77418181D01*
X111944722Y-77574999D01*
X111944722Y-77575000D01*
X111963762Y-77731818D01*
X112015871Y-77869217D01*
X112019780Y-77879523D01*
X112109517Y-78009530D01*
X112227760Y-78114283D01*
X112227762Y-78114284D01*
X112367634Y-78187696D01*
X112521014Y-78225500D01*
X112521015Y-78225500D01*
X112678985Y-78225500D01*
X112832365Y-78187696D01*
X112905140Y-78149500D01*
X112972240Y-78114283D01*
X113090483Y-78009530D01*
X113180220Y-77879523D01*
X113236237Y-77731818D01*
X113255278Y-77575000D01*
X113250456Y-77535282D01*
X113236237Y-77418181D01*
X113207465Y-77342316D01*
X113180220Y-77270477D01*
X113090483Y-77140470D01*
X112972240Y-77035717D01*
X112972238Y-77035716D01*
X112972237Y-77035715D01*
X112832365Y-76962303D01*
X112678986Y-76924500D01*
X112678985Y-76924500D01*
X112521015Y-76924500D01*
X112521014Y-76924500D01*
X112431449Y-76946575D01*
X112361647Y-76943505D01*
X112304585Y-76903185D01*
X112278380Y-76838416D01*
X112291353Y-76769761D01*
X112314097Y-76738493D01*
X112320034Y-76732554D01*
X112320046Y-76732546D01*
X112406296Y-76617330D01*
X112456591Y-76482482D01*
X112456591Y-76482476D01*
X112457905Y-76476920D01*
X112492475Y-76416202D01*
X112554384Y-76383813D01*
X112608257Y-76385031D01*
X112671015Y-76400500D01*
X112828985Y-76400500D01*
X112982365Y-76362696D01*
X112982364Y-76362695D01*
X113122240Y-76289283D01*
X113240483Y-76184530D01*
X113330220Y-76054523D01*
X113386237Y-75906818D01*
X113405278Y-75750000D01*
X113389201Y-75617601D01*
X113400662Y-75548678D01*
X113447566Y-75496892D01*
X113515022Y-75478685D01*
X113581613Y-75499837D01*
X113594518Y-75509834D01*
X113619452Y-75531923D01*
X113627762Y-75539285D01*
X113767634Y-75612696D01*
X113921014Y-75650500D01*
X113921015Y-75650500D01*
X114078986Y-75650500D01*
X114086431Y-75649596D01*
X114086837Y-75652941D01*
X114141459Y-75655221D01*
X114189275Y-75684957D01*
X116613181Y-78108863D01*
X116646666Y-78170186D01*
X116649500Y-78196544D01*
X116649500Y-80385649D01*
X116629815Y-80452688D01*
X116607728Y-80478462D01*
X116539889Y-80538563D01*
X116509516Y-80565471D01*
X116419781Y-80695475D01*
X116419780Y-80695476D01*
X116363762Y-80843181D01*
X116344721Y-80999999D01*
X116344721Y-81000000D01*
X116363762Y-81156818D01*
X116407264Y-81271522D01*
X116419780Y-81304523D01*
X116509517Y-81434530D01*
X116627760Y-81539283D01*
X116627762Y-81539284D01*
X116767634Y-81612696D01*
X116921014Y-81650500D01*
X116921015Y-81650500D01*
X117078985Y-81650500D01*
X117232365Y-81612696D01*
X117232364Y-81612695D01*
X117372240Y-81539283D01*
X117490483Y-81434530D01*
X117580220Y-81304523D01*
X117636237Y-81156818D01*
X117655278Y-81000000D01*
X117638607Y-80862696D01*
X117636237Y-80843181D01*
X117598512Y-80743709D01*
X117580220Y-80695477D01*
X117490483Y-80565470D01*
X117392272Y-80478463D01*
X117355147Y-80419276D01*
X117350500Y-80385649D01*
X117350500Y-78049213D01*
X117353140Y-78023764D01*
X117355043Y-78014687D01*
X117355043Y-78014685D01*
X117350975Y-77982062D01*
X117350499Y-77974386D01*
X117350500Y-77970960D01*
X117346912Y-77949459D01*
X117340573Y-77898607D01*
X117340571Y-77898603D01*
X117338502Y-77891653D01*
X117338470Y-77891559D01*
X117338446Y-77891478D01*
X117336092Y-77884622D01*
X117336092Y-77884619D01*
X117311702Y-77839550D01*
X117289198Y-77793517D01*
X117289197Y-77793516D01*
X117289197Y-77793515D01*
X117284926Y-77787534D01*
X117280417Y-77781741D01*
X117242712Y-77747030D01*
X114680689Y-75185007D01*
X114647204Y-75123684D01*
X114645274Y-75082384D01*
X114655278Y-75000000D01*
X114636237Y-74843182D01*
X114580220Y-74695477D01*
X114490483Y-74565470D01*
X114372240Y-74460717D01*
X114372238Y-74460716D01*
X114372237Y-74460715D01*
X114232365Y-74387303D01*
X114078986Y-74349500D01*
X114078985Y-74349500D01*
X113921015Y-74349500D01*
X113921014Y-74349500D01*
X113767634Y-74387303D01*
X113627762Y-74460715D01*
X113509516Y-74565471D01*
X113419781Y-74695475D01*
X113419780Y-74695476D01*
X113363762Y-74843181D01*
X113344722Y-74999999D01*
X113344722Y-75000000D01*
X113360797Y-75132398D01*
X113349336Y-75201322D01*
X113302432Y-75253107D01*
X113234976Y-75271314D01*
X113168385Y-75250161D01*
X113155479Y-75240163D01*
X113122240Y-75210717D01*
X113122237Y-75210714D01*
X112982365Y-75137303D01*
X112828986Y-75099500D01*
X112828985Y-75099500D01*
X112671015Y-75099500D01*
X112671011Y-75099500D01*
X112608256Y-75114967D01*
X112538454Y-75111897D01*
X112481392Y-75071576D01*
X112457905Y-75023081D01*
X112456591Y-75017526D01*
X112456591Y-75017518D01*
X112410964Y-74895185D01*
X112406297Y-74882672D01*
X112406296Y-74882671D01*
X112406296Y-74882670D01*
X112320046Y-74767454D01*
X112204830Y-74681204D01*
X112204828Y-74681203D01*
X112204827Y-74681202D01*
X112069981Y-74630908D01*
X112069982Y-74630908D01*
X112010382Y-74624501D01*
X112010380Y-74624500D01*
X112010372Y-74624500D01*
X110989628Y-74624500D01*
X110989620Y-74624500D01*
X110989617Y-74624501D01*
X110930018Y-74630908D01*
X110795172Y-74681202D01*
X110795170Y-74681204D01*
X110679954Y-74767454D01*
X110593704Y-74882670D01*
X110593702Y-74882672D01*
X110543408Y-75017518D01*
X110537001Y-75077117D01*
X110537000Y-75077136D01*
X110537000Y-76422863D01*
X109488000Y-76422863D01*
X109488000Y-75077128D01*
X109481591Y-75017518D01*
X109450638Y-74934529D01*
X109431297Y-74882672D01*
X109431296Y-74882671D01*
X109431296Y-74882670D01*
X109345046Y-74767454D01*
X109229830Y-74681204D01*
X109229828Y-74681203D01*
X109229827Y-74681202D01*
X109094981Y-74630908D01*
X109094982Y-74630908D01*
X109035382Y-74624501D01*
X109035380Y-74624500D01*
X109035372Y-74624500D01*
X108014628Y-74624500D01*
X107997683Y-74626321D01*
X107928925Y-74613915D01*
X107896750Y-74590713D01*
X107577149Y-74271111D01*
X107561022Y-74251252D01*
X107555086Y-74242167D01*
X107555083Y-74242163D01*
X107527074Y-74220363D01*
X107521310Y-74215272D01*
X107518515Y-74212477D01*
X107499505Y-74198906D01*
X107456189Y-74165190D01*
X107449274Y-74161448D01*
X107442200Y-74157990D01*
X107389596Y-74142329D01*
X107337658Y-74124499D01*
X107329923Y-74123208D01*
X107322085Y-74122231D01*
X107267244Y-74124500D01*
X106596308Y-74124500D01*
X106529269Y-74104815D01*
X106494257Y-74070938D01*
X106490483Y-74065470D01*
X106372240Y-73960717D01*
X106372238Y-73960716D01*
X106372237Y-73960715D01*
X106232365Y-73887303D01*
X106078986Y-73849500D01*
X106078985Y-73849500D01*
X105921015Y-73849500D01*
X105921014Y-73849500D01*
X105767634Y-73887303D01*
X105627762Y-73960715D01*
X105509516Y-74065470D01*
X105507089Y-74068987D01*
X105505742Y-74070938D01*
X105451463Y-74114929D01*
X105403692Y-74124500D01*
X101301803Y-74124500D01*
X101276358Y-74121861D01*
X101265732Y-74119633D01*
X101265729Y-74119633D01*
X101230507Y-74124023D01*
X101222831Y-74124500D01*
X101218886Y-74124500D01*
X101201615Y-74127381D01*
X101195858Y-74128342D01*
X101141370Y-74135134D01*
X101133857Y-74137371D01*
X101126387Y-74139936D01*
X101078122Y-74166055D01*
X101028792Y-74190171D01*
X101022375Y-74194753D01*
X101016175Y-74199579D01*
X100978992Y-74239970D01*
X100521108Y-74697852D01*
X100501254Y-74713976D01*
X100492165Y-74719914D01*
X100492164Y-74719915D01*
X100470363Y-74747923D01*
X100465286Y-74753674D01*
X100462484Y-74756477D01*
X100462474Y-74756488D01*
X100448905Y-74775495D01*
X100415192Y-74818808D01*
X100411447Y-74825729D01*
X100407988Y-74832804D01*
X100392329Y-74885403D01*
X100374500Y-74937338D01*
X100373206Y-74945092D01*
X100372231Y-74952911D01*
X100374500Y-75007755D01*
X100374500Y-75793099D01*
X100354815Y-75860138D01*
X100338181Y-75880780D01*
X99880781Y-76338181D01*
X99819458Y-76371666D01*
X99793100Y-76374500D01*
X96051803Y-76374500D01*
X96026358Y-76371861D01*
X96015732Y-76369633D01*
X96015729Y-76369633D01*
X95980507Y-76374023D01*
X95972831Y-76374500D01*
X95968886Y-76374500D01*
X95957371Y-76376421D01*
X95945856Y-76378342D01*
X95927696Y-76380606D01*
X95891375Y-76385134D01*
X95891371Y-76385135D01*
X95883842Y-76387377D01*
X95876383Y-76389937D01*
X95828118Y-76416058D01*
X95778791Y-76440172D01*
X95772381Y-76444748D01*
X95766175Y-76449579D01*
X95728992Y-76489970D01*
X94771108Y-77447852D01*
X94751254Y-77463976D01*
X94742165Y-77469914D01*
X94742164Y-77469915D01*
X94720358Y-77497930D01*
X94715272Y-77503688D01*
X94714268Y-77504693D01*
X94712180Y-77506781D01*
X94650857Y-77540266D01*
X94581165Y-77535282D01*
X94525232Y-77493410D01*
X94500815Y-77427946D01*
X94500500Y-77419127D01*
X94500500Y-75924499D01*
X94520185Y-75857460D01*
X94572989Y-75811706D01*
X94624500Y-75800500D01*
X99975240Y-75800500D01*
X99975383Y-75800528D01*
X99975384Y-75800524D01*
X99999997Y-75800539D01*
X100000000Y-75800541D01*
X100000383Y-75800383D01*
X100000500Y-75800099D01*
X100000541Y-75800000D01*
X100000540Y-75799997D01*
X100000583Y-75775889D01*
X100000500Y-75775467D01*
X100000500Y-72500000D01*
X102144341Y-72500000D01*
X102164936Y-72735403D01*
X102164938Y-72735413D01*
X102226094Y-72963655D01*
X102226096Y-72963659D01*
X102226097Y-72963663D01*
X102276030Y-73070746D01*
X102325964Y-73177828D01*
X102325965Y-73177830D01*
X102461505Y-73371402D01*
X102628597Y-73538494D01*
X102822169Y-73674034D01*
X102822171Y-73674035D01*
X103036337Y-73773903D01*
X103264592Y-73835063D01*
X103441034Y-73850500D01*
X103558966Y-73850500D01*
X103735408Y-73835063D01*
X103963663Y-73773903D01*
X104177829Y-73674035D01*
X104371401Y-73538495D01*
X104538495Y-73371401D01*
X104674035Y-73177830D01*
X104773903Y-72963663D01*
X104835063Y-72735408D01*
X104855659Y-72500000D01*
X104835063Y-72264592D01*
X104773903Y-72036337D01*
X104674035Y-71822171D01*
X104674034Y-71822169D01*
X104538494Y-71628597D01*
X104409897Y-71500000D01*
X105844722Y-71500000D01*
X105863762Y-71656818D01*
X105919779Y-71804522D01*
X105919780Y-71804523D01*
X106009517Y-71934530D01*
X106127760Y-72039283D01*
X106127762Y-72039284D01*
X106267634Y-72112696D01*
X106421014Y-72150500D01*
X106421015Y-72150500D01*
X106578985Y-72150500D01*
X106732365Y-72112696D01*
X106732365Y-72112695D01*
X106872240Y-72039283D01*
X106990483Y-71934530D01*
X107080220Y-71804523D01*
X107136237Y-71656818D01*
X107155278Y-71500000D01*
X107136237Y-71343182D01*
X107129707Y-71325965D01*
X107091833Y-71226098D01*
X107080220Y-71195477D01*
X106990483Y-71065470D01*
X106872240Y-70960717D01*
X106872238Y-70960716D01*
X106872237Y-70960715D01*
X106732365Y-70887303D01*
X106578986Y-70849500D01*
X106578985Y-70849500D01*
X106421015Y-70849500D01*
X106421014Y-70849500D01*
X106267634Y-70887303D01*
X106127762Y-70960715D01*
X106009516Y-71065471D01*
X105919781Y-71195475D01*
X105919780Y-71195476D01*
X105863762Y-71343181D01*
X105844722Y-71499999D01*
X105844722Y-71500000D01*
X104409897Y-71500000D01*
X104371402Y-71461505D01*
X104177830Y-71325965D01*
X104177828Y-71325964D01*
X104070745Y-71276031D01*
X103963663Y-71226097D01*
X103963659Y-71226096D01*
X103963655Y-71226094D01*
X103735413Y-71164938D01*
X103735403Y-71164936D01*
X103558966Y-71149500D01*
X103441034Y-71149500D01*
X103264596Y-71164936D01*
X103264586Y-71164938D01*
X103036344Y-71226094D01*
X103036335Y-71226098D01*
X102822171Y-71325964D01*
X102822169Y-71325965D01*
X102628597Y-71461505D01*
X102461506Y-71628597D01*
X102461501Y-71628604D01*
X102325967Y-71822165D01*
X102325965Y-71822169D01*
X102226098Y-72036335D01*
X102226094Y-72036344D01*
X102164938Y-72264586D01*
X102164936Y-72264596D01*
X102144341Y-72499999D01*
X102144341Y-72500000D01*
X100000500Y-72500000D01*
X100000500Y-70124500D01*
X100020185Y-70057461D01*
X100072989Y-70011706D01*
X100124500Y-70000500D01*
X119875500Y-70000500D01*
X119942539Y-70020185D01*
G37*
%TD.AperFunction*%
%TD*%
D22*
X120000000Y-70000000D02*
X120000000Y-85250000D01*
X103300000Y-144500000D02*
X103300000Y-141500000D01*
X120000000Y-85250000D02*
X130000000Y-85250000D01*
X100000000Y-70000000D02*
X120000000Y-70000000D01*
X100000000Y-75800000D02*
X100000000Y-70000000D01*
X100000000Y-97750000D02*
X94500000Y-97750000D01*
X120000000Y-97750000D02*
X120000000Y-141500000D01*
X130000000Y-85250000D02*
X130000000Y-97750000D01*
X116700000Y-144500000D02*
X103300000Y-144500000D01*
X103300000Y-141500000D02*
X100000000Y-141500000D01*
X116700000Y-141500000D02*
X116700000Y-144500000D01*
X100000000Y-141500000D02*
X100000000Y-97750000D01*
X130000000Y-97750000D02*
X120000000Y-97750000D01*
X94500000Y-75800000D02*
X100000000Y-75800000D01*
X94500000Y-75800000D02*
X94500000Y-97750000D01*
X120000000Y-141500000D02*
X116700000Y-141500000D01*
D23*
%TO.C,R3*%
X116270000Y-93480000D02*
X116270000Y-90520000D01*
X117730000Y-93480000D02*
X116270000Y-93480000D01*
X116270000Y-90520000D02*
X117730000Y-90520000D01*
X117730000Y-90520000D02*
X117730000Y-93480000D01*
%TO.C,R9*%
X112980000Y-71770000D02*
X112980000Y-74730000D01*
X111520000Y-71770000D02*
X112980000Y-71770000D01*
X112980000Y-74730000D02*
X111520000Y-74730000D01*
X111520000Y-74730000D02*
X111520000Y-71770000D01*
%TO.C,R13*%
X111230000Y-71770000D02*
X111230000Y-74730000D01*
X109770000Y-71770000D02*
X111230000Y-71770000D01*
X111230000Y-74730000D02*
X109770000Y-74730000D01*
X109770000Y-74730000D02*
X109770000Y-71770000D01*
%TO.C,R8*%
X110480000Y-80230000D02*
X107520000Y-80230000D01*
X110480000Y-78770000D02*
X110480000Y-80230000D01*
X107520000Y-80230000D02*
X107520000Y-78770000D01*
X107520000Y-78770000D02*
X110480000Y-78770000D01*
%TO.C,C1*%
X104445000Y-92270000D02*
X107405000Y-92270000D01*
X104445000Y-93730000D02*
X104445000Y-92270000D01*
X107405000Y-92270000D02*
X107405000Y-93730000D01*
X107405000Y-93730000D02*
X104445000Y-93730000D01*
%TO.C,H1*%
X104650000Y-139200000D02*
G75*
G03*
X104650000Y-139200000I-2150000J0D01*
G01*
%TO.C,C2*%
X108520000Y-88520000D02*
X111480000Y-88520000D01*
X108520000Y-89980000D02*
X108520000Y-88520000D01*
X111480000Y-88520000D02*
X111480000Y-89980000D01*
X111480000Y-89980000D02*
X108520000Y-89980000D01*
%TO.C,Q3*%
X119642500Y-91550000D02*
X119642500Y-94950000D01*
X119642500Y-94950000D02*
X123482500Y-94950000D01*
X123482500Y-91550000D02*
X119642500Y-91550000D01*
X123482500Y-94950000D02*
X123482500Y-91550000D01*
%TO.C,U5*%
X105875000Y-136675000D02*
X109275000Y-136675000D01*
X109275000Y-136675000D02*
X109275000Y-132575000D01*
X105875000Y-132575000D02*
X105875000Y-136675000D01*
X109275000Y-132575000D02*
X105875000Y-132575000D01*
%TO.C,R11*%
X107520000Y-82270000D02*
X110480000Y-82270000D01*
X107520000Y-83730000D02*
X107520000Y-82270000D01*
X110480000Y-82270000D02*
X110480000Y-83730000D01*
X110480000Y-83730000D02*
X107520000Y-83730000D01*
%TO.C,U4*%
X112985000Y-93485000D02*
X112985000Y-90665000D01*
X116065000Y-93485000D02*
X112985000Y-93485000D01*
X112985000Y-90665000D02*
X116065000Y-90665000D01*
X116065000Y-90665000D02*
X116065000Y-93485000D01*
%TO.C,TP4*%
X110900000Y-130100000D02*
G75*
G03*
X110900000Y-130100000I-1000000J0D01*
G01*
D24*
%TO.C,U3*%
X108318201Y-93834200D02*
X108318201Y-93529400D01*
X110781801Y-93834200D02*
X108318201Y-93834200D01*
X110781801Y-93834200D02*
X110781801Y-93529400D01*
X108076801Y-93529400D02*
X108076801Y-90583000D01*
X108318201Y-93529400D02*
X108076801Y-93529400D01*
X111023201Y-93529400D02*
X110781801Y-93529400D01*
X108076801Y-90583000D02*
X108318201Y-90583000D01*
X110781801Y-90583000D02*
X111023201Y-90583000D01*
X111023201Y-90583000D02*
X111023201Y-93529400D01*
X108318201Y-90278200D02*
X108318201Y-90583000D01*
X108318201Y-90278200D02*
X110781801Y-90278200D01*
X110781801Y-90278200D02*
X110781801Y-90583000D01*
D23*
%TO.C,H2*%
X119650000Y-139200000D02*
G75*
G03*
X119650000Y-139200000I-2150000J0D01*
G01*
%TO.C,C7*%
X112480000Y-81770000D02*
X112480000Y-84730000D01*
X111020000Y-81770000D02*
X112480000Y-81770000D01*
X112480000Y-84730000D02*
X111020000Y-84730000D01*
X111020000Y-84730000D02*
X111020000Y-81770000D01*
%TO.C,H3*%
X105650000Y-72500000D02*
G75*
G03*
X105650000Y-72500000I-2150000J0D01*
G01*
%TO.C,R15*%
X111770000Y-136605000D02*
X111770000Y-133645000D01*
X113230000Y-136605000D02*
X111770000Y-136605000D01*
X111770000Y-133645000D02*
X113230000Y-133645000D01*
X113230000Y-133645000D02*
X113230000Y-136605000D01*
%TO.C,U2*%
X88900000Y-91700000D02*
X88900000Y-78100000D01*
X105900000Y-91700000D02*
X88900000Y-91700000D01*
X88900000Y-78100000D02*
X105900000Y-78100000D01*
X105900000Y-78100000D02*
X105900000Y-91700000D01*
D24*
%TO.C,J2*%
X118608200Y-76002199D02*
X112715400Y-76002199D01*
X112715400Y-76002199D02*
X112715400Y-87497801D01*
X118608200Y-87497801D02*
X118608200Y-76002199D01*
X112715400Y-87497801D02*
X118608200Y-87497801D01*
D23*
%TO.C,TP2*%
X118600000Y-74300000D02*
G75*
G03*
X118600000Y-74300000I-1000000J0D01*
G01*
%TO.C,C11*%
X105845000Y-130895000D02*
X108805000Y-130895000D01*
X105845000Y-132355000D02*
X105845000Y-130895000D01*
X108805000Y-130895000D02*
X108805000Y-132355000D01*
X108805000Y-132355000D02*
X105845000Y-132355000D01*
%TO.C,D7*%
X111375000Y-137370000D02*
X111375000Y-137930000D01*
X111375000Y-137930000D02*
X111575000Y-137930000D01*
X111575000Y-137200000D02*
X112675000Y-137200000D01*
X111575000Y-137370000D02*
X111375000Y-137370000D01*
X111575000Y-137370000D02*
X111575000Y-137200000D01*
X111575000Y-138100000D02*
X111575000Y-137930000D01*
X112675000Y-137200000D02*
X112675000Y-137370000D01*
X112675000Y-137370000D02*
X112875000Y-137370000D01*
X112675000Y-137930000D02*
X112675000Y-138100000D01*
X112675000Y-138100000D02*
X111575000Y-138100000D01*
X112875000Y-137370000D02*
X112875000Y-137930000D01*
X112875000Y-137930000D02*
X112675000Y-137930000D01*
%TO.C,R12*%
X109480000Y-71770000D02*
X109480000Y-74730000D01*
X108020000Y-71770000D02*
X109480000Y-71770000D01*
X109480000Y-74730000D02*
X108020000Y-74730000D01*
X108020000Y-74730000D02*
X108020000Y-71770000D01*
%TO.C,R14*%
X106270000Y-74767500D02*
X106270000Y-71807500D01*
X107730000Y-74767500D02*
X106270000Y-74767500D01*
X106270000Y-71807500D02*
X107730000Y-71807500D01*
X107730000Y-71807500D02*
X107730000Y-74767500D01*
%TO.C,R10*%
X107520000Y-80520000D02*
X110480000Y-80520000D01*
X107520000Y-81980000D02*
X107520000Y-80520000D01*
X110480000Y-80520000D02*
X110480000Y-81980000D01*
X110480000Y-81980000D02*
X107520000Y-81980000D01*
%TO.C,R1*%
X107405000Y-95480000D02*
X104445000Y-95480000D01*
X107405000Y-94020000D02*
X107405000Y-95480000D01*
X104445000Y-95480000D02*
X104445000Y-94020000D01*
X104445000Y-94020000D02*
X107405000Y-94020000D01*
%TO.C,R20*%
X109770000Y-136605000D02*
X109770000Y-133645000D01*
X111230000Y-136605000D02*
X109770000Y-136605000D01*
X109770000Y-133645000D02*
X111230000Y-133645000D01*
X111230000Y-133645000D02*
X111230000Y-136605000D01*
%TO.C,D2*%
X100845000Y-134855000D02*
X100845000Y-131895000D01*
X102305000Y-134855000D02*
X100845000Y-134855000D01*
X100845000Y-131895000D02*
X102305000Y-131895000D01*
X102305000Y-131895000D02*
X102305000Y-134855000D01*
%TO.C,C10*%
X104095000Y-136605000D02*
X104095000Y-133645000D01*
X105555000Y-136605000D02*
X104095000Y-136605000D01*
X104095000Y-133645000D02*
X105555000Y-133645000D01*
X105555000Y-133645000D02*
X105555000Y-136605000D01*
%TO.C,R5*%
X99080000Y-77730000D02*
X96120000Y-77730000D01*
X99080000Y-76270000D02*
X99080000Y-77730000D01*
X96120000Y-77730000D02*
X96120000Y-76270000D01*
X96120000Y-76270000D02*
X99080000Y-76270000D01*
%TO.C,J1*%
X123675000Y-96245000D02*
X129575000Y-96245000D01*
X129575000Y-96245000D02*
X129575000Y-86805000D01*
X123675000Y-86805000D02*
X123675000Y-96245000D01*
X129575000Y-86805000D02*
X123675000Y-86805000D01*
%TO.C,R6*%
X99520000Y-76270000D02*
X102480000Y-76270000D01*
X99520000Y-77730000D02*
X99520000Y-76270000D01*
X102480000Y-76270000D02*
X102480000Y-77730000D01*
X102480000Y-77730000D02*
X99520000Y-77730000D01*
%TO.C,R16*%
X112330000Y-76095000D02*
X112330000Y-79055000D01*
X110870000Y-76095000D02*
X112330000Y-76095000D01*
X112330000Y-79055000D02*
X110870000Y-79055000D01*
X110870000Y-79055000D02*
X110870000Y-76095000D01*
%TO.C,C5*%
X115980000Y-95230000D02*
X113020000Y-95230000D01*
X115980000Y-93770000D02*
X115980000Y-95230000D01*
X113020000Y-95230000D02*
X113020000Y-93770000D01*
X113020000Y-93770000D02*
X115980000Y-93770000D01*
%TO.C,SW1*%
X104150000Y-95600000D02*
X98550000Y-95600000D01*
X104150000Y-92000000D02*
X104150000Y-95600000D01*
X98550000Y-95600000D02*
X98550000Y-92000000D01*
X98550000Y-92000000D02*
X104150000Y-92000000D01*
%TO.C,R2*%
X105555000Y-133355000D02*
X102595000Y-133355000D01*
X105555000Y-131895000D02*
X105555000Y-133355000D01*
X102595000Y-133355000D02*
X102595000Y-131895000D01*
X102595000Y-131895000D02*
X105555000Y-131895000D01*
%TO.C,C4*%
X109480000Y-94020000D02*
X109480000Y-96980000D01*
X108020000Y-94020000D02*
X109480000Y-94020000D01*
X109480000Y-96980000D02*
X108020000Y-96980000D01*
X108020000Y-96980000D02*
X108020000Y-94020000D01*
%TO.C,R4*%
X109770000Y-96980000D02*
X109770000Y-94020000D01*
X111230000Y-96980000D02*
X109770000Y-96980000D01*
X109770000Y-94020000D02*
X111230000Y-94020000D01*
X111230000Y-94020000D02*
X111230000Y-96980000D01*
%TO.C,C3*%
X98130000Y-92320000D02*
X98130000Y-95280000D01*
X96670000Y-92320000D02*
X98130000Y-92320000D01*
X98130000Y-95280000D02*
X96670000Y-95280000D01*
X96670000Y-95280000D02*
X96670000Y-92320000D01*
%TO.C,TP3*%
X116200000Y-74300000D02*
G75*
G03*
X116200000Y-74300000I-1000000J0D01*
G01*
%TO.C,C6*%
X96330000Y-92320000D02*
X96330000Y-95280000D01*
X94870000Y-92320000D02*
X96330000Y-92320000D01*
X96330000Y-95280000D02*
X94870000Y-95280000D01*
X94870000Y-95280000D02*
X94870000Y-92320000D01*
%TO.C,D1*%
X123425000Y-86950000D02*
X121125000Y-86950000D01*
X123425000Y-86950000D02*
X123425000Y-91350000D01*
X123425000Y-91350000D02*
X121125000Y-91350000D01*
X121125000Y-91350000D02*
X121125000Y-86950000D01*
%TO.C,R7*%
X102920000Y-76270000D02*
X105880000Y-76270000D01*
X102920000Y-77730000D02*
X102920000Y-76270000D01*
X105880000Y-76270000D02*
X105880000Y-77730000D01*
X105880000Y-77730000D02*
X102920000Y-77730000D01*
%TO.C,TP1*%
X121000000Y-90000000D02*
G75*
G03*
X121000000Y-90000000I-1000000J0D01*
G01*
%TO.C,Q1*%
X106642500Y-75050000D02*
X106642500Y-78450000D01*
X106642500Y-78450000D02*
X110482500Y-78450000D01*
X110482500Y-75050000D02*
X106642500Y-75050000D01*
X110482500Y-78450000D02*
X110482500Y-75050000D01*
%TD*%
D25*
X117181927Y-92066666D02*
X116991451Y-92199999D01*
X117181927Y-92295237D02*
X116781927Y-92295237D01*
X116781927Y-92295237D02*
X116781927Y-92142856D01*
X116781927Y-92142856D02*
X116800975Y-92104761D01*
X116800975Y-92104761D02*
X116820022Y-92085714D01*
X116820022Y-92085714D02*
X116858118Y-92066666D01*
X116858118Y-92066666D02*
X116915260Y-92066666D01*
X116915260Y-92066666D02*
X116953356Y-92085714D01*
X116953356Y-92085714D02*
X116972403Y-92104761D01*
X116972403Y-92104761D02*
X116991451Y-92142856D01*
X116991451Y-92142856D02*
X116991451Y-92295237D01*
X116781927Y-91933333D02*
X116781927Y-91685714D01*
X116781927Y-91685714D02*
X116934308Y-91819047D01*
X116934308Y-91819047D02*
X116934308Y-91761904D01*
X116934308Y-91761904D02*
X116953356Y-91723809D01*
X116953356Y-91723809D02*
X116972403Y-91704761D01*
X116972403Y-91704761D02*
X117010499Y-91685714D01*
X117010499Y-91685714D02*
X117105737Y-91685714D01*
X117105737Y-91685714D02*
X117143832Y-91704761D01*
X117143832Y-91704761D02*
X117162880Y-91723809D01*
X117162880Y-91723809D02*
X117181927Y-91761904D01*
X117181927Y-91761904D02*
X117181927Y-91876190D01*
X117181927Y-91876190D02*
X117162880Y-91914285D01*
X117162880Y-91914285D02*
X117143832Y-91933333D01*
X112431927Y-73316666D02*
X112241451Y-73449999D01*
X112431927Y-73545237D02*
X112031927Y-73545237D01*
X112031927Y-73545237D02*
X112031927Y-73392856D01*
X112031927Y-73392856D02*
X112050975Y-73354761D01*
X112050975Y-73354761D02*
X112070022Y-73335714D01*
X112070022Y-73335714D02*
X112108118Y-73316666D01*
X112108118Y-73316666D02*
X112165260Y-73316666D01*
X112165260Y-73316666D02*
X112203356Y-73335714D01*
X112203356Y-73335714D02*
X112222403Y-73354761D01*
X112222403Y-73354761D02*
X112241451Y-73392856D01*
X112241451Y-73392856D02*
X112241451Y-73545237D01*
X112431927Y-73126190D02*
X112431927Y-73049999D01*
X112431927Y-73049999D02*
X112412880Y-73011904D01*
X112412880Y-73011904D02*
X112393832Y-72992856D01*
X112393832Y-72992856D02*
X112336689Y-72954761D01*
X112336689Y-72954761D02*
X112260499Y-72935714D01*
X112260499Y-72935714D02*
X112108118Y-72935714D01*
X112108118Y-72935714D02*
X112070022Y-72954761D01*
X112070022Y-72954761D02*
X112050975Y-72973809D01*
X112050975Y-72973809D02*
X112031927Y-73011904D01*
X112031927Y-73011904D02*
X112031927Y-73088095D01*
X112031927Y-73088095D02*
X112050975Y-73126190D01*
X112050975Y-73126190D02*
X112070022Y-73145237D01*
X112070022Y-73145237D02*
X112108118Y-73164285D01*
X112108118Y-73164285D02*
X112203356Y-73164285D01*
X112203356Y-73164285D02*
X112241451Y-73145237D01*
X112241451Y-73145237D02*
X112260499Y-73126190D01*
X112260499Y-73126190D02*
X112279546Y-73088095D01*
X112279546Y-73088095D02*
X112279546Y-73011904D01*
X112279546Y-73011904D02*
X112260499Y-72973809D01*
X112260499Y-72973809D02*
X112241451Y-72954761D01*
X112241451Y-72954761D02*
X112203356Y-72935714D01*
X110681927Y-73507142D02*
X110491451Y-73640475D01*
X110681927Y-73735713D02*
X110281927Y-73735713D01*
X110281927Y-73735713D02*
X110281927Y-73583332D01*
X110281927Y-73583332D02*
X110300975Y-73545237D01*
X110300975Y-73545237D02*
X110320022Y-73526190D01*
X110320022Y-73526190D02*
X110358118Y-73507142D01*
X110358118Y-73507142D02*
X110415260Y-73507142D01*
X110415260Y-73507142D02*
X110453356Y-73526190D01*
X110453356Y-73526190D02*
X110472403Y-73545237D01*
X110472403Y-73545237D02*
X110491451Y-73583332D01*
X110491451Y-73583332D02*
X110491451Y-73735713D01*
X110681927Y-73126190D02*
X110681927Y-73354761D01*
X110681927Y-73240475D02*
X110281927Y-73240475D01*
X110281927Y-73240475D02*
X110339070Y-73278571D01*
X110339070Y-73278571D02*
X110377165Y-73316666D01*
X110377165Y-73316666D02*
X110396213Y-73354761D01*
X110281927Y-72992857D02*
X110281927Y-72745238D01*
X110281927Y-72745238D02*
X110434308Y-72878571D01*
X110434308Y-72878571D02*
X110434308Y-72821428D01*
X110434308Y-72821428D02*
X110453356Y-72783333D01*
X110453356Y-72783333D02*
X110472403Y-72764285D01*
X110472403Y-72764285D02*
X110510499Y-72745238D01*
X110510499Y-72745238D02*
X110605737Y-72745238D01*
X110605737Y-72745238D02*
X110643832Y-72764285D01*
X110643832Y-72764285D02*
X110662880Y-72783333D01*
X110662880Y-72783333D02*
X110681927Y-72821428D01*
X110681927Y-72821428D02*
X110681927Y-72935714D01*
X110681927Y-72935714D02*
X110662880Y-72973809D01*
X110662880Y-72973809D02*
X110643832Y-72992857D01*
X108933333Y-79681927D02*
X108800000Y-79491451D01*
X108704762Y-79681927D02*
X108704762Y-79281927D01*
X108704762Y-79281927D02*
X108857143Y-79281927D01*
X108857143Y-79281927D02*
X108895238Y-79300975D01*
X108895238Y-79300975D02*
X108914285Y-79320022D01*
X108914285Y-79320022D02*
X108933333Y-79358118D01*
X108933333Y-79358118D02*
X108933333Y-79415260D01*
X108933333Y-79415260D02*
X108914285Y-79453356D01*
X108914285Y-79453356D02*
X108895238Y-79472403D01*
X108895238Y-79472403D02*
X108857143Y-79491451D01*
X108857143Y-79491451D02*
X108704762Y-79491451D01*
X109161904Y-79453356D02*
X109123809Y-79434308D01*
X109123809Y-79434308D02*
X109104762Y-79415260D01*
X109104762Y-79415260D02*
X109085714Y-79377165D01*
X109085714Y-79377165D02*
X109085714Y-79358118D01*
X109085714Y-79358118D02*
X109104762Y-79320022D01*
X109104762Y-79320022D02*
X109123809Y-79300975D01*
X109123809Y-79300975D02*
X109161904Y-79281927D01*
X109161904Y-79281927D02*
X109238095Y-79281927D01*
X109238095Y-79281927D02*
X109276190Y-79300975D01*
X109276190Y-79300975D02*
X109295238Y-79320022D01*
X109295238Y-79320022D02*
X109314285Y-79358118D01*
X109314285Y-79358118D02*
X109314285Y-79377165D01*
X109314285Y-79377165D02*
X109295238Y-79415260D01*
X109295238Y-79415260D02*
X109276190Y-79434308D01*
X109276190Y-79434308D02*
X109238095Y-79453356D01*
X109238095Y-79453356D02*
X109161904Y-79453356D01*
X109161904Y-79453356D02*
X109123809Y-79472403D01*
X109123809Y-79472403D02*
X109104762Y-79491451D01*
X109104762Y-79491451D02*
X109085714Y-79529546D01*
X109085714Y-79529546D02*
X109085714Y-79605737D01*
X109085714Y-79605737D02*
X109104762Y-79643832D01*
X109104762Y-79643832D02*
X109123809Y-79662880D01*
X109123809Y-79662880D02*
X109161904Y-79681927D01*
X109161904Y-79681927D02*
X109238095Y-79681927D01*
X109238095Y-79681927D02*
X109276190Y-79662880D01*
X109276190Y-79662880D02*
X109295238Y-79643832D01*
X109295238Y-79643832D02*
X109314285Y-79605737D01*
X109314285Y-79605737D02*
X109314285Y-79529546D01*
X109314285Y-79529546D02*
X109295238Y-79491451D01*
X109295238Y-79491451D02*
X109276190Y-79472403D01*
X109276190Y-79472403D02*
X109238095Y-79453356D01*
X105858333Y-93143832D02*
X105839285Y-93162880D01*
X105839285Y-93162880D02*
X105782143Y-93181927D01*
X105782143Y-93181927D02*
X105744047Y-93181927D01*
X105744047Y-93181927D02*
X105686904Y-93162880D01*
X105686904Y-93162880D02*
X105648809Y-93124784D01*
X105648809Y-93124784D02*
X105629762Y-93086689D01*
X105629762Y-93086689D02*
X105610714Y-93010499D01*
X105610714Y-93010499D02*
X105610714Y-92953356D01*
X105610714Y-92953356D02*
X105629762Y-92877165D01*
X105629762Y-92877165D02*
X105648809Y-92839070D01*
X105648809Y-92839070D02*
X105686904Y-92800975D01*
X105686904Y-92800975D02*
X105744047Y-92781927D01*
X105744047Y-92781927D02*
X105782143Y-92781927D01*
X105782143Y-92781927D02*
X105839285Y-92800975D01*
X105839285Y-92800975D02*
X105858333Y-92820022D01*
X106239285Y-93181927D02*
X106010714Y-93181927D01*
X106125000Y-93181927D02*
X106125000Y-92781927D01*
X106125000Y-92781927D02*
X106086904Y-92839070D01*
X106086904Y-92839070D02*
X106048809Y-92877165D01*
X106048809Y-92877165D02*
X106010714Y-92896213D01*
D26*
X101738095Y-139654819D02*
X101738095Y-138654819D01*
X101738095Y-139131009D02*
X102309523Y-139131009D01*
X102309523Y-139654819D02*
X102309523Y-138654819D01*
X103309523Y-139654819D02*
X102738095Y-139654819D01*
X103023809Y-139654819D02*
X103023809Y-138654819D01*
X103023809Y-138654819D02*
X102928571Y-138797676D01*
X102928571Y-138797676D02*
X102833333Y-138892914D01*
X102833333Y-138892914D02*
X102738095Y-138940533D01*
D25*
X109933333Y-89393832D02*
X109914285Y-89412880D01*
X109914285Y-89412880D02*
X109857143Y-89431927D01*
X109857143Y-89431927D02*
X109819047Y-89431927D01*
X109819047Y-89431927D02*
X109761904Y-89412880D01*
X109761904Y-89412880D02*
X109723809Y-89374784D01*
X109723809Y-89374784D02*
X109704762Y-89336689D01*
X109704762Y-89336689D02*
X109685714Y-89260499D01*
X109685714Y-89260499D02*
X109685714Y-89203356D01*
X109685714Y-89203356D02*
X109704762Y-89127165D01*
X109704762Y-89127165D02*
X109723809Y-89089070D01*
X109723809Y-89089070D02*
X109761904Y-89050975D01*
X109761904Y-89050975D02*
X109819047Y-89031927D01*
X109819047Y-89031927D02*
X109857143Y-89031927D01*
X109857143Y-89031927D02*
X109914285Y-89050975D01*
X109914285Y-89050975D02*
X109933333Y-89070022D01*
X110085714Y-89070022D02*
X110104762Y-89050975D01*
X110104762Y-89050975D02*
X110142857Y-89031927D01*
X110142857Y-89031927D02*
X110238095Y-89031927D01*
X110238095Y-89031927D02*
X110276190Y-89050975D01*
X110276190Y-89050975D02*
X110295238Y-89070022D01*
X110295238Y-89070022D02*
X110314285Y-89108118D01*
X110314285Y-89108118D02*
X110314285Y-89146213D01*
X110314285Y-89146213D02*
X110295238Y-89203356D01*
X110295238Y-89203356D02*
X110066666Y-89431927D01*
X110066666Y-89431927D02*
X110314285Y-89431927D01*
X107356927Y-134929761D02*
X107680737Y-134929761D01*
X107680737Y-134929761D02*
X107718832Y-134910714D01*
X107718832Y-134910714D02*
X107737880Y-134891666D01*
X107737880Y-134891666D02*
X107756927Y-134853571D01*
X107756927Y-134853571D02*
X107756927Y-134777380D01*
X107756927Y-134777380D02*
X107737880Y-134739285D01*
X107737880Y-134739285D02*
X107718832Y-134720238D01*
X107718832Y-134720238D02*
X107680737Y-134701190D01*
X107680737Y-134701190D02*
X107356927Y-134701190D01*
X107356927Y-134320237D02*
X107356927Y-134510713D01*
X107356927Y-134510713D02*
X107547403Y-134529761D01*
X107547403Y-134529761D02*
X107528356Y-134510713D01*
X107528356Y-134510713D02*
X107509308Y-134472618D01*
X107509308Y-134472618D02*
X107509308Y-134377380D01*
X107509308Y-134377380D02*
X107528356Y-134339285D01*
X107528356Y-134339285D02*
X107547403Y-134320237D01*
X107547403Y-134320237D02*
X107585499Y-134301190D01*
X107585499Y-134301190D02*
X107680737Y-134301190D01*
X107680737Y-134301190D02*
X107718832Y-134320237D01*
X107718832Y-134320237D02*
X107737880Y-134339285D01*
X107737880Y-134339285D02*
X107756927Y-134377380D01*
X107756927Y-134377380D02*
X107756927Y-134472618D01*
X107756927Y-134472618D02*
X107737880Y-134510713D01*
X107737880Y-134510713D02*
X107718832Y-134529761D01*
X108742857Y-83181927D02*
X108609524Y-82991451D01*
X108514286Y-83181927D02*
X108514286Y-82781927D01*
X108514286Y-82781927D02*
X108666667Y-82781927D01*
X108666667Y-82781927D02*
X108704762Y-82800975D01*
X108704762Y-82800975D02*
X108723809Y-82820022D01*
X108723809Y-82820022D02*
X108742857Y-82858118D01*
X108742857Y-82858118D02*
X108742857Y-82915260D01*
X108742857Y-82915260D02*
X108723809Y-82953356D01*
X108723809Y-82953356D02*
X108704762Y-82972403D01*
X108704762Y-82972403D02*
X108666667Y-82991451D01*
X108666667Y-82991451D02*
X108514286Y-82991451D01*
X109123809Y-83181927D02*
X108895238Y-83181927D01*
X109009524Y-83181927D02*
X109009524Y-82781927D01*
X109009524Y-82781927D02*
X108971428Y-82839070D01*
X108971428Y-82839070D02*
X108933333Y-82877165D01*
X108933333Y-82877165D02*
X108895238Y-82896213D01*
X109504761Y-83181927D02*
X109276190Y-83181927D01*
X109390476Y-83181927D02*
X109390476Y-82781927D01*
X109390476Y-82781927D02*
X109352380Y-82839070D01*
X109352380Y-82839070D02*
X109314285Y-82877165D01*
X109314285Y-82877165D02*
X109276190Y-82896213D01*
D26*
X110738094Y-141795182D02*
X110738094Y-142795182D01*
X110738094Y-142795182D02*
X110357142Y-142795182D01*
X110357142Y-142795182D02*
X110261904Y-142747563D01*
X110261904Y-142747563D02*
X110214285Y-142699944D01*
X110214285Y-142699944D02*
X110166666Y-142604706D01*
X110166666Y-142604706D02*
X110166666Y-142461849D01*
X110166666Y-142461849D02*
X110214285Y-142366611D01*
X110214285Y-142366611D02*
X110261904Y-142318992D01*
X110261904Y-142318992D02*
X110357142Y-142271373D01*
X110357142Y-142271373D02*
X110738094Y-142271373D01*
X109214285Y-141795182D02*
X109785713Y-141795182D01*
X109499999Y-141795182D02*
X109499999Y-142795182D01*
X109499999Y-142795182D02*
X109595237Y-142652325D01*
X109595237Y-142652325D02*
X109690475Y-142557087D01*
X109690475Y-142557087D02*
X109785713Y-142509468D01*
D27*
X114252409Y-92455952D02*
X114657171Y-92455952D01*
X114657171Y-92455952D02*
X114704790Y-92432142D01*
X114704790Y-92432142D02*
X114728600Y-92408333D01*
X114728600Y-92408333D02*
X114752409Y-92360714D01*
X114752409Y-92360714D02*
X114752409Y-92265476D01*
X114752409Y-92265476D02*
X114728600Y-92217857D01*
X114728600Y-92217857D02*
X114704790Y-92194047D01*
X114704790Y-92194047D02*
X114657171Y-92170238D01*
X114657171Y-92170238D02*
X114252409Y-92170238D01*
X114419076Y-91717856D02*
X114752409Y-91717856D01*
X114228600Y-91836904D02*
X114585742Y-91955951D01*
X114585742Y-91955951D02*
X114585742Y-91646428D01*
D26*
X109004820Y-92818104D02*
X109814343Y-92818104D01*
X109814343Y-92818104D02*
X109909581Y-92770485D01*
X109909581Y-92770485D02*
X109957201Y-92722866D01*
X109957201Y-92722866D02*
X110004820Y-92627628D01*
X110004820Y-92627628D02*
X110004820Y-92437152D01*
X110004820Y-92437152D02*
X109957201Y-92341914D01*
X109957201Y-92341914D02*
X109909581Y-92294295D01*
X109909581Y-92294295D02*
X109814343Y-92246676D01*
X109814343Y-92246676D02*
X109004820Y-92246676D01*
X109004820Y-91865723D02*
X109004820Y-91246676D01*
X109004820Y-91246676D02*
X109385772Y-91580009D01*
X109385772Y-91580009D02*
X109385772Y-91437152D01*
X109385772Y-91437152D02*
X109433391Y-91341914D01*
X109433391Y-91341914D02*
X109481010Y-91294295D01*
X109481010Y-91294295D02*
X109576248Y-91246676D01*
X109576248Y-91246676D02*
X109814343Y-91246676D01*
X109814343Y-91246676D02*
X109909581Y-91294295D01*
X109909581Y-91294295D02*
X109957201Y-91341914D01*
X109957201Y-91341914D02*
X110004820Y-91437152D01*
X110004820Y-91437152D02*
X110004820Y-91722866D01*
X110004820Y-91722866D02*
X109957201Y-91818104D01*
X109957201Y-91818104D02*
X109909581Y-91865723D01*
X116738095Y-139654819D02*
X116738095Y-138654819D01*
X116738095Y-139131009D02*
X117309523Y-139131009D01*
X117309523Y-139654819D02*
X117309523Y-138654819D01*
X117738095Y-138750057D02*
X117785714Y-138702438D01*
X117785714Y-138702438D02*
X117880952Y-138654819D01*
X117880952Y-138654819D02*
X118119047Y-138654819D01*
X118119047Y-138654819D02*
X118214285Y-138702438D01*
X118214285Y-138702438D02*
X118261904Y-138750057D01*
X118261904Y-138750057D02*
X118309523Y-138845295D01*
X118309523Y-138845295D02*
X118309523Y-138940533D01*
X118309523Y-138940533D02*
X118261904Y-139083390D01*
X118261904Y-139083390D02*
X117690476Y-139654819D01*
X117690476Y-139654819D02*
X118309523Y-139654819D01*
X102738095Y-72954819D02*
X102738095Y-71954819D01*
X102738095Y-72431009D02*
X103309523Y-72431009D01*
X103309523Y-72954819D02*
X103309523Y-71954819D01*
X103690476Y-71954819D02*
X104309523Y-71954819D01*
X104309523Y-71954819D02*
X103976190Y-72335771D01*
X103976190Y-72335771D02*
X104119047Y-72335771D01*
X104119047Y-72335771D02*
X104214285Y-72383390D01*
X104214285Y-72383390D02*
X104261904Y-72431009D01*
X104261904Y-72431009D02*
X104309523Y-72526247D01*
X104309523Y-72526247D02*
X104309523Y-72764342D01*
X104309523Y-72764342D02*
X104261904Y-72859580D01*
X104261904Y-72859580D02*
X104214285Y-72907200D01*
X104214285Y-72907200D02*
X104119047Y-72954819D01*
X104119047Y-72954819D02*
X103833333Y-72954819D01*
X103833333Y-72954819D02*
X103738095Y-72907200D01*
X103738095Y-72907200D02*
X103690476Y-72859580D01*
D25*
X112681927Y-135382142D02*
X112491451Y-135515475D01*
X112681927Y-135610713D02*
X112281927Y-135610713D01*
X112281927Y-135610713D02*
X112281927Y-135458332D01*
X112281927Y-135458332D02*
X112300975Y-135420237D01*
X112300975Y-135420237D02*
X112320022Y-135401190D01*
X112320022Y-135401190D02*
X112358118Y-135382142D01*
X112358118Y-135382142D02*
X112415260Y-135382142D01*
X112415260Y-135382142D02*
X112453356Y-135401190D01*
X112453356Y-135401190D02*
X112472403Y-135420237D01*
X112472403Y-135420237D02*
X112491451Y-135458332D01*
X112491451Y-135458332D02*
X112491451Y-135610713D01*
X112681927Y-135001190D02*
X112681927Y-135229761D01*
X112681927Y-135115475D02*
X112281927Y-135115475D01*
X112281927Y-135115475D02*
X112339070Y-135153571D01*
X112339070Y-135153571D02*
X112377165Y-135191666D01*
X112377165Y-135191666D02*
X112396213Y-135229761D01*
X112281927Y-134639285D02*
X112281927Y-134829761D01*
X112281927Y-134829761D02*
X112472403Y-134848809D01*
X112472403Y-134848809D02*
X112453356Y-134829761D01*
X112453356Y-134829761D02*
X112434308Y-134791666D01*
X112434308Y-134791666D02*
X112434308Y-134696428D01*
X112434308Y-134696428D02*
X112453356Y-134658333D01*
X112453356Y-134658333D02*
X112472403Y-134639285D01*
X112472403Y-134639285D02*
X112510499Y-134620238D01*
X112510499Y-134620238D02*
X112605737Y-134620238D01*
X112605737Y-134620238D02*
X112643832Y-134639285D01*
X112643832Y-134639285D02*
X112662880Y-134658333D01*
X112662880Y-134658333D02*
X112681927Y-134696428D01*
X112681927Y-134696428D02*
X112681927Y-134791666D01*
X112681927Y-134791666D02*
X112662880Y-134829761D01*
X112662880Y-134829761D02*
X112643832Y-134848809D01*
D26*
X99554819Y-85661904D02*
X100364342Y-85661904D01*
X100364342Y-85661904D02*
X100459580Y-85614285D01*
X100459580Y-85614285D02*
X100507200Y-85566666D01*
X100507200Y-85566666D02*
X100554819Y-85471428D01*
X100554819Y-85471428D02*
X100554819Y-85280952D01*
X100554819Y-85280952D02*
X100507200Y-85185714D01*
X100507200Y-85185714D02*
X100459580Y-85138095D01*
X100459580Y-85138095D02*
X100364342Y-85090476D01*
X100364342Y-85090476D02*
X99554819Y-85090476D01*
X99650057Y-84661904D02*
X99602438Y-84614285D01*
X99602438Y-84614285D02*
X99554819Y-84519047D01*
X99554819Y-84519047D02*
X99554819Y-84280952D01*
X99554819Y-84280952D02*
X99602438Y-84185714D01*
X99602438Y-84185714D02*
X99650057Y-84138095D01*
X99650057Y-84138095D02*
X99745295Y-84090476D01*
X99745295Y-84090476D02*
X99840533Y-84090476D01*
X99840533Y-84090476D02*
X99983390Y-84138095D01*
X99983390Y-84138095D02*
X100554819Y-84709523D01*
X100554819Y-84709523D02*
X100554819Y-84090476D01*
X115190980Y-81416666D02*
X114476695Y-81416666D01*
X114476695Y-81416666D02*
X114333838Y-81369047D01*
X114333838Y-81369047D02*
X114238600Y-81273809D01*
X114238600Y-81273809D02*
X114190980Y-81130952D01*
X114190980Y-81130952D02*
X114190980Y-81035714D01*
X115095742Y-81845238D02*
X115143361Y-81892857D01*
X115143361Y-81892857D02*
X115190980Y-81988095D01*
X115190980Y-81988095D02*
X115190980Y-82226190D01*
X115190980Y-82226190D02*
X115143361Y-82321428D01*
X115143361Y-82321428D02*
X115095742Y-82369047D01*
X115095742Y-82369047D02*
X115000504Y-82416666D01*
X115000504Y-82416666D02*
X114905266Y-82416666D01*
X114905266Y-82416666D02*
X114762409Y-82369047D01*
X114762409Y-82369047D02*
X114190980Y-81797619D01*
X114190980Y-81797619D02*
X114190980Y-82416666D01*
D25*
X107067857Y-131768832D02*
X107048809Y-131787880D01*
X107048809Y-131787880D02*
X106991667Y-131806927D01*
X106991667Y-131806927D02*
X106953571Y-131806927D01*
X106953571Y-131806927D02*
X106896428Y-131787880D01*
X106896428Y-131787880D02*
X106858333Y-131749784D01*
X106858333Y-131749784D02*
X106839286Y-131711689D01*
X106839286Y-131711689D02*
X106820238Y-131635499D01*
X106820238Y-131635499D02*
X106820238Y-131578356D01*
X106820238Y-131578356D02*
X106839286Y-131502165D01*
X106839286Y-131502165D02*
X106858333Y-131464070D01*
X106858333Y-131464070D02*
X106896428Y-131425975D01*
X106896428Y-131425975D02*
X106953571Y-131406927D01*
X106953571Y-131406927D02*
X106991667Y-131406927D01*
X106991667Y-131406927D02*
X107048809Y-131425975D01*
X107048809Y-131425975D02*
X107067857Y-131445022D01*
X107448809Y-131806927D02*
X107220238Y-131806927D01*
X107334524Y-131806927D02*
X107334524Y-131406927D01*
X107334524Y-131406927D02*
X107296428Y-131464070D01*
X107296428Y-131464070D02*
X107258333Y-131502165D01*
X107258333Y-131502165D02*
X107220238Y-131521213D01*
X107829761Y-131806927D02*
X107601190Y-131806927D01*
X107715476Y-131806927D02*
X107715476Y-131406927D01*
X107715476Y-131406927D02*
X107677380Y-131464070D01*
X107677380Y-131464070D02*
X107639285Y-131502165D01*
X107639285Y-131502165D02*
X107601190Y-131521213D01*
X107181927Y-73544642D02*
X106991451Y-73677975D01*
X107181927Y-73773213D02*
X106781927Y-73773213D01*
X106781927Y-73773213D02*
X106781927Y-73620832D01*
X106781927Y-73620832D02*
X106800975Y-73582737D01*
X106800975Y-73582737D02*
X106820022Y-73563690D01*
X106820022Y-73563690D02*
X106858118Y-73544642D01*
X106858118Y-73544642D02*
X106915260Y-73544642D01*
X106915260Y-73544642D02*
X106953356Y-73563690D01*
X106953356Y-73563690D02*
X106972403Y-73582737D01*
X106972403Y-73582737D02*
X106991451Y-73620832D01*
X106991451Y-73620832D02*
X106991451Y-73773213D01*
X107181927Y-73163690D02*
X107181927Y-73392261D01*
X107181927Y-73277975D02*
X106781927Y-73277975D01*
X106781927Y-73277975D02*
X106839070Y-73316071D01*
X106839070Y-73316071D02*
X106877165Y-73354166D01*
X106877165Y-73354166D02*
X106896213Y-73392261D01*
X106915260Y-72820833D02*
X107181927Y-72820833D01*
X106762880Y-72916071D02*
X107048594Y-73011309D01*
X107048594Y-73011309D02*
X107048594Y-72763690D01*
X108742857Y-81431927D02*
X108609524Y-81241451D01*
X108514286Y-81431927D02*
X108514286Y-81031927D01*
X108514286Y-81031927D02*
X108666667Y-81031927D01*
X108666667Y-81031927D02*
X108704762Y-81050975D01*
X108704762Y-81050975D02*
X108723809Y-81070022D01*
X108723809Y-81070022D02*
X108742857Y-81108118D01*
X108742857Y-81108118D02*
X108742857Y-81165260D01*
X108742857Y-81165260D02*
X108723809Y-81203356D01*
X108723809Y-81203356D02*
X108704762Y-81222403D01*
X108704762Y-81222403D02*
X108666667Y-81241451D01*
X108666667Y-81241451D02*
X108514286Y-81241451D01*
X109123809Y-81431927D02*
X108895238Y-81431927D01*
X109009524Y-81431927D02*
X109009524Y-81031927D01*
X109009524Y-81031927D02*
X108971428Y-81089070D01*
X108971428Y-81089070D02*
X108933333Y-81127165D01*
X108933333Y-81127165D02*
X108895238Y-81146213D01*
X109371428Y-81031927D02*
X109409523Y-81031927D01*
X109409523Y-81031927D02*
X109447619Y-81050975D01*
X109447619Y-81050975D02*
X109466666Y-81070022D01*
X109466666Y-81070022D02*
X109485714Y-81108118D01*
X109485714Y-81108118D02*
X109504761Y-81184308D01*
X109504761Y-81184308D02*
X109504761Y-81279546D01*
X109504761Y-81279546D02*
X109485714Y-81355737D01*
X109485714Y-81355737D02*
X109466666Y-81393832D01*
X109466666Y-81393832D02*
X109447619Y-81412880D01*
X109447619Y-81412880D02*
X109409523Y-81431927D01*
X109409523Y-81431927D02*
X109371428Y-81431927D01*
X109371428Y-81431927D02*
X109333333Y-81412880D01*
X109333333Y-81412880D02*
X109314285Y-81393832D01*
X109314285Y-81393832D02*
X109295238Y-81355737D01*
X109295238Y-81355737D02*
X109276190Y-81279546D01*
X109276190Y-81279546D02*
X109276190Y-81184308D01*
X109276190Y-81184308D02*
X109295238Y-81108118D01*
X109295238Y-81108118D02*
X109314285Y-81070022D01*
X109314285Y-81070022D02*
X109333333Y-81050975D01*
X109333333Y-81050975D02*
X109371428Y-81031927D01*
X105858333Y-94931927D02*
X105725000Y-94741451D01*
X105629762Y-94931927D02*
X105629762Y-94531927D01*
X105629762Y-94531927D02*
X105782143Y-94531927D01*
X105782143Y-94531927D02*
X105820238Y-94550975D01*
X105820238Y-94550975D02*
X105839285Y-94570022D01*
X105839285Y-94570022D02*
X105858333Y-94608118D01*
X105858333Y-94608118D02*
X105858333Y-94665260D01*
X105858333Y-94665260D02*
X105839285Y-94703356D01*
X105839285Y-94703356D02*
X105820238Y-94722403D01*
X105820238Y-94722403D02*
X105782143Y-94741451D01*
X105782143Y-94741451D02*
X105629762Y-94741451D01*
X106239285Y-94931927D02*
X106010714Y-94931927D01*
X106125000Y-94931927D02*
X106125000Y-94531927D01*
X106125000Y-94531927D02*
X106086904Y-94589070D01*
X106086904Y-94589070D02*
X106048809Y-94627165D01*
X106048809Y-94627165D02*
X106010714Y-94646213D01*
X110681927Y-135382142D02*
X110491451Y-135515475D01*
X110681927Y-135610713D02*
X110281927Y-135610713D01*
X110281927Y-135610713D02*
X110281927Y-135458332D01*
X110281927Y-135458332D02*
X110300975Y-135420237D01*
X110300975Y-135420237D02*
X110320022Y-135401190D01*
X110320022Y-135401190D02*
X110358118Y-135382142D01*
X110358118Y-135382142D02*
X110415260Y-135382142D01*
X110415260Y-135382142D02*
X110453356Y-135401190D01*
X110453356Y-135401190D02*
X110472403Y-135420237D01*
X110472403Y-135420237D02*
X110491451Y-135458332D01*
X110491451Y-135458332D02*
X110491451Y-135610713D01*
X110320022Y-135229761D02*
X110300975Y-135210713D01*
X110300975Y-135210713D02*
X110281927Y-135172618D01*
X110281927Y-135172618D02*
X110281927Y-135077380D01*
X110281927Y-135077380D02*
X110300975Y-135039285D01*
X110300975Y-135039285D02*
X110320022Y-135020237D01*
X110320022Y-135020237D02*
X110358118Y-135001190D01*
X110358118Y-135001190D02*
X110396213Y-135001190D01*
X110396213Y-135001190D02*
X110453356Y-135020237D01*
X110453356Y-135020237D02*
X110681927Y-135248809D01*
X110681927Y-135248809D02*
X110681927Y-135001190D01*
X110281927Y-134753571D02*
X110281927Y-134715476D01*
X110281927Y-134715476D02*
X110300975Y-134677380D01*
X110300975Y-134677380D02*
X110320022Y-134658333D01*
X110320022Y-134658333D02*
X110358118Y-134639285D01*
X110358118Y-134639285D02*
X110434308Y-134620238D01*
X110434308Y-134620238D02*
X110529546Y-134620238D01*
X110529546Y-134620238D02*
X110605737Y-134639285D01*
X110605737Y-134639285D02*
X110643832Y-134658333D01*
X110643832Y-134658333D02*
X110662880Y-134677380D01*
X110662880Y-134677380D02*
X110681927Y-134715476D01*
X110681927Y-134715476D02*
X110681927Y-134753571D01*
X110681927Y-134753571D02*
X110662880Y-134791666D01*
X110662880Y-134791666D02*
X110643832Y-134810714D01*
X110643832Y-134810714D02*
X110605737Y-134829761D01*
X110605737Y-134829761D02*
X110529546Y-134848809D01*
X110529546Y-134848809D02*
X110434308Y-134848809D01*
X110434308Y-134848809D02*
X110358118Y-134829761D01*
X110358118Y-134829761D02*
X110320022Y-134810714D01*
X110320022Y-134810714D02*
X110300975Y-134791666D01*
X110300975Y-134791666D02*
X110281927Y-134753571D01*
X101756927Y-133670237D02*
X101356927Y-133670237D01*
X101356927Y-133670237D02*
X101356927Y-133574999D01*
X101356927Y-133574999D02*
X101375975Y-133517856D01*
X101375975Y-133517856D02*
X101414070Y-133479761D01*
X101414070Y-133479761D02*
X101452165Y-133460714D01*
X101452165Y-133460714D02*
X101528356Y-133441666D01*
X101528356Y-133441666D02*
X101585499Y-133441666D01*
X101585499Y-133441666D02*
X101661689Y-133460714D01*
X101661689Y-133460714D02*
X101699784Y-133479761D01*
X101699784Y-133479761D02*
X101737880Y-133517856D01*
X101737880Y-133517856D02*
X101756927Y-133574999D01*
X101756927Y-133574999D02*
X101756927Y-133670237D01*
X101395022Y-133289285D02*
X101375975Y-133270237D01*
X101375975Y-133270237D02*
X101356927Y-133232142D01*
X101356927Y-133232142D02*
X101356927Y-133136904D01*
X101356927Y-133136904D02*
X101375975Y-133098809D01*
X101375975Y-133098809D02*
X101395022Y-133079761D01*
X101395022Y-133079761D02*
X101433118Y-133060714D01*
X101433118Y-133060714D02*
X101471213Y-133060714D01*
X101471213Y-133060714D02*
X101528356Y-133079761D01*
X101528356Y-133079761D02*
X101756927Y-133308333D01*
X101756927Y-133308333D02*
X101756927Y-133060714D01*
X97533333Y-77181927D02*
X97400000Y-76991451D01*
X97304762Y-77181927D02*
X97304762Y-76781927D01*
X97304762Y-76781927D02*
X97457143Y-76781927D01*
X97457143Y-76781927D02*
X97495238Y-76800975D01*
X97495238Y-76800975D02*
X97514285Y-76820022D01*
X97514285Y-76820022D02*
X97533333Y-76858118D01*
X97533333Y-76858118D02*
X97533333Y-76915260D01*
X97533333Y-76915260D02*
X97514285Y-76953356D01*
X97514285Y-76953356D02*
X97495238Y-76972403D01*
X97495238Y-76972403D02*
X97457143Y-76991451D01*
X97457143Y-76991451D02*
X97304762Y-76991451D01*
X97895238Y-76781927D02*
X97704762Y-76781927D01*
X97704762Y-76781927D02*
X97685714Y-76972403D01*
X97685714Y-76972403D02*
X97704762Y-76953356D01*
X97704762Y-76953356D02*
X97742857Y-76934308D01*
X97742857Y-76934308D02*
X97838095Y-76934308D01*
X97838095Y-76934308D02*
X97876190Y-76953356D01*
X97876190Y-76953356D02*
X97895238Y-76972403D01*
X97895238Y-76972403D02*
X97914285Y-77010499D01*
X97914285Y-77010499D02*
X97914285Y-77105737D01*
X97914285Y-77105737D02*
X97895238Y-77143832D01*
X97895238Y-77143832D02*
X97876190Y-77162880D01*
X97876190Y-77162880D02*
X97838095Y-77181927D01*
X97838095Y-77181927D02*
X97742857Y-77181927D01*
X97742857Y-77181927D02*
X97704762Y-77162880D01*
X97704762Y-77162880D02*
X97685714Y-77143832D01*
D26*
X125929819Y-91858333D02*
X126644104Y-91858333D01*
X126644104Y-91858333D02*
X126786961Y-91905952D01*
X126786961Y-91905952D02*
X126882200Y-92001190D01*
X126882200Y-92001190D02*
X126929819Y-92144047D01*
X126929819Y-92144047D02*
X126929819Y-92239285D01*
X126929819Y-90858333D02*
X126929819Y-91429761D01*
X126929819Y-91144047D02*
X125929819Y-91144047D01*
X125929819Y-91144047D02*
X126072676Y-91239285D01*
X126072676Y-91239285D02*
X126167914Y-91334523D01*
X126167914Y-91334523D02*
X126215533Y-91429761D01*
D25*
X100933333Y-77181927D02*
X100800000Y-76991451D01*
X100704762Y-77181927D02*
X100704762Y-76781927D01*
X100704762Y-76781927D02*
X100857143Y-76781927D01*
X100857143Y-76781927D02*
X100895238Y-76800975D01*
X100895238Y-76800975D02*
X100914285Y-76820022D01*
X100914285Y-76820022D02*
X100933333Y-76858118D01*
X100933333Y-76858118D02*
X100933333Y-76915260D01*
X100933333Y-76915260D02*
X100914285Y-76953356D01*
X100914285Y-76953356D02*
X100895238Y-76972403D01*
X100895238Y-76972403D02*
X100857143Y-76991451D01*
X100857143Y-76991451D02*
X100704762Y-76991451D01*
X101276190Y-76781927D02*
X101200000Y-76781927D01*
X101200000Y-76781927D02*
X101161904Y-76800975D01*
X101161904Y-76800975D02*
X101142857Y-76820022D01*
X101142857Y-76820022D02*
X101104762Y-76877165D01*
X101104762Y-76877165D02*
X101085714Y-76953356D01*
X101085714Y-76953356D02*
X101085714Y-77105737D01*
X101085714Y-77105737D02*
X101104762Y-77143832D01*
X101104762Y-77143832D02*
X101123809Y-77162880D01*
X101123809Y-77162880D02*
X101161904Y-77181927D01*
X101161904Y-77181927D02*
X101238095Y-77181927D01*
X101238095Y-77181927D02*
X101276190Y-77162880D01*
X101276190Y-77162880D02*
X101295238Y-77143832D01*
X101295238Y-77143832D02*
X101314285Y-77105737D01*
X101314285Y-77105737D02*
X101314285Y-77010499D01*
X101314285Y-77010499D02*
X101295238Y-76972403D01*
X101295238Y-76972403D02*
X101276190Y-76953356D01*
X101276190Y-76953356D02*
X101238095Y-76934308D01*
X101238095Y-76934308D02*
X101161904Y-76934308D01*
X101161904Y-76934308D02*
X101123809Y-76953356D01*
X101123809Y-76953356D02*
X101104762Y-76972403D01*
X101104762Y-76972403D02*
X101085714Y-77010499D01*
X111781927Y-77832142D02*
X111591451Y-77965475D01*
X111781927Y-78060713D02*
X111381927Y-78060713D01*
X111381927Y-78060713D02*
X111381927Y-77908332D01*
X111381927Y-77908332D02*
X111400975Y-77870237D01*
X111400975Y-77870237D02*
X111420022Y-77851190D01*
X111420022Y-77851190D02*
X111458118Y-77832142D01*
X111458118Y-77832142D02*
X111515260Y-77832142D01*
X111515260Y-77832142D02*
X111553356Y-77851190D01*
X111553356Y-77851190D02*
X111572403Y-77870237D01*
X111572403Y-77870237D02*
X111591451Y-77908332D01*
X111591451Y-77908332D02*
X111591451Y-78060713D01*
X111781927Y-77451190D02*
X111781927Y-77679761D01*
X111781927Y-77565475D02*
X111381927Y-77565475D01*
X111381927Y-77565475D02*
X111439070Y-77603571D01*
X111439070Y-77603571D02*
X111477165Y-77641666D01*
X111477165Y-77641666D02*
X111496213Y-77679761D01*
X111381927Y-77108333D02*
X111381927Y-77184523D01*
X111381927Y-77184523D02*
X111400975Y-77222619D01*
X111400975Y-77222619D02*
X111420022Y-77241666D01*
X111420022Y-77241666D02*
X111477165Y-77279761D01*
X111477165Y-77279761D02*
X111553356Y-77298809D01*
X111553356Y-77298809D02*
X111705737Y-77298809D01*
X111705737Y-77298809D02*
X111743832Y-77279761D01*
X111743832Y-77279761D02*
X111762880Y-77260714D01*
X111762880Y-77260714D02*
X111781927Y-77222619D01*
X111781927Y-77222619D02*
X111781927Y-77146428D01*
X111781927Y-77146428D02*
X111762880Y-77108333D01*
X111762880Y-77108333D02*
X111743832Y-77089285D01*
X111743832Y-77089285D02*
X111705737Y-77070238D01*
X111705737Y-77070238D02*
X111610499Y-77070238D01*
X111610499Y-77070238D02*
X111572403Y-77089285D01*
X111572403Y-77089285D02*
X111553356Y-77108333D01*
X111553356Y-77108333D02*
X111534308Y-77146428D01*
X111534308Y-77146428D02*
X111534308Y-77222619D01*
X111534308Y-77222619D02*
X111553356Y-77260714D01*
X111553356Y-77260714D02*
X111572403Y-77279761D01*
X111572403Y-77279761D02*
X111610499Y-77298809D01*
X114433333Y-94643832D02*
X114414285Y-94662880D01*
X114414285Y-94662880D02*
X114357143Y-94681927D01*
X114357143Y-94681927D02*
X114319047Y-94681927D01*
X114319047Y-94681927D02*
X114261904Y-94662880D01*
X114261904Y-94662880D02*
X114223809Y-94624784D01*
X114223809Y-94624784D02*
X114204762Y-94586689D01*
X114204762Y-94586689D02*
X114185714Y-94510499D01*
X114185714Y-94510499D02*
X114185714Y-94453356D01*
X114185714Y-94453356D02*
X114204762Y-94377165D01*
X114204762Y-94377165D02*
X114223809Y-94339070D01*
X114223809Y-94339070D02*
X114261904Y-94300975D01*
X114261904Y-94300975D02*
X114319047Y-94281927D01*
X114319047Y-94281927D02*
X114357143Y-94281927D01*
X114357143Y-94281927D02*
X114414285Y-94300975D01*
X114414285Y-94300975D02*
X114433333Y-94320022D01*
X114795238Y-94281927D02*
X114604762Y-94281927D01*
X114604762Y-94281927D02*
X114585714Y-94472403D01*
X114585714Y-94472403D02*
X114604762Y-94453356D01*
X114604762Y-94453356D02*
X114642857Y-94434308D01*
X114642857Y-94434308D02*
X114738095Y-94434308D01*
X114738095Y-94434308D02*
X114776190Y-94453356D01*
X114776190Y-94453356D02*
X114795238Y-94472403D01*
X114795238Y-94472403D02*
X114814285Y-94510499D01*
X114814285Y-94510499D02*
X114814285Y-94605737D01*
X114814285Y-94605737D02*
X114795238Y-94643832D01*
X114795238Y-94643832D02*
X114776190Y-94662880D01*
X114776190Y-94662880D02*
X114738095Y-94681927D01*
X114738095Y-94681927D02*
X114642857Y-94681927D01*
X114642857Y-94681927D02*
X114604762Y-94662880D01*
X114604762Y-94662880D02*
X114585714Y-94643832D01*
X104008333Y-132806927D02*
X103875000Y-132616451D01*
X103779762Y-132806927D02*
X103779762Y-132406927D01*
X103779762Y-132406927D02*
X103932143Y-132406927D01*
X103932143Y-132406927D02*
X103970238Y-132425975D01*
X103970238Y-132425975D02*
X103989285Y-132445022D01*
X103989285Y-132445022D02*
X104008333Y-132483118D01*
X104008333Y-132483118D02*
X104008333Y-132540260D01*
X104008333Y-132540260D02*
X103989285Y-132578356D01*
X103989285Y-132578356D02*
X103970238Y-132597403D01*
X103970238Y-132597403D02*
X103932143Y-132616451D01*
X103932143Y-132616451D02*
X103779762Y-132616451D01*
X104160714Y-132445022D02*
X104179762Y-132425975D01*
X104179762Y-132425975D02*
X104217857Y-132406927D01*
X104217857Y-132406927D02*
X104313095Y-132406927D01*
X104313095Y-132406927D02*
X104351190Y-132425975D01*
X104351190Y-132425975D02*
X104370238Y-132445022D01*
X104370238Y-132445022D02*
X104389285Y-132483118D01*
X104389285Y-132483118D02*
X104389285Y-132521213D01*
X104389285Y-132521213D02*
X104370238Y-132578356D01*
X104370238Y-132578356D02*
X104141666Y-132806927D01*
X104141666Y-132806927D02*
X104389285Y-132806927D01*
X110681927Y-95566666D02*
X110491451Y-95699999D01*
X110681927Y-95795237D02*
X110281927Y-95795237D01*
X110281927Y-95795237D02*
X110281927Y-95642856D01*
X110281927Y-95642856D02*
X110300975Y-95604761D01*
X110300975Y-95604761D02*
X110320022Y-95585714D01*
X110320022Y-95585714D02*
X110358118Y-95566666D01*
X110358118Y-95566666D02*
X110415260Y-95566666D01*
X110415260Y-95566666D02*
X110453356Y-95585714D01*
X110453356Y-95585714D02*
X110472403Y-95604761D01*
X110472403Y-95604761D02*
X110491451Y-95642856D01*
X110491451Y-95642856D02*
X110491451Y-95795237D01*
X110415260Y-95223809D02*
X110681927Y-95223809D01*
X110262880Y-95319047D02*
X110548594Y-95414285D01*
X110548594Y-95414285D02*
X110548594Y-95166666D01*
X97543832Y-93866666D02*
X97562880Y-93885714D01*
X97562880Y-93885714D02*
X97581927Y-93942856D01*
X97581927Y-93942856D02*
X97581927Y-93980952D01*
X97581927Y-93980952D02*
X97562880Y-94038095D01*
X97562880Y-94038095D02*
X97524784Y-94076190D01*
X97524784Y-94076190D02*
X97486689Y-94095237D01*
X97486689Y-94095237D02*
X97410499Y-94114285D01*
X97410499Y-94114285D02*
X97353356Y-94114285D01*
X97353356Y-94114285D02*
X97277165Y-94095237D01*
X97277165Y-94095237D02*
X97239070Y-94076190D01*
X97239070Y-94076190D02*
X97200975Y-94038095D01*
X97200975Y-94038095D02*
X97181927Y-93980952D01*
X97181927Y-93980952D02*
X97181927Y-93942856D01*
X97181927Y-93942856D02*
X97200975Y-93885714D01*
X97200975Y-93885714D02*
X97220022Y-93866666D01*
X97181927Y-93733333D02*
X97181927Y-93485714D01*
X97181927Y-93485714D02*
X97334308Y-93619047D01*
X97334308Y-93619047D02*
X97334308Y-93561904D01*
X97334308Y-93561904D02*
X97353356Y-93523809D01*
X97353356Y-93523809D02*
X97372403Y-93504761D01*
X97372403Y-93504761D02*
X97410499Y-93485714D01*
X97410499Y-93485714D02*
X97505737Y-93485714D01*
X97505737Y-93485714D02*
X97543832Y-93504761D01*
X97543832Y-93504761D02*
X97562880Y-93523809D01*
X97562880Y-93523809D02*
X97581927Y-93561904D01*
X97581927Y-93561904D02*
X97581927Y-93676190D01*
X97581927Y-93676190D02*
X97562880Y-93714285D01*
X97562880Y-93714285D02*
X97543832Y-93733333D01*
X95743832Y-93866666D02*
X95762880Y-93885714D01*
X95762880Y-93885714D02*
X95781927Y-93942856D01*
X95781927Y-93942856D02*
X95781927Y-93980952D01*
X95781927Y-93980952D02*
X95762880Y-94038095D01*
X95762880Y-94038095D02*
X95724784Y-94076190D01*
X95724784Y-94076190D02*
X95686689Y-94095237D01*
X95686689Y-94095237D02*
X95610499Y-94114285D01*
X95610499Y-94114285D02*
X95553356Y-94114285D01*
X95553356Y-94114285D02*
X95477165Y-94095237D01*
X95477165Y-94095237D02*
X95439070Y-94076190D01*
X95439070Y-94076190D02*
X95400975Y-94038095D01*
X95400975Y-94038095D02*
X95381927Y-93980952D01*
X95381927Y-93980952D02*
X95381927Y-93942856D01*
X95381927Y-93942856D02*
X95400975Y-93885714D01*
X95400975Y-93885714D02*
X95420022Y-93866666D01*
X95381927Y-93523809D02*
X95381927Y-93599999D01*
X95381927Y-93599999D02*
X95400975Y-93638095D01*
X95400975Y-93638095D02*
X95420022Y-93657142D01*
X95420022Y-93657142D02*
X95477165Y-93695237D01*
X95477165Y-93695237D02*
X95553356Y-93714285D01*
X95553356Y-93714285D02*
X95705737Y-93714285D01*
X95705737Y-93714285D02*
X95743832Y-93695237D01*
X95743832Y-93695237D02*
X95762880Y-93676190D01*
X95762880Y-93676190D02*
X95781927Y-93638095D01*
X95781927Y-93638095D02*
X95781927Y-93561904D01*
X95781927Y-93561904D02*
X95762880Y-93523809D01*
X95762880Y-93523809D02*
X95743832Y-93504761D01*
X95743832Y-93504761D02*
X95705737Y-93485714D01*
X95705737Y-93485714D02*
X95610499Y-93485714D01*
X95610499Y-93485714D02*
X95572403Y-93504761D01*
X95572403Y-93504761D02*
X95553356Y-93523809D01*
X95553356Y-93523809D02*
X95534308Y-93561904D01*
X95534308Y-93561904D02*
X95534308Y-93638095D01*
X95534308Y-93638095D02*
X95553356Y-93676190D01*
X95553356Y-93676190D02*
X95572403Y-93695237D01*
X95572403Y-93695237D02*
X95610499Y-93714285D01*
D28*
%TO.C,R3*%
X116587500Y-92800000D02*
X116587500Y-91200000D01*
X117412500Y-92800000D02*
X116587500Y-92800000D01*
X116587500Y-91200000D02*
X117412500Y-91200000D01*
X117412500Y-91200000D02*
X117412500Y-92800000D01*
%TO.C,R9*%
X112662500Y-72450000D02*
X112662500Y-74050000D01*
X111837500Y-72450000D02*
X112662500Y-72450000D01*
X112662500Y-74050000D02*
X111837500Y-74050000D01*
X111837500Y-74050000D02*
X111837500Y-72450000D01*
%TO.C,R13*%
X110912500Y-72450000D02*
X110912500Y-74050000D01*
X110087500Y-72450000D02*
X110912500Y-72450000D01*
X110912500Y-74050000D02*
X110087500Y-74050000D01*
X110087500Y-74050000D02*
X110087500Y-72450000D01*
%TO.C,R8*%
X109800000Y-79912500D02*
X108200000Y-79912500D01*
X109800000Y-79087500D02*
X109800000Y-79912500D01*
X108200000Y-79912500D02*
X108200000Y-79087500D01*
X108200000Y-79087500D02*
X109800000Y-79087500D01*
%TO.C,C1*%
X105125000Y-92600000D02*
X106725000Y-92600000D01*
X105125000Y-93400000D02*
X105125000Y-92600000D01*
X106725000Y-92600000D02*
X106725000Y-93400000D01*
X106725000Y-93400000D02*
X105125000Y-93400000D01*
%TO.C,C2*%
X109200000Y-88850000D02*
X110800000Y-88850000D01*
X109200000Y-89650000D02*
X109200000Y-88850000D01*
X110800000Y-88850000D02*
X110800000Y-89650000D01*
X110800000Y-89650000D02*
X109200000Y-89650000D01*
%TO.C,Q3*%
X120912500Y-92125000D02*
X121237500Y-91800000D01*
X120912500Y-94700000D02*
X120912500Y-92125000D01*
X121237500Y-91800000D02*
X122212500Y-91800000D01*
X122212500Y-91800000D02*
X122212500Y-94700000D01*
X122212500Y-94700000D02*
X120912500Y-94700000D01*
%TO.C,U5*%
X106525000Y-135425000D02*
X106125000Y-135025000D01*
X109025000Y-135425000D02*
X106525000Y-135425000D01*
X106125000Y-135025000D02*
X106125000Y-133825000D01*
X106125000Y-133825000D02*
X109025000Y-133825000D01*
X109025000Y-133825000D02*
X109025000Y-135425000D01*
%TO.C,R11*%
X108200000Y-82587500D02*
X109800000Y-82587500D01*
X108200000Y-83412500D02*
X108200000Y-82587500D01*
X109800000Y-82587500D02*
X109800000Y-83412500D01*
X109800000Y-83412500D02*
X108200000Y-83412500D01*
D29*
%TO.C,P1*%
X114400000Y-144500000D02*
X114400000Y-140776700D01*
X114400000Y-140780000D02*
X105600000Y-140780000D01*
X105600000Y-144500000D02*
X114400000Y-144500000D01*
X105600000Y-140780000D02*
X105600000Y-144500000D01*
D28*
%TO.C,U4*%
X114025000Y-93325000D02*
X113275000Y-92575000D01*
X115775000Y-93325000D02*
X114025000Y-93325000D01*
X113275000Y-92575000D02*
X113275000Y-90825000D01*
X113275000Y-90825000D02*
X115775000Y-90825000D01*
X115775000Y-90825000D02*
X115775000Y-93325000D01*
D29*
%TO.C,U3*%
X108330801Y-93275400D02*
X110769201Y-93275400D01*
X110769201Y-93275400D02*
X110769201Y-90837000D01*
X108330801Y-90837000D02*
X108330801Y-93275400D01*
X110769201Y-90837000D02*
X108330801Y-90837000D01*
X108330801Y-92361000D02*
G75*
G03*
X108330801Y-91751400I0J304800D01*
G01*
X108826201Y-92919800D02*
G75*
G03*
X108826201Y-92919800I-76200J0D01*
G01*
D28*
%TO.C,C7*%
X112150000Y-82450000D02*
X112150000Y-84050000D01*
X111350000Y-82450000D02*
X112150000Y-82450000D01*
X112150000Y-84050000D02*
X111350000Y-84050000D01*
X111350000Y-84050000D02*
X111350000Y-82450000D01*
%TO.C,R15*%
X112087500Y-135925000D02*
X112087500Y-134325000D01*
X112912500Y-135925000D02*
X112087500Y-135925000D01*
X112087500Y-134325000D02*
X112912500Y-134325000D01*
X112912500Y-134325000D02*
X112912500Y-135925000D01*
%TO.C,U2*%
X105700000Y-91500000D02*
X89100000Y-91500000D01*
X105700000Y-91500000D02*
X105700000Y-78300000D01*
X94500000Y-90700000D02*
X95300000Y-91500000D01*
X89100000Y-78300000D02*
X89100000Y-91500000D01*
X94500000Y-78300000D02*
X94500000Y-91500000D01*
X105700000Y-78300000D02*
X89100000Y-78300000D01*
D29*
%TO.C,J2*%
X118354200Y-77254200D02*
X114645800Y-77254200D01*
X114645800Y-77254200D02*
X114645800Y-86245800D01*
X118354200Y-86245800D02*
X118354200Y-77254200D01*
X114645800Y-86245800D02*
X118354200Y-86245800D01*
D30*
X116931800Y-79500000D02*
G75*
G03*
X116931800Y-79500000I-381000J0D01*
G01*
D28*
%TO.C,C11*%
X106525000Y-131225000D02*
X108125000Y-131225000D01*
X106525000Y-132025000D02*
X106525000Y-131225000D01*
X108125000Y-131225000D02*
X108125000Y-132025000D01*
X108125000Y-132025000D02*
X106525000Y-132025000D01*
%TO.C,D7*%
X111725000Y-137350000D02*
X112525000Y-137350000D01*
X111725000Y-137950000D02*
X111725000Y-137350000D01*
X111975000Y-137650000D02*
X111875000Y-137650000D01*
X111975000Y-137650000D02*
X112275000Y-137850000D01*
X111975000Y-137850000D02*
X111975000Y-137450000D01*
X112275000Y-137450000D02*
X111975000Y-137650000D01*
X112275000Y-137650000D02*
X112375000Y-137650000D01*
X112275000Y-137850000D02*
X112275000Y-137450000D01*
X112525000Y-137350000D02*
X112525000Y-137950000D01*
X112525000Y-137950000D02*
X111725000Y-137950000D01*
%TO.C,R12*%
X109162500Y-72450000D02*
X109162500Y-74050000D01*
X108337500Y-72450000D02*
X109162500Y-72450000D01*
X109162500Y-74050000D02*
X108337500Y-74050000D01*
X108337500Y-74050000D02*
X108337500Y-72450000D01*
%TO.C,R14*%
X106587500Y-74087500D02*
X106587500Y-72487500D01*
X107412500Y-74087500D02*
X106587500Y-74087500D01*
X106587500Y-72487500D02*
X107412500Y-72487500D01*
X107412500Y-72487500D02*
X107412500Y-74087500D01*
%TO.C,R10*%
X108200000Y-80837500D02*
X109800000Y-80837500D01*
X108200000Y-81662500D02*
X108200000Y-80837500D01*
X109800000Y-80837500D02*
X109800000Y-81662500D01*
X109800000Y-81662500D02*
X108200000Y-81662500D01*
%TO.C,R1*%
X106725000Y-95162500D02*
X105125000Y-95162500D01*
X106725000Y-94337500D02*
X106725000Y-95162500D01*
X105125000Y-95162500D02*
X105125000Y-94337500D01*
X105125000Y-94337500D02*
X106725000Y-94337500D01*
%TO.C,R20*%
X110087500Y-135925000D02*
X110087500Y-134325000D01*
X110912500Y-135925000D02*
X110087500Y-135925000D01*
X110087500Y-134325000D02*
X110912500Y-134325000D01*
X110912500Y-134325000D02*
X110912500Y-135925000D01*
%TO.C,D2*%
X101475000Y-134175000D02*
X101975000Y-134175000D01*
X101975000Y-134175000D02*
X101975000Y-132575000D01*
X101175000Y-133875000D02*
X101475000Y-134175000D01*
X101175000Y-132575000D02*
X101175000Y-133875000D01*
X101975000Y-132575000D02*
X101175000Y-132575000D01*
%TO.C,C10*%
X104425000Y-135925000D02*
X104425000Y-134325000D01*
X105225000Y-135925000D02*
X104425000Y-135925000D01*
X104425000Y-134325000D02*
X105225000Y-134325000D01*
X105225000Y-134325000D02*
X105225000Y-135925000D01*
%TO.C,R5*%
X98400000Y-77412500D02*
X96800000Y-77412500D01*
X98400000Y-76587500D02*
X98400000Y-77412500D01*
X96800000Y-77412500D02*
X96800000Y-76587500D01*
X96800000Y-76587500D02*
X98400000Y-76587500D01*
%TO.C,J1*%
X126675000Y-95350000D02*
X126475000Y-95150000D01*
X128475000Y-95350000D02*
X126675000Y-95350000D01*
X125875000Y-95150000D02*
X125875000Y-93650000D01*
X126475000Y-95150000D02*
X125875000Y-95150000D01*
X128675000Y-95150000D02*
X128475000Y-95350000D01*
X124975000Y-93650000D02*
X128675000Y-93650000D01*
X124975000Y-93650000D02*
X124975000Y-89400000D01*
X128675000Y-93650000D02*
X128675000Y-95150000D01*
X128675000Y-93650000D02*
X128675000Y-89400000D01*
X124975000Y-92650000D02*
X125682107Y-92150000D01*
X127300000Y-92300000D02*
X127900000Y-92300000D01*
X127900000Y-92300000D02*
X127900000Y-92000000D01*
X125682107Y-92150000D02*
X124975000Y-91650000D01*
X127300000Y-92000000D02*
X127300000Y-92300000D01*
X127900000Y-92000000D02*
X127300000Y-92000000D01*
X127300000Y-91050000D02*
X127900000Y-91050000D01*
X127900000Y-91050000D02*
X127900000Y-90750000D01*
X127300000Y-90750000D02*
X127300000Y-91050000D01*
X127900000Y-90750000D02*
X127300000Y-90750000D01*
X124975000Y-89400000D02*
X128675000Y-89400000D01*
X128675000Y-89400000D02*
X128675000Y-87900000D01*
X125875000Y-87900000D02*
X125875000Y-89400000D01*
X126475000Y-87900000D02*
X125875000Y-87900000D01*
X128675000Y-87900000D02*
X128475000Y-87700000D01*
X126675000Y-87700000D02*
X126475000Y-87900000D01*
X128475000Y-87700000D02*
X126675000Y-87700000D01*
%TO.C,R6*%
X100200000Y-76587500D02*
X101800000Y-76587500D01*
X100200000Y-77412500D02*
X100200000Y-76587500D01*
X101800000Y-76587500D02*
X101800000Y-77412500D01*
X101800000Y-77412500D02*
X100200000Y-77412500D01*
%TO.C,R16*%
X112012500Y-76775000D02*
X112012500Y-78375000D01*
X111187500Y-76775000D02*
X112012500Y-76775000D01*
X112012500Y-78375000D02*
X111187500Y-78375000D01*
X111187500Y-78375000D02*
X111187500Y-76775000D01*
%TO.C,C5*%
X115300000Y-94900000D02*
X113700000Y-94900000D01*
X115300000Y-94100000D02*
X115300000Y-94900000D01*
X113700000Y-94900000D02*
X113700000Y-94100000D01*
X113700000Y-94100000D02*
X115300000Y-94100000D01*
%TO.C,SW1*%
X103450000Y-95200000D02*
X99250000Y-95200000D01*
X103450000Y-92400000D02*
X103450000Y-95200000D01*
X99250000Y-95200000D02*
X99250000Y-92400000D01*
X99250000Y-92400000D02*
X103450000Y-92400000D01*
X102150000Y-93800000D02*
G75*
G03*
X102150000Y-93800000I-800000J0D01*
G01*
%TO.C,R2*%
X104875000Y-133037500D02*
X103275000Y-133037500D01*
X104875000Y-132212500D02*
X104875000Y-133037500D01*
X103275000Y-133037500D02*
X103275000Y-132212500D01*
X103275000Y-132212500D02*
X104875000Y-132212500D01*
%TO.C,C4*%
X109150000Y-94700000D02*
X109150000Y-96300000D01*
X108350000Y-94700000D02*
X109150000Y-94700000D01*
X109150000Y-96300000D02*
X108350000Y-96300000D01*
X108350000Y-96300000D02*
X108350000Y-94700000D01*
%TO.C,R4*%
X110087500Y-96300000D02*
X110087500Y-94700000D01*
X110912500Y-96300000D02*
X110087500Y-96300000D01*
X110087500Y-94700000D02*
X110912500Y-94700000D01*
X110912500Y-94700000D02*
X110912500Y-96300000D01*
%TO.C,C3*%
X97800000Y-93000000D02*
X97800000Y-94600000D01*
X97000000Y-93000000D02*
X97800000Y-93000000D01*
X97800000Y-94600000D02*
X97000000Y-94600000D01*
X97000000Y-94600000D02*
X97000000Y-93000000D01*
%TO.C,C6*%
X96000000Y-93000000D02*
X96000000Y-94600000D01*
X95200000Y-93000000D02*
X96000000Y-93000000D01*
X96000000Y-94600000D02*
X95200000Y-94600000D01*
X95200000Y-94600000D02*
X95200000Y-93000000D01*
%TO.C,D1*%
X123175000Y-87750000D02*
X123175000Y-90550000D01*
X121375000Y-87750000D02*
X123175000Y-87750000D01*
X122275000Y-88400000D02*
X122275000Y-88800000D01*
X122275000Y-88800000D02*
X122825000Y-88800000D01*
X122275000Y-88800000D02*
X121725000Y-88800000D01*
X122275000Y-88800000D02*
X122675000Y-89400000D01*
X122675000Y-89400000D02*
X121875000Y-89400000D01*
X122275000Y-89400000D02*
X122275000Y-89900000D01*
X121875000Y-89400000D02*
X122275000Y-88800000D01*
X123175000Y-90550000D02*
X121375000Y-90550000D01*
X121375000Y-90550000D02*
X121375000Y-87750000D01*
%TO.C,R7*%
X103600000Y-76587500D02*
X105200000Y-76587500D01*
X103600000Y-77412500D02*
X103600000Y-76587500D01*
X105200000Y-76587500D02*
X105200000Y-77412500D01*
X105200000Y-77412500D02*
X103600000Y-77412500D01*
%TO.C,Q1*%
X107912500Y-75625000D02*
X108237500Y-75300000D01*
X107912500Y-78200000D02*
X107912500Y-75625000D01*
X108237500Y-75300000D02*
X109212500Y-75300000D01*
X109212500Y-75300000D02*
X109212500Y-78200000D01*
X109212500Y-78200000D02*
X107912500Y-78200000D01*
%TD*%
M02*
