G04 #@! TF.GenerationSoftware,KiCad,Pcbnew,(5.1.6-0-10_14)*
G04 #@! TF.CreationDate,2020-08-16T23:57:55-04:00*
G04 #@! TF.ProjectId,pcb,7063622e-6b69-4636-9164-5f7063625858,rev?*
G04 #@! TF.SameCoordinates,Original*
G04 #@! TF.FileFunction,Copper,L2,Bot*
G04 #@! TF.FilePolarity,Positive*
%FSLAX46Y46*%
G04 Gerber Fmt 4.6, Leading zero omitted, Abs format (unit mm)*
G04 Created by KiCad (PCBNEW (5.1.6-0-10_14)) date 2020-08-16 23:57:55*
%MOMM*%
%LPD*%
G01*
G04 APERTURE LIST*
G04 #@! TA.AperFunction,ComponentPad*
%ADD10O,1.700000X1.700000*%
G04 #@! TD*
G04 #@! TA.AperFunction,ComponentPad*
%ADD11R,1.700000X1.700000*%
G04 #@! TD*
G04 #@! TA.AperFunction,SMDPad,CuDef*
%ADD12R,0.900000X1.000000*%
G04 #@! TD*
G04 #@! TA.AperFunction,ComponentPad*
%ADD13C,2.100000*%
G04 #@! TD*
G04 #@! TA.AperFunction,ComponentPad*
%ADD14C,1.750000*%
G04 #@! TD*
G04 #@! TA.AperFunction,ComponentPad*
%ADD15C,3.800000*%
G04 #@! TD*
G04 #@! TA.AperFunction,ComponentPad*
%ADD16O,1.900000X1.200000*%
G04 #@! TD*
G04 #@! TA.AperFunction,ComponentPad*
%ADD17C,1.450000*%
G04 #@! TD*
G04 #@! TA.AperFunction,ViaPad*
%ADD18C,0.800000*%
G04 #@! TD*
G04 #@! TA.AperFunction,ViaPad*
%ADD19C,1.200000*%
G04 #@! TD*
G04 #@! TA.AperFunction,ViaPad*
%ADD20C,1.000000*%
G04 #@! TD*
G04 #@! TA.AperFunction,Conductor*
%ADD21C,0.250000*%
G04 #@! TD*
G04 #@! TA.AperFunction,Conductor*
%ADD22C,0.254000*%
G04 #@! TD*
G04 APERTURE END LIST*
D10*
X50040000Y-57500000D03*
D11*
X47500000Y-57500000D03*
G04 #@! TA.AperFunction,SMDPad,CuDef*
G36*
G01*
X67756250Y-73400000D02*
X67243750Y-73400000D01*
G75*
G02*
X67025000Y-73181250I0J218750D01*
G01*
X67025000Y-72743750D01*
G75*
G02*
X67243750Y-72525000I218750J0D01*
G01*
X67756250Y-72525000D01*
G75*
G02*
X67975000Y-72743750I0J-218750D01*
G01*
X67975000Y-73181250D01*
G75*
G02*
X67756250Y-73400000I-218750J0D01*
G01*
G37*
G04 #@! TD.AperFunction*
G04 #@! TA.AperFunction,SMDPad,CuDef*
G36*
G01*
X67756250Y-74975000D02*
X67243750Y-74975000D01*
G75*
G02*
X67025000Y-74756250I0J218750D01*
G01*
X67025000Y-74318750D01*
G75*
G02*
X67243750Y-74100000I218750J0D01*
G01*
X67756250Y-74100000D01*
G75*
G02*
X67975000Y-74318750I0J-218750D01*
G01*
X67975000Y-74756250D01*
G75*
G02*
X67756250Y-74975000I-218750J0D01*
G01*
G37*
G04 #@! TD.AperFunction*
G04 #@! TA.AperFunction,SMDPad,CuDef*
G36*
G01*
X75243750Y-74100000D02*
X75756250Y-74100000D01*
G75*
G02*
X75975000Y-74318750I0J-218750D01*
G01*
X75975000Y-74756250D01*
G75*
G02*
X75756250Y-74975000I-218750J0D01*
G01*
X75243750Y-74975000D01*
G75*
G02*
X75025000Y-74756250I0J218750D01*
G01*
X75025000Y-74318750D01*
G75*
G02*
X75243750Y-74100000I218750J0D01*
G01*
G37*
G04 #@! TD.AperFunction*
G04 #@! TA.AperFunction,SMDPad,CuDef*
G36*
G01*
X75243750Y-72525000D02*
X75756250Y-72525000D01*
G75*
G02*
X75975000Y-72743750I0J-218750D01*
G01*
X75975000Y-73181250D01*
G75*
G02*
X75756250Y-73400000I-218750J0D01*
G01*
X75243750Y-73400000D01*
G75*
G02*
X75025000Y-73181250I0J218750D01*
G01*
X75025000Y-72743750D01*
G75*
G02*
X75243750Y-72525000I218750J0D01*
G01*
G37*
G04 #@! TD.AperFunction*
D12*
X73550000Y-72950000D03*
X73550000Y-74550000D03*
X69450000Y-72950000D03*
X69450000Y-74550000D03*
D13*
X81750000Y-79260000D03*
D14*
X80500000Y-81750000D03*
X76000000Y-81750000D03*
D13*
X74740000Y-79260000D03*
D10*
X69630000Y-68600000D03*
X72170000Y-68600000D03*
X74710000Y-68600000D03*
D11*
X77250000Y-68600000D03*
D15*
X97000000Y-82000000D03*
X97000000Y-58000000D03*
D13*
X92250000Y-79260000D03*
D14*
X91000000Y-81750000D03*
X86500000Y-81750000D03*
D13*
X85240000Y-79260000D03*
X85250000Y-60740000D03*
D14*
X86500000Y-58250000D03*
X91000000Y-58250000D03*
D13*
X92260000Y-60740000D03*
D16*
X98547500Y-66500000D03*
X98547500Y-73500000D03*
D17*
X95847500Y-67500000D03*
X95847500Y-72500000D03*
D18*
X94125000Y-71947500D03*
X93300000Y-65025000D03*
X82100000Y-61075000D03*
X74875000Y-56400000D03*
X47750000Y-83050000D03*
X90250000Y-69500000D03*
X90250000Y-68000000D03*
X91750000Y-68000000D03*
D19*
X88500000Y-76100000D03*
D18*
X89600000Y-65000000D03*
D19*
X92375000Y-72375000D03*
D18*
X77750000Y-58100000D03*
X81825000Y-57300000D03*
X79650000Y-64850000D03*
X81000000Y-63700000D03*
X67650000Y-61025000D03*
D19*
X66500000Y-79200000D03*
D18*
X71150000Y-65650000D03*
X68075000Y-57850000D03*
X59750000Y-57100000D03*
X57625000Y-82600000D03*
X65425000Y-80250000D03*
X91750000Y-69500000D03*
D19*
X82804000Y-73312500D03*
X64600000Y-62400000D03*
D18*
X66000000Y-74250000D03*
X68453000Y-72009000D03*
X50750000Y-60502000D03*
X48750000Y-60525000D03*
X69469000Y-71501000D03*
X84625000Y-68650000D03*
X88650000Y-64350000D03*
X56750000Y-60525000D03*
X52750000Y-60525000D03*
X72500000Y-60400000D03*
X72170000Y-63205000D03*
X54750000Y-60525000D03*
X75750000Y-65050000D03*
X75400000Y-61650000D03*
X71025000Y-60225000D03*
X58800000Y-79600000D03*
X69725001Y-79200000D03*
D20*
X82169000Y-58928000D03*
D18*
X75700000Y-57700000D03*
X84625000Y-67350000D03*
X91250000Y-71950000D03*
X75875000Y-59650000D03*
X72675000Y-61575000D03*
X58750000Y-60525000D03*
X63436500Y-60134500D03*
X95150000Y-75500000D03*
X88025000Y-69450000D03*
X89000000Y-66750000D03*
X95400000Y-65350000D03*
X94250000Y-68250000D03*
X94250000Y-70250000D03*
X56800000Y-79600000D03*
D21*
X93700001Y-64624999D02*
X93300000Y-65025000D01*
X95748001Y-64624999D02*
X93700001Y-64624999D01*
X96125001Y-65001999D02*
X95748001Y-64624999D01*
X96125001Y-65749999D02*
X96125001Y-65001999D01*
X95286410Y-66100000D02*
X95775000Y-66100000D01*
X95775000Y-66100000D02*
X96125001Y-65749999D01*
X92599999Y-65725001D02*
X85600001Y-65725001D01*
X93300000Y-65025000D02*
X92599999Y-65725001D01*
X82499999Y-62624999D02*
X85600001Y-65725001D01*
X82499999Y-61474999D02*
X82499999Y-62624999D01*
X82100000Y-61075000D02*
X82499999Y-61474999D01*
X93524999Y-67861411D02*
X95286410Y-66100000D01*
X94125000Y-71947500D02*
X93524999Y-71347499D01*
X93524999Y-71347499D02*
X93524999Y-67861411D01*
X75487500Y-74550000D02*
X75500000Y-74537500D01*
X69450000Y-74550000D02*
X75487500Y-74550000D01*
X66287500Y-74537500D02*
X66000000Y-74250000D01*
X67500000Y-74537500D02*
X66287500Y-74537500D01*
X50047999Y-59799999D02*
X50750000Y-60502000D01*
X48401999Y-59799999D02*
X50047999Y-59799999D01*
X48024999Y-60873001D02*
X48024999Y-60176999D01*
X48838591Y-61250001D02*
X48401999Y-61250001D01*
X59139600Y-71551010D02*
X48838591Y-61250001D01*
X67995011Y-71551011D02*
X59139600Y-71551010D01*
X48024999Y-60176999D02*
X48401999Y-59799999D01*
X48401999Y-61250001D02*
X48024999Y-60873001D01*
X68453000Y-72009000D02*
X67995011Y-71551011D01*
X59326001Y-71101001D02*
X48750000Y-60525000D01*
X69069001Y-71101001D02*
X59326001Y-71101001D01*
X69469000Y-71501000D02*
X69069001Y-71101001D01*
X85262564Y-81750000D02*
X86500000Y-81750000D01*
X83864999Y-80352435D02*
X85262564Y-81750000D01*
X83864999Y-69410001D02*
X83864999Y-80352435D01*
X84625000Y-68650000D02*
X83864999Y-69410001D01*
X88650000Y-60600000D02*
X88650000Y-64350000D01*
X91000000Y-58250000D02*
X88650000Y-60600000D01*
X57676998Y-60525000D02*
X56750000Y-60525000D01*
X68374979Y-59399979D02*
X58802019Y-59399979D01*
X69199981Y-60224981D02*
X68374979Y-59399979D01*
X58802019Y-59399979D02*
X57676998Y-60525000D01*
X69888629Y-60224981D02*
X69199981Y-60224981D01*
X71113590Y-59500000D02*
X70613610Y-59500000D01*
X70613610Y-59500000D02*
X69888629Y-60224981D01*
X71775000Y-58838590D02*
X71113590Y-59500000D01*
X82565001Y-59753001D02*
X81772999Y-59753001D01*
X72125000Y-58475000D02*
X71775000Y-58825000D01*
X81772999Y-59753001D02*
X81398008Y-59378010D01*
X71775000Y-58825000D02*
X71775000Y-58838590D01*
X76409401Y-58474989D02*
X72125000Y-58475000D01*
X82950009Y-62438599D02*
X82950009Y-60138009D01*
X77312422Y-59378010D02*
X76409401Y-58474989D01*
X81398008Y-59378010D02*
X77312422Y-59378010D01*
X84861410Y-64350000D02*
X82950009Y-62438599D01*
X82950009Y-60138009D02*
X82565001Y-59753001D01*
X88650000Y-64350000D02*
X84861410Y-64350000D01*
X72170000Y-63068002D02*
X72170000Y-63205000D01*
X71774999Y-62673001D02*
X72170000Y-63068002D01*
X71774999Y-61125001D02*
X72500000Y-60400000D01*
X71774999Y-62673001D02*
X71774999Y-61125001D01*
X72500000Y-60400000D02*
X71949999Y-60950001D01*
X68823003Y-61125001D02*
X71774999Y-61125001D01*
X67998001Y-60299999D02*
X68823003Y-61125001D01*
X63555987Y-61700011D02*
X64955999Y-60299999D01*
X53925011Y-61700011D02*
X63555987Y-61700011D01*
X64955999Y-60299999D02*
X67998001Y-60299999D01*
X52750000Y-60525000D02*
X53925011Y-61700011D01*
X76650000Y-60400000D02*
X75400000Y-61650000D01*
X76650000Y-59351998D02*
X76650000Y-60400000D01*
X76223001Y-58924999D02*
X76650000Y-59351998D01*
X72325001Y-58924999D02*
X76223001Y-58924999D01*
X71025000Y-60225000D02*
X72325001Y-58924999D01*
X71025000Y-60175000D02*
X70800010Y-59950010D01*
X71025000Y-60225000D02*
X71025000Y-60175000D01*
X75400000Y-64700000D02*
X75750000Y-65050000D01*
X75400000Y-61650000D02*
X75400000Y-64700000D01*
X70575009Y-60674991D02*
X71025000Y-60225000D01*
X69009403Y-60674991D02*
X70575009Y-60674991D01*
X64769599Y-59849989D02*
X68184401Y-59849989D01*
X54750000Y-60525000D02*
X55475001Y-61250001D01*
X68184401Y-59849989D02*
X69009403Y-60674991D01*
X63369587Y-61250001D02*
X64769599Y-59849989D01*
X55475001Y-61250001D02*
X63369587Y-61250001D01*
X68800000Y-78274999D02*
X60125001Y-78274999D01*
X60125001Y-78274999D02*
X58800000Y-79600000D01*
X69725001Y-79200000D02*
X68800000Y-78274999D01*
X75900000Y-57500000D02*
X75700000Y-57700000D01*
X76601980Y-58024982D02*
X77504998Y-58928000D01*
X75804981Y-58024982D02*
X76601980Y-58024982D01*
X75700000Y-57920000D02*
X75804981Y-58024982D01*
X77504998Y-58928000D02*
X82169000Y-58928000D01*
X75700000Y-57700000D02*
X75700000Y-57920000D01*
X86998002Y-67350000D02*
X84625000Y-67350000D01*
X90850001Y-71201999D02*
X86998002Y-67350000D01*
X90850001Y-71550001D02*
X90850001Y-71201999D01*
X91250000Y-71950000D02*
X90850001Y-71550001D01*
X74600000Y-59650000D02*
X72675000Y-61575000D01*
X75875000Y-59650000D02*
X74600000Y-59650000D01*
X58750000Y-60525000D02*
X63046000Y-60525000D01*
X63046000Y-60525000D02*
X63436500Y-60134500D01*
X63436500Y-60134500D02*
X63500000Y-60071000D01*
X93509315Y-75500000D02*
X95150000Y-75500000D01*
X88025000Y-70015685D02*
X93509315Y-75500000D01*
X88025000Y-69450000D02*
X88025000Y-70015685D01*
X94000000Y-66750000D02*
X95400000Y-65350000D01*
X89000000Y-66750000D02*
X94000000Y-66750000D01*
X94250000Y-68250000D02*
X94250000Y-70250000D01*
X63437500Y-72962500D02*
X56800000Y-79600000D01*
X75500000Y-72962500D02*
X63437500Y-72962500D01*
D22*
G36*
X95607362Y-55867133D02*
G01*
X95403256Y-56223651D01*
X97000000Y-57820395D01*
X97014143Y-57806253D01*
X97193748Y-57985858D01*
X97179605Y-58000000D01*
X98776349Y-59596744D01*
X99132867Y-59392638D01*
X99340000Y-58995031D01*
X99340000Y-65345792D01*
X99262996Y-65313507D01*
X99024500Y-65265000D01*
X98674500Y-65265000D01*
X98674500Y-66373000D01*
X98694500Y-66373000D01*
X98694500Y-66627000D01*
X98674500Y-66627000D01*
X98674500Y-67735000D01*
X99024500Y-67735000D01*
X99262996Y-67686493D01*
X99340000Y-67654208D01*
X99340001Y-72345792D01*
X99262996Y-72313507D01*
X99024500Y-72265000D01*
X98674500Y-72265000D01*
X98674500Y-73373000D01*
X98694500Y-73373000D01*
X98694500Y-73627000D01*
X98674500Y-73627000D01*
X98674500Y-74735000D01*
X99024500Y-74735000D01*
X99262996Y-74686493D01*
X99340001Y-74654208D01*
X99340001Y-80994881D01*
X99132867Y-80607362D01*
X98776349Y-80403256D01*
X97179605Y-82000000D01*
X97193748Y-82014143D01*
X97014143Y-82193748D01*
X97000000Y-82179605D01*
X95403256Y-83776349D01*
X95607362Y-84132867D01*
X96004969Y-84340000D01*
X43032279Y-84340000D01*
X42546106Y-84292330D01*
X42109503Y-84160512D01*
X41706814Y-83946399D01*
X41353387Y-83658150D01*
X41062673Y-83306739D01*
X40845760Y-82905564D01*
X40710894Y-82469886D01*
X40660000Y-81985664D01*
X40660000Y-81829117D01*
X41265000Y-81829117D01*
X41265000Y-82170883D01*
X41331675Y-82506081D01*
X41462463Y-82821831D01*
X41652337Y-83105998D01*
X41894002Y-83347663D01*
X42178169Y-83537537D01*
X42493919Y-83668325D01*
X42829117Y-83735000D01*
X43170883Y-83735000D01*
X43506081Y-83668325D01*
X43821831Y-83537537D01*
X44105998Y-83347663D01*
X44347663Y-83105998D01*
X44537537Y-82821831D01*
X44668325Y-82506081D01*
X44735000Y-82170883D01*
X44735000Y-81829117D01*
X44668325Y-81493919D01*
X44537537Y-81178169D01*
X44347663Y-80894002D01*
X44105998Y-80652337D01*
X43821831Y-80462463D01*
X43506081Y-80331675D01*
X43170883Y-80265000D01*
X42829117Y-80265000D01*
X42493919Y-80331675D01*
X42178169Y-80462463D01*
X41894002Y-80652337D01*
X41652337Y-80894002D01*
X41462463Y-81178169D01*
X41331675Y-81493919D01*
X41265000Y-81829117D01*
X40660000Y-81829117D01*
X40660000Y-78377000D01*
X47750000Y-78377000D01*
X47774776Y-78374560D01*
X47798601Y-78367333D01*
X47820557Y-78355597D01*
X47839803Y-78339803D01*
X47855597Y-78320557D01*
X47867333Y-78298601D01*
X47874560Y-78274776D01*
X47877000Y-78250000D01*
X47877000Y-61802314D01*
X47977723Y-61884975D01*
X48042226Y-61919453D01*
X48109752Y-61955547D01*
X48253013Y-61999004D01*
X48401999Y-62013678D01*
X48439332Y-62010001D01*
X48523790Y-62010001D01*
X58575805Y-72062017D01*
X58599599Y-72091010D01*
X58628592Y-72114804D01*
X58628597Y-72114809D01*
X58715324Y-72185984D01*
X58847353Y-72256556D01*
X58990614Y-72300013D01*
X59139600Y-72314686D01*
X59176935Y-72311009D01*
X63044123Y-72311010D01*
X63013224Y-72327526D01*
X62897499Y-72422499D01*
X62873701Y-72451497D01*
X56760199Y-78565000D01*
X56698061Y-78565000D01*
X56498102Y-78604774D01*
X56309744Y-78682795D01*
X56140226Y-78796063D01*
X55996063Y-78940226D01*
X55882795Y-79109744D01*
X55804774Y-79298102D01*
X55765000Y-79498061D01*
X55765000Y-79701939D01*
X55804774Y-79901898D01*
X55882795Y-80090256D01*
X55996063Y-80259774D01*
X56140226Y-80403937D01*
X56309744Y-80517205D01*
X56498102Y-80595226D01*
X56698061Y-80635000D01*
X56901939Y-80635000D01*
X57101898Y-80595226D01*
X57290256Y-80517205D01*
X57459774Y-80403937D01*
X57603937Y-80259774D01*
X57717205Y-80090256D01*
X57795226Y-79901898D01*
X57800000Y-79877897D01*
X57804774Y-79901898D01*
X57882795Y-80090256D01*
X57996063Y-80259774D01*
X58140226Y-80403937D01*
X58309744Y-80517205D01*
X58498102Y-80595226D01*
X58698061Y-80635000D01*
X58901939Y-80635000D01*
X59101898Y-80595226D01*
X59290256Y-80517205D01*
X59459774Y-80403937D01*
X59603937Y-80259774D01*
X59717205Y-80090256D01*
X59795226Y-79901898D01*
X59835000Y-79701939D01*
X59835000Y-79639802D01*
X60439804Y-79034999D01*
X68485199Y-79034999D01*
X68690001Y-79239801D01*
X68690001Y-79301939D01*
X68729775Y-79501898D01*
X68807796Y-79690256D01*
X68921064Y-79859774D01*
X69065227Y-80003937D01*
X69234745Y-80117205D01*
X69423103Y-80195226D01*
X69623062Y-80235000D01*
X69826940Y-80235000D01*
X70026899Y-80195226D01*
X70215257Y-80117205D01*
X70384775Y-80003937D01*
X70528938Y-79859774D01*
X70642206Y-79690256D01*
X70720227Y-79501898D01*
X70760001Y-79301939D01*
X70760001Y-79098061D01*
X70759202Y-79094042D01*
X73055000Y-79094042D01*
X73055000Y-79425958D01*
X73119754Y-79751496D01*
X73246772Y-80058147D01*
X73431175Y-80334125D01*
X73665875Y-80568825D01*
X73941853Y-80753228D01*
X74248504Y-80880246D01*
X74574042Y-80945000D01*
X74721823Y-80945000D01*
X74661856Y-81034747D01*
X74548029Y-81309549D01*
X74490000Y-81601278D01*
X74490000Y-81898722D01*
X74548029Y-82190451D01*
X74661856Y-82465253D01*
X74827107Y-82712569D01*
X75037431Y-82922893D01*
X75284747Y-83088144D01*
X75559549Y-83201971D01*
X75851278Y-83260000D01*
X76148722Y-83260000D01*
X76440451Y-83201971D01*
X76715253Y-83088144D01*
X76962569Y-82922893D01*
X77089222Y-82796240D01*
X79633365Y-82796240D01*
X79714025Y-83047868D01*
X79982329Y-83176267D01*
X80270526Y-83249855D01*
X80567543Y-83265804D01*
X80861963Y-83223501D01*
X81142474Y-83124572D01*
X81285975Y-83047868D01*
X81366635Y-82796240D01*
X80500000Y-81929605D01*
X79633365Y-82796240D01*
X77089222Y-82796240D01*
X77172893Y-82712569D01*
X77338144Y-82465253D01*
X77451971Y-82190451D01*
X77510000Y-81898722D01*
X77510000Y-81817543D01*
X78984196Y-81817543D01*
X79026499Y-82111963D01*
X79125428Y-82392474D01*
X79202132Y-82535975D01*
X79453760Y-82616635D01*
X80320395Y-81750000D01*
X79453760Y-80883365D01*
X79202132Y-80964025D01*
X79073733Y-81232329D01*
X79000145Y-81520526D01*
X78984196Y-81817543D01*
X77510000Y-81817543D01*
X77510000Y-81601278D01*
X77451971Y-81309549D01*
X77338144Y-81034747D01*
X77172893Y-80787431D01*
X77089222Y-80703760D01*
X79633365Y-80703760D01*
X80500000Y-81570395D01*
X80514143Y-81556253D01*
X80693748Y-81735858D01*
X80679605Y-81750000D01*
X81546240Y-82616635D01*
X81797868Y-82535975D01*
X81926267Y-82267671D01*
X81999855Y-81979474D01*
X82015804Y-81682457D01*
X81973501Y-81388037D01*
X81874572Y-81107526D01*
X81797868Y-80964025D01*
X81738517Y-80945000D01*
X81915958Y-80945000D01*
X82241496Y-80880246D01*
X82548147Y-80753228D01*
X82824125Y-80568825D01*
X83058825Y-80334125D01*
X83105000Y-80265019D01*
X83105000Y-80315103D01*
X83101323Y-80352435D01*
X83105000Y-80389768D01*
X83106329Y-80403256D01*
X83115997Y-80501420D01*
X83159453Y-80644681D01*
X83230025Y-80776711D01*
X83301200Y-80863437D01*
X83324999Y-80892436D01*
X83353997Y-80916234D01*
X84698769Y-82261008D01*
X84722563Y-82290001D01*
X84751556Y-82313795D01*
X84751560Y-82313799D01*
X84818153Y-82368450D01*
X84838288Y-82384974D01*
X84970317Y-82455546D01*
X85113578Y-82499003D01*
X85189397Y-82506471D01*
X85327107Y-82712569D01*
X85537431Y-82922893D01*
X85784747Y-83088144D01*
X86059549Y-83201971D01*
X86351278Y-83260000D01*
X86648722Y-83260000D01*
X86940451Y-83201971D01*
X87215253Y-83088144D01*
X87462569Y-82922893D01*
X87589222Y-82796240D01*
X90133365Y-82796240D01*
X90214025Y-83047868D01*
X90482329Y-83176267D01*
X90770526Y-83249855D01*
X91067543Y-83265804D01*
X91361963Y-83223501D01*
X91642474Y-83124572D01*
X91785975Y-83047868D01*
X91866635Y-82796240D01*
X91000000Y-81929605D01*
X90133365Y-82796240D01*
X87589222Y-82796240D01*
X87672893Y-82712569D01*
X87838144Y-82465253D01*
X87951971Y-82190451D01*
X88010000Y-81898722D01*
X88010000Y-81817543D01*
X89484196Y-81817543D01*
X89526499Y-82111963D01*
X89625428Y-82392474D01*
X89702132Y-82535975D01*
X89953760Y-82616635D01*
X90820395Y-81750000D01*
X89953760Y-80883365D01*
X89702132Y-80964025D01*
X89573733Y-81232329D01*
X89500145Y-81520526D01*
X89484196Y-81817543D01*
X88010000Y-81817543D01*
X88010000Y-81601278D01*
X87951971Y-81309549D01*
X87838144Y-81034747D01*
X87672893Y-80787431D01*
X87589222Y-80703760D01*
X90133365Y-80703760D01*
X91000000Y-81570395D01*
X91014143Y-81556253D01*
X91193748Y-81735858D01*
X91179605Y-81750000D01*
X92046240Y-82616635D01*
X92297868Y-82535975D01*
X92426267Y-82267671D01*
X92487714Y-82027021D01*
X94452877Y-82027021D01*
X94507091Y-82523422D01*
X94657106Y-82999707D01*
X94867133Y-83392638D01*
X95223651Y-83596744D01*
X96820395Y-82000000D01*
X95223651Y-80403256D01*
X94867133Y-80607362D01*
X94636425Y-81050223D01*
X94496548Y-81529583D01*
X94452877Y-82027021D01*
X92487714Y-82027021D01*
X92499855Y-81979474D01*
X92515804Y-81682457D01*
X92473501Y-81388037D01*
X92374572Y-81107526D01*
X92297868Y-80964025D01*
X92238517Y-80945000D01*
X92415958Y-80945000D01*
X92741496Y-80880246D01*
X93048147Y-80753228D01*
X93324125Y-80568825D01*
X93558825Y-80334125D01*
X93632641Y-80223651D01*
X95403256Y-80223651D01*
X97000000Y-81820395D01*
X98596744Y-80223651D01*
X98392638Y-79867133D01*
X97949777Y-79636425D01*
X97470417Y-79496548D01*
X96972979Y-79452877D01*
X96476578Y-79507091D01*
X96000293Y-79657106D01*
X95607362Y-79867133D01*
X95403256Y-80223651D01*
X93632641Y-80223651D01*
X93743228Y-80058147D01*
X93870246Y-79751496D01*
X93935000Y-79425958D01*
X93935000Y-79094042D01*
X93870246Y-78768504D01*
X93743228Y-78461853D01*
X93558825Y-78185875D01*
X93324125Y-77951175D01*
X93048147Y-77766772D01*
X92741496Y-77639754D01*
X92415958Y-77575000D01*
X92084042Y-77575000D01*
X91758504Y-77639754D01*
X91451853Y-77766772D01*
X91175875Y-77951175D01*
X90941175Y-78185875D01*
X90756772Y-78461853D01*
X90629754Y-78768504D01*
X90565000Y-79094042D01*
X90565000Y-79425958D01*
X90629754Y-79751496D01*
X90756772Y-80058147D01*
X90879490Y-80241806D01*
X90638037Y-80276499D01*
X90357526Y-80375428D01*
X90214025Y-80452132D01*
X90133365Y-80703760D01*
X87589222Y-80703760D01*
X87462569Y-80577107D01*
X87215253Y-80411856D01*
X86940451Y-80298029D01*
X86648722Y-80240000D01*
X86611717Y-80240000D01*
X86733228Y-80058147D01*
X86860246Y-79751496D01*
X86925000Y-79425958D01*
X86925000Y-79094042D01*
X86860246Y-78768504D01*
X86733228Y-78461853D01*
X86548825Y-78185875D01*
X86314125Y-77951175D01*
X86038147Y-77766772D01*
X85731496Y-77639754D01*
X85405958Y-77575000D01*
X85074042Y-77575000D01*
X84748504Y-77639754D01*
X84624999Y-77690911D01*
X84624999Y-69724802D01*
X84664801Y-69685000D01*
X84726939Y-69685000D01*
X84926898Y-69645226D01*
X85115256Y-69567205D01*
X85284774Y-69453937D01*
X85428937Y-69309774D01*
X85542205Y-69140256D01*
X85620226Y-68951898D01*
X85660000Y-68751939D01*
X85660000Y-68548061D01*
X85620226Y-68348102D01*
X85542205Y-68159744D01*
X85508967Y-68110000D01*
X86683201Y-68110000D01*
X87292245Y-68719044D01*
X87221063Y-68790226D01*
X87107795Y-68959744D01*
X87029774Y-69148102D01*
X86990000Y-69348061D01*
X86990000Y-69551939D01*
X87029774Y-69751898D01*
X87107795Y-69940256D01*
X87221063Y-70109774D01*
X87276013Y-70164724D01*
X87319454Y-70307932D01*
X87337130Y-70341001D01*
X87390026Y-70439961D01*
X87444038Y-70505774D01*
X87485000Y-70555686D01*
X87513998Y-70579484D01*
X92945516Y-76011003D01*
X92969314Y-76040001D01*
X93085039Y-76134974D01*
X93217068Y-76205546D01*
X93360329Y-76249003D01*
X93471982Y-76260000D01*
X93471990Y-76260000D01*
X93509315Y-76263676D01*
X93546640Y-76260000D01*
X94446289Y-76260000D01*
X94490226Y-76303937D01*
X94659744Y-76417205D01*
X94848102Y-76495226D01*
X95048061Y-76535000D01*
X95251939Y-76535000D01*
X95451898Y-76495226D01*
X95640256Y-76417205D01*
X95809774Y-76303937D01*
X95953937Y-76159774D01*
X96067205Y-75990256D01*
X96145226Y-75801898D01*
X96185000Y-75601939D01*
X96185000Y-75398061D01*
X96145226Y-75198102D01*
X96067205Y-75009744D01*
X95953937Y-74840226D01*
X95809774Y-74696063D01*
X95640256Y-74582795D01*
X95451898Y-74504774D01*
X95251939Y-74465000D01*
X95048061Y-74465000D01*
X94848102Y-74504774D01*
X94659744Y-74582795D01*
X94490226Y-74696063D01*
X94446289Y-74740000D01*
X93824117Y-74740000D01*
X92523250Y-73439133D01*
X95087972Y-73439133D01*
X95150465Y-73675450D01*
X95393178Y-73788850D01*
X95653349Y-73852719D01*
X95920982Y-73864604D01*
X96185791Y-73824048D01*
X96203523Y-73817609D01*
X97004038Y-73817609D01*
X97007909Y-73855282D01*
X97100079Y-74080533D01*
X97234422Y-74283474D01*
X97405775Y-74456307D01*
X97607554Y-74592390D01*
X97832004Y-74686493D01*
X98070500Y-74735000D01*
X98420500Y-74735000D01*
X98420500Y-73627000D01*
X97128769Y-73627000D01*
X97004038Y-73817609D01*
X96203523Y-73817609D01*
X96437600Y-73732609D01*
X96544535Y-73675450D01*
X96607028Y-73439133D01*
X95847500Y-72679605D01*
X95087972Y-73439133D01*
X92523250Y-73439133D01*
X91866781Y-72782664D01*
X91909774Y-72753937D01*
X92053937Y-72609774D01*
X92167205Y-72440256D01*
X92245226Y-72251898D01*
X92285000Y-72051939D01*
X92285000Y-71848061D01*
X92245226Y-71648102D01*
X92167205Y-71459744D01*
X92053937Y-71290226D01*
X91909774Y-71146063D01*
X91740256Y-71032795D01*
X91571691Y-70962973D01*
X91555547Y-70909752D01*
X91484975Y-70777723D01*
X91390002Y-70661998D01*
X91361004Y-70638200D01*
X87561806Y-66839003D01*
X87538003Y-66809999D01*
X87422278Y-66715026D01*
X87290249Y-66644454D01*
X87146988Y-66600997D01*
X87035335Y-66590000D01*
X87035324Y-66590000D01*
X86998002Y-66586324D01*
X86960680Y-66590000D01*
X85328711Y-66590000D01*
X85284774Y-66546063D01*
X85115256Y-66432795D01*
X84926898Y-66354774D01*
X84726939Y-66315000D01*
X84523061Y-66315000D01*
X84323102Y-66354774D01*
X84134744Y-66432795D01*
X83965226Y-66546063D01*
X83821063Y-66690226D01*
X83707795Y-66859744D01*
X83629774Y-67048102D01*
X83590000Y-67248061D01*
X83590000Y-67451939D01*
X83629774Y-67651898D01*
X83707795Y-67840256D01*
X83814532Y-68000000D01*
X83707795Y-68159744D01*
X83629774Y-68348102D01*
X83590000Y-68548061D01*
X83590000Y-68610199D01*
X83354001Y-68846198D01*
X83324998Y-68870000D01*
X83292357Y-68909774D01*
X83230025Y-68985725D01*
X83193565Y-69053937D01*
X83159453Y-69117755D01*
X83115996Y-69261016D01*
X83104999Y-69372669D01*
X83104999Y-69372679D01*
X83101323Y-69410001D01*
X83104999Y-69447323D01*
X83105000Y-78254980D01*
X83058825Y-78185875D01*
X82824125Y-77951175D01*
X82548147Y-77766772D01*
X82241496Y-77639754D01*
X81915958Y-77575000D01*
X81584042Y-77575000D01*
X81258504Y-77639754D01*
X80951853Y-77766772D01*
X80675875Y-77951175D01*
X80441175Y-78185875D01*
X80256772Y-78461853D01*
X80129754Y-78768504D01*
X80065000Y-79094042D01*
X80065000Y-79425958D01*
X80129754Y-79751496D01*
X80256772Y-80058147D01*
X80379490Y-80241806D01*
X80138037Y-80276499D01*
X79857526Y-80375428D01*
X79714025Y-80452132D01*
X79633365Y-80703760D01*
X77089222Y-80703760D01*
X76962569Y-80577107D01*
X76715253Y-80411856D01*
X76440451Y-80298029D01*
X76148722Y-80240000D01*
X76111717Y-80240000D01*
X76233228Y-80058147D01*
X76360246Y-79751496D01*
X76425000Y-79425958D01*
X76425000Y-79094042D01*
X76360246Y-78768504D01*
X76233228Y-78461853D01*
X76048825Y-78185875D01*
X75814125Y-77951175D01*
X75538147Y-77766772D01*
X75231496Y-77639754D01*
X74905958Y-77575000D01*
X74574042Y-77575000D01*
X74248504Y-77639754D01*
X73941853Y-77766772D01*
X73665875Y-77951175D01*
X73431175Y-78185875D01*
X73246772Y-78461853D01*
X73119754Y-78768504D01*
X73055000Y-79094042D01*
X70759202Y-79094042D01*
X70720227Y-78898102D01*
X70642206Y-78709744D01*
X70528938Y-78540226D01*
X70384775Y-78396063D01*
X70215257Y-78282795D01*
X70026899Y-78204774D01*
X69826940Y-78165000D01*
X69764802Y-78165000D01*
X69363803Y-77764001D01*
X69340001Y-77734998D01*
X69224276Y-77640025D01*
X69092247Y-77569453D01*
X68948986Y-77525996D01*
X68837333Y-77514999D01*
X68837322Y-77514999D01*
X68800000Y-77511323D01*
X68762678Y-77514999D01*
X60162323Y-77514999D01*
X60125000Y-77511323D01*
X60087677Y-77514999D01*
X60087668Y-77514999D01*
X59976015Y-77525996D01*
X59936958Y-77537844D01*
X63752302Y-73722500D01*
X65107681Y-73722500D01*
X65082795Y-73759744D01*
X65004774Y-73948102D01*
X64965000Y-74148061D01*
X64965000Y-74351939D01*
X65004774Y-74551898D01*
X65082795Y-74740256D01*
X65196063Y-74909774D01*
X65340226Y-75053937D01*
X65509744Y-75167205D01*
X65698102Y-75245226D01*
X65898061Y-75285000D01*
X66101939Y-75285000D01*
X66121036Y-75281201D01*
X66138514Y-75286503D01*
X66250167Y-75297500D01*
X66250176Y-75297500D01*
X66287499Y-75301176D01*
X66324822Y-75297500D01*
X66584857Y-75297500D01*
X66637885Y-75362115D01*
X66767725Y-75468671D01*
X66915858Y-75547850D01*
X67076592Y-75596608D01*
X67243750Y-75613072D01*
X67756250Y-75613072D01*
X67923408Y-75596608D01*
X68084142Y-75547850D01*
X68232275Y-75468671D01*
X68362115Y-75362115D01*
X68413405Y-75299618D01*
X68469463Y-75404494D01*
X68548815Y-75501185D01*
X68645506Y-75580537D01*
X68755820Y-75639502D01*
X68875518Y-75675812D01*
X69000000Y-75688072D01*
X69164250Y-75685000D01*
X69323000Y-75526250D01*
X69323000Y-74677000D01*
X69577000Y-74677000D01*
X69577000Y-75526250D01*
X69735750Y-75685000D01*
X69900000Y-75688072D01*
X70024482Y-75675812D01*
X70144180Y-75639502D01*
X70254494Y-75580537D01*
X70351185Y-75501185D01*
X70430537Y-75404494D01*
X70489502Y-75294180D01*
X70525812Y-75174482D01*
X70538072Y-75050000D01*
X72461928Y-75050000D01*
X72474188Y-75174482D01*
X72510498Y-75294180D01*
X72569463Y-75404494D01*
X72648815Y-75501185D01*
X72745506Y-75580537D01*
X72855820Y-75639502D01*
X72975518Y-75675812D01*
X73100000Y-75688072D01*
X73264250Y-75685000D01*
X73423000Y-75526250D01*
X73423000Y-74677000D01*
X73677000Y-74677000D01*
X73677000Y-75526250D01*
X73835750Y-75685000D01*
X74000000Y-75688072D01*
X74124482Y-75675812D01*
X74244180Y-75639502D01*
X74354494Y-75580537D01*
X74451185Y-75501185D01*
X74530537Y-75404494D01*
X74540586Y-75385695D01*
X74573815Y-75426185D01*
X74670506Y-75505537D01*
X74780820Y-75564502D01*
X74900518Y-75600812D01*
X75025000Y-75613072D01*
X75214250Y-75610000D01*
X75373000Y-75451250D01*
X75373000Y-74664500D01*
X75627000Y-74664500D01*
X75627000Y-75451250D01*
X75785750Y-75610000D01*
X75975000Y-75613072D01*
X76099482Y-75600812D01*
X76219180Y-75564502D01*
X76329494Y-75505537D01*
X76426185Y-75426185D01*
X76505537Y-75329494D01*
X76564502Y-75219180D01*
X76600812Y-75099482D01*
X76613072Y-74975000D01*
X76610000Y-74823250D01*
X76451250Y-74664500D01*
X75627000Y-74664500D01*
X75373000Y-74664500D01*
X74548750Y-74664500D01*
X74506250Y-74707000D01*
X74476250Y-74677000D01*
X73677000Y-74677000D01*
X73423000Y-74677000D01*
X72623750Y-74677000D01*
X72465000Y-74835750D01*
X72461928Y-75050000D01*
X70538072Y-75050000D01*
X70535000Y-74835750D01*
X70376250Y-74677000D01*
X69577000Y-74677000D01*
X69323000Y-74677000D01*
X69303000Y-74677000D01*
X69303000Y-74423000D01*
X69323000Y-74423000D01*
X69323000Y-74403000D01*
X69577000Y-74403000D01*
X69577000Y-74423000D01*
X70376250Y-74423000D01*
X70535000Y-74264250D01*
X70538072Y-74050000D01*
X70525812Y-73925518D01*
X70489502Y-73805820D01*
X70459665Y-73750000D01*
X70474364Y-73722500D01*
X72525636Y-73722500D01*
X72540335Y-73750000D01*
X72510498Y-73805820D01*
X72474188Y-73925518D01*
X72461928Y-74050000D01*
X72465000Y-74264250D01*
X72623750Y-74423000D01*
X73423000Y-74423000D01*
X73423000Y-74403000D01*
X73677000Y-74403000D01*
X73677000Y-74423000D01*
X74476250Y-74423000D01*
X74518750Y-74380500D01*
X74548750Y-74410500D01*
X75373000Y-74410500D01*
X75373000Y-74390500D01*
X75627000Y-74390500D01*
X75627000Y-74410500D01*
X76451250Y-74410500D01*
X76610000Y-74251750D01*
X76613072Y-74100000D01*
X76600812Y-73975518D01*
X76564502Y-73855820D01*
X76505537Y-73745506D01*
X76450900Y-73678930D01*
X76468671Y-73657275D01*
X76547850Y-73509142D01*
X76596608Y-73348408D01*
X76613072Y-73181250D01*
X76613072Y-72743750D01*
X76596608Y-72576592D01*
X76547850Y-72415858D01*
X76468671Y-72267725D01*
X76362115Y-72137885D01*
X76232275Y-72031329D01*
X76084142Y-71952150D01*
X75923408Y-71903392D01*
X75756250Y-71886928D01*
X75243750Y-71886928D01*
X75076592Y-71903392D01*
X74915858Y-71952150D01*
X74767725Y-72031329D01*
X74637885Y-72137885D01*
X74586595Y-72200382D01*
X74530537Y-72095506D01*
X74451185Y-71998815D01*
X74354494Y-71919463D01*
X74244180Y-71860498D01*
X74124482Y-71824188D01*
X74000000Y-71811928D01*
X73100000Y-71811928D01*
X72975518Y-71824188D01*
X72855820Y-71860498D01*
X72745506Y-71919463D01*
X72648815Y-71998815D01*
X72569463Y-72095506D01*
X72512273Y-72202500D01*
X70487727Y-72202500D01*
X70430537Y-72095506D01*
X70367704Y-72018944D01*
X70386205Y-71991256D01*
X70464226Y-71802898D01*
X70504000Y-71602939D01*
X70504000Y-71399061D01*
X70464226Y-71199102D01*
X70386205Y-71010744D01*
X70272937Y-70841226D01*
X70128774Y-70697063D01*
X69959256Y-70583795D01*
X69770898Y-70505774D01*
X69570939Y-70466000D01*
X69493226Y-70466000D01*
X69361248Y-70395455D01*
X69217987Y-70351998D01*
X69106334Y-70341001D01*
X69106323Y-70341001D01*
X69069001Y-70337325D01*
X69031679Y-70341001D01*
X59640803Y-70341001D01*
X58256693Y-68956891D01*
X68188519Y-68956891D01*
X68285843Y-69231252D01*
X68434822Y-69481355D01*
X68629731Y-69697588D01*
X68863080Y-69871641D01*
X69125901Y-69996825D01*
X69273110Y-70041476D01*
X69503000Y-69920155D01*
X69503000Y-68727000D01*
X68309186Y-68727000D01*
X68188519Y-68956891D01*
X58256693Y-68956891D01*
X57542911Y-68243109D01*
X68188519Y-68243109D01*
X68309186Y-68473000D01*
X69503000Y-68473000D01*
X69503000Y-67279845D01*
X69757000Y-67279845D01*
X69757000Y-68473000D01*
X69777000Y-68473000D01*
X69777000Y-68727000D01*
X69757000Y-68727000D01*
X69757000Y-69920155D01*
X69986890Y-70041476D01*
X70134099Y-69996825D01*
X70396920Y-69871641D01*
X70630269Y-69697588D01*
X70825178Y-69481355D01*
X70894805Y-69364466D01*
X71016525Y-69546632D01*
X71223368Y-69753475D01*
X71466589Y-69915990D01*
X71736842Y-70027932D01*
X72023740Y-70085000D01*
X72316260Y-70085000D01*
X72603158Y-70027932D01*
X72873411Y-69915990D01*
X73116632Y-69753475D01*
X73323475Y-69546632D01*
X73440000Y-69372240D01*
X73556525Y-69546632D01*
X73763368Y-69753475D01*
X74006589Y-69915990D01*
X74276842Y-70027932D01*
X74563740Y-70085000D01*
X74856260Y-70085000D01*
X75143158Y-70027932D01*
X75413411Y-69915990D01*
X75656632Y-69753475D01*
X75788487Y-69621620D01*
X75810498Y-69694180D01*
X75869463Y-69804494D01*
X75948815Y-69901185D01*
X76045506Y-69980537D01*
X76155820Y-70039502D01*
X76275518Y-70075812D01*
X76400000Y-70088072D01*
X78100000Y-70088072D01*
X78224482Y-70075812D01*
X78344180Y-70039502D01*
X78454494Y-69980537D01*
X78551185Y-69901185D01*
X78630537Y-69804494D01*
X78689502Y-69694180D01*
X78725812Y-69574482D01*
X78738072Y-69450000D01*
X78738072Y-67750000D01*
X78725812Y-67625518D01*
X78689502Y-67505820D01*
X78630537Y-67395506D01*
X78551185Y-67298815D01*
X78454494Y-67219463D01*
X78344180Y-67160498D01*
X78224482Y-67124188D01*
X78100000Y-67111928D01*
X76400000Y-67111928D01*
X76275518Y-67124188D01*
X76155820Y-67160498D01*
X76045506Y-67219463D01*
X75948815Y-67298815D01*
X75869463Y-67395506D01*
X75810498Y-67505820D01*
X75788487Y-67578380D01*
X75656632Y-67446525D01*
X75413411Y-67284010D01*
X75143158Y-67172068D01*
X74856260Y-67115000D01*
X74563740Y-67115000D01*
X74276842Y-67172068D01*
X74006589Y-67284010D01*
X73763368Y-67446525D01*
X73556525Y-67653368D01*
X73440000Y-67827760D01*
X73323475Y-67653368D01*
X73116632Y-67446525D01*
X72873411Y-67284010D01*
X72603158Y-67172068D01*
X72316260Y-67115000D01*
X72023740Y-67115000D01*
X71736842Y-67172068D01*
X71466589Y-67284010D01*
X71223368Y-67446525D01*
X71016525Y-67653368D01*
X70894805Y-67835534D01*
X70825178Y-67718645D01*
X70630269Y-67502412D01*
X70396920Y-67328359D01*
X70134099Y-67203175D01*
X69986890Y-67158524D01*
X69757000Y-67279845D01*
X69503000Y-67279845D01*
X69273110Y-67158524D01*
X69125901Y-67203175D01*
X68863080Y-67328359D01*
X68629731Y-67502412D01*
X68434822Y-67718645D01*
X68285843Y-67968748D01*
X68188519Y-68243109D01*
X57542911Y-68243109D01*
X50836801Y-61537000D01*
X50851939Y-61537000D01*
X51051898Y-61497226D01*
X51240256Y-61419205D01*
X51409774Y-61305937D01*
X51553937Y-61161774D01*
X51667205Y-60992256D01*
X51745226Y-60803898D01*
X51747713Y-60791397D01*
X51754774Y-60826898D01*
X51832795Y-61015256D01*
X51946063Y-61184774D01*
X52090226Y-61328937D01*
X52259744Y-61442205D01*
X52448102Y-61520226D01*
X52648061Y-61560000D01*
X52710198Y-61560000D01*
X53361216Y-62211019D01*
X53385010Y-62240012D01*
X53414003Y-62263806D01*
X53414007Y-62263810D01*
X53470015Y-62309774D01*
X53500735Y-62334985D01*
X53632764Y-62405557D01*
X53776025Y-62449014D01*
X53887678Y-62460011D01*
X53887687Y-62460011D01*
X53925010Y-62463687D01*
X53962333Y-62460011D01*
X63518665Y-62460011D01*
X63555987Y-62463687D01*
X63593309Y-62460011D01*
X63593320Y-62460011D01*
X63704973Y-62449014D01*
X63848234Y-62405557D01*
X63980263Y-62334985D01*
X64095988Y-62240012D01*
X64119791Y-62211008D01*
X65270801Y-61059999D01*
X67683200Y-61059999D01*
X68259204Y-61636003D01*
X68283002Y-61665002D01*
X68312000Y-61688800D01*
X68398726Y-61759975D01*
X68480389Y-61803625D01*
X68530756Y-61830547D01*
X68674017Y-61874004D01*
X68785670Y-61885001D01*
X68785680Y-61885001D01*
X68823002Y-61888677D01*
X68860325Y-61885001D01*
X71015000Y-61885001D01*
X71014999Y-62635678D01*
X71011323Y-62673001D01*
X71014999Y-62710323D01*
X71014999Y-62710333D01*
X71025996Y-62821986D01*
X71055430Y-62919017D01*
X71069453Y-62965247D01*
X71137201Y-63091994D01*
X71135000Y-63103061D01*
X71135000Y-63306939D01*
X71174774Y-63506898D01*
X71252795Y-63695256D01*
X71366063Y-63864774D01*
X71510226Y-64008937D01*
X71679744Y-64122205D01*
X71868102Y-64200226D01*
X72068061Y-64240000D01*
X72271939Y-64240000D01*
X72471898Y-64200226D01*
X72660256Y-64122205D01*
X72829774Y-64008937D01*
X72973937Y-63864774D01*
X73087205Y-63695256D01*
X73165226Y-63506898D01*
X73205000Y-63306939D01*
X73205000Y-63103061D01*
X73165226Y-62903102D01*
X73087205Y-62714744D01*
X72987662Y-62565767D01*
X73165256Y-62492205D01*
X73334774Y-62378937D01*
X73478937Y-62234774D01*
X73592205Y-62065256D01*
X73670226Y-61876898D01*
X73710000Y-61676939D01*
X73710000Y-61614801D01*
X74914802Y-60410000D01*
X75171289Y-60410000D01*
X75215226Y-60453937D01*
X75384744Y-60567205D01*
X75401184Y-60574015D01*
X75360199Y-60615000D01*
X75298061Y-60615000D01*
X75098102Y-60654774D01*
X74909744Y-60732795D01*
X74740226Y-60846063D01*
X74596063Y-60990226D01*
X74482795Y-61159744D01*
X74404774Y-61348102D01*
X74365000Y-61548061D01*
X74365000Y-61751939D01*
X74404774Y-61951898D01*
X74482795Y-62140256D01*
X74596063Y-62309774D01*
X74640000Y-62353711D01*
X74640001Y-64662668D01*
X74636324Y-64700000D01*
X74640001Y-64737333D01*
X74650998Y-64848986D01*
X74659197Y-64876014D01*
X74694454Y-64992246D01*
X74715000Y-65030685D01*
X74715000Y-65151939D01*
X74754774Y-65351898D01*
X74832795Y-65540256D01*
X74946063Y-65709774D01*
X75090226Y-65853937D01*
X75259744Y-65967205D01*
X75448102Y-66045226D01*
X75648061Y-66085000D01*
X75851939Y-66085000D01*
X76051898Y-66045226D01*
X76240256Y-65967205D01*
X76409774Y-65853937D01*
X76553937Y-65709774D01*
X76667205Y-65540256D01*
X76745226Y-65351898D01*
X76785000Y-65151939D01*
X76785000Y-64948061D01*
X76745226Y-64748102D01*
X76667205Y-64559744D01*
X76553937Y-64390226D01*
X76409774Y-64246063D01*
X76240256Y-64132795D01*
X76160000Y-64099552D01*
X76160000Y-62353711D01*
X76203937Y-62309774D01*
X76317205Y-62140256D01*
X76395226Y-61951898D01*
X76435000Y-61751939D01*
X76435000Y-61689801D01*
X77161003Y-60963799D01*
X77190001Y-60940001D01*
X77224326Y-60898176D01*
X77284974Y-60824277D01*
X77355546Y-60692247D01*
X77361085Y-60673986D01*
X77399003Y-60548986D01*
X77410000Y-60437333D01*
X77410000Y-60437323D01*
X77413676Y-60400000D01*
X77410000Y-60362677D01*
X77410000Y-60138010D01*
X81083207Y-60138010D01*
X81209195Y-60263998D01*
X81232998Y-60293002D01*
X81334767Y-60376522D01*
X81296063Y-60415226D01*
X81182795Y-60584744D01*
X81104774Y-60773102D01*
X81065000Y-60973061D01*
X81065000Y-61176939D01*
X81104774Y-61376898D01*
X81182795Y-61565256D01*
X81296063Y-61734774D01*
X81440226Y-61878937D01*
X81609744Y-61992205D01*
X81739999Y-62046159D01*
X81740000Y-62587667D01*
X81736323Y-62624999D01*
X81740000Y-62662332D01*
X81750997Y-62773985D01*
X81764179Y-62817441D01*
X81794453Y-62917245D01*
X81865025Y-63049275D01*
X81904419Y-63097276D01*
X81959999Y-63165000D01*
X81988997Y-63188798D01*
X85036202Y-66236004D01*
X85060000Y-66265002D01*
X85175725Y-66359975D01*
X85307754Y-66430547D01*
X85451015Y-66474004D01*
X85562668Y-66485001D01*
X85562678Y-66485001D01*
X85600001Y-66488677D01*
X85637324Y-66485001D01*
X87997434Y-66485001D01*
X87965000Y-66648061D01*
X87965000Y-66851939D01*
X88004774Y-67051898D01*
X88082795Y-67240256D01*
X88196063Y-67409774D01*
X88340226Y-67553937D01*
X88509744Y-67667205D01*
X88698102Y-67745226D01*
X88898061Y-67785000D01*
X89101939Y-67785000D01*
X89301898Y-67745226D01*
X89490256Y-67667205D01*
X89659774Y-67553937D01*
X89703711Y-67510000D01*
X92851078Y-67510000D01*
X92819453Y-67569165D01*
X92805550Y-67615000D01*
X92775997Y-67712425D01*
X92769905Y-67774276D01*
X92761323Y-67861411D01*
X92765000Y-67898743D01*
X92764999Y-71310176D01*
X92761323Y-71347499D01*
X92764999Y-71384821D01*
X92764999Y-71384831D01*
X92775996Y-71496484D01*
X92803555Y-71587334D01*
X92819453Y-71639745D01*
X92890025Y-71771775D01*
X92918562Y-71806547D01*
X92984998Y-71887500D01*
X93014001Y-71911302D01*
X93090000Y-71987301D01*
X93090000Y-72049439D01*
X93129774Y-72249398D01*
X93207795Y-72437756D01*
X93321063Y-72607274D01*
X93465226Y-72751437D01*
X93634744Y-72864705D01*
X93823102Y-72942726D01*
X94023061Y-72982500D01*
X94226939Y-72982500D01*
X94426898Y-72942726D01*
X94543793Y-72894306D01*
X94614891Y-73090100D01*
X94672050Y-73197035D01*
X94908367Y-73259528D01*
X95667895Y-72500000D01*
X96027105Y-72500000D01*
X96786633Y-73259528D01*
X97014997Y-73199138D01*
X97128769Y-73373000D01*
X98420500Y-73373000D01*
X98420500Y-72265000D01*
X98070500Y-72265000D01*
X97832004Y-72313507D01*
X97607554Y-72407610D01*
X97405775Y-72543693D01*
X97234422Y-72716526D01*
X97171329Y-72811836D01*
X97200219Y-72694151D01*
X97212104Y-72426518D01*
X97171548Y-72161709D01*
X97080109Y-71909900D01*
X97022950Y-71802965D01*
X96786633Y-71740472D01*
X96027105Y-72500000D01*
X95667895Y-72500000D01*
X95653753Y-72485858D01*
X95833358Y-72306253D01*
X95847500Y-72320395D01*
X96607028Y-71560867D01*
X96544535Y-71324550D01*
X96301822Y-71211150D01*
X96041651Y-71147281D01*
X95774018Y-71135396D01*
X95509209Y-71175952D01*
X95257400Y-71267391D01*
X95150465Y-71324550D01*
X95087973Y-71560865D01*
X95083114Y-71556006D01*
X95042205Y-71457244D01*
X94928937Y-71287726D01*
X94784774Y-71143563D01*
X94780206Y-71140511D01*
X94909774Y-71053937D01*
X95053937Y-70909774D01*
X95167205Y-70740256D01*
X95245226Y-70551898D01*
X95285000Y-70351939D01*
X95285000Y-70148061D01*
X95245226Y-69948102D01*
X95167205Y-69759744D01*
X95053937Y-69590226D01*
X95010000Y-69546289D01*
X95010000Y-68953711D01*
X95053937Y-68909774D01*
X95167205Y-68740256D01*
X95186982Y-68692511D01*
X95393178Y-68788850D01*
X95653349Y-68852719D01*
X95920982Y-68864604D01*
X96185791Y-68824048D01*
X96437600Y-68732609D01*
X96544535Y-68675450D01*
X96607028Y-68439133D01*
X95847500Y-67679605D01*
X95833358Y-67693748D01*
X95653753Y-67514143D01*
X95667895Y-67500000D01*
X96027105Y-67500000D01*
X96786633Y-68259528D01*
X97022950Y-68197035D01*
X97136350Y-67954322D01*
X97200219Y-67694151D01*
X97212104Y-67426518D01*
X97176885Y-67196558D01*
X97234422Y-67283474D01*
X97405775Y-67456307D01*
X97607554Y-67592390D01*
X97832004Y-67686493D01*
X98070500Y-67735000D01*
X98420500Y-67735000D01*
X98420500Y-66627000D01*
X97128769Y-66627000D01*
X97014997Y-66800862D01*
X96786633Y-66740472D01*
X96027105Y-67500000D01*
X95667895Y-67500000D01*
X95653753Y-67485858D01*
X95833358Y-67306253D01*
X95847500Y-67320395D01*
X96607028Y-66560867D01*
X96561416Y-66388385D01*
X96635999Y-66313802D01*
X96665002Y-66290000D01*
X96753314Y-66182391D01*
X97004038Y-66182391D01*
X97128769Y-66373000D01*
X98420500Y-66373000D01*
X98420500Y-65265000D01*
X98070500Y-65265000D01*
X97832004Y-65313507D01*
X97607554Y-65407610D01*
X97405775Y-65543693D01*
X97234422Y-65716526D01*
X97100079Y-65919467D01*
X97007909Y-66144718D01*
X97004038Y-66182391D01*
X96753314Y-66182391D01*
X96759975Y-66174275D01*
X96830547Y-66042246D01*
X96874004Y-65898985D01*
X96885001Y-65787332D01*
X96885001Y-65787323D01*
X96888677Y-65750000D01*
X96885001Y-65712677D01*
X96885001Y-65039332D01*
X96888678Y-65001999D01*
X96874004Y-64853013D01*
X96830547Y-64709752D01*
X96794464Y-64642247D01*
X96759975Y-64577723D01*
X96665002Y-64461998D01*
X96635998Y-64438195D01*
X96311805Y-64114002D01*
X96288002Y-64084998D01*
X96172277Y-63990025D01*
X96040248Y-63919453D01*
X95896987Y-63875996D01*
X95785334Y-63864999D01*
X95785323Y-63864999D01*
X95748001Y-63861323D01*
X95710679Y-63864999D01*
X93737324Y-63864999D01*
X93700001Y-63861323D01*
X93662678Y-63864999D01*
X93662668Y-63864999D01*
X93551015Y-63875996D01*
X93407754Y-63919453D01*
X93275772Y-63990000D01*
X93198061Y-63990000D01*
X92998102Y-64029774D01*
X92809744Y-64107795D01*
X92640226Y-64221063D01*
X92496063Y-64365226D01*
X92382795Y-64534744D01*
X92304774Y-64723102D01*
X92265000Y-64923061D01*
X92265000Y-64965001D01*
X89483853Y-64965001D01*
X89567205Y-64840256D01*
X89645226Y-64651898D01*
X89685000Y-64451939D01*
X89685000Y-64248061D01*
X89645226Y-64048102D01*
X89567205Y-63859744D01*
X89453937Y-63690226D01*
X89410000Y-63646289D01*
X89410000Y-60914801D01*
X90612331Y-59712470D01*
X90851278Y-59760000D01*
X90888283Y-59760000D01*
X90766772Y-59941853D01*
X90639754Y-60248504D01*
X90575000Y-60574042D01*
X90575000Y-60905958D01*
X90639754Y-61231496D01*
X90766772Y-61538147D01*
X90951175Y-61814125D01*
X91185875Y-62048825D01*
X91461853Y-62233228D01*
X91768504Y-62360246D01*
X92094042Y-62425000D01*
X92425958Y-62425000D01*
X92751496Y-62360246D01*
X93058147Y-62233228D01*
X93334125Y-62048825D01*
X93568825Y-61814125D01*
X93753228Y-61538147D01*
X93880246Y-61231496D01*
X93945000Y-60905958D01*
X93945000Y-60574042D01*
X93880246Y-60248504D01*
X93753228Y-59941853D01*
X93642642Y-59776349D01*
X95403256Y-59776349D01*
X95607362Y-60132867D01*
X96050223Y-60363575D01*
X96529583Y-60503452D01*
X97027021Y-60547123D01*
X97523422Y-60492909D01*
X97999707Y-60342894D01*
X98392638Y-60132867D01*
X98596744Y-59776349D01*
X97000000Y-58179605D01*
X95403256Y-59776349D01*
X93642642Y-59776349D01*
X93568825Y-59665875D01*
X93334125Y-59431175D01*
X93058147Y-59246772D01*
X92751496Y-59119754D01*
X92425958Y-59055000D01*
X92278177Y-59055000D01*
X92338144Y-58965253D01*
X92451971Y-58690451D01*
X92510000Y-58398722D01*
X92510000Y-58101278D01*
X92495230Y-58027021D01*
X94452877Y-58027021D01*
X94507091Y-58523422D01*
X94657106Y-58999707D01*
X94867133Y-59392638D01*
X95223651Y-59596744D01*
X96820395Y-58000000D01*
X95223651Y-56403256D01*
X94867133Y-56607362D01*
X94636425Y-57050223D01*
X94496548Y-57529583D01*
X94452877Y-58027021D01*
X92495230Y-58027021D01*
X92451971Y-57809549D01*
X92338144Y-57534747D01*
X92172893Y-57287431D01*
X91962569Y-57077107D01*
X91715253Y-56911856D01*
X91440451Y-56798029D01*
X91148722Y-56740000D01*
X90851278Y-56740000D01*
X90559549Y-56798029D01*
X90284747Y-56911856D01*
X90037431Y-57077107D01*
X89827107Y-57287431D01*
X89661856Y-57534747D01*
X89548029Y-57809549D01*
X89490000Y-58101278D01*
X89490000Y-58398722D01*
X89537530Y-58637669D01*
X88139003Y-60036196D01*
X88109999Y-60059999D01*
X88076350Y-60101001D01*
X88015026Y-60175724D01*
X87962354Y-60274266D01*
X87944454Y-60307754D01*
X87900997Y-60451015D01*
X87890000Y-60562668D01*
X87890000Y-60562678D01*
X87886324Y-60600000D01*
X87890000Y-60637323D01*
X87890001Y-63590000D01*
X85176212Y-63590000D01*
X83710009Y-62123798D01*
X83710009Y-61425250D01*
X83756772Y-61538147D01*
X83941175Y-61814125D01*
X84175875Y-62048825D01*
X84451853Y-62233228D01*
X84758504Y-62360246D01*
X85084042Y-62425000D01*
X85415958Y-62425000D01*
X85741496Y-62360246D01*
X86048147Y-62233228D01*
X86324125Y-62048825D01*
X86558825Y-61814125D01*
X86743228Y-61538147D01*
X86870246Y-61231496D01*
X86935000Y-60905958D01*
X86935000Y-60574042D01*
X86870246Y-60248504D01*
X86743228Y-59941853D01*
X86620510Y-59758194D01*
X86861963Y-59723501D01*
X87142474Y-59624572D01*
X87285975Y-59547868D01*
X87366635Y-59296240D01*
X86500000Y-58429605D01*
X86485858Y-58443748D01*
X86306253Y-58264143D01*
X86320395Y-58250000D01*
X86679605Y-58250000D01*
X87546240Y-59116635D01*
X87797868Y-59035975D01*
X87926267Y-58767671D01*
X87999855Y-58479474D01*
X88015804Y-58182457D01*
X87973501Y-57888037D01*
X87874572Y-57607526D01*
X87797868Y-57464025D01*
X87546240Y-57383365D01*
X86679605Y-58250000D01*
X86320395Y-58250000D01*
X85453760Y-57383365D01*
X85202132Y-57464025D01*
X85073733Y-57732329D01*
X85000145Y-58020526D01*
X84984196Y-58317543D01*
X85026499Y-58611963D01*
X85125428Y-58892474D01*
X85202132Y-59035975D01*
X85261483Y-59055000D01*
X85084042Y-59055000D01*
X84758504Y-59119754D01*
X84451853Y-59246772D01*
X84175875Y-59431175D01*
X83941175Y-59665875D01*
X83756772Y-59941853D01*
X83706355Y-60063572D01*
X83699012Y-59989023D01*
X83655555Y-59845762D01*
X83631471Y-59800705D01*
X83584983Y-59713733D01*
X83490010Y-59598008D01*
X83461006Y-59574205D01*
X83226842Y-59340041D01*
X83260383Y-59259067D01*
X83304000Y-59039788D01*
X83304000Y-58816212D01*
X83260383Y-58596933D01*
X83174824Y-58390376D01*
X83050612Y-58204480D01*
X82892520Y-58046388D01*
X82706624Y-57922176D01*
X82500067Y-57836617D01*
X82280788Y-57793000D01*
X82057212Y-57793000D01*
X81837933Y-57836617D01*
X81631376Y-57922176D01*
X81445480Y-58046388D01*
X81323868Y-58168000D01*
X77819800Y-58168000D01*
X77165781Y-57513982D01*
X77141981Y-57484981D01*
X77026256Y-57390008D01*
X76894227Y-57319436D01*
X76750966Y-57275979D01*
X76640118Y-57265061D01*
X76617205Y-57209744D01*
X76613207Y-57203760D01*
X85633365Y-57203760D01*
X86500000Y-58070395D01*
X87366635Y-57203760D01*
X87285975Y-56952132D01*
X87017671Y-56823733D01*
X86729474Y-56750145D01*
X86432457Y-56734196D01*
X86138037Y-56776499D01*
X85857526Y-56875428D01*
X85714025Y-56952132D01*
X85633365Y-57203760D01*
X76613207Y-57203760D01*
X76564239Y-57130475D01*
X76534974Y-57075724D01*
X76440001Y-56959999D01*
X76324276Y-56865026D01*
X76269525Y-56835761D01*
X76190256Y-56782795D01*
X76001898Y-56704774D01*
X75801939Y-56665000D01*
X75598061Y-56665000D01*
X75398102Y-56704774D01*
X75209744Y-56782795D01*
X75040226Y-56896063D01*
X74896063Y-57040226D01*
X74782795Y-57209744D01*
X74704774Y-57398102D01*
X74665000Y-57598061D01*
X74665000Y-57714994D01*
X72162333Y-57715001D01*
X72125000Y-57711324D01*
X71976014Y-57725997D01*
X71832753Y-57769454D01*
X71700725Y-57840026D01*
X71613998Y-57911201D01*
X71584998Y-57935001D01*
X71561200Y-57963999D01*
X71264003Y-58261196D01*
X71234999Y-58284999D01*
X71201338Y-58326016D01*
X71149005Y-58389783D01*
X70798789Y-58740000D01*
X70650933Y-58740000D01*
X70613610Y-58736324D01*
X70576287Y-58740000D01*
X70576277Y-58740000D01*
X70464624Y-58750997D01*
X70321363Y-58794454D01*
X70189333Y-58865026D01*
X70116257Y-58924999D01*
X70073609Y-58959999D01*
X70049811Y-58988998D01*
X69573828Y-59464981D01*
X69514783Y-59464981D01*
X68938782Y-58888981D01*
X68914980Y-58859978D01*
X68799255Y-58765005D01*
X68667226Y-58694433D01*
X68523965Y-58650976D01*
X68412312Y-58639979D01*
X68412301Y-58639979D01*
X68374979Y-58636303D01*
X68337657Y-58639979D01*
X58839342Y-58639979D01*
X58802019Y-58636303D01*
X58764696Y-58639979D01*
X58764686Y-58639979D01*
X58653033Y-58650976D01*
X58525688Y-58689605D01*
X58509772Y-58694433D01*
X58377742Y-58765005D01*
X58315347Y-58816212D01*
X58262018Y-58859978D01*
X58238220Y-58888976D01*
X57407592Y-59719605D01*
X57240256Y-59607795D01*
X57051898Y-59529774D01*
X56851939Y-59490000D01*
X56648061Y-59490000D01*
X56448102Y-59529774D01*
X56259744Y-59607795D01*
X56090226Y-59721063D01*
X55946063Y-59865226D01*
X55832795Y-60034744D01*
X55754774Y-60223102D01*
X55750000Y-60247103D01*
X55745226Y-60223102D01*
X55667205Y-60034744D01*
X55553937Y-59865226D01*
X55409774Y-59721063D01*
X55240256Y-59607795D01*
X55051898Y-59529774D01*
X54851939Y-59490000D01*
X54648061Y-59490000D01*
X54448102Y-59529774D01*
X54259744Y-59607795D01*
X54090226Y-59721063D01*
X53946063Y-59865226D01*
X53832795Y-60034744D01*
X53754774Y-60223102D01*
X53750000Y-60247103D01*
X53745226Y-60223102D01*
X53667205Y-60034744D01*
X53553937Y-59865226D01*
X53409774Y-59721063D01*
X53240256Y-59607795D01*
X53051898Y-59529774D01*
X52851939Y-59490000D01*
X52648061Y-59490000D01*
X52448102Y-59529774D01*
X52259744Y-59607795D01*
X52090226Y-59721063D01*
X51946063Y-59865226D01*
X51832795Y-60034744D01*
X51754774Y-60223102D01*
X51752287Y-60235603D01*
X51745226Y-60200102D01*
X51667205Y-60011744D01*
X51553937Y-59842226D01*
X51409774Y-59698063D01*
X51240256Y-59584795D01*
X51051898Y-59506774D01*
X50851939Y-59467000D01*
X50789801Y-59467000D01*
X50611802Y-59289001D01*
X50588000Y-59259998D01*
X50472275Y-59165025D01*
X50340246Y-59094453D01*
X50196985Y-59050996D01*
X50085332Y-59039999D01*
X50085321Y-59039999D01*
X50047999Y-59036323D01*
X50010677Y-59039999D01*
X48439332Y-59039999D01*
X48401999Y-59036322D01*
X48364666Y-59039999D01*
X48253013Y-59050996D01*
X48109752Y-59094453D01*
X47977723Y-59165025D01*
X47861998Y-59259998D01*
X47838195Y-59289002D01*
X47513997Y-59613200D01*
X47484999Y-59636998D01*
X47461201Y-59665996D01*
X47461200Y-59665997D01*
X47390025Y-59752723D01*
X47319453Y-59884753D01*
X47307464Y-59924276D01*
X47275996Y-60028013D01*
X47264999Y-60139666D01*
X47264999Y-60139677D01*
X47261323Y-60176999D01*
X47264999Y-60214321D01*
X47264999Y-60835679D01*
X47261323Y-60873001D01*
X47264999Y-60910323D01*
X47264999Y-60910333D01*
X47275996Y-61021986D01*
X47318977Y-61163677D01*
X47319453Y-61165247D01*
X47390025Y-61297277D01*
X47413609Y-61326014D01*
X47484998Y-61413002D01*
X47514002Y-61436805D01*
X47700197Y-61623000D01*
X40660000Y-61623000D01*
X40660000Y-58032279D01*
X40679920Y-57829117D01*
X41265000Y-57829117D01*
X41265000Y-58170883D01*
X41331675Y-58506081D01*
X41462463Y-58821831D01*
X41652337Y-59105998D01*
X41894002Y-59347663D01*
X42178169Y-59537537D01*
X42493919Y-59668325D01*
X42829117Y-59735000D01*
X43170883Y-59735000D01*
X43506081Y-59668325D01*
X43821831Y-59537537D01*
X44105998Y-59347663D01*
X44347663Y-59105998D01*
X44537537Y-58821831D01*
X44668325Y-58506081D01*
X44735000Y-58170883D01*
X44735000Y-57829117D01*
X44668325Y-57493919D01*
X44537537Y-57178169D01*
X44347663Y-56894002D01*
X44105998Y-56652337D01*
X44102501Y-56650000D01*
X46011928Y-56650000D01*
X46011928Y-58350000D01*
X46024188Y-58474482D01*
X46060498Y-58594180D01*
X46119463Y-58704494D01*
X46198815Y-58801185D01*
X46295506Y-58880537D01*
X46405820Y-58939502D01*
X46525518Y-58975812D01*
X46650000Y-58988072D01*
X48350000Y-58988072D01*
X48474482Y-58975812D01*
X48594180Y-58939502D01*
X48704494Y-58880537D01*
X48801185Y-58801185D01*
X48880537Y-58704494D01*
X48939502Y-58594180D01*
X48961513Y-58521620D01*
X49093368Y-58653475D01*
X49336589Y-58815990D01*
X49606842Y-58927932D01*
X49893740Y-58985000D01*
X50186260Y-58985000D01*
X50473158Y-58927932D01*
X50743411Y-58815990D01*
X50986632Y-58653475D01*
X51193475Y-58446632D01*
X51355990Y-58203411D01*
X51467932Y-57933158D01*
X51525000Y-57646260D01*
X51525000Y-57353740D01*
X51467932Y-57066842D01*
X51355990Y-56796589D01*
X51193475Y-56553368D01*
X50986632Y-56346525D01*
X50743411Y-56184010D01*
X50473158Y-56072068D01*
X50186260Y-56015000D01*
X49893740Y-56015000D01*
X49606842Y-56072068D01*
X49336589Y-56184010D01*
X49093368Y-56346525D01*
X48961513Y-56478380D01*
X48939502Y-56405820D01*
X48880537Y-56295506D01*
X48801185Y-56198815D01*
X48704494Y-56119463D01*
X48594180Y-56060498D01*
X48474482Y-56024188D01*
X48350000Y-56011928D01*
X46650000Y-56011928D01*
X46525518Y-56024188D01*
X46405820Y-56060498D01*
X46295506Y-56119463D01*
X46198815Y-56198815D01*
X46119463Y-56295506D01*
X46060498Y-56405820D01*
X46024188Y-56525518D01*
X46011928Y-56650000D01*
X44102501Y-56650000D01*
X43821831Y-56462463D01*
X43506081Y-56331675D01*
X43170883Y-56265000D01*
X42829117Y-56265000D01*
X42493919Y-56331675D01*
X42178169Y-56462463D01*
X41894002Y-56652337D01*
X41652337Y-56894002D01*
X41462463Y-57178169D01*
X41331675Y-57493919D01*
X41265000Y-57829117D01*
X40679920Y-57829117D01*
X40707670Y-57546107D01*
X40839489Y-57109502D01*
X41053600Y-56706815D01*
X41341848Y-56353388D01*
X41693261Y-56062673D01*
X42094439Y-55845758D01*
X42530113Y-55710894D01*
X43014344Y-55660000D01*
X95994879Y-55660000D01*
X95607362Y-55867133D01*
G37*
X95607362Y-55867133D02*
X95403256Y-56223651D01*
X97000000Y-57820395D01*
X97014143Y-57806253D01*
X97193748Y-57985858D01*
X97179605Y-58000000D01*
X98776349Y-59596744D01*
X99132867Y-59392638D01*
X99340000Y-58995031D01*
X99340000Y-65345792D01*
X99262996Y-65313507D01*
X99024500Y-65265000D01*
X98674500Y-65265000D01*
X98674500Y-66373000D01*
X98694500Y-66373000D01*
X98694500Y-66627000D01*
X98674500Y-66627000D01*
X98674500Y-67735000D01*
X99024500Y-67735000D01*
X99262996Y-67686493D01*
X99340000Y-67654208D01*
X99340001Y-72345792D01*
X99262996Y-72313507D01*
X99024500Y-72265000D01*
X98674500Y-72265000D01*
X98674500Y-73373000D01*
X98694500Y-73373000D01*
X98694500Y-73627000D01*
X98674500Y-73627000D01*
X98674500Y-74735000D01*
X99024500Y-74735000D01*
X99262996Y-74686493D01*
X99340001Y-74654208D01*
X99340001Y-80994881D01*
X99132867Y-80607362D01*
X98776349Y-80403256D01*
X97179605Y-82000000D01*
X97193748Y-82014143D01*
X97014143Y-82193748D01*
X97000000Y-82179605D01*
X95403256Y-83776349D01*
X95607362Y-84132867D01*
X96004969Y-84340000D01*
X43032279Y-84340000D01*
X42546106Y-84292330D01*
X42109503Y-84160512D01*
X41706814Y-83946399D01*
X41353387Y-83658150D01*
X41062673Y-83306739D01*
X40845760Y-82905564D01*
X40710894Y-82469886D01*
X40660000Y-81985664D01*
X40660000Y-81829117D01*
X41265000Y-81829117D01*
X41265000Y-82170883D01*
X41331675Y-82506081D01*
X41462463Y-82821831D01*
X41652337Y-83105998D01*
X41894002Y-83347663D01*
X42178169Y-83537537D01*
X42493919Y-83668325D01*
X42829117Y-83735000D01*
X43170883Y-83735000D01*
X43506081Y-83668325D01*
X43821831Y-83537537D01*
X44105998Y-83347663D01*
X44347663Y-83105998D01*
X44537537Y-82821831D01*
X44668325Y-82506081D01*
X44735000Y-82170883D01*
X44735000Y-81829117D01*
X44668325Y-81493919D01*
X44537537Y-81178169D01*
X44347663Y-80894002D01*
X44105998Y-80652337D01*
X43821831Y-80462463D01*
X43506081Y-80331675D01*
X43170883Y-80265000D01*
X42829117Y-80265000D01*
X42493919Y-80331675D01*
X42178169Y-80462463D01*
X41894002Y-80652337D01*
X41652337Y-80894002D01*
X41462463Y-81178169D01*
X41331675Y-81493919D01*
X41265000Y-81829117D01*
X40660000Y-81829117D01*
X40660000Y-78377000D01*
X47750000Y-78377000D01*
X47774776Y-78374560D01*
X47798601Y-78367333D01*
X47820557Y-78355597D01*
X47839803Y-78339803D01*
X47855597Y-78320557D01*
X47867333Y-78298601D01*
X47874560Y-78274776D01*
X47877000Y-78250000D01*
X47877000Y-61802314D01*
X47977723Y-61884975D01*
X48042226Y-61919453D01*
X48109752Y-61955547D01*
X48253013Y-61999004D01*
X48401999Y-62013678D01*
X48439332Y-62010001D01*
X48523790Y-62010001D01*
X58575805Y-72062017D01*
X58599599Y-72091010D01*
X58628592Y-72114804D01*
X58628597Y-72114809D01*
X58715324Y-72185984D01*
X58847353Y-72256556D01*
X58990614Y-72300013D01*
X59139600Y-72314686D01*
X59176935Y-72311009D01*
X63044123Y-72311010D01*
X63013224Y-72327526D01*
X62897499Y-72422499D01*
X62873701Y-72451497D01*
X56760199Y-78565000D01*
X56698061Y-78565000D01*
X56498102Y-78604774D01*
X56309744Y-78682795D01*
X56140226Y-78796063D01*
X55996063Y-78940226D01*
X55882795Y-79109744D01*
X55804774Y-79298102D01*
X55765000Y-79498061D01*
X55765000Y-79701939D01*
X55804774Y-79901898D01*
X55882795Y-80090256D01*
X55996063Y-80259774D01*
X56140226Y-80403937D01*
X56309744Y-80517205D01*
X56498102Y-80595226D01*
X56698061Y-80635000D01*
X56901939Y-80635000D01*
X57101898Y-80595226D01*
X57290256Y-80517205D01*
X57459774Y-80403937D01*
X57603937Y-80259774D01*
X57717205Y-80090256D01*
X57795226Y-79901898D01*
X57800000Y-79877897D01*
X57804774Y-79901898D01*
X57882795Y-80090256D01*
X57996063Y-80259774D01*
X58140226Y-80403937D01*
X58309744Y-80517205D01*
X58498102Y-80595226D01*
X58698061Y-80635000D01*
X58901939Y-80635000D01*
X59101898Y-80595226D01*
X59290256Y-80517205D01*
X59459774Y-80403937D01*
X59603937Y-80259774D01*
X59717205Y-80090256D01*
X59795226Y-79901898D01*
X59835000Y-79701939D01*
X59835000Y-79639802D01*
X60439804Y-79034999D01*
X68485199Y-79034999D01*
X68690001Y-79239801D01*
X68690001Y-79301939D01*
X68729775Y-79501898D01*
X68807796Y-79690256D01*
X68921064Y-79859774D01*
X69065227Y-80003937D01*
X69234745Y-80117205D01*
X69423103Y-80195226D01*
X69623062Y-80235000D01*
X69826940Y-80235000D01*
X70026899Y-80195226D01*
X70215257Y-80117205D01*
X70384775Y-80003937D01*
X70528938Y-79859774D01*
X70642206Y-79690256D01*
X70720227Y-79501898D01*
X70760001Y-79301939D01*
X70760001Y-79098061D01*
X70759202Y-79094042D01*
X73055000Y-79094042D01*
X73055000Y-79425958D01*
X73119754Y-79751496D01*
X73246772Y-80058147D01*
X73431175Y-80334125D01*
X73665875Y-80568825D01*
X73941853Y-80753228D01*
X74248504Y-80880246D01*
X74574042Y-80945000D01*
X74721823Y-80945000D01*
X74661856Y-81034747D01*
X74548029Y-81309549D01*
X74490000Y-81601278D01*
X74490000Y-81898722D01*
X74548029Y-82190451D01*
X74661856Y-82465253D01*
X74827107Y-82712569D01*
X75037431Y-82922893D01*
X75284747Y-83088144D01*
X75559549Y-83201971D01*
X75851278Y-83260000D01*
X76148722Y-83260000D01*
X76440451Y-83201971D01*
X76715253Y-83088144D01*
X76962569Y-82922893D01*
X77089222Y-82796240D01*
X79633365Y-82796240D01*
X79714025Y-83047868D01*
X79982329Y-83176267D01*
X80270526Y-83249855D01*
X80567543Y-83265804D01*
X80861963Y-83223501D01*
X81142474Y-83124572D01*
X81285975Y-83047868D01*
X81366635Y-82796240D01*
X80500000Y-81929605D01*
X79633365Y-82796240D01*
X77089222Y-82796240D01*
X77172893Y-82712569D01*
X77338144Y-82465253D01*
X77451971Y-82190451D01*
X77510000Y-81898722D01*
X77510000Y-81817543D01*
X78984196Y-81817543D01*
X79026499Y-82111963D01*
X79125428Y-82392474D01*
X79202132Y-82535975D01*
X79453760Y-82616635D01*
X80320395Y-81750000D01*
X79453760Y-80883365D01*
X79202132Y-80964025D01*
X79073733Y-81232329D01*
X79000145Y-81520526D01*
X78984196Y-81817543D01*
X77510000Y-81817543D01*
X77510000Y-81601278D01*
X77451971Y-81309549D01*
X77338144Y-81034747D01*
X77172893Y-80787431D01*
X77089222Y-80703760D01*
X79633365Y-80703760D01*
X80500000Y-81570395D01*
X80514143Y-81556253D01*
X80693748Y-81735858D01*
X80679605Y-81750000D01*
X81546240Y-82616635D01*
X81797868Y-82535975D01*
X81926267Y-82267671D01*
X81999855Y-81979474D01*
X82015804Y-81682457D01*
X81973501Y-81388037D01*
X81874572Y-81107526D01*
X81797868Y-80964025D01*
X81738517Y-80945000D01*
X81915958Y-80945000D01*
X82241496Y-80880246D01*
X82548147Y-80753228D01*
X82824125Y-80568825D01*
X83058825Y-80334125D01*
X83105000Y-80265019D01*
X83105000Y-80315103D01*
X83101323Y-80352435D01*
X83105000Y-80389768D01*
X83106329Y-80403256D01*
X83115997Y-80501420D01*
X83159453Y-80644681D01*
X83230025Y-80776711D01*
X83301200Y-80863437D01*
X83324999Y-80892436D01*
X83353997Y-80916234D01*
X84698769Y-82261008D01*
X84722563Y-82290001D01*
X84751556Y-82313795D01*
X84751560Y-82313799D01*
X84818153Y-82368450D01*
X84838288Y-82384974D01*
X84970317Y-82455546D01*
X85113578Y-82499003D01*
X85189397Y-82506471D01*
X85327107Y-82712569D01*
X85537431Y-82922893D01*
X85784747Y-83088144D01*
X86059549Y-83201971D01*
X86351278Y-83260000D01*
X86648722Y-83260000D01*
X86940451Y-83201971D01*
X87215253Y-83088144D01*
X87462569Y-82922893D01*
X87589222Y-82796240D01*
X90133365Y-82796240D01*
X90214025Y-83047868D01*
X90482329Y-83176267D01*
X90770526Y-83249855D01*
X91067543Y-83265804D01*
X91361963Y-83223501D01*
X91642474Y-83124572D01*
X91785975Y-83047868D01*
X91866635Y-82796240D01*
X91000000Y-81929605D01*
X90133365Y-82796240D01*
X87589222Y-82796240D01*
X87672893Y-82712569D01*
X87838144Y-82465253D01*
X87951971Y-82190451D01*
X88010000Y-81898722D01*
X88010000Y-81817543D01*
X89484196Y-81817543D01*
X89526499Y-82111963D01*
X89625428Y-82392474D01*
X89702132Y-82535975D01*
X89953760Y-82616635D01*
X90820395Y-81750000D01*
X89953760Y-80883365D01*
X89702132Y-80964025D01*
X89573733Y-81232329D01*
X89500145Y-81520526D01*
X89484196Y-81817543D01*
X88010000Y-81817543D01*
X88010000Y-81601278D01*
X87951971Y-81309549D01*
X87838144Y-81034747D01*
X87672893Y-80787431D01*
X87589222Y-80703760D01*
X90133365Y-80703760D01*
X91000000Y-81570395D01*
X91014143Y-81556253D01*
X91193748Y-81735858D01*
X91179605Y-81750000D01*
X92046240Y-82616635D01*
X92297868Y-82535975D01*
X92426267Y-82267671D01*
X92487714Y-82027021D01*
X94452877Y-82027021D01*
X94507091Y-82523422D01*
X94657106Y-82999707D01*
X94867133Y-83392638D01*
X95223651Y-83596744D01*
X96820395Y-82000000D01*
X95223651Y-80403256D01*
X94867133Y-80607362D01*
X94636425Y-81050223D01*
X94496548Y-81529583D01*
X94452877Y-82027021D01*
X92487714Y-82027021D01*
X92499855Y-81979474D01*
X92515804Y-81682457D01*
X92473501Y-81388037D01*
X92374572Y-81107526D01*
X92297868Y-80964025D01*
X92238517Y-80945000D01*
X92415958Y-80945000D01*
X92741496Y-80880246D01*
X93048147Y-80753228D01*
X93324125Y-80568825D01*
X93558825Y-80334125D01*
X93632641Y-80223651D01*
X95403256Y-80223651D01*
X97000000Y-81820395D01*
X98596744Y-80223651D01*
X98392638Y-79867133D01*
X97949777Y-79636425D01*
X97470417Y-79496548D01*
X96972979Y-79452877D01*
X96476578Y-79507091D01*
X96000293Y-79657106D01*
X95607362Y-79867133D01*
X95403256Y-80223651D01*
X93632641Y-80223651D01*
X93743228Y-80058147D01*
X93870246Y-79751496D01*
X93935000Y-79425958D01*
X93935000Y-79094042D01*
X93870246Y-78768504D01*
X93743228Y-78461853D01*
X93558825Y-78185875D01*
X93324125Y-77951175D01*
X93048147Y-77766772D01*
X92741496Y-77639754D01*
X92415958Y-77575000D01*
X92084042Y-77575000D01*
X91758504Y-77639754D01*
X91451853Y-77766772D01*
X91175875Y-77951175D01*
X90941175Y-78185875D01*
X90756772Y-78461853D01*
X90629754Y-78768504D01*
X90565000Y-79094042D01*
X90565000Y-79425958D01*
X90629754Y-79751496D01*
X90756772Y-80058147D01*
X90879490Y-80241806D01*
X90638037Y-80276499D01*
X90357526Y-80375428D01*
X90214025Y-80452132D01*
X90133365Y-80703760D01*
X87589222Y-80703760D01*
X87462569Y-80577107D01*
X87215253Y-80411856D01*
X86940451Y-80298029D01*
X86648722Y-80240000D01*
X86611717Y-80240000D01*
X86733228Y-80058147D01*
X86860246Y-79751496D01*
X86925000Y-79425958D01*
X86925000Y-79094042D01*
X86860246Y-78768504D01*
X86733228Y-78461853D01*
X86548825Y-78185875D01*
X86314125Y-77951175D01*
X86038147Y-77766772D01*
X85731496Y-77639754D01*
X85405958Y-77575000D01*
X85074042Y-77575000D01*
X84748504Y-77639754D01*
X84624999Y-77690911D01*
X84624999Y-69724802D01*
X84664801Y-69685000D01*
X84726939Y-69685000D01*
X84926898Y-69645226D01*
X85115256Y-69567205D01*
X85284774Y-69453937D01*
X85428937Y-69309774D01*
X85542205Y-69140256D01*
X85620226Y-68951898D01*
X85660000Y-68751939D01*
X85660000Y-68548061D01*
X85620226Y-68348102D01*
X85542205Y-68159744D01*
X85508967Y-68110000D01*
X86683201Y-68110000D01*
X87292245Y-68719044D01*
X87221063Y-68790226D01*
X87107795Y-68959744D01*
X87029774Y-69148102D01*
X86990000Y-69348061D01*
X86990000Y-69551939D01*
X87029774Y-69751898D01*
X87107795Y-69940256D01*
X87221063Y-70109774D01*
X87276013Y-70164724D01*
X87319454Y-70307932D01*
X87337130Y-70341001D01*
X87390026Y-70439961D01*
X87444038Y-70505774D01*
X87485000Y-70555686D01*
X87513998Y-70579484D01*
X92945516Y-76011003D01*
X92969314Y-76040001D01*
X93085039Y-76134974D01*
X93217068Y-76205546D01*
X93360329Y-76249003D01*
X93471982Y-76260000D01*
X93471990Y-76260000D01*
X93509315Y-76263676D01*
X93546640Y-76260000D01*
X94446289Y-76260000D01*
X94490226Y-76303937D01*
X94659744Y-76417205D01*
X94848102Y-76495226D01*
X95048061Y-76535000D01*
X95251939Y-76535000D01*
X95451898Y-76495226D01*
X95640256Y-76417205D01*
X95809774Y-76303937D01*
X95953937Y-76159774D01*
X96067205Y-75990256D01*
X96145226Y-75801898D01*
X96185000Y-75601939D01*
X96185000Y-75398061D01*
X96145226Y-75198102D01*
X96067205Y-75009744D01*
X95953937Y-74840226D01*
X95809774Y-74696063D01*
X95640256Y-74582795D01*
X95451898Y-74504774D01*
X95251939Y-74465000D01*
X95048061Y-74465000D01*
X94848102Y-74504774D01*
X94659744Y-74582795D01*
X94490226Y-74696063D01*
X94446289Y-74740000D01*
X93824117Y-74740000D01*
X92523250Y-73439133D01*
X95087972Y-73439133D01*
X95150465Y-73675450D01*
X95393178Y-73788850D01*
X95653349Y-73852719D01*
X95920982Y-73864604D01*
X96185791Y-73824048D01*
X96203523Y-73817609D01*
X97004038Y-73817609D01*
X97007909Y-73855282D01*
X97100079Y-74080533D01*
X97234422Y-74283474D01*
X97405775Y-74456307D01*
X97607554Y-74592390D01*
X97832004Y-74686493D01*
X98070500Y-74735000D01*
X98420500Y-74735000D01*
X98420500Y-73627000D01*
X97128769Y-73627000D01*
X97004038Y-73817609D01*
X96203523Y-73817609D01*
X96437600Y-73732609D01*
X96544535Y-73675450D01*
X96607028Y-73439133D01*
X95847500Y-72679605D01*
X95087972Y-73439133D01*
X92523250Y-73439133D01*
X91866781Y-72782664D01*
X91909774Y-72753937D01*
X92053937Y-72609774D01*
X92167205Y-72440256D01*
X92245226Y-72251898D01*
X92285000Y-72051939D01*
X92285000Y-71848061D01*
X92245226Y-71648102D01*
X92167205Y-71459744D01*
X92053937Y-71290226D01*
X91909774Y-71146063D01*
X91740256Y-71032795D01*
X91571691Y-70962973D01*
X91555547Y-70909752D01*
X91484975Y-70777723D01*
X91390002Y-70661998D01*
X91361004Y-70638200D01*
X87561806Y-66839003D01*
X87538003Y-66809999D01*
X87422278Y-66715026D01*
X87290249Y-66644454D01*
X87146988Y-66600997D01*
X87035335Y-66590000D01*
X87035324Y-66590000D01*
X86998002Y-66586324D01*
X86960680Y-66590000D01*
X85328711Y-66590000D01*
X85284774Y-66546063D01*
X85115256Y-66432795D01*
X84926898Y-66354774D01*
X84726939Y-66315000D01*
X84523061Y-66315000D01*
X84323102Y-66354774D01*
X84134744Y-66432795D01*
X83965226Y-66546063D01*
X83821063Y-66690226D01*
X83707795Y-66859744D01*
X83629774Y-67048102D01*
X83590000Y-67248061D01*
X83590000Y-67451939D01*
X83629774Y-67651898D01*
X83707795Y-67840256D01*
X83814532Y-68000000D01*
X83707795Y-68159744D01*
X83629774Y-68348102D01*
X83590000Y-68548061D01*
X83590000Y-68610199D01*
X83354001Y-68846198D01*
X83324998Y-68870000D01*
X83292357Y-68909774D01*
X83230025Y-68985725D01*
X83193565Y-69053937D01*
X83159453Y-69117755D01*
X83115996Y-69261016D01*
X83104999Y-69372669D01*
X83104999Y-69372679D01*
X83101323Y-69410001D01*
X83104999Y-69447323D01*
X83105000Y-78254980D01*
X83058825Y-78185875D01*
X82824125Y-77951175D01*
X82548147Y-77766772D01*
X82241496Y-77639754D01*
X81915958Y-77575000D01*
X81584042Y-77575000D01*
X81258504Y-77639754D01*
X80951853Y-77766772D01*
X80675875Y-77951175D01*
X80441175Y-78185875D01*
X80256772Y-78461853D01*
X80129754Y-78768504D01*
X80065000Y-79094042D01*
X80065000Y-79425958D01*
X80129754Y-79751496D01*
X80256772Y-80058147D01*
X80379490Y-80241806D01*
X80138037Y-80276499D01*
X79857526Y-80375428D01*
X79714025Y-80452132D01*
X79633365Y-80703760D01*
X77089222Y-80703760D01*
X76962569Y-80577107D01*
X76715253Y-80411856D01*
X76440451Y-80298029D01*
X76148722Y-80240000D01*
X76111717Y-80240000D01*
X76233228Y-80058147D01*
X76360246Y-79751496D01*
X76425000Y-79425958D01*
X76425000Y-79094042D01*
X76360246Y-78768504D01*
X76233228Y-78461853D01*
X76048825Y-78185875D01*
X75814125Y-77951175D01*
X75538147Y-77766772D01*
X75231496Y-77639754D01*
X74905958Y-77575000D01*
X74574042Y-77575000D01*
X74248504Y-77639754D01*
X73941853Y-77766772D01*
X73665875Y-77951175D01*
X73431175Y-78185875D01*
X73246772Y-78461853D01*
X73119754Y-78768504D01*
X73055000Y-79094042D01*
X70759202Y-79094042D01*
X70720227Y-78898102D01*
X70642206Y-78709744D01*
X70528938Y-78540226D01*
X70384775Y-78396063D01*
X70215257Y-78282795D01*
X70026899Y-78204774D01*
X69826940Y-78165000D01*
X69764802Y-78165000D01*
X69363803Y-77764001D01*
X69340001Y-77734998D01*
X69224276Y-77640025D01*
X69092247Y-77569453D01*
X68948986Y-77525996D01*
X68837333Y-77514999D01*
X68837322Y-77514999D01*
X68800000Y-77511323D01*
X68762678Y-77514999D01*
X60162323Y-77514999D01*
X60125000Y-77511323D01*
X60087677Y-77514999D01*
X60087668Y-77514999D01*
X59976015Y-77525996D01*
X59936958Y-77537844D01*
X63752302Y-73722500D01*
X65107681Y-73722500D01*
X65082795Y-73759744D01*
X65004774Y-73948102D01*
X64965000Y-74148061D01*
X64965000Y-74351939D01*
X65004774Y-74551898D01*
X65082795Y-74740256D01*
X65196063Y-74909774D01*
X65340226Y-75053937D01*
X65509744Y-75167205D01*
X65698102Y-75245226D01*
X65898061Y-75285000D01*
X66101939Y-75285000D01*
X66121036Y-75281201D01*
X66138514Y-75286503D01*
X66250167Y-75297500D01*
X66250176Y-75297500D01*
X66287499Y-75301176D01*
X66324822Y-75297500D01*
X66584857Y-75297500D01*
X66637885Y-75362115D01*
X66767725Y-75468671D01*
X66915858Y-75547850D01*
X67076592Y-75596608D01*
X67243750Y-75613072D01*
X67756250Y-75613072D01*
X67923408Y-75596608D01*
X68084142Y-75547850D01*
X68232275Y-75468671D01*
X68362115Y-75362115D01*
X68413405Y-75299618D01*
X68469463Y-75404494D01*
X68548815Y-75501185D01*
X68645506Y-75580537D01*
X68755820Y-75639502D01*
X68875518Y-75675812D01*
X69000000Y-75688072D01*
X69164250Y-75685000D01*
X69323000Y-75526250D01*
X69323000Y-74677000D01*
X69577000Y-74677000D01*
X69577000Y-75526250D01*
X69735750Y-75685000D01*
X69900000Y-75688072D01*
X70024482Y-75675812D01*
X70144180Y-75639502D01*
X70254494Y-75580537D01*
X70351185Y-75501185D01*
X70430537Y-75404494D01*
X70489502Y-75294180D01*
X70525812Y-75174482D01*
X70538072Y-75050000D01*
X72461928Y-75050000D01*
X72474188Y-75174482D01*
X72510498Y-75294180D01*
X72569463Y-75404494D01*
X72648815Y-75501185D01*
X72745506Y-75580537D01*
X72855820Y-75639502D01*
X72975518Y-75675812D01*
X73100000Y-75688072D01*
X73264250Y-75685000D01*
X73423000Y-75526250D01*
X73423000Y-74677000D01*
X73677000Y-74677000D01*
X73677000Y-75526250D01*
X73835750Y-75685000D01*
X74000000Y-75688072D01*
X74124482Y-75675812D01*
X74244180Y-75639502D01*
X74354494Y-75580537D01*
X74451185Y-75501185D01*
X74530537Y-75404494D01*
X74540586Y-75385695D01*
X74573815Y-75426185D01*
X74670506Y-75505537D01*
X74780820Y-75564502D01*
X74900518Y-75600812D01*
X75025000Y-75613072D01*
X75214250Y-75610000D01*
X75373000Y-75451250D01*
X75373000Y-74664500D01*
X75627000Y-74664500D01*
X75627000Y-75451250D01*
X75785750Y-75610000D01*
X75975000Y-75613072D01*
X76099482Y-75600812D01*
X76219180Y-75564502D01*
X76329494Y-75505537D01*
X76426185Y-75426185D01*
X76505537Y-75329494D01*
X76564502Y-75219180D01*
X76600812Y-75099482D01*
X76613072Y-74975000D01*
X76610000Y-74823250D01*
X76451250Y-74664500D01*
X75627000Y-74664500D01*
X75373000Y-74664500D01*
X74548750Y-74664500D01*
X74506250Y-74707000D01*
X74476250Y-74677000D01*
X73677000Y-74677000D01*
X73423000Y-74677000D01*
X72623750Y-74677000D01*
X72465000Y-74835750D01*
X72461928Y-75050000D01*
X70538072Y-75050000D01*
X70535000Y-74835750D01*
X70376250Y-74677000D01*
X69577000Y-74677000D01*
X69323000Y-74677000D01*
X69303000Y-74677000D01*
X69303000Y-74423000D01*
X69323000Y-74423000D01*
X69323000Y-74403000D01*
X69577000Y-74403000D01*
X69577000Y-74423000D01*
X70376250Y-74423000D01*
X70535000Y-74264250D01*
X70538072Y-74050000D01*
X70525812Y-73925518D01*
X70489502Y-73805820D01*
X70459665Y-73750000D01*
X70474364Y-73722500D01*
X72525636Y-73722500D01*
X72540335Y-73750000D01*
X72510498Y-73805820D01*
X72474188Y-73925518D01*
X72461928Y-74050000D01*
X72465000Y-74264250D01*
X72623750Y-74423000D01*
X73423000Y-74423000D01*
X73423000Y-74403000D01*
X73677000Y-74403000D01*
X73677000Y-74423000D01*
X74476250Y-74423000D01*
X74518750Y-74380500D01*
X74548750Y-74410500D01*
X75373000Y-74410500D01*
X75373000Y-74390500D01*
X75627000Y-74390500D01*
X75627000Y-74410500D01*
X76451250Y-74410500D01*
X76610000Y-74251750D01*
X76613072Y-74100000D01*
X76600812Y-73975518D01*
X76564502Y-73855820D01*
X76505537Y-73745506D01*
X76450900Y-73678930D01*
X76468671Y-73657275D01*
X76547850Y-73509142D01*
X76596608Y-73348408D01*
X76613072Y-73181250D01*
X76613072Y-72743750D01*
X76596608Y-72576592D01*
X76547850Y-72415858D01*
X76468671Y-72267725D01*
X76362115Y-72137885D01*
X76232275Y-72031329D01*
X76084142Y-71952150D01*
X75923408Y-71903392D01*
X75756250Y-71886928D01*
X75243750Y-71886928D01*
X75076592Y-71903392D01*
X74915858Y-71952150D01*
X74767725Y-72031329D01*
X74637885Y-72137885D01*
X74586595Y-72200382D01*
X74530537Y-72095506D01*
X74451185Y-71998815D01*
X74354494Y-71919463D01*
X74244180Y-71860498D01*
X74124482Y-71824188D01*
X74000000Y-71811928D01*
X73100000Y-71811928D01*
X72975518Y-71824188D01*
X72855820Y-71860498D01*
X72745506Y-71919463D01*
X72648815Y-71998815D01*
X72569463Y-72095506D01*
X72512273Y-72202500D01*
X70487727Y-72202500D01*
X70430537Y-72095506D01*
X70367704Y-72018944D01*
X70386205Y-71991256D01*
X70464226Y-71802898D01*
X70504000Y-71602939D01*
X70504000Y-71399061D01*
X70464226Y-71199102D01*
X70386205Y-71010744D01*
X70272937Y-70841226D01*
X70128774Y-70697063D01*
X69959256Y-70583795D01*
X69770898Y-70505774D01*
X69570939Y-70466000D01*
X69493226Y-70466000D01*
X69361248Y-70395455D01*
X69217987Y-70351998D01*
X69106334Y-70341001D01*
X69106323Y-70341001D01*
X69069001Y-70337325D01*
X69031679Y-70341001D01*
X59640803Y-70341001D01*
X58256693Y-68956891D01*
X68188519Y-68956891D01*
X68285843Y-69231252D01*
X68434822Y-69481355D01*
X68629731Y-69697588D01*
X68863080Y-69871641D01*
X69125901Y-69996825D01*
X69273110Y-70041476D01*
X69503000Y-69920155D01*
X69503000Y-68727000D01*
X68309186Y-68727000D01*
X68188519Y-68956891D01*
X58256693Y-68956891D01*
X57542911Y-68243109D01*
X68188519Y-68243109D01*
X68309186Y-68473000D01*
X69503000Y-68473000D01*
X69503000Y-67279845D01*
X69757000Y-67279845D01*
X69757000Y-68473000D01*
X69777000Y-68473000D01*
X69777000Y-68727000D01*
X69757000Y-68727000D01*
X69757000Y-69920155D01*
X69986890Y-70041476D01*
X70134099Y-69996825D01*
X70396920Y-69871641D01*
X70630269Y-69697588D01*
X70825178Y-69481355D01*
X70894805Y-69364466D01*
X71016525Y-69546632D01*
X71223368Y-69753475D01*
X71466589Y-69915990D01*
X71736842Y-70027932D01*
X72023740Y-70085000D01*
X72316260Y-70085000D01*
X72603158Y-70027932D01*
X72873411Y-69915990D01*
X73116632Y-69753475D01*
X73323475Y-69546632D01*
X73440000Y-69372240D01*
X73556525Y-69546632D01*
X73763368Y-69753475D01*
X74006589Y-69915990D01*
X74276842Y-70027932D01*
X74563740Y-70085000D01*
X74856260Y-70085000D01*
X75143158Y-70027932D01*
X75413411Y-69915990D01*
X75656632Y-69753475D01*
X75788487Y-69621620D01*
X75810498Y-69694180D01*
X75869463Y-69804494D01*
X75948815Y-69901185D01*
X76045506Y-69980537D01*
X76155820Y-70039502D01*
X76275518Y-70075812D01*
X76400000Y-70088072D01*
X78100000Y-70088072D01*
X78224482Y-70075812D01*
X78344180Y-70039502D01*
X78454494Y-69980537D01*
X78551185Y-69901185D01*
X78630537Y-69804494D01*
X78689502Y-69694180D01*
X78725812Y-69574482D01*
X78738072Y-69450000D01*
X78738072Y-67750000D01*
X78725812Y-67625518D01*
X78689502Y-67505820D01*
X78630537Y-67395506D01*
X78551185Y-67298815D01*
X78454494Y-67219463D01*
X78344180Y-67160498D01*
X78224482Y-67124188D01*
X78100000Y-67111928D01*
X76400000Y-67111928D01*
X76275518Y-67124188D01*
X76155820Y-67160498D01*
X76045506Y-67219463D01*
X75948815Y-67298815D01*
X75869463Y-67395506D01*
X75810498Y-67505820D01*
X75788487Y-67578380D01*
X75656632Y-67446525D01*
X75413411Y-67284010D01*
X75143158Y-67172068D01*
X74856260Y-67115000D01*
X74563740Y-67115000D01*
X74276842Y-67172068D01*
X74006589Y-67284010D01*
X73763368Y-67446525D01*
X73556525Y-67653368D01*
X73440000Y-67827760D01*
X73323475Y-67653368D01*
X73116632Y-67446525D01*
X72873411Y-67284010D01*
X72603158Y-67172068D01*
X72316260Y-67115000D01*
X72023740Y-67115000D01*
X71736842Y-67172068D01*
X71466589Y-67284010D01*
X71223368Y-67446525D01*
X71016525Y-67653368D01*
X70894805Y-67835534D01*
X70825178Y-67718645D01*
X70630269Y-67502412D01*
X70396920Y-67328359D01*
X70134099Y-67203175D01*
X69986890Y-67158524D01*
X69757000Y-67279845D01*
X69503000Y-67279845D01*
X69273110Y-67158524D01*
X69125901Y-67203175D01*
X68863080Y-67328359D01*
X68629731Y-67502412D01*
X68434822Y-67718645D01*
X68285843Y-67968748D01*
X68188519Y-68243109D01*
X57542911Y-68243109D01*
X50836801Y-61537000D01*
X50851939Y-61537000D01*
X51051898Y-61497226D01*
X51240256Y-61419205D01*
X51409774Y-61305937D01*
X51553937Y-61161774D01*
X51667205Y-60992256D01*
X51745226Y-60803898D01*
X51747713Y-60791397D01*
X51754774Y-60826898D01*
X51832795Y-61015256D01*
X51946063Y-61184774D01*
X52090226Y-61328937D01*
X52259744Y-61442205D01*
X52448102Y-61520226D01*
X52648061Y-61560000D01*
X52710198Y-61560000D01*
X53361216Y-62211019D01*
X53385010Y-62240012D01*
X53414003Y-62263806D01*
X53414007Y-62263810D01*
X53470015Y-62309774D01*
X53500735Y-62334985D01*
X53632764Y-62405557D01*
X53776025Y-62449014D01*
X53887678Y-62460011D01*
X53887687Y-62460011D01*
X53925010Y-62463687D01*
X53962333Y-62460011D01*
X63518665Y-62460011D01*
X63555987Y-62463687D01*
X63593309Y-62460011D01*
X63593320Y-62460011D01*
X63704973Y-62449014D01*
X63848234Y-62405557D01*
X63980263Y-62334985D01*
X64095988Y-62240012D01*
X64119791Y-62211008D01*
X65270801Y-61059999D01*
X67683200Y-61059999D01*
X68259204Y-61636003D01*
X68283002Y-61665002D01*
X68312000Y-61688800D01*
X68398726Y-61759975D01*
X68480389Y-61803625D01*
X68530756Y-61830547D01*
X68674017Y-61874004D01*
X68785670Y-61885001D01*
X68785680Y-61885001D01*
X68823002Y-61888677D01*
X68860325Y-61885001D01*
X71015000Y-61885001D01*
X71014999Y-62635678D01*
X71011323Y-62673001D01*
X71014999Y-62710323D01*
X71014999Y-62710333D01*
X71025996Y-62821986D01*
X71055430Y-62919017D01*
X71069453Y-62965247D01*
X71137201Y-63091994D01*
X71135000Y-63103061D01*
X71135000Y-63306939D01*
X71174774Y-63506898D01*
X71252795Y-63695256D01*
X71366063Y-63864774D01*
X71510226Y-64008937D01*
X71679744Y-64122205D01*
X71868102Y-64200226D01*
X72068061Y-64240000D01*
X72271939Y-64240000D01*
X72471898Y-64200226D01*
X72660256Y-64122205D01*
X72829774Y-64008937D01*
X72973937Y-63864774D01*
X73087205Y-63695256D01*
X73165226Y-63506898D01*
X73205000Y-63306939D01*
X73205000Y-63103061D01*
X73165226Y-62903102D01*
X73087205Y-62714744D01*
X72987662Y-62565767D01*
X73165256Y-62492205D01*
X73334774Y-62378937D01*
X73478937Y-62234774D01*
X73592205Y-62065256D01*
X73670226Y-61876898D01*
X73710000Y-61676939D01*
X73710000Y-61614801D01*
X74914802Y-60410000D01*
X75171289Y-60410000D01*
X75215226Y-60453937D01*
X75384744Y-60567205D01*
X75401184Y-60574015D01*
X75360199Y-60615000D01*
X75298061Y-60615000D01*
X75098102Y-60654774D01*
X74909744Y-60732795D01*
X74740226Y-60846063D01*
X74596063Y-60990226D01*
X74482795Y-61159744D01*
X74404774Y-61348102D01*
X74365000Y-61548061D01*
X74365000Y-61751939D01*
X74404774Y-61951898D01*
X74482795Y-62140256D01*
X74596063Y-62309774D01*
X74640000Y-62353711D01*
X74640001Y-64662668D01*
X74636324Y-64700000D01*
X74640001Y-64737333D01*
X74650998Y-64848986D01*
X74659197Y-64876014D01*
X74694454Y-64992246D01*
X74715000Y-65030685D01*
X74715000Y-65151939D01*
X74754774Y-65351898D01*
X74832795Y-65540256D01*
X74946063Y-65709774D01*
X75090226Y-65853937D01*
X75259744Y-65967205D01*
X75448102Y-66045226D01*
X75648061Y-66085000D01*
X75851939Y-66085000D01*
X76051898Y-66045226D01*
X76240256Y-65967205D01*
X76409774Y-65853937D01*
X76553937Y-65709774D01*
X76667205Y-65540256D01*
X76745226Y-65351898D01*
X76785000Y-65151939D01*
X76785000Y-64948061D01*
X76745226Y-64748102D01*
X76667205Y-64559744D01*
X76553937Y-64390226D01*
X76409774Y-64246063D01*
X76240256Y-64132795D01*
X76160000Y-64099552D01*
X76160000Y-62353711D01*
X76203937Y-62309774D01*
X76317205Y-62140256D01*
X76395226Y-61951898D01*
X76435000Y-61751939D01*
X76435000Y-61689801D01*
X77161003Y-60963799D01*
X77190001Y-60940001D01*
X77224326Y-60898176D01*
X77284974Y-60824277D01*
X77355546Y-60692247D01*
X77361085Y-60673986D01*
X77399003Y-60548986D01*
X77410000Y-60437333D01*
X77410000Y-60437323D01*
X77413676Y-60400000D01*
X77410000Y-60362677D01*
X77410000Y-60138010D01*
X81083207Y-60138010D01*
X81209195Y-60263998D01*
X81232998Y-60293002D01*
X81334767Y-60376522D01*
X81296063Y-60415226D01*
X81182795Y-60584744D01*
X81104774Y-60773102D01*
X81065000Y-60973061D01*
X81065000Y-61176939D01*
X81104774Y-61376898D01*
X81182795Y-61565256D01*
X81296063Y-61734774D01*
X81440226Y-61878937D01*
X81609744Y-61992205D01*
X81739999Y-62046159D01*
X81740000Y-62587667D01*
X81736323Y-62624999D01*
X81740000Y-62662332D01*
X81750997Y-62773985D01*
X81764179Y-62817441D01*
X81794453Y-62917245D01*
X81865025Y-63049275D01*
X81904419Y-63097276D01*
X81959999Y-63165000D01*
X81988997Y-63188798D01*
X85036202Y-66236004D01*
X85060000Y-66265002D01*
X85175725Y-66359975D01*
X85307754Y-66430547D01*
X85451015Y-66474004D01*
X85562668Y-66485001D01*
X85562678Y-66485001D01*
X85600001Y-66488677D01*
X85637324Y-66485001D01*
X87997434Y-66485001D01*
X87965000Y-66648061D01*
X87965000Y-66851939D01*
X88004774Y-67051898D01*
X88082795Y-67240256D01*
X88196063Y-67409774D01*
X88340226Y-67553937D01*
X88509744Y-67667205D01*
X88698102Y-67745226D01*
X88898061Y-67785000D01*
X89101939Y-67785000D01*
X89301898Y-67745226D01*
X89490256Y-67667205D01*
X89659774Y-67553937D01*
X89703711Y-67510000D01*
X92851078Y-67510000D01*
X92819453Y-67569165D01*
X92805550Y-67615000D01*
X92775997Y-67712425D01*
X92769905Y-67774276D01*
X92761323Y-67861411D01*
X92765000Y-67898743D01*
X92764999Y-71310176D01*
X92761323Y-71347499D01*
X92764999Y-71384821D01*
X92764999Y-71384831D01*
X92775996Y-71496484D01*
X92803555Y-71587334D01*
X92819453Y-71639745D01*
X92890025Y-71771775D01*
X92918562Y-71806547D01*
X92984998Y-71887500D01*
X93014001Y-71911302D01*
X93090000Y-71987301D01*
X93090000Y-72049439D01*
X93129774Y-72249398D01*
X93207795Y-72437756D01*
X93321063Y-72607274D01*
X93465226Y-72751437D01*
X93634744Y-72864705D01*
X93823102Y-72942726D01*
X94023061Y-72982500D01*
X94226939Y-72982500D01*
X94426898Y-72942726D01*
X94543793Y-72894306D01*
X94614891Y-73090100D01*
X94672050Y-73197035D01*
X94908367Y-73259528D01*
X95667895Y-72500000D01*
X96027105Y-72500000D01*
X96786633Y-73259528D01*
X97014997Y-73199138D01*
X97128769Y-73373000D01*
X98420500Y-73373000D01*
X98420500Y-72265000D01*
X98070500Y-72265000D01*
X97832004Y-72313507D01*
X97607554Y-72407610D01*
X97405775Y-72543693D01*
X97234422Y-72716526D01*
X97171329Y-72811836D01*
X97200219Y-72694151D01*
X97212104Y-72426518D01*
X97171548Y-72161709D01*
X97080109Y-71909900D01*
X97022950Y-71802965D01*
X96786633Y-71740472D01*
X96027105Y-72500000D01*
X95667895Y-72500000D01*
X95653753Y-72485858D01*
X95833358Y-72306253D01*
X95847500Y-72320395D01*
X96607028Y-71560867D01*
X96544535Y-71324550D01*
X96301822Y-71211150D01*
X96041651Y-71147281D01*
X95774018Y-71135396D01*
X95509209Y-71175952D01*
X95257400Y-71267391D01*
X95150465Y-71324550D01*
X95087973Y-71560865D01*
X95083114Y-71556006D01*
X95042205Y-71457244D01*
X94928937Y-71287726D01*
X94784774Y-71143563D01*
X94780206Y-71140511D01*
X94909774Y-71053937D01*
X95053937Y-70909774D01*
X95167205Y-70740256D01*
X95245226Y-70551898D01*
X95285000Y-70351939D01*
X95285000Y-70148061D01*
X95245226Y-69948102D01*
X95167205Y-69759744D01*
X95053937Y-69590226D01*
X95010000Y-69546289D01*
X95010000Y-68953711D01*
X95053937Y-68909774D01*
X95167205Y-68740256D01*
X95186982Y-68692511D01*
X95393178Y-68788850D01*
X95653349Y-68852719D01*
X95920982Y-68864604D01*
X96185791Y-68824048D01*
X96437600Y-68732609D01*
X96544535Y-68675450D01*
X96607028Y-68439133D01*
X95847500Y-67679605D01*
X95833358Y-67693748D01*
X95653753Y-67514143D01*
X95667895Y-67500000D01*
X96027105Y-67500000D01*
X96786633Y-68259528D01*
X97022950Y-68197035D01*
X97136350Y-67954322D01*
X97200219Y-67694151D01*
X97212104Y-67426518D01*
X97176885Y-67196558D01*
X97234422Y-67283474D01*
X97405775Y-67456307D01*
X97607554Y-67592390D01*
X97832004Y-67686493D01*
X98070500Y-67735000D01*
X98420500Y-67735000D01*
X98420500Y-66627000D01*
X97128769Y-66627000D01*
X97014997Y-66800862D01*
X96786633Y-66740472D01*
X96027105Y-67500000D01*
X95667895Y-67500000D01*
X95653753Y-67485858D01*
X95833358Y-67306253D01*
X95847500Y-67320395D01*
X96607028Y-66560867D01*
X96561416Y-66388385D01*
X96635999Y-66313802D01*
X96665002Y-66290000D01*
X96753314Y-66182391D01*
X97004038Y-66182391D01*
X97128769Y-66373000D01*
X98420500Y-66373000D01*
X98420500Y-65265000D01*
X98070500Y-65265000D01*
X97832004Y-65313507D01*
X97607554Y-65407610D01*
X97405775Y-65543693D01*
X97234422Y-65716526D01*
X97100079Y-65919467D01*
X97007909Y-66144718D01*
X97004038Y-66182391D01*
X96753314Y-66182391D01*
X96759975Y-66174275D01*
X96830547Y-66042246D01*
X96874004Y-65898985D01*
X96885001Y-65787332D01*
X96885001Y-65787323D01*
X96888677Y-65750000D01*
X96885001Y-65712677D01*
X96885001Y-65039332D01*
X96888678Y-65001999D01*
X96874004Y-64853013D01*
X96830547Y-64709752D01*
X96794464Y-64642247D01*
X96759975Y-64577723D01*
X96665002Y-64461998D01*
X96635998Y-64438195D01*
X96311805Y-64114002D01*
X96288002Y-64084998D01*
X96172277Y-63990025D01*
X96040248Y-63919453D01*
X95896987Y-63875996D01*
X95785334Y-63864999D01*
X95785323Y-63864999D01*
X95748001Y-63861323D01*
X95710679Y-63864999D01*
X93737324Y-63864999D01*
X93700001Y-63861323D01*
X93662678Y-63864999D01*
X93662668Y-63864999D01*
X93551015Y-63875996D01*
X93407754Y-63919453D01*
X93275772Y-63990000D01*
X93198061Y-63990000D01*
X92998102Y-64029774D01*
X92809744Y-64107795D01*
X92640226Y-64221063D01*
X92496063Y-64365226D01*
X92382795Y-64534744D01*
X92304774Y-64723102D01*
X92265000Y-64923061D01*
X92265000Y-64965001D01*
X89483853Y-64965001D01*
X89567205Y-64840256D01*
X89645226Y-64651898D01*
X89685000Y-64451939D01*
X89685000Y-64248061D01*
X89645226Y-64048102D01*
X89567205Y-63859744D01*
X89453937Y-63690226D01*
X89410000Y-63646289D01*
X89410000Y-60914801D01*
X90612331Y-59712470D01*
X90851278Y-59760000D01*
X90888283Y-59760000D01*
X90766772Y-59941853D01*
X90639754Y-60248504D01*
X90575000Y-60574042D01*
X90575000Y-60905958D01*
X90639754Y-61231496D01*
X90766772Y-61538147D01*
X90951175Y-61814125D01*
X91185875Y-62048825D01*
X91461853Y-62233228D01*
X91768504Y-62360246D01*
X92094042Y-62425000D01*
X92425958Y-62425000D01*
X92751496Y-62360246D01*
X93058147Y-62233228D01*
X93334125Y-62048825D01*
X93568825Y-61814125D01*
X93753228Y-61538147D01*
X93880246Y-61231496D01*
X93945000Y-60905958D01*
X93945000Y-60574042D01*
X93880246Y-60248504D01*
X93753228Y-59941853D01*
X93642642Y-59776349D01*
X95403256Y-59776349D01*
X95607362Y-60132867D01*
X96050223Y-60363575D01*
X96529583Y-60503452D01*
X97027021Y-60547123D01*
X97523422Y-60492909D01*
X97999707Y-60342894D01*
X98392638Y-60132867D01*
X98596744Y-59776349D01*
X97000000Y-58179605D01*
X95403256Y-59776349D01*
X93642642Y-59776349D01*
X93568825Y-59665875D01*
X93334125Y-59431175D01*
X93058147Y-59246772D01*
X92751496Y-59119754D01*
X92425958Y-59055000D01*
X92278177Y-59055000D01*
X92338144Y-58965253D01*
X92451971Y-58690451D01*
X92510000Y-58398722D01*
X92510000Y-58101278D01*
X92495230Y-58027021D01*
X94452877Y-58027021D01*
X94507091Y-58523422D01*
X94657106Y-58999707D01*
X94867133Y-59392638D01*
X95223651Y-59596744D01*
X96820395Y-58000000D01*
X95223651Y-56403256D01*
X94867133Y-56607362D01*
X94636425Y-57050223D01*
X94496548Y-57529583D01*
X94452877Y-58027021D01*
X92495230Y-58027021D01*
X92451971Y-57809549D01*
X92338144Y-57534747D01*
X92172893Y-57287431D01*
X91962569Y-57077107D01*
X91715253Y-56911856D01*
X91440451Y-56798029D01*
X91148722Y-56740000D01*
X90851278Y-56740000D01*
X90559549Y-56798029D01*
X90284747Y-56911856D01*
X90037431Y-57077107D01*
X89827107Y-57287431D01*
X89661856Y-57534747D01*
X89548029Y-57809549D01*
X89490000Y-58101278D01*
X89490000Y-58398722D01*
X89537530Y-58637669D01*
X88139003Y-60036196D01*
X88109999Y-60059999D01*
X88076350Y-60101001D01*
X88015026Y-60175724D01*
X87962354Y-60274266D01*
X87944454Y-60307754D01*
X87900997Y-60451015D01*
X87890000Y-60562668D01*
X87890000Y-60562678D01*
X87886324Y-60600000D01*
X87890000Y-60637323D01*
X87890001Y-63590000D01*
X85176212Y-63590000D01*
X83710009Y-62123798D01*
X83710009Y-61425250D01*
X83756772Y-61538147D01*
X83941175Y-61814125D01*
X84175875Y-62048825D01*
X84451853Y-62233228D01*
X84758504Y-62360246D01*
X85084042Y-62425000D01*
X85415958Y-62425000D01*
X85741496Y-62360246D01*
X86048147Y-62233228D01*
X86324125Y-62048825D01*
X86558825Y-61814125D01*
X86743228Y-61538147D01*
X86870246Y-61231496D01*
X86935000Y-60905958D01*
X86935000Y-60574042D01*
X86870246Y-60248504D01*
X86743228Y-59941853D01*
X86620510Y-59758194D01*
X86861963Y-59723501D01*
X87142474Y-59624572D01*
X87285975Y-59547868D01*
X87366635Y-59296240D01*
X86500000Y-58429605D01*
X86485858Y-58443748D01*
X86306253Y-58264143D01*
X86320395Y-58250000D01*
X86679605Y-58250000D01*
X87546240Y-59116635D01*
X87797868Y-59035975D01*
X87926267Y-58767671D01*
X87999855Y-58479474D01*
X88015804Y-58182457D01*
X87973501Y-57888037D01*
X87874572Y-57607526D01*
X87797868Y-57464025D01*
X87546240Y-57383365D01*
X86679605Y-58250000D01*
X86320395Y-58250000D01*
X85453760Y-57383365D01*
X85202132Y-57464025D01*
X85073733Y-57732329D01*
X85000145Y-58020526D01*
X84984196Y-58317543D01*
X85026499Y-58611963D01*
X85125428Y-58892474D01*
X85202132Y-59035975D01*
X85261483Y-59055000D01*
X85084042Y-59055000D01*
X84758504Y-59119754D01*
X84451853Y-59246772D01*
X84175875Y-59431175D01*
X83941175Y-59665875D01*
X83756772Y-59941853D01*
X83706355Y-60063572D01*
X83699012Y-59989023D01*
X83655555Y-59845762D01*
X83631471Y-59800705D01*
X83584983Y-59713733D01*
X83490010Y-59598008D01*
X83461006Y-59574205D01*
X83226842Y-59340041D01*
X83260383Y-59259067D01*
X83304000Y-59039788D01*
X83304000Y-58816212D01*
X83260383Y-58596933D01*
X83174824Y-58390376D01*
X83050612Y-58204480D01*
X82892520Y-58046388D01*
X82706624Y-57922176D01*
X82500067Y-57836617D01*
X82280788Y-57793000D01*
X82057212Y-57793000D01*
X81837933Y-57836617D01*
X81631376Y-57922176D01*
X81445480Y-58046388D01*
X81323868Y-58168000D01*
X77819800Y-58168000D01*
X77165781Y-57513982D01*
X77141981Y-57484981D01*
X77026256Y-57390008D01*
X76894227Y-57319436D01*
X76750966Y-57275979D01*
X76640118Y-57265061D01*
X76617205Y-57209744D01*
X76613207Y-57203760D01*
X85633365Y-57203760D01*
X86500000Y-58070395D01*
X87366635Y-57203760D01*
X87285975Y-56952132D01*
X87017671Y-56823733D01*
X86729474Y-56750145D01*
X86432457Y-56734196D01*
X86138037Y-56776499D01*
X85857526Y-56875428D01*
X85714025Y-56952132D01*
X85633365Y-57203760D01*
X76613207Y-57203760D01*
X76564239Y-57130475D01*
X76534974Y-57075724D01*
X76440001Y-56959999D01*
X76324276Y-56865026D01*
X76269525Y-56835761D01*
X76190256Y-56782795D01*
X76001898Y-56704774D01*
X75801939Y-56665000D01*
X75598061Y-56665000D01*
X75398102Y-56704774D01*
X75209744Y-56782795D01*
X75040226Y-56896063D01*
X74896063Y-57040226D01*
X74782795Y-57209744D01*
X74704774Y-57398102D01*
X74665000Y-57598061D01*
X74665000Y-57714994D01*
X72162333Y-57715001D01*
X72125000Y-57711324D01*
X71976014Y-57725997D01*
X71832753Y-57769454D01*
X71700725Y-57840026D01*
X71613998Y-57911201D01*
X71584998Y-57935001D01*
X71561200Y-57963999D01*
X71264003Y-58261196D01*
X71234999Y-58284999D01*
X71201338Y-58326016D01*
X71149005Y-58389783D01*
X70798789Y-58740000D01*
X70650933Y-58740000D01*
X70613610Y-58736324D01*
X70576287Y-58740000D01*
X70576277Y-58740000D01*
X70464624Y-58750997D01*
X70321363Y-58794454D01*
X70189333Y-58865026D01*
X70116257Y-58924999D01*
X70073609Y-58959999D01*
X70049811Y-58988998D01*
X69573828Y-59464981D01*
X69514783Y-59464981D01*
X68938782Y-58888981D01*
X68914980Y-58859978D01*
X68799255Y-58765005D01*
X68667226Y-58694433D01*
X68523965Y-58650976D01*
X68412312Y-58639979D01*
X68412301Y-58639979D01*
X68374979Y-58636303D01*
X68337657Y-58639979D01*
X58839342Y-58639979D01*
X58802019Y-58636303D01*
X58764696Y-58639979D01*
X58764686Y-58639979D01*
X58653033Y-58650976D01*
X58525688Y-58689605D01*
X58509772Y-58694433D01*
X58377742Y-58765005D01*
X58315347Y-58816212D01*
X58262018Y-58859978D01*
X58238220Y-58888976D01*
X57407592Y-59719605D01*
X57240256Y-59607795D01*
X57051898Y-59529774D01*
X56851939Y-59490000D01*
X56648061Y-59490000D01*
X56448102Y-59529774D01*
X56259744Y-59607795D01*
X56090226Y-59721063D01*
X55946063Y-59865226D01*
X55832795Y-60034744D01*
X55754774Y-60223102D01*
X55750000Y-60247103D01*
X55745226Y-60223102D01*
X55667205Y-60034744D01*
X55553937Y-59865226D01*
X55409774Y-59721063D01*
X55240256Y-59607795D01*
X55051898Y-59529774D01*
X54851939Y-59490000D01*
X54648061Y-59490000D01*
X54448102Y-59529774D01*
X54259744Y-59607795D01*
X54090226Y-59721063D01*
X53946063Y-59865226D01*
X53832795Y-60034744D01*
X53754774Y-60223102D01*
X53750000Y-60247103D01*
X53745226Y-60223102D01*
X53667205Y-60034744D01*
X53553937Y-59865226D01*
X53409774Y-59721063D01*
X53240256Y-59607795D01*
X53051898Y-59529774D01*
X52851939Y-59490000D01*
X52648061Y-59490000D01*
X52448102Y-59529774D01*
X52259744Y-59607795D01*
X52090226Y-59721063D01*
X51946063Y-59865226D01*
X51832795Y-60034744D01*
X51754774Y-60223102D01*
X51752287Y-60235603D01*
X51745226Y-60200102D01*
X51667205Y-60011744D01*
X51553937Y-59842226D01*
X51409774Y-59698063D01*
X51240256Y-59584795D01*
X51051898Y-59506774D01*
X50851939Y-59467000D01*
X50789801Y-59467000D01*
X50611802Y-59289001D01*
X50588000Y-59259998D01*
X50472275Y-59165025D01*
X50340246Y-59094453D01*
X50196985Y-59050996D01*
X50085332Y-59039999D01*
X50085321Y-59039999D01*
X50047999Y-59036323D01*
X50010677Y-59039999D01*
X48439332Y-59039999D01*
X48401999Y-59036322D01*
X48364666Y-59039999D01*
X48253013Y-59050996D01*
X48109752Y-59094453D01*
X47977723Y-59165025D01*
X47861998Y-59259998D01*
X47838195Y-59289002D01*
X47513997Y-59613200D01*
X47484999Y-59636998D01*
X47461201Y-59665996D01*
X47461200Y-59665997D01*
X47390025Y-59752723D01*
X47319453Y-59884753D01*
X47307464Y-59924276D01*
X47275996Y-60028013D01*
X47264999Y-60139666D01*
X47264999Y-60139677D01*
X47261323Y-60176999D01*
X47264999Y-60214321D01*
X47264999Y-60835679D01*
X47261323Y-60873001D01*
X47264999Y-60910323D01*
X47264999Y-60910333D01*
X47275996Y-61021986D01*
X47318977Y-61163677D01*
X47319453Y-61165247D01*
X47390025Y-61297277D01*
X47413609Y-61326014D01*
X47484998Y-61413002D01*
X47514002Y-61436805D01*
X47700197Y-61623000D01*
X40660000Y-61623000D01*
X40660000Y-58032279D01*
X40679920Y-57829117D01*
X41265000Y-57829117D01*
X41265000Y-58170883D01*
X41331675Y-58506081D01*
X41462463Y-58821831D01*
X41652337Y-59105998D01*
X41894002Y-59347663D01*
X42178169Y-59537537D01*
X42493919Y-59668325D01*
X42829117Y-59735000D01*
X43170883Y-59735000D01*
X43506081Y-59668325D01*
X43821831Y-59537537D01*
X44105998Y-59347663D01*
X44347663Y-59105998D01*
X44537537Y-58821831D01*
X44668325Y-58506081D01*
X44735000Y-58170883D01*
X44735000Y-57829117D01*
X44668325Y-57493919D01*
X44537537Y-57178169D01*
X44347663Y-56894002D01*
X44105998Y-56652337D01*
X44102501Y-56650000D01*
X46011928Y-56650000D01*
X46011928Y-58350000D01*
X46024188Y-58474482D01*
X46060498Y-58594180D01*
X46119463Y-58704494D01*
X46198815Y-58801185D01*
X46295506Y-58880537D01*
X46405820Y-58939502D01*
X46525518Y-58975812D01*
X46650000Y-58988072D01*
X48350000Y-58988072D01*
X48474482Y-58975812D01*
X48594180Y-58939502D01*
X48704494Y-58880537D01*
X48801185Y-58801185D01*
X48880537Y-58704494D01*
X48939502Y-58594180D01*
X48961513Y-58521620D01*
X49093368Y-58653475D01*
X49336589Y-58815990D01*
X49606842Y-58927932D01*
X49893740Y-58985000D01*
X50186260Y-58985000D01*
X50473158Y-58927932D01*
X50743411Y-58815990D01*
X50986632Y-58653475D01*
X51193475Y-58446632D01*
X51355990Y-58203411D01*
X51467932Y-57933158D01*
X51525000Y-57646260D01*
X51525000Y-57353740D01*
X51467932Y-57066842D01*
X51355990Y-56796589D01*
X51193475Y-56553368D01*
X50986632Y-56346525D01*
X50743411Y-56184010D01*
X50473158Y-56072068D01*
X50186260Y-56015000D01*
X49893740Y-56015000D01*
X49606842Y-56072068D01*
X49336589Y-56184010D01*
X49093368Y-56346525D01*
X48961513Y-56478380D01*
X48939502Y-56405820D01*
X48880537Y-56295506D01*
X48801185Y-56198815D01*
X48704494Y-56119463D01*
X48594180Y-56060498D01*
X48474482Y-56024188D01*
X48350000Y-56011928D01*
X46650000Y-56011928D01*
X46525518Y-56024188D01*
X46405820Y-56060498D01*
X46295506Y-56119463D01*
X46198815Y-56198815D01*
X46119463Y-56295506D01*
X46060498Y-56405820D01*
X46024188Y-56525518D01*
X46011928Y-56650000D01*
X44102501Y-56650000D01*
X43821831Y-56462463D01*
X43506081Y-56331675D01*
X43170883Y-56265000D01*
X42829117Y-56265000D01*
X42493919Y-56331675D01*
X42178169Y-56462463D01*
X41894002Y-56652337D01*
X41652337Y-56894002D01*
X41462463Y-57178169D01*
X41331675Y-57493919D01*
X41265000Y-57829117D01*
X40679920Y-57829117D01*
X40707670Y-57546107D01*
X40839489Y-57109502D01*
X41053600Y-56706815D01*
X41341848Y-56353388D01*
X41693261Y-56062673D01*
X42094439Y-55845758D01*
X42530113Y-55710894D01*
X43014344Y-55660000D01*
X95994879Y-55660000D01*
X95607362Y-55867133D01*
M02*
