G04 #@! TF.GenerationSoftware,KiCad,Pcbnew,(5.1.5-0-10_14)*
G04 #@! TF.CreationDate,2020-08-06T19:48:59-06:00*
G04 #@! TF.ProjectId,pcb,7063622e-6b69-4636-9164-5f7063625858,rev?*
G04 #@! TF.SameCoordinates,Original*
G04 #@! TF.FileFunction,Paste,Bot*
G04 #@! TF.FilePolarity,Positive*
%FSLAX46Y46*%
G04 Gerber Fmt 4.6, Leading zero omitted, Abs format (unit mm)*
G04 Created by KiCad (PCBNEW (5.1.5-0-10_14)) date 2020-08-06 19:48:59*
%MOMM*%
%LPD*%
G04 APERTURE LIST*
%ADD10C,0.100000*%
%ADD11R,0.900000X1.000000*%
G04 APERTURE END LIST*
D10*
G36*
X67777691Y-72526053D02*
G01*
X67798926Y-72529203D01*
X67819750Y-72534419D01*
X67839962Y-72541651D01*
X67859368Y-72550830D01*
X67877781Y-72561866D01*
X67895024Y-72574654D01*
X67910930Y-72589070D01*
X67925346Y-72604976D01*
X67938134Y-72622219D01*
X67949170Y-72640632D01*
X67958349Y-72660038D01*
X67965581Y-72680250D01*
X67970797Y-72701074D01*
X67973947Y-72722309D01*
X67975000Y-72743750D01*
X67975000Y-73181250D01*
X67973947Y-73202691D01*
X67970797Y-73223926D01*
X67965581Y-73244750D01*
X67958349Y-73264962D01*
X67949170Y-73284368D01*
X67938134Y-73302781D01*
X67925346Y-73320024D01*
X67910930Y-73335930D01*
X67895024Y-73350346D01*
X67877781Y-73363134D01*
X67859368Y-73374170D01*
X67839962Y-73383349D01*
X67819750Y-73390581D01*
X67798926Y-73395797D01*
X67777691Y-73398947D01*
X67756250Y-73400000D01*
X67243750Y-73400000D01*
X67222309Y-73398947D01*
X67201074Y-73395797D01*
X67180250Y-73390581D01*
X67160038Y-73383349D01*
X67140632Y-73374170D01*
X67122219Y-73363134D01*
X67104976Y-73350346D01*
X67089070Y-73335930D01*
X67074654Y-73320024D01*
X67061866Y-73302781D01*
X67050830Y-73284368D01*
X67041651Y-73264962D01*
X67034419Y-73244750D01*
X67029203Y-73223926D01*
X67026053Y-73202691D01*
X67025000Y-73181250D01*
X67025000Y-72743750D01*
X67026053Y-72722309D01*
X67029203Y-72701074D01*
X67034419Y-72680250D01*
X67041651Y-72660038D01*
X67050830Y-72640632D01*
X67061866Y-72622219D01*
X67074654Y-72604976D01*
X67089070Y-72589070D01*
X67104976Y-72574654D01*
X67122219Y-72561866D01*
X67140632Y-72550830D01*
X67160038Y-72541651D01*
X67180250Y-72534419D01*
X67201074Y-72529203D01*
X67222309Y-72526053D01*
X67243750Y-72525000D01*
X67756250Y-72525000D01*
X67777691Y-72526053D01*
G37*
G36*
X67777691Y-74101053D02*
G01*
X67798926Y-74104203D01*
X67819750Y-74109419D01*
X67839962Y-74116651D01*
X67859368Y-74125830D01*
X67877781Y-74136866D01*
X67895024Y-74149654D01*
X67910930Y-74164070D01*
X67925346Y-74179976D01*
X67938134Y-74197219D01*
X67949170Y-74215632D01*
X67958349Y-74235038D01*
X67965581Y-74255250D01*
X67970797Y-74276074D01*
X67973947Y-74297309D01*
X67975000Y-74318750D01*
X67975000Y-74756250D01*
X67973947Y-74777691D01*
X67970797Y-74798926D01*
X67965581Y-74819750D01*
X67958349Y-74839962D01*
X67949170Y-74859368D01*
X67938134Y-74877781D01*
X67925346Y-74895024D01*
X67910930Y-74910930D01*
X67895024Y-74925346D01*
X67877781Y-74938134D01*
X67859368Y-74949170D01*
X67839962Y-74958349D01*
X67819750Y-74965581D01*
X67798926Y-74970797D01*
X67777691Y-74973947D01*
X67756250Y-74975000D01*
X67243750Y-74975000D01*
X67222309Y-74973947D01*
X67201074Y-74970797D01*
X67180250Y-74965581D01*
X67160038Y-74958349D01*
X67140632Y-74949170D01*
X67122219Y-74938134D01*
X67104976Y-74925346D01*
X67089070Y-74910930D01*
X67074654Y-74895024D01*
X67061866Y-74877781D01*
X67050830Y-74859368D01*
X67041651Y-74839962D01*
X67034419Y-74819750D01*
X67029203Y-74798926D01*
X67026053Y-74777691D01*
X67025000Y-74756250D01*
X67025000Y-74318750D01*
X67026053Y-74297309D01*
X67029203Y-74276074D01*
X67034419Y-74255250D01*
X67041651Y-74235038D01*
X67050830Y-74215632D01*
X67061866Y-74197219D01*
X67074654Y-74179976D01*
X67089070Y-74164070D01*
X67104976Y-74149654D01*
X67122219Y-74136866D01*
X67140632Y-74125830D01*
X67160038Y-74116651D01*
X67180250Y-74109419D01*
X67201074Y-74104203D01*
X67222309Y-74101053D01*
X67243750Y-74100000D01*
X67756250Y-74100000D01*
X67777691Y-74101053D01*
G37*
G36*
X75777691Y-74101053D02*
G01*
X75798926Y-74104203D01*
X75819750Y-74109419D01*
X75839962Y-74116651D01*
X75859368Y-74125830D01*
X75877781Y-74136866D01*
X75895024Y-74149654D01*
X75910930Y-74164070D01*
X75925346Y-74179976D01*
X75938134Y-74197219D01*
X75949170Y-74215632D01*
X75958349Y-74235038D01*
X75965581Y-74255250D01*
X75970797Y-74276074D01*
X75973947Y-74297309D01*
X75975000Y-74318750D01*
X75975000Y-74756250D01*
X75973947Y-74777691D01*
X75970797Y-74798926D01*
X75965581Y-74819750D01*
X75958349Y-74839962D01*
X75949170Y-74859368D01*
X75938134Y-74877781D01*
X75925346Y-74895024D01*
X75910930Y-74910930D01*
X75895024Y-74925346D01*
X75877781Y-74938134D01*
X75859368Y-74949170D01*
X75839962Y-74958349D01*
X75819750Y-74965581D01*
X75798926Y-74970797D01*
X75777691Y-74973947D01*
X75756250Y-74975000D01*
X75243750Y-74975000D01*
X75222309Y-74973947D01*
X75201074Y-74970797D01*
X75180250Y-74965581D01*
X75160038Y-74958349D01*
X75140632Y-74949170D01*
X75122219Y-74938134D01*
X75104976Y-74925346D01*
X75089070Y-74910930D01*
X75074654Y-74895024D01*
X75061866Y-74877781D01*
X75050830Y-74859368D01*
X75041651Y-74839962D01*
X75034419Y-74819750D01*
X75029203Y-74798926D01*
X75026053Y-74777691D01*
X75025000Y-74756250D01*
X75025000Y-74318750D01*
X75026053Y-74297309D01*
X75029203Y-74276074D01*
X75034419Y-74255250D01*
X75041651Y-74235038D01*
X75050830Y-74215632D01*
X75061866Y-74197219D01*
X75074654Y-74179976D01*
X75089070Y-74164070D01*
X75104976Y-74149654D01*
X75122219Y-74136866D01*
X75140632Y-74125830D01*
X75160038Y-74116651D01*
X75180250Y-74109419D01*
X75201074Y-74104203D01*
X75222309Y-74101053D01*
X75243750Y-74100000D01*
X75756250Y-74100000D01*
X75777691Y-74101053D01*
G37*
G36*
X75777691Y-72526053D02*
G01*
X75798926Y-72529203D01*
X75819750Y-72534419D01*
X75839962Y-72541651D01*
X75859368Y-72550830D01*
X75877781Y-72561866D01*
X75895024Y-72574654D01*
X75910930Y-72589070D01*
X75925346Y-72604976D01*
X75938134Y-72622219D01*
X75949170Y-72640632D01*
X75958349Y-72660038D01*
X75965581Y-72680250D01*
X75970797Y-72701074D01*
X75973947Y-72722309D01*
X75975000Y-72743750D01*
X75975000Y-73181250D01*
X75973947Y-73202691D01*
X75970797Y-73223926D01*
X75965581Y-73244750D01*
X75958349Y-73264962D01*
X75949170Y-73284368D01*
X75938134Y-73302781D01*
X75925346Y-73320024D01*
X75910930Y-73335930D01*
X75895024Y-73350346D01*
X75877781Y-73363134D01*
X75859368Y-73374170D01*
X75839962Y-73383349D01*
X75819750Y-73390581D01*
X75798926Y-73395797D01*
X75777691Y-73398947D01*
X75756250Y-73400000D01*
X75243750Y-73400000D01*
X75222309Y-73398947D01*
X75201074Y-73395797D01*
X75180250Y-73390581D01*
X75160038Y-73383349D01*
X75140632Y-73374170D01*
X75122219Y-73363134D01*
X75104976Y-73350346D01*
X75089070Y-73335930D01*
X75074654Y-73320024D01*
X75061866Y-73302781D01*
X75050830Y-73284368D01*
X75041651Y-73264962D01*
X75034419Y-73244750D01*
X75029203Y-73223926D01*
X75026053Y-73202691D01*
X75025000Y-73181250D01*
X75025000Y-72743750D01*
X75026053Y-72722309D01*
X75029203Y-72701074D01*
X75034419Y-72680250D01*
X75041651Y-72660038D01*
X75050830Y-72640632D01*
X75061866Y-72622219D01*
X75074654Y-72604976D01*
X75089070Y-72589070D01*
X75104976Y-72574654D01*
X75122219Y-72561866D01*
X75140632Y-72550830D01*
X75160038Y-72541651D01*
X75180250Y-72534419D01*
X75201074Y-72529203D01*
X75222309Y-72526053D01*
X75243750Y-72525000D01*
X75756250Y-72525000D01*
X75777691Y-72526053D01*
G37*
D11*
X73550000Y-72950000D03*
X73550000Y-74550000D03*
X69450000Y-72950000D03*
X69450000Y-74550000D03*
M02*
