M48
; DRILL file {KiCad (5.1.6-0-10_14)} date Sunday, August 16, 2020 at 11:57:57 PM
; FORMAT={-:-/ absolute / inch / decimal}
; #@! TF.CreationDate,2020-08-16T23:57:57-04:00
; #@! TF.GenerationSoftware,Kicad,Pcbnew,(5.1.6-0-10_14)
; #@! TF.FileFunction,Plated,1,2,PTH
FMAT,2
INCH
T1C0.0157
T2C0.0236
T3C0.0335
T4C0.0390
T5C0.0394
T6C0.0512
T7C0.0866
%
G90
G05
T1
X1.8799Y-3.2697
X1.9193Y-2.3829
X1.998Y-2.382
X2.0768Y-2.3829
X2.1555Y-2.3829
X2.2343Y-2.3829
X2.2362Y-3.1339
X2.2687Y-3.252
X2.313Y-2.3829
X2.315Y-3.1339
X2.3524Y-2.248
X2.4975Y-2.3675
X2.5758Y-3.1594
X2.5984Y-2.9232
X2.6634Y-2.4026
X2.6801Y-2.2776
X2.695Y-2.835
X2.735Y-2.815
X2.7451Y-3.1181
X2.7963Y-2.3711
X2.8012Y-2.5846
X2.8413Y-2.4884
X2.8543Y-2.378
X2.8612Y-2.4242
X2.9478Y-2.2205
X2.9685Y-2.4272
X2.9803Y-2.2717
X2.9823Y-2.561
X2.9872Y-2.3484
X3.061Y-2.2874
X3.1358Y-2.5531
X3.189Y-2.5079
X3.2215Y-2.2559
X3.2323Y-2.4045
X3.235Y-2.32
X3.3317Y-2.6516
X3.3317Y-2.7028
X3.4656Y-2.7343
X3.4902Y-2.5335
X3.5039Y-2.628
X3.5276Y-2.5591
X3.5531Y-2.6772
X3.5531Y-2.7362
X3.5925Y-2.8327
X3.6122Y-2.6772
X3.6122Y-2.7362
X3.6732Y-2.56
X3.7057Y-2.8326
X3.7106Y-2.687
X3.7106Y-2.7657
X3.7461Y-2.9724
X3.7559Y-2.5728
T2
X2.5433Y-2.4567
X2.6181Y-3.1181
X3.26Y-2.8863
X3.4843Y-2.9961
X3.6368Y-2.8494
T3
X3.7735Y-2.6575
X3.7735Y-2.8543
T4
X3.4055Y-2.2933
X3.5827Y-2.2933
X3.4055Y-3.2185
X3.5827Y-3.2185
X2.9921Y-3.2185
X3.1693Y-3.2185
T5
X2.7413Y-2.7008
X2.8413Y-2.7008
X2.9413Y-2.7008
X3.0413Y-2.7008
X1.8701Y-2.2638
X1.9701Y-2.2638
T6
X3.3563Y-2.3913
X3.6323Y-2.3913
X3.3559Y-3.1205
X3.6319Y-3.1205
X2.9425Y-3.1205
X3.2185Y-3.1205
T7
X3.8189Y-3.2283
X3.8189Y-2.2835
T2
G00X3.866Y-2.6181
M15
G01X3.8936Y-2.6181
M16
G05
G00X3.8936Y-2.8937
M15
G01X3.866Y-2.8937
M16
G05
T0
M30
