G04 #@! TF.GenerationSoftware,KiCad,Pcbnew,(5.1.5-0-10_14)*
G04 #@! TF.CreationDate,2020-08-06T20:20:02-06:00*
G04 #@! TF.ProjectId,pcb,7063622e-6b69-4636-9164-5f7063625858,rev?*
G04 #@! TF.SameCoordinates,Original*
G04 #@! TF.FileFunction,Legend,Top*
G04 #@! TF.FilePolarity,Positive*
%FSLAX46Y46*%
G04 Gerber Fmt 4.6, Leading zero omitted, Abs format (unit mm)*
G04 Created by KiCad (PCBNEW (5.1.5-0-10_14)) date 2020-08-06 20:20:02*
%MOMM*%
%LPD*%
G04 APERTURE LIST*
%ADD10C,0.120000*%
%ADD11C,0.150000*%
%ADD12C,0.100000*%
%ADD13C,0.203200*%
%ADD14C,0.090000*%
G04 APERTURE END LIST*
D10*
X49390476Y-59061904D02*
X49847619Y-59061904D01*
X49619047Y-59861904D02*
X49619047Y-59061904D01*
X50038095Y-59061904D02*
X50571428Y-59861904D01*
X50571428Y-59061904D02*
X50038095Y-59861904D01*
X47366666Y-59861904D02*
X47100000Y-59480952D01*
X46909523Y-59861904D02*
X46909523Y-59061904D01*
X47214285Y-59061904D01*
X47290476Y-59100000D01*
X47328571Y-59138095D01*
X47366666Y-59214285D01*
X47366666Y-59328571D01*
X47328571Y-59404761D01*
X47290476Y-59442857D01*
X47214285Y-59480952D01*
X46909523Y-59480952D01*
X47633333Y-59061904D02*
X48166666Y-59861904D01*
X48166666Y-59061904D02*
X47633333Y-59861904D01*
D11*
X96238095Y-78202380D02*
X96809523Y-78202380D01*
X96523809Y-79202380D02*
X96523809Y-78202380D01*
X97047619Y-78202380D02*
X97714285Y-79202380D01*
X97714285Y-78202380D02*
X97047619Y-79202380D01*
X96833333Y-61452380D02*
X96500000Y-60976190D01*
X96261904Y-61452380D02*
X96261904Y-60452380D01*
X96642857Y-60452380D01*
X96738095Y-60500000D01*
X96785714Y-60547619D01*
X96833333Y-60642857D01*
X96833333Y-60785714D01*
X96785714Y-60880952D01*
X96738095Y-60928571D01*
X96642857Y-60976190D01*
X96261904Y-60976190D01*
X97166666Y-60452380D02*
X97833333Y-61452380D01*
X97833333Y-60452380D02*
X97166666Y-61452380D01*
D10*
X82500000Y-66250000D02*
X82500000Y-66100000D01*
X82250000Y-66250000D02*
X82500000Y-66250000D01*
X65750000Y-63750000D02*
X65750000Y-55000000D01*
X65750000Y-65825000D02*
X65750000Y-65500000D01*
X67250000Y-66250000D02*
X65750000Y-66250000D01*
X82500000Y-63850000D02*
X82500000Y-55000000D01*
X82500000Y-66100000D02*
X82500000Y-66075000D01*
X76650000Y-74890476D02*
X76688095Y-74814285D01*
X76688095Y-74700000D01*
X76650000Y-74585714D01*
X76573809Y-74509523D01*
X76497619Y-74471428D01*
X76345238Y-74433333D01*
X76230952Y-74433333D01*
X76078571Y-74471428D01*
X76002380Y-74509523D01*
X75926190Y-74585714D01*
X75888095Y-74700000D01*
X75888095Y-74776190D01*
X75926190Y-74890476D01*
X75964285Y-74928571D01*
X76230952Y-74928571D01*
X76230952Y-74776190D01*
X75888095Y-75271428D02*
X76688095Y-75271428D01*
X75888095Y-75728571D01*
X76688095Y-75728571D01*
X75888095Y-76109523D02*
X76688095Y-76109523D01*
X76688095Y-76300000D01*
X76650000Y-76414285D01*
X76573809Y-76490476D01*
X76497619Y-76528571D01*
X76345238Y-76566666D01*
X76230952Y-76566666D01*
X76078571Y-76528571D01*
X76002380Y-76490476D01*
X75926190Y-76414285D01*
X75888095Y-76300000D01*
X75888095Y-76109523D01*
X68938095Y-74319047D02*
X68938095Y-74814285D01*
X68633333Y-74547619D01*
X68633333Y-74661904D01*
X68595238Y-74738095D01*
X68557142Y-74776190D01*
X68480952Y-74814285D01*
X68290476Y-74814285D01*
X68214285Y-74776190D01*
X68176190Y-74738095D01*
X68138095Y-74661904D01*
X68138095Y-74433333D01*
X68176190Y-74357142D01*
X68214285Y-74319047D01*
X68214285Y-75157142D02*
X68176190Y-75195238D01*
X68138095Y-75157142D01*
X68176190Y-75119047D01*
X68214285Y-75157142D01*
X68138095Y-75157142D01*
X68938095Y-75461904D02*
X68938095Y-75957142D01*
X68633333Y-75690476D01*
X68633333Y-75804761D01*
X68595238Y-75880952D01*
X68557142Y-75919047D01*
X68480952Y-75957142D01*
X68290476Y-75957142D01*
X68214285Y-75919047D01*
X68176190Y-75880952D01*
X68138095Y-75804761D01*
X68138095Y-75576190D01*
X68176190Y-75500000D01*
X68214285Y-75461904D01*
X68938095Y-76185714D02*
X68138095Y-76452380D01*
X68938095Y-76719047D01*
X73426190Y-74528571D02*
X73388095Y-74642857D01*
X73388095Y-74833333D01*
X73426190Y-74909523D01*
X73464285Y-74947619D01*
X73540476Y-74985714D01*
X73616666Y-74985714D01*
X73692857Y-74947619D01*
X73730952Y-74909523D01*
X73769047Y-74833333D01*
X73807142Y-74680952D01*
X73845238Y-74604761D01*
X73883333Y-74566666D01*
X73959523Y-74528571D01*
X74035714Y-74528571D01*
X74111904Y-74566666D01*
X74150000Y-74604761D01*
X74188095Y-74680952D01*
X74188095Y-74871428D01*
X74150000Y-74985714D01*
X73388095Y-75328571D02*
X74188095Y-75328571D01*
X74188095Y-75519047D01*
X74150000Y-75633333D01*
X74073809Y-75709523D01*
X73997619Y-75747619D01*
X73845238Y-75785714D01*
X73730952Y-75785714D01*
X73578571Y-75747619D01*
X73502380Y-75709523D01*
X73426190Y-75633333D01*
X73388095Y-75519047D01*
X73388095Y-75328571D01*
X73616666Y-76090476D02*
X73616666Y-76471428D01*
X73388095Y-76014285D02*
X74188095Y-76280952D01*
X73388095Y-76547619D01*
X70676190Y-74471428D02*
X70638095Y-74585714D01*
X70638095Y-74776190D01*
X70676190Y-74852380D01*
X70714285Y-74890476D01*
X70790476Y-74928571D01*
X70866666Y-74928571D01*
X70942857Y-74890476D01*
X70980952Y-74852380D01*
X71019047Y-74776190D01*
X71057142Y-74623809D01*
X71095238Y-74547619D01*
X71133333Y-74509523D01*
X71209523Y-74471428D01*
X71285714Y-74471428D01*
X71361904Y-74509523D01*
X71400000Y-74547619D01*
X71438095Y-74623809D01*
X71438095Y-74814285D01*
X71400000Y-74928571D01*
X70714285Y-75728571D02*
X70676190Y-75690476D01*
X70638095Y-75576190D01*
X70638095Y-75500000D01*
X70676190Y-75385714D01*
X70752380Y-75309523D01*
X70828571Y-75271428D01*
X70980952Y-75233333D01*
X71095238Y-75233333D01*
X71247619Y-75271428D01*
X71323809Y-75309523D01*
X71400000Y-75385714D01*
X71438095Y-75500000D01*
X71438095Y-75576190D01*
X71400000Y-75690476D01*
X71361904Y-75728571D01*
X70638095Y-76071428D02*
X71438095Y-76071428D01*
X70638095Y-76528571D02*
X71095238Y-76185714D01*
X71438095Y-76528571D02*
X70980952Y-76071428D01*
D11*
X87642857Y-60178571D02*
X87785714Y-60226190D01*
X87833333Y-60273809D01*
X87880952Y-60369047D01*
X87880952Y-60511904D01*
X87833333Y-60607142D01*
X87785714Y-60654761D01*
X87690476Y-60702380D01*
X87309523Y-60702380D01*
X87309523Y-59702380D01*
X87642857Y-59702380D01*
X87738095Y-59750000D01*
X87785714Y-59797619D01*
X87833333Y-59892857D01*
X87833333Y-59988095D01*
X87785714Y-60083333D01*
X87738095Y-60130952D01*
X87642857Y-60178571D01*
X87309523Y-60178571D01*
X88500000Y-59702380D02*
X88690476Y-59702380D01*
X88785714Y-59750000D01*
X88880952Y-59845238D01*
X88928571Y-60035714D01*
X88928571Y-60369047D01*
X88880952Y-60559523D01*
X88785714Y-60654761D01*
X88690476Y-60702380D01*
X88500000Y-60702380D01*
X88404761Y-60654761D01*
X88309523Y-60559523D01*
X88261904Y-60369047D01*
X88261904Y-60035714D01*
X88309523Y-59845238D01*
X88404761Y-59750000D01*
X88500000Y-59702380D01*
X89547619Y-59702380D02*
X89738095Y-59702380D01*
X89833333Y-59750000D01*
X89928571Y-59845238D01*
X89976190Y-60035714D01*
X89976190Y-60369047D01*
X89928571Y-60559523D01*
X89833333Y-60654761D01*
X89738095Y-60702380D01*
X89547619Y-60702380D01*
X89452380Y-60654761D01*
X89357142Y-60559523D01*
X89309523Y-60369047D01*
X89309523Y-60035714D01*
X89357142Y-59845238D01*
X89452380Y-59750000D01*
X89547619Y-59702380D01*
X90261904Y-59702380D02*
X90833333Y-59702380D01*
X90547619Y-60702380D02*
X90547619Y-59702380D01*
X88202380Y-80452380D02*
X87869047Y-79976190D01*
X87630952Y-80452380D02*
X87630952Y-79452380D01*
X88011904Y-79452380D01*
X88107142Y-79500000D01*
X88154761Y-79547619D01*
X88202380Y-79642857D01*
X88202380Y-79785714D01*
X88154761Y-79880952D01*
X88107142Y-79928571D01*
X88011904Y-79976190D01*
X87630952Y-79976190D01*
X88583333Y-80404761D02*
X88726190Y-80452380D01*
X88964285Y-80452380D01*
X89059523Y-80404761D01*
X89107142Y-80357142D01*
X89154761Y-80261904D01*
X89154761Y-80166666D01*
X89107142Y-80071428D01*
X89059523Y-80023809D01*
X88964285Y-79976190D01*
X88773809Y-79928571D01*
X88678571Y-79880952D01*
X88630952Y-79833333D01*
X88583333Y-79738095D01*
X88583333Y-79642857D01*
X88630952Y-79547619D01*
X88678571Y-79500000D01*
X88773809Y-79452380D01*
X89011904Y-79452380D01*
X89154761Y-79500000D01*
X89440476Y-79452380D02*
X90011904Y-79452380D01*
X89726190Y-80452380D02*
X89726190Y-79452380D01*
X76440476Y-80452380D02*
X76440476Y-79452380D01*
X76773809Y-80166666D01*
X77107142Y-79452380D01*
X77107142Y-80452380D01*
X77773809Y-79452380D02*
X77964285Y-79452380D01*
X78059523Y-79500000D01*
X78154761Y-79595238D01*
X78202380Y-79785714D01*
X78202380Y-80119047D01*
X78154761Y-80309523D01*
X78059523Y-80404761D01*
X77964285Y-80452380D01*
X77773809Y-80452380D01*
X77678571Y-80404761D01*
X77583333Y-80309523D01*
X77535714Y-80119047D01*
X77535714Y-79785714D01*
X77583333Y-79595238D01*
X77678571Y-79500000D01*
X77773809Y-79452380D01*
X78630952Y-80452380D02*
X78630952Y-79452380D01*
X78869047Y-79452380D01*
X79011904Y-79500000D01*
X79107142Y-79595238D01*
X79154761Y-79690476D01*
X79202380Y-79880952D01*
X79202380Y-80023809D01*
X79154761Y-80214285D01*
X79107142Y-80309523D01*
X79011904Y-80404761D01*
X78869047Y-80452380D01*
X78630952Y-80452380D01*
X79630952Y-79928571D02*
X79964285Y-79928571D01*
X80107142Y-80452380D02*
X79630952Y-80452380D01*
X79630952Y-79452380D01*
X80107142Y-79452380D01*
D10*
X65750000Y-65825000D02*
X65750000Y-66100000D01*
X82500000Y-65850000D02*
X82500000Y-66075000D01*
X82500000Y-63850000D02*
X82500000Y-65850000D01*
X65750000Y-63750000D02*
X65750000Y-65750000D01*
X67250000Y-66250000D02*
X82250000Y-66250000D01*
X46170000Y-58830000D02*
X46170000Y-57500000D01*
X47500000Y-58830000D02*
X46170000Y-58830000D01*
X48770000Y-58830000D02*
X48770000Y-56170000D01*
X48770000Y-56170000D02*
X51370000Y-56170000D01*
X48770000Y-58830000D02*
X51370000Y-58830000D01*
X51370000Y-58830000D02*
X51370000Y-56170000D01*
X67510000Y-64162779D02*
X67510000Y-63837221D01*
X66490000Y-64162779D02*
X66490000Y-63837221D01*
D12*
X68150000Y-60850000D02*
X68150000Y-60600000D01*
X70850000Y-60700000D02*
X70850000Y-60850000D01*
X70700000Y-60700000D02*
X70850000Y-60700000D01*
X70850000Y-63400000D02*
X70700000Y-63400000D01*
X70850000Y-63400000D02*
X70850000Y-63250000D01*
X68150000Y-63400000D02*
X68150000Y-63250000D01*
X68150000Y-63410000D02*
X68300000Y-63410000D01*
D13*
X76353000Y-56576000D02*
G75*
G03X76353000Y-56576000I-127000J0D01*
G01*
X78975000Y-59325000D02*
X76525000Y-59325000D01*
X76525000Y-56875000D02*
X78975000Y-56875000D01*
D10*
X61260000Y-81162779D02*
X61260000Y-80837221D01*
X60240000Y-81162779D02*
X60240000Y-80837221D01*
X80490000Y-61687221D02*
X80490000Y-62012779D01*
X81510000Y-61687221D02*
X81510000Y-62012779D01*
X54240000Y-58437221D02*
X54240000Y-58762779D01*
X55260000Y-58437221D02*
X55260000Y-58762779D01*
X52240000Y-58437221D02*
X52240000Y-58762779D01*
X53260000Y-58437221D02*
X53260000Y-58762779D01*
X74162779Y-58340000D02*
X73837221Y-58340000D01*
X74162779Y-59360000D02*
X73837221Y-59360000D01*
X74162779Y-63590000D02*
X73837221Y-63590000D01*
X74162779Y-64610000D02*
X73837221Y-64610000D01*
X81260000Y-58262779D02*
X81260000Y-57937221D01*
X80240000Y-58262779D02*
X80240000Y-57937221D01*
X72787221Y-57510000D02*
X73112779Y-57510000D01*
X72787221Y-56490000D02*
X73112779Y-56490000D01*
X69337221Y-65260000D02*
X69662779Y-65260000D01*
X69337221Y-64240000D02*
X69662779Y-64240000D01*
X61260000Y-58762779D02*
X61260000Y-58437221D01*
X60240000Y-58762779D02*
X60240000Y-58437221D01*
X56240000Y-58437221D02*
X56240000Y-58762779D01*
X57260000Y-58437221D02*
X57260000Y-58762779D01*
X53260000Y-81162779D02*
X53260000Y-80837221D01*
X52240000Y-81162779D02*
X52240000Y-80837221D01*
X50260000Y-81162779D02*
X50260000Y-80837221D01*
X49240000Y-81162779D02*
X49240000Y-80837221D01*
X63337221Y-80760000D02*
X63662779Y-80760000D01*
X63337221Y-79740000D02*
X63662779Y-79740000D01*
X97162779Y-74990000D02*
X96837221Y-74990000D01*
X97162779Y-76010000D02*
X96837221Y-76010000D01*
X97162779Y-63990000D02*
X96837221Y-63990000D01*
X97162779Y-65010000D02*
X96837221Y-65010000D01*
X98485000Y-76515000D02*
X96200000Y-76515000D01*
X98485000Y-77985000D02*
X98485000Y-76515000D01*
X96200000Y-77985000D02*
X98485000Y-77985000D01*
X98485000Y-62015000D02*
X96200000Y-62015000D01*
X98485000Y-63485000D02*
X98485000Y-62015000D01*
X96200000Y-63485000D02*
X98485000Y-63485000D01*
D12*
X75225000Y-60550000D02*
X75225000Y-60775000D01*
X74925000Y-60550000D02*
X75225000Y-60550000D01*
X75225000Y-62150000D02*
X75225000Y-61900000D01*
X74950000Y-62150000D02*
X75225000Y-62150000D01*
X72775000Y-60550000D02*
X72775000Y-60850000D01*
X73075000Y-60550000D02*
X72775000Y-60550000D01*
X73075000Y-62150000D02*
X73075000Y-62550000D01*
X72775000Y-61825000D02*
X73075000Y-62150000D01*
X85700000Y-66775000D02*
X85925000Y-66775000D01*
X85700000Y-67075000D02*
X85700000Y-66775000D01*
X87300000Y-66775000D02*
X87050000Y-66775000D01*
X87300000Y-67050000D02*
X87300000Y-66775000D01*
X85700000Y-69225000D02*
X86000000Y-69225000D01*
X85700000Y-68925000D02*
X85700000Y-69225000D01*
X87300000Y-68925000D02*
X87700000Y-68925000D01*
X86975000Y-69225000D02*
X87300000Y-68925000D01*
D10*
X89400000Y-72640000D02*
X87600000Y-72640000D01*
X87600000Y-75860000D02*
X90050000Y-75860000D01*
X81590000Y-80780000D02*
X81590000Y-80550000D01*
X82110000Y-84450000D02*
X74390000Y-84450000D01*
X74390000Y-84450000D02*
X74390000Y-80550000D01*
X82110000Y-77440000D02*
X81590000Y-77440000D01*
X82110000Y-84450000D02*
X82110000Y-80550000D01*
X74910000Y-80780000D02*
X74910000Y-80550000D01*
X81590000Y-77950000D02*
X81590000Y-77440000D01*
X82110000Y-77950000D02*
X82110000Y-77440000D01*
X75450000Y-80780000D02*
X74910000Y-80780000D01*
X74910000Y-77950000D02*
X74910000Y-77440000D01*
X74910000Y-77440000D02*
X74390000Y-77440000D01*
X74390000Y-77950000D02*
X74390000Y-77440000D01*
X81590000Y-80780000D02*
X81050000Y-80780000D01*
X79950000Y-80780000D02*
X76550000Y-80780000D01*
X68300000Y-67270000D02*
X68300000Y-69930000D01*
X75980000Y-67270000D02*
X68300000Y-67270000D01*
X75980000Y-69930000D02*
X68300000Y-69930000D01*
X75980000Y-67270000D02*
X75980000Y-69930000D01*
X77250000Y-67270000D02*
X78580000Y-67270000D01*
X78580000Y-67270000D02*
X78580000Y-68600000D01*
X58240000Y-58762779D02*
X58240000Y-58437221D01*
X59260000Y-58762779D02*
X59260000Y-58437221D01*
X89365000Y-70860000D02*
X88890000Y-70860000D01*
X88890000Y-70860000D02*
X88890000Y-70385000D01*
X92635000Y-66640000D02*
X93110000Y-66640000D01*
X93110000Y-66640000D02*
X93110000Y-67115000D01*
X89365000Y-66640000D02*
X88890000Y-66640000D01*
X88890000Y-66640000D02*
X88890000Y-67115000D01*
X92635000Y-70860000D02*
X93110000Y-70860000D01*
X78650000Y-60240000D02*
X76850000Y-60240000D01*
X76850000Y-63460000D02*
X79300000Y-63460000D01*
X86337221Y-69990000D02*
X86662779Y-69990000D01*
X86337221Y-71010000D02*
X86662779Y-71010000D01*
X86662779Y-66010000D02*
X86337221Y-66010000D01*
X86662779Y-64990000D02*
X86337221Y-64990000D01*
X90990000Y-74412779D02*
X90990000Y-74087221D01*
X92010000Y-74412779D02*
X92010000Y-74087221D01*
X72250000Y-73100000D02*
X72250000Y-80400000D01*
X66750000Y-73100000D02*
X66750000Y-80400000D01*
X66750000Y-80400000D02*
X67900000Y-80400000D01*
X77587221Y-64340000D02*
X77912779Y-64340000D01*
X77587221Y-65360000D02*
X77912779Y-65360000D01*
X92740000Y-74412779D02*
X92740000Y-74087221D01*
X93760000Y-74412779D02*
X93760000Y-74087221D01*
X59260000Y-80837221D02*
X59260000Y-81162779D01*
X58240000Y-80837221D02*
X58240000Y-81162779D01*
X48260000Y-80837221D02*
X48260000Y-81162779D01*
X47240000Y-80837221D02*
X47240000Y-81162779D01*
X84540000Y-74508578D02*
X84540000Y-73991422D01*
X85960000Y-74508578D02*
X85960000Y-73991422D01*
X92090000Y-80780000D02*
X92090000Y-80550000D01*
X92610000Y-84450000D02*
X84890000Y-84450000D01*
X84890000Y-84450000D02*
X84890000Y-80550000D01*
X92610000Y-77440000D02*
X92090000Y-77440000D01*
X92610000Y-84450000D02*
X92610000Y-80550000D01*
X85410000Y-80780000D02*
X85410000Y-80550000D01*
X92090000Y-77950000D02*
X92090000Y-77440000D01*
X92610000Y-77950000D02*
X92610000Y-77440000D01*
X85950000Y-80780000D02*
X85410000Y-80780000D01*
X85410000Y-77950000D02*
X85410000Y-77440000D01*
X85410000Y-77440000D02*
X84890000Y-77440000D01*
X84890000Y-77950000D02*
X84890000Y-77440000D01*
X92090000Y-80780000D02*
X91550000Y-80780000D01*
X90450000Y-80780000D02*
X87050000Y-80780000D01*
X85410000Y-59220000D02*
X85410000Y-59450000D01*
X84890000Y-55550000D02*
X92610000Y-55550000D01*
X92610000Y-55550000D02*
X92610000Y-59450000D01*
X84890000Y-62560000D02*
X85410000Y-62560000D01*
X84890000Y-55550000D02*
X84890000Y-59450000D01*
X92090000Y-59220000D02*
X92090000Y-59450000D01*
X85410000Y-62050000D02*
X85410000Y-62560000D01*
X84890000Y-62050000D02*
X84890000Y-62560000D01*
X91550000Y-59220000D02*
X92090000Y-59220000D01*
X92090000Y-62050000D02*
X92090000Y-62560000D01*
X92090000Y-62560000D02*
X92610000Y-62560000D01*
X92610000Y-62050000D02*
X92610000Y-62560000D01*
X85410000Y-59220000D02*
X85950000Y-59220000D01*
X87050000Y-59220000D02*
X90450000Y-59220000D01*
X95547500Y-73900000D02*
X95547500Y-73450000D01*
X97397500Y-73900000D02*
X95547500Y-73900000D01*
X99947500Y-66100000D02*
X99697500Y-66100000D01*
X99947500Y-73900000D02*
X99697500Y-73900000D01*
X97397500Y-66100000D02*
X95547500Y-66100000D01*
X95547500Y-66100000D02*
X95547500Y-66550000D01*
X94997500Y-71700000D02*
X94997500Y-71250000D01*
X94997500Y-71700000D02*
X95447500Y-71700000D01*
X40130000Y-78120000D02*
X40130000Y-61880000D01*
X40130000Y-61880000D02*
X47750000Y-61880000D01*
X63750000Y-61880000D02*
X64370000Y-61880000D01*
X64370000Y-61880000D02*
X64370000Y-64000000D01*
X64370000Y-76000000D02*
X64370000Y-78120000D01*
X64370000Y-78120000D02*
X63750000Y-78120000D01*
X47750000Y-78120000D02*
X40130000Y-78120000D01*
X47750000Y-78120000D02*
X47750000Y-78730000D01*
X91612779Y-65510000D02*
X91287221Y-65510000D01*
X91612779Y-64490000D02*
X91287221Y-64490000D01*
X70850000Y-59600000D02*
X70850000Y-57600000D01*
X68250000Y-59600000D02*
X68250000Y-58600000D01*
D11*
X45166666Y-59452380D02*
X45166666Y-60166666D01*
X45119047Y-60309523D01*
X45023809Y-60404761D01*
X44880952Y-60452380D01*
X44785714Y-60452380D01*
X46071428Y-59785714D02*
X46071428Y-60452380D01*
X45833333Y-59404761D02*
X45595238Y-60119047D01*
X46214285Y-60119047D01*
D10*
X66485714Y-62361904D02*
X66219047Y-61980952D01*
X66028571Y-62361904D02*
X66028571Y-61561904D01*
X66333333Y-61561904D01*
X66409523Y-61600000D01*
X66447619Y-61638095D01*
X66485714Y-61714285D01*
X66485714Y-61828571D01*
X66447619Y-61904761D01*
X66409523Y-61942857D01*
X66333333Y-61980952D01*
X66028571Y-61980952D01*
X67247619Y-62361904D02*
X66790476Y-62361904D01*
X67019047Y-62361904D02*
X67019047Y-61561904D01*
X66942857Y-61676190D01*
X66866666Y-61752380D01*
X66790476Y-61790476D01*
X67933333Y-61561904D02*
X67780952Y-61561904D01*
X67704761Y-61600000D01*
X67666666Y-61638095D01*
X67590476Y-61752380D01*
X67552380Y-61904761D01*
X67552380Y-62209523D01*
X67590476Y-62285714D01*
X67628571Y-62323809D01*
X67704761Y-62361904D01*
X67857142Y-62361904D01*
X67933333Y-62323809D01*
X67971428Y-62285714D01*
X68009523Y-62209523D01*
X68009523Y-62019047D01*
X67971428Y-61942857D01*
X67933333Y-61904761D01*
X67857142Y-61866666D01*
X67704761Y-61866666D01*
X67628571Y-61904761D01*
X67590476Y-61942857D01*
X67552380Y-62019047D01*
X66890476Y-59811904D02*
X66890476Y-60459523D01*
X66928571Y-60535714D01*
X66966666Y-60573809D01*
X67042857Y-60611904D01*
X67195238Y-60611904D01*
X67271428Y-60573809D01*
X67309523Y-60535714D01*
X67347619Y-60459523D01*
X67347619Y-59811904D01*
X68071428Y-60078571D02*
X68071428Y-60611904D01*
X67880952Y-59773809D02*
X67690476Y-60345238D01*
X68185714Y-60345238D01*
X77902476Y-55731504D02*
X77902476Y-56379123D01*
X77940571Y-56455314D01*
X77978666Y-56493409D01*
X78054857Y-56531504D01*
X78207238Y-56531504D01*
X78283428Y-56493409D01*
X78321523Y-56455314D01*
X78359619Y-56379123D01*
X78359619Y-55731504D01*
X79083428Y-55731504D02*
X78931047Y-55731504D01*
X78854857Y-55769600D01*
X78816761Y-55807695D01*
X78740571Y-55921980D01*
X78702476Y-56074361D01*
X78702476Y-56379123D01*
X78740571Y-56455314D01*
X78778666Y-56493409D01*
X78854857Y-56531504D01*
X79007238Y-56531504D01*
X79083428Y-56493409D01*
X79121523Y-56455314D01*
X79159619Y-56379123D01*
X79159619Y-56188647D01*
X79121523Y-56112457D01*
X79083428Y-56074361D01*
X79007238Y-56036266D01*
X78854857Y-56036266D01*
X78778666Y-56074361D01*
X78740571Y-56112457D01*
X78702476Y-56188647D01*
D14*
X61021428Y-83985714D02*
X60735714Y-84185714D01*
X61021428Y-84328571D02*
X60421428Y-84328571D01*
X60421428Y-84100000D01*
X60450000Y-84042857D01*
X60478571Y-84014285D01*
X60535714Y-83985714D01*
X60621428Y-83985714D01*
X60678571Y-84014285D01*
X60707142Y-84042857D01*
X60735714Y-84100000D01*
X60735714Y-84328571D01*
X61021428Y-83414285D02*
X61021428Y-83757142D01*
X61021428Y-83585714D02*
X60421428Y-83585714D01*
X60507142Y-83642857D01*
X60564285Y-83700000D01*
X60592857Y-83757142D01*
X60621428Y-82900000D02*
X61021428Y-82900000D01*
X60392857Y-83042857D02*
X60821428Y-83185714D01*
X60821428Y-82814285D01*
D10*
X79866666Y-64285714D02*
X79828571Y-64323809D01*
X79714285Y-64361904D01*
X79638095Y-64361904D01*
X79523809Y-64323809D01*
X79447619Y-64247619D01*
X79409523Y-64171428D01*
X79371428Y-64019047D01*
X79371428Y-63904761D01*
X79409523Y-63752380D01*
X79447619Y-63676190D01*
X79523809Y-63600000D01*
X79638095Y-63561904D01*
X79714285Y-63561904D01*
X79828571Y-63600000D01*
X79866666Y-63638095D01*
X80323809Y-63904761D02*
X80247619Y-63866666D01*
X80209523Y-63828571D01*
X80171428Y-63752380D01*
X80171428Y-63714285D01*
X80209523Y-63638095D01*
X80247619Y-63600000D01*
X80323809Y-63561904D01*
X80476190Y-63561904D01*
X80552380Y-63600000D01*
X80590476Y-63638095D01*
X80628571Y-63714285D01*
X80628571Y-63752380D01*
X80590476Y-63828571D01*
X80552380Y-63866666D01*
X80476190Y-63904761D01*
X80323809Y-63904761D01*
X80247619Y-63942857D01*
X80209523Y-63980952D01*
X80171428Y-64057142D01*
X80171428Y-64209523D01*
X80209523Y-64285714D01*
X80247619Y-64323809D01*
X80323809Y-64361904D01*
X80476190Y-64361904D01*
X80552380Y-64323809D01*
X80590476Y-64285714D01*
X80628571Y-64209523D01*
X80628571Y-64057142D01*
X80590476Y-63980952D01*
X80552380Y-63942857D01*
X80476190Y-63904761D01*
D14*
X55021428Y-56585714D02*
X54735714Y-56785714D01*
X55021428Y-56928571D02*
X54421428Y-56928571D01*
X54421428Y-56700000D01*
X54450000Y-56642857D01*
X54478571Y-56614285D01*
X54535714Y-56585714D01*
X54621428Y-56585714D01*
X54678571Y-56614285D01*
X54707142Y-56642857D01*
X54735714Y-56700000D01*
X54735714Y-56928571D01*
X55021428Y-56014285D02*
X55021428Y-56357142D01*
X55021428Y-56185714D02*
X54421428Y-56185714D01*
X54507142Y-56242857D01*
X54564285Y-56300000D01*
X54592857Y-56357142D01*
X54421428Y-55814285D02*
X54421428Y-55442857D01*
X54650000Y-55642857D01*
X54650000Y-55557142D01*
X54678571Y-55500000D01*
X54707142Y-55471428D01*
X54764285Y-55442857D01*
X54907142Y-55442857D01*
X54964285Y-55471428D01*
X54992857Y-55500000D01*
X55021428Y-55557142D01*
X55021428Y-55728571D01*
X54992857Y-55785714D01*
X54964285Y-55814285D01*
X52971428Y-56585714D02*
X52685714Y-56785714D01*
X52971428Y-56928571D02*
X52371428Y-56928571D01*
X52371428Y-56700000D01*
X52400000Y-56642857D01*
X52428571Y-56614285D01*
X52485714Y-56585714D01*
X52571428Y-56585714D01*
X52628571Y-56614285D01*
X52657142Y-56642857D01*
X52685714Y-56700000D01*
X52685714Y-56928571D01*
X52971428Y-56014285D02*
X52971428Y-56357142D01*
X52971428Y-56185714D02*
X52371428Y-56185714D01*
X52457142Y-56242857D01*
X52514285Y-56300000D01*
X52542857Y-56357142D01*
X52428571Y-55785714D02*
X52400000Y-55757142D01*
X52371428Y-55700000D01*
X52371428Y-55557142D01*
X52400000Y-55500000D01*
X52428571Y-55471428D01*
X52485714Y-55442857D01*
X52542857Y-55442857D01*
X52628571Y-55471428D01*
X52971428Y-55814285D01*
X52971428Y-55442857D01*
D10*
X72111904Y-59514285D02*
X71730952Y-59780952D01*
X72111904Y-59971428D02*
X71311904Y-59971428D01*
X71311904Y-59666666D01*
X71350000Y-59590476D01*
X71388095Y-59552380D01*
X71464285Y-59514285D01*
X71578571Y-59514285D01*
X71654761Y-59552380D01*
X71692857Y-59590476D01*
X71730952Y-59666666D01*
X71730952Y-59971428D01*
X72111904Y-58752380D02*
X72111904Y-59209523D01*
X72111904Y-58980952D02*
X71311904Y-58980952D01*
X71426190Y-59057142D01*
X71502380Y-59133333D01*
X71540476Y-59209523D01*
X72111904Y-57990476D02*
X72111904Y-58447619D01*
X72111904Y-58219047D02*
X71311904Y-58219047D01*
X71426190Y-58295238D01*
X71502380Y-58371428D01*
X71540476Y-58447619D01*
X73485714Y-65891904D02*
X73219047Y-65510952D01*
X73028571Y-65891904D02*
X73028571Y-65091904D01*
X73333333Y-65091904D01*
X73409523Y-65130000D01*
X73447619Y-65168095D01*
X73485714Y-65244285D01*
X73485714Y-65358571D01*
X73447619Y-65434761D01*
X73409523Y-65472857D01*
X73333333Y-65510952D01*
X73028571Y-65510952D01*
X74247619Y-65891904D02*
X73790476Y-65891904D01*
X74019047Y-65891904D02*
X74019047Y-65091904D01*
X73942857Y-65206190D01*
X73866666Y-65282380D01*
X73790476Y-65320476D01*
X74742857Y-65091904D02*
X74819047Y-65091904D01*
X74895238Y-65130000D01*
X74933333Y-65168095D01*
X74971428Y-65244285D01*
X75009523Y-65396666D01*
X75009523Y-65587142D01*
X74971428Y-65739523D01*
X74933333Y-65815714D01*
X74895238Y-65853809D01*
X74819047Y-65891904D01*
X74742857Y-65891904D01*
X74666666Y-65853809D01*
X74628571Y-65815714D01*
X74590476Y-65739523D01*
X74552380Y-65587142D01*
X74552380Y-65396666D01*
X74590476Y-65244285D01*
X74628571Y-65168095D01*
X74666666Y-65130000D01*
X74742857Y-65091904D01*
X80485714Y-56285714D02*
X80447619Y-56323809D01*
X80333333Y-56361904D01*
X80257142Y-56361904D01*
X80142857Y-56323809D01*
X80066666Y-56247619D01*
X80028571Y-56171428D01*
X79990476Y-56019047D01*
X79990476Y-55904761D01*
X80028571Y-55752380D01*
X80066666Y-55676190D01*
X80142857Y-55600000D01*
X80257142Y-55561904D01*
X80333333Y-55561904D01*
X80447619Y-55600000D01*
X80485714Y-55638095D01*
X81247619Y-56361904D02*
X80790476Y-56361904D01*
X81019047Y-56361904D02*
X81019047Y-55561904D01*
X80942857Y-55676190D01*
X80866666Y-55752380D01*
X80790476Y-55790476D01*
X81552380Y-55638095D02*
X81590476Y-55600000D01*
X81666666Y-55561904D01*
X81857142Y-55561904D01*
X81933333Y-55600000D01*
X81971428Y-55638095D01*
X82009523Y-55714285D01*
X82009523Y-55790476D01*
X81971428Y-55904761D01*
X81514285Y-56361904D01*
X82009523Y-56361904D01*
X72435714Y-55855714D02*
X72397619Y-55893809D01*
X72283333Y-55931904D01*
X72207142Y-55931904D01*
X72092857Y-55893809D01*
X72016666Y-55817619D01*
X71978571Y-55741428D01*
X71940476Y-55589047D01*
X71940476Y-55474761D01*
X71978571Y-55322380D01*
X72016666Y-55246190D01*
X72092857Y-55170000D01*
X72207142Y-55131904D01*
X72283333Y-55131904D01*
X72397619Y-55170000D01*
X72435714Y-55208095D01*
X73197619Y-55931904D02*
X72740476Y-55931904D01*
X72969047Y-55931904D02*
X72969047Y-55131904D01*
X72892857Y-55246190D01*
X72816666Y-55322380D01*
X72740476Y-55360476D01*
X73959523Y-55931904D02*
X73502380Y-55931904D01*
X73730952Y-55931904D02*
X73730952Y-55131904D01*
X73654761Y-55246190D01*
X73578571Y-55322380D01*
X73502380Y-55360476D01*
X71785714Y-64883333D02*
X71823809Y-64921428D01*
X71861904Y-65035714D01*
X71861904Y-65111904D01*
X71823809Y-65226190D01*
X71747619Y-65302380D01*
X71671428Y-65340476D01*
X71519047Y-65378571D01*
X71404761Y-65378571D01*
X71252380Y-65340476D01*
X71176190Y-65302380D01*
X71100000Y-65226190D01*
X71061904Y-65111904D01*
X71061904Y-65035714D01*
X71100000Y-64921428D01*
X71138095Y-64883333D01*
X71061904Y-64616666D02*
X71061904Y-64121428D01*
X71366666Y-64388095D01*
X71366666Y-64273809D01*
X71404761Y-64197619D01*
X71442857Y-64159523D01*
X71519047Y-64121428D01*
X71709523Y-64121428D01*
X71785714Y-64159523D01*
X71823809Y-64197619D01*
X71861904Y-64273809D01*
X71861904Y-64502380D01*
X71823809Y-64578571D01*
X71785714Y-64616666D01*
X61111904Y-56333333D02*
X60730952Y-56600000D01*
X61111904Y-56790476D02*
X60311904Y-56790476D01*
X60311904Y-56485714D01*
X60350000Y-56409523D01*
X60388095Y-56371428D01*
X60464285Y-56333333D01*
X60578571Y-56333333D01*
X60654761Y-56371428D01*
X60692857Y-56409523D01*
X60730952Y-56485714D01*
X60730952Y-56790476D01*
X61111904Y-55952380D02*
X61111904Y-55800000D01*
X61073809Y-55723809D01*
X61035714Y-55685714D01*
X60921428Y-55609523D01*
X60769047Y-55571428D01*
X60464285Y-55571428D01*
X60388095Y-55609523D01*
X60350000Y-55647619D01*
X60311904Y-55723809D01*
X60311904Y-55876190D01*
X60350000Y-55952380D01*
X60388095Y-55990476D01*
X60464285Y-56028571D01*
X60654761Y-56028571D01*
X60730952Y-55990476D01*
X60769047Y-55952380D01*
X60807142Y-55876190D01*
X60807142Y-55723809D01*
X60769047Y-55647619D01*
X60730952Y-55609523D01*
X60654761Y-55571428D01*
X57111904Y-56333333D02*
X56730952Y-56600000D01*
X57111904Y-56790476D02*
X56311904Y-56790476D01*
X56311904Y-56485714D01*
X56350000Y-56409523D01*
X56388095Y-56371428D01*
X56464285Y-56333333D01*
X56578571Y-56333333D01*
X56654761Y-56371428D01*
X56692857Y-56409523D01*
X56730952Y-56485714D01*
X56730952Y-56790476D01*
X56654761Y-55876190D02*
X56616666Y-55952380D01*
X56578571Y-55990476D01*
X56502380Y-56028571D01*
X56464285Y-56028571D01*
X56388095Y-55990476D01*
X56350000Y-55952380D01*
X56311904Y-55876190D01*
X56311904Y-55723809D01*
X56350000Y-55647619D01*
X56388095Y-55609523D01*
X56464285Y-55571428D01*
X56502380Y-55571428D01*
X56578571Y-55609523D01*
X56616666Y-55647619D01*
X56654761Y-55723809D01*
X56654761Y-55876190D01*
X56692857Y-55952380D01*
X56730952Y-55990476D01*
X56807142Y-56028571D01*
X56959523Y-56028571D01*
X57035714Y-55990476D01*
X57073809Y-55952380D01*
X57111904Y-55876190D01*
X57111904Y-55723809D01*
X57073809Y-55647619D01*
X57035714Y-55609523D01*
X56959523Y-55571428D01*
X56807142Y-55571428D01*
X56730952Y-55609523D01*
X56692857Y-55647619D01*
X56654761Y-55723809D01*
X53111904Y-83533333D02*
X52730952Y-83800000D01*
X53111904Y-83990476D02*
X52311904Y-83990476D01*
X52311904Y-83685714D01*
X52350000Y-83609523D01*
X52388095Y-83571428D01*
X52464285Y-83533333D01*
X52578571Y-83533333D01*
X52654761Y-83571428D01*
X52692857Y-83609523D01*
X52730952Y-83685714D01*
X52730952Y-83990476D01*
X52311904Y-83266666D02*
X52311904Y-82733333D01*
X53111904Y-83076190D01*
X50111904Y-83533333D02*
X49730952Y-83800000D01*
X50111904Y-83990476D02*
X49311904Y-83990476D01*
X49311904Y-83685714D01*
X49350000Y-83609523D01*
X49388095Y-83571428D01*
X49464285Y-83533333D01*
X49578571Y-83533333D01*
X49654761Y-83571428D01*
X49692857Y-83609523D01*
X49730952Y-83685714D01*
X49730952Y-83990476D01*
X49311904Y-82809523D02*
X49311904Y-83190476D01*
X49692857Y-83228571D01*
X49654761Y-83190476D01*
X49616666Y-83114285D01*
X49616666Y-82923809D01*
X49654761Y-82847619D01*
X49692857Y-82809523D01*
X49769047Y-82771428D01*
X49959523Y-82771428D01*
X50035714Y-82809523D01*
X50073809Y-82847619D01*
X50111904Y-82923809D01*
X50111904Y-83114285D01*
X50073809Y-83190476D01*
X50035714Y-83228571D01*
X63366666Y-82035714D02*
X63328571Y-82073809D01*
X63214285Y-82111904D01*
X63138095Y-82111904D01*
X63023809Y-82073809D01*
X62947619Y-81997619D01*
X62909523Y-81921428D01*
X62871428Y-81769047D01*
X62871428Y-81654761D01*
X62909523Y-81502380D01*
X62947619Y-81426190D01*
X63023809Y-81350000D01*
X63138095Y-81311904D01*
X63214285Y-81311904D01*
X63328571Y-81350000D01*
X63366666Y-81388095D01*
X64128571Y-82111904D02*
X63671428Y-82111904D01*
X63900000Y-82111904D02*
X63900000Y-81311904D01*
X63823809Y-81426190D01*
X63747619Y-81502380D01*
X63671428Y-81540476D01*
X99116666Y-75861904D02*
X98850000Y-75480952D01*
X98659523Y-75861904D02*
X98659523Y-75061904D01*
X98964285Y-75061904D01*
X99040476Y-75100000D01*
X99078571Y-75138095D01*
X99116666Y-75214285D01*
X99116666Y-75328571D01*
X99078571Y-75404761D01*
X99040476Y-75442857D01*
X98964285Y-75480952D01*
X98659523Y-75480952D01*
X99802380Y-75061904D02*
X99650000Y-75061904D01*
X99573809Y-75100000D01*
X99535714Y-75138095D01*
X99459523Y-75252380D01*
X99421428Y-75404761D01*
X99421428Y-75709523D01*
X99459523Y-75785714D01*
X99497619Y-75823809D01*
X99573809Y-75861904D01*
X99726190Y-75861904D01*
X99802380Y-75823809D01*
X99840476Y-75785714D01*
X99878571Y-75709523D01*
X99878571Y-75519047D01*
X99840476Y-75442857D01*
X99802380Y-75404761D01*
X99726190Y-75366666D01*
X99573809Y-75366666D01*
X99497619Y-75404761D01*
X99459523Y-75442857D01*
X99421428Y-75519047D01*
X94616666Y-64861904D02*
X94350000Y-64480952D01*
X94159523Y-64861904D02*
X94159523Y-64061904D01*
X94464285Y-64061904D01*
X94540476Y-64100000D01*
X94578571Y-64138095D01*
X94616666Y-64214285D01*
X94616666Y-64328571D01*
X94578571Y-64404761D01*
X94540476Y-64442857D01*
X94464285Y-64480952D01*
X94159523Y-64480952D01*
X95378571Y-64861904D02*
X94921428Y-64861904D01*
X95150000Y-64861904D02*
X95150000Y-64061904D01*
X95073809Y-64176190D01*
X94997619Y-64252380D01*
X94921428Y-64290476D01*
X94159523Y-77611904D02*
X94159523Y-76811904D01*
X94350000Y-76811904D01*
X94464285Y-76850000D01*
X94540476Y-76926190D01*
X94578571Y-77002380D01*
X94616666Y-77154761D01*
X94616666Y-77269047D01*
X94578571Y-77421428D01*
X94540476Y-77497619D01*
X94464285Y-77573809D01*
X94350000Y-77611904D01*
X94159523Y-77611904D01*
X95302380Y-77078571D02*
X95302380Y-77611904D01*
X95111904Y-76773809D02*
X94921428Y-77345238D01*
X95416666Y-77345238D01*
X94159523Y-63111904D02*
X94159523Y-62311904D01*
X94350000Y-62311904D01*
X94464285Y-62350000D01*
X94540476Y-62426190D01*
X94578571Y-62502380D01*
X94616666Y-62654761D01*
X94616666Y-62769047D01*
X94578571Y-62921428D01*
X94540476Y-62997619D01*
X94464285Y-63073809D01*
X94350000Y-63111904D01*
X94159523Y-63111904D01*
X94883333Y-62311904D02*
X95378571Y-62311904D01*
X95111904Y-62616666D01*
X95226190Y-62616666D01*
X95302380Y-62654761D01*
X95340476Y-62692857D01*
X95378571Y-62769047D01*
X95378571Y-62959523D01*
X95340476Y-63035714D01*
X95302380Y-63073809D01*
X95226190Y-63111904D01*
X94997619Y-63111904D01*
X94921428Y-63073809D01*
X94883333Y-63035714D01*
X71923809Y-62938095D02*
X71847619Y-62900000D01*
X71771428Y-62823809D01*
X71657142Y-62709523D01*
X71580952Y-62671428D01*
X71504761Y-62671428D01*
X71542857Y-62861904D02*
X71466666Y-62823809D01*
X71390476Y-62747619D01*
X71352380Y-62595238D01*
X71352380Y-62328571D01*
X71390476Y-62176190D01*
X71466666Y-62100000D01*
X71542857Y-62061904D01*
X71695238Y-62061904D01*
X71771428Y-62100000D01*
X71847619Y-62176190D01*
X71885714Y-62328571D01*
X71885714Y-62595238D01*
X71847619Y-62747619D01*
X71771428Y-62823809D01*
X71695238Y-62861904D01*
X71542857Y-62861904D01*
X72190476Y-62138095D02*
X72228571Y-62100000D01*
X72304761Y-62061904D01*
X72495238Y-62061904D01*
X72571428Y-62100000D01*
X72609523Y-62138095D01*
X72647619Y-62214285D01*
X72647619Y-62290476D01*
X72609523Y-62404761D01*
X72152380Y-62861904D01*
X72647619Y-62861904D01*
X84173809Y-68938095D02*
X84097619Y-68900000D01*
X84021428Y-68823809D01*
X83907142Y-68709523D01*
X83830952Y-68671428D01*
X83754761Y-68671428D01*
X83792857Y-68861904D02*
X83716666Y-68823809D01*
X83640476Y-68747619D01*
X83602380Y-68595238D01*
X83602380Y-68328571D01*
X83640476Y-68176190D01*
X83716666Y-68100000D01*
X83792857Y-68061904D01*
X83945238Y-68061904D01*
X84021428Y-68100000D01*
X84097619Y-68176190D01*
X84135714Y-68328571D01*
X84135714Y-68595238D01*
X84097619Y-68747619D01*
X84021428Y-68823809D01*
X83945238Y-68861904D01*
X83792857Y-68861904D01*
X84897619Y-68861904D02*
X84440476Y-68861904D01*
X84669047Y-68861904D02*
X84669047Y-68061904D01*
X84592857Y-68176190D01*
X84516666Y-68252380D01*
X84440476Y-68290476D01*
X86890476Y-76311904D02*
X86890476Y-76959523D01*
X86928571Y-77035714D01*
X86966666Y-77073809D01*
X87042857Y-77111904D01*
X87195238Y-77111904D01*
X87271428Y-77073809D01*
X87309523Y-77035714D01*
X87347619Y-76959523D01*
X87347619Y-76311904D01*
X88147619Y-77111904D02*
X87690476Y-77111904D01*
X87919047Y-77111904D02*
X87919047Y-76311904D01*
X87842857Y-76426190D01*
X87766666Y-76502380D01*
X87690476Y-76540476D01*
X79313333Y-67311904D02*
X79313333Y-67883333D01*
X79275238Y-67997619D01*
X79199047Y-68073809D01*
X79084761Y-68111904D01*
X79008571Y-68111904D01*
X79656190Y-67388095D02*
X79694285Y-67350000D01*
X79770476Y-67311904D01*
X79960952Y-67311904D01*
X80037142Y-67350000D01*
X80075238Y-67388095D01*
X80113333Y-67464285D01*
X80113333Y-67540476D01*
X80075238Y-67654761D01*
X79618095Y-68111904D01*
X80113333Y-68111904D01*
X59035714Y-56333333D02*
X59073809Y-56371428D01*
X59111904Y-56485714D01*
X59111904Y-56561904D01*
X59073809Y-56676190D01*
X58997619Y-56752380D01*
X58921428Y-56790476D01*
X58769047Y-56828571D01*
X58654761Y-56828571D01*
X58502380Y-56790476D01*
X58426190Y-56752380D01*
X58350000Y-56676190D01*
X58311904Y-56561904D01*
X58311904Y-56485714D01*
X58350000Y-56371428D01*
X58388095Y-56333333D01*
X58578571Y-55647619D02*
X59111904Y-55647619D01*
X58273809Y-55838095D02*
X58845238Y-56028571D01*
X58845238Y-55533333D01*
X93390476Y-65811904D02*
X93390476Y-66459523D01*
X93428571Y-66535714D01*
X93466666Y-66573809D01*
X93542857Y-66611904D01*
X93695238Y-66611904D01*
X93771428Y-66573809D01*
X93809523Y-66535714D01*
X93847619Y-66459523D01*
X93847619Y-65811904D01*
X94152380Y-65811904D02*
X94647619Y-65811904D01*
X94380952Y-66116666D01*
X94495238Y-66116666D01*
X94571428Y-66154761D01*
X94609523Y-66192857D01*
X94647619Y-66269047D01*
X94647619Y-66459523D01*
X94609523Y-66535714D01*
X94571428Y-66573809D01*
X94495238Y-66611904D01*
X94266666Y-66611904D01*
X94190476Y-66573809D01*
X94152380Y-66535714D01*
X78890476Y-59561904D02*
X78890476Y-60209523D01*
X78928571Y-60285714D01*
X78966666Y-60323809D01*
X79042857Y-60361904D01*
X79195238Y-60361904D01*
X79271428Y-60323809D01*
X79309523Y-60285714D01*
X79347619Y-60209523D01*
X79347619Y-59561904D01*
X79690476Y-59638095D02*
X79728571Y-59600000D01*
X79804761Y-59561904D01*
X79995238Y-59561904D01*
X80071428Y-59600000D01*
X80109523Y-59638095D01*
X80147619Y-59714285D01*
X80147619Y-59790476D01*
X80109523Y-59904761D01*
X79652380Y-60361904D01*
X80147619Y-60361904D01*
X84116666Y-70861904D02*
X83850000Y-70480952D01*
X83659523Y-70861904D02*
X83659523Y-70061904D01*
X83964285Y-70061904D01*
X84040476Y-70100000D01*
X84078571Y-70138095D01*
X84116666Y-70214285D01*
X84116666Y-70328571D01*
X84078571Y-70404761D01*
X84040476Y-70442857D01*
X83964285Y-70480952D01*
X83659523Y-70480952D01*
X84802380Y-70328571D02*
X84802380Y-70861904D01*
X84611904Y-70023809D02*
X84421428Y-70595238D01*
X84916666Y-70595238D01*
X84116666Y-65861904D02*
X83850000Y-65480952D01*
X83659523Y-65861904D02*
X83659523Y-65061904D01*
X83964285Y-65061904D01*
X84040476Y-65100000D01*
X84078571Y-65138095D01*
X84116666Y-65214285D01*
X84116666Y-65328571D01*
X84078571Y-65404761D01*
X84040476Y-65442857D01*
X83964285Y-65480952D01*
X83659523Y-65480952D01*
X84383333Y-65061904D02*
X84878571Y-65061904D01*
X84611904Y-65366666D01*
X84726190Y-65366666D01*
X84802380Y-65404761D01*
X84840476Y-65442857D01*
X84878571Y-65519047D01*
X84878571Y-65709523D01*
X84840476Y-65785714D01*
X84802380Y-65823809D01*
X84726190Y-65861904D01*
X84497619Y-65861904D01*
X84421428Y-65823809D01*
X84383333Y-65785714D01*
X91366666Y-76861904D02*
X91100000Y-76480952D01*
X90909523Y-76861904D02*
X90909523Y-76061904D01*
X91214285Y-76061904D01*
X91290476Y-76100000D01*
X91328571Y-76138095D01*
X91366666Y-76214285D01*
X91366666Y-76328571D01*
X91328571Y-76404761D01*
X91290476Y-76442857D01*
X91214285Y-76480952D01*
X90909523Y-76480952D01*
X91671428Y-76138095D02*
X91709523Y-76100000D01*
X91785714Y-76061904D01*
X91976190Y-76061904D01*
X92052380Y-76100000D01*
X92090476Y-76138095D01*
X92128571Y-76214285D01*
X92128571Y-76290476D01*
X92090476Y-76404761D01*
X91633333Y-76861904D01*
X92128571Y-76861904D01*
X70659523Y-81361904D02*
X70659523Y-80561904D01*
X70850000Y-80561904D01*
X70964285Y-80600000D01*
X71040476Y-80676190D01*
X71078571Y-80752380D01*
X71116666Y-80904761D01*
X71116666Y-81019047D01*
X71078571Y-81171428D01*
X71040476Y-81247619D01*
X70964285Y-81323809D01*
X70850000Y-81361904D01*
X70659523Y-81361904D01*
X71878571Y-81361904D02*
X71421428Y-81361904D01*
X71650000Y-81361904D02*
X71650000Y-80561904D01*
X71573809Y-80676190D01*
X71497619Y-80752380D01*
X71421428Y-80790476D01*
X79985714Y-65785714D02*
X79947619Y-65823809D01*
X79833333Y-65861904D01*
X79757142Y-65861904D01*
X79642857Y-65823809D01*
X79566666Y-65747619D01*
X79528571Y-65671428D01*
X79490476Y-65519047D01*
X79490476Y-65404761D01*
X79528571Y-65252380D01*
X79566666Y-65176190D01*
X79642857Y-65100000D01*
X79757142Y-65061904D01*
X79833333Y-65061904D01*
X79947619Y-65100000D01*
X79985714Y-65138095D01*
X80747619Y-65861904D02*
X80290476Y-65861904D01*
X80519047Y-65861904D02*
X80519047Y-65061904D01*
X80442857Y-65176190D01*
X80366666Y-65252380D01*
X80290476Y-65290476D01*
X81242857Y-65061904D02*
X81319047Y-65061904D01*
X81395238Y-65100000D01*
X81433333Y-65138095D01*
X81471428Y-65214285D01*
X81509523Y-65366666D01*
X81509523Y-65557142D01*
X81471428Y-65709523D01*
X81433333Y-65785714D01*
X81395238Y-65823809D01*
X81319047Y-65861904D01*
X81242857Y-65861904D01*
X81166666Y-65823809D01*
X81128571Y-65785714D01*
X81090476Y-65709523D01*
X81052380Y-65557142D01*
X81052380Y-65366666D01*
X81090476Y-65214285D01*
X81128571Y-65138095D01*
X81166666Y-65100000D01*
X81242857Y-65061904D01*
X93116666Y-76785714D02*
X93078571Y-76823809D01*
X92964285Y-76861904D01*
X92888095Y-76861904D01*
X92773809Y-76823809D01*
X92697619Y-76747619D01*
X92659523Y-76671428D01*
X92621428Y-76519047D01*
X92621428Y-76404761D01*
X92659523Y-76252380D01*
X92697619Y-76176190D01*
X92773809Y-76100000D01*
X92888095Y-76061904D01*
X92964285Y-76061904D01*
X93078571Y-76100000D01*
X93116666Y-76138095D01*
X93497619Y-76861904D02*
X93650000Y-76861904D01*
X93726190Y-76823809D01*
X93764285Y-76785714D01*
X93840476Y-76671428D01*
X93878571Y-76519047D01*
X93878571Y-76214285D01*
X93840476Y-76138095D01*
X93802380Y-76100000D01*
X93726190Y-76061904D01*
X93573809Y-76061904D01*
X93497619Y-76100000D01*
X93459523Y-76138095D01*
X93421428Y-76214285D01*
X93421428Y-76404761D01*
X93459523Y-76480952D01*
X93497619Y-76519047D01*
X93573809Y-76557142D01*
X93726190Y-76557142D01*
X93802380Y-76519047D01*
X93840476Y-76480952D01*
X93878571Y-76404761D01*
X59035714Y-83533333D02*
X59073809Y-83571428D01*
X59111904Y-83685714D01*
X59111904Y-83761904D01*
X59073809Y-83876190D01*
X58997619Y-83952380D01*
X58921428Y-83990476D01*
X58769047Y-84028571D01*
X58654761Y-84028571D01*
X58502380Y-83990476D01*
X58426190Y-83952380D01*
X58350000Y-83876190D01*
X58311904Y-83761904D01*
X58311904Y-83685714D01*
X58350000Y-83571428D01*
X58388095Y-83533333D01*
X58311904Y-82847619D02*
X58311904Y-83000000D01*
X58350000Y-83076190D01*
X58388095Y-83114285D01*
X58502380Y-83190476D01*
X58654761Y-83228571D01*
X58959523Y-83228571D01*
X59035714Y-83190476D01*
X59073809Y-83152380D01*
X59111904Y-83076190D01*
X59111904Y-82923809D01*
X59073809Y-82847619D01*
X59035714Y-82809523D01*
X58959523Y-82771428D01*
X58769047Y-82771428D01*
X58692857Y-82809523D01*
X58654761Y-82847619D01*
X58616666Y-82923809D01*
X58616666Y-83076190D01*
X58654761Y-83152380D01*
X58692857Y-83190476D01*
X58769047Y-83228571D01*
X46685714Y-81933333D02*
X46723809Y-81971428D01*
X46761904Y-82085714D01*
X46761904Y-82161904D01*
X46723809Y-82276190D01*
X46647619Y-82352380D01*
X46571428Y-82390476D01*
X46419047Y-82428571D01*
X46304761Y-82428571D01*
X46152380Y-82390476D01*
X46076190Y-82352380D01*
X46000000Y-82276190D01*
X45961904Y-82161904D01*
X45961904Y-82085714D01*
X46000000Y-81971428D01*
X46038095Y-81933333D01*
X45961904Y-81209523D02*
X45961904Y-81590476D01*
X46342857Y-81628571D01*
X46304761Y-81590476D01*
X46266666Y-81514285D01*
X46266666Y-81323809D01*
X46304761Y-81247619D01*
X46342857Y-81209523D01*
X46419047Y-81171428D01*
X46609523Y-81171428D01*
X46685714Y-81209523D01*
X46723809Y-81247619D01*
X46761904Y-81323809D01*
X46761904Y-81514285D01*
X46723809Y-81590476D01*
X46685714Y-81628571D01*
X85116666Y-77035714D02*
X85078571Y-77073809D01*
X84964285Y-77111904D01*
X84888095Y-77111904D01*
X84773809Y-77073809D01*
X84697619Y-76997619D01*
X84659523Y-76921428D01*
X84621428Y-76769047D01*
X84621428Y-76654761D01*
X84659523Y-76502380D01*
X84697619Y-76426190D01*
X84773809Y-76350000D01*
X84888095Y-76311904D01*
X84964285Y-76311904D01*
X85078571Y-76350000D01*
X85116666Y-76388095D01*
X85421428Y-76388095D02*
X85459523Y-76350000D01*
X85535714Y-76311904D01*
X85726190Y-76311904D01*
X85802380Y-76350000D01*
X85840476Y-76388095D01*
X85878571Y-76464285D01*
X85878571Y-76540476D01*
X85840476Y-76654761D01*
X85383333Y-77111904D01*
X85878571Y-77111904D01*
X93930833Y-70811904D02*
X93930833Y-71383333D01*
X93892738Y-71497619D01*
X93816547Y-71573809D01*
X93702261Y-71611904D01*
X93626071Y-71611904D01*
X94730833Y-71611904D02*
X94273690Y-71611904D01*
X94502261Y-71611904D02*
X94502261Y-70811904D01*
X94426071Y-70926190D01*
X94349880Y-71002380D01*
X94273690Y-71040476D01*
X64811904Y-78109523D02*
X65459523Y-78109523D01*
X65535714Y-78071428D01*
X65573809Y-78033333D01*
X65611904Y-77957142D01*
X65611904Y-77804761D01*
X65573809Y-77728571D01*
X65535714Y-77690476D01*
X65459523Y-77652380D01*
X64811904Y-77652380D01*
X64811904Y-76890476D02*
X64811904Y-77271428D01*
X65192857Y-77309523D01*
X65154761Y-77271428D01*
X65116666Y-77195238D01*
X65116666Y-77004761D01*
X65154761Y-76928571D01*
X65192857Y-76890476D01*
X65269047Y-76852380D01*
X65459523Y-76852380D01*
X65535714Y-76890476D01*
X65573809Y-76928571D01*
X65611904Y-77004761D01*
X65611904Y-77195238D01*
X65573809Y-77271428D01*
X65535714Y-77309523D01*
X91316666Y-64035714D02*
X91278571Y-64073809D01*
X91164285Y-64111904D01*
X91088095Y-64111904D01*
X90973809Y-64073809D01*
X90897619Y-63997619D01*
X90859523Y-63921428D01*
X90821428Y-63769047D01*
X90821428Y-63654761D01*
X90859523Y-63502380D01*
X90897619Y-63426190D01*
X90973809Y-63350000D01*
X91088095Y-63311904D01*
X91164285Y-63311904D01*
X91278571Y-63350000D01*
X91316666Y-63388095D01*
X91583333Y-63311904D02*
X92116666Y-63311904D01*
X91773809Y-64111904D01*
D11*
X66702380Y-59461904D02*
X67511904Y-59461904D01*
X67607142Y-59414285D01*
X67654761Y-59366666D01*
X67702380Y-59271428D01*
X67702380Y-59080952D01*
X67654761Y-58985714D01*
X67607142Y-58938095D01*
X67511904Y-58890476D01*
X66702380Y-58890476D01*
X66702380Y-58509523D02*
X66702380Y-57842857D01*
X67702380Y-58271428D01*
M02*
