G04 #@! TF.GenerationSoftware,KiCad,Pcbnew,(5.1.5-0-10_14)*
G04 #@! TF.CreationDate,2020-08-06T19:48:59-06:00*
G04 #@! TF.ProjectId,pcb,7063622e-6b69-4636-9164-5f7063625858,rev?*
G04 #@! TF.SameCoordinates,Original*
G04 #@! TF.FileFunction,Paste,Top*
G04 #@! TF.FilePolarity,Positive*
%FSLAX46Y46*%
G04 Gerber Fmt 4.6, Leading zero omitted, Abs format (unit mm)*
G04 Created by KiCad (PCBNEW (5.1.5-0-10_14)) date 2020-08-06 19:48:59*
%MOMM*%
%LPD*%
G04 APERTURE LIST*
%ADD10C,0.010000*%
%ADD11C,0.100000*%
%ADD12R,0.350000X0.500000*%
%ADD13R,0.420000X0.600000*%
%ADD14R,0.600000X0.420000*%
%ADD15R,1.060000X0.650000*%
%ADD16R,1.000000X1.500000*%
%ADD17R,1.900000X1.500000*%
%ADD18R,1.350000X0.400000*%
%ADD19R,1.000000X2.500000*%
%ADD20R,1.800000X1.000000*%
G04 APERTURE END LIST*
D10*
G36*
X77450000Y-57675000D02*
G01*
X78050000Y-57675000D01*
X78050000Y-58525000D01*
X77450000Y-58525000D01*
X77450000Y-57675000D01*
G37*
X77450000Y-57675000D02*
X78050000Y-57675000D01*
X78050000Y-58525000D01*
X77450000Y-58525000D01*
X77450000Y-57675000D01*
G36*
X78725000Y-58700000D02*
G01*
X79275000Y-58700000D01*
X79275000Y-59100000D01*
X78725000Y-59100000D01*
X78725000Y-58700000D01*
G37*
X78725000Y-58700000D02*
X79275000Y-58700000D01*
X79275000Y-59100000D01*
X78725000Y-59100000D01*
X78725000Y-58700000D01*
G36*
X78725000Y-57900000D02*
G01*
X79275000Y-57900000D01*
X79275000Y-58300000D01*
X78725000Y-58300000D01*
X78725000Y-57900000D01*
G37*
X78725000Y-57900000D02*
X79275000Y-57900000D01*
X79275000Y-58300000D01*
X78725000Y-58300000D01*
X78725000Y-57900000D01*
G36*
X78725000Y-57100000D02*
G01*
X79275000Y-57100000D01*
X79275000Y-57500000D01*
X78725000Y-57500000D01*
X78725000Y-57100000D01*
G37*
X78725000Y-57100000D02*
X79275000Y-57100000D01*
X79275000Y-57500000D01*
X78725000Y-57500000D01*
X78725000Y-57100000D01*
G36*
X76225000Y-58700000D02*
G01*
X76775000Y-58700000D01*
X76775000Y-59100000D01*
X76225000Y-59100000D01*
X76225000Y-58700000D01*
G37*
X76225000Y-58700000D02*
X76775000Y-58700000D01*
X76775000Y-59100000D01*
X76225000Y-59100000D01*
X76225000Y-58700000D01*
G36*
X76225000Y-57900000D02*
G01*
X76775000Y-57900000D01*
X76775000Y-58300000D01*
X76225000Y-58300000D01*
X76225000Y-57900000D01*
G37*
X76225000Y-57900000D02*
X76775000Y-57900000D01*
X76775000Y-58300000D01*
X76225000Y-58300000D01*
X76225000Y-57900000D01*
G36*
X76225000Y-57100000D02*
G01*
X76775000Y-57100000D01*
X76775000Y-57500000D01*
X76225000Y-57500000D01*
X76225000Y-57100000D01*
G37*
X76225000Y-57100000D02*
X76775000Y-57100000D01*
X76775000Y-57500000D01*
X76225000Y-57500000D01*
X76225000Y-57100000D01*
D11*
G36*
X67277691Y-62776053D02*
G01*
X67298926Y-62779203D01*
X67319750Y-62784419D01*
X67339962Y-62791651D01*
X67359368Y-62800830D01*
X67377781Y-62811866D01*
X67395024Y-62824654D01*
X67410930Y-62839070D01*
X67425346Y-62854976D01*
X67438134Y-62872219D01*
X67449170Y-62890632D01*
X67458349Y-62910038D01*
X67465581Y-62930250D01*
X67470797Y-62951074D01*
X67473947Y-62972309D01*
X67475000Y-62993750D01*
X67475000Y-63431250D01*
X67473947Y-63452691D01*
X67470797Y-63473926D01*
X67465581Y-63494750D01*
X67458349Y-63514962D01*
X67449170Y-63534368D01*
X67438134Y-63552781D01*
X67425346Y-63570024D01*
X67410930Y-63585930D01*
X67395024Y-63600346D01*
X67377781Y-63613134D01*
X67359368Y-63624170D01*
X67339962Y-63633349D01*
X67319750Y-63640581D01*
X67298926Y-63645797D01*
X67277691Y-63648947D01*
X67256250Y-63650000D01*
X66743750Y-63650000D01*
X66722309Y-63648947D01*
X66701074Y-63645797D01*
X66680250Y-63640581D01*
X66660038Y-63633349D01*
X66640632Y-63624170D01*
X66622219Y-63613134D01*
X66604976Y-63600346D01*
X66589070Y-63585930D01*
X66574654Y-63570024D01*
X66561866Y-63552781D01*
X66550830Y-63534368D01*
X66541651Y-63514962D01*
X66534419Y-63494750D01*
X66529203Y-63473926D01*
X66526053Y-63452691D01*
X66525000Y-63431250D01*
X66525000Y-62993750D01*
X66526053Y-62972309D01*
X66529203Y-62951074D01*
X66534419Y-62930250D01*
X66541651Y-62910038D01*
X66550830Y-62890632D01*
X66561866Y-62872219D01*
X66574654Y-62854976D01*
X66589070Y-62839070D01*
X66604976Y-62824654D01*
X66622219Y-62811866D01*
X66640632Y-62800830D01*
X66660038Y-62791651D01*
X66680250Y-62784419D01*
X66701074Y-62779203D01*
X66722309Y-62776053D01*
X66743750Y-62775000D01*
X67256250Y-62775000D01*
X67277691Y-62776053D01*
G37*
G36*
X67277691Y-64351053D02*
G01*
X67298926Y-64354203D01*
X67319750Y-64359419D01*
X67339962Y-64366651D01*
X67359368Y-64375830D01*
X67377781Y-64386866D01*
X67395024Y-64399654D01*
X67410930Y-64414070D01*
X67425346Y-64429976D01*
X67438134Y-64447219D01*
X67449170Y-64465632D01*
X67458349Y-64485038D01*
X67465581Y-64505250D01*
X67470797Y-64526074D01*
X67473947Y-64547309D01*
X67475000Y-64568750D01*
X67475000Y-65006250D01*
X67473947Y-65027691D01*
X67470797Y-65048926D01*
X67465581Y-65069750D01*
X67458349Y-65089962D01*
X67449170Y-65109368D01*
X67438134Y-65127781D01*
X67425346Y-65145024D01*
X67410930Y-65160930D01*
X67395024Y-65175346D01*
X67377781Y-65188134D01*
X67359368Y-65199170D01*
X67339962Y-65208349D01*
X67319750Y-65215581D01*
X67298926Y-65220797D01*
X67277691Y-65223947D01*
X67256250Y-65225000D01*
X66743750Y-65225000D01*
X66722309Y-65223947D01*
X66701074Y-65220797D01*
X66680250Y-65215581D01*
X66660038Y-65208349D01*
X66640632Y-65199170D01*
X66622219Y-65188134D01*
X66604976Y-65175346D01*
X66589070Y-65160930D01*
X66574654Y-65145024D01*
X66561866Y-65127781D01*
X66550830Y-65109368D01*
X66541651Y-65089962D01*
X66534419Y-65069750D01*
X66529203Y-65048926D01*
X66526053Y-65027691D01*
X66525000Y-65006250D01*
X66525000Y-64568750D01*
X66526053Y-64547309D01*
X66529203Y-64526074D01*
X66534419Y-64505250D01*
X66541651Y-64485038D01*
X66550830Y-64465632D01*
X66561866Y-64447219D01*
X66574654Y-64429976D01*
X66589070Y-64414070D01*
X66604976Y-64399654D01*
X66622219Y-64386866D01*
X66640632Y-64375830D01*
X66660038Y-64366651D01*
X66680250Y-64359419D01*
X66701074Y-64354203D01*
X66722309Y-64351053D01*
X66743750Y-64350000D01*
X67256250Y-64350000D01*
X67277691Y-64351053D01*
G37*
D12*
X70475000Y-63075000D03*
X69825000Y-63075000D03*
X69175000Y-63075000D03*
X68525000Y-63075000D03*
X68525000Y-61025000D03*
X69175000Y-61025000D03*
X69825000Y-61025000D03*
X70475000Y-61025000D03*
D11*
G36*
X61027691Y-79776053D02*
G01*
X61048926Y-79779203D01*
X61069750Y-79784419D01*
X61089962Y-79791651D01*
X61109368Y-79800830D01*
X61127781Y-79811866D01*
X61145024Y-79824654D01*
X61160930Y-79839070D01*
X61175346Y-79854976D01*
X61188134Y-79872219D01*
X61199170Y-79890632D01*
X61208349Y-79910038D01*
X61215581Y-79930250D01*
X61220797Y-79951074D01*
X61223947Y-79972309D01*
X61225000Y-79993750D01*
X61225000Y-80431250D01*
X61223947Y-80452691D01*
X61220797Y-80473926D01*
X61215581Y-80494750D01*
X61208349Y-80514962D01*
X61199170Y-80534368D01*
X61188134Y-80552781D01*
X61175346Y-80570024D01*
X61160930Y-80585930D01*
X61145024Y-80600346D01*
X61127781Y-80613134D01*
X61109368Y-80624170D01*
X61089962Y-80633349D01*
X61069750Y-80640581D01*
X61048926Y-80645797D01*
X61027691Y-80648947D01*
X61006250Y-80650000D01*
X60493750Y-80650000D01*
X60472309Y-80648947D01*
X60451074Y-80645797D01*
X60430250Y-80640581D01*
X60410038Y-80633349D01*
X60390632Y-80624170D01*
X60372219Y-80613134D01*
X60354976Y-80600346D01*
X60339070Y-80585930D01*
X60324654Y-80570024D01*
X60311866Y-80552781D01*
X60300830Y-80534368D01*
X60291651Y-80514962D01*
X60284419Y-80494750D01*
X60279203Y-80473926D01*
X60276053Y-80452691D01*
X60275000Y-80431250D01*
X60275000Y-79993750D01*
X60276053Y-79972309D01*
X60279203Y-79951074D01*
X60284419Y-79930250D01*
X60291651Y-79910038D01*
X60300830Y-79890632D01*
X60311866Y-79872219D01*
X60324654Y-79854976D01*
X60339070Y-79839070D01*
X60354976Y-79824654D01*
X60372219Y-79811866D01*
X60390632Y-79800830D01*
X60410038Y-79791651D01*
X60430250Y-79784419D01*
X60451074Y-79779203D01*
X60472309Y-79776053D01*
X60493750Y-79775000D01*
X61006250Y-79775000D01*
X61027691Y-79776053D01*
G37*
G36*
X61027691Y-81351053D02*
G01*
X61048926Y-81354203D01*
X61069750Y-81359419D01*
X61089962Y-81366651D01*
X61109368Y-81375830D01*
X61127781Y-81386866D01*
X61145024Y-81399654D01*
X61160930Y-81414070D01*
X61175346Y-81429976D01*
X61188134Y-81447219D01*
X61199170Y-81465632D01*
X61208349Y-81485038D01*
X61215581Y-81505250D01*
X61220797Y-81526074D01*
X61223947Y-81547309D01*
X61225000Y-81568750D01*
X61225000Y-82006250D01*
X61223947Y-82027691D01*
X61220797Y-82048926D01*
X61215581Y-82069750D01*
X61208349Y-82089962D01*
X61199170Y-82109368D01*
X61188134Y-82127781D01*
X61175346Y-82145024D01*
X61160930Y-82160930D01*
X61145024Y-82175346D01*
X61127781Y-82188134D01*
X61109368Y-82199170D01*
X61089962Y-82208349D01*
X61069750Y-82215581D01*
X61048926Y-82220797D01*
X61027691Y-82223947D01*
X61006250Y-82225000D01*
X60493750Y-82225000D01*
X60472309Y-82223947D01*
X60451074Y-82220797D01*
X60430250Y-82215581D01*
X60410038Y-82208349D01*
X60390632Y-82199170D01*
X60372219Y-82188134D01*
X60354976Y-82175346D01*
X60339070Y-82160930D01*
X60324654Y-82145024D01*
X60311866Y-82127781D01*
X60300830Y-82109368D01*
X60291651Y-82089962D01*
X60284419Y-82069750D01*
X60279203Y-82048926D01*
X60276053Y-82027691D01*
X60275000Y-82006250D01*
X60275000Y-81568750D01*
X60276053Y-81547309D01*
X60279203Y-81526074D01*
X60284419Y-81505250D01*
X60291651Y-81485038D01*
X60300830Y-81465632D01*
X60311866Y-81447219D01*
X60324654Y-81429976D01*
X60339070Y-81414070D01*
X60354976Y-81399654D01*
X60372219Y-81386866D01*
X60390632Y-81375830D01*
X60410038Y-81366651D01*
X60430250Y-81359419D01*
X60451074Y-81354203D01*
X60472309Y-81351053D01*
X60493750Y-81350000D01*
X61006250Y-81350000D01*
X61027691Y-81351053D01*
G37*
G36*
X81277691Y-62201053D02*
G01*
X81298926Y-62204203D01*
X81319750Y-62209419D01*
X81339962Y-62216651D01*
X81359368Y-62225830D01*
X81377781Y-62236866D01*
X81395024Y-62249654D01*
X81410930Y-62264070D01*
X81425346Y-62279976D01*
X81438134Y-62297219D01*
X81449170Y-62315632D01*
X81458349Y-62335038D01*
X81465581Y-62355250D01*
X81470797Y-62376074D01*
X81473947Y-62397309D01*
X81475000Y-62418750D01*
X81475000Y-62856250D01*
X81473947Y-62877691D01*
X81470797Y-62898926D01*
X81465581Y-62919750D01*
X81458349Y-62939962D01*
X81449170Y-62959368D01*
X81438134Y-62977781D01*
X81425346Y-62995024D01*
X81410930Y-63010930D01*
X81395024Y-63025346D01*
X81377781Y-63038134D01*
X81359368Y-63049170D01*
X81339962Y-63058349D01*
X81319750Y-63065581D01*
X81298926Y-63070797D01*
X81277691Y-63073947D01*
X81256250Y-63075000D01*
X80743750Y-63075000D01*
X80722309Y-63073947D01*
X80701074Y-63070797D01*
X80680250Y-63065581D01*
X80660038Y-63058349D01*
X80640632Y-63049170D01*
X80622219Y-63038134D01*
X80604976Y-63025346D01*
X80589070Y-63010930D01*
X80574654Y-62995024D01*
X80561866Y-62977781D01*
X80550830Y-62959368D01*
X80541651Y-62939962D01*
X80534419Y-62919750D01*
X80529203Y-62898926D01*
X80526053Y-62877691D01*
X80525000Y-62856250D01*
X80525000Y-62418750D01*
X80526053Y-62397309D01*
X80529203Y-62376074D01*
X80534419Y-62355250D01*
X80541651Y-62335038D01*
X80550830Y-62315632D01*
X80561866Y-62297219D01*
X80574654Y-62279976D01*
X80589070Y-62264070D01*
X80604976Y-62249654D01*
X80622219Y-62236866D01*
X80640632Y-62225830D01*
X80660038Y-62216651D01*
X80680250Y-62209419D01*
X80701074Y-62204203D01*
X80722309Y-62201053D01*
X80743750Y-62200000D01*
X81256250Y-62200000D01*
X81277691Y-62201053D01*
G37*
G36*
X81277691Y-60626053D02*
G01*
X81298926Y-60629203D01*
X81319750Y-60634419D01*
X81339962Y-60641651D01*
X81359368Y-60650830D01*
X81377781Y-60661866D01*
X81395024Y-60674654D01*
X81410930Y-60689070D01*
X81425346Y-60704976D01*
X81438134Y-60722219D01*
X81449170Y-60740632D01*
X81458349Y-60760038D01*
X81465581Y-60780250D01*
X81470797Y-60801074D01*
X81473947Y-60822309D01*
X81475000Y-60843750D01*
X81475000Y-61281250D01*
X81473947Y-61302691D01*
X81470797Y-61323926D01*
X81465581Y-61344750D01*
X81458349Y-61364962D01*
X81449170Y-61384368D01*
X81438134Y-61402781D01*
X81425346Y-61420024D01*
X81410930Y-61435930D01*
X81395024Y-61450346D01*
X81377781Y-61463134D01*
X81359368Y-61474170D01*
X81339962Y-61483349D01*
X81319750Y-61490581D01*
X81298926Y-61495797D01*
X81277691Y-61498947D01*
X81256250Y-61500000D01*
X80743750Y-61500000D01*
X80722309Y-61498947D01*
X80701074Y-61495797D01*
X80680250Y-61490581D01*
X80660038Y-61483349D01*
X80640632Y-61474170D01*
X80622219Y-61463134D01*
X80604976Y-61450346D01*
X80589070Y-61435930D01*
X80574654Y-61420024D01*
X80561866Y-61402781D01*
X80550830Y-61384368D01*
X80541651Y-61364962D01*
X80534419Y-61344750D01*
X80529203Y-61323926D01*
X80526053Y-61302691D01*
X80525000Y-61281250D01*
X80525000Y-60843750D01*
X80526053Y-60822309D01*
X80529203Y-60801074D01*
X80534419Y-60780250D01*
X80541651Y-60760038D01*
X80550830Y-60740632D01*
X80561866Y-60722219D01*
X80574654Y-60704976D01*
X80589070Y-60689070D01*
X80604976Y-60674654D01*
X80622219Y-60661866D01*
X80640632Y-60650830D01*
X80660038Y-60641651D01*
X80680250Y-60634419D01*
X80701074Y-60629203D01*
X80722309Y-60626053D01*
X80743750Y-60625000D01*
X81256250Y-60625000D01*
X81277691Y-60626053D01*
G37*
G36*
X55027691Y-59351053D02*
G01*
X55048926Y-59354203D01*
X55069750Y-59359419D01*
X55089962Y-59366651D01*
X55109368Y-59375830D01*
X55127781Y-59386866D01*
X55145024Y-59399654D01*
X55160930Y-59414070D01*
X55175346Y-59429976D01*
X55188134Y-59447219D01*
X55199170Y-59465632D01*
X55208349Y-59485038D01*
X55215581Y-59505250D01*
X55220797Y-59526074D01*
X55223947Y-59547309D01*
X55225000Y-59568750D01*
X55225000Y-60006250D01*
X55223947Y-60027691D01*
X55220797Y-60048926D01*
X55215581Y-60069750D01*
X55208349Y-60089962D01*
X55199170Y-60109368D01*
X55188134Y-60127781D01*
X55175346Y-60145024D01*
X55160930Y-60160930D01*
X55145024Y-60175346D01*
X55127781Y-60188134D01*
X55109368Y-60199170D01*
X55089962Y-60208349D01*
X55069750Y-60215581D01*
X55048926Y-60220797D01*
X55027691Y-60223947D01*
X55006250Y-60225000D01*
X54493750Y-60225000D01*
X54472309Y-60223947D01*
X54451074Y-60220797D01*
X54430250Y-60215581D01*
X54410038Y-60208349D01*
X54390632Y-60199170D01*
X54372219Y-60188134D01*
X54354976Y-60175346D01*
X54339070Y-60160930D01*
X54324654Y-60145024D01*
X54311866Y-60127781D01*
X54300830Y-60109368D01*
X54291651Y-60089962D01*
X54284419Y-60069750D01*
X54279203Y-60048926D01*
X54276053Y-60027691D01*
X54275000Y-60006250D01*
X54275000Y-59568750D01*
X54276053Y-59547309D01*
X54279203Y-59526074D01*
X54284419Y-59505250D01*
X54291651Y-59485038D01*
X54300830Y-59465632D01*
X54311866Y-59447219D01*
X54324654Y-59429976D01*
X54339070Y-59414070D01*
X54354976Y-59399654D01*
X54372219Y-59386866D01*
X54390632Y-59375830D01*
X54410038Y-59366651D01*
X54430250Y-59359419D01*
X54451074Y-59354203D01*
X54472309Y-59351053D01*
X54493750Y-59350000D01*
X55006250Y-59350000D01*
X55027691Y-59351053D01*
G37*
G36*
X55027691Y-57776053D02*
G01*
X55048926Y-57779203D01*
X55069750Y-57784419D01*
X55089962Y-57791651D01*
X55109368Y-57800830D01*
X55127781Y-57811866D01*
X55145024Y-57824654D01*
X55160930Y-57839070D01*
X55175346Y-57854976D01*
X55188134Y-57872219D01*
X55199170Y-57890632D01*
X55208349Y-57910038D01*
X55215581Y-57930250D01*
X55220797Y-57951074D01*
X55223947Y-57972309D01*
X55225000Y-57993750D01*
X55225000Y-58431250D01*
X55223947Y-58452691D01*
X55220797Y-58473926D01*
X55215581Y-58494750D01*
X55208349Y-58514962D01*
X55199170Y-58534368D01*
X55188134Y-58552781D01*
X55175346Y-58570024D01*
X55160930Y-58585930D01*
X55145024Y-58600346D01*
X55127781Y-58613134D01*
X55109368Y-58624170D01*
X55089962Y-58633349D01*
X55069750Y-58640581D01*
X55048926Y-58645797D01*
X55027691Y-58648947D01*
X55006250Y-58650000D01*
X54493750Y-58650000D01*
X54472309Y-58648947D01*
X54451074Y-58645797D01*
X54430250Y-58640581D01*
X54410038Y-58633349D01*
X54390632Y-58624170D01*
X54372219Y-58613134D01*
X54354976Y-58600346D01*
X54339070Y-58585930D01*
X54324654Y-58570024D01*
X54311866Y-58552781D01*
X54300830Y-58534368D01*
X54291651Y-58514962D01*
X54284419Y-58494750D01*
X54279203Y-58473926D01*
X54276053Y-58452691D01*
X54275000Y-58431250D01*
X54275000Y-57993750D01*
X54276053Y-57972309D01*
X54279203Y-57951074D01*
X54284419Y-57930250D01*
X54291651Y-57910038D01*
X54300830Y-57890632D01*
X54311866Y-57872219D01*
X54324654Y-57854976D01*
X54339070Y-57839070D01*
X54354976Y-57824654D01*
X54372219Y-57811866D01*
X54390632Y-57800830D01*
X54410038Y-57791651D01*
X54430250Y-57784419D01*
X54451074Y-57779203D01*
X54472309Y-57776053D01*
X54493750Y-57775000D01*
X55006250Y-57775000D01*
X55027691Y-57776053D01*
G37*
G36*
X53027691Y-59351053D02*
G01*
X53048926Y-59354203D01*
X53069750Y-59359419D01*
X53089962Y-59366651D01*
X53109368Y-59375830D01*
X53127781Y-59386866D01*
X53145024Y-59399654D01*
X53160930Y-59414070D01*
X53175346Y-59429976D01*
X53188134Y-59447219D01*
X53199170Y-59465632D01*
X53208349Y-59485038D01*
X53215581Y-59505250D01*
X53220797Y-59526074D01*
X53223947Y-59547309D01*
X53225000Y-59568750D01*
X53225000Y-60006250D01*
X53223947Y-60027691D01*
X53220797Y-60048926D01*
X53215581Y-60069750D01*
X53208349Y-60089962D01*
X53199170Y-60109368D01*
X53188134Y-60127781D01*
X53175346Y-60145024D01*
X53160930Y-60160930D01*
X53145024Y-60175346D01*
X53127781Y-60188134D01*
X53109368Y-60199170D01*
X53089962Y-60208349D01*
X53069750Y-60215581D01*
X53048926Y-60220797D01*
X53027691Y-60223947D01*
X53006250Y-60225000D01*
X52493750Y-60225000D01*
X52472309Y-60223947D01*
X52451074Y-60220797D01*
X52430250Y-60215581D01*
X52410038Y-60208349D01*
X52390632Y-60199170D01*
X52372219Y-60188134D01*
X52354976Y-60175346D01*
X52339070Y-60160930D01*
X52324654Y-60145024D01*
X52311866Y-60127781D01*
X52300830Y-60109368D01*
X52291651Y-60089962D01*
X52284419Y-60069750D01*
X52279203Y-60048926D01*
X52276053Y-60027691D01*
X52275000Y-60006250D01*
X52275000Y-59568750D01*
X52276053Y-59547309D01*
X52279203Y-59526074D01*
X52284419Y-59505250D01*
X52291651Y-59485038D01*
X52300830Y-59465632D01*
X52311866Y-59447219D01*
X52324654Y-59429976D01*
X52339070Y-59414070D01*
X52354976Y-59399654D01*
X52372219Y-59386866D01*
X52390632Y-59375830D01*
X52410038Y-59366651D01*
X52430250Y-59359419D01*
X52451074Y-59354203D01*
X52472309Y-59351053D01*
X52493750Y-59350000D01*
X53006250Y-59350000D01*
X53027691Y-59351053D01*
G37*
G36*
X53027691Y-57776053D02*
G01*
X53048926Y-57779203D01*
X53069750Y-57784419D01*
X53089962Y-57791651D01*
X53109368Y-57800830D01*
X53127781Y-57811866D01*
X53145024Y-57824654D01*
X53160930Y-57839070D01*
X53175346Y-57854976D01*
X53188134Y-57872219D01*
X53199170Y-57890632D01*
X53208349Y-57910038D01*
X53215581Y-57930250D01*
X53220797Y-57951074D01*
X53223947Y-57972309D01*
X53225000Y-57993750D01*
X53225000Y-58431250D01*
X53223947Y-58452691D01*
X53220797Y-58473926D01*
X53215581Y-58494750D01*
X53208349Y-58514962D01*
X53199170Y-58534368D01*
X53188134Y-58552781D01*
X53175346Y-58570024D01*
X53160930Y-58585930D01*
X53145024Y-58600346D01*
X53127781Y-58613134D01*
X53109368Y-58624170D01*
X53089962Y-58633349D01*
X53069750Y-58640581D01*
X53048926Y-58645797D01*
X53027691Y-58648947D01*
X53006250Y-58650000D01*
X52493750Y-58650000D01*
X52472309Y-58648947D01*
X52451074Y-58645797D01*
X52430250Y-58640581D01*
X52410038Y-58633349D01*
X52390632Y-58624170D01*
X52372219Y-58613134D01*
X52354976Y-58600346D01*
X52339070Y-58585930D01*
X52324654Y-58570024D01*
X52311866Y-58552781D01*
X52300830Y-58534368D01*
X52291651Y-58514962D01*
X52284419Y-58494750D01*
X52279203Y-58473926D01*
X52276053Y-58452691D01*
X52275000Y-58431250D01*
X52275000Y-57993750D01*
X52276053Y-57972309D01*
X52279203Y-57951074D01*
X52284419Y-57930250D01*
X52291651Y-57910038D01*
X52300830Y-57890632D01*
X52311866Y-57872219D01*
X52324654Y-57854976D01*
X52339070Y-57839070D01*
X52354976Y-57824654D01*
X52372219Y-57811866D01*
X52390632Y-57800830D01*
X52410038Y-57791651D01*
X52430250Y-57784419D01*
X52451074Y-57779203D01*
X52472309Y-57776053D01*
X52493750Y-57775000D01*
X53006250Y-57775000D01*
X53027691Y-57776053D01*
G37*
G36*
X73452691Y-58376053D02*
G01*
X73473926Y-58379203D01*
X73494750Y-58384419D01*
X73514962Y-58391651D01*
X73534368Y-58400830D01*
X73552781Y-58411866D01*
X73570024Y-58424654D01*
X73585930Y-58439070D01*
X73600346Y-58454976D01*
X73613134Y-58472219D01*
X73624170Y-58490632D01*
X73633349Y-58510038D01*
X73640581Y-58530250D01*
X73645797Y-58551074D01*
X73648947Y-58572309D01*
X73650000Y-58593750D01*
X73650000Y-59106250D01*
X73648947Y-59127691D01*
X73645797Y-59148926D01*
X73640581Y-59169750D01*
X73633349Y-59189962D01*
X73624170Y-59209368D01*
X73613134Y-59227781D01*
X73600346Y-59245024D01*
X73585930Y-59260930D01*
X73570024Y-59275346D01*
X73552781Y-59288134D01*
X73534368Y-59299170D01*
X73514962Y-59308349D01*
X73494750Y-59315581D01*
X73473926Y-59320797D01*
X73452691Y-59323947D01*
X73431250Y-59325000D01*
X72993750Y-59325000D01*
X72972309Y-59323947D01*
X72951074Y-59320797D01*
X72930250Y-59315581D01*
X72910038Y-59308349D01*
X72890632Y-59299170D01*
X72872219Y-59288134D01*
X72854976Y-59275346D01*
X72839070Y-59260930D01*
X72824654Y-59245024D01*
X72811866Y-59227781D01*
X72800830Y-59209368D01*
X72791651Y-59189962D01*
X72784419Y-59169750D01*
X72779203Y-59148926D01*
X72776053Y-59127691D01*
X72775000Y-59106250D01*
X72775000Y-58593750D01*
X72776053Y-58572309D01*
X72779203Y-58551074D01*
X72784419Y-58530250D01*
X72791651Y-58510038D01*
X72800830Y-58490632D01*
X72811866Y-58472219D01*
X72824654Y-58454976D01*
X72839070Y-58439070D01*
X72854976Y-58424654D01*
X72872219Y-58411866D01*
X72890632Y-58400830D01*
X72910038Y-58391651D01*
X72930250Y-58384419D01*
X72951074Y-58379203D01*
X72972309Y-58376053D01*
X72993750Y-58375000D01*
X73431250Y-58375000D01*
X73452691Y-58376053D01*
G37*
G36*
X75027691Y-58376053D02*
G01*
X75048926Y-58379203D01*
X75069750Y-58384419D01*
X75089962Y-58391651D01*
X75109368Y-58400830D01*
X75127781Y-58411866D01*
X75145024Y-58424654D01*
X75160930Y-58439070D01*
X75175346Y-58454976D01*
X75188134Y-58472219D01*
X75199170Y-58490632D01*
X75208349Y-58510038D01*
X75215581Y-58530250D01*
X75220797Y-58551074D01*
X75223947Y-58572309D01*
X75225000Y-58593750D01*
X75225000Y-59106250D01*
X75223947Y-59127691D01*
X75220797Y-59148926D01*
X75215581Y-59169750D01*
X75208349Y-59189962D01*
X75199170Y-59209368D01*
X75188134Y-59227781D01*
X75175346Y-59245024D01*
X75160930Y-59260930D01*
X75145024Y-59275346D01*
X75127781Y-59288134D01*
X75109368Y-59299170D01*
X75089962Y-59308349D01*
X75069750Y-59315581D01*
X75048926Y-59320797D01*
X75027691Y-59323947D01*
X75006250Y-59325000D01*
X74568750Y-59325000D01*
X74547309Y-59323947D01*
X74526074Y-59320797D01*
X74505250Y-59315581D01*
X74485038Y-59308349D01*
X74465632Y-59299170D01*
X74447219Y-59288134D01*
X74429976Y-59275346D01*
X74414070Y-59260930D01*
X74399654Y-59245024D01*
X74386866Y-59227781D01*
X74375830Y-59209368D01*
X74366651Y-59189962D01*
X74359419Y-59169750D01*
X74354203Y-59148926D01*
X74351053Y-59127691D01*
X74350000Y-59106250D01*
X74350000Y-58593750D01*
X74351053Y-58572309D01*
X74354203Y-58551074D01*
X74359419Y-58530250D01*
X74366651Y-58510038D01*
X74375830Y-58490632D01*
X74386866Y-58472219D01*
X74399654Y-58454976D01*
X74414070Y-58439070D01*
X74429976Y-58424654D01*
X74447219Y-58411866D01*
X74465632Y-58400830D01*
X74485038Y-58391651D01*
X74505250Y-58384419D01*
X74526074Y-58379203D01*
X74547309Y-58376053D01*
X74568750Y-58375000D01*
X75006250Y-58375000D01*
X75027691Y-58376053D01*
G37*
G36*
X73452691Y-63626053D02*
G01*
X73473926Y-63629203D01*
X73494750Y-63634419D01*
X73514962Y-63641651D01*
X73534368Y-63650830D01*
X73552781Y-63661866D01*
X73570024Y-63674654D01*
X73585930Y-63689070D01*
X73600346Y-63704976D01*
X73613134Y-63722219D01*
X73624170Y-63740632D01*
X73633349Y-63760038D01*
X73640581Y-63780250D01*
X73645797Y-63801074D01*
X73648947Y-63822309D01*
X73650000Y-63843750D01*
X73650000Y-64356250D01*
X73648947Y-64377691D01*
X73645797Y-64398926D01*
X73640581Y-64419750D01*
X73633349Y-64439962D01*
X73624170Y-64459368D01*
X73613134Y-64477781D01*
X73600346Y-64495024D01*
X73585930Y-64510930D01*
X73570024Y-64525346D01*
X73552781Y-64538134D01*
X73534368Y-64549170D01*
X73514962Y-64558349D01*
X73494750Y-64565581D01*
X73473926Y-64570797D01*
X73452691Y-64573947D01*
X73431250Y-64575000D01*
X72993750Y-64575000D01*
X72972309Y-64573947D01*
X72951074Y-64570797D01*
X72930250Y-64565581D01*
X72910038Y-64558349D01*
X72890632Y-64549170D01*
X72872219Y-64538134D01*
X72854976Y-64525346D01*
X72839070Y-64510930D01*
X72824654Y-64495024D01*
X72811866Y-64477781D01*
X72800830Y-64459368D01*
X72791651Y-64439962D01*
X72784419Y-64419750D01*
X72779203Y-64398926D01*
X72776053Y-64377691D01*
X72775000Y-64356250D01*
X72775000Y-63843750D01*
X72776053Y-63822309D01*
X72779203Y-63801074D01*
X72784419Y-63780250D01*
X72791651Y-63760038D01*
X72800830Y-63740632D01*
X72811866Y-63722219D01*
X72824654Y-63704976D01*
X72839070Y-63689070D01*
X72854976Y-63674654D01*
X72872219Y-63661866D01*
X72890632Y-63650830D01*
X72910038Y-63641651D01*
X72930250Y-63634419D01*
X72951074Y-63629203D01*
X72972309Y-63626053D01*
X72993750Y-63625000D01*
X73431250Y-63625000D01*
X73452691Y-63626053D01*
G37*
G36*
X75027691Y-63626053D02*
G01*
X75048926Y-63629203D01*
X75069750Y-63634419D01*
X75089962Y-63641651D01*
X75109368Y-63650830D01*
X75127781Y-63661866D01*
X75145024Y-63674654D01*
X75160930Y-63689070D01*
X75175346Y-63704976D01*
X75188134Y-63722219D01*
X75199170Y-63740632D01*
X75208349Y-63760038D01*
X75215581Y-63780250D01*
X75220797Y-63801074D01*
X75223947Y-63822309D01*
X75225000Y-63843750D01*
X75225000Y-64356250D01*
X75223947Y-64377691D01*
X75220797Y-64398926D01*
X75215581Y-64419750D01*
X75208349Y-64439962D01*
X75199170Y-64459368D01*
X75188134Y-64477781D01*
X75175346Y-64495024D01*
X75160930Y-64510930D01*
X75145024Y-64525346D01*
X75127781Y-64538134D01*
X75109368Y-64549170D01*
X75089962Y-64558349D01*
X75069750Y-64565581D01*
X75048926Y-64570797D01*
X75027691Y-64573947D01*
X75006250Y-64575000D01*
X74568750Y-64575000D01*
X74547309Y-64573947D01*
X74526074Y-64570797D01*
X74505250Y-64565581D01*
X74485038Y-64558349D01*
X74465632Y-64549170D01*
X74447219Y-64538134D01*
X74429976Y-64525346D01*
X74414070Y-64510930D01*
X74399654Y-64495024D01*
X74386866Y-64477781D01*
X74375830Y-64459368D01*
X74366651Y-64439962D01*
X74359419Y-64419750D01*
X74354203Y-64398926D01*
X74351053Y-64377691D01*
X74350000Y-64356250D01*
X74350000Y-63843750D01*
X74351053Y-63822309D01*
X74354203Y-63801074D01*
X74359419Y-63780250D01*
X74366651Y-63760038D01*
X74375830Y-63740632D01*
X74386866Y-63722219D01*
X74399654Y-63704976D01*
X74414070Y-63689070D01*
X74429976Y-63674654D01*
X74447219Y-63661866D01*
X74465632Y-63650830D01*
X74485038Y-63641651D01*
X74505250Y-63634419D01*
X74526074Y-63629203D01*
X74547309Y-63626053D01*
X74568750Y-63625000D01*
X75006250Y-63625000D01*
X75027691Y-63626053D01*
G37*
G36*
X81027691Y-56876053D02*
G01*
X81048926Y-56879203D01*
X81069750Y-56884419D01*
X81089962Y-56891651D01*
X81109368Y-56900830D01*
X81127781Y-56911866D01*
X81145024Y-56924654D01*
X81160930Y-56939070D01*
X81175346Y-56954976D01*
X81188134Y-56972219D01*
X81199170Y-56990632D01*
X81208349Y-57010038D01*
X81215581Y-57030250D01*
X81220797Y-57051074D01*
X81223947Y-57072309D01*
X81225000Y-57093750D01*
X81225000Y-57531250D01*
X81223947Y-57552691D01*
X81220797Y-57573926D01*
X81215581Y-57594750D01*
X81208349Y-57614962D01*
X81199170Y-57634368D01*
X81188134Y-57652781D01*
X81175346Y-57670024D01*
X81160930Y-57685930D01*
X81145024Y-57700346D01*
X81127781Y-57713134D01*
X81109368Y-57724170D01*
X81089962Y-57733349D01*
X81069750Y-57740581D01*
X81048926Y-57745797D01*
X81027691Y-57748947D01*
X81006250Y-57750000D01*
X80493750Y-57750000D01*
X80472309Y-57748947D01*
X80451074Y-57745797D01*
X80430250Y-57740581D01*
X80410038Y-57733349D01*
X80390632Y-57724170D01*
X80372219Y-57713134D01*
X80354976Y-57700346D01*
X80339070Y-57685930D01*
X80324654Y-57670024D01*
X80311866Y-57652781D01*
X80300830Y-57634368D01*
X80291651Y-57614962D01*
X80284419Y-57594750D01*
X80279203Y-57573926D01*
X80276053Y-57552691D01*
X80275000Y-57531250D01*
X80275000Y-57093750D01*
X80276053Y-57072309D01*
X80279203Y-57051074D01*
X80284419Y-57030250D01*
X80291651Y-57010038D01*
X80300830Y-56990632D01*
X80311866Y-56972219D01*
X80324654Y-56954976D01*
X80339070Y-56939070D01*
X80354976Y-56924654D01*
X80372219Y-56911866D01*
X80390632Y-56900830D01*
X80410038Y-56891651D01*
X80430250Y-56884419D01*
X80451074Y-56879203D01*
X80472309Y-56876053D01*
X80493750Y-56875000D01*
X81006250Y-56875000D01*
X81027691Y-56876053D01*
G37*
G36*
X81027691Y-58451053D02*
G01*
X81048926Y-58454203D01*
X81069750Y-58459419D01*
X81089962Y-58466651D01*
X81109368Y-58475830D01*
X81127781Y-58486866D01*
X81145024Y-58499654D01*
X81160930Y-58514070D01*
X81175346Y-58529976D01*
X81188134Y-58547219D01*
X81199170Y-58565632D01*
X81208349Y-58585038D01*
X81215581Y-58605250D01*
X81220797Y-58626074D01*
X81223947Y-58647309D01*
X81225000Y-58668750D01*
X81225000Y-59106250D01*
X81223947Y-59127691D01*
X81220797Y-59148926D01*
X81215581Y-59169750D01*
X81208349Y-59189962D01*
X81199170Y-59209368D01*
X81188134Y-59227781D01*
X81175346Y-59245024D01*
X81160930Y-59260930D01*
X81145024Y-59275346D01*
X81127781Y-59288134D01*
X81109368Y-59299170D01*
X81089962Y-59308349D01*
X81069750Y-59315581D01*
X81048926Y-59320797D01*
X81027691Y-59323947D01*
X81006250Y-59325000D01*
X80493750Y-59325000D01*
X80472309Y-59323947D01*
X80451074Y-59320797D01*
X80430250Y-59315581D01*
X80410038Y-59308349D01*
X80390632Y-59299170D01*
X80372219Y-59288134D01*
X80354976Y-59275346D01*
X80339070Y-59260930D01*
X80324654Y-59245024D01*
X80311866Y-59227781D01*
X80300830Y-59209368D01*
X80291651Y-59189962D01*
X80284419Y-59169750D01*
X80279203Y-59148926D01*
X80276053Y-59127691D01*
X80275000Y-59106250D01*
X80275000Y-58668750D01*
X80276053Y-58647309D01*
X80279203Y-58626074D01*
X80284419Y-58605250D01*
X80291651Y-58585038D01*
X80300830Y-58565632D01*
X80311866Y-58547219D01*
X80324654Y-58529976D01*
X80339070Y-58514070D01*
X80354976Y-58499654D01*
X80372219Y-58486866D01*
X80390632Y-58475830D01*
X80410038Y-58466651D01*
X80430250Y-58459419D01*
X80451074Y-58454203D01*
X80472309Y-58451053D01*
X80493750Y-58450000D01*
X81006250Y-58450000D01*
X81027691Y-58451053D01*
G37*
G36*
X73977691Y-56526053D02*
G01*
X73998926Y-56529203D01*
X74019750Y-56534419D01*
X74039962Y-56541651D01*
X74059368Y-56550830D01*
X74077781Y-56561866D01*
X74095024Y-56574654D01*
X74110930Y-56589070D01*
X74125346Y-56604976D01*
X74138134Y-56622219D01*
X74149170Y-56640632D01*
X74158349Y-56660038D01*
X74165581Y-56680250D01*
X74170797Y-56701074D01*
X74173947Y-56722309D01*
X74175000Y-56743750D01*
X74175000Y-57256250D01*
X74173947Y-57277691D01*
X74170797Y-57298926D01*
X74165581Y-57319750D01*
X74158349Y-57339962D01*
X74149170Y-57359368D01*
X74138134Y-57377781D01*
X74125346Y-57395024D01*
X74110930Y-57410930D01*
X74095024Y-57425346D01*
X74077781Y-57438134D01*
X74059368Y-57449170D01*
X74039962Y-57458349D01*
X74019750Y-57465581D01*
X73998926Y-57470797D01*
X73977691Y-57473947D01*
X73956250Y-57475000D01*
X73518750Y-57475000D01*
X73497309Y-57473947D01*
X73476074Y-57470797D01*
X73455250Y-57465581D01*
X73435038Y-57458349D01*
X73415632Y-57449170D01*
X73397219Y-57438134D01*
X73379976Y-57425346D01*
X73364070Y-57410930D01*
X73349654Y-57395024D01*
X73336866Y-57377781D01*
X73325830Y-57359368D01*
X73316651Y-57339962D01*
X73309419Y-57319750D01*
X73304203Y-57298926D01*
X73301053Y-57277691D01*
X73300000Y-57256250D01*
X73300000Y-56743750D01*
X73301053Y-56722309D01*
X73304203Y-56701074D01*
X73309419Y-56680250D01*
X73316651Y-56660038D01*
X73325830Y-56640632D01*
X73336866Y-56622219D01*
X73349654Y-56604976D01*
X73364070Y-56589070D01*
X73379976Y-56574654D01*
X73397219Y-56561866D01*
X73415632Y-56550830D01*
X73435038Y-56541651D01*
X73455250Y-56534419D01*
X73476074Y-56529203D01*
X73497309Y-56526053D01*
X73518750Y-56525000D01*
X73956250Y-56525000D01*
X73977691Y-56526053D01*
G37*
G36*
X72402691Y-56526053D02*
G01*
X72423926Y-56529203D01*
X72444750Y-56534419D01*
X72464962Y-56541651D01*
X72484368Y-56550830D01*
X72502781Y-56561866D01*
X72520024Y-56574654D01*
X72535930Y-56589070D01*
X72550346Y-56604976D01*
X72563134Y-56622219D01*
X72574170Y-56640632D01*
X72583349Y-56660038D01*
X72590581Y-56680250D01*
X72595797Y-56701074D01*
X72598947Y-56722309D01*
X72600000Y-56743750D01*
X72600000Y-57256250D01*
X72598947Y-57277691D01*
X72595797Y-57298926D01*
X72590581Y-57319750D01*
X72583349Y-57339962D01*
X72574170Y-57359368D01*
X72563134Y-57377781D01*
X72550346Y-57395024D01*
X72535930Y-57410930D01*
X72520024Y-57425346D01*
X72502781Y-57438134D01*
X72484368Y-57449170D01*
X72464962Y-57458349D01*
X72444750Y-57465581D01*
X72423926Y-57470797D01*
X72402691Y-57473947D01*
X72381250Y-57475000D01*
X71943750Y-57475000D01*
X71922309Y-57473947D01*
X71901074Y-57470797D01*
X71880250Y-57465581D01*
X71860038Y-57458349D01*
X71840632Y-57449170D01*
X71822219Y-57438134D01*
X71804976Y-57425346D01*
X71789070Y-57410930D01*
X71774654Y-57395024D01*
X71761866Y-57377781D01*
X71750830Y-57359368D01*
X71741651Y-57339962D01*
X71734419Y-57319750D01*
X71729203Y-57298926D01*
X71726053Y-57277691D01*
X71725000Y-57256250D01*
X71725000Y-56743750D01*
X71726053Y-56722309D01*
X71729203Y-56701074D01*
X71734419Y-56680250D01*
X71741651Y-56660038D01*
X71750830Y-56640632D01*
X71761866Y-56622219D01*
X71774654Y-56604976D01*
X71789070Y-56589070D01*
X71804976Y-56574654D01*
X71822219Y-56561866D01*
X71840632Y-56550830D01*
X71860038Y-56541651D01*
X71880250Y-56534419D01*
X71901074Y-56529203D01*
X71922309Y-56526053D01*
X71943750Y-56525000D01*
X72381250Y-56525000D01*
X72402691Y-56526053D01*
G37*
G36*
X70527691Y-64276053D02*
G01*
X70548926Y-64279203D01*
X70569750Y-64284419D01*
X70589962Y-64291651D01*
X70609368Y-64300830D01*
X70627781Y-64311866D01*
X70645024Y-64324654D01*
X70660930Y-64339070D01*
X70675346Y-64354976D01*
X70688134Y-64372219D01*
X70699170Y-64390632D01*
X70708349Y-64410038D01*
X70715581Y-64430250D01*
X70720797Y-64451074D01*
X70723947Y-64472309D01*
X70725000Y-64493750D01*
X70725000Y-65006250D01*
X70723947Y-65027691D01*
X70720797Y-65048926D01*
X70715581Y-65069750D01*
X70708349Y-65089962D01*
X70699170Y-65109368D01*
X70688134Y-65127781D01*
X70675346Y-65145024D01*
X70660930Y-65160930D01*
X70645024Y-65175346D01*
X70627781Y-65188134D01*
X70609368Y-65199170D01*
X70589962Y-65208349D01*
X70569750Y-65215581D01*
X70548926Y-65220797D01*
X70527691Y-65223947D01*
X70506250Y-65225000D01*
X70068750Y-65225000D01*
X70047309Y-65223947D01*
X70026074Y-65220797D01*
X70005250Y-65215581D01*
X69985038Y-65208349D01*
X69965632Y-65199170D01*
X69947219Y-65188134D01*
X69929976Y-65175346D01*
X69914070Y-65160930D01*
X69899654Y-65145024D01*
X69886866Y-65127781D01*
X69875830Y-65109368D01*
X69866651Y-65089962D01*
X69859419Y-65069750D01*
X69854203Y-65048926D01*
X69851053Y-65027691D01*
X69850000Y-65006250D01*
X69850000Y-64493750D01*
X69851053Y-64472309D01*
X69854203Y-64451074D01*
X69859419Y-64430250D01*
X69866651Y-64410038D01*
X69875830Y-64390632D01*
X69886866Y-64372219D01*
X69899654Y-64354976D01*
X69914070Y-64339070D01*
X69929976Y-64324654D01*
X69947219Y-64311866D01*
X69965632Y-64300830D01*
X69985038Y-64291651D01*
X70005250Y-64284419D01*
X70026074Y-64279203D01*
X70047309Y-64276053D01*
X70068750Y-64275000D01*
X70506250Y-64275000D01*
X70527691Y-64276053D01*
G37*
G36*
X68952691Y-64276053D02*
G01*
X68973926Y-64279203D01*
X68994750Y-64284419D01*
X69014962Y-64291651D01*
X69034368Y-64300830D01*
X69052781Y-64311866D01*
X69070024Y-64324654D01*
X69085930Y-64339070D01*
X69100346Y-64354976D01*
X69113134Y-64372219D01*
X69124170Y-64390632D01*
X69133349Y-64410038D01*
X69140581Y-64430250D01*
X69145797Y-64451074D01*
X69148947Y-64472309D01*
X69150000Y-64493750D01*
X69150000Y-65006250D01*
X69148947Y-65027691D01*
X69145797Y-65048926D01*
X69140581Y-65069750D01*
X69133349Y-65089962D01*
X69124170Y-65109368D01*
X69113134Y-65127781D01*
X69100346Y-65145024D01*
X69085930Y-65160930D01*
X69070024Y-65175346D01*
X69052781Y-65188134D01*
X69034368Y-65199170D01*
X69014962Y-65208349D01*
X68994750Y-65215581D01*
X68973926Y-65220797D01*
X68952691Y-65223947D01*
X68931250Y-65225000D01*
X68493750Y-65225000D01*
X68472309Y-65223947D01*
X68451074Y-65220797D01*
X68430250Y-65215581D01*
X68410038Y-65208349D01*
X68390632Y-65199170D01*
X68372219Y-65188134D01*
X68354976Y-65175346D01*
X68339070Y-65160930D01*
X68324654Y-65145024D01*
X68311866Y-65127781D01*
X68300830Y-65109368D01*
X68291651Y-65089962D01*
X68284419Y-65069750D01*
X68279203Y-65048926D01*
X68276053Y-65027691D01*
X68275000Y-65006250D01*
X68275000Y-64493750D01*
X68276053Y-64472309D01*
X68279203Y-64451074D01*
X68284419Y-64430250D01*
X68291651Y-64410038D01*
X68300830Y-64390632D01*
X68311866Y-64372219D01*
X68324654Y-64354976D01*
X68339070Y-64339070D01*
X68354976Y-64324654D01*
X68372219Y-64311866D01*
X68390632Y-64300830D01*
X68410038Y-64291651D01*
X68430250Y-64284419D01*
X68451074Y-64279203D01*
X68472309Y-64276053D01*
X68493750Y-64275000D01*
X68931250Y-64275000D01*
X68952691Y-64276053D01*
G37*
G36*
X61027691Y-57776053D02*
G01*
X61048926Y-57779203D01*
X61069750Y-57784419D01*
X61089962Y-57791651D01*
X61109368Y-57800830D01*
X61127781Y-57811866D01*
X61145024Y-57824654D01*
X61160930Y-57839070D01*
X61175346Y-57854976D01*
X61188134Y-57872219D01*
X61199170Y-57890632D01*
X61208349Y-57910038D01*
X61215581Y-57930250D01*
X61220797Y-57951074D01*
X61223947Y-57972309D01*
X61225000Y-57993750D01*
X61225000Y-58431250D01*
X61223947Y-58452691D01*
X61220797Y-58473926D01*
X61215581Y-58494750D01*
X61208349Y-58514962D01*
X61199170Y-58534368D01*
X61188134Y-58552781D01*
X61175346Y-58570024D01*
X61160930Y-58585930D01*
X61145024Y-58600346D01*
X61127781Y-58613134D01*
X61109368Y-58624170D01*
X61089962Y-58633349D01*
X61069750Y-58640581D01*
X61048926Y-58645797D01*
X61027691Y-58648947D01*
X61006250Y-58650000D01*
X60493750Y-58650000D01*
X60472309Y-58648947D01*
X60451074Y-58645797D01*
X60430250Y-58640581D01*
X60410038Y-58633349D01*
X60390632Y-58624170D01*
X60372219Y-58613134D01*
X60354976Y-58600346D01*
X60339070Y-58585930D01*
X60324654Y-58570024D01*
X60311866Y-58552781D01*
X60300830Y-58534368D01*
X60291651Y-58514962D01*
X60284419Y-58494750D01*
X60279203Y-58473926D01*
X60276053Y-58452691D01*
X60275000Y-58431250D01*
X60275000Y-57993750D01*
X60276053Y-57972309D01*
X60279203Y-57951074D01*
X60284419Y-57930250D01*
X60291651Y-57910038D01*
X60300830Y-57890632D01*
X60311866Y-57872219D01*
X60324654Y-57854976D01*
X60339070Y-57839070D01*
X60354976Y-57824654D01*
X60372219Y-57811866D01*
X60390632Y-57800830D01*
X60410038Y-57791651D01*
X60430250Y-57784419D01*
X60451074Y-57779203D01*
X60472309Y-57776053D01*
X60493750Y-57775000D01*
X61006250Y-57775000D01*
X61027691Y-57776053D01*
G37*
G36*
X61027691Y-59351053D02*
G01*
X61048926Y-59354203D01*
X61069750Y-59359419D01*
X61089962Y-59366651D01*
X61109368Y-59375830D01*
X61127781Y-59386866D01*
X61145024Y-59399654D01*
X61160930Y-59414070D01*
X61175346Y-59429976D01*
X61188134Y-59447219D01*
X61199170Y-59465632D01*
X61208349Y-59485038D01*
X61215581Y-59505250D01*
X61220797Y-59526074D01*
X61223947Y-59547309D01*
X61225000Y-59568750D01*
X61225000Y-60006250D01*
X61223947Y-60027691D01*
X61220797Y-60048926D01*
X61215581Y-60069750D01*
X61208349Y-60089962D01*
X61199170Y-60109368D01*
X61188134Y-60127781D01*
X61175346Y-60145024D01*
X61160930Y-60160930D01*
X61145024Y-60175346D01*
X61127781Y-60188134D01*
X61109368Y-60199170D01*
X61089962Y-60208349D01*
X61069750Y-60215581D01*
X61048926Y-60220797D01*
X61027691Y-60223947D01*
X61006250Y-60225000D01*
X60493750Y-60225000D01*
X60472309Y-60223947D01*
X60451074Y-60220797D01*
X60430250Y-60215581D01*
X60410038Y-60208349D01*
X60390632Y-60199170D01*
X60372219Y-60188134D01*
X60354976Y-60175346D01*
X60339070Y-60160930D01*
X60324654Y-60145024D01*
X60311866Y-60127781D01*
X60300830Y-60109368D01*
X60291651Y-60089962D01*
X60284419Y-60069750D01*
X60279203Y-60048926D01*
X60276053Y-60027691D01*
X60275000Y-60006250D01*
X60275000Y-59568750D01*
X60276053Y-59547309D01*
X60279203Y-59526074D01*
X60284419Y-59505250D01*
X60291651Y-59485038D01*
X60300830Y-59465632D01*
X60311866Y-59447219D01*
X60324654Y-59429976D01*
X60339070Y-59414070D01*
X60354976Y-59399654D01*
X60372219Y-59386866D01*
X60390632Y-59375830D01*
X60410038Y-59366651D01*
X60430250Y-59359419D01*
X60451074Y-59354203D01*
X60472309Y-59351053D01*
X60493750Y-59350000D01*
X61006250Y-59350000D01*
X61027691Y-59351053D01*
G37*
G36*
X57027691Y-59351053D02*
G01*
X57048926Y-59354203D01*
X57069750Y-59359419D01*
X57089962Y-59366651D01*
X57109368Y-59375830D01*
X57127781Y-59386866D01*
X57145024Y-59399654D01*
X57160930Y-59414070D01*
X57175346Y-59429976D01*
X57188134Y-59447219D01*
X57199170Y-59465632D01*
X57208349Y-59485038D01*
X57215581Y-59505250D01*
X57220797Y-59526074D01*
X57223947Y-59547309D01*
X57225000Y-59568750D01*
X57225000Y-60006250D01*
X57223947Y-60027691D01*
X57220797Y-60048926D01*
X57215581Y-60069750D01*
X57208349Y-60089962D01*
X57199170Y-60109368D01*
X57188134Y-60127781D01*
X57175346Y-60145024D01*
X57160930Y-60160930D01*
X57145024Y-60175346D01*
X57127781Y-60188134D01*
X57109368Y-60199170D01*
X57089962Y-60208349D01*
X57069750Y-60215581D01*
X57048926Y-60220797D01*
X57027691Y-60223947D01*
X57006250Y-60225000D01*
X56493750Y-60225000D01*
X56472309Y-60223947D01*
X56451074Y-60220797D01*
X56430250Y-60215581D01*
X56410038Y-60208349D01*
X56390632Y-60199170D01*
X56372219Y-60188134D01*
X56354976Y-60175346D01*
X56339070Y-60160930D01*
X56324654Y-60145024D01*
X56311866Y-60127781D01*
X56300830Y-60109368D01*
X56291651Y-60089962D01*
X56284419Y-60069750D01*
X56279203Y-60048926D01*
X56276053Y-60027691D01*
X56275000Y-60006250D01*
X56275000Y-59568750D01*
X56276053Y-59547309D01*
X56279203Y-59526074D01*
X56284419Y-59505250D01*
X56291651Y-59485038D01*
X56300830Y-59465632D01*
X56311866Y-59447219D01*
X56324654Y-59429976D01*
X56339070Y-59414070D01*
X56354976Y-59399654D01*
X56372219Y-59386866D01*
X56390632Y-59375830D01*
X56410038Y-59366651D01*
X56430250Y-59359419D01*
X56451074Y-59354203D01*
X56472309Y-59351053D01*
X56493750Y-59350000D01*
X57006250Y-59350000D01*
X57027691Y-59351053D01*
G37*
G36*
X57027691Y-57776053D02*
G01*
X57048926Y-57779203D01*
X57069750Y-57784419D01*
X57089962Y-57791651D01*
X57109368Y-57800830D01*
X57127781Y-57811866D01*
X57145024Y-57824654D01*
X57160930Y-57839070D01*
X57175346Y-57854976D01*
X57188134Y-57872219D01*
X57199170Y-57890632D01*
X57208349Y-57910038D01*
X57215581Y-57930250D01*
X57220797Y-57951074D01*
X57223947Y-57972309D01*
X57225000Y-57993750D01*
X57225000Y-58431250D01*
X57223947Y-58452691D01*
X57220797Y-58473926D01*
X57215581Y-58494750D01*
X57208349Y-58514962D01*
X57199170Y-58534368D01*
X57188134Y-58552781D01*
X57175346Y-58570024D01*
X57160930Y-58585930D01*
X57145024Y-58600346D01*
X57127781Y-58613134D01*
X57109368Y-58624170D01*
X57089962Y-58633349D01*
X57069750Y-58640581D01*
X57048926Y-58645797D01*
X57027691Y-58648947D01*
X57006250Y-58650000D01*
X56493750Y-58650000D01*
X56472309Y-58648947D01*
X56451074Y-58645797D01*
X56430250Y-58640581D01*
X56410038Y-58633349D01*
X56390632Y-58624170D01*
X56372219Y-58613134D01*
X56354976Y-58600346D01*
X56339070Y-58585930D01*
X56324654Y-58570024D01*
X56311866Y-58552781D01*
X56300830Y-58534368D01*
X56291651Y-58514962D01*
X56284419Y-58494750D01*
X56279203Y-58473926D01*
X56276053Y-58452691D01*
X56275000Y-58431250D01*
X56275000Y-57993750D01*
X56276053Y-57972309D01*
X56279203Y-57951074D01*
X56284419Y-57930250D01*
X56291651Y-57910038D01*
X56300830Y-57890632D01*
X56311866Y-57872219D01*
X56324654Y-57854976D01*
X56339070Y-57839070D01*
X56354976Y-57824654D01*
X56372219Y-57811866D01*
X56390632Y-57800830D01*
X56410038Y-57791651D01*
X56430250Y-57784419D01*
X56451074Y-57779203D01*
X56472309Y-57776053D01*
X56493750Y-57775000D01*
X57006250Y-57775000D01*
X57027691Y-57776053D01*
G37*
G36*
X53027691Y-79776053D02*
G01*
X53048926Y-79779203D01*
X53069750Y-79784419D01*
X53089962Y-79791651D01*
X53109368Y-79800830D01*
X53127781Y-79811866D01*
X53145024Y-79824654D01*
X53160930Y-79839070D01*
X53175346Y-79854976D01*
X53188134Y-79872219D01*
X53199170Y-79890632D01*
X53208349Y-79910038D01*
X53215581Y-79930250D01*
X53220797Y-79951074D01*
X53223947Y-79972309D01*
X53225000Y-79993750D01*
X53225000Y-80431250D01*
X53223947Y-80452691D01*
X53220797Y-80473926D01*
X53215581Y-80494750D01*
X53208349Y-80514962D01*
X53199170Y-80534368D01*
X53188134Y-80552781D01*
X53175346Y-80570024D01*
X53160930Y-80585930D01*
X53145024Y-80600346D01*
X53127781Y-80613134D01*
X53109368Y-80624170D01*
X53089962Y-80633349D01*
X53069750Y-80640581D01*
X53048926Y-80645797D01*
X53027691Y-80648947D01*
X53006250Y-80650000D01*
X52493750Y-80650000D01*
X52472309Y-80648947D01*
X52451074Y-80645797D01*
X52430250Y-80640581D01*
X52410038Y-80633349D01*
X52390632Y-80624170D01*
X52372219Y-80613134D01*
X52354976Y-80600346D01*
X52339070Y-80585930D01*
X52324654Y-80570024D01*
X52311866Y-80552781D01*
X52300830Y-80534368D01*
X52291651Y-80514962D01*
X52284419Y-80494750D01*
X52279203Y-80473926D01*
X52276053Y-80452691D01*
X52275000Y-80431250D01*
X52275000Y-79993750D01*
X52276053Y-79972309D01*
X52279203Y-79951074D01*
X52284419Y-79930250D01*
X52291651Y-79910038D01*
X52300830Y-79890632D01*
X52311866Y-79872219D01*
X52324654Y-79854976D01*
X52339070Y-79839070D01*
X52354976Y-79824654D01*
X52372219Y-79811866D01*
X52390632Y-79800830D01*
X52410038Y-79791651D01*
X52430250Y-79784419D01*
X52451074Y-79779203D01*
X52472309Y-79776053D01*
X52493750Y-79775000D01*
X53006250Y-79775000D01*
X53027691Y-79776053D01*
G37*
G36*
X53027691Y-81351053D02*
G01*
X53048926Y-81354203D01*
X53069750Y-81359419D01*
X53089962Y-81366651D01*
X53109368Y-81375830D01*
X53127781Y-81386866D01*
X53145024Y-81399654D01*
X53160930Y-81414070D01*
X53175346Y-81429976D01*
X53188134Y-81447219D01*
X53199170Y-81465632D01*
X53208349Y-81485038D01*
X53215581Y-81505250D01*
X53220797Y-81526074D01*
X53223947Y-81547309D01*
X53225000Y-81568750D01*
X53225000Y-82006250D01*
X53223947Y-82027691D01*
X53220797Y-82048926D01*
X53215581Y-82069750D01*
X53208349Y-82089962D01*
X53199170Y-82109368D01*
X53188134Y-82127781D01*
X53175346Y-82145024D01*
X53160930Y-82160930D01*
X53145024Y-82175346D01*
X53127781Y-82188134D01*
X53109368Y-82199170D01*
X53089962Y-82208349D01*
X53069750Y-82215581D01*
X53048926Y-82220797D01*
X53027691Y-82223947D01*
X53006250Y-82225000D01*
X52493750Y-82225000D01*
X52472309Y-82223947D01*
X52451074Y-82220797D01*
X52430250Y-82215581D01*
X52410038Y-82208349D01*
X52390632Y-82199170D01*
X52372219Y-82188134D01*
X52354976Y-82175346D01*
X52339070Y-82160930D01*
X52324654Y-82145024D01*
X52311866Y-82127781D01*
X52300830Y-82109368D01*
X52291651Y-82089962D01*
X52284419Y-82069750D01*
X52279203Y-82048926D01*
X52276053Y-82027691D01*
X52275000Y-82006250D01*
X52275000Y-81568750D01*
X52276053Y-81547309D01*
X52279203Y-81526074D01*
X52284419Y-81505250D01*
X52291651Y-81485038D01*
X52300830Y-81465632D01*
X52311866Y-81447219D01*
X52324654Y-81429976D01*
X52339070Y-81414070D01*
X52354976Y-81399654D01*
X52372219Y-81386866D01*
X52390632Y-81375830D01*
X52410038Y-81366651D01*
X52430250Y-81359419D01*
X52451074Y-81354203D01*
X52472309Y-81351053D01*
X52493750Y-81350000D01*
X53006250Y-81350000D01*
X53027691Y-81351053D01*
G37*
G36*
X50027691Y-79776053D02*
G01*
X50048926Y-79779203D01*
X50069750Y-79784419D01*
X50089962Y-79791651D01*
X50109368Y-79800830D01*
X50127781Y-79811866D01*
X50145024Y-79824654D01*
X50160930Y-79839070D01*
X50175346Y-79854976D01*
X50188134Y-79872219D01*
X50199170Y-79890632D01*
X50208349Y-79910038D01*
X50215581Y-79930250D01*
X50220797Y-79951074D01*
X50223947Y-79972309D01*
X50225000Y-79993750D01*
X50225000Y-80431250D01*
X50223947Y-80452691D01*
X50220797Y-80473926D01*
X50215581Y-80494750D01*
X50208349Y-80514962D01*
X50199170Y-80534368D01*
X50188134Y-80552781D01*
X50175346Y-80570024D01*
X50160930Y-80585930D01*
X50145024Y-80600346D01*
X50127781Y-80613134D01*
X50109368Y-80624170D01*
X50089962Y-80633349D01*
X50069750Y-80640581D01*
X50048926Y-80645797D01*
X50027691Y-80648947D01*
X50006250Y-80650000D01*
X49493750Y-80650000D01*
X49472309Y-80648947D01*
X49451074Y-80645797D01*
X49430250Y-80640581D01*
X49410038Y-80633349D01*
X49390632Y-80624170D01*
X49372219Y-80613134D01*
X49354976Y-80600346D01*
X49339070Y-80585930D01*
X49324654Y-80570024D01*
X49311866Y-80552781D01*
X49300830Y-80534368D01*
X49291651Y-80514962D01*
X49284419Y-80494750D01*
X49279203Y-80473926D01*
X49276053Y-80452691D01*
X49275000Y-80431250D01*
X49275000Y-79993750D01*
X49276053Y-79972309D01*
X49279203Y-79951074D01*
X49284419Y-79930250D01*
X49291651Y-79910038D01*
X49300830Y-79890632D01*
X49311866Y-79872219D01*
X49324654Y-79854976D01*
X49339070Y-79839070D01*
X49354976Y-79824654D01*
X49372219Y-79811866D01*
X49390632Y-79800830D01*
X49410038Y-79791651D01*
X49430250Y-79784419D01*
X49451074Y-79779203D01*
X49472309Y-79776053D01*
X49493750Y-79775000D01*
X50006250Y-79775000D01*
X50027691Y-79776053D01*
G37*
G36*
X50027691Y-81351053D02*
G01*
X50048926Y-81354203D01*
X50069750Y-81359419D01*
X50089962Y-81366651D01*
X50109368Y-81375830D01*
X50127781Y-81386866D01*
X50145024Y-81399654D01*
X50160930Y-81414070D01*
X50175346Y-81429976D01*
X50188134Y-81447219D01*
X50199170Y-81465632D01*
X50208349Y-81485038D01*
X50215581Y-81505250D01*
X50220797Y-81526074D01*
X50223947Y-81547309D01*
X50225000Y-81568750D01*
X50225000Y-82006250D01*
X50223947Y-82027691D01*
X50220797Y-82048926D01*
X50215581Y-82069750D01*
X50208349Y-82089962D01*
X50199170Y-82109368D01*
X50188134Y-82127781D01*
X50175346Y-82145024D01*
X50160930Y-82160930D01*
X50145024Y-82175346D01*
X50127781Y-82188134D01*
X50109368Y-82199170D01*
X50089962Y-82208349D01*
X50069750Y-82215581D01*
X50048926Y-82220797D01*
X50027691Y-82223947D01*
X50006250Y-82225000D01*
X49493750Y-82225000D01*
X49472309Y-82223947D01*
X49451074Y-82220797D01*
X49430250Y-82215581D01*
X49410038Y-82208349D01*
X49390632Y-82199170D01*
X49372219Y-82188134D01*
X49354976Y-82175346D01*
X49339070Y-82160930D01*
X49324654Y-82145024D01*
X49311866Y-82127781D01*
X49300830Y-82109368D01*
X49291651Y-82089962D01*
X49284419Y-82069750D01*
X49279203Y-82048926D01*
X49276053Y-82027691D01*
X49275000Y-82006250D01*
X49275000Y-81568750D01*
X49276053Y-81547309D01*
X49279203Y-81526074D01*
X49284419Y-81505250D01*
X49291651Y-81485038D01*
X49300830Y-81465632D01*
X49311866Y-81447219D01*
X49324654Y-81429976D01*
X49339070Y-81414070D01*
X49354976Y-81399654D01*
X49372219Y-81386866D01*
X49390632Y-81375830D01*
X49410038Y-81366651D01*
X49430250Y-81359419D01*
X49451074Y-81354203D01*
X49472309Y-81351053D01*
X49493750Y-81350000D01*
X50006250Y-81350000D01*
X50027691Y-81351053D01*
G37*
G36*
X64527691Y-79776053D02*
G01*
X64548926Y-79779203D01*
X64569750Y-79784419D01*
X64589962Y-79791651D01*
X64609368Y-79800830D01*
X64627781Y-79811866D01*
X64645024Y-79824654D01*
X64660930Y-79839070D01*
X64675346Y-79854976D01*
X64688134Y-79872219D01*
X64699170Y-79890632D01*
X64708349Y-79910038D01*
X64715581Y-79930250D01*
X64720797Y-79951074D01*
X64723947Y-79972309D01*
X64725000Y-79993750D01*
X64725000Y-80506250D01*
X64723947Y-80527691D01*
X64720797Y-80548926D01*
X64715581Y-80569750D01*
X64708349Y-80589962D01*
X64699170Y-80609368D01*
X64688134Y-80627781D01*
X64675346Y-80645024D01*
X64660930Y-80660930D01*
X64645024Y-80675346D01*
X64627781Y-80688134D01*
X64609368Y-80699170D01*
X64589962Y-80708349D01*
X64569750Y-80715581D01*
X64548926Y-80720797D01*
X64527691Y-80723947D01*
X64506250Y-80725000D01*
X64068750Y-80725000D01*
X64047309Y-80723947D01*
X64026074Y-80720797D01*
X64005250Y-80715581D01*
X63985038Y-80708349D01*
X63965632Y-80699170D01*
X63947219Y-80688134D01*
X63929976Y-80675346D01*
X63914070Y-80660930D01*
X63899654Y-80645024D01*
X63886866Y-80627781D01*
X63875830Y-80609368D01*
X63866651Y-80589962D01*
X63859419Y-80569750D01*
X63854203Y-80548926D01*
X63851053Y-80527691D01*
X63850000Y-80506250D01*
X63850000Y-79993750D01*
X63851053Y-79972309D01*
X63854203Y-79951074D01*
X63859419Y-79930250D01*
X63866651Y-79910038D01*
X63875830Y-79890632D01*
X63886866Y-79872219D01*
X63899654Y-79854976D01*
X63914070Y-79839070D01*
X63929976Y-79824654D01*
X63947219Y-79811866D01*
X63965632Y-79800830D01*
X63985038Y-79791651D01*
X64005250Y-79784419D01*
X64026074Y-79779203D01*
X64047309Y-79776053D01*
X64068750Y-79775000D01*
X64506250Y-79775000D01*
X64527691Y-79776053D01*
G37*
G36*
X62952691Y-79776053D02*
G01*
X62973926Y-79779203D01*
X62994750Y-79784419D01*
X63014962Y-79791651D01*
X63034368Y-79800830D01*
X63052781Y-79811866D01*
X63070024Y-79824654D01*
X63085930Y-79839070D01*
X63100346Y-79854976D01*
X63113134Y-79872219D01*
X63124170Y-79890632D01*
X63133349Y-79910038D01*
X63140581Y-79930250D01*
X63145797Y-79951074D01*
X63148947Y-79972309D01*
X63150000Y-79993750D01*
X63150000Y-80506250D01*
X63148947Y-80527691D01*
X63145797Y-80548926D01*
X63140581Y-80569750D01*
X63133349Y-80589962D01*
X63124170Y-80609368D01*
X63113134Y-80627781D01*
X63100346Y-80645024D01*
X63085930Y-80660930D01*
X63070024Y-80675346D01*
X63052781Y-80688134D01*
X63034368Y-80699170D01*
X63014962Y-80708349D01*
X62994750Y-80715581D01*
X62973926Y-80720797D01*
X62952691Y-80723947D01*
X62931250Y-80725000D01*
X62493750Y-80725000D01*
X62472309Y-80723947D01*
X62451074Y-80720797D01*
X62430250Y-80715581D01*
X62410038Y-80708349D01*
X62390632Y-80699170D01*
X62372219Y-80688134D01*
X62354976Y-80675346D01*
X62339070Y-80660930D01*
X62324654Y-80645024D01*
X62311866Y-80627781D01*
X62300830Y-80609368D01*
X62291651Y-80589962D01*
X62284419Y-80569750D01*
X62279203Y-80548926D01*
X62276053Y-80527691D01*
X62275000Y-80506250D01*
X62275000Y-79993750D01*
X62276053Y-79972309D01*
X62279203Y-79951074D01*
X62284419Y-79930250D01*
X62291651Y-79910038D01*
X62300830Y-79890632D01*
X62311866Y-79872219D01*
X62324654Y-79854976D01*
X62339070Y-79839070D01*
X62354976Y-79824654D01*
X62372219Y-79811866D01*
X62390632Y-79800830D01*
X62410038Y-79791651D01*
X62430250Y-79784419D01*
X62451074Y-79779203D01*
X62472309Y-79776053D01*
X62493750Y-79775000D01*
X62931250Y-79775000D01*
X62952691Y-79776053D01*
G37*
G36*
X96452691Y-75026053D02*
G01*
X96473926Y-75029203D01*
X96494750Y-75034419D01*
X96514962Y-75041651D01*
X96534368Y-75050830D01*
X96552781Y-75061866D01*
X96570024Y-75074654D01*
X96585930Y-75089070D01*
X96600346Y-75104976D01*
X96613134Y-75122219D01*
X96624170Y-75140632D01*
X96633349Y-75160038D01*
X96640581Y-75180250D01*
X96645797Y-75201074D01*
X96648947Y-75222309D01*
X96650000Y-75243750D01*
X96650000Y-75756250D01*
X96648947Y-75777691D01*
X96645797Y-75798926D01*
X96640581Y-75819750D01*
X96633349Y-75839962D01*
X96624170Y-75859368D01*
X96613134Y-75877781D01*
X96600346Y-75895024D01*
X96585930Y-75910930D01*
X96570024Y-75925346D01*
X96552781Y-75938134D01*
X96534368Y-75949170D01*
X96514962Y-75958349D01*
X96494750Y-75965581D01*
X96473926Y-75970797D01*
X96452691Y-75973947D01*
X96431250Y-75975000D01*
X95993750Y-75975000D01*
X95972309Y-75973947D01*
X95951074Y-75970797D01*
X95930250Y-75965581D01*
X95910038Y-75958349D01*
X95890632Y-75949170D01*
X95872219Y-75938134D01*
X95854976Y-75925346D01*
X95839070Y-75910930D01*
X95824654Y-75895024D01*
X95811866Y-75877781D01*
X95800830Y-75859368D01*
X95791651Y-75839962D01*
X95784419Y-75819750D01*
X95779203Y-75798926D01*
X95776053Y-75777691D01*
X95775000Y-75756250D01*
X95775000Y-75243750D01*
X95776053Y-75222309D01*
X95779203Y-75201074D01*
X95784419Y-75180250D01*
X95791651Y-75160038D01*
X95800830Y-75140632D01*
X95811866Y-75122219D01*
X95824654Y-75104976D01*
X95839070Y-75089070D01*
X95854976Y-75074654D01*
X95872219Y-75061866D01*
X95890632Y-75050830D01*
X95910038Y-75041651D01*
X95930250Y-75034419D01*
X95951074Y-75029203D01*
X95972309Y-75026053D01*
X95993750Y-75025000D01*
X96431250Y-75025000D01*
X96452691Y-75026053D01*
G37*
G36*
X98027691Y-75026053D02*
G01*
X98048926Y-75029203D01*
X98069750Y-75034419D01*
X98089962Y-75041651D01*
X98109368Y-75050830D01*
X98127781Y-75061866D01*
X98145024Y-75074654D01*
X98160930Y-75089070D01*
X98175346Y-75104976D01*
X98188134Y-75122219D01*
X98199170Y-75140632D01*
X98208349Y-75160038D01*
X98215581Y-75180250D01*
X98220797Y-75201074D01*
X98223947Y-75222309D01*
X98225000Y-75243750D01*
X98225000Y-75756250D01*
X98223947Y-75777691D01*
X98220797Y-75798926D01*
X98215581Y-75819750D01*
X98208349Y-75839962D01*
X98199170Y-75859368D01*
X98188134Y-75877781D01*
X98175346Y-75895024D01*
X98160930Y-75910930D01*
X98145024Y-75925346D01*
X98127781Y-75938134D01*
X98109368Y-75949170D01*
X98089962Y-75958349D01*
X98069750Y-75965581D01*
X98048926Y-75970797D01*
X98027691Y-75973947D01*
X98006250Y-75975000D01*
X97568750Y-75975000D01*
X97547309Y-75973947D01*
X97526074Y-75970797D01*
X97505250Y-75965581D01*
X97485038Y-75958349D01*
X97465632Y-75949170D01*
X97447219Y-75938134D01*
X97429976Y-75925346D01*
X97414070Y-75910930D01*
X97399654Y-75895024D01*
X97386866Y-75877781D01*
X97375830Y-75859368D01*
X97366651Y-75839962D01*
X97359419Y-75819750D01*
X97354203Y-75798926D01*
X97351053Y-75777691D01*
X97350000Y-75756250D01*
X97350000Y-75243750D01*
X97351053Y-75222309D01*
X97354203Y-75201074D01*
X97359419Y-75180250D01*
X97366651Y-75160038D01*
X97375830Y-75140632D01*
X97386866Y-75122219D01*
X97399654Y-75104976D01*
X97414070Y-75089070D01*
X97429976Y-75074654D01*
X97447219Y-75061866D01*
X97465632Y-75050830D01*
X97485038Y-75041651D01*
X97505250Y-75034419D01*
X97526074Y-75029203D01*
X97547309Y-75026053D01*
X97568750Y-75025000D01*
X98006250Y-75025000D01*
X98027691Y-75026053D01*
G37*
G36*
X96452691Y-64026053D02*
G01*
X96473926Y-64029203D01*
X96494750Y-64034419D01*
X96514962Y-64041651D01*
X96534368Y-64050830D01*
X96552781Y-64061866D01*
X96570024Y-64074654D01*
X96585930Y-64089070D01*
X96600346Y-64104976D01*
X96613134Y-64122219D01*
X96624170Y-64140632D01*
X96633349Y-64160038D01*
X96640581Y-64180250D01*
X96645797Y-64201074D01*
X96648947Y-64222309D01*
X96650000Y-64243750D01*
X96650000Y-64756250D01*
X96648947Y-64777691D01*
X96645797Y-64798926D01*
X96640581Y-64819750D01*
X96633349Y-64839962D01*
X96624170Y-64859368D01*
X96613134Y-64877781D01*
X96600346Y-64895024D01*
X96585930Y-64910930D01*
X96570024Y-64925346D01*
X96552781Y-64938134D01*
X96534368Y-64949170D01*
X96514962Y-64958349D01*
X96494750Y-64965581D01*
X96473926Y-64970797D01*
X96452691Y-64973947D01*
X96431250Y-64975000D01*
X95993750Y-64975000D01*
X95972309Y-64973947D01*
X95951074Y-64970797D01*
X95930250Y-64965581D01*
X95910038Y-64958349D01*
X95890632Y-64949170D01*
X95872219Y-64938134D01*
X95854976Y-64925346D01*
X95839070Y-64910930D01*
X95824654Y-64895024D01*
X95811866Y-64877781D01*
X95800830Y-64859368D01*
X95791651Y-64839962D01*
X95784419Y-64819750D01*
X95779203Y-64798926D01*
X95776053Y-64777691D01*
X95775000Y-64756250D01*
X95775000Y-64243750D01*
X95776053Y-64222309D01*
X95779203Y-64201074D01*
X95784419Y-64180250D01*
X95791651Y-64160038D01*
X95800830Y-64140632D01*
X95811866Y-64122219D01*
X95824654Y-64104976D01*
X95839070Y-64089070D01*
X95854976Y-64074654D01*
X95872219Y-64061866D01*
X95890632Y-64050830D01*
X95910038Y-64041651D01*
X95930250Y-64034419D01*
X95951074Y-64029203D01*
X95972309Y-64026053D01*
X95993750Y-64025000D01*
X96431250Y-64025000D01*
X96452691Y-64026053D01*
G37*
G36*
X98027691Y-64026053D02*
G01*
X98048926Y-64029203D01*
X98069750Y-64034419D01*
X98089962Y-64041651D01*
X98109368Y-64050830D01*
X98127781Y-64061866D01*
X98145024Y-64074654D01*
X98160930Y-64089070D01*
X98175346Y-64104976D01*
X98188134Y-64122219D01*
X98199170Y-64140632D01*
X98208349Y-64160038D01*
X98215581Y-64180250D01*
X98220797Y-64201074D01*
X98223947Y-64222309D01*
X98225000Y-64243750D01*
X98225000Y-64756250D01*
X98223947Y-64777691D01*
X98220797Y-64798926D01*
X98215581Y-64819750D01*
X98208349Y-64839962D01*
X98199170Y-64859368D01*
X98188134Y-64877781D01*
X98175346Y-64895024D01*
X98160930Y-64910930D01*
X98145024Y-64925346D01*
X98127781Y-64938134D01*
X98109368Y-64949170D01*
X98089962Y-64958349D01*
X98069750Y-64965581D01*
X98048926Y-64970797D01*
X98027691Y-64973947D01*
X98006250Y-64975000D01*
X97568750Y-64975000D01*
X97547309Y-64973947D01*
X97526074Y-64970797D01*
X97505250Y-64965581D01*
X97485038Y-64958349D01*
X97465632Y-64949170D01*
X97447219Y-64938134D01*
X97429976Y-64925346D01*
X97414070Y-64910930D01*
X97399654Y-64895024D01*
X97386866Y-64877781D01*
X97375830Y-64859368D01*
X97366651Y-64839962D01*
X97359419Y-64819750D01*
X97354203Y-64798926D01*
X97351053Y-64777691D01*
X97350000Y-64756250D01*
X97350000Y-64243750D01*
X97351053Y-64222309D01*
X97354203Y-64201074D01*
X97359419Y-64180250D01*
X97366651Y-64160038D01*
X97375830Y-64140632D01*
X97386866Y-64122219D01*
X97399654Y-64104976D01*
X97414070Y-64089070D01*
X97429976Y-64074654D01*
X97447219Y-64061866D01*
X97465632Y-64050830D01*
X97485038Y-64041651D01*
X97505250Y-64034419D01*
X97526074Y-64029203D01*
X97547309Y-64026053D01*
X97568750Y-64025000D01*
X98006250Y-64025000D01*
X98027691Y-64026053D01*
G37*
G36*
X96452691Y-76776053D02*
G01*
X96473926Y-76779203D01*
X96494750Y-76784419D01*
X96514962Y-76791651D01*
X96534368Y-76800830D01*
X96552781Y-76811866D01*
X96570024Y-76824654D01*
X96585930Y-76839070D01*
X96600346Y-76854976D01*
X96613134Y-76872219D01*
X96624170Y-76890632D01*
X96633349Y-76910038D01*
X96640581Y-76930250D01*
X96645797Y-76951074D01*
X96648947Y-76972309D01*
X96650000Y-76993750D01*
X96650000Y-77506250D01*
X96648947Y-77527691D01*
X96645797Y-77548926D01*
X96640581Y-77569750D01*
X96633349Y-77589962D01*
X96624170Y-77609368D01*
X96613134Y-77627781D01*
X96600346Y-77645024D01*
X96585930Y-77660930D01*
X96570024Y-77675346D01*
X96552781Y-77688134D01*
X96534368Y-77699170D01*
X96514962Y-77708349D01*
X96494750Y-77715581D01*
X96473926Y-77720797D01*
X96452691Y-77723947D01*
X96431250Y-77725000D01*
X95993750Y-77725000D01*
X95972309Y-77723947D01*
X95951074Y-77720797D01*
X95930250Y-77715581D01*
X95910038Y-77708349D01*
X95890632Y-77699170D01*
X95872219Y-77688134D01*
X95854976Y-77675346D01*
X95839070Y-77660930D01*
X95824654Y-77645024D01*
X95811866Y-77627781D01*
X95800830Y-77609368D01*
X95791651Y-77589962D01*
X95784419Y-77569750D01*
X95779203Y-77548926D01*
X95776053Y-77527691D01*
X95775000Y-77506250D01*
X95775000Y-76993750D01*
X95776053Y-76972309D01*
X95779203Y-76951074D01*
X95784419Y-76930250D01*
X95791651Y-76910038D01*
X95800830Y-76890632D01*
X95811866Y-76872219D01*
X95824654Y-76854976D01*
X95839070Y-76839070D01*
X95854976Y-76824654D01*
X95872219Y-76811866D01*
X95890632Y-76800830D01*
X95910038Y-76791651D01*
X95930250Y-76784419D01*
X95951074Y-76779203D01*
X95972309Y-76776053D01*
X95993750Y-76775000D01*
X96431250Y-76775000D01*
X96452691Y-76776053D01*
G37*
G36*
X98027691Y-76776053D02*
G01*
X98048926Y-76779203D01*
X98069750Y-76784419D01*
X98089962Y-76791651D01*
X98109368Y-76800830D01*
X98127781Y-76811866D01*
X98145024Y-76824654D01*
X98160930Y-76839070D01*
X98175346Y-76854976D01*
X98188134Y-76872219D01*
X98199170Y-76890632D01*
X98208349Y-76910038D01*
X98215581Y-76930250D01*
X98220797Y-76951074D01*
X98223947Y-76972309D01*
X98225000Y-76993750D01*
X98225000Y-77506250D01*
X98223947Y-77527691D01*
X98220797Y-77548926D01*
X98215581Y-77569750D01*
X98208349Y-77589962D01*
X98199170Y-77609368D01*
X98188134Y-77627781D01*
X98175346Y-77645024D01*
X98160930Y-77660930D01*
X98145024Y-77675346D01*
X98127781Y-77688134D01*
X98109368Y-77699170D01*
X98089962Y-77708349D01*
X98069750Y-77715581D01*
X98048926Y-77720797D01*
X98027691Y-77723947D01*
X98006250Y-77725000D01*
X97568750Y-77725000D01*
X97547309Y-77723947D01*
X97526074Y-77720797D01*
X97505250Y-77715581D01*
X97485038Y-77708349D01*
X97465632Y-77699170D01*
X97447219Y-77688134D01*
X97429976Y-77675346D01*
X97414070Y-77660930D01*
X97399654Y-77645024D01*
X97386866Y-77627781D01*
X97375830Y-77609368D01*
X97366651Y-77589962D01*
X97359419Y-77569750D01*
X97354203Y-77548926D01*
X97351053Y-77527691D01*
X97350000Y-77506250D01*
X97350000Y-76993750D01*
X97351053Y-76972309D01*
X97354203Y-76951074D01*
X97359419Y-76930250D01*
X97366651Y-76910038D01*
X97375830Y-76890632D01*
X97386866Y-76872219D01*
X97399654Y-76854976D01*
X97414070Y-76839070D01*
X97429976Y-76824654D01*
X97447219Y-76811866D01*
X97465632Y-76800830D01*
X97485038Y-76791651D01*
X97505250Y-76784419D01*
X97526074Y-76779203D01*
X97547309Y-76776053D01*
X97568750Y-76775000D01*
X98006250Y-76775000D01*
X98027691Y-76776053D01*
G37*
G36*
X96452691Y-62276053D02*
G01*
X96473926Y-62279203D01*
X96494750Y-62284419D01*
X96514962Y-62291651D01*
X96534368Y-62300830D01*
X96552781Y-62311866D01*
X96570024Y-62324654D01*
X96585930Y-62339070D01*
X96600346Y-62354976D01*
X96613134Y-62372219D01*
X96624170Y-62390632D01*
X96633349Y-62410038D01*
X96640581Y-62430250D01*
X96645797Y-62451074D01*
X96648947Y-62472309D01*
X96650000Y-62493750D01*
X96650000Y-63006250D01*
X96648947Y-63027691D01*
X96645797Y-63048926D01*
X96640581Y-63069750D01*
X96633349Y-63089962D01*
X96624170Y-63109368D01*
X96613134Y-63127781D01*
X96600346Y-63145024D01*
X96585930Y-63160930D01*
X96570024Y-63175346D01*
X96552781Y-63188134D01*
X96534368Y-63199170D01*
X96514962Y-63208349D01*
X96494750Y-63215581D01*
X96473926Y-63220797D01*
X96452691Y-63223947D01*
X96431250Y-63225000D01*
X95993750Y-63225000D01*
X95972309Y-63223947D01*
X95951074Y-63220797D01*
X95930250Y-63215581D01*
X95910038Y-63208349D01*
X95890632Y-63199170D01*
X95872219Y-63188134D01*
X95854976Y-63175346D01*
X95839070Y-63160930D01*
X95824654Y-63145024D01*
X95811866Y-63127781D01*
X95800830Y-63109368D01*
X95791651Y-63089962D01*
X95784419Y-63069750D01*
X95779203Y-63048926D01*
X95776053Y-63027691D01*
X95775000Y-63006250D01*
X95775000Y-62493750D01*
X95776053Y-62472309D01*
X95779203Y-62451074D01*
X95784419Y-62430250D01*
X95791651Y-62410038D01*
X95800830Y-62390632D01*
X95811866Y-62372219D01*
X95824654Y-62354976D01*
X95839070Y-62339070D01*
X95854976Y-62324654D01*
X95872219Y-62311866D01*
X95890632Y-62300830D01*
X95910038Y-62291651D01*
X95930250Y-62284419D01*
X95951074Y-62279203D01*
X95972309Y-62276053D01*
X95993750Y-62275000D01*
X96431250Y-62275000D01*
X96452691Y-62276053D01*
G37*
G36*
X98027691Y-62276053D02*
G01*
X98048926Y-62279203D01*
X98069750Y-62284419D01*
X98089962Y-62291651D01*
X98109368Y-62300830D01*
X98127781Y-62311866D01*
X98145024Y-62324654D01*
X98160930Y-62339070D01*
X98175346Y-62354976D01*
X98188134Y-62372219D01*
X98199170Y-62390632D01*
X98208349Y-62410038D01*
X98215581Y-62430250D01*
X98220797Y-62451074D01*
X98223947Y-62472309D01*
X98225000Y-62493750D01*
X98225000Y-63006250D01*
X98223947Y-63027691D01*
X98220797Y-63048926D01*
X98215581Y-63069750D01*
X98208349Y-63089962D01*
X98199170Y-63109368D01*
X98188134Y-63127781D01*
X98175346Y-63145024D01*
X98160930Y-63160930D01*
X98145024Y-63175346D01*
X98127781Y-63188134D01*
X98109368Y-63199170D01*
X98089962Y-63208349D01*
X98069750Y-63215581D01*
X98048926Y-63220797D01*
X98027691Y-63223947D01*
X98006250Y-63225000D01*
X97568750Y-63225000D01*
X97547309Y-63223947D01*
X97526074Y-63220797D01*
X97505250Y-63215581D01*
X97485038Y-63208349D01*
X97465632Y-63199170D01*
X97447219Y-63188134D01*
X97429976Y-63175346D01*
X97414070Y-63160930D01*
X97399654Y-63145024D01*
X97386866Y-63127781D01*
X97375830Y-63109368D01*
X97366651Y-63089962D01*
X97359419Y-63069750D01*
X97354203Y-63048926D01*
X97351053Y-63027691D01*
X97350000Y-63006250D01*
X97350000Y-62493750D01*
X97351053Y-62472309D01*
X97354203Y-62451074D01*
X97359419Y-62430250D01*
X97366651Y-62410038D01*
X97375830Y-62390632D01*
X97386866Y-62372219D01*
X97399654Y-62354976D01*
X97414070Y-62339070D01*
X97429976Y-62324654D01*
X97447219Y-62311866D01*
X97465632Y-62300830D01*
X97485038Y-62291651D01*
X97505250Y-62284419D01*
X97526074Y-62279203D01*
X97547309Y-62276053D01*
X97568750Y-62275000D01*
X98006250Y-62275000D01*
X98027691Y-62276053D01*
G37*
D13*
X74650000Y-62300000D03*
X74000000Y-62300000D03*
X73350000Y-62300000D03*
X74650000Y-60400000D03*
X74000000Y-60400000D03*
X73350000Y-60400000D03*
D14*
X87450000Y-67350000D03*
X87450000Y-68000000D03*
X87450000Y-68650000D03*
X85550000Y-67350000D03*
X85550000Y-68000000D03*
X85550000Y-68650000D03*
D15*
X87400000Y-75200000D03*
X87400000Y-73300000D03*
X89600000Y-73300000D03*
X89600000Y-74250000D03*
X89600000Y-75200000D03*
D11*
G36*
X59027691Y-57776053D02*
G01*
X59048926Y-57779203D01*
X59069750Y-57784419D01*
X59089962Y-57791651D01*
X59109368Y-57800830D01*
X59127781Y-57811866D01*
X59145024Y-57824654D01*
X59160930Y-57839070D01*
X59175346Y-57854976D01*
X59188134Y-57872219D01*
X59199170Y-57890632D01*
X59208349Y-57910038D01*
X59215581Y-57930250D01*
X59220797Y-57951074D01*
X59223947Y-57972309D01*
X59225000Y-57993750D01*
X59225000Y-58431250D01*
X59223947Y-58452691D01*
X59220797Y-58473926D01*
X59215581Y-58494750D01*
X59208349Y-58514962D01*
X59199170Y-58534368D01*
X59188134Y-58552781D01*
X59175346Y-58570024D01*
X59160930Y-58585930D01*
X59145024Y-58600346D01*
X59127781Y-58613134D01*
X59109368Y-58624170D01*
X59089962Y-58633349D01*
X59069750Y-58640581D01*
X59048926Y-58645797D01*
X59027691Y-58648947D01*
X59006250Y-58650000D01*
X58493750Y-58650000D01*
X58472309Y-58648947D01*
X58451074Y-58645797D01*
X58430250Y-58640581D01*
X58410038Y-58633349D01*
X58390632Y-58624170D01*
X58372219Y-58613134D01*
X58354976Y-58600346D01*
X58339070Y-58585930D01*
X58324654Y-58570024D01*
X58311866Y-58552781D01*
X58300830Y-58534368D01*
X58291651Y-58514962D01*
X58284419Y-58494750D01*
X58279203Y-58473926D01*
X58276053Y-58452691D01*
X58275000Y-58431250D01*
X58275000Y-57993750D01*
X58276053Y-57972309D01*
X58279203Y-57951074D01*
X58284419Y-57930250D01*
X58291651Y-57910038D01*
X58300830Y-57890632D01*
X58311866Y-57872219D01*
X58324654Y-57854976D01*
X58339070Y-57839070D01*
X58354976Y-57824654D01*
X58372219Y-57811866D01*
X58390632Y-57800830D01*
X58410038Y-57791651D01*
X58430250Y-57784419D01*
X58451074Y-57779203D01*
X58472309Y-57776053D01*
X58493750Y-57775000D01*
X59006250Y-57775000D01*
X59027691Y-57776053D01*
G37*
G36*
X59027691Y-59351053D02*
G01*
X59048926Y-59354203D01*
X59069750Y-59359419D01*
X59089962Y-59366651D01*
X59109368Y-59375830D01*
X59127781Y-59386866D01*
X59145024Y-59399654D01*
X59160930Y-59414070D01*
X59175346Y-59429976D01*
X59188134Y-59447219D01*
X59199170Y-59465632D01*
X59208349Y-59485038D01*
X59215581Y-59505250D01*
X59220797Y-59526074D01*
X59223947Y-59547309D01*
X59225000Y-59568750D01*
X59225000Y-60006250D01*
X59223947Y-60027691D01*
X59220797Y-60048926D01*
X59215581Y-60069750D01*
X59208349Y-60089962D01*
X59199170Y-60109368D01*
X59188134Y-60127781D01*
X59175346Y-60145024D01*
X59160930Y-60160930D01*
X59145024Y-60175346D01*
X59127781Y-60188134D01*
X59109368Y-60199170D01*
X59089962Y-60208349D01*
X59069750Y-60215581D01*
X59048926Y-60220797D01*
X59027691Y-60223947D01*
X59006250Y-60225000D01*
X58493750Y-60225000D01*
X58472309Y-60223947D01*
X58451074Y-60220797D01*
X58430250Y-60215581D01*
X58410038Y-60208349D01*
X58390632Y-60199170D01*
X58372219Y-60188134D01*
X58354976Y-60175346D01*
X58339070Y-60160930D01*
X58324654Y-60145024D01*
X58311866Y-60127781D01*
X58300830Y-60109368D01*
X58291651Y-60089962D01*
X58284419Y-60069750D01*
X58279203Y-60048926D01*
X58276053Y-60027691D01*
X58275000Y-60006250D01*
X58275000Y-59568750D01*
X58276053Y-59547309D01*
X58279203Y-59526074D01*
X58284419Y-59505250D01*
X58291651Y-59485038D01*
X58300830Y-59465632D01*
X58311866Y-59447219D01*
X58324654Y-59429976D01*
X58339070Y-59414070D01*
X58354976Y-59399654D01*
X58372219Y-59386866D01*
X58390632Y-59375830D01*
X58410038Y-59366651D01*
X58430250Y-59359419D01*
X58451074Y-59354203D01*
X58472309Y-59351053D01*
X58493750Y-59350000D01*
X59006250Y-59350000D01*
X59027691Y-59351053D01*
G37*
G36*
X90649505Y-67576204D02*
G01*
X90673773Y-67579804D01*
X90697572Y-67585765D01*
X90720671Y-67594030D01*
X90742850Y-67604520D01*
X90763893Y-67617132D01*
X90783599Y-67631747D01*
X90801777Y-67648223D01*
X90818253Y-67666401D01*
X90832868Y-67686107D01*
X90845480Y-67707150D01*
X90855970Y-67729329D01*
X90864235Y-67752428D01*
X90870196Y-67776227D01*
X90873796Y-67800495D01*
X90875000Y-67824999D01*
X90875000Y-68375001D01*
X90873796Y-68399505D01*
X90870196Y-68423773D01*
X90864235Y-68447572D01*
X90855970Y-68470671D01*
X90845480Y-68492850D01*
X90832868Y-68513893D01*
X90818253Y-68533599D01*
X90801777Y-68551777D01*
X90783599Y-68568253D01*
X90763893Y-68582868D01*
X90742850Y-68595480D01*
X90720671Y-68605970D01*
X90697572Y-68614235D01*
X90673773Y-68620196D01*
X90649505Y-68623796D01*
X90625001Y-68625000D01*
X90074999Y-68625000D01*
X90050495Y-68623796D01*
X90026227Y-68620196D01*
X90002428Y-68614235D01*
X89979329Y-68605970D01*
X89957150Y-68595480D01*
X89936107Y-68582868D01*
X89916401Y-68568253D01*
X89898223Y-68551777D01*
X89881747Y-68533599D01*
X89867132Y-68513893D01*
X89854520Y-68492850D01*
X89844030Y-68470671D01*
X89835765Y-68447572D01*
X89829804Y-68423773D01*
X89826204Y-68399505D01*
X89825000Y-68375001D01*
X89825000Y-67824999D01*
X89826204Y-67800495D01*
X89829804Y-67776227D01*
X89835765Y-67752428D01*
X89844030Y-67729329D01*
X89854520Y-67707150D01*
X89867132Y-67686107D01*
X89881747Y-67666401D01*
X89898223Y-67648223D01*
X89916401Y-67631747D01*
X89936107Y-67617132D01*
X89957150Y-67604520D01*
X89979329Y-67594030D01*
X90002428Y-67585765D01*
X90026227Y-67579804D01*
X90050495Y-67576204D01*
X90074999Y-67575000D01*
X90625001Y-67575000D01*
X90649505Y-67576204D01*
G37*
G36*
X90649505Y-68876204D02*
G01*
X90673773Y-68879804D01*
X90697572Y-68885765D01*
X90720671Y-68894030D01*
X90742850Y-68904520D01*
X90763893Y-68917132D01*
X90783599Y-68931747D01*
X90801777Y-68948223D01*
X90818253Y-68966401D01*
X90832868Y-68986107D01*
X90845480Y-69007150D01*
X90855970Y-69029329D01*
X90864235Y-69052428D01*
X90870196Y-69076227D01*
X90873796Y-69100495D01*
X90875000Y-69124999D01*
X90875000Y-69675001D01*
X90873796Y-69699505D01*
X90870196Y-69723773D01*
X90864235Y-69747572D01*
X90855970Y-69770671D01*
X90845480Y-69792850D01*
X90832868Y-69813893D01*
X90818253Y-69833599D01*
X90801777Y-69851777D01*
X90783599Y-69868253D01*
X90763893Y-69882868D01*
X90742850Y-69895480D01*
X90720671Y-69905970D01*
X90697572Y-69914235D01*
X90673773Y-69920196D01*
X90649505Y-69923796D01*
X90625001Y-69925000D01*
X90074999Y-69925000D01*
X90050495Y-69923796D01*
X90026227Y-69920196D01*
X90002428Y-69914235D01*
X89979329Y-69905970D01*
X89957150Y-69895480D01*
X89936107Y-69882868D01*
X89916401Y-69868253D01*
X89898223Y-69851777D01*
X89881747Y-69833599D01*
X89867132Y-69813893D01*
X89854520Y-69792850D01*
X89844030Y-69770671D01*
X89835765Y-69747572D01*
X89829804Y-69723773D01*
X89826204Y-69699505D01*
X89825000Y-69675001D01*
X89825000Y-69124999D01*
X89826204Y-69100495D01*
X89829804Y-69076227D01*
X89835765Y-69052428D01*
X89844030Y-69029329D01*
X89854520Y-69007150D01*
X89867132Y-68986107D01*
X89881747Y-68966401D01*
X89898223Y-68948223D01*
X89916401Y-68931747D01*
X89936107Y-68917132D01*
X89957150Y-68904520D01*
X89979329Y-68894030D01*
X90002428Y-68885765D01*
X90026227Y-68879804D01*
X90050495Y-68876204D01*
X90074999Y-68875000D01*
X90625001Y-68875000D01*
X90649505Y-68876204D01*
G37*
G36*
X91949505Y-67576204D02*
G01*
X91973773Y-67579804D01*
X91997572Y-67585765D01*
X92020671Y-67594030D01*
X92042850Y-67604520D01*
X92063893Y-67617132D01*
X92083599Y-67631747D01*
X92101777Y-67648223D01*
X92118253Y-67666401D01*
X92132868Y-67686107D01*
X92145480Y-67707150D01*
X92155970Y-67729329D01*
X92164235Y-67752428D01*
X92170196Y-67776227D01*
X92173796Y-67800495D01*
X92175000Y-67824999D01*
X92175000Y-68375001D01*
X92173796Y-68399505D01*
X92170196Y-68423773D01*
X92164235Y-68447572D01*
X92155970Y-68470671D01*
X92145480Y-68492850D01*
X92132868Y-68513893D01*
X92118253Y-68533599D01*
X92101777Y-68551777D01*
X92083599Y-68568253D01*
X92063893Y-68582868D01*
X92042850Y-68595480D01*
X92020671Y-68605970D01*
X91997572Y-68614235D01*
X91973773Y-68620196D01*
X91949505Y-68623796D01*
X91925001Y-68625000D01*
X91374999Y-68625000D01*
X91350495Y-68623796D01*
X91326227Y-68620196D01*
X91302428Y-68614235D01*
X91279329Y-68605970D01*
X91257150Y-68595480D01*
X91236107Y-68582868D01*
X91216401Y-68568253D01*
X91198223Y-68551777D01*
X91181747Y-68533599D01*
X91167132Y-68513893D01*
X91154520Y-68492850D01*
X91144030Y-68470671D01*
X91135765Y-68447572D01*
X91129804Y-68423773D01*
X91126204Y-68399505D01*
X91125000Y-68375001D01*
X91125000Y-67824999D01*
X91126204Y-67800495D01*
X91129804Y-67776227D01*
X91135765Y-67752428D01*
X91144030Y-67729329D01*
X91154520Y-67707150D01*
X91167132Y-67686107D01*
X91181747Y-67666401D01*
X91198223Y-67648223D01*
X91216401Y-67631747D01*
X91236107Y-67617132D01*
X91257150Y-67604520D01*
X91279329Y-67594030D01*
X91302428Y-67585765D01*
X91326227Y-67579804D01*
X91350495Y-67576204D01*
X91374999Y-67575000D01*
X91925001Y-67575000D01*
X91949505Y-67576204D01*
G37*
G36*
X91949505Y-68876204D02*
G01*
X91973773Y-68879804D01*
X91997572Y-68885765D01*
X92020671Y-68894030D01*
X92042850Y-68904520D01*
X92063893Y-68917132D01*
X92083599Y-68931747D01*
X92101777Y-68948223D01*
X92118253Y-68966401D01*
X92132868Y-68986107D01*
X92145480Y-69007150D01*
X92155970Y-69029329D01*
X92164235Y-69052428D01*
X92170196Y-69076227D01*
X92173796Y-69100495D01*
X92175000Y-69124999D01*
X92175000Y-69675001D01*
X92173796Y-69699505D01*
X92170196Y-69723773D01*
X92164235Y-69747572D01*
X92155970Y-69770671D01*
X92145480Y-69792850D01*
X92132868Y-69813893D01*
X92118253Y-69833599D01*
X92101777Y-69851777D01*
X92083599Y-69868253D01*
X92063893Y-69882868D01*
X92042850Y-69895480D01*
X92020671Y-69905970D01*
X91997572Y-69914235D01*
X91973773Y-69920196D01*
X91949505Y-69923796D01*
X91925001Y-69925000D01*
X91374999Y-69925000D01*
X91350495Y-69923796D01*
X91326227Y-69920196D01*
X91302428Y-69914235D01*
X91279329Y-69905970D01*
X91257150Y-69895480D01*
X91236107Y-69882868D01*
X91216401Y-69868253D01*
X91198223Y-69851777D01*
X91181747Y-69833599D01*
X91167132Y-69813893D01*
X91154520Y-69792850D01*
X91144030Y-69770671D01*
X91135765Y-69747572D01*
X91129804Y-69723773D01*
X91126204Y-69699505D01*
X91125000Y-69675001D01*
X91125000Y-69124999D01*
X91126204Y-69100495D01*
X91129804Y-69076227D01*
X91135765Y-69052428D01*
X91144030Y-69029329D01*
X91154520Y-69007150D01*
X91167132Y-68986107D01*
X91181747Y-68966401D01*
X91198223Y-68948223D01*
X91216401Y-68931747D01*
X91236107Y-68917132D01*
X91257150Y-68904520D01*
X91279329Y-68894030D01*
X91302428Y-68885765D01*
X91326227Y-68879804D01*
X91350495Y-68876204D01*
X91374999Y-68875000D01*
X91925001Y-68875000D01*
X91949505Y-68876204D01*
G37*
G36*
X92318626Y-70275301D02*
G01*
X92324693Y-70276201D01*
X92330643Y-70277691D01*
X92336418Y-70279758D01*
X92341962Y-70282380D01*
X92347223Y-70285533D01*
X92352150Y-70289187D01*
X92356694Y-70293306D01*
X92360813Y-70297850D01*
X92364467Y-70302777D01*
X92367620Y-70308038D01*
X92370242Y-70313582D01*
X92372309Y-70319357D01*
X92373799Y-70325307D01*
X92374699Y-70331374D01*
X92375000Y-70337500D01*
X92375000Y-71037500D01*
X92374699Y-71043626D01*
X92373799Y-71049693D01*
X92372309Y-71055643D01*
X92370242Y-71061418D01*
X92367620Y-71066962D01*
X92364467Y-71072223D01*
X92360813Y-71077150D01*
X92356694Y-71081694D01*
X92352150Y-71085813D01*
X92347223Y-71089467D01*
X92341962Y-71092620D01*
X92336418Y-71095242D01*
X92330643Y-71097309D01*
X92324693Y-71098799D01*
X92318626Y-71099699D01*
X92312500Y-71100000D01*
X92187500Y-71100000D01*
X92181374Y-71099699D01*
X92175307Y-71098799D01*
X92169357Y-71097309D01*
X92163582Y-71095242D01*
X92158038Y-71092620D01*
X92152777Y-71089467D01*
X92147850Y-71085813D01*
X92143306Y-71081694D01*
X92139187Y-71077150D01*
X92135533Y-71072223D01*
X92132380Y-71066962D01*
X92129758Y-71061418D01*
X92127691Y-71055643D01*
X92126201Y-71049693D01*
X92125301Y-71043626D01*
X92125000Y-71037500D01*
X92125000Y-70337500D01*
X92125301Y-70331374D01*
X92126201Y-70325307D01*
X92127691Y-70319357D01*
X92129758Y-70313582D01*
X92132380Y-70308038D01*
X92135533Y-70302777D01*
X92139187Y-70297850D01*
X92143306Y-70293306D01*
X92147850Y-70289187D01*
X92152777Y-70285533D01*
X92158038Y-70282380D01*
X92163582Y-70279758D01*
X92169357Y-70277691D01*
X92175307Y-70276201D01*
X92181374Y-70275301D01*
X92187500Y-70275000D01*
X92312500Y-70275000D01*
X92318626Y-70275301D01*
G37*
G36*
X91818626Y-70275301D02*
G01*
X91824693Y-70276201D01*
X91830643Y-70277691D01*
X91836418Y-70279758D01*
X91841962Y-70282380D01*
X91847223Y-70285533D01*
X91852150Y-70289187D01*
X91856694Y-70293306D01*
X91860813Y-70297850D01*
X91864467Y-70302777D01*
X91867620Y-70308038D01*
X91870242Y-70313582D01*
X91872309Y-70319357D01*
X91873799Y-70325307D01*
X91874699Y-70331374D01*
X91875000Y-70337500D01*
X91875000Y-71037500D01*
X91874699Y-71043626D01*
X91873799Y-71049693D01*
X91872309Y-71055643D01*
X91870242Y-71061418D01*
X91867620Y-71066962D01*
X91864467Y-71072223D01*
X91860813Y-71077150D01*
X91856694Y-71081694D01*
X91852150Y-71085813D01*
X91847223Y-71089467D01*
X91841962Y-71092620D01*
X91836418Y-71095242D01*
X91830643Y-71097309D01*
X91824693Y-71098799D01*
X91818626Y-71099699D01*
X91812500Y-71100000D01*
X91687500Y-71100000D01*
X91681374Y-71099699D01*
X91675307Y-71098799D01*
X91669357Y-71097309D01*
X91663582Y-71095242D01*
X91658038Y-71092620D01*
X91652777Y-71089467D01*
X91647850Y-71085813D01*
X91643306Y-71081694D01*
X91639187Y-71077150D01*
X91635533Y-71072223D01*
X91632380Y-71066962D01*
X91629758Y-71061418D01*
X91627691Y-71055643D01*
X91626201Y-71049693D01*
X91625301Y-71043626D01*
X91625000Y-71037500D01*
X91625000Y-70337500D01*
X91625301Y-70331374D01*
X91626201Y-70325307D01*
X91627691Y-70319357D01*
X91629758Y-70313582D01*
X91632380Y-70308038D01*
X91635533Y-70302777D01*
X91639187Y-70297850D01*
X91643306Y-70293306D01*
X91647850Y-70289187D01*
X91652777Y-70285533D01*
X91658038Y-70282380D01*
X91663582Y-70279758D01*
X91669357Y-70277691D01*
X91675307Y-70276201D01*
X91681374Y-70275301D01*
X91687500Y-70275000D01*
X91812500Y-70275000D01*
X91818626Y-70275301D01*
G37*
G36*
X91318626Y-70275301D02*
G01*
X91324693Y-70276201D01*
X91330643Y-70277691D01*
X91336418Y-70279758D01*
X91341962Y-70282380D01*
X91347223Y-70285533D01*
X91352150Y-70289187D01*
X91356694Y-70293306D01*
X91360813Y-70297850D01*
X91364467Y-70302777D01*
X91367620Y-70308038D01*
X91370242Y-70313582D01*
X91372309Y-70319357D01*
X91373799Y-70325307D01*
X91374699Y-70331374D01*
X91375000Y-70337500D01*
X91375000Y-71037500D01*
X91374699Y-71043626D01*
X91373799Y-71049693D01*
X91372309Y-71055643D01*
X91370242Y-71061418D01*
X91367620Y-71066962D01*
X91364467Y-71072223D01*
X91360813Y-71077150D01*
X91356694Y-71081694D01*
X91352150Y-71085813D01*
X91347223Y-71089467D01*
X91341962Y-71092620D01*
X91336418Y-71095242D01*
X91330643Y-71097309D01*
X91324693Y-71098799D01*
X91318626Y-71099699D01*
X91312500Y-71100000D01*
X91187500Y-71100000D01*
X91181374Y-71099699D01*
X91175307Y-71098799D01*
X91169357Y-71097309D01*
X91163582Y-71095242D01*
X91158038Y-71092620D01*
X91152777Y-71089467D01*
X91147850Y-71085813D01*
X91143306Y-71081694D01*
X91139187Y-71077150D01*
X91135533Y-71072223D01*
X91132380Y-71066962D01*
X91129758Y-71061418D01*
X91127691Y-71055643D01*
X91126201Y-71049693D01*
X91125301Y-71043626D01*
X91125000Y-71037500D01*
X91125000Y-70337500D01*
X91125301Y-70331374D01*
X91126201Y-70325307D01*
X91127691Y-70319357D01*
X91129758Y-70313582D01*
X91132380Y-70308038D01*
X91135533Y-70302777D01*
X91139187Y-70297850D01*
X91143306Y-70293306D01*
X91147850Y-70289187D01*
X91152777Y-70285533D01*
X91158038Y-70282380D01*
X91163582Y-70279758D01*
X91169357Y-70277691D01*
X91175307Y-70276201D01*
X91181374Y-70275301D01*
X91187500Y-70275000D01*
X91312500Y-70275000D01*
X91318626Y-70275301D01*
G37*
G36*
X90818626Y-70275301D02*
G01*
X90824693Y-70276201D01*
X90830643Y-70277691D01*
X90836418Y-70279758D01*
X90841962Y-70282380D01*
X90847223Y-70285533D01*
X90852150Y-70289187D01*
X90856694Y-70293306D01*
X90860813Y-70297850D01*
X90864467Y-70302777D01*
X90867620Y-70308038D01*
X90870242Y-70313582D01*
X90872309Y-70319357D01*
X90873799Y-70325307D01*
X90874699Y-70331374D01*
X90875000Y-70337500D01*
X90875000Y-71037500D01*
X90874699Y-71043626D01*
X90873799Y-71049693D01*
X90872309Y-71055643D01*
X90870242Y-71061418D01*
X90867620Y-71066962D01*
X90864467Y-71072223D01*
X90860813Y-71077150D01*
X90856694Y-71081694D01*
X90852150Y-71085813D01*
X90847223Y-71089467D01*
X90841962Y-71092620D01*
X90836418Y-71095242D01*
X90830643Y-71097309D01*
X90824693Y-71098799D01*
X90818626Y-71099699D01*
X90812500Y-71100000D01*
X90687500Y-71100000D01*
X90681374Y-71099699D01*
X90675307Y-71098799D01*
X90669357Y-71097309D01*
X90663582Y-71095242D01*
X90658038Y-71092620D01*
X90652777Y-71089467D01*
X90647850Y-71085813D01*
X90643306Y-71081694D01*
X90639187Y-71077150D01*
X90635533Y-71072223D01*
X90632380Y-71066962D01*
X90629758Y-71061418D01*
X90627691Y-71055643D01*
X90626201Y-71049693D01*
X90625301Y-71043626D01*
X90625000Y-71037500D01*
X90625000Y-70337500D01*
X90625301Y-70331374D01*
X90626201Y-70325307D01*
X90627691Y-70319357D01*
X90629758Y-70313582D01*
X90632380Y-70308038D01*
X90635533Y-70302777D01*
X90639187Y-70297850D01*
X90643306Y-70293306D01*
X90647850Y-70289187D01*
X90652777Y-70285533D01*
X90658038Y-70282380D01*
X90663582Y-70279758D01*
X90669357Y-70277691D01*
X90675307Y-70276201D01*
X90681374Y-70275301D01*
X90687500Y-70275000D01*
X90812500Y-70275000D01*
X90818626Y-70275301D01*
G37*
G36*
X90318626Y-70275301D02*
G01*
X90324693Y-70276201D01*
X90330643Y-70277691D01*
X90336418Y-70279758D01*
X90341962Y-70282380D01*
X90347223Y-70285533D01*
X90352150Y-70289187D01*
X90356694Y-70293306D01*
X90360813Y-70297850D01*
X90364467Y-70302777D01*
X90367620Y-70308038D01*
X90370242Y-70313582D01*
X90372309Y-70319357D01*
X90373799Y-70325307D01*
X90374699Y-70331374D01*
X90375000Y-70337500D01*
X90375000Y-71037500D01*
X90374699Y-71043626D01*
X90373799Y-71049693D01*
X90372309Y-71055643D01*
X90370242Y-71061418D01*
X90367620Y-71066962D01*
X90364467Y-71072223D01*
X90360813Y-71077150D01*
X90356694Y-71081694D01*
X90352150Y-71085813D01*
X90347223Y-71089467D01*
X90341962Y-71092620D01*
X90336418Y-71095242D01*
X90330643Y-71097309D01*
X90324693Y-71098799D01*
X90318626Y-71099699D01*
X90312500Y-71100000D01*
X90187500Y-71100000D01*
X90181374Y-71099699D01*
X90175307Y-71098799D01*
X90169357Y-71097309D01*
X90163582Y-71095242D01*
X90158038Y-71092620D01*
X90152777Y-71089467D01*
X90147850Y-71085813D01*
X90143306Y-71081694D01*
X90139187Y-71077150D01*
X90135533Y-71072223D01*
X90132380Y-71066962D01*
X90129758Y-71061418D01*
X90127691Y-71055643D01*
X90126201Y-71049693D01*
X90125301Y-71043626D01*
X90125000Y-71037500D01*
X90125000Y-70337500D01*
X90125301Y-70331374D01*
X90126201Y-70325307D01*
X90127691Y-70319357D01*
X90129758Y-70313582D01*
X90132380Y-70308038D01*
X90135533Y-70302777D01*
X90139187Y-70297850D01*
X90143306Y-70293306D01*
X90147850Y-70289187D01*
X90152777Y-70285533D01*
X90158038Y-70282380D01*
X90163582Y-70279758D01*
X90169357Y-70277691D01*
X90175307Y-70276201D01*
X90181374Y-70275301D01*
X90187500Y-70275000D01*
X90312500Y-70275000D01*
X90318626Y-70275301D01*
G37*
G36*
X89818626Y-70275301D02*
G01*
X89824693Y-70276201D01*
X89830643Y-70277691D01*
X89836418Y-70279758D01*
X89841962Y-70282380D01*
X89847223Y-70285533D01*
X89852150Y-70289187D01*
X89856694Y-70293306D01*
X89860813Y-70297850D01*
X89864467Y-70302777D01*
X89867620Y-70308038D01*
X89870242Y-70313582D01*
X89872309Y-70319357D01*
X89873799Y-70325307D01*
X89874699Y-70331374D01*
X89875000Y-70337500D01*
X89875000Y-71037500D01*
X89874699Y-71043626D01*
X89873799Y-71049693D01*
X89872309Y-71055643D01*
X89870242Y-71061418D01*
X89867620Y-71066962D01*
X89864467Y-71072223D01*
X89860813Y-71077150D01*
X89856694Y-71081694D01*
X89852150Y-71085813D01*
X89847223Y-71089467D01*
X89841962Y-71092620D01*
X89836418Y-71095242D01*
X89830643Y-71097309D01*
X89824693Y-71098799D01*
X89818626Y-71099699D01*
X89812500Y-71100000D01*
X89687500Y-71100000D01*
X89681374Y-71099699D01*
X89675307Y-71098799D01*
X89669357Y-71097309D01*
X89663582Y-71095242D01*
X89658038Y-71092620D01*
X89652777Y-71089467D01*
X89647850Y-71085813D01*
X89643306Y-71081694D01*
X89639187Y-71077150D01*
X89635533Y-71072223D01*
X89632380Y-71066962D01*
X89629758Y-71061418D01*
X89627691Y-71055643D01*
X89626201Y-71049693D01*
X89625301Y-71043626D01*
X89625000Y-71037500D01*
X89625000Y-70337500D01*
X89625301Y-70331374D01*
X89626201Y-70325307D01*
X89627691Y-70319357D01*
X89629758Y-70313582D01*
X89632380Y-70308038D01*
X89635533Y-70302777D01*
X89639187Y-70297850D01*
X89643306Y-70293306D01*
X89647850Y-70289187D01*
X89652777Y-70285533D01*
X89658038Y-70282380D01*
X89663582Y-70279758D01*
X89669357Y-70277691D01*
X89675307Y-70276201D01*
X89681374Y-70275301D01*
X89687500Y-70275000D01*
X89812500Y-70275000D01*
X89818626Y-70275301D01*
G37*
G36*
X89418626Y-69875301D02*
G01*
X89424693Y-69876201D01*
X89430643Y-69877691D01*
X89436418Y-69879758D01*
X89441962Y-69882380D01*
X89447223Y-69885533D01*
X89452150Y-69889187D01*
X89456694Y-69893306D01*
X89460813Y-69897850D01*
X89464467Y-69902777D01*
X89467620Y-69908038D01*
X89470242Y-69913582D01*
X89472309Y-69919357D01*
X89473799Y-69925307D01*
X89474699Y-69931374D01*
X89475000Y-69937500D01*
X89475000Y-70062500D01*
X89474699Y-70068626D01*
X89473799Y-70074693D01*
X89472309Y-70080643D01*
X89470242Y-70086418D01*
X89467620Y-70091962D01*
X89464467Y-70097223D01*
X89460813Y-70102150D01*
X89456694Y-70106694D01*
X89452150Y-70110813D01*
X89447223Y-70114467D01*
X89441962Y-70117620D01*
X89436418Y-70120242D01*
X89430643Y-70122309D01*
X89424693Y-70123799D01*
X89418626Y-70124699D01*
X89412500Y-70125000D01*
X88712500Y-70125000D01*
X88706374Y-70124699D01*
X88700307Y-70123799D01*
X88694357Y-70122309D01*
X88688582Y-70120242D01*
X88683038Y-70117620D01*
X88677777Y-70114467D01*
X88672850Y-70110813D01*
X88668306Y-70106694D01*
X88664187Y-70102150D01*
X88660533Y-70097223D01*
X88657380Y-70091962D01*
X88654758Y-70086418D01*
X88652691Y-70080643D01*
X88651201Y-70074693D01*
X88650301Y-70068626D01*
X88650000Y-70062500D01*
X88650000Y-69937500D01*
X88650301Y-69931374D01*
X88651201Y-69925307D01*
X88652691Y-69919357D01*
X88654758Y-69913582D01*
X88657380Y-69908038D01*
X88660533Y-69902777D01*
X88664187Y-69897850D01*
X88668306Y-69893306D01*
X88672850Y-69889187D01*
X88677777Y-69885533D01*
X88683038Y-69882380D01*
X88688582Y-69879758D01*
X88694357Y-69877691D01*
X88700307Y-69876201D01*
X88706374Y-69875301D01*
X88712500Y-69875000D01*
X89412500Y-69875000D01*
X89418626Y-69875301D01*
G37*
G36*
X89418626Y-69375301D02*
G01*
X89424693Y-69376201D01*
X89430643Y-69377691D01*
X89436418Y-69379758D01*
X89441962Y-69382380D01*
X89447223Y-69385533D01*
X89452150Y-69389187D01*
X89456694Y-69393306D01*
X89460813Y-69397850D01*
X89464467Y-69402777D01*
X89467620Y-69408038D01*
X89470242Y-69413582D01*
X89472309Y-69419357D01*
X89473799Y-69425307D01*
X89474699Y-69431374D01*
X89475000Y-69437500D01*
X89475000Y-69562500D01*
X89474699Y-69568626D01*
X89473799Y-69574693D01*
X89472309Y-69580643D01*
X89470242Y-69586418D01*
X89467620Y-69591962D01*
X89464467Y-69597223D01*
X89460813Y-69602150D01*
X89456694Y-69606694D01*
X89452150Y-69610813D01*
X89447223Y-69614467D01*
X89441962Y-69617620D01*
X89436418Y-69620242D01*
X89430643Y-69622309D01*
X89424693Y-69623799D01*
X89418626Y-69624699D01*
X89412500Y-69625000D01*
X88712500Y-69625000D01*
X88706374Y-69624699D01*
X88700307Y-69623799D01*
X88694357Y-69622309D01*
X88688582Y-69620242D01*
X88683038Y-69617620D01*
X88677777Y-69614467D01*
X88672850Y-69610813D01*
X88668306Y-69606694D01*
X88664187Y-69602150D01*
X88660533Y-69597223D01*
X88657380Y-69591962D01*
X88654758Y-69586418D01*
X88652691Y-69580643D01*
X88651201Y-69574693D01*
X88650301Y-69568626D01*
X88650000Y-69562500D01*
X88650000Y-69437500D01*
X88650301Y-69431374D01*
X88651201Y-69425307D01*
X88652691Y-69419357D01*
X88654758Y-69413582D01*
X88657380Y-69408038D01*
X88660533Y-69402777D01*
X88664187Y-69397850D01*
X88668306Y-69393306D01*
X88672850Y-69389187D01*
X88677777Y-69385533D01*
X88683038Y-69382380D01*
X88688582Y-69379758D01*
X88694357Y-69377691D01*
X88700307Y-69376201D01*
X88706374Y-69375301D01*
X88712500Y-69375000D01*
X89412500Y-69375000D01*
X89418626Y-69375301D01*
G37*
G36*
X89418626Y-68875301D02*
G01*
X89424693Y-68876201D01*
X89430643Y-68877691D01*
X89436418Y-68879758D01*
X89441962Y-68882380D01*
X89447223Y-68885533D01*
X89452150Y-68889187D01*
X89456694Y-68893306D01*
X89460813Y-68897850D01*
X89464467Y-68902777D01*
X89467620Y-68908038D01*
X89470242Y-68913582D01*
X89472309Y-68919357D01*
X89473799Y-68925307D01*
X89474699Y-68931374D01*
X89475000Y-68937500D01*
X89475000Y-69062500D01*
X89474699Y-69068626D01*
X89473799Y-69074693D01*
X89472309Y-69080643D01*
X89470242Y-69086418D01*
X89467620Y-69091962D01*
X89464467Y-69097223D01*
X89460813Y-69102150D01*
X89456694Y-69106694D01*
X89452150Y-69110813D01*
X89447223Y-69114467D01*
X89441962Y-69117620D01*
X89436418Y-69120242D01*
X89430643Y-69122309D01*
X89424693Y-69123799D01*
X89418626Y-69124699D01*
X89412500Y-69125000D01*
X88712500Y-69125000D01*
X88706374Y-69124699D01*
X88700307Y-69123799D01*
X88694357Y-69122309D01*
X88688582Y-69120242D01*
X88683038Y-69117620D01*
X88677777Y-69114467D01*
X88672850Y-69110813D01*
X88668306Y-69106694D01*
X88664187Y-69102150D01*
X88660533Y-69097223D01*
X88657380Y-69091962D01*
X88654758Y-69086418D01*
X88652691Y-69080643D01*
X88651201Y-69074693D01*
X88650301Y-69068626D01*
X88650000Y-69062500D01*
X88650000Y-68937500D01*
X88650301Y-68931374D01*
X88651201Y-68925307D01*
X88652691Y-68919357D01*
X88654758Y-68913582D01*
X88657380Y-68908038D01*
X88660533Y-68902777D01*
X88664187Y-68897850D01*
X88668306Y-68893306D01*
X88672850Y-68889187D01*
X88677777Y-68885533D01*
X88683038Y-68882380D01*
X88688582Y-68879758D01*
X88694357Y-68877691D01*
X88700307Y-68876201D01*
X88706374Y-68875301D01*
X88712500Y-68875000D01*
X89412500Y-68875000D01*
X89418626Y-68875301D01*
G37*
G36*
X89418626Y-68375301D02*
G01*
X89424693Y-68376201D01*
X89430643Y-68377691D01*
X89436418Y-68379758D01*
X89441962Y-68382380D01*
X89447223Y-68385533D01*
X89452150Y-68389187D01*
X89456694Y-68393306D01*
X89460813Y-68397850D01*
X89464467Y-68402777D01*
X89467620Y-68408038D01*
X89470242Y-68413582D01*
X89472309Y-68419357D01*
X89473799Y-68425307D01*
X89474699Y-68431374D01*
X89475000Y-68437500D01*
X89475000Y-68562500D01*
X89474699Y-68568626D01*
X89473799Y-68574693D01*
X89472309Y-68580643D01*
X89470242Y-68586418D01*
X89467620Y-68591962D01*
X89464467Y-68597223D01*
X89460813Y-68602150D01*
X89456694Y-68606694D01*
X89452150Y-68610813D01*
X89447223Y-68614467D01*
X89441962Y-68617620D01*
X89436418Y-68620242D01*
X89430643Y-68622309D01*
X89424693Y-68623799D01*
X89418626Y-68624699D01*
X89412500Y-68625000D01*
X88712500Y-68625000D01*
X88706374Y-68624699D01*
X88700307Y-68623799D01*
X88694357Y-68622309D01*
X88688582Y-68620242D01*
X88683038Y-68617620D01*
X88677777Y-68614467D01*
X88672850Y-68610813D01*
X88668306Y-68606694D01*
X88664187Y-68602150D01*
X88660533Y-68597223D01*
X88657380Y-68591962D01*
X88654758Y-68586418D01*
X88652691Y-68580643D01*
X88651201Y-68574693D01*
X88650301Y-68568626D01*
X88650000Y-68562500D01*
X88650000Y-68437500D01*
X88650301Y-68431374D01*
X88651201Y-68425307D01*
X88652691Y-68419357D01*
X88654758Y-68413582D01*
X88657380Y-68408038D01*
X88660533Y-68402777D01*
X88664187Y-68397850D01*
X88668306Y-68393306D01*
X88672850Y-68389187D01*
X88677777Y-68385533D01*
X88683038Y-68382380D01*
X88688582Y-68379758D01*
X88694357Y-68377691D01*
X88700307Y-68376201D01*
X88706374Y-68375301D01*
X88712500Y-68375000D01*
X89412500Y-68375000D01*
X89418626Y-68375301D01*
G37*
G36*
X89418626Y-67875301D02*
G01*
X89424693Y-67876201D01*
X89430643Y-67877691D01*
X89436418Y-67879758D01*
X89441962Y-67882380D01*
X89447223Y-67885533D01*
X89452150Y-67889187D01*
X89456694Y-67893306D01*
X89460813Y-67897850D01*
X89464467Y-67902777D01*
X89467620Y-67908038D01*
X89470242Y-67913582D01*
X89472309Y-67919357D01*
X89473799Y-67925307D01*
X89474699Y-67931374D01*
X89475000Y-67937500D01*
X89475000Y-68062500D01*
X89474699Y-68068626D01*
X89473799Y-68074693D01*
X89472309Y-68080643D01*
X89470242Y-68086418D01*
X89467620Y-68091962D01*
X89464467Y-68097223D01*
X89460813Y-68102150D01*
X89456694Y-68106694D01*
X89452150Y-68110813D01*
X89447223Y-68114467D01*
X89441962Y-68117620D01*
X89436418Y-68120242D01*
X89430643Y-68122309D01*
X89424693Y-68123799D01*
X89418626Y-68124699D01*
X89412500Y-68125000D01*
X88712500Y-68125000D01*
X88706374Y-68124699D01*
X88700307Y-68123799D01*
X88694357Y-68122309D01*
X88688582Y-68120242D01*
X88683038Y-68117620D01*
X88677777Y-68114467D01*
X88672850Y-68110813D01*
X88668306Y-68106694D01*
X88664187Y-68102150D01*
X88660533Y-68097223D01*
X88657380Y-68091962D01*
X88654758Y-68086418D01*
X88652691Y-68080643D01*
X88651201Y-68074693D01*
X88650301Y-68068626D01*
X88650000Y-68062500D01*
X88650000Y-67937500D01*
X88650301Y-67931374D01*
X88651201Y-67925307D01*
X88652691Y-67919357D01*
X88654758Y-67913582D01*
X88657380Y-67908038D01*
X88660533Y-67902777D01*
X88664187Y-67897850D01*
X88668306Y-67893306D01*
X88672850Y-67889187D01*
X88677777Y-67885533D01*
X88683038Y-67882380D01*
X88688582Y-67879758D01*
X88694357Y-67877691D01*
X88700307Y-67876201D01*
X88706374Y-67875301D01*
X88712500Y-67875000D01*
X89412500Y-67875000D01*
X89418626Y-67875301D01*
G37*
G36*
X89418626Y-67375301D02*
G01*
X89424693Y-67376201D01*
X89430643Y-67377691D01*
X89436418Y-67379758D01*
X89441962Y-67382380D01*
X89447223Y-67385533D01*
X89452150Y-67389187D01*
X89456694Y-67393306D01*
X89460813Y-67397850D01*
X89464467Y-67402777D01*
X89467620Y-67408038D01*
X89470242Y-67413582D01*
X89472309Y-67419357D01*
X89473799Y-67425307D01*
X89474699Y-67431374D01*
X89475000Y-67437500D01*
X89475000Y-67562500D01*
X89474699Y-67568626D01*
X89473799Y-67574693D01*
X89472309Y-67580643D01*
X89470242Y-67586418D01*
X89467620Y-67591962D01*
X89464467Y-67597223D01*
X89460813Y-67602150D01*
X89456694Y-67606694D01*
X89452150Y-67610813D01*
X89447223Y-67614467D01*
X89441962Y-67617620D01*
X89436418Y-67620242D01*
X89430643Y-67622309D01*
X89424693Y-67623799D01*
X89418626Y-67624699D01*
X89412500Y-67625000D01*
X88712500Y-67625000D01*
X88706374Y-67624699D01*
X88700307Y-67623799D01*
X88694357Y-67622309D01*
X88688582Y-67620242D01*
X88683038Y-67617620D01*
X88677777Y-67614467D01*
X88672850Y-67610813D01*
X88668306Y-67606694D01*
X88664187Y-67602150D01*
X88660533Y-67597223D01*
X88657380Y-67591962D01*
X88654758Y-67586418D01*
X88652691Y-67580643D01*
X88651201Y-67574693D01*
X88650301Y-67568626D01*
X88650000Y-67562500D01*
X88650000Y-67437500D01*
X88650301Y-67431374D01*
X88651201Y-67425307D01*
X88652691Y-67419357D01*
X88654758Y-67413582D01*
X88657380Y-67408038D01*
X88660533Y-67402777D01*
X88664187Y-67397850D01*
X88668306Y-67393306D01*
X88672850Y-67389187D01*
X88677777Y-67385533D01*
X88683038Y-67382380D01*
X88688582Y-67379758D01*
X88694357Y-67377691D01*
X88700307Y-67376201D01*
X88706374Y-67375301D01*
X88712500Y-67375000D01*
X89412500Y-67375000D01*
X89418626Y-67375301D01*
G37*
G36*
X89818626Y-66400301D02*
G01*
X89824693Y-66401201D01*
X89830643Y-66402691D01*
X89836418Y-66404758D01*
X89841962Y-66407380D01*
X89847223Y-66410533D01*
X89852150Y-66414187D01*
X89856694Y-66418306D01*
X89860813Y-66422850D01*
X89864467Y-66427777D01*
X89867620Y-66433038D01*
X89870242Y-66438582D01*
X89872309Y-66444357D01*
X89873799Y-66450307D01*
X89874699Y-66456374D01*
X89875000Y-66462500D01*
X89875000Y-67162500D01*
X89874699Y-67168626D01*
X89873799Y-67174693D01*
X89872309Y-67180643D01*
X89870242Y-67186418D01*
X89867620Y-67191962D01*
X89864467Y-67197223D01*
X89860813Y-67202150D01*
X89856694Y-67206694D01*
X89852150Y-67210813D01*
X89847223Y-67214467D01*
X89841962Y-67217620D01*
X89836418Y-67220242D01*
X89830643Y-67222309D01*
X89824693Y-67223799D01*
X89818626Y-67224699D01*
X89812500Y-67225000D01*
X89687500Y-67225000D01*
X89681374Y-67224699D01*
X89675307Y-67223799D01*
X89669357Y-67222309D01*
X89663582Y-67220242D01*
X89658038Y-67217620D01*
X89652777Y-67214467D01*
X89647850Y-67210813D01*
X89643306Y-67206694D01*
X89639187Y-67202150D01*
X89635533Y-67197223D01*
X89632380Y-67191962D01*
X89629758Y-67186418D01*
X89627691Y-67180643D01*
X89626201Y-67174693D01*
X89625301Y-67168626D01*
X89625000Y-67162500D01*
X89625000Y-66462500D01*
X89625301Y-66456374D01*
X89626201Y-66450307D01*
X89627691Y-66444357D01*
X89629758Y-66438582D01*
X89632380Y-66433038D01*
X89635533Y-66427777D01*
X89639187Y-66422850D01*
X89643306Y-66418306D01*
X89647850Y-66414187D01*
X89652777Y-66410533D01*
X89658038Y-66407380D01*
X89663582Y-66404758D01*
X89669357Y-66402691D01*
X89675307Y-66401201D01*
X89681374Y-66400301D01*
X89687500Y-66400000D01*
X89812500Y-66400000D01*
X89818626Y-66400301D01*
G37*
G36*
X90318626Y-66400301D02*
G01*
X90324693Y-66401201D01*
X90330643Y-66402691D01*
X90336418Y-66404758D01*
X90341962Y-66407380D01*
X90347223Y-66410533D01*
X90352150Y-66414187D01*
X90356694Y-66418306D01*
X90360813Y-66422850D01*
X90364467Y-66427777D01*
X90367620Y-66433038D01*
X90370242Y-66438582D01*
X90372309Y-66444357D01*
X90373799Y-66450307D01*
X90374699Y-66456374D01*
X90375000Y-66462500D01*
X90375000Y-67162500D01*
X90374699Y-67168626D01*
X90373799Y-67174693D01*
X90372309Y-67180643D01*
X90370242Y-67186418D01*
X90367620Y-67191962D01*
X90364467Y-67197223D01*
X90360813Y-67202150D01*
X90356694Y-67206694D01*
X90352150Y-67210813D01*
X90347223Y-67214467D01*
X90341962Y-67217620D01*
X90336418Y-67220242D01*
X90330643Y-67222309D01*
X90324693Y-67223799D01*
X90318626Y-67224699D01*
X90312500Y-67225000D01*
X90187500Y-67225000D01*
X90181374Y-67224699D01*
X90175307Y-67223799D01*
X90169357Y-67222309D01*
X90163582Y-67220242D01*
X90158038Y-67217620D01*
X90152777Y-67214467D01*
X90147850Y-67210813D01*
X90143306Y-67206694D01*
X90139187Y-67202150D01*
X90135533Y-67197223D01*
X90132380Y-67191962D01*
X90129758Y-67186418D01*
X90127691Y-67180643D01*
X90126201Y-67174693D01*
X90125301Y-67168626D01*
X90125000Y-67162500D01*
X90125000Y-66462500D01*
X90125301Y-66456374D01*
X90126201Y-66450307D01*
X90127691Y-66444357D01*
X90129758Y-66438582D01*
X90132380Y-66433038D01*
X90135533Y-66427777D01*
X90139187Y-66422850D01*
X90143306Y-66418306D01*
X90147850Y-66414187D01*
X90152777Y-66410533D01*
X90158038Y-66407380D01*
X90163582Y-66404758D01*
X90169357Y-66402691D01*
X90175307Y-66401201D01*
X90181374Y-66400301D01*
X90187500Y-66400000D01*
X90312500Y-66400000D01*
X90318626Y-66400301D01*
G37*
G36*
X90818626Y-66400301D02*
G01*
X90824693Y-66401201D01*
X90830643Y-66402691D01*
X90836418Y-66404758D01*
X90841962Y-66407380D01*
X90847223Y-66410533D01*
X90852150Y-66414187D01*
X90856694Y-66418306D01*
X90860813Y-66422850D01*
X90864467Y-66427777D01*
X90867620Y-66433038D01*
X90870242Y-66438582D01*
X90872309Y-66444357D01*
X90873799Y-66450307D01*
X90874699Y-66456374D01*
X90875000Y-66462500D01*
X90875000Y-67162500D01*
X90874699Y-67168626D01*
X90873799Y-67174693D01*
X90872309Y-67180643D01*
X90870242Y-67186418D01*
X90867620Y-67191962D01*
X90864467Y-67197223D01*
X90860813Y-67202150D01*
X90856694Y-67206694D01*
X90852150Y-67210813D01*
X90847223Y-67214467D01*
X90841962Y-67217620D01*
X90836418Y-67220242D01*
X90830643Y-67222309D01*
X90824693Y-67223799D01*
X90818626Y-67224699D01*
X90812500Y-67225000D01*
X90687500Y-67225000D01*
X90681374Y-67224699D01*
X90675307Y-67223799D01*
X90669357Y-67222309D01*
X90663582Y-67220242D01*
X90658038Y-67217620D01*
X90652777Y-67214467D01*
X90647850Y-67210813D01*
X90643306Y-67206694D01*
X90639187Y-67202150D01*
X90635533Y-67197223D01*
X90632380Y-67191962D01*
X90629758Y-67186418D01*
X90627691Y-67180643D01*
X90626201Y-67174693D01*
X90625301Y-67168626D01*
X90625000Y-67162500D01*
X90625000Y-66462500D01*
X90625301Y-66456374D01*
X90626201Y-66450307D01*
X90627691Y-66444357D01*
X90629758Y-66438582D01*
X90632380Y-66433038D01*
X90635533Y-66427777D01*
X90639187Y-66422850D01*
X90643306Y-66418306D01*
X90647850Y-66414187D01*
X90652777Y-66410533D01*
X90658038Y-66407380D01*
X90663582Y-66404758D01*
X90669357Y-66402691D01*
X90675307Y-66401201D01*
X90681374Y-66400301D01*
X90687500Y-66400000D01*
X90812500Y-66400000D01*
X90818626Y-66400301D01*
G37*
G36*
X91318626Y-66400301D02*
G01*
X91324693Y-66401201D01*
X91330643Y-66402691D01*
X91336418Y-66404758D01*
X91341962Y-66407380D01*
X91347223Y-66410533D01*
X91352150Y-66414187D01*
X91356694Y-66418306D01*
X91360813Y-66422850D01*
X91364467Y-66427777D01*
X91367620Y-66433038D01*
X91370242Y-66438582D01*
X91372309Y-66444357D01*
X91373799Y-66450307D01*
X91374699Y-66456374D01*
X91375000Y-66462500D01*
X91375000Y-67162500D01*
X91374699Y-67168626D01*
X91373799Y-67174693D01*
X91372309Y-67180643D01*
X91370242Y-67186418D01*
X91367620Y-67191962D01*
X91364467Y-67197223D01*
X91360813Y-67202150D01*
X91356694Y-67206694D01*
X91352150Y-67210813D01*
X91347223Y-67214467D01*
X91341962Y-67217620D01*
X91336418Y-67220242D01*
X91330643Y-67222309D01*
X91324693Y-67223799D01*
X91318626Y-67224699D01*
X91312500Y-67225000D01*
X91187500Y-67225000D01*
X91181374Y-67224699D01*
X91175307Y-67223799D01*
X91169357Y-67222309D01*
X91163582Y-67220242D01*
X91158038Y-67217620D01*
X91152777Y-67214467D01*
X91147850Y-67210813D01*
X91143306Y-67206694D01*
X91139187Y-67202150D01*
X91135533Y-67197223D01*
X91132380Y-67191962D01*
X91129758Y-67186418D01*
X91127691Y-67180643D01*
X91126201Y-67174693D01*
X91125301Y-67168626D01*
X91125000Y-67162500D01*
X91125000Y-66462500D01*
X91125301Y-66456374D01*
X91126201Y-66450307D01*
X91127691Y-66444357D01*
X91129758Y-66438582D01*
X91132380Y-66433038D01*
X91135533Y-66427777D01*
X91139187Y-66422850D01*
X91143306Y-66418306D01*
X91147850Y-66414187D01*
X91152777Y-66410533D01*
X91158038Y-66407380D01*
X91163582Y-66404758D01*
X91169357Y-66402691D01*
X91175307Y-66401201D01*
X91181374Y-66400301D01*
X91187500Y-66400000D01*
X91312500Y-66400000D01*
X91318626Y-66400301D01*
G37*
G36*
X91818626Y-66400301D02*
G01*
X91824693Y-66401201D01*
X91830643Y-66402691D01*
X91836418Y-66404758D01*
X91841962Y-66407380D01*
X91847223Y-66410533D01*
X91852150Y-66414187D01*
X91856694Y-66418306D01*
X91860813Y-66422850D01*
X91864467Y-66427777D01*
X91867620Y-66433038D01*
X91870242Y-66438582D01*
X91872309Y-66444357D01*
X91873799Y-66450307D01*
X91874699Y-66456374D01*
X91875000Y-66462500D01*
X91875000Y-67162500D01*
X91874699Y-67168626D01*
X91873799Y-67174693D01*
X91872309Y-67180643D01*
X91870242Y-67186418D01*
X91867620Y-67191962D01*
X91864467Y-67197223D01*
X91860813Y-67202150D01*
X91856694Y-67206694D01*
X91852150Y-67210813D01*
X91847223Y-67214467D01*
X91841962Y-67217620D01*
X91836418Y-67220242D01*
X91830643Y-67222309D01*
X91824693Y-67223799D01*
X91818626Y-67224699D01*
X91812500Y-67225000D01*
X91687500Y-67225000D01*
X91681374Y-67224699D01*
X91675307Y-67223799D01*
X91669357Y-67222309D01*
X91663582Y-67220242D01*
X91658038Y-67217620D01*
X91652777Y-67214467D01*
X91647850Y-67210813D01*
X91643306Y-67206694D01*
X91639187Y-67202150D01*
X91635533Y-67197223D01*
X91632380Y-67191962D01*
X91629758Y-67186418D01*
X91627691Y-67180643D01*
X91626201Y-67174693D01*
X91625301Y-67168626D01*
X91625000Y-67162500D01*
X91625000Y-66462500D01*
X91625301Y-66456374D01*
X91626201Y-66450307D01*
X91627691Y-66444357D01*
X91629758Y-66438582D01*
X91632380Y-66433038D01*
X91635533Y-66427777D01*
X91639187Y-66422850D01*
X91643306Y-66418306D01*
X91647850Y-66414187D01*
X91652777Y-66410533D01*
X91658038Y-66407380D01*
X91663582Y-66404758D01*
X91669357Y-66402691D01*
X91675307Y-66401201D01*
X91681374Y-66400301D01*
X91687500Y-66400000D01*
X91812500Y-66400000D01*
X91818626Y-66400301D01*
G37*
G36*
X92318626Y-66400301D02*
G01*
X92324693Y-66401201D01*
X92330643Y-66402691D01*
X92336418Y-66404758D01*
X92341962Y-66407380D01*
X92347223Y-66410533D01*
X92352150Y-66414187D01*
X92356694Y-66418306D01*
X92360813Y-66422850D01*
X92364467Y-66427777D01*
X92367620Y-66433038D01*
X92370242Y-66438582D01*
X92372309Y-66444357D01*
X92373799Y-66450307D01*
X92374699Y-66456374D01*
X92375000Y-66462500D01*
X92375000Y-67162500D01*
X92374699Y-67168626D01*
X92373799Y-67174693D01*
X92372309Y-67180643D01*
X92370242Y-67186418D01*
X92367620Y-67191962D01*
X92364467Y-67197223D01*
X92360813Y-67202150D01*
X92356694Y-67206694D01*
X92352150Y-67210813D01*
X92347223Y-67214467D01*
X92341962Y-67217620D01*
X92336418Y-67220242D01*
X92330643Y-67222309D01*
X92324693Y-67223799D01*
X92318626Y-67224699D01*
X92312500Y-67225000D01*
X92187500Y-67225000D01*
X92181374Y-67224699D01*
X92175307Y-67223799D01*
X92169357Y-67222309D01*
X92163582Y-67220242D01*
X92158038Y-67217620D01*
X92152777Y-67214467D01*
X92147850Y-67210813D01*
X92143306Y-67206694D01*
X92139187Y-67202150D01*
X92135533Y-67197223D01*
X92132380Y-67191962D01*
X92129758Y-67186418D01*
X92127691Y-67180643D01*
X92126201Y-67174693D01*
X92125301Y-67168626D01*
X92125000Y-67162500D01*
X92125000Y-66462500D01*
X92125301Y-66456374D01*
X92126201Y-66450307D01*
X92127691Y-66444357D01*
X92129758Y-66438582D01*
X92132380Y-66433038D01*
X92135533Y-66427777D01*
X92139187Y-66422850D01*
X92143306Y-66418306D01*
X92147850Y-66414187D01*
X92152777Y-66410533D01*
X92158038Y-66407380D01*
X92163582Y-66404758D01*
X92169357Y-66402691D01*
X92175307Y-66401201D01*
X92181374Y-66400301D01*
X92187500Y-66400000D01*
X92312500Y-66400000D01*
X92318626Y-66400301D01*
G37*
G36*
X93293626Y-67375301D02*
G01*
X93299693Y-67376201D01*
X93305643Y-67377691D01*
X93311418Y-67379758D01*
X93316962Y-67382380D01*
X93322223Y-67385533D01*
X93327150Y-67389187D01*
X93331694Y-67393306D01*
X93335813Y-67397850D01*
X93339467Y-67402777D01*
X93342620Y-67408038D01*
X93345242Y-67413582D01*
X93347309Y-67419357D01*
X93348799Y-67425307D01*
X93349699Y-67431374D01*
X93350000Y-67437500D01*
X93350000Y-67562500D01*
X93349699Y-67568626D01*
X93348799Y-67574693D01*
X93347309Y-67580643D01*
X93345242Y-67586418D01*
X93342620Y-67591962D01*
X93339467Y-67597223D01*
X93335813Y-67602150D01*
X93331694Y-67606694D01*
X93327150Y-67610813D01*
X93322223Y-67614467D01*
X93316962Y-67617620D01*
X93311418Y-67620242D01*
X93305643Y-67622309D01*
X93299693Y-67623799D01*
X93293626Y-67624699D01*
X93287500Y-67625000D01*
X92587500Y-67625000D01*
X92581374Y-67624699D01*
X92575307Y-67623799D01*
X92569357Y-67622309D01*
X92563582Y-67620242D01*
X92558038Y-67617620D01*
X92552777Y-67614467D01*
X92547850Y-67610813D01*
X92543306Y-67606694D01*
X92539187Y-67602150D01*
X92535533Y-67597223D01*
X92532380Y-67591962D01*
X92529758Y-67586418D01*
X92527691Y-67580643D01*
X92526201Y-67574693D01*
X92525301Y-67568626D01*
X92525000Y-67562500D01*
X92525000Y-67437500D01*
X92525301Y-67431374D01*
X92526201Y-67425307D01*
X92527691Y-67419357D01*
X92529758Y-67413582D01*
X92532380Y-67408038D01*
X92535533Y-67402777D01*
X92539187Y-67397850D01*
X92543306Y-67393306D01*
X92547850Y-67389187D01*
X92552777Y-67385533D01*
X92558038Y-67382380D01*
X92563582Y-67379758D01*
X92569357Y-67377691D01*
X92575307Y-67376201D01*
X92581374Y-67375301D01*
X92587500Y-67375000D01*
X93287500Y-67375000D01*
X93293626Y-67375301D01*
G37*
G36*
X93293626Y-67875301D02*
G01*
X93299693Y-67876201D01*
X93305643Y-67877691D01*
X93311418Y-67879758D01*
X93316962Y-67882380D01*
X93322223Y-67885533D01*
X93327150Y-67889187D01*
X93331694Y-67893306D01*
X93335813Y-67897850D01*
X93339467Y-67902777D01*
X93342620Y-67908038D01*
X93345242Y-67913582D01*
X93347309Y-67919357D01*
X93348799Y-67925307D01*
X93349699Y-67931374D01*
X93350000Y-67937500D01*
X93350000Y-68062500D01*
X93349699Y-68068626D01*
X93348799Y-68074693D01*
X93347309Y-68080643D01*
X93345242Y-68086418D01*
X93342620Y-68091962D01*
X93339467Y-68097223D01*
X93335813Y-68102150D01*
X93331694Y-68106694D01*
X93327150Y-68110813D01*
X93322223Y-68114467D01*
X93316962Y-68117620D01*
X93311418Y-68120242D01*
X93305643Y-68122309D01*
X93299693Y-68123799D01*
X93293626Y-68124699D01*
X93287500Y-68125000D01*
X92587500Y-68125000D01*
X92581374Y-68124699D01*
X92575307Y-68123799D01*
X92569357Y-68122309D01*
X92563582Y-68120242D01*
X92558038Y-68117620D01*
X92552777Y-68114467D01*
X92547850Y-68110813D01*
X92543306Y-68106694D01*
X92539187Y-68102150D01*
X92535533Y-68097223D01*
X92532380Y-68091962D01*
X92529758Y-68086418D01*
X92527691Y-68080643D01*
X92526201Y-68074693D01*
X92525301Y-68068626D01*
X92525000Y-68062500D01*
X92525000Y-67937500D01*
X92525301Y-67931374D01*
X92526201Y-67925307D01*
X92527691Y-67919357D01*
X92529758Y-67913582D01*
X92532380Y-67908038D01*
X92535533Y-67902777D01*
X92539187Y-67897850D01*
X92543306Y-67893306D01*
X92547850Y-67889187D01*
X92552777Y-67885533D01*
X92558038Y-67882380D01*
X92563582Y-67879758D01*
X92569357Y-67877691D01*
X92575307Y-67876201D01*
X92581374Y-67875301D01*
X92587500Y-67875000D01*
X93287500Y-67875000D01*
X93293626Y-67875301D01*
G37*
G36*
X93293626Y-68375301D02*
G01*
X93299693Y-68376201D01*
X93305643Y-68377691D01*
X93311418Y-68379758D01*
X93316962Y-68382380D01*
X93322223Y-68385533D01*
X93327150Y-68389187D01*
X93331694Y-68393306D01*
X93335813Y-68397850D01*
X93339467Y-68402777D01*
X93342620Y-68408038D01*
X93345242Y-68413582D01*
X93347309Y-68419357D01*
X93348799Y-68425307D01*
X93349699Y-68431374D01*
X93350000Y-68437500D01*
X93350000Y-68562500D01*
X93349699Y-68568626D01*
X93348799Y-68574693D01*
X93347309Y-68580643D01*
X93345242Y-68586418D01*
X93342620Y-68591962D01*
X93339467Y-68597223D01*
X93335813Y-68602150D01*
X93331694Y-68606694D01*
X93327150Y-68610813D01*
X93322223Y-68614467D01*
X93316962Y-68617620D01*
X93311418Y-68620242D01*
X93305643Y-68622309D01*
X93299693Y-68623799D01*
X93293626Y-68624699D01*
X93287500Y-68625000D01*
X92587500Y-68625000D01*
X92581374Y-68624699D01*
X92575307Y-68623799D01*
X92569357Y-68622309D01*
X92563582Y-68620242D01*
X92558038Y-68617620D01*
X92552777Y-68614467D01*
X92547850Y-68610813D01*
X92543306Y-68606694D01*
X92539187Y-68602150D01*
X92535533Y-68597223D01*
X92532380Y-68591962D01*
X92529758Y-68586418D01*
X92527691Y-68580643D01*
X92526201Y-68574693D01*
X92525301Y-68568626D01*
X92525000Y-68562500D01*
X92525000Y-68437500D01*
X92525301Y-68431374D01*
X92526201Y-68425307D01*
X92527691Y-68419357D01*
X92529758Y-68413582D01*
X92532380Y-68408038D01*
X92535533Y-68402777D01*
X92539187Y-68397850D01*
X92543306Y-68393306D01*
X92547850Y-68389187D01*
X92552777Y-68385533D01*
X92558038Y-68382380D01*
X92563582Y-68379758D01*
X92569357Y-68377691D01*
X92575307Y-68376201D01*
X92581374Y-68375301D01*
X92587500Y-68375000D01*
X93287500Y-68375000D01*
X93293626Y-68375301D01*
G37*
G36*
X93293626Y-68875301D02*
G01*
X93299693Y-68876201D01*
X93305643Y-68877691D01*
X93311418Y-68879758D01*
X93316962Y-68882380D01*
X93322223Y-68885533D01*
X93327150Y-68889187D01*
X93331694Y-68893306D01*
X93335813Y-68897850D01*
X93339467Y-68902777D01*
X93342620Y-68908038D01*
X93345242Y-68913582D01*
X93347309Y-68919357D01*
X93348799Y-68925307D01*
X93349699Y-68931374D01*
X93350000Y-68937500D01*
X93350000Y-69062500D01*
X93349699Y-69068626D01*
X93348799Y-69074693D01*
X93347309Y-69080643D01*
X93345242Y-69086418D01*
X93342620Y-69091962D01*
X93339467Y-69097223D01*
X93335813Y-69102150D01*
X93331694Y-69106694D01*
X93327150Y-69110813D01*
X93322223Y-69114467D01*
X93316962Y-69117620D01*
X93311418Y-69120242D01*
X93305643Y-69122309D01*
X93299693Y-69123799D01*
X93293626Y-69124699D01*
X93287500Y-69125000D01*
X92587500Y-69125000D01*
X92581374Y-69124699D01*
X92575307Y-69123799D01*
X92569357Y-69122309D01*
X92563582Y-69120242D01*
X92558038Y-69117620D01*
X92552777Y-69114467D01*
X92547850Y-69110813D01*
X92543306Y-69106694D01*
X92539187Y-69102150D01*
X92535533Y-69097223D01*
X92532380Y-69091962D01*
X92529758Y-69086418D01*
X92527691Y-69080643D01*
X92526201Y-69074693D01*
X92525301Y-69068626D01*
X92525000Y-69062500D01*
X92525000Y-68937500D01*
X92525301Y-68931374D01*
X92526201Y-68925307D01*
X92527691Y-68919357D01*
X92529758Y-68913582D01*
X92532380Y-68908038D01*
X92535533Y-68902777D01*
X92539187Y-68897850D01*
X92543306Y-68893306D01*
X92547850Y-68889187D01*
X92552777Y-68885533D01*
X92558038Y-68882380D01*
X92563582Y-68879758D01*
X92569357Y-68877691D01*
X92575307Y-68876201D01*
X92581374Y-68875301D01*
X92587500Y-68875000D01*
X93287500Y-68875000D01*
X93293626Y-68875301D01*
G37*
G36*
X93293626Y-69375301D02*
G01*
X93299693Y-69376201D01*
X93305643Y-69377691D01*
X93311418Y-69379758D01*
X93316962Y-69382380D01*
X93322223Y-69385533D01*
X93327150Y-69389187D01*
X93331694Y-69393306D01*
X93335813Y-69397850D01*
X93339467Y-69402777D01*
X93342620Y-69408038D01*
X93345242Y-69413582D01*
X93347309Y-69419357D01*
X93348799Y-69425307D01*
X93349699Y-69431374D01*
X93350000Y-69437500D01*
X93350000Y-69562500D01*
X93349699Y-69568626D01*
X93348799Y-69574693D01*
X93347309Y-69580643D01*
X93345242Y-69586418D01*
X93342620Y-69591962D01*
X93339467Y-69597223D01*
X93335813Y-69602150D01*
X93331694Y-69606694D01*
X93327150Y-69610813D01*
X93322223Y-69614467D01*
X93316962Y-69617620D01*
X93311418Y-69620242D01*
X93305643Y-69622309D01*
X93299693Y-69623799D01*
X93293626Y-69624699D01*
X93287500Y-69625000D01*
X92587500Y-69625000D01*
X92581374Y-69624699D01*
X92575307Y-69623799D01*
X92569357Y-69622309D01*
X92563582Y-69620242D01*
X92558038Y-69617620D01*
X92552777Y-69614467D01*
X92547850Y-69610813D01*
X92543306Y-69606694D01*
X92539187Y-69602150D01*
X92535533Y-69597223D01*
X92532380Y-69591962D01*
X92529758Y-69586418D01*
X92527691Y-69580643D01*
X92526201Y-69574693D01*
X92525301Y-69568626D01*
X92525000Y-69562500D01*
X92525000Y-69437500D01*
X92525301Y-69431374D01*
X92526201Y-69425307D01*
X92527691Y-69419357D01*
X92529758Y-69413582D01*
X92532380Y-69408038D01*
X92535533Y-69402777D01*
X92539187Y-69397850D01*
X92543306Y-69393306D01*
X92547850Y-69389187D01*
X92552777Y-69385533D01*
X92558038Y-69382380D01*
X92563582Y-69379758D01*
X92569357Y-69377691D01*
X92575307Y-69376201D01*
X92581374Y-69375301D01*
X92587500Y-69375000D01*
X93287500Y-69375000D01*
X93293626Y-69375301D01*
G37*
G36*
X93293626Y-69875301D02*
G01*
X93299693Y-69876201D01*
X93305643Y-69877691D01*
X93311418Y-69879758D01*
X93316962Y-69882380D01*
X93322223Y-69885533D01*
X93327150Y-69889187D01*
X93331694Y-69893306D01*
X93335813Y-69897850D01*
X93339467Y-69902777D01*
X93342620Y-69908038D01*
X93345242Y-69913582D01*
X93347309Y-69919357D01*
X93348799Y-69925307D01*
X93349699Y-69931374D01*
X93350000Y-69937500D01*
X93350000Y-70062500D01*
X93349699Y-70068626D01*
X93348799Y-70074693D01*
X93347309Y-70080643D01*
X93345242Y-70086418D01*
X93342620Y-70091962D01*
X93339467Y-70097223D01*
X93335813Y-70102150D01*
X93331694Y-70106694D01*
X93327150Y-70110813D01*
X93322223Y-70114467D01*
X93316962Y-70117620D01*
X93311418Y-70120242D01*
X93305643Y-70122309D01*
X93299693Y-70123799D01*
X93293626Y-70124699D01*
X93287500Y-70125000D01*
X92587500Y-70125000D01*
X92581374Y-70124699D01*
X92575307Y-70123799D01*
X92569357Y-70122309D01*
X92563582Y-70120242D01*
X92558038Y-70117620D01*
X92552777Y-70114467D01*
X92547850Y-70110813D01*
X92543306Y-70106694D01*
X92539187Y-70102150D01*
X92535533Y-70097223D01*
X92532380Y-70091962D01*
X92529758Y-70086418D01*
X92527691Y-70080643D01*
X92526201Y-70074693D01*
X92525301Y-70068626D01*
X92525000Y-70062500D01*
X92525000Y-69937500D01*
X92525301Y-69931374D01*
X92526201Y-69925307D01*
X92527691Y-69919357D01*
X92529758Y-69913582D01*
X92532380Y-69908038D01*
X92535533Y-69902777D01*
X92539187Y-69897850D01*
X92543306Y-69893306D01*
X92547850Y-69889187D01*
X92552777Y-69885533D01*
X92558038Y-69882380D01*
X92563582Y-69879758D01*
X92569357Y-69877691D01*
X92575307Y-69876201D01*
X92581374Y-69875301D01*
X92587500Y-69875000D01*
X93287500Y-69875000D01*
X93293626Y-69875301D01*
G37*
D15*
X76650000Y-62800000D03*
X76650000Y-60900000D03*
X78850000Y-60900000D03*
X78850000Y-61850000D03*
X78850000Y-62800000D03*
D11*
G36*
X87527691Y-70026053D02*
G01*
X87548926Y-70029203D01*
X87569750Y-70034419D01*
X87589962Y-70041651D01*
X87609368Y-70050830D01*
X87627781Y-70061866D01*
X87645024Y-70074654D01*
X87660930Y-70089070D01*
X87675346Y-70104976D01*
X87688134Y-70122219D01*
X87699170Y-70140632D01*
X87708349Y-70160038D01*
X87715581Y-70180250D01*
X87720797Y-70201074D01*
X87723947Y-70222309D01*
X87725000Y-70243750D01*
X87725000Y-70756250D01*
X87723947Y-70777691D01*
X87720797Y-70798926D01*
X87715581Y-70819750D01*
X87708349Y-70839962D01*
X87699170Y-70859368D01*
X87688134Y-70877781D01*
X87675346Y-70895024D01*
X87660930Y-70910930D01*
X87645024Y-70925346D01*
X87627781Y-70938134D01*
X87609368Y-70949170D01*
X87589962Y-70958349D01*
X87569750Y-70965581D01*
X87548926Y-70970797D01*
X87527691Y-70973947D01*
X87506250Y-70975000D01*
X87068750Y-70975000D01*
X87047309Y-70973947D01*
X87026074Y-70970797D01*
X87005250Y-70965581D01*
X86985038Y-70958349D01*
X86965632Y-70949170D01*
X86947219Y-70938134D01*
X86929976Y-70925346D01*
X86914070Y-70910930D01*
X86899654Y-70895024D01*
X86886866Y-70877781D01*
X86875830Y-70859368D01*
X86866651Y-70839962D01*
X86859419Y-70819750D01*
X86854203Y-70798926D01*
X86851053Y-70777691D01*
X86850000Y-70756250D01*
X86850000Y-70243750D01*
X86851053Y-70222309D01*
X86854203Y-70201074D01*
X86859419Y-70180250D01*
X86866651Y-70160038D01*
X86875830Y-70140632D01*
X86886866Y-70122219D01*
X86899654Y-70104976D01*
X86914070Y-70089070D01*
X86929976Y-70074654D01*
X86947219Y-70061866D01*
X86965632Y-70050830D01*
X86985038Y-70041651D01*
X87005250Y-70034419D01*
X87026074Y-70029203D01*
X87047309Y-70026053D01*
X87068750Y-70025000D01*
X87506250Y-70025000D01*
X87527691Y-70026053D01*
G37*
G36*
X85952691Y-70026053D02*
G01*
X85973926Y-70029203D01*
X85994750Y-70034419D01*
X86014962Y-70041651D01*
X86034368Y-70050830D01*
X86052781Y-70061866D01*
X86070024Y-70074654D01*
X86085930Y-70089070D01*
X86100346Y-70104976D01*
X86113134Y-70122219D01*
X86124170Y-70140632D01*
X86133349Y-70160038D01*
X86140581Y-70180250D01*
X86145797Y-70201074D01*
X86148947Y-70222309D01*
X86150000Y-70243750D01*
X86150000Y-70756250D01*
X86148947Y-70777691D01*
X86145797Y-70798926D01*
X86140581Y-70819750D01*
X86133349Y-70839962D01*
X86124170Y-70859368D01*
X86113134Y-70877781D01*
X86100346Y-70895024D01*
X86085930Y-70910930D01*
X86070024Y-70925346D01*
X86052781Y-70938134D01*
X86034368Y-70949170D01*
X86014962Y-70958349D01*
X85994750Y-70965581D01*
X85973926Y-70970797D01*
X85952691Y-70973947D01*
X85931250Y-70975000D01*
X85493750Y-70975000D01*
X85472309Y-70973947D01*
X85451074Y-70970797D01*
X85430250Y-70965581D01*
X85410038Y-70958349D01*
X85390632Y-70949170D01*
X85372219Y-70938134D01*
X85354976Y-70925346D01*
X85339070Y-70910930D01*
X85324654Y-70895024D01*
X85311866Y-70877781D01*
X85300830Y-70859368D01*
X85291651Y-70839962D01*
X85284419Y-70819750D01*
X85279203Y-70798926D01*
X85276053Y-70777691D01*
X85275000Y-70756250D01*
X85275000Y-70243750D01*
X85276053Y-70222309D01*
X85279203Y-70201074D01*
X85284419Y-70180250D01*
X85291651Y-70160038D01*
X85300830Y-70140632D01*
X85311866Y-70122219D01*
X85324654Y-70104976D01*
X85339070Y-70089070D01*
X85354976Y-70074654D01*
X85372219Y-70061866D01*
X85390632Y-70050830D01*
X85410038Y-70041651D01*
X85430250Y-70034419D01*
X85451074Y-70029203D01*
X85472309Y-70026053D01*
X85493750Y-70025000D01*
X85931250Y-70025000D01*
X85952691Y-70026053D01*
G37*
G36*
X85952691Y-65026053D02*
G01*
X85973926Y-65029203D01*
X85994750Y-65034419D01*
X86014962Y-65041651D01*
X86034368Y-65050830D01*
X86052781Y-65061866D01*
X86070024Y-65074654D01*
X86085930Y-65089070D01*
X86100346Y-65104976D01*
X86113134Y-65122219D01*
X86124170Y-65140632D01*
X86133349Y-65160038D01*
X86140581Y-65180250D01*
X86145797Y-65201074D01*
X86148947Y-65222309D01*
X86150000Y-65243750D01*
X86150000Y-65756250D01*
X86148947Y-65777691D01*
X86145797Y-65798926D01*
X86140581Y-65819750D01*
X86133349Y-65839962D01*
X86124170Y-65859368D01*
X86113134Y-65877781D01*
X86100346Y-65895024D01*
X86085930Y-65910930D01*
X86070024Y-65925346D01*
X86052781Y-65938134D01*
X86034368Y-65949170D01*
X86014962Y-65958349D01*
X85994750Y-65965581D01*
X85973926Y-65970797D01*
X85952691Y-65973947D01*
X85931250Y-65975000D01*
X85493750Y-65975000D01*
X85472309Y-65973947D01*
X85451074Y-65970797D01*
X85430250Y-65965581D01*
X85410038Y-65958349D01*
X85390632Y-65949170D01*
X85372219Y-65938134D01*
X85354976Y-65925346D01*
X85339070Y-65910930D01*
X85324654Y-65895024D01*
X85311866Y-65877781D01*
X85300830Y-65859368D01*
X85291651Y-65839962D01*
X85284419Y-65819750D01*
X85279203Y-65798926D01*
X85276053Y-65777691D01*
X85275000Y-65756250D01*
X85275000Y-65243750D01*
X85276053Y-65222309D01*
X85279203Y-65201074D01*
X85284419Y-65180250D01*
X85291651Y-65160038D01*
X85300830Y-65140632D01*
X85311866Y-65122219D01*
X85324654Y-65104976D01*
X85339070Y-65089070D01*
X85354976Y-65074654D01*
X85372219Y-65061866D01*
X85390632Y-65050830D01*
X85410038Y-65041651D01*
X85430250Y-65034419D01*
X85451074Y-65029203D01*
X85472309Y-65026053D01*
X85493750Y-65025000D01*
X85931250Y-65025000D01*
X85952691Y-65026053D01*
G37*
G36*
X87527691Y-65026053D02*
G01*
X87548926Y-65029203D01*
X87569750Y-65034419D01*
X87589962Y-65041651D01*
X87609368Y-65050830D01*
X87627781Y-65061866D01*
X87645024Y-65074654D01*
X87660930Y-65089070D01*
X87675346Y-65104976D01*
X87688134Y-65122219D01*
X87699170Y-65140632D01*
X87708349Y-65160038D01*
X87715581Y-65180250D01*
X87720797Y-65201074D01*
X87723947Y-65222309D01*
X87725000Y-65243750D01*
X87725000Y-65756250D01*
X87723947Y-65777691D01*
X87720797Y-65798926D01*
X87715581Y-65819750D01*
X87708349Y-65839962D01*
X87699170Y-65859368D01*
X87688134Y-65877781D01*
X87675346Y-65895024D01*
X87660930Y-65910930D01*
X87645024Y-65925346D01*
X87627781Y-65938134D01*
X87609368Y-65949170D01*
X87589962Y-65958349D01*
X87569750Y-65965581D01*
X87548926Y-65970797D01*
X87527691Y-65973947D01*
X87506250Y-65975000D01*
X87068750Y-65975000D01*
X87047309Y-65973947D01*
X87026074Y-65970797D01*
X87005250Y-65965581D01*
X86985038Y-65958349D01*
X86965632Y-65949170D01*
X86947219Y-65938134D01*
X86929976Y-65925346D01*
X86914070Y-65910930D01*
X86899654Y-65895024D01*
X86886866Y-65877781D01*
X86875830Y-65859368D01*
X86866651Y-65839962D01*
X86859419Y-65819750D01*
X86854203Y-65798926D01*
X86851053Y-65777691D01*
X86850000Y-65756250D01*
X86850000Y-65243750D01*
X86851053Y-65222309D01*
X86854203Y-65201074D01*
X86859419Y-65180250D01*
X86866651Y-65160038D01*
X86875830Y-65140632D01*
X86886866Y-65122219D01*
X86899654Y-65104976D01*
X86914070Y-65089070D01*
X86929976Y-65074654D01*
X86947219Y-65061866D01*
X86965632Y-65050830D01*
X86985038Y-65041651D01*
X87005250Y-65034419D01*
X87026074Y-65029203D01*
X87047309Y-65026053D01*
X87068750Y-65025000D01*
X87506250Y-65025000D01*
X87527691Y-65026053D01*
G37*
G36*
X91777691Y-73026053D02*
G01*
X91798926Y-73029203D01*
X91819750Y-73034419D01*
X91839962Y-73041651D01*
X91859368Y-73050830D01*
X91877781Y-73061866D01*
X91895024Y-73074654D01*
X91910930Y-73089070D01*
X91925346Y-73104976D01*
X91938134Y-73122219D01*
X91949170Y-73140632D01*
X91958349Y-73160038D01*
X91965581Y-73180250D01*
X91970797Y-73201074D01*
X91973947Y-73222309D01*
X91975000Y-73243750D01*
X91975000Y-73681250D01*
X91973947Y-73702691D01*
X91970797Y-73723926D01*
X91965581Y-73744750D01*
X91958349Y-73764962D01*
X91949170Y-73784368D01*
X91938134Y-73802781D01*
X91925346Y-73820024D01*
X91910930Y-73835930D01*
X91895024Y-73850346D01*
X91877781Y-73863134D01*
X91859368Y-73874170D01*
X91839962Y-73883349D01*
X91819750Y-73890581D01*
X91798926Y-73895797D01*
X91777691Y-73898947D01*
X91756250Y-73900000D01*
X91243750Y-73900000D01*
X91222309Y-73898947D01*
X91201074Y-73895797D01*
X91180250Y-73890581D01*
X91160038Y-73883349D01*
X91140632Y-73874170D01*
X91122219Y-73863134D01*
X91104976Y-73850346D01*
X91089070Y-73835930D01*
X91074654Y-73820024D01*
X91061866Y-73802781D01*
X91050830Y-73784368D01*
X91041651Y-73764962D01*
X91034419Y-73744750D01*
X91029203Y-73723926D01*
X91026053Y-73702691D01*
X91025000Y-73681250D01*
X91025000Y-73243750D01*
X91026053Y-73222309D01*
X91029203Y-73201074D01*
X91034419Y-73180250D01*
X91041651Y-73160038D01*
X91050830Y-73140632D01*
X91061866Y-73122219D01*
X91074654Y-73104976D01*
X91089070Y-73089070D01*
X91104976Y-73074654D01*
X91122219Y-73061866D01*
X91140632Y-73050830D01*
X91160038Y-73041651D01*
X91180250Y-73034419D01*
X91201074Y-73029203D01*
X91222309Y-73026053D01*
X91243750Y-73025000D01*
X91756250Y-73025000D01*
X91777691Y-73026053D01*
G37*
G36*
X91777691Y-74601053D02*
G01*
X91798926Y-74604203D01*
X91819750Y-74609419D01*
X91839962Y-74616651D01*
X91859368Y-74625830D01*
X91877781Y-74636866D01*
X91895024Y-74649654D01*
X91910930Y-74664070D01*
X91925346Y-74679976D01*
X91938134Y-74697219D01*
X91949170Y-74715632D01*
X91958349Y-74735038D01*
X91965581Y-74755250D01*
X91970797Y-74776074D01*
X91973947Y-74797309D01*
X91975000Y-74818750D01*
X91975000Y-75256250D01*
X91973947Y-75277691D01*
X91970797Y-75298926D01*
X91965581Y-75319750D01*
X91958349Y-75339962D01*
X91949170Y-75359368D01*
X91938134Y-75377781D01*
X91925346Y-75395024D01*
X91910930Y-75410930D01*
X91895024Y-75425346D01*
X91877781Y-75438134D01*
X91859368Y-75449170D01*
X91839962Y-75458349D01*
X91819750Y-75465581D01*
X91798926Y-75470797D01*
X91777691Y-75473947D01*
X91756250Y-75475000D01*
X91243750Y-75475000D01*
X91222309Y-75473947D01*
X91201074Y-75470797D01*
X91180250Y-75465581D01*
X91160038Y-75458349D01*
X91140632Y-75449170D01*
X91122219Y-75438134D01*
X91104976Y-75425346D01*
X91089070Y-75410930D01*
X91074654Y-75395024D01*
X91061866Y-75377781D01*
X91050830Y-75359368D01*
X91041651Y-75339962D01*
X91034419Y-75319750D01*
X91029203Y-75298926D01*
X91026053Y-75277691D01*
X91025000Y-75256250D01*
X91025000Y-74818750D01*
X91026053Y-74797309D01*
X91029203Y-74776074D01*
X91034419Y-74755250D01*
X91041651Y-74735038D01*
X91050830Y-74715632D01*
X91061866Y-74697219D01*
X91074654Y-74679976D01*
X91089070Y-74664070D01*
X91104976Y-74649654D01*
X91122219Y-74636866D01*
X91140632Y-74625830D01*
X91160038Y-74616651D01*
X91180250Y-74609419D01*
X91201074Y-74604203D01*
X91222309Y-74601053D01*
X91243750Y-74600000D01*
X91756250Y-74600000D01*
X91777691Y-74601053D01*
G37*
D16*
X71100000Y-74300000D03*
X67900000Y-74300000D03*
X71100000Y-79200000D03*
X67900000Y-79200000D03*
D11*
G36*
X78777691Y-64376053D02*
G01*
X78798926Y-64379203D01*
X78819750Y-64384419D01*
X78839962Y-64391651D01*
X78859368Y-64400830D01*
X78877781Y-64411866D01*
X78895024Y-64424654D01*
X78910930Y-64439070D01*
X78925346Y-64454976D01*
X78938134Y-64472219D01*
X78949170Y-64490632D01*
X78958349Y-64510038D01*
X78965581Y-64530250D01*
X78970797Y-64551074D01*
X78973947Y-64572309D01*
X78975000Y-64593750D01*
X78975000Y-65106250D01*
X78973947Y-65127691D01*
X78970797Y-65148926D01*
X78965581Y-65169750D01*
X78958349Y-65189962D01*
X78949170Y-65209368D01*
X78938134Y-65227781D01*
X78925346Y-65245024D01*
X78910930Y-65260930D01*
X78895024Y-65275346D01*
X78877781Y-65288134D01*
X78859368Y-65299170D01*
X78839962Y-65308349D01*
X78819750Y-65315581D01*
X78798926Y-65320797D01*
X78777691Y-65323947D01*
X78756250Y-65325000D01*
X78318750Y-65325000D01*
X78297309Y-65323947D01*
X78276074Y-65320797D01*
X78255250Y-65315581D01*
X78235038Y-65308349D01*
X78215632Y-65299170D01*
X78197219Y-65288134D01*
X78179976Y-65275346D01*
X78164070Y-65260930D01*
X78149654Y-65245024D01*
X78136866Y-65227781D01*
X78125830Y-65209368D01*
X78116651Y-65189962D01*
X78109419Y-65169750D01*
X78104203Y-65148926D01*
X78101053Y-65127691D01*
X78100000Y-65106250D01*
X78100000Y-64593750D01*
X78101053Y-64572309D01*
X78104203Y-64551074D01*
X78109419Y-64530250D01*
X78116651Y-64510038D01*
X78125830Y-64490632D01*
X78136866Y-64472219D01*
X78149654Y-64454976D01*
X78164070Y-64439070D01*
X78179976Y-64424654D01*
X78197219Y-64411866D01*
X78215632Y-64400830D01*
X78235038Y-64391651D01*
X78255250Y-64384419D01*
X78276074Y-64379203D01*
X78297309Y-64376053D01*
X78318750Y-64375000D01*
X78756250Y-64375000D01*
X78777691Y-64376053D01*
G37*
G36*
X77202691Y-64376053D02*
G01*
X77223926Y-64379203D01*
X77244750Y-64384419D01*
X77264962Y-64391651D01*
X77284368Y-64400830D01*
X77302781Y-64411866D01*
X77320024Y-64424654D01*
X77335930Y-64439070D01*
X77350346Y-64454976D01*
X77363134Y-64472219D01*
X77374170Y-64490632D01*
X77383349Y-64510038D01*
X77390581Y-64530250D01*
X77395797Y-64551074D01*
X77398947Y-64572309D01*
X77400000Y-64593750D01*
X77400000Y-65106250D01*
X77398947Y-65127691D01*
X77395797Y-65148926D01*
X77390581Y-65169750D01*
X77383349Y-65189962D01*
X77374170Y-65209368D01*
X77363134Y-65227781D01*
X77350346Y-65245024D01*
X77335930Y-65260930D01*
X77320024Y-65275346D01*
X77302781Y-65288134D01*
X77284368Y-65299170D01*
X77264962Y-65308349D01*
X77244750Y-65315581D01*
X77223926Y-65320797D01*
X77202691Y-65323947D01*
X77181250Y-65325000D01*
X76743750Y-65325000D01*
X76722309Y-65323947D01*
X76701074Y-65320797D01*
X76680250Y-65315581D01*
X76660038Y-65308349D01*
X76640632Y-65299170D01*
X76622219Y-65288134D01*
X76604976Y-65275346D01*
X76589070Y-65260930D01*
X76574654Y-65245024D01*
X76561866Y-65227781D01*
X76550830Y-65209368D01*
X76541651Y-65189962D01*
X76534419Y-65169750D01*
X76529203Y-65148926D01*
X76526053Y-65127691D01*
X76525000Y-65106250D01*
X76525000Y-64593750D01*
X76526053Y-64572309D01*
X76529203Y-64551074D01*
X76534419Y-64530250D01*
X76541651Y-64510038D01*
X76550830Y-64490632D01*
X76561866Y-64472219D01*
X76574654Y-64454976D01*
X76589070Y-64439070D01*
X76604976Y-64424654D01*
X76622219Y-64411866D01*
X76640632Y-64400830D01*
X76660038Y-64391651D01*
X76680250Y-64384419D01*
X76701074Y-64379203D01*
X76722309Y-64376053D01*
X76743750Y-64375000D01*
X77181250Y-64375000D01*
X77202691Y-64376053D01*
G37*
G36*
X93527691Y-73026053D02*
G01*
X93548926Y-73029203D01*
X93569750Y-73034419D01*
X93589962Y-73041651D01*
X93609368Y-73050830D01*
X93627781Y-73061866D01*
X93645024Y-73074654D01*
X93660930Y-73089070D01*
X93675346Y-73104976D01*
X93688134Y-73122219D01*
X93699170Y-73140632D01*
X93708349Y-73160038D01*
X93715581Y-73180250D01*
X93720797Y-73201074D01*
X93723947Y-73222309D01*
X93725000Y-73243750D01*
X93725000Y-73681250D01*
X93723947Y-73702691D01*
X93720797Y-73723926D01*
X93715581Y-73744750D01*
X93708349Y-73764962D01*
X93699170Y-73784368D01*
X93688134Y-73802781D01*
X93675346Y-73820024D01*
X93660930Y-73835930D01*
X93645024Y-73850346D01*
X93627781Y-73863134D01*
X93609368Y-73874170D01*
X93589962Y-73883349D01*
X93569750Y-73890581D01*
X93548926Y-73895797D01*
X93527691Y-73898947D01*
X93506250Y-73900000D01*
X92993750Y-73900000D01*
X92972309Y-73898947D01*
X92951074Y-73895797D01*
X92930250Y-73890581D01*
X92910038Y-73883349D01*
X92890632Y-73874170D01*
X92872219Y-73863134D01*
X92854976Y-73850346D01*
X92839070Y-73835930D01*
X92824654Y-73820024D01*
X92811866Y-73802781D01*
X92800830Y-73784368D01*
X92791651Y-73764962D01*
X92784419Y-73744750D01*
X92779203Y-73723926D01*
X92776053Y-73702691D01*
X92775000Y-73681250D01*
X92775000Y-73243750D01*
X92776053Y-73222309D01*
X92779203Y-73201074D01*
X92784419Y-73180250D01*
X92791651Y-73160038D01*
X92800830Y-73140632D01*
X92811866Y-73122219D01*
X92824654Y-73104976D01*
X92839070Y-73089070D01*
X92854976Y-73074654D01*
X92872219Y-73061866D01*
X92890632Y-73050830D01*
X92910038Y-73041651D01*
X92930250Y-73034419D01*
X92951074Y-73029203D01*
X92972309Y-73026053D01*
X92993750Y-73025000D01*
X93506250Y-73025000D01*
X93527691Y-73026053D01*
G37*
G36*
X93527691Y-74601053D02*
G01*
X93548926Y-74604203D01*
X93569750Y-74609419D01*
X93589962Y-74616651D01*
X93609368Y-74625830D01*
X93627781Y-74636866D01*
X93645024Y-74649654D01*
X93660930Y-74664070D01*
X93675346Y-74679976D01*
X93688134Y-74697219D01*
X93699170Y-74715632D01*
X93708349Y-74735038D01*
X93715581Y-74755250D01*
X93720797Y-74776074D01*
X93723947Y-74797309D01*
X93725000Y-74818750D01*
X93725000Y-75256250D01*
X93723947Y-75277691D01*
X93720797Y-75298926D01*
X93715581Y-75319750D01*
X93708349Y-75339962D01*
X93699170Y-75359368D01*
X93688134Y-75377781D01*
X93675346Y-75395024D01*
X93660930Y-75410930D01*
X93645024Y-75425346D01*
X93627781Y-75438134D01*
X93609368Y-75449170D01*
X93589962Y-75458349D01*
X93569750Y-75465581D01*
X93548926Y-75470797D01*
X93527691Y-75473947D01*
X93506250Y-75475000D01*
X92993750Y-75475000D01*
X92972309Y-75473947D01*
X92951074Y-75470797D01*
X92930250Y-75465581D01*
X92910038Y-75458349D01*
X92890632Y-75449170D01*
X92872219Y-75438134D01*
X92854976Y-75425346D01*
X92839070Y-75410930D01*
X92824654Y-75395024D01*
X92811866Y-75377781D01*
X92800830Y-75359368D01*
X92791651Y-75339962D01*
X92784419Y-75319750D01*
X92779203Y-75298926D01*
X92776053Y-75277691D01*
X92775000Y-75256250D01*
X92775000Y-74818750D01*
X92776053Y-74797309D01*
X92779203Y-74776074D01*
X92784419Y-74755250D01*
X92791651Y-74735038D01*
X92800830Y-74715632D01*
X92811866Y-74697219D01*
X92824654Y-74679976D01*
X92839070Y-74664070D01*
X92854976Y-74649654D01*
X92872219Y-74636866D01*
X92890632Y-74625830D01*
X92910038Y-74616651D01*
X92930250Y-74609419D01*
X92951074Y-74604203D01*
X92972309Y-74601053D01*
X92993750Y-74600000D01*
X93506250Y-74600000D01*
X93527691Y-74601053D01*
G37*
G36*
X59027691Y-81351053D02*
G01*
X59048926Y-81354203D01*
X59069750Y-81359419D01*
X59089962Y-81366651D01*
X59109368Y-81375830D01*
X59127781Y-81386866D01*
X59145024Y-81399654D01*
X59160930Y-81414070D01*
X59175346Y-81429976D01*
X59188134Y-81447219D01*
X59199170Y-81465632D01*
X59208349Y-81485038D01*
X59215581Y-81505250D01*
X59220797Y-81526074D01*
X59223947Y-81547309D01*
X59225000Y-81568750D01*
X59225000Y-82006250D01*
X59223947Y-82027691D01*
X59220797Y-82048926D01*
X59215581Y-82069750D01*
X59208349Y-82089962D01*
X59199170Y-82109368D01*
X59188134Y-82127781D01*
X59175346Y-82145024D01*
X59160930Y-82160930D01*
X59145024Y-82175346D01*
X59127781Y-82188134D01*
X59109368Y-82199170D01*
X59089962Y-82208349D01*
X59069750Y-82215581D01*
X59048926Y-82220797D01*
X59027691Y-82223947D01*
X59006250Y-82225000D01*
X58493750Y-82225000D01*
X58472309Y-82223947D01*
X58451074Y-82220797D01*
X58430250Y-82215581D01*
X58410038Y-82208349D01*
X58390632Y-82199170D01*
X58372219Y-82188134D01*
X58354976Y-82175346D01*
X58339070Y-82160930D01*
X58324654Y-82145024D01*
X58311866Y-82127781D01*
X58300830Y-82109368D01*
X58291651Y-82089962D01*
X58284419Y-82069750D01*
X58279203Y-82048926D01*
X58276053Y-82027691D01*
X58275000Y-82006250D01*
X58275000Y-81568750D01*
X58276053Y-81547309D01*
X58279203Y-81526074D01*
X58284419Y-81505250D01*
X58291651Y-81485038D01*
X58300830Y-81465632D01*
X58311866Y-81447219D01*
X58324654Y-81429976D01*
X58339070Y-81414070D01*
X58354976Y-81399654D01*
X58372219Y-81386866D01*
X58390632Y-81375830D01*
X58410038Y-81366651D01*
X58430250Y-81359419D01*
X58451074Y-81354203D01*
X58472309Y-81351053D01*
X58493750Y-81350000D01*
X59006250Y-81350000D01*
X59027691Y-81351053D01*
G37*
G36*
X59027691Y-79776053D02*
G01*
X59048926Y-79779203D01*
X59069750Y-79784419D01*
X59089962Y-79791651D01*
X59109368Y-79800830D01*
X59127781Y-79811866D01*
X59145024Y-79824654D01*
X59160930Y-79839070D01*
X59175346Y-79854976D01*
X59188134Y-79872219D01*
X59199170Y-79890632D01*
X59208349Y-79910038D01*
X59215581Y-79930250D01*
X59220797Y-79951074D01*
X59223947Y-79972309D01*
X59225000Y-79993750D01*
X59225000Y-80431250D01*
X59223947Y-80452691D01*
X59220797Y-80473926D01*
X59215581Y-80494750D01*
X59208349Y-80514962D01*
X59199170Y-80534368D01*
X59188134Y-80552781D01*
X59175346Y-80570024D01*
X59160930Y-80585930D01*
X59145024Y-80600346D01*
X59127781Y-80613134D01*
X59109368Y-80624170D01*
X59089962Y-80633349D01*
X59069750Y-80640581D01*
X59048926Y-80645797D01*
X59027691Y-80648947D01*
X59006250Y-80650000D01*
X58493750Y-80650000D01*
X58472309Y-80648947D01*
X58451074Y-80645797D01*
X58430250Y-80640581D01*
X58410038Y-80633349D01*
X58390632Y-80624170D01*
X58372219Y-80613134D01*
X58354976Y-80600346D01*
X58339070Y-80585930D01*
X58324654Y-80570024D01*
X58311866Y-80552781D01*
X58300830Y-80534368D01*
X58291651Y-80514962D01*
X58284419Y-80494750D01*
X58279203Y-80473926D01*
X58276053Y-80452691D01*
X58275000Y-80431250D01*
X58275000Y-79993750D01*
X58276053Y-79972309D01*
X58279203Y-79951074D01*
X58284419Y-79930250D01*
X58291651Y-79910038D01*
X58300830Y-79890632D01*
X58311866Y-79872219D01*
X58324654Y-79854976D01*
X58339070Y-79839070D01*
X58354976Y-79824654D01*
X58372219Y-79811866D01*
X58390632Y-79800830D01*
X58410038Y-79791651D01*
X58430250Y-79784419D01*
X58451074Y-79779203D01*
X58472309Y-79776053D01*
X58493750Y-79775000D01*
X59006250Y-79775000D01*
X59027691Y-79776053D01*
G37*
G36*
X48027691Y-81351053D02*
G01*
X48048926Y-81354203D01*
X48069750Y-81359419D01*
X48089962Y-81366651D01*
X48109368Y-81375830D01*
X48127781Y-81386866D01*
X48145024Y-81399654D01*
X48160930Y-81414070D01*
X48175346Y-81429976D01*
X48188134Y-81447219D01*
X48199170Y-81465632D01*
X48208349Y-81485038D01*
X48215581Y-81505250D01*
X48220797Y-81526074D01*
X48223947Y-81547309D01*
X48225000Y-81568750D01*
X48225000Y-82006250D01*
X48223947Y-82027691D01*
X48220797Y-82048926D01*
X48215581Y-82069750D01*
X48208349Y-82089962D01*
X48199170Y-82109368D01*
X48188134Y-82127781D01*
X48175346Y-82145024D01*
X48160930Y-82160930D01*
X48145024Y-82175346D01*
X48127781Y-82188134D01*
X48109368Y-82199170D01*
X48089962Y-82208349D01*
X48069750Y-82215581D01*
X48048926Y-82220797D01*
X48027691Y-82223947D01*
X48006250Y-82225000D01*
X47493750Y-82225000D01*
X47472309Y-82223947D01*
X47451074Y-82220797D01*
X47430250Y-82215581D01*
X47410038Y-82208349D01*
X47390632Y-82199170D01*
X47372219Y-82188134D01*
X47354976Y-82175346D01*
X47339070Y-82160930D01*
X47324654Y-82145024D01*
X47311866Y-82127781D01*
X47300830Y-82109368D01*
X47291651Y-82089962D01*
X47284419Y-82069750D01*
X47279203Y-82048926D01*
X47276053Y-82027691D01*
X47275000Y-82006250D01*
X47275000Y-81568750D01*
X47276053Y-81547309D01*
X47279203Y-81526074D01*
X47284419Y-81505250D01*
X47291651Y-81485038D01*
X47300830Y-81465632D01*
X47311866Y-81447219D01*
X47324654Y-81429976D01*
X47339070Y-81414070D01*
X47354976Y-81399654D01*
X47372219Y-81386866D01*
X47390632Y-81375830D01*
X47410038Y-81366651D01*
X47430250Y-81359419D01*
X47451074Y-81354203D01*
X47472309Y-81351053D01*
X47493750Y-81350000D01*
X48006250Y-81350000D01*
X48027691Y-81351053D01*
G37*
G36*
X48027691Y-79776053D02*
G01*
X48048926Y-79779203D01*
X48069750Y-79784419D01*
X48089962Y-79791651D01*
X48109368Y-79800830D01*
X48127781Y-79811866D01*
X48145024Y-79824654D01*
X48160930Y-79839070D01*
X48175346Y-79854976D01*
X48188134Y-79872219D01*
X48199170Y-79890632D01*
X48208349Y-79910038D01*
X48215581Y-79930250D01*
X48220797Y-79951074D01*
X48223947Y-79972309D01*
X48225000Y-79993750D01*
X48225000Y-80431250D01*
X48223947Y-80452691D01*
X48220797Y-80473926D01*
X48215581Y-80494750D01*
X48208349Y-80514962D01*
X48199170Y-80534368D01*
X48188134Y-80552781D01*
X48175346Y-80570024D01*
X48160930Y-80585930D01*
X48145024Y-80600346D01*
X48127781Y-80613134D01*
X48109368Y-80624170D01*
X48089962Y-80633349D01*
X48069750Y-80640581D01*
X48048926Y-80645797D01*
X48027691Y-80648947D01*
X48006250Y-80650000D01*
X47493750Y-80650000D01*
X47472309Y-80648947D01*
X47451074Y-80645797D01*
X47430250Y-80640581D01*
X47410038Y-80633349D01*
X47390632Y-80624170D01*
X47372219Y-80613134D01*
X47354976Y-80600346D01*
X47339070Y-80585930D01*
X47324654Y-80570024D01*
X47311866Y-80552781D01*
X47300830Y-80534368D01*
X47291651Y-80514962D01*
X47284419Y-80494750D01*
X47279203Y-80473926D01*
X47276053Y-80452691D01*
X47275000Y-80431250D01*
X47275000Y-79993750D01*
X47276053Y-79972309D01*
X47279203Y-79951074D01*
X47284419Y-79930250D01*
X47291651Y-79910038D01*
X47300830Y-79890632D01*
X47311866Y-79872219D01*
X47324654Y-79854976D01*
X47339070Y-79839070D01*
X47354976Y-79824654D01*
X47372219Y-79811866D01*
X47390632Y-79800830D01*
X47410038Y-79791651D01*
X47430250Y-79784419D01*
X47451074Y-79779203D01*
X47472309Y-79776053D01*
X47493750Y-79775000D01*
X48006250Y-79775000D01*
X48027691Y-79776053D01*
G37*
G36*
X85730142Y-72826174D02*
G01*
X85753803Y-72829684D01*
X85777007Y-72835496D01*
X85799529Y-72843554D01*
X85821153Y-72853782D01*
X85841670Y-72866079D01*
X85860883Y-72880329D01*
X85878607Y-72896393D01*
X85894671Y-72914117D01*
X85908921Y-72933330D01*
X85921218Y-72953847D01*
X85931446Y-72975471D01*
X85939504Y-72997993D01*
X85945316Y-73021197D01*
X85948826Y-73044858D01*
X85950000Y-73068750D01*
X85950000Y-73556250D01*
X85948826Y-73580142D01*
X85945316Y-73603803D01*
X85939504Y-73627007D01*
X85931446Y-73649529D01*
X85921218Y-73671153D01*
X85908921Y-73691670D01*
X85894671Y-73710883D01*
X85878607Y-73728607D01*
X85860883Y-73744671D01*
X85841670Y-73758921D01*
X85821153Y-73771218D01*
X85799529Y-73781446D01*
X85777007Y-73789504D01*
X85753803Y-73795316D01*
X85730142Y-73798826D01*
X85706250Y-73800000D01*
X84793750Y-73800000D01*
X84769858Y-73798826D01*
X84746197Y-73795316D01*
X84722993Y-73789504D01*
X84700471Y-73781446D01*
X84678847Y-73771218D01*
X84658330Y-73758921D01*
X84639117Y-73744671D01*
X84621393Y-73728607D01*
X84605329Y-73710883D01*
X84591079Y-73691670D01*
X84578782Y-73671153D01*
X84568554Y-73649529D01*
X84560496Y-73627007D01*
X84554684Y-73603803D01*
X84551174Y-73580142D01*
X84550000Y-73556250D01*
X84550000Y-73068750D01*
X84551174Y-73044858D01*
X84554684Y-73021197D01*
X84560496Y-72997993D01*
X84568554Y-72975471D01*
X84578782Y-72953847D01*
X84591079Y-72933330D01*
X84605329Y-72914117D01*
X84621393Y-72896393D01*
X84639117Y-72880329D01*
X84658330Y-72866079D01*
X84678847Y-72853782D01*
X84700471Y-72843554D01*
X84722993Y-72835496D01*
X84746197Y-72829684D01*
X84769858Y-72826174D01*
X84793750Y-72825000D01*
X85706250Y-72825000D01*
X85730142Y-72826174D01*
G37*
G36*
X85730142Y-74701174D02*
G01*
X85753803Y-74704684D01*
X85777007Y-74710496D01*
X85799529Y-74718554D01*
X85821153Y-74728782D01*
X85841670Y-74741079D01*
X85860883Y-74755329D01*
X85878607Y-74771393D01*
X85894671Y-74789117D01*
X85908921Y-74808330D01*
X85921218Y-74828847D01*
X85931446Y-74850471D01*
X85939504Y-74872993D01*
X85945316Y-74896197D01*
X85948826Y-74919858D01*
X85950000Y-74943750D01*
X85950000Y-75431250D01*
X85948826Y-75455142D01*
X85945316Y-75478803D01*
X85939504Y-75502007D01*
X85931446Y-75524529D01*
X85921218Y-75546153D01*
X85908921Y-75566670D01*
X85894671Y-75585883D01*
X85878607Y-75603607D01*
X85860883Y-75619671D01*
X85841670Y-75633921D01*
X85821153Y-75646218D01*
X85799529Y-75656446D01*
X85777007Y-75664504D01*
X85753803Y-75670316D01*
X85730142Y-75673826D01*
X85706250Y-75675000D01*
X84793750Y-75675000D01*
X84769858Y-75673826D01*
X84746197Y-75670316D01*
X84722993Y-75664504D01*
X84700471Y-75656446D01*
X84678847Y-75646218D01*
X84658330Y-75633921D01*
X84639117Y-75619671D01*
X84621393Y-75603607D01*
X84605329Y-75585883D01*
X84591079Y-75566670D01*
X84578782Y-75546153D01*
X84568554Y-75524529D01*
X84560496Y-75502007D01*
X84554684Y-75478803D01*
X84551174Y-75455142D01*
X84550000Y-75431250D01*
X84550000Y-74943750D01*
X84551174Y-74919858D01*
X84554684Y-74896197D01*
X84560496Y-74872993D01*
X84568554Y-74850471D01*
X84578782Y-74828847D01*
X84591079Y-74808330D01*
X84605329Y-74789117D01*
X84621393Y-74771393D01*
X84639117Y-74755329D01*
X84658330Y-74741079D01*
X84678847Y-74728782D01*
X84700471Y-74718554D01*
X84722993Y-74710496D01*
X84746197Y-74704684D01*
X84769858Y-74701174D01*
X84793750Y-74700000D01*
X85706250Y-74700000D01*
X85730142Y-74701174D01*
G37*
D17*
X98547500Y-71000000D03*
D18*
X95847500Y-70000000D03*
X95847500Y-69350000D03*
X95847500Y-68700000D03*
X95847500Y-71300000D03*
X95847500Y-70650000D03*
D17*
X98547500Y-69000000D03*
D19*
X48750000Y-62400000D03*
X50750000Y-62400000D03*
X52750000Y-62400000D03*
X54750000Y-62400000D03*
X56750000Y-62400000D03*
X58750000Y-62400000D03*
X60750000Y-62400000D03*
X62750000Y-62400000D03*
D20*
X64250000Y-65000000D03*
X64250000Y-67000000D03*
X64250000Y-69000000D03*
X64250000Y-71000000D03*
X64250000Y-73000000D03*
X64250000Y-75000000D03*
D19*
X62750000Y-77600000D03*
X60750000Y-77600000D03*
X58750000Y-77600000D03*
X56750000Y-77600000D03*
X54750000Y-77600000D03*
X52750000Y-77600000D03*
X50750000Y-77600000D03*
X48750000Y-77600000D03*
D11*
G36*
X92477691Y-64526053D02*
G01*
X92498926Y-64529203D01*
X92519750Y-64534419D01*
X92539962Y-64541651D01*
X92559368Y-64550830D01*
X92577781Y-64561866D01*
X92595024Y-64574654D01*
X92610930Y-64589070D01*
X92625346Y-64604976D01*
X92638134Y-64622219D01*
X92649170Y-64640632D01*
X92658349Y-64660038D01*
X92665581Y-64680250D01*
X92670797Y-64701074D01*
X92673947Y-64722309D01*
X92675000Y-64743750D01*
X92675000Y-65256250D01*
X92673947Y-65277691D01*
X92670797Y-65298926D01*
X92665581Y-65319750D01*
X92658349Y-65339962D01*
X92649170Y-65359368D01*
X92638134Y-65377781D01*
X92625346Y-65395024D01*
X92610930Y-65410930D01*
X92595024Y-65425346D01*
X92577781Y-65438134D01*
X92559368Y-65449170D01*
X92539962Y-65458349D01*
X92519750Y-65465581D01*
X92498926Y-65470797D01*
X92477691Y-65473947D01*
X92456250Y-65475000D01*
X92018750Y-65475000D01*
X91997309Y-65473947D01*
X91976074Y-65470797D01*
X91955250Y-65465581D01*
X91935038Y-65458349D01*
X91915632Y-65449170D01*
X91897219Y-65438134D01*
X91879976Y-65425346D01*
X91864070Y-65410930D01*
X91849654Y-65395024D01*
X91836866Y-65377781D01*
X91825830Y-65359368D01*
X91816651Y-65339962D01*
X91809419Y-65319750D01*
X91804203Y-65298926D01*
X91801053Y-65277691D01*
X91800000Y-65256250D01*
X91800000Y-64743750D01*
X91801053Y-64722309D01*
X91804203Y-64701074D01*
X91809419Y-64680250D01*
X91816651Y-64660038D01*
X91825830Y-64640632D01*
X91836866Y-64622219D01*
X91849654Y-64604976D01*
X91864070Y-64589070D01*
X91879976Y-64574654D01*
X91897219Y-64561866D01*
X91915632Y-64550830D01*
X91935038Y-64541651D01*
X91955250Y-64534419D01*
X91976074Y-64529203D01*
X91997309Y-64526053D01*
X92018750Y-64525000D01*
X92456250Y-64525000D01*
X92477691Y-64526053D01*
G37*
G36*
X90902691Y-64526053D02*
G01*
X90923926Y-64529203D01*
X90944750Y-64534419D01*
X90964962Y-64541651D01*
X90984368Y-64550830D01*
X91002781Y-64561866D01*
X91020024Y-64574654D01*
X91035930Y-64589070D01*
X91050346Y-64604976D01*
X91063134Y-64622219D01*
X91074170Y-64640632D01*
X91083349Y-64660038D01*
X91090581Y-64680250D01*
X91095797Y-64701074D01*
X91098947Y-64722309D01*
X91100000Y-64743750D01*
X91100000Y-65256250D01*
X91098947Y-65277691D01*
X91095797Y-65298926D01*
X91090581Y-65319750D01*
X91083349Y-65339962D01*
X91074170Y-65359368D01*
X91063134Y-65377781D01*
X91050346Y-65395024D01*
X91035930Y-65410930D01*
X91020024Y-65425346D01*
X91002781Y-65438134D01*
X90984368Y-65449170D01*
X90964962Y-65458349D01*
X90944750Y-65465581D01*
X90923926Y-65470797D01*
X90902691Y-65473947D01*
X90881250Y-65475000D01*
X90443750Y-65475000D01*
X90422309Y-65473947D01*
X90401074Y-65470797D01*
X90380250Y-65465581D01*
X90360038Y-65458349D01*
X90340632Y-65449170D01*
X90322219Y-65438134D01*
X90304976Y-65425346D01*
X90289070Y-65410930D01*
X90274654Y-65395024D01*
X90261866Y-65377781D01*
X90250830Y-65359368D01*
X90241651Y-65339962D01*
X90234419Y-65319750D01*
X90229203Y-65298926D01*
X90226053Y-65277691D01*
X90225000Y-65256250D01*
X90225000Y-64743750D01*
X90226053Y-64722309D01*
X90229203Y-64701074D01*
X90234419Y-64680250D01*
X90241651Y-64660038D01*
X90250830Y-64640632D01*
X90261866Y-64622219D01*
X90274654Y-64604976D01*
X90289070Y-64589070D01*
X90304976Y-64574654D01*
X90322219Y-64561866D01*
X90340632Y-64550830D01*
X90360038Y-64541651D01*
X90380250Y-64534419D01*
X90401074Y-64529203D01*
X90422309Y-64526053D01*
X90443750Y-64525000D01*
X90881250Y-64525000D01*
X90902691Y-64526053D01*
G37*
M02*
