%TF.GenerationSoftware,KiCad,Pcbnew,8.0.7*%
%TF.CreationDate,2026-01-14T01:33:38-05:00*%
%TF.ProjectId,room_environment_monitor,726f6f6d-5f65-46e7-9669-726f6e6d656e,rev?*%
%TF.SameCoordinates,Original*%
%TF.FileFunction,Drillmap*%
%TF.FilePolarity,Positive*%
%FSLAX45Y45*%
G04 Gerber Fmt 4.5, Leading zero omitted, Abs format (unit mm)*
G04 Created by KiCad (PCBNEW 8.0.7) date 2026-01-14 01:33:38*
%MOMM*%
%LPD*%
G01*
G04 APERTURE LIST*
%ADD10C,0.100000*%
%ADD11C,0.200000*%
G04 APERTURE END LIST*
D10*
X12000000Y-7000000D02*
X12000000Y-8525000D01*
X10330000Y-14450000D02*
X10330000Y-14150000D01*
X12000000Y-8525000D02*
X13000000Y-8525000D01*
X10000000Y-7000000D02*
X12000000Y-7000000D01*
X10000000Y-7310000D02*
X10000000Y-7000000D01*
X10000000Y-9775000D02*
X9450000Y-9775000D01*
X12000000Y-9775000D02*
X12000000Y-14150000D01*
X13000000Y-8525000D02*
X13000000Y-9775000D01*
X11670000Y-14450000D02*
X10330000Y-14450000D01*
X10330000Y-14150000D02*
X10000000Y-14150000D01*
X11670000Y-14150000D02*
X11670000Y-14450000D01*
X10000000Y-14150000D02*
X10000000Y-9775000D01*
X13000000Y-9775000D02*
X12000000Y-9775000D01*
X9450000Y-7310000D02*
X10000000Y-7310000D01*
X9450000Y-7310000D02*
X9450000Y-9775000D01*
X12000000Y-14150000D02*
X11670000Y-14150000D01*
D11*
D10*
X9550000Y-9210000D02*
X9590000Y-9250000D01*
X9590000Y-9210000D02*
X9550000Y-9250000D01*
X9619087Y-9607765D02*
X9659087Y-9647765D01*
X9659087Y-9607765D02*
X9619087Y-9647765D01*
X9639579Y-7708284D02*
X9679579Y-7748284D01*
X9679579Y-7708284D02*
X9639579Y-7748284D01*
X9700000Y-9210000D02*
X9740000Y-9250000D01*
X9740000Y-9210000D02*
X9700000Y-9250000D01*
X9797070Y-7725474D02*
X9837070Y-7765474D01*
X9837070Y-7725474D02*
X9797070Y-7765474D01*
X9916947Y-7335111D02*
X9956947Y-7375111D01*
X9956947Y-7335111D02*
X9916947Y-7375111D01*
X9965000Y-9685000D02*
X10005000Y-9725000D01*
X10005000Y-9685000D02*
X9965000Y-9725000D01*
X10048500Y-8620000D02*
X10088500Y-8660000D01*
X10088500Y-8620000D02*
X10048500Y-8660000D01*
X10073200Y-7716880D02*
X10113200Y-7756880D01*
X10113200Y-7716880D02*
X10073200Y-7756880D01*
X10120000Y-8320000D02*
X10160000Y-8360000D01*
X10160000Y-8320000D02*
X10120000Y-8360000D01*
X10120000Y-8430000D02*
X10160000Y-8470000D01*
X10160000Y-8430000D02*
X10120000Y-8470000D01*
X10180000Y-9500000D02*
X10220000Y-9540000D01*
X10220000Y-9500000D02*
X10180000Y-9540000D01*
X10230000Y-8320000D02*
X10270000Y-8360000D01*
X10270000Y-8320000D02*
X10230000Y-8360000D01*
X10230000Y-8430000D02*
X10270000Y-8470000D01*
X10270000Y-8430000D02*
X10230000Y-8470000D01*
X10337500Y-13417500D02*
X10377500Y-13457500D01*
X10377500Y-13417500D02*
X10337500Y-13457500D01*
X10450000Y-9210000D02*
X10490000Y-9250000D01*
X10490000Y-9210000D02*
X10450000Y-9250000D01*
X10487500Y-12992500D02*
X10527500Y-13032500D01*
X10527500Y-12992500D02*
X10487500Y-13032500D01*
X10487500Y-13092500D02*
X10527500Y-13132500D01*
X10527500Y-13092500D02*
X10487500Y-13132500D01*
X10500000Y-9680000D02*
X10540000Y-9720000D01*
X10540000Y-9680000D02*
X10500000Y-9720000D01*
X10580000Y-13755000D02*
X10620000Y-13795000D01*
X10620000Y-13755000D02*
X10580000Y-13795000D01*
X10580000Y-13930000D02*
X10620000Y-13970000D01*
X10620000Y-13930000D02*
X10580000Y-13970000D01*
X10612500Y-12992500D02*
X10652500Y-13032500D01*
X10652500Y-12992500D02*
X10612500Y-13032500D01*
X10630000Y-7120000D02*
X10670000Y-7160000D01*
X10670000Y-7120000D02*
X10630000Y-7160000D01*
X10680000Y-13830000D02*
X10720000Y-13870000D01*
X10720000Y-13830000D02*
X10680000Y-13870000D01*
X10710000Y-9520000D02*
X10750000Y-9560000D01*
X10750000Y-9520000D02*
X10710000Y-9560000D01*
X10790000Y-9457000D02*
X10830000Y-9497000D01*
X10830000Y-9457000D02*
X10790000Y-9497000D01*
X10790000Y-8240000D02*
X10830000Y-8280000D01*
X10830000Y-8240000D02*
X10790000Y-8280000D01*
X10805000Y-9612000D02*
X10845000Y-9652000D01*
X10845000Y-9612000D02*
X10805000Y-9652000D01*
X10810000Y-7120000D02*
X10850000Y-7160000D01*
X10850000Y-7120000D02*
X10810000Y-7160000D01*
X10841882Y-9705694D02*
X10881882Y-9745694D01*
X10881882Y-9705694D02*
X10841882Y-9745694D01*
X10859405Y-8419886D02*
X10899405Y-8459886D01*
X10899405Y-8419886D02*
X10859405Y-8459886D01*
X10890250Y-7767750D02*
X10930250Y-7807750D01*
X10930250Y-7767750D02*
X10890250Y-7807750D01*
X10891000Y-8596000D02*
X10931000Y-8636000D01*
X10931000Y-8596000D02*
X10891000Y-8636000D01*
X10912500Y-13142500D02*
X10952500Y-13182500D01*
X10952500Y-13142500D02*
X10912500Y-13182500D01*
X10924000Y-8702000D02*
X10964000Y-8742000D01*
X10964000Y-8702000D02*
X10924000Y-8742000D01*
X10925000Y-10951000D02*
X10965000Y-10991000D01*
X10965000Y-10951000D02*
X10925000Y-10991000D01*
X10930000Y-13755000D02*
X10970000Y-13795000D01*
X10970000Y-13755000D02*
X10930000Y-13795000D01*
X10930000Y-13930000D02*
X10970000Y-13970000D01*
X10970000Y-13930000D02*
X10930000Y-13970000D01*
X10930000Y-14037500D02*
X10970000Y-14077500D01*
X10970000Y-14037500D02*
X10930000Y-14077500D01*
X10970000Y-7580000D02*
X11010000Y-7620000D01*
X11010000Y-7580000D02*
X10970000Y-7620000D01*
X11020000Y-8010000D02*
X11060000Y-8050000D01*
X11060000Y-8010000D02*
X11020000Y-8050000D01*
X11030000Y-7470000D02*
X11070000Y-7510000D01*
X11070000Y-7470000D02*
X11030000Y-7510000D01*
X11037500Y-13292500D02*
X11077500Y-13332500D01*
X11077500Y-13292500D02*
X11037500Y-13332500D01*
X11070000Y-9180000D02*
X11110000Y-9220000D01*
X11110000Y-9180000D02*
X11070000Y-9220000D01*
X11130000Y-13632500D02*
X11170000Y-13672500D01*
X11170000Y-13632500D02*
X11130000Y-13672500D01*
X11130000Y-13835000D02*
X11170000Y-13875000D01*
X11170000Y-13835000D02*
X11130000Y-13875000D01*
X11130000Y-13980000D02*
X11170000Y-14020000D01*
X11170000Y-13980000D02*
X11130000Y-14020000D01*
X11255750Y-8566750D02*
X11295750Y-8606750D01*
X11295750Y-8566750D02*
X11255750Y-8606750D01*
X11270000Y-8890000D02*
X11310000Y-8930000D01*
X11310000Y-8890000D02*
X11270000Y-8930000D01*
X11280000Y-13830000D02*
X11320000Y-13870000D01*
X11320000Y-13830000D02*
X11280000Y-13870000D01*
X11338000Y-13417000D02*
X11378000Y-13457000D01*
X11378000Y-13417000D02*
X11338000Y-13457000D01*
X11340000Y-8260000D02*
X11380000Y-8300000D01*
X11380000Y-8260000D02*
X11340000Y-8300000D01*
X11340000Y-9280000D02*
X11380000Y-9320000D01*
X11380000Y-9280000D02*
X11340000Y-9320000D01*
X11340000Y-9690000D02*
X11380000Y-9730000D01*
X11380000Y-9690000D02*
X11340000Y-9730000D01*
X11340000Y-9484460D02*
X11380000Y-9524460D01*
X11380000Y-9484460D02*
X11340000Y-9524460D01*
X11367500Y-7512500D02*
X11407500Y-7552500D01*
X11407500Y-7512500D02*
X11367500Y-7552500D01*
X11405000Y-13755000D02*
X11445000Y-13795000D01*
X11445000Y-13755000D02*
X11405000Y-13795000D01*
X11405000Y-13930000D02*
X11445000Y-13970000D01*
X11445000Y-13930000D02*
X11405000Y-13970000D01*
X11450000Y-8890000D02*
X11490000Y-8930000D01*
X11490000Y-8890000D02*
X11450000Y-8930000D01*
X11480500Y-9599500D02*
X11520500Y-9639500D01*
X11520500Y-9599500D02*
X11480500Y-9639500D01*
X11630000Y-8890000D02*
X11670000Y-8930000D01*
X11670000Y-8890000D02*
X11630000Y-8930000D01*
X11660000Y-9557000D02*
X11700000Y-9597000D01*
X11700000Y-9557000D02*
X11660000Y-9597000D01*
X11815000Y-8890000D02*
X11855000Y-8930000D01*
X11855000Y-8890000D02*
X11815000Y-8930000D01*
X11830000Y-9560000D02*
X11870000Y-9600000D01*
X11870000Y-9560000D02*
X11830000Y-9600000D01*
X11920000Y-9420000D02*
X11960000Y-9460000D01*
X11960000Y-9420000D02*
X11920000Y-9460000D01*
X11994000Y-9140000D02*
X12034000Y-9180000D01*
X12034000Y-9140000D02*
X11994000Y-9180000D01*
X12033000Y-9394000D02*
X12073000Y-9434000D01*
X12073000Y-9394000D02*
X12033000Y-9434000D01*
X12290000Y-9640000D02*
X12330000Y-9680000D01*
X12330000Y-9640000D02*
X12290000Y-9680000D01*
X12333000Y-9199000D02*
X12373000Y-9239000D01*
X12373000Y-9199000D02*
X12333000Y-9239000D01*
X12540000Y-9440000D02*
X12580000Y-9480000D01*
X12580000Y-9440000D02*
X12540000Y-9480000D01*
X12773000Y-9205000D02*
X12813000Y-9245000D01*
X12813000Y-9205000D02*
X12773000Y-9245000D01*
X11452000Y-14290000D02*
G75*
G02*
X11402000Y-14290000I-25000J0D01*
G01*
X11402000Y-14290000D02*
G75*
G02*
X11452000Y-14290000I25000J0D01*
G01*
X11402000Y-14255000D02*
X11402000Y-14325000D01*
X11452000Y-14325000D02*
G75*
G02*
X11402000Y-14325000I-25000J0D01*
G01*
X11452000Y-14325000D02*
X11452000Y-14255000D01*
X11452000Y-14255000D02*
G75*
G03*
X11402000Y-14255000I-25000J0D01*
G01*
X10573000Y-14262500D02*
X10573000Y-14317500D01*
X10545500Y-14290000D02*
X10600500Y-14290000D01*
X10545500Y-14265000D02*
X10545500Y-14315000D01*
X10600500Y-14315000D02*
G75*
G02*
X10545500Y-14315000I-27500J0D01*
G01*
X10600500Y-14315000D02*
X10600500Y-14265000D01*
X10600500Y-14265000D02*
G75*
G03*
X10545500Y-14265000I-27500J0D01*
G01*
D11*
X9705777Y-14766484D02*
X9705777Y-14566484D01*
X9705777Y-14566484D02*
X9753396Y-14566484D01*
X9753396Y-14566484D02*
X9781967Y-14576008D01*
X9781967Y-14576008D02*
X9801015Y-14595055D01*
X9801015Y-14595055D02*
X9810539Y-14614103D01*
X9810539Y-14614103D02*
X9820063Y-14652198D01*
X9820063Y-14652198D02*
X9820063Y-14680769D01*
X9820063Y-14680769D02*
X9810539Y-14718865D01*
X9810539Y-14718865D02*
X9801015Y-14737912D01*
X9801015Y-14737912D02*
X9781967Y-14756960D01*
X9781967Y-14756960D02*
X9753396Y-14766484D01*
X9753396Y-14766484D02*
X9705777Y-14766484D01*
X9905777Y-14766484D02*
X9905777Y-14633150D01*
X9905777Y-14671246D02*
X9915301Y-14652198D01*
X9915301Y-14652198D02*
X9924824Y-14642674D01*
X9924824Y-14642674D02*
X9943872Y-14633150D01*
X9943872Y-14633150D02*
X9962920Y-14633150D01*
X10029586Y-14766484D02*
X10029586Y-14633150D01*
X10029586Y-14566484D02*
X10020063Y-14576008D01*
X10020063Y-14576008D02*
X10029586Y-14585531D01*
X10029586Y-14585531D02*
X10039110Y-14576008D01*
X10039110Y-14576008D02*
X10029586Y-14566484D01*
X10029586Y-14566484D02*
X10029586Y-14585531D01*
X10153396Y-14766484D02*
X10134348Y-14756960D01*
X10134348Y-14756960D02*
X10124824Y-14737912D01*
X10124824Y-14737912D02*
X10124824Y-14566484D01*
X10258158Y-14766484D02*
X10239110Y-14756960D01*
X10239110Y-14756960D02*
X10229586Y-14737912D01*
X10229586Y-14737912D02*
X10229586Y-14566484D01*
X10486729Y-14766484D02*
X10486729Y-14566484D01*
X10486729Y-14566484D02*
X10553396Y-14709341D01*
X10553396Y-14709341D02*
X10620063Y-14566484D01*
X10620063Y-14566484D02*
X10620063Y-14766484D01*
X10801015Y-14766484D02*
X10801015Y-14661722D01*
X10801015Y-14661722D02*
X10791491Y-14642674D01*
X10791491Y-14642674D02*
X10772444Y-14633150D01*
X10772444Y-14633150D02*
X10734348Y-14633150D01*
X10734348Y-14633150D02*
X10715301Y-14642674D01*
X10801015Y-14756960D02*
X10781967Y-14766484D01*
X10781967Y-14766484D02*
X10734348Y-14766484D01*
X10734348Y-14766484D02*
X10715301Y-14756960D01*
X10715301Y-14756960D02*
X10705777Y-14737912D01*
X10705777Y-14737912D02*
X10705777Y-14718865D01*
X10705777Y-14718865D02*
X10715301Y-14699817D01*
X10715301Y-14699817D02*
X10734348Y-14690293D01*
X10734348Y-14690293D02*
X10781967Y-14690293D01*
X10781967Y-14690293D02*
X10801015Y-14680769D01*
X10896253Y-14633150D02*
X10896253Y-14833150D01*
X10896253Y-14642674D02*
X10915301Y-14633150D01*
X10915301Y-14633150D02*
X10953396Y-14633150D01*
X10953396Y-14633150D02*
X10972444Y-14642674D01*
X10972444Y-14642674D02*
X10981967Y-14652198D01*
X10981967Y-14652198D02*
X10991491Y-14671246D01*
X10991491Y-14671246D02*
X10991491Y-14728388D01*
X10991491Y-14728388D02*
X10981967Y-14747436D01*
X10981967Y-14747436D02*
X10972444Y-14756960D01*
X10972444Y-14756960D02*
X10953396Y-14766484D01*
X10953396Y-14766484D02*
X10915301Y-14766484D01*
X10915301Y-14766484D02*
X10896253Y-14756960D01*
X11077205Y-14747436D02*
X11086729Y-14756960D01*
X11086729Y-14756960D02*
X11077205Y-14766484D01*
X11077205Y-14766484D02*
X11067682Y-14756960D01*
X11067682Y-14756960D02*
X11077205Y-14747436D01*
X11077205Y-14747436D02*
X11077205Y-14766484D01*
X11077205Y-14642674D02*
X11086729Y-14652198D01*
X11086729Y-14652198D02*
X11077205Y-14661722D01*
X11077205Y-14661722D02*
X11067682Y-14652198D01*
X11067682Y-14652198D02*
X11077205Y-14642674D01*
X11077205Y-14642674D02*
X11077205Y-14661722D01*
D10*
X9405000Y-15075000D02*
X9445000Y-15115000D01*
X9445000Y-15075000D02*
X9405000Y-15115000D01*
D11*
X9743872Y-14986484D02*
X9762920Y-14986484D01*
X9762920Y-14986484D02*
X9781967Y-14996008D01*
X9781967Y-14996008D02*
X9791491Y-15005531D01*
X9791491Y-15005531D02*
X9801015Y-15024579D01*
X9801015Y-15024579D02*
X9810539Y-15062674D01*
X9810539Y-15062674D02*
X9810539Y-15110293D01*
X9810539Y-15110293D02*
X9801015Y-15148388D01*
X9801015Y-15148388D02*
X9791491Y-15167436D01*
X9791491Y-15167436D02*
X9781967Y-15176960D01*
X9781967Y-15176960D02*
X9762920Y-15186484D01*
X9762920Y-15186484D02*
X9743872Y-15186484D01*
X9743872Y-15186484D02*
X9724824Y-15176960D01*
X9724824Y-15176960D02*
X9715301Y-15167436D01*
X9715301Y-15167436D02*
X9705777Y-15148388D01*
X9705777Y-15148388D02*
X9696253Y-15110293D01*
X9696253Y-15110293D02*
X9696253Y-15062674D01*
X9696253Y-15062674D02*
X9705777Y-15024579D01*
X9705777Y-15024579D02*
X9715301Y-15005531D01*
X9715301Y-15005531D02*
X9724824Y-14996008D01*
X9724824Y-14996008D02*
X9743872Y-14986484D01*
X9896253Y-15167436D02*
X9905777Y-15176960D01*
X9905777Y-15176960D02*
X9896253Y-15186484D01*
X9896253Y-15186484D02*
X9886729Y-15176960D01*
X9886729Y-15176960D02*
X9896253Y-15167436D01*
X9896253Y-15167436D02*
X9896253Y-15186484D01*
X10077205Y-15053150D02*
X10077205Y-15186484D01*
X10029586Y-14976960D02*
X9981967Y-15119817D01*
X9981967Y-15119817D02*
X10105777Y-15119817D01*
X10220063Y-14986484D02*
X10239110Y-14986484D01*
X10239110Y-14986484D02*
X10258158Y-14996008D01*
X10258158Y-14996008D02*
X10267682Y-15005531D01*
X10267682Y-15005531D02*
X10277205Y-15024579D01*
X10277205Y-15024579D02*
X10286729Y-15062674D01*
X10286729Y-15062674D02*
X10286729Y-15110293D01*
X10286729Y-15110293D02*
X10277205Y-15148388D01*
X10277205Y-15148388D02*
X10267682Y-15167436D01*
X10267682Y-15167436D02*
X10258158Y-15176960D01*
X10258158Y-15176960D02*
X10239110Y-15186484D01*
X10239110Y-15186484D02*
X10220063Y-15186484D01*
X10220063Y-15186484D02*
X10201015Y-15176960D01*
X10201015Y-15176960D02*
X10191491Y-15167436D01*
X10191491Y-15167436D02*
X10181967Y-15148388D01*
X10181967Y-15148388D02*
X10172444Y-15110293D01*
X10172444Y-15110293D02*
X10172444Y-15062674D01*
X10172444Y-15062674D02*
X10181967Y-15024579D01*
X10181967Y-15024579D02*
X10191491Y-15005531D01*
X10191491Y-15005531D02*
X10201015Y-14996008D01*
X10201015Y-14996008D02*
X10220063Y-14986484D01*
X10410539Y-14986484D02*
X10429586Y-14986484D01*
X10429586Y-14986484D02*
X10448634Y-14996008D01*
X10448634Y-14996008D02*
X10458158Y-15005531D01*
X10458158Y-15005531D02*
X10467682Y-15024579D01*
X10467682Y-15024579D02*
X10477205Y-15062674D01*
X10477205Y-15062674D02*
X10477205Y-15110293D01*
X10477205Y-15110293D02*
X10467682Y-15148388D01*
X10467682Y-15148388D02*
X10458158Y-15167436D01*
X10458158Y-15167436D02*
X10448634Y-15176960D01*
X10448634Y-15176960D02*
X10429586Y-15186484D01*
X10429586Y-15186484D02*
X10410539Y-15186484D01*
X10410539Y-15186484D02*
X10391491Y-15176960D01*
X10391491Y-15176960D02*
X10381967Y-15167436D01*
X10381967Y-15167436D02*
X10372444Y-15148388D01*
X10372444Y-15148388D02*
X10362920Y-15110293D01*
X10362920Y-15110293D02*
X10362920Y-15062674D01*
X10362920Y-15062674D02*
X10372444Y-15024579D01*
X10372444Y-15024579D02*
X10381967Y-15005531D01*
X10381967Y-15005531D02*
X10391491Y-14996008D01*
X10391491Y-14996008D02*
X10410539Y-14986484D01*
X10562920Y-15186484D02*
X10562920Y-15053150D01*
X10562920Y-15072198D02*
X10572444Y-15062674D01*
X10572444Y-15062674D02*
X10591491Y-15053150D01*
X10591491Y-15053150D02*
X10620063Y-15053150D01*
X10620063Y-15053150D02*
X10639110Y-15062674D01*
X10639110Y-15062674D02*
X10648634Y-15081722D01*
X10648634Y-15081722D02*
X10648634Y-15186484D01*
X10648634Y-15081722D02*
X10658158Y-15062674D01*
X10658158Y-15062674D02*
X10677205Y-15053150D01*
X10677205Y-15053150D02*
X10705777Y-15053150D01*
X10705777Y-15053150D02*
X10724825Y-15062674D01*
X10724825Y-15062674D02*
X10734348Y-15081722D01*
X10734348Y-15081722D02*
X10734348Y-15186484D01*
X10829586Y-15186484D02*
X10829586Y-15053150D01*
X10829586Y-15072198D02*
X10839110Y-15062674D01*
X10839110Y-15062674D02*
X10858158Y-15053150D01*
X10858158Y-15053150D02*
X10886729Y-15053150D01*
X10886729Y-15053150D02*
X10905777Y-15062674D01*
X10905777Y-15062674D02*
X10915301Y-15081722D01*
X10915301Y-15081722D02*
X10915301Y-15186484D01*
X10915301Y-15081722D02*
X10924825Y-15062674D01*
X10924825Y-15062674D02*
X10943872Y-15053150D01*
X10943872Y-15053150D02*
X10972444Y-15053150D01*
X10972444Y-15053150D02*
X10991491Y-15062674D01*
X10991491Y-15062674D02*
X11001015Y-15081722D01*
X11001015Y-15081722D02*
X11001015Y-15186484D01*
X11391491Y-14976960D02*
X11220063Y-15234103D01*
X11648634Y-14986484D02*
X11667682Y-14986484D01*
X11667682Y-14986484D02*
X11686729Y-14996008D01*
X11686729Y-14996008D02*
X11696253Y-15005531D01*
X11696253Y-15005531D02*
X11705777Y-15024579D01*
X11705777Y-15024579D02*
X11715301Y-15062674D01*
X11715301Y-15062674D02*
X11715301Y-15110293D01*
X11715301Y-15110293D02*
X11705777Y-15148388D01*
X11705777Y-15148388D02*
X11696253Y-15167436D01*
X11696253Y-15167436D02*
X11686729Y-15176960D01*
X11686729Y-15176960D02*
X11667682Y-15186484D01*
X11667682Y-15186484D02*
X11648634Y-15186484D01*
X11648634Y-15186484D02*
X11629586Y-15176960D01*
X11629586Y-15176960D02*
X11620063Y-15167436D01*
X11620063Y-15167436D02*
X11610539Y-15148388D01*
X11610539Y-15148388D02*
X11601015Y-15110293D01*
X11601015Y-15110293D02*
X11601015Y-15062674D01*
X11601015Y-15062674D02*
X11610539Y-15024579D01*
X11610539Y-15024579D02*
X11620063Y-15005531D01*
X11620063Y-15005531D02*
X11629586Y-14996008D01*
X11629586Y-14996008D02*
X11648634Y-14986484D01*
X11801015Y-15167436D02*
X11810539Y-15176960D01*
X11810539Y-15176960D02*
X11801015Y-15186484D01*
X11801015Y-15186484D02*
X11791491Y-15176960D01*
X11791491Y-15176960D02*
X11801015Y-15167436D01*
X11801015Y-15167436D02*
X11801015Y-15186484D01*
X11934348Y-14986484D02*
X11953396Y-14986484D01*
X11953396Y-14986484D02*
X11972444Y-14996008D01*
X11972444Y-14996008D02*
X11981967Y-15005531D01*
X11981967Y-15005531D02*
X11991491Y-15024579D01*
X11991491Y-15024579D02*
X12001015Y-15062674D01*
X12001015Y-15062674D02*
X12001015Y-15110293D01*
X12001015Y-15110293D02*
X11991491Y-15148388D01*
X11991491Y-15148388D02*
X11981967Y-15167436D01*
X11981967Y-15167436D02*
X11972444Y-15176960D01*
X11972444Y-15176960D02*
X11953396Y-15186484D01*
X11953396Y-15186484D02*
X11934348Y-15186484D01*
X11934348Y-15186484D02*
X11915301Y-15176960D01*
X11915301Y-15176960D02*
X11905777Y-15167436D01*
X11905777Y-15167436D02*
X11896253Y-15148388D01*
X11896253Y-15148388D02*
X11886729Y-15110293D01*
X11886729Y-15110293D02*
X11886729Y-15062674D01*
X11886729Y-15062674D02*
X11896253Y-15024579D01*
X11896253Y-15024579D02*
X11905777Y-15005531D01*
X11905777Y-15005531D02*
X11915301Y-14996008D01*
X11915301Y-14996008D02*
X11934348Y-14986484D01*
X12191491Y-15186484D02*
X12077206Y-15186484D01*
X12134348Y-15186484D02*
X12134348Y-14986484D01*
X12134348Y-14986484D02*
X12115301Y-15015055D01*
X12115301Y-15015055D02*
X12096253Y-15034103D01*
X12096253Y-15034103D02*
X12077206Y-15043627D01*
X12372444Y-14986484D02*
X12277206Y-14986484D01*
X12277206Y-14986484D02*
X12267682Y-15081722D01*
X12267682Y-15081722D02*
X12277206Y-15072198D01*
X12277206Y-15072198D02*
X12296253Y-15062674D01*
X12296253Y-15062674D02*
X12343872Y-15062674D01*
X12343872Y-15062674D02*
X12362920Y-15072198D01*
X12362920Y-15072198D02*
X12372444Y-15081722D01*
X12372444Y-15081722D02*
X12381967Y-15100769D01*
X12381967Y-15100769D02*
X12381967Y-15148388D01*
X12381967Y-15148388D02*
X12372444Y-15167436D01*
X12372444Y-15167436D02*
X12362920Y-15176960D01*
X12362920Y-15176960D02*
X12343872Y-15186484D01*
X12343872Y-15186484D02*
X12296253Y-15186484D01*
X12296253Y-15186484D02*
X12277206Y-15176960D01*
X12277206Y-15176960D02*
X12267682Y-15167436D01*
X12448634Y-14986484D02*
X12581967Y-14986484D01*
X12581967Y-14986484D02*
X12496253Y-15186484D01*
X12648634Y-14986484D02*
X12648634Y-15024579D01*
X12724825Y-14986484D02*
X12724825Y-15024579D01*
X13020063Y-15262674D02*
X13010539Y-15253150D01*
X13010539Y-15253150D02*
X12991491Y-15224579D01*
X12991491Y-15224579D02*
X12981968Y-15205531D01*
X12981968Y-15205531D02*
X12972444Y-15176960D01*
X12972444Y-15176960D02*
X12962920Y-15129341D01*
X12962920Y-15129341D02*
X12962920Y-15091246D01*
X12962920Y-15091246D02*
X12972444Y-15043627D01*
X12972444Y-15043627D02*
X12981968Y-15015055D01*
X12981968Y-15015055D02*
X12991491Y-14996008D01*
X12991491Y-14996008D02*
X13010539Y-14967436D01*
X13010539Y-14967436D02*
X13020063Y-14957912D01*
X13077206Y-14986484D02*
X13210539Y-14986484D01*
X13210539Y-14986484D02*
X13124825Y-15186484D01*
X13391491Y-15186484D02*
X13277206Y-15186484D01*
X13334348Y-15186484D02*
X13334348Y-14986484D01*
X13334348Y-14986484D02*
X13315301Y-15015055D01*
X13315301Y-15015055D02*
X13296253Y-15034103D01*
X13296253Y-15034103D02*
X13277206Y-15043627D01*
X13629587Y-15186484D02*
X13629587Y-14986484D01*
X13715301Y-15186484D02*
X13715301Y-15081722D01*
X13715301Y-15081722D02*
X13705777Y-15062674D01*
X13705777Y-15062674D02*
X13686730Y-15053150D01*
X13686730Y-15053150D02*
X13658158Y-15053150D01*
X13658158Y-15053150D02*
X13639110Y-15062674D01*
X13639110Y-15062674D02*
X13629587Y-15072198D01*
X13839110Y-15186484D02*
X13820063Y-15176960D01*
X13820063Y-15176960D02*
X13810539Y-15167436D01*
X13810539Y-15167436D02*
X13801015Y-15148388D01*
X13801015Y-15148388D02*
X13801015Y-15091246D01*
X13801015Y-15091246D02*
X13810539Y-15072198D01*
X13810539Y-15072198D02*
X13820063Y-15062674D01*
X13820063Y-15062674D02*
X13839110Y-15053150D01*
X13839110Y-15053150D02*
X13867682Y-15053150D01*
X13867682Y-15053150D02*
X13886730Y-15062674D01*
X13886730Y-15062674D02*
X13896253Y-15072198D01*
X13896253Y-15072198D02*
X13905777Y-15091246D01*
X13905777Y-15091246D02*
X13905777Y-15148388D01*
X13905777Y-15148388D02*
X13896253Y-15167436D01*
X13896253Y-15167436D02*
X13886730Y-15176960D01*
X13886730Y-15176960D02*
X13867682Y-15186484D01*
X13867682Y-15186484D02*
X13839110Y-15186484D01*
X14020063Y-15186484D02*
X14001015Y-15176960D01*
X14001015Y-15176960D02*
X13991491Y-15157912D01*
X13991491Y-15157912D02*
X13991491Y-14986484D01*
X14172444Y-15176960D02*
X14153396Y-15186484D01*
X14153396Y-15186484D02*
X14115301Y-15186484D01*
X14115301Y-15186484D02*
X14096253Y-15176960D01*
X14096253Y-15176960D02*
X14086730Y-15157912D01*
X14086730Y-15157912D02*
X14086730Y-15081722D01*
X14086730Y-15081722D02*
X14096253Y-15062674D01*
X14096253Y-15062674D02*
X14115301Y-15053150D01*
X14115301Y-15053150D02*
X14153396Y-15053150D01*
X14153396Y-15053150D02*
X14172444Y-15062674D01*
X14172444Y-15062674D02*
X14181968Y-15081722D01*
X14181968Y-15081722D02*
X14181968Y-15100769D01*
X14181968Y-15100769D02*
X14086730Y-15119817D01*
X14258158Y-15176960D02*
X14277206Y-15186484D01*
X14277206Y-15186484D02*
X14315301Y-15186484D01*
X14315301Y-15186484D02*
X14334349Y-15176960D01*
X14334349Y-15176960D02*
X14343872Y-15157912D01*
X14343872Y-15157912D02*
X14343872Y-15148388D01*
X14343872Y-15148388D02*
X14334349Y-15129341D01*
X14334349Y-15129341D02*
X14315301Y-15119817D01*
X14315301Y-15119817D02*
X14286730Y-15119817D01*
X14286730Y-15119817D02*
X14267682Y-15110293D01*
X14267682Y-15110293D02*
X14258158Y-15091246D01*
X14258158Y-15091246D02*
X14258158Y-15081722D01*
X14258158Y-15081722D02*
X14267682Y-15062674D01*
X14267682Y-15062674D02*
X14286730Y-15053150D01*
X14286730Y-15053150D02*
X14315301Y-15053150D01*
X14315301Y-15053150D02*
X14334349Y-15062674D01*
X14410539Y-15262674D02*
X14420063Y-15253150D01*
X14420063Y-15253150D02*
X14439111Y-15224579D01*
X14439111Y-15224579D02*
X14448634Y-15205531D01*
X14448634Y-15205531D02*
X14458158Y-15176960D01*
X14458158Y-15176960D02*
X14467682Y-15129341D01*
X14467682Y-15129341D02*
X14467682Y-15091246D01*
X14467682Y-15091246D02*
X14458158Y-15043627D01*
X14458158Y-15043627D02*
X14448634Y-15015055D01*
X14448634Y-15015055D02*
X14439111Y-14996008D01*
X14439111Y-14996008D02*
X14420063Y-14967436D01*
X14420063Y-14967436D02*
X14410539Y-14957912D01*
D10*
X9445000Y-15359000D02*
G75*
G02*
X9395000Y-15359000I-25000J0D01*
G01*
X9395000Y-15359000D02*
G75*
G02*
X9445000Y-15359000I25000J0D01*
G01*
D11*
X9743872Y-15250484D02*
X9762920Y-15250484D01*
X9762920Y-15250484D02*
X9781967Y-15260008D01*
X9781967Y-15260008D02*
X9791491Y-15269531D01*
X9791491Y-15269531D02*
X9801015Y-15288579D01*
X9801015Y-15288579D02*
X9810539Y-15326674D01*
X9810539Y-15326674D02*
X9810539Y-15374293D01*
X9810539Y-15374293D02*
X9801015Y-15412388D01*
X9801015Y-15412388D02*
X9791491Y-15431436D01*
X9791491Y-15431436D02*
X9781967Y-15440960D01*
X9781967Y-15440960D02*
X9762920Y-15450484D01*
X9762920Y-15450484D02*
X9743872Y-15450484D01*
X9743872Y-15450484D02*
X9724824Y-15440960D01*
X9724824Y-15440960D02*
X9715301Y-15431436D01*
X9715301Y-15431436D02*
X9705777Y-15412388D01*
X9705777Y-15412388D02*
X9696253Y-15374293D01*
X9696253Y-15374293D02*
X9696253Y-15326674D01*
X9696253Y-15326674D02*
X9705777Y-15288579D01*
X9705777Y-15288579D02*
X9715301Y-15269531D01*
X9715301Y-15269531D02*
X9724824Y-15260008D01*
X9724824Y-15260008D02*
X9743872Y-15250484D01*
X9896253Y-15431436D02*
X9905777Y-15440960D01*
X9905777Y-15440960D02*
X9896253Y-15450484D01*
X9896253Y-15450484D02*
X9886729Y-15440960D01*
X9886729Y-15440960D02*
X9896253Y-15431436D01*
X9896253Y-15431436D02*
X9896253Y-15450484D01*
X10086729Y-15250484D02*
X9991491Y-15250484D01*
X9991491Y-15250484D02*
X9981967Y-15345722D01*
X9981967Y-15345722D02*
X9991491Y-15336198D01*
X9991491Y-15336198D02*
X10010539Y-15326674D01*
X10010539Y-15326674D02*
X10058158Y-15326674D01*
X10058158Y-15326674D02*
X10077205Y-15336198D01*
X10077205Y-15336198D02*
X10086729Y-15345722D01*
X10086729Y-15345722D02*
X10096253Y-15364769D01*
X10096253Y-15364769D02*
X10096253Y-15412388D01*
X10096253Y-15412388D02*
X10086729Y-15431436D01*
X10086729Y-15431436D02*
X10077205Y-15440960D01*
X10077205Y-15440960D02*
X10058158Y-15450484D01*
X10058158Y-15450484D02*
X10010539Y-15450484D01*
X10010539Y-15450484D02*
X9991491Y-15440960D01*
X9991491Y-15440960D02*
X9981967Y-15431436D01*
X10220063Y-15250484D02*
X10239110Y-15250484D01*
X10239110Y-15250484D02*
X10258158Y-15260008D01*
X10258158Y-15260008D02*
X10267682Y-15269531D01*
X10267682Y-15269531D02*
X10277205Y-15288579D01*
X10277205Y-15288579D02*
X10286729Y-15326674D01*
X10286729Y-15326674D02*
X10286729Y-15374293D01*
X10286729Y-15374293D02*
X10277205Y-15412388D01*
X10277205Y-15412388D02*
X10267682Y-15431436D01*
X10267682Y-15431436D02*
X10258158Y-15440960D01*
X10258158Y-15440960D02*
X10239110Y-15450484D01*
X10239110Y-15450484D02*
X10220063Y-15450484D01*
X10220063Y-15450484D02*
X10201015Y-15440960D01*
X10201015Y-15440960D02*
X10191491Y-15431436D01*
X10191491Y-15431436D02*
X10181967Y-15412388D01*
X10181967Y-15412388D02*
X10172444Y-15374293D01*
X10172444Y-15374293D02*
X10172444Y-15326674D01*
X10172444Y-15326674D02*
X10181967Y-15288579D01*
X10181967Y-15288579D02*
X10191491Y-15269531D01*
X10191491Y-15269531D02*
X10201015Y-15260008D01*
X10201015Y-15260008D02*
X10220063Y-15250484D01*
X10410539Y-15250484D02*
X10429586Y-15250484D01*
X10429586Y-15250484D02*
X10448634Y-15260008D01*
X10448634Y-15260008D02*
X10458158Y-15269531D01*
X10458158Y-15269531D02*
X10467682Y-15288579D01*
X10467682Y-15288579D02*
X10477205Y-15326674D01*
X10477205Y-15326674D02*
X10477205Y-15374293D01*
X10477205Y-15374293D02*
X10467682Y-15412388D01*
X10467682Y-15412388D02*
X10458158Y-15431436D01*
X10458158Y-15431436D02*
X10448634Y-15440960D01*
X10448634Y-15440960D02*
X10429586Y-15450484D01*
X10429586Y-15450484D02*
X10410539Y-15450484D01*
X10410539Y-15450484D02*
X10391491Y-15440960D01*
X10391491Y-15440960D02*
X10381967Y-15431436D01*
X10381967Y-15431436D02*
X10372444Y-15412388D01*
X10372444Y-15412388D02*
X10362920Y-15374293D01*
X10362920Y-15374293D02*
X10362920Y-15326674D01*
X10362920Y-15326674D02*
X10372444Y-15288579D01*
X10372444Y-15288579D02*
X10381967Y-15269531D01*
X10381967Y-15269531D02*
X10391491Y-15260008D01*
X10391491Y-15260008D02*
X10410539Y-15250484D01*
X10562920Y-15450484D02*
X10562920Y-15317150D01*
X10562920Y-15336198D02*
X10572444Y-15326674D01*
X10572444Y-15326674D02*
X10591491Y-15317150D01*
X10591491Y-15317150D02*
X10620063Y-15317150D01*
X10620063Y-15317150D02*
X10639110Y-15326674D01*
X10639110Y-15326674D02*
X10648634Y-15345722D01*
X10648634Y-15345722D02*
X10648634Y-15450484D01*
X10648634Y-15345722D02*
X10658158Y-15326674D01*
X10658158Y-15326674D02*
X10677205Y-15317150D01*
X10677205Y-15317150D02*
X10705777Y-15317150D01*
X10705777Y-15317150D02*
X10724825Y-15326674D01*
X10724825Y-15326674D02*
X10734348Y-15345722D01*
X10734348Y-15345722D02*
X10734348Y-15450484D01*
X10829586Y-15450484D02*
X10829586Y-15317150D01*
X10829586Y-15336198D02*
X10839110Y-15326674D01*
X10839110Y-15326674D02*
X10858158Y-15317150D01*
X10858158Y-15317150D02*
X10886729Y-15317150D01*
X10886729Y-15317150D02*
X10905777Y-15326674D01*
X10905777Y-15326674D02*
X10915301Y-15345722D01*
X10915301Y-15345722D02*
X10915301Y-15450484D01*
X10915301Y-15345722D02*
X10924825Y-15326674D01*
X10924825Y-15326674D02*
X10943872Y-15317150D01*
X10943872Y-15317150D02*
X10972444Y-15317150D01*
X10972444Y-15317150D02*
X10991491Y-15326674D01*
X10991491Y-15326674D02*
X11001015Y-15345722D01*
X11001015Y-15345722D02*
X11001015Y-15450484D01*
X11391491Y-15240960D02*
X11220063Y-15498103D01*
X11648634Y-15250484D02*
X11667682Y-15250484D01*
X11667682Y-15250484D02*
X11686729Y-15260008D01*
X11686729Y-15260008D02*
X11696253Y-15269531D01*
X11696253Y-15269531D02*
X11705777Y-15288579D01*
X11705777Y-15288579D02*
X11715301Y-15326674D01*
X11715301Y-15326674D02*
X11715301Y-15374293D01*
X11715301Y-15374293D02*
X11705777Y-15412388D01*
X11705777Y-15412388D02*
X11696253Y-15431436D01*
X11696253Y-15431436D02*
X11686729Y-15440960D01*
X11686729Y-15440960D02*
X11667682Y-15450484D01*
X11667682Y-15450484D02*
X11648634Y-15450484D01*
X11648634Y-15450484D02*
X11629586Y-15440960D01*
X11629586Y-15440960D02*
X11620063Y-15431436D01*
X11620063Y-15431436D02*
X11610539Y-15412388D01*
X11610539Y-15412388D02*
X11601015Y-15374293D01*
X11601015Y-15374293D02*
X11601015Y-15326674D01*
X11601015Y-15326674D02*
X11610539Y-15288579D01*
X11610539Y-15288579D02*
X11620063Y-15269531D01*
X11620063Y-15269531D02*
X11629586Y-15260008D01*
X11629586Y-15260008D02*
X11648634Y-15250484D01*
X11801015Y-15431436D02*
X11810539Y-15440960D01*
X11810539Y-15440960D02*
X11801015Y-15450484D01*
X11801015Y-15450484D02*
X11791491Y-15440960D01*
X11791491Y-15440960D02*
X11801015Y-15431436D01*
X11801015Y-15431436D02*
X11801015Y-15450484D01*
X11934348Y-15250484D02*
X11953396Y-15250484D01*
X11953396Y-15250484D02*
X11972444Y-15260008D01*
X11972444Y-15260008D02*
X11981967Y-15269531D01*
X11981967Y-15269531D02*
X11991491Y-15288579D01*
X11991491Y-15288579D02*
X12001015Y-15326674D01*
X12001015Y-15326674D02*
X12001015Y-15374293D01*
X12001015Y-15374293D02*
X11991491Y-15412388D01*
X11991491Y-15412388D02*
X11981967Y-15431436D01*
X11981967Y-15431436D02*
X11972444Y-15440960D01*
X11972444Y-15440960D02*
X11953396Y-15450484D01*
X11953396Y-15450484D02*
X11934348Y-15450484D01*
X11934348Y-15450484D02*
X11915301Y-15440960D01*
X11915301Y-15440960D02*
X11905777Y-15431436D01*
X11905777Y-15431436D02*
X11896253Y-15412388D01*
X11896253Y-15412388D02*
X11886729Y-15374293D01*
X11886729Y-15374293D02*
X11886729Y-15326674D01*
X11886729Y-15326674D02*
X11896253Y-15288579D01*
X11896253Y-15288579D02*
X11905777Y-15269531D01*
X11905777Y-15269531D02*
X11915301Y-15260008D01*
X11915301Y-15260008D02*
X11934348Y-15250484D01*
X12191491Y-15450484D02*
X12077206Y-15450484D01*
X12134348Y-15450484D02*
X12134348Y-15250484D01*
X12134348Y-15250484D02*
X12115301Y-15279055D01*
X12115301Y-15279055D02*
X12096253Y-15298103D01*
X12096253Y-15298103D02*
X12077206Y-15307627D01*
X12286729Y-15450484D02*
X12324825Y-15450484D01*
X12324825Y-15450484D02*
X12343872Y-15440960D01*
X12343872Y-15440960D02*
X12353396Y-15431436D01*
X12353396Y-15431436D02*
X12372444Y-15402865D01*
X12372444Y-15402865D02*
X12381967Y-15364769D01*
X12381967Y-15364769D02*
X12381967Y-15288579D01*
X12381967Y-15288579D02*
X12372444Y-15269531D01*
X12372444Y-15269531D02*
X12362920Y-15260008D01*
X12362920Y-15260008D02*
X12343872Y-15250484D01*
X12343872Y-15250484D02*
X12305777Y-15250484D01*
X12305777Y-15250484D02*
X12286729Y-15260008D01*
X12286729Y-15260008D02*
X12277206Y-15269531D01*
X12277206Y-15269531D02*
X12267682Y-15288579D01*
X12267682Y-15288579D02*
X12267682Y-15336198D01*
X12267682Y-15336198D02*
X12277206Y-15355246D01*
X12277206Y-15355246D02*
X12286729Y-15364769D01*
X12286729Y-15364769D02*
X12305777Y-15374293D01*
X12305777Y-15374293D02*
X12343872Y-15374293D01*
X12343872Y-15374293D02*
X12362920Y-15364769D01*
X12362920Y-15364769D02*
X12372444Y-15355246D01*
X12372444Y-15355246D02*
X12381967Y-15336198D01*
X12448634Y-15250484D02*
X12581967Y-15250484D01*
X12581967Y-15250484D02*
X12496253Y-15450484D01*
X12648634Y-15250484D02*
X12648634Y-15288579D01*
X12724825Y-15250484D02*
X12724825Y-15288579D01*
X13020063Y-15526674D02*
X13010539Y-15517150D01*
X13010539Y-15517150D02*
X12991491Y-15488579D01*
X12991491Y-15488579D02*
X12981968Y-15469531D01*
X12981968Y-15469531D02*
X12972444Y-15440960D01*
X12972444Y-15440960D02*
X12962920Y-15393341D01*
X12962920Y-15393341D02*
X12962920Y-15355246D01*
X12962920Y-15355246D02*
X12972444Y-15307627D01*
X12972444Y-15307627D02*
X12981968Y-15279055D01*
X12981968Y-15279055D02*
X12991491Y-15260008D01*
X12991491Y-15260008D02*
X13010539Y-15231436D01*
X13010539Y-15231436D02*
X13020063Y-15221912D01*
X13201015Y-15450484D02*
X13086729Y-15450484D01*
X13143872Y-15450484D02*
X13143872Y-15250484D01*
X13143872Y-15250484D02*
X13124825Y-15279055D01*
X13124825Y-15279055D02*
X13105777Y-15298103D01*
X13105777Y-15298103D02*
X13086729Y-15307627D01*
X13429587Y-15440960D02*
X13448634Y-15450484D01*
X13448634Y-15450484D02*
X13486729Y-15450484D01*
X13486729Y-15450484D02*
X13505777Y-15440960D01*
X13505777Y-15440960D02*
X13515301Y-15421912D01*
X13515301Y-15421912D02*
X13515301Y-15412388D01*
X13515301Y-15412388D02*
X13505777Y-15393341D01*
X13505777Y-15393341D02*
X13486729Y-15383817D01*
X13486729Y-15383817D02*
X13458158Y-15383817D01*
X13458158Y-15383817D02*
X13439110Y-15374293D01*
X13439110Y-15374293D02*
X13429587Y-15355246D01*
X13429587Y-15355246D02*
X13429587Y-15345722D01*
X13429587Y-15345722D02*
X13439110Y-15326674D01*
X13439110Y-15326674D02*
X13458158Y-15317150D01*
X13458158Y-15317150D02*
X13486729Y-15317150D01*
X13486729Y-15317150D02*
X13505777Y-15326674D01*
X13629587Y-15450484D02*
X13610539Y-15440960D01*
X13610539Y-15440960D02*
X13601015Y-15421912D01*
X13601015Y-15421912D02*
X13601015Y-15250484D01*
X13734349Y-15450484D02*
X13715301Y-15440960D01*
X13715301Y-15440960D02*
X13705777Y-15431436D01*
X13705777Y-15431436D02*
X13696253Y-15412388D01*
X13696253Y-15412388D02*
X13696253Y-15355246D01*
X13696253Y-15355246D02*
X13705777Y-15336198D01*
X13705777Y-15336198D02*
X13715301Y-15326674D01*
X13715301Y-15326674D02*
X13734349Y-15317150D01*
X13734349Y-15317150D02*
X13762920Y-15317150D01*
X13762920Y-15317150D02*
X13781968Y-15326674D01*
X13781968Y-15326674D02*
X13791491Y-15336198D01*
X13791491Y-15336198D02*
X13801015Y-15355246D01*
X13801015Y-15355246D02*
X13801015Y-15412388D01*
X13801015Y-15412388D02*
X13791491Y-15431436D01*
X13791491Y-15431436D02*
X13781968Y-15440960D01*
X13781968Y-15440960D02*
X13762920Y-15450484D01*
X13762920Y-15450484D02*
X13734349Y-15450484D01*
X13858158Y-15317150D02*
X13934349Y-15317150D01*
X13886730Y-15250484D02*
X13886730Y-15421912D01*
X13886730Y-15421912D02*
X13896253Y-15440960D01*
X13896253Y-15440960D02*
X13915301Y-15450484D01*
X13915301Y-15450484D02*
X13934349Y-15450484D01*
X13981968Y-15526674D02*
X13991491Y-15517150D01*
X13991491Y-15517150D02*
X14010539Y-15488579D01*
X14010539Y-15488579D02*
X14020063Y-15469531D01*
X14020063Y-15469531D02*
X14029587Y-15440960D01*
X14029587Y-15440960D02*
X14039110Y-15393341D01*
X14039110Y-15393341D02*
X14039110Y-15355246D01*
X14039110Y-15355246D02*
X14029587Y-15307627D01*
X14029587Y-15307627D02*
X14020063Y-15279055D01*
X14020063Y-15279055D02*
X14010539Y-15260008D01*
X14010539Y-15260008D02*
X13991491Y-15231436D01*
X13991491Y-15231436D02*
X13981968Y-15221912D01*
D10*
X9417500Y-15595500D02*
X9417500Y-15650500D01*
X9390000Y-15623000D02*
X9445000Y-15623000D01*
D11*
X9743872Y-15514484D02*
X9762920Y-15514484D01*
X9762920Y-15514484D02*
X9781967Y-15524008D01*
X9781967Y-15524008D02*
X9791491Y-15533531D01*
X9791491Y-15533531D02*
X9801015Y-15552579D01*
X9801015Y-15552579D02*
X9810539Y-15590674D01*
X9810539Y-15590674D02*
X9810539Y-15638293D01*
X9810539Y-15638293D02*
X9801015Y-15676388D01*
X9801015Y-15676388D02*
X9791491Y-15695436D01*
X9791491Y-15695436D02*
X9781967Y-15704960D01*
X9781967Y-15704960D02*
X9762920Y-15714484D01*
X9762920Y-15714484D02*
X9743872Y-15714484D01*
X9743872Y-15714484D02*
X9724824Y-15704960D01*
X9724824Y-15704960D02*
X9715301Y-15695436D01*
X9715301Y-15695436D02*
X9705777Y-15676388D01*
X9705777Y-15676388D02*
X9696253Y-15638293D01*
X9696253Y-15638293D02*
X9696253Y-15590674D01*
X9696253Y-15590674D02*
X9705777Y-15552579D01*
X9705777Y-15552579D02*
X9715301Y-15533531D01*
X9715301Y-15533531D02*
X9724824Y-15524008D01*
X9724824Y-15524008D02*
X9743872Y-15514484D01*
X9896253Y-15695436D02*
X9905777Y-15704960D01*
X9905777Y-15704960D02*
X9896253Y-15714484D01*
X9896253Y-15714484D02*
X9886729Y-15704960D01*
X9886729Y-15704960D02*
X9896253Y-15695436D01*
X9896253Y-15695436D02*
X9896253Y-15714484D01*
X10086729Y-15514484D02*
X9991491Y-15514484D01*
X9991491Y-15514484D02*
X9981967Y-15609722D01*
X9981967Y-15609722D02*
X9991491Y-15600198D01*
X9991491Y-15600198D02*
X10010539Y-15590674D01*
X10010539Y-15590674D02*
X10058158Y-15590674D01*
X10058158Y-15590674D02*
X10077205Y-15600198D01*
X10077205Y-15600198D02*
X10086729Y-15609722D01*
X10086729Y-15609722D02*
X10096253Y-15628769D01*
X10096253Y-15628769D02*
X10096253Y-15676388D01*
X10096253Y-15676388D02*
X10086729Y-15695436D01*
X10086729Y-15695436D02*
X10077205Y-15704960D01*
X10077205Y-15704960D02*
X10058158Y-15714484D01*
X10058158Y-15714484D02*
X10010539Y-15714484D01*
X10010539Y-15714484D02*
X9991491Y-15704960D01*
X9991491Y-15704960D02*
X9981967Y-15695436D01*
X10277205Y-15514484D02*
X10181967Y-15514484D01*
X10181967Y-15514484D02*
X10172444Y-15609722D01*
X10172444Y-15609722D02*
X10181967Y-15600198D01*
X10181967Y-15600198D02*
X10201015Y-15590674D01*
X10201015Y-15590674D02*
X10248634Y-15590674D01*
X10248634Y-15590674D02*
X10267682Y-15600198D01*
X10267682Y-15600198D02*
X10277205Y-15609722D01*
X10277205Y-15609722D02*
X10286729Y-15628769D01*
X10286729Y-15628769D02*
X10286729Y-15676388D01*
X10286729Y-15676388D02*
X10277205Y-15695436D01*
X10277205Y-15695436D02*
X10267682Y-15704960D01*
X10267682Y-15704960D02*
X10248634Y-15714484D01*
X10248634Y-15714484D02*
X10201015Y-15714484D01*
X10201015Y-15714484D02*
X10181967Y-15704960D01*
X10181967Y-15704960D02*
X10172444Y-15695436D01*
X10410539Y-15514484D02*
X10429586Y-15514484D01*
X10429586Y-15514484D02*
X10448634Y-15524008D01*
X10448634Y-15524008D02*
X10458158Y-15533531D01*
X10458158Y-15533531D02*
X10467682Y-15552579D01*
X10467682Y-15552579D02*
X10477205Y-15590674D01*
X10477205Y-15590674D02*
X10477205Y-15638293D01*
X10477205Y-15638293D02*
X10467682Y-15676388D01*
X10467682Y-15676388D02*
X10458158Y-15695436D01*
X10458158Y-15695436D02*
X10448634Y-15704960D01*
X10448634Y-15704960D02*
X10429586Y-15714484D01*
X10429586Y-15714484D02*
X10410539Y-15714484D01*
X10410539Y-15714484D02*
X10391491Y-15704960D01*
X10391491Y-15704960D02*
X10381967Y-15695436D01*
X10381967Y-15695436D02*
X10372444Y-15676388D01*
X10372444Y-15676388D02*
X10362920Y-15638293D01*
X10362920Y-15638293D02*
X10362920Y-15590674D01*
X10362920Y-15590674D02*
X10372444Y-15552579D01*
X10372444Y-15552579D02*
X10381967Y-15533531D01*
X10381967Y-15533531D02*
X10391491Y-15524008D01*
X10391491Y-15524008D02*
X10410539Y-15514484D01*
X10562920Y-15714484D02*
X10562920Y-15581150D01*
X10562920Y-15600198D02*
X10572444Y-15590674D01*
X10572444Y-15590674D02*
X10591491Y-15581150D01*
X10591491Y-15581150D02*
X10620063Y-15581150D01*
X10620063Y-15581150D02*
X10639110Y-15590674D01*
X10639110Y-15590674D02*
X10648634Y-15609722D01*
X10648634Y-15609722D02*
X10648634Y-15714484D01*
X10648634Y-15609722D02*
X10658158Y-15590674D01*
X10658158Y-15590674D02*
X10677205Y-15581150D01*
X10677205Y-15581150D02*
X10705777Y-15581150D01*
X10705777Y-15581150D02*
X10724825Y-15590674D01*
X10724825Y-15590674D02*
X10734348Y-15609722D01*
X10734348Y-15609722D02*
X10734348Y-15714484D01*
X10829586Y-15714484D02*
X10829586Y-15581150D01*
X10829586Y-15600198D02*
X10839110Y-15590674D01*
X10839110Y-15590674D02*
X10858158Y-15581150D01*
X10858158Y-15581150D02*
X10886729Y-15581150D01*
X10886729Y-15581150D02*
X10905777Y-15590674D01*
X10905777Y-15590674D02*
X10915301Y-15609722D01*
X10915301Y-15609722D02*
X10915301Y-15714484D01*
X10915301Y-15609722D02*
X10924825Y-15590674D01*
X10924825Y-15590674D02*
X10943872Y-15581150D01*
X10943872Y-15581150D02*
X10972444Y-15581150D01*
X10972444Y-15581150D02*
X10991491Y-15590674D01*
X10991491Y-15590674D02*
X11001015Y-15609722D01*
X11001015Y-15609722D02*
X11001015Y-15714484D01*
X11391491Y-15504960D02*
X11220063Y-15762103D01*
X11648634Y-15514484D02*
X11667682Y-15514484D01*
X11667682Y-15514484D02*
X11686729Y-15524008D01*
X11686729Y-15524008D02*
X11696253Y-15533531D01*
X11696253Y-15533531D02*
X11705777Y-15552579D01*
X11705777Y-15552579D02*
X11715301Y-15590674D01*
X11715301Y-15590674D02*
X11715301Y-15638293D01*
X11715301Y-15638293D02*
X11705777Y-15676388D01*
X11705777Y-15676388D02*
X11696253Y-15695436D01*
X11696253Y-15695436D02*
X11686729Y-15704960D01*
X11686729Y-15704960D02*
X11667682Y-15714484D01*
X11667682Y-15714484D02*
X11648634Y-15714484D01*
X11648634Y-15714484D02*
X11629586Y-15704960D01*
X11629586Y-15704960D02*
X11620063Y-15695436D01*
X11620063Y-15695436D02*
X11610539Y-15676388D01*
X11610539Y-15676388D02*
X11601015Y-15638293D01*
X11601015Y-15638293D02*
X11601015Y-15590674D01*
X11601015Y-15590674D02*
X11610539Y-15552579D01*
X11610539Y-15552579D02*
X11620063Y-15533531D01*
X11620063Y-15533531D02*
X11629586Y-15524008D01*
X11629586Y-15524008D02*
X11648634Y-15514484D01*
X11801015Y-15695436D02*
X11810539Y-15704960D01*
X11810539Y-15704960D02*
X11801015Y-15714484D01*
X11801015Y-15714484D02*
X11791491Y-15704960D01*
X11791491Y-15704960D02*
X11801015Y-15695436D01*
X11801015Y-15695436D02*
X11801015Y-15714484D01*
X11934348Y-15514484D02*
X11953396Y-15514484D01*
X11953396Y-15514484D02*
X11972444Y-15524008D01*
X11972444Y-15524008D02*
X11981967Y-15533531D01*
X11981967Y-15533531D02*
X11991491Y-15552579D01*
X11991491Y-15552579D02*
X12001015Y-15590674D01*
X12001015Y-15590674D02*
X12001015Y-15638293D01*
X12001015Y-15638293D02*
X11991491Y-15676388D01*
X11991491Y-15676388D02*
X11981967Y-15695436D01*
X11981967Y-15695436D02*
X11972444Y-15704960D01*
X11972444Y-15704960D02*
X11953396Y-15714484D01*
X11953396Y-15714484D02*
X11934348Y-15714484D01*
X11934348Y-15714484D02*
X11915301Y-15704960D01*
X11915301Y-15704960D02*
X11905777Y-15695436D01*
X11905777Y-15695436D02*
X11896253Y-15676388D01*
X11896253Y-15676388D02*
X11886729Y-15638293D01*
X11886729Y-15638293D02*
X11886729Y-15590674D01*
X11886729Y-15590674D02*
X11896253Y-15552579D01*
X11896253Y-15552579D02*
X11905777Y-15533531D01*
X11905777Y-15533531D02*
X11915301Y-15524008D01*
X11915301Y-15524008D02*
X11934348Y-15514484D01*
X12077206Y-15533531D02*
X12086729Y-15524008D01*
X12086729Y-15524008D02*
X12105777Y-15514484D01*
X12105777Y-15514484D02*
X12153396Y-15514484D01*
X12153396Y-15514484D02*
X12172444Y-15524008D01*
X12172444Y-15524008D02*
X12181967Y-15533531D01*
X12181967Y-15533531D02*
X12191491Y-15552579D01*
X12191491Y-15552579D02*
X12191491Y-15571627D01*
X12191491Y-15571627D02*
X12181967Y-15600198D01*
X12181967Y-15600198D02*
X12067682Y-15714484D01*
X12067682Y-15714484D02*
X12191491Y-15714484D01*
X12381967Y-15714484D02*
X12267682Y-15714484D01*
X12324825Y-15714484D02*
X12324825Y-15514484D01*
X12324825Y-15514484D02*
X12305777Y-15543055D01*
X12305777Y-15543055D02*
X12286729Y-15562103D01*
X12286729Y-15562103D02*
X12267682Y-15571627D01*
X12448634Y-15514484D02*
X12581967Y-15514484D01*
X12581967Y-15514484D02*
X12496253Y-15714484D01*
X12648634Y-15514484D02*
X12648634Y-15552579D01*
X12724825Y-15514484D02*
X12724825Y-15552579D01*
X13020063Y-15790674D02*
X13010539Y-15781150D01*
X13010539Y-15781150D02*
X12991491Y-15752579D01*
X12991491Y-15752579D02*
X12981968Y-15733531D01*
X12981968Y-15733531D02*
X12972444Y-15704960D01*
X12972444Y-15704960D02*
X12962920Y-15657341D01*
X12962920Y-15657341D02*
X12962920Y-15619246D01*
X12962920Y-15619246D02*
X12972444Y-15571627D01*
X12972444Y-15571627D02*
X12981968Y-15543055D01*
X12981968Y-15543055D02*
X12991491Y-15524008D01*
X12991491Y-15524008D02*
X13010539Y-15495436D01*
X13010539Y-15495436D02*
X13020063Y-15485912D01*
X13201015Y-15714484D02*
X13086729Y-15714484D01*
X13143872Y-15714484D02*
X13143872Y-15514484D01*
X13143872Y-15514484D02*
X13124825Y-15543055D01*
X13124825Y-15543055D02*
X13105777Y-15562103D01*
X13105777Y-15562103D02*
X13086729Y-15571627D01*
X13429587Y-15704960D02*
X13448634Y-15714484D01*
X13448634Y-15714484D02*
X13486729Y-15714484D01*
X13486729Y-15714484D02*
X13505777Y-15704960D01*
X13505777Y-15704960D02*
X13515301Y-15685912D01*
X13515301Y-15685912D02*
X13515301Y-15676388D01*
X13515301Y-15676388D02*
X13505777Y-15657341D01*
X13505777Y-15657341D02*
X13486729Y-15647817D01*
X13486729Y-15647817D02*
X13458158Y-15647817D01*
X13458158Y-15647817D02*
X13439110Y-15638293D01*
X13439110Y-15638293D02*
X13429587Y-15619246D01*
X13429587Y-15619246D02*
X13429587Y-15609722D01*
X13429587Y-15609722D02*
X13439110Y-15590674D01*
X13439110Y-15590674D02*
X13458158Y-15581150D01*
X13458158Y-15581150D02*
X13486729Y-15581150D01*
X13486729Y-15581150D02*
X13505777Y-15590674D01*
X13629587Y-15714484D02*
X13610539Y-15704960D01*
X13610539Y-15704960D02*
X13601015Y-15685912D01*
X13601015Y-15685912D02*
X13601015Y-15514484D01*
X13734349Y-15714484D02*
X13715301Y-15704960D01*
X13715301Y-15704960D02*
X13705777Y-15695436D01*
X13705777Y-15695436D02*
X13696253Y-15676388D01*
X13696253Y-15676388D02*
X13696253Y-15619246D01*
X13696253Y-15619246D02*
X13705777Y-15600198D01*
X13705777Y-15600198D02*
X13715301Y-15590674D01*
X13715301Y-15590674D02*
X13734349Y-15581150D01*
X13734349Y-15581150D02*
X13762920Y-15581150D01*
X13762920Y-15581150D02*
X13781968Y-15590674D01*
X13781968Y-15590674D02*
X13791491Y-15600198D01*
X13791491Y-15600198D02*
X13801015Y-15619246D01*
X13801015Y-15619246D02*
X13801015Y-15676388D01*
X13801015Y-15676388D02*
X13791491Y-15695436D01*
X13791491Y-15695436D02*
X13781968Y-15704960D01*
X13781968Y-15704960D02*
X13762920Y-15714484D01*
X13762920Y-15714484D02*
X13734349Y-15714484D01*
X13858158Y-15581150D02*
X13934349Y-15581150D01*
X13886730Y-15514484D02*
X13886730Y-15685912D01*
X13886730Y-15685912D02*
X13896253Y-15704960D01*
X13896253Y-15704960D02*
X13915301Y-15714484D01*
X13915301Y-15714484D02*
X13934349Y-15714484D01*
X13981968Y-15790674D02*
X13991491Y-15781150D01*
X13991491Y-15781150D02*
X14010539Y-15752579D01*
X14010539Y-15752579D02*
X14020063Y-15733531D01*
X14020063Y-15733531D02*
X14029587Y-15704960D01*
X14029587Y-15704960D02*
X14039110Y-15657341D01*
X14039110Y-15657341D02*
X14039110Y-15619246D01*
X14039110Y-15619246D02*
X14029587Y-15571627D01*
X14029587Y-15571627D02*
X14020063Y-15543055D01*
X14020063Y-15543055D02*
X14010539Y-15524008D01*
X14010539Y-15524008D02*
X13991491Y-15495436D01*
X13991491Y-15495436D02*
X13981968Y-15485912D01*
M02*
