%TF.GenerationSoftware,KiCad,Pcbnew,8.0.7*%
%TF.CreationDate,2026-01-14T01:33:38-05:00*%
%TF.ProjectId,room_environment_monitor,726f6f6d-5f65-46e7-9669-726f6e6d656e,rev?*%
%TF.SameCoordinates,Original*%
%TF.FileFunction,Drillmap*%
%TF.FilePolarity,Positive*%
%FSLAX45Y45*%
G04 Gerber Fmt 4.5, Leading zero omitted, Abs format (unit mm)*
G04 Created by KiCad (PCBNEW 8.0.7) date 2026-01-14 01:33:38*
%MOMM*%
%LPD*%
G01*
G04 APERTURE LIST*
%ADD10C,0.100000*%
%ADD11C,0.200000*%
%ADD12C,0.220000*%
G04 APERTURE END LIST*
D10*
X12000000Y-7000000D02*
X12000000Y-8525000D01*
X10330000Y-14450000D02*
X10330000Y-14150000D01*
X12000000Y-8525000D02*
X13000000Y-8525000D01*
X10000000Y-7000000D02*
X12000000Y-7000000D01*
X10000000Y-7310000D02*
X10000000Y-7000000D01*
X10000000Y-9775000D02*
X9450000Y-9775000D01*
X12000000Y-9775000D02*
X12000000Y-14150000D01*
X13000000Y-8525000D02*
X13000000Y-9775000D01*
X11670000Y-14450000D02*
X10330000Y-14450000D01*
X10330000Y-14150000D02*
X10000000Y-14150000D01*
X11670000Y-14150000D02*
X11670000Y-14450000D01*
X10000000Y-14150000D02*
X10000000Y-9775000D01*
X13000000Y-9775000D02*
X12000000Y-9775000D01*
X9450000Y-7310000D02*
X10000000Y-7310000D01*
X9450000Y-7310000D02*
X9450000Y-9775000D01*
X12000000Y-14150000D02*
X11670000Y-14150000D01*
D11*
D12*
X10140000Y-13760000D02*
X10360000Y-13980000D01*
X10360000Y-13760000D02*
X10140000Y-13980000D01*
X10240000Y-7140000D02*
X10460000Y-7360000D01*
X10460000Y-7140000D02*
X10240000Y-7360000D01*
X11640000Y-13760000D02*
X11860000Y-13980000D01*
X11860000Y-13760000D02*
X11640000Y-13980000D01*
D11*
X9705777Y-14766484D02*
X9705777Y-14566484D01*
X9705777Y-14566484D02*
X9753396Y-14566484D01*
X9753396Y-14566484D02*
X9781967Y-14576008D01*
X9781967Y-14576008D02*
X9801015Y-14595055D01*
X9801015Y-14595055D02*
X9810539Y-14614103D01*
X9810539Y-14614103D02*
X9820063Y-14652198D01*
X9820063Y-14652198D02*
X9820063Y-14680769D01*
X9820063Y-14680769D02*
X9810539Y-14718865D01*
X9810539Y-14718865D02*
X9801015Y-14737912D01*
X9801015Y-14737912D02*
X9781967Y-14756960D01*
X9781967Y-14756960D02*
X9753396Y-14766484D01*
X9753396Y-14766484D02*
X9705777Y-14766484D01*
X9905777Y-14766484D02*
X9905777Y-14633150D01*
X9905777Y-14671246D02*
X9915301Y-14652198D01*
X9915301Y-14652198D02*
X9924824Y-14642674D01*
X9924824Y-14642674D02*
X9943872Y-14633150D01*
X9943872Y-14633150D02*
X9962920Y-14633150D01*
X10029586Y-14766484D02*
X10029586Y-14633150D01*
X10029586Y-14566484D02*
X10020063Y-14576008D01*
X10020063Y-14576008D02*
X10029586Y-14585531D01*
X10029586Y-14585531D02*
X10039110Y-14576008D01*
X10039110Y-14576008D02*
X10029586Y-14566484D01*
X10029586Y-14566484D02*
X10029586Y-14585531D01*
X10153396Y-14766484D02*
X10134348Y-14756960D01*
X10134348Y-14756960D02*
X10124824Y-14737912D01*
X10124824Y-14737912D02*
X10124824Y-14566484D01*
X10258158Y-14766484D02*
X10239110Y-14756960D01*
X10239110Y-14756960D02*
X10229586Y-14737912D01*
X10229586Y-14737912D02*
X10229586Y-14566484D01*
X10486729Y-14766484D02*
X10486729Y-14566484D01*
X10486729Y-14566484D02*
X10553396Y-14709341D01*
X10553396Y-14709341D02*
X10620063Y-14566484D01*
X10620063Y-14566484D02*
X10620063Y-14766484D01*
X10801015Y-14766484D02*
X10801015Y-14661722D01*
X10801015Y-14661722D02*
X10791491Y-14642674D01*
X10791491Y-14642674D02*
X10772444Y-14633150D01*
X10772444Y-14633150D02*
X10734348Y-14633150D01*
X10734348Y-14633150D02*
X10715301Y-14642674D01*
X10801015Y-14756960D02*
X10781967Y-14766484D01*
X10781967Y-14766484D02*
X10734348Y-14766484D01*
X10734348Y-14766484D02*
X10715301Y-14756960D01*
X10715301Y-14756960D02*
X10705777Y-14737912D01*
X10705777Y-14737912D02*
X10705777Y-14718865D01*
X10705777Y-14718865D02*
X10715301Y-14699817D01*
X10715301Y-14699817D02*
X10734348Y-14690293D01*
X10734348Y-14690293D02*
X10781967Y-14690293D01*
X10781967Y-14690293D02*
X10801015Y-14680769D01*
X10896253Y-14633150D02*
X10896253Y-14833150D01*
X10896253Y-14642674D02*
X10915301Y-14633150D01*
X10915301Y-14633150D02*
X10953396Y-14633150D01*
X10953396Y-14633150D02*
X10972444Y-14642674D01*
X10972444Y-14642674D02*
X10981967Y-14652198D01*
X10981967Y-14652198D02*
X10991491Y-14671246D01*
X10991491Y-14671246D02*
X10991491Y-14728388D01*
X10991491Y-14728388D02*
X10981967Y-14747436D01*
X10981967Y-14747436D02*
X10972444Y-14756960D01*
X10972444Y-14756960D02*
X10953396Y-14766484D01*
X10953396Y-14766484D02*
X10915301Y-14766484D01*
X10915301Y-14766484D02*
X10896253Y-14756960D01*
X11077205Y-14747436D02*
X11086729Y-14756960D01*
X11086729Y-14756960D02*
X11077205Y-14766484D01*
X11077205Y-14766484D02*
X11067682Y-14756960D01*
X11067682Y-14756960D02*
X11077205Y-14747436D01*
X11077205Y-14747436D02*
X11077205Y-14766484D01*
X11077205Y-14642674D02*
X11086729Y-14652198D01*
X11086729Y-14652198D02*
X11077205Y-14661722D01*
X11077205Y-14661722D02*
X11067682Y-14652198D01*
X11067682Y-14652198D02*
X11077205Y-14642674D01*
X11077205Y-14642674D02*
X11077205Y-14661722D01*
X9245000Y-14995000D02*
X9445000Y-15195000D01*
X9445000Y-14995000D02*
X9245000Y-15195000D01*
X9696253Y-15005531D02*
X9705777Y-14996008D01*
X9705777Y-14996008D02*
X9724824Y-14986484D01*
X9724824Y-14986484D02*
X9772444Y-14986484D01*
X9772444Y-14986484D02*
X9791491Y-14996008D01*
X9791491Y-14996008D02*
X9801015Y-15005531D01*
X9801015Y-15005531D02*
X9810539Y-15024579D01*
X9810539Y-15024579D02*
X9810539Y-15043627D01*
X9810539Y-15043627D02*
X9801015Y-15072198D01*
X9801015Y-15072198D02*
X9686729Y-15186484D01*
X9686729Y-15186484D02*
X9810539Y-15186484D01*
X9896253Y-15167436D02*
X9905777Y-15176960D01*
X9905777Y-15176960D02*
X9896253Y-15186484D01*
X9896253Y-15186484D02*
X9886729Y-15176960D01*
X9886729Y-15176960D02*
X9896253Y-15167436D01*
X9896253Y-15167436D02*
X9896253Y-15186484D01*
X9981967Y-15005531D02*
X9991491Y-14996008D01*
X9991491Y-14996008D02*
X10010539Y-14986484D01*
X10010539Y-14986484D02*
X10058158Y-14986484D01*
X10058158Y-14986484D02*
X10077205Y-14996008D01*
X10077205Y-14996008D02*
X10086729Y-15005531D01*
X10086729Y-15005531D02*
X10096253Y-15024579D01*
X10096253Y-15024579D02*
X10096253Y-15043627D01*
X10096253Y-15043627D02*
X10086729Y-15072198D01*
X10086729Y-15072198D02*
X9972444Y-15186484D01*
X9972444Y-15186484D02*
X10096253Y-15186484D01*
X10220063Y-14986484D02*
X10239110Y-14986484D01*
X10239110Y-14986484D02*
X10258158Y-14996008D01*
X10258158Y-14996008D02*
X10267682Y-15005531D01*
X10267682Y-15005531D02*
X10277205Y-15024579D01*
X10277205Y-15024579D02*
X10286729Y-15062674D01*
X10286729Y-15062674D02*
X10286729Y-15110293D01*
X10286729Y-15110293D02*
X10277205Y-15148388D01*
X10277205Y-15148388D02*
X10267682Y-15167436D01*
X10267682Y-15167436D02*
X10258158Y-15176960D01*
X10258158Y-15176960D02*
X10239110Y-15186484D01*
X10239110Y-15186484D02*
X10220063Y-15186484D01*
X10220063Y-15186484D02*
X10201015Y-15176960D01*
X10201015Y-15176960D02*
X10191491Y-15167436D01*
X10191491Y-15167436D02*
X10181967Y-15148388D01*
X10181967Y-15148388D02*
X10172444Y-15110293D01*
X10172444Y-15110293D02*
X10172444Y-15062674D01*
X10172444Y-15062674D02*
X10181967Y-15024579D01*
X10181967Y-15024579D02*
X10191491Y-15005531D01*
X10191491Y-15005531D02*
X10201015Y-14996008D01*
X10201015Y-14996008D02*
X10220063Y-14986484D01*
X10410539Y-14986484D02*
X10429586Y-14986484D01*
X10429586Y-14986484D02*
X10448634Y-14996008D01*
X10448634Y-14996008D02*
X10458158Y-15005531D01*
X10458158Y-15005531D02*
X10467682Y-15024579D01*
X10467682Y-15024579D02*
X10477205Y-15062674D01*
X10477205Y-15062674D02*
X10477205Y-15110293D01*
X10477205Y-15110293D02*
X10467682Y-15148388D01*
X10467682Y-15148388D02*
X10458158Y-15167436D01*
X10458158Y-15167436D02*
X10448634Y-15176960D01*
X10448634Y-15176960D02*
X10429586Y-15186484D01*
X10429586Y-15186484D02*
X10410539Y-15186484D01*
X10410539Y-15186484D02*
X10391491Y-15176960D01*
X10391491Y-15176960D02*
X10381967Y-15167436D01*
X10381967Y-15167436D02*
X10372444Y-15148388D01*
X10372444Y-15148388D02*
X10362920Y-15110293D01*
X10362920Y-15110293D02*
X10362920Y-15062674D01*
X10362920Y-15062674D02*
X10372444Y-15024579D01*
X10372444Y-15024579D02*
X10381967Y-15005531D01*
X10381967Y-15005531D02*
X10391491Y-14996008D01*
X10391491Y-14996008D02*
X10410539Y-14986484D01*
X10562920Y-15186484D02*
X10562920Y-15053150D01*
X10562920Y-15072198D02*
X10572444Y-15062674D01*
X10572444Y-15062674D02*
X10591491Y-15053150D01*
X10591491Y-15053150D02*
X10620063Y-15053150D01*
X10620063Y-15053150D02*
X10639110Y-15062674D01*
X10639110Y-15062674D02*
X10648634Y-15081722D01*
X10648634Y-15081722D02*
X10648634Y-15186484D01*
X10648634Y-15081722D02*
X10658158Y-15062674D01*
X10658158Y-15062674D02*
X10677205Y-15053150D01*
X10677205Y-15053150D02*
X10705777Y-15053150D01*
X10705777Y-15053150D02*
X10724825Y-15062674D01*
X10724825Y-15062674D02*
X10734348Y-15081722D01*
X10734348Y-15081722D02*
X10734348Y-15186484D01*
X10829586Y-15186484D02*
X10829586Y-15053150D01*
X10829586Y-15072198D02*
X10839110Y-15062674D01*
X10839110Y-15062674D02*
X10858158Y-15053150D01*
X10858158Y-15053150D02*
X10886729Y-15053150D01*
X10886729Y-15053150D02*
X10905777Y-15062674D01*
X10905777Y-15062674D02*
X10915301Y-15081722D01*
X10915301Y-15081722D02*
X10915301Y-15186484D01*
X10915301Y-15081722D02*
X10924825Y-15062674D01*
X10924825Y-15062674D02*
X10943872Y-15053150D01*
X10943872Y-15053150D02*
X10972444Y-15053150D01*
X10972444Y-15053150D02*
X10991491Y-15062674D01*
X10991491Y-15062674D02*
X11001015Y-15081722D01*
X11001015Y-15081722D02*
X11001015Y-15186484D01*
X11391491Y-14976960D02*
X11220063Y-15234103D01*
X11648634Y-14986484D02*
X11667682Y-14986484D01*
X11667682Y-14986484D02*
X11686729Y-14996008D01*
X11686729Y-14996008D02*
X11696253Y-15005531D01*
X11696253Y-15005531D02*
X11705777Y-15024579D01*
X11705777Y-15024579D02*
X11715301Y-15062674D01*
X11715301Y-15062674D02*
X11715301Y-15110293D01*
X11715301Y-15110293D02*
X11705777Y-15148388D01*
X11705777Y-15148388D02*
X11696253Y-15167436D01*
X11696253Y-15167436D02*
X11686729Y-15176960D01*
X11686729Y-15176960D02*
X11667682Y-15186484D01*
X11667682Y-15186484D02*
X11648634Y-15186484D01*
X11648634Y-15186484D02*
X11629586Y-15176960D01*
X11629586Y-15176960D02*
X11620063Y-15167436D01*
X11620063Y-15167436D02*
X11610539Y-15148388D01*
X11610539Y-15148388D02*
X11601015Y-15110293D01*
X11601015Y-15110293D02*
X11601015Y-15062674D01*
X11601015Y-15062674D02*
X11610539Y-15024579D01*
X11610539Y-15024579D02*
X11620063Y-15005531D01*
X11620063Y-15005531D02*
X11629586Y-14996008D01*
X11629586Y-14996008D02*
X11648634Y-14986484D01*
X11801015Y-15167436D02*
X11810539Y-15176960D01*
X11810539Y-15176960D02*
X11801015Y-15186484D01*
X11801015Y-15186484D02*
X11791491Y-15176960D01*
X11791491Y-15176960D02*
X11801015Y-15167436D01*
X11801015Y-15167436D02*
X11801015Y-15186484D01*
X11934348Y-14986484D02*
X11953396Y-14986484D01*
X11953396Y-14986484D02*
X11972444Y-14996008D01*
X11972444Y-14996008D02*
X11981967Y-15005531D01*
X11981967Y-15005531D02*
X11991491Y-15024579D01*
X11991491Y-15024579D02*
X12001015Y-15062674D01*
X12001015Y-15062674D02*
X12001015Y-15110293D01*
X12001015Y-15110293D02*
X11991491Y-15148388D01*
X11991491Y-15148388D02*
X11981967Y-15167436D01*
X11981967Y-15167436D02*
X11972444Y-15176960D01*
X11972444Y-15176960D02*
X11953396Y-15186484D01*
X11953396Y-15186484D02*
X11934348Y-15186484D01*
X11934348Y-15186484D02*
X11915301Y-15176960D01*
X11915301Y-15176960D02*
X11905777Y-15167436D01*
X11905777Y-15167436D02*
X11896253Y-15148388D01*
X11896253Y-15148388D02*
X11886729Y-15110293D01*
X11886729Y-15110293D02*
X11886729Y-15062674D01*
X11886729Y-15062674D02*
X11896253Y-15024579D01*
X11896253Y-15024579D02*
X11905777Y-15005531D01*
X11905777Y-15005531D02*
X11915301Y-14996008D01*
X11915301Y-14996008D02*
X11934348Y-14986484D01*
X12115301Y-15072198D02*
X12096253Y-15062674D01*
X12096253Y-15062674D02*
X12086729Y-15053150D01*
X12086729Y-15053150D02*
X12077206Y-15034103D01*
X12077206Y-15034103D02*
X12077206Y-15024579D01*
X12077206Y-15024579D02*
X12086729Y-15005531D01*
X12086729Y-15005531D02*
X12096253Y-14996008D01*
X12096253Y-14996008D02*
X12115301Y-14986484D01*
X12115301Y-14986484D02*
X12153396Y-14986484D01*
X12153396Y-14986484D02*
X12172444Y-14996008D01*
X12172444Y-14996008D02*
X12181967Y-15005531D01*
X12181967Y-15005531D02*
X12191491Y-15024579D01*
X12191491Y-15024579D02*
X12191491Y-15034103D01*
X12191491Y-15034103D02*
X12181967Y-15053150D01*
X12181967Y-15053150D02*
X12172444Y-15062674D01*
X12172444Y-15062674D02*
X12153396Y-15072198D01*
X12153396Y-15072198D02*
X12115301Y-15072198D01*
X12115301Y-15072198D02*
X12096253Y-15081722D01*
X12096253Y-15081722D02*
X12086729Y-15091246D01*
X12086729Y-15091246D02*
X12077206Y-15110293D01*
X12077206Y-15110293D02*
X12077206Y-15148388D01*
X12077206Y-15148388D02*
X12086729Y-15167436D01*
X12086729Y-15167436D02*
X12096253Y-15176960D01*
X12096253Y-15176960D02*
X12115301Y-15186484D01*
X12115301Y-15186484D02*
X12153396Y-15186484D01*
X12153396Y-15186484D02*
X12172444Y-15176960D01*
X12172444Y-15176960D02*
X12181967Y-15167436D01*
X12181967Y-15167436D02*
X12191491Y-15148388D01*
X12191491Y-15148388D02*
X12191491Y-15110293D01*
X12191491Y-15110293D02*
X12181967Y-15091246D01*
X12181967Y-15091246D02*
X12172444Y-15081722D01*
X12172444Y-15081722D02*
X12153396Y-15072198D01*
X12362920Y-14986484D02*
X12324825Y-14986484D01*
X12324825Y-14986484D02*
X12305777Y-14996008D01*
X12305777Y-14996008D02*
X12296253Y-15005531D01*
X12296253Y-15005531D02*
X12277206Y-15034103D01*
X12277206Y-15034103D02*
X12267682Y-15072198D01*
X12267682Y-15072198D02*
X12267682Y-15148388D01*
X12267682Y-15148388D02*
X12277206Y-15167436D01*
X12277206Y-15167436D02*
X12286729Y-15176960D01*
X12286729Y-15176960D02*
X12305777Y-15186484D01*
X12305777Y-15186484D02*
X12343872Y-15186484D01*
X12343872Y-15186484D02*
X12362920Y-15176960D01*
X12362920Y-15176960D02*
X12372444Y-15167436D01*
X12372444Y-15167436D02*
X12381967Y-15148388D01*
X12381967Y-15148388D02*
X12381967Y-15100769D01*
X12381967Y-15100769D02*
X12372444Y-15081722D01*
X12372444Y-15081722D02*
X12362920Y-15072198D01*
X12362920Y-15072198D02*
X12343872Y-15062674D01*
X12343872Y-15062674D02*
X12305777Y-15062674D01*
X12305777Y-15062674D02*
X12286729Y-15072198D01*
X12286729Y-15072198D02*
X12277206Y-15081722D01*
X12277206Y-15081722D02*
X12267682Y-15100769D01*
X12553396Y-14986484D02*
X12515301Y-14986484D01*
X12515301Y-14986484D02*
X12496253Y-14996008D01*
X12496253Y-14996008D02*
X12486729Y-15005531D01*
X12486729Y-15005531D02*
X12467682Y-15034103D01*
X12467682Y-15034103D02*
X12458158Y-15072198D01*
X12458158Y-15072198D02*
X12458158Y-15148388D01*
X12458158Y-15148388D02*
X12467682Y-15167436D01*
X12467682Y-15167436D02*
X12477206Y-15176960D01*
X12477206Y-15176960D02*
X12496253Y-15186484D01*
X12496253Y-15186484D02*
X12534348Y-15186484D01*
X12534348Y-15186484D02*
X12553396Y-15176960D01*
X12553396Y-15176960D02*
X12562920Y-15167436D01*
X12562920Y-15167436D02*
X12572444Y-15148388D01*
X12572444Y-15148388D02*
X12572444Y-15100769D01*
X12572444Y-15100769D02*
X12562920Y-15081722D01*
X12562920Y-15081722D02*
X12553396Y-15072198D01*
X12553396Y-15072198D02*
X12534348Y-15062674D01*
X12534348Y-15062674D02*
X12496253Y-15062674D01*
X12496253Y-15062674D02*
X12477206Y-15072198D01*
X12477206Y-15072198D02*
X12467682Y-15081722D01*
X12467682Y-15081722D02*
X12458158Y-15100769D01*
X12648634Y-14986484D02*
X12648634Y-15024579D01*
X12724825Y-14986484D02*
X12724825Y-15024579D01*
X13020063Y-15262674D02*
X13010539Y-15253150D01*
X13010539Y-15253150D02*
X12991491Y-15224579D01*
X12991491Y-15224579D02*
X12981968Y-15205531D01*
X12981968Y-15205531D02*
X12972444Y-15176960D01*
X12972444Y-15176960D02*
X12962920Y-15129341D01*
X12962920Y-15129341D02*
X12962920Y-15091246D01*
X12962920Y-15091246D02*
X12972444Y-15043627D01*
X12972444Y-15043627D02*
X12981968Y-15015055D01*
X12981968Y-15015055D02*
X12991491Y-14996008D01*
X12991491Y-14996008D02*
X13010539Y-14967436D01*
X13010539Y-14967436D02*
X13020063Y-14957912D01*
X13077206Y-14986484D02*
X13201015Y-14986484D01*
X13201015Y-14986484D02*
X13134348Y-15062674D01*
X13134348Y-15062674D02*
X13162920Y-15062674D01*
X13162920Y-15062674D02*
X13181968Y-15072198D01*
X13181968Y-15072198D02*
X13191491Y-15081722D01*
X13191491Y-15081722D02*
X13201015Y-15100769D01*
X13201015Y-15100769D02*
X13201015Y-15148388D01*
X13201015Y-15148388D02*
X13191491Y-15167436D01*
X13191491Y-15167436D02*
X13181968Y-15176960D01*
X13181968Y-15176960D02*
X13162920Y-15186484D01*
X13162920Y-15186484D02*
X13105777Y-15186484D01*
X13105777Y-15186484D02*
X13086729Y-15176960D01*
X13086729Y-15176960D02*
X13077206Y-15167436D01*
X13439110Y-15186484D02*
X13439110Y-14986484D01*
X13524825Y-15186484D02*
X13524825Y-15081722D01*
X13524825Y-15081722D02*
X13515301Y-15062674D01*
X13515301Y-15062674D02*
X13496253Y-15053150D01*
X13496253Y-15053150D02*
X13467682Y-15053150D01*
X13467682Y-15053150D02*
X13448634Y-15062674D01*
X13448634Y-15062674D02*
X13439110Y-15072198D01*
X13648634Y-15186484D02*
X13629587Y-15176960D01*
X13629587Y-15176960D02*
X13620063Y-15167436D01*
X13620063Y-15167436D02*
X13610539Y-15148388D01*
X13610539Y-15148388D02*
X13610539Y-15091246D01*
X13610539Y-15091246D02*
X13620063Y-15072198D01*
X13620063Y-15072198D02*
X13629587Y-15062674D01*
X13629587Y-15062674D02*
X13648634Y-15053150D01*
X13648634Y-15053150D02*
X13677206Y-15053150D01*
X13677206Y-15053150D02*
X13696253Y-15062674D01*
X13696253Y-15062674D02*
X13705777Y-15072198D01*
X13705777Y-15072198D02*
X13715301Y-15091246D01*
X13715301Y-15091246D02*
X13715301Y-15148388D01*
X13715301Y-15148388D02*
X13705777Y-15167436D01*
X13705777Y-15167436D02*
X13696253Y-15176960D01*
X13696253Y-15176960D02*
X13677206Y-15186484D01*
X13677206Y-15186484D02*
X13648634Y-15186484D01*
X13829587Y-15186484D02*
X13810539Y-15176960D01*
X13810539Y-15176960D02*
X13801015Y-15157912D01*
X13801015Y-15157912D02*
X13801015Y-14986484D01*
X13981968Y-15176960D02*
X13962920Y-15186484D01*
X13962920Y-15186484D02*
X13924825Y-15186484D01*
X13924825Y-15186484D02*
X13905777Y-15176960D01*
X13905777Y-15176960D02*
X13896253Y-15157912D01*
X13896253Y-15157912D02*
X13896253Y-15081722D01*
X13896253Y-15081722D02*
X13905777Y-15062674D01*
X13905777Y-15062674D02*
X13924825Y-15053150D01*
X13924825Y-15053150D02*
X13962920Y-15053150D01*
X13962920Y-15053150D02*
X13981968Y-15062674D01*
X13981968Y-15062674D02*
X13991491Y-15081722D01*
X13991491Y-15081722D02*
X13991491Y-15100769D01*
X13991491Y-15100769D02*
X13896253Y-15119817D01*
X14067682Y-15176960D02*
X14086730Y-15186484D01*
X14086730Y-15186484D02*
X14124825Y-15186484D01*
X14124825Y-15186484D02*
X14143872Y-15176960D01*
X14143872Y-15176960D02*
X14153396Y-15157912D01*
X14153396Y-15157912D02*
X14153396Y-15148388D01*
X14153396Y-15148388D02*
X14143872Y-15129341D01*
X14143872Y-15129341D02*
X14124825Y-15119817D01*
X14124825Y-15119817D02*
X14096253Y-15119817D01*
X14096253Y-15119817D02*
X14077206Y-15110293D01*
X14077206Y-15110293D02*
X14067682Y-15091246D01*
X14067682Y-15091246D02*
X14067682Y-15081722D01*
X14067682Y-15081722D02*
X14077206Y-15062674D01*
X14077206Y-15062674D02*
X14096253Y-15053150D01*
X14096253Y-15053150D02*
X14124825Y-15053150D01*
X14124825Y-15053150D02*
X14143872Y-15062674D01*
X14220063Y-15262674D02*
X14229587Y-15253150D01*
X14229587Y-15253150D02*
X14248634Y-15224579D01*
X14248634Y-15224579D02*
X14258158Y-15205531D01*
X14258158Y-15205531D02*
X14267682Y-15176960D01*
X14267682Y-15176960D02*
X14277206Y-15129341D01*
X14277206Y-15129341D02*
X14277206Y-15091246D01*
X14277206Y-15091246D02*
X14267682Y-15043627D01*
X14267682Y-15043627D02*
X14258158Y-15015055D01*
X14258158Y-15015055D02*
X14248634Y-14996008D01*
X14248634Y-14996008D02*
X14229587Y-14967436D01*
X14229587Y-14967436D02*
X14220063Y-14957912D01*
X14581968Y-15262674D02*
X14572444Y-15253150D01*
X14572444Y-15253150D02*
X14553396Y-15224579D01*
X14553396Y-15224579D02*
X14543872Y-15205531D01*
X14543872Y-15205531D02*
X14534349Y-15176960D01*
X14534349Y-15176960D02*
X14524825Y-15129341D01*
X14524825Y-15129341D02*
X14524825Y-15091246D01*
X14524825Y-15091246D02*
X14534349Y-15043627D01*
X14534349Y-15043627D02*
X14543872Y-15015055D01*
X14543872Y-15015055D02*
X14553396Y-14996008D01*
X14553396Y-14996008D02*
X14572444Y-14967436D01*
X14572444Y-14967436D02*
X14581968Y-14957912D01*
X14658158Y-15053150D02*
X14658158Y-15186484D01*
X14658158Y-15072198D02*
X14667682Y-15062674D01*
X14667682Y-15062674D02*
X14686730Y-15053150D01*
X14686730Y-15053150D02*
X14715301Y-15053150D01*
X14715301Y-15053150D02*
X14734349Y-15062674D01*
X14734349Y-15062674D02*
X14743872Y-15081722D01*
X14743872Y-15081722D02*
X14743872Y-15186484D01*
X14867682Y-15186484D02*
X14848634Y-15176960D01*
X14848634Y-15176960D02*
X14839111Y-15167436D01*
X14839111Y-15167436D02*
X14829587Y-15148388D01*
X14829587Y-15148388D02*
X14829587Y-15091246D01*
X14829587Y-15091246D02*
X14839111Y-15072198D01*
X14839111Y-15072198D02*
X14848634Y-15062674D01*
X14848634Y-15062674D02*
X14867682Y-15053150D01*
X14867682Y-15053150D02*
X14896253Y-15053150D01*
X14896253Y-15053150D02*
X14915301Y-15062674D01*
X14915301Y-15062674D02*
X14924825Y-15072198D01*
X14924825Y-15072198D02*
X14934349Y-15091246D01*
X14934349Y-15091246D02*
X14934349Y-15148388D01*
X14934349Y-15148388D02*
X14924825Y-15167436D01*
X14924825Y-15167436D02*
X14915301Y-15176960D01*
X14915301Y-15176960D02*
X14896253Y-15186484D01*
X14896253Y-15186484D02*
X14867682Y-15186484D01*
X14991492Y-15053150D02*
X15067682Y-15053150D01*
X15020063Y-14986484D02*
X15020063Y-15157912D01*
X15020063Y-15157912D02*
X15029587Y-15176960D01*
X15029587Y-15176960D02*
X15048634Y-15186484D01*
X15048634Y-15186484D02*
X15067682Y-15186484D01*
X15286730Y-15053150D02*
X15286730Y-15253150D01*
X15286730Y-15062674D02*
X15305777Y-15053150D01*
X15305777Y-15053150D02*
X15343873Y-15053150D01*
X15343873Y-15053150D02*
X15362920Y-15062674D01*
X15362920Y-15062674D02*
X15372444Y-15072198D01*
X15372444Y-15072198D02*
X15381968Y-15091246D01*
X15381968Y-15091246D02*
X15381968Y-15148388D01*
X15381968Y-15148388D02*
X15372444Y-15167436D01*
X15372444Y-15167436D02*
X15362920Y-15176960D01*
X15362920Y-15176960D02*
X15343873Y-15186484D01*
X15343873Y-15186484D02*
X15305777Y-15186484D01*
X15305777Y-15186484D02*
X15286730Y-15176960D01*
X15496253Y-15186484D02*
X15477206Y-15176960D01*
X15477206Y-15176960D02*
X15467682Y-15157912D01*
X15467682Y-15157912D02*
X15467682Y-14986484D01*
X15658158Y-15186484D02*
X15658158Y-15081722D01*
X15658158Y-15081722D02*
X15648634Y-15062674D01*
X15648634Y-15062674D02*
X15629587Y-15053150D01*
X15629587Y-15053150D02*
X15591492Y-15053150D01*
X15591492Y-15053150D02*
X15572444Y-15062674D01*
X15658158Y-15176960D02*
X15639111Y-15186484D01*
X15639111Y-15186484D02*
X15591492Y-15186484D01*
X15591492Y-15186484D02*
X15572444Y-15176960D01*
X15572444Y-15176960D02*
X15562920Y-15157912D01*
X15562920Y-15157912D02*
X15562920Y-15138865D01*
X15562920Y-15138865D02*
X15572444Y-15119817D01*
X15572444Y-15119817D02*
X15591492Y-15110293D01*
X15591492Y-15110293D02*
X15639111Y-15110293D01*
X15639111Y-15110293D02*
X15658158Y-15100769D01*
X15724825Y-15053150D02*
X15801015Y-15053150D01*
X15753396Y-14986484D02*
X15753396Y-15157912D01*
X15753396Y-15157912D02*
X15762920Y-15176960D01*
X15762920Y-15176960D02*
X15781968Y-15186484D01*
X15781968Y-15186484D02*
X15801015Y-15186484D01*
X15943873Y-15176960D02*
X15924825Y-15186484D01*
X15924825Y-15186484D02*
X15886730Y-15186484D01*
X15886730Y-15186484D02*
X15867682Y-15176960D01*
X15867682Y-15176960D02*
X15858158Y-15157912D01*
X15858158Y-15157912D02*
X15858158Y-15081722D01*
X15858158Y-15081722D02*
X15867682Y-15062674D01*
X15867682Y-15062674D02*
X15886730Y-15053150D01*
X15886730Y-15053150D02*
X15924825Y-15053150D01*
X15924825Y-15053150D02*
X15943873Y-15062674D01*
X15943873Y-15062674D02*
X15953396Y-15081722D01*
X15953396Y-15081722D02*
X15953396Y-15100769D01*
X15953396Y-15100769D02*
X15858158Y-15119817D01*
X16124825Y-15186484D02*
X16124825Y-14986484D01*
X16124825Y-15176960D02*
X16105777Y-15186484D01*
X16105777Y-15186484D02*
X16067682Y-15186484D01*
X16067682Y-15186484D02*
X16048634Y-15176960D01*
X16048634Y-15176960D02*
X16039111Y-15167436D01*
X16039111Y-15167436D02*
X16029587Y-15148388D01*
X16029587Y-15148388D02*
X16029587Y-15091246D01*
X16029587Y-15091246D02*
X16039111Y-15072198D01*
X16039111Y-15072198D02*
X16048634Y-15062674D01*
X16048634Y-15062674D02*
X16067682Y-15053150D01*
X16067682Y-15053150D02*
X16105777Y-15053150D01*
X16105777Y-15053150D02*
X16124825Y-15062674D01*
X16201015Y-15262674D02*
X16210539Y-15253150D01*
X16210539Y-15253150D02*
X16229587Y-15224579D01*
X16229587Y-15224579D02*
X16239111Y-15205531D01*
X16239111Y-15205531D02*
X16248634Y-15176960D01*
X16248634Y-15176960D02*
X16258158Y-15129341D01*
X16258158Y-15129341D02*
X16258158Y-15091246D01*
X16258158Y-15091246D02*
X16248634Y-15043627D01*
X16248634Y-15043627D02*
X16239111Y-15015055D01*
X16239111Y-15015055D02*
X16229587Y-14996008D01*
X16229587Y-14996008D02*
X16210539Y-14967436D01*
X16210539Y-14967436D02*
X16201015Y-14957912D01*
M02*
