G04 #@! TF.GenerationSoftware,KiCad,Pcbnew,5.1.9-73d0e3b20d~88~ubuntu20.04.1*
G04 #@! TF.CreationDate,2021-01-09T21:31:29-06:00*
G04 #@! TF.ProjectId,pcb,7063622e-6b69-4636-9164-5f7063625858,rev?*
G04 #@! TF.SameCoordinates,Original*
G04 #@! TF.FileFunction,Soldermask,Bot*
G04 #@! TF.FilePolarity,Negative*
%FSLAX46Y46*%
G04 Gerber Fmt 4.6, Leading zero omitted, Abs format (unit mm)*
G04 Created by KiCad (PCBNEW 5.1.9-73d0e3b20d~88~ubuntu20.04.1) date 2021-01-09 21:31:29*
%MOMM*%
%LPD*%
G01*
G04 APERTURE LIST*
%ADD10O,1.802000X1.802000*%
%ADD11C,2.202000*%
%ADD12C,1.852000*%
%ADD13C,3.902000*%
%ADD14C,2.302000*%
%ADD15O,2.002000X1.302000*%
%ADD16C,1.552000*%
G04 APERTURE END LIST*
D10*
X50040000Y-57500000D03*
G36*
G01*
X48350000Y-58401000D02*
X46650000Y-58401000D01*
G75*
G02*
X46599000Y-58350000I0J51000D01*
G01*
X46599000Y-56650000D01*
G75*
G02*
X46650000Y-56599000I51000J0D01*
G01*
X48350000Y-56599000D01*
G75*
G02*
X48401000Y-56650000I0J-51000D01*
G01*
X48401000Y-58350000D01*
G75*
G02*
X48350000Y-58401000I-51000J0D01*
G01*
G37*
G36*
G01*
X67781750Y-73451000D02*
X67218250Y-73451000D01*
G75*
G02*
X66974000Y-73206750I0J244250D01*
G01*
X66974000Y-72718250D01*
G75*
G02*
X67218250Y-72474000I244250J0D01*
G01*
X67781750Y-72474000D01*
G75*
G02*
X68026000Y-72718250I0J-244250D01*
G01*
X68026000Y-73206750D01*
G75*
G02*
X67781750Y-73451000I-244250J0D01*
G01*
G37*
G36*
G01*
X67781750Y-75026000D02*
X67218250Y-75026000D01*
G75*
G02*
X66974000Y-74781750I0J244250D01*
G01*
X66974000Y-74293250D01*
G75*
G02*
X67218250Y-74049000I244250J0D01*
G01*
X67781750Y-74049000D01*
G75*
G02*
X68026000Y-74293250I0J-244250D01*
G01*
X68026000Y-74781750D01*
G75*
G02*
X67781750Y-75026000I-244250J0D01*
G01*
G37*
G36*
G01*
X75218250Y-74049000D02*
X75781750Y-74049000D01*
G75*
G02*
X76026000Y-74293250I0J-244250D01*
G01*
X76026000Y-74781750D01*
G75*
G02*
X75781750Y-75026000I-244250J0D01*
G01*
X75218250Y-75026000D01*
G75*
G02*
X74974000Y-74781750I0J244250D01*
G01*
X74974000Y-74293250D01*
G75*
G02*
X75218250Y-74049000I244250J0D01*
G01*
G37*
G36*
G01*
X75218250Y-72474000D02*
X75781750Y-72474000D01*
G75*
G02*
X76026000Y-72718250I0J-244250D01*
G01*
X76026000Y-73206750D01*
G75*
G02*
X75781750Y-73451000I-244250J0D01*
G01*
X75218250Y-73451000D01*
G75*
G02*
X74974000Y-73206750I0J244250D01*
G01*
X74974000Y-72718250D01*
G75*
G02*
X75218250Y-72474000I244250J0D01*
G01*
G37*
G36*
G01*
X73049000Y-73450000D02*
X73049000Y-72450000D01*
G75*
G02*
X73100000Y-72399000I51000J0D01*
G01*
X74000000Y-72399000D01*
G75*
G02*
X74051000Y-72450000I0J-51000D01*
G01*
X74051000Y-73450000D01*
G75*
G02*
X74000000Y-73501000I-51000J0D01*
G01*
X73100000Y-73501000D01*
G75*
G02*
X73049000Y-73450000I0J51000D01*
G01*
G37*
G36*
G01*
X73049000Y-75050000D02*
X73049000Y-74050000D01*
G75*
G02*
X73100000Y-73999000I51000J0D01*
G01*
X74000000Y-73999000D01*
G75*
G02*
X74051000Y-74050000I0J-51000D01*
G01*
X74051000Y-75050000D01*
G75*
G02*
X74000000Y-75101000I-51000J0D01*
G01*
X73100000Y-75101000D01*
G75*
G02*
X73049000Y-75050000I0J51000D01*
G01*
G37*
G36*
G01*
X68949000Y-73450000D02*
X68949000Y-72450000D01*
G75*
G02*
X69000000Y-72399000I51000J0D01*
G01*
X69900000Y-72399000D01*
G75*
G02*
X69951000Y-72450000I0J-51000D01*
G01*
X69951000Y-73450000D01*
G75*
G02*
X69900000Y-73501000I-51000J0D01*
G01*
X69000000Y-73501000D01*
G75*
G02*
X68949000Y-73450000I0J51000D01*
G01*
G37*
G36*
G01*
X68949000Y-75050000D02*
X68949000Y-74050000D01*
G75*
G02*
X69000000Y-73999000I51000J0D01*
G01*
X69900000Y-73999000D01*
G75*
G02*
X69951000Y-74050000I0J-51000D01*
G01*
X69951000Y-75050000D01*
G75*
G02*
X69900000Y-75101000I-51000J0D01*
G01*
X69000000Y-75101000D01*
G75*
G02*
X68949000Y-75050000I0J51000D01*
G01*
G37*
D11*
X81750000Y-79260000D03*
D12*
X80500000Y-81750000D03*
X76000000Y-81750000D03*
D11*
X74740000Y-79260000D03*
D10*
X69630000Y-68600000D03*
X72170000Y-68600000D03*
X74710000Y-68600000D03*
G36*
G01*
X76400000Y-67699000D02*
X78100000Y-67699000D01*
G75*
G02*
X78151000Y-67750000I0J-51000D01*
G01*
X78151000Y-69450000D01*
G75*
G02*
X78100000Y-69501000I-51000J0D01*
G01*
X76400000Y-69501000D01*
G75*
G02*
X76349000Y-69450000I0J51000D01*
G01*
X76349000Y-67750000D01*
G75*
G02*
X76400000Y-67699000I51000J0D01*
G01*
G37*
D13*
X97000000Y-82000000D03*
X97000000Y-58000000D03*
D14*
X43000000Y-58000000D03*
X43000000Y-82000000D03*
D11*
X92250000Y-79260000D03*
D12*
X91000000Y-81750000D03*
X86500000Y-81750000D03*
D11*
X85240000Y-79260000D03*
X85250000Y-60740000D03*
D12*
X86500000Y-58250000D03*
X91000000Y-58250000D03*
D11*
X92260000Y-60740000D03*
D15*
X98547500Y-66500000D03*
X98547500Y-73500000D03*
D16*
X95847500Y-67500000D03*
X95847500Y-72500000D03*
M02*
