G04 #@! TF.GenerationSoftware,KiCad,Pcbnew,5.1.9-73d0e3b20d~88~ubuntu20.04.1*
G04 #@! TF.CreationDate,2021-01-09T22:09:53-06:00*
G04 #@! TF.ProjectId,pcb,7063622e-6b69-4636-9164-5f7063625858,rev?*
G04 #@! TF.SameCoordinates,Original*
G04 #@! TF.FileFunction,Legend,Bot*
G04 #@! TF.FilePolarity,Positive*
%FSLAX46Y46*%
G04 Gerber Fmt 4.6, Leading zero omitted, Abs format (unit mm)*
G04 Created by KiCad (PCBNEW 5.1.9-73d0e3b20d~88~ubuntu20.04.1) date 2021-01-09 22:09:53*
%MOMM*%
%LPD*%
G01*
G04 APERTURE LIST*
%ADD10C,0.150000*%
%ADD11C,0.010000*%
%ADD12C,0.120000*%
G04 APERTURE END LIST*
D10*
X75858142Y-70928571D02*
X76191476Y-70928571D01*
X76191476Y-71452380D02*
X76191476Y-70452380D01*
X75715285Y-70452380D01*
X75381952Y-71166666D02*
X74905761Y-71166666D01*
X75477190Y-71452380D02*
X75143857Y-70452380D01*
X74810523Y-71452380D01*
X73905761Y-71357142D02*
X73953380Y-71404761D01*
X74096238Y-71452380D01*
X74191476Y-71452380D01*
X74334333Y-71404761D01*
X74429571Y-71309523D01*
X74477190Y-71214285D01*
X74524809Y-71023809D01*
X74524809Y-70880952D01*
X74477190Y-70690476D01*
X74429571Y-70595238D01*
X74334333Y-70500000D01*
X74191476Y-70452380D01*
X74096238Y-70452380D01*
X73953380Y-70500000D01*
X73905761Y-70547619D01*
X73620047Y-70452380D02*
X73048619Y-70452380D01*
X73334333Y-71452380D02*
X73334333Y-70452380D01*
X72524809Y-70452380D02*
X72334333Y-70452380D01*
X72239095Y-70500000D01*
X72143857Y-70595238D01*
X72096238Y-70785714D01*
X72096238Y-71119047D01*
X72143857Y-71309523D01*
X72239095Y-71404761D01*
X72334333Y-71452380D01*
X72524809Y-71452380D01*
X72620047Y-71404761D01*
X72715285Y-71309523D01*
X72762904Y-71119047D01*
X72762904Y-70785714D01*
X72715285Y-70595238D01*
X72620047Y-70500000D01*
X72524809Y-70452380D01*
X71096238Y-71452380D02*
X71429571Y-70976190D01*
X71667666Y-71452380D02*
X71667666Y-70452380D01*
X71286714Y-70452380D01*
X71191476Y-70500000D01*
X71143857Y-70547619D01*
X71096238Y-70642857D01*
X71096238Y-70785714D01*
X71143857Y-70880952D01*
X71191476Y-70928571D01*
X71286714Y-70976190D01*
X71667666Y-70976190D01*
X70477190Y-70976190D02*
X70477190Y-71452380D01*
X70810523Y-70452380D02*
X70477190Y-70976190D01*
X70143857Y-70452380D01*
X68477190Y-71452380D02*
X68810523Y-70976190D01*
X69048619Y-71452380D02*
X69048619Y-70452380D01*
X68667666Y-70452380D01*
X68572428Y-70500000D01*
X68524809Y-70547619D01*
X68477190Y-70642857D01*
X68477190Y-70785714D01*
X68524809Y-70880952D01*
X68572428Y-70928571D01*
X68667666Y-70976190D01*
X69048619Y-70976190D01*
X68096238Y-71404761D02*
X67953380Y-71452380D01*
X67715285Y-71452380D01*
X67620047Y-71404761D01*
X67572428Y-71357142D01*
X67524809Y-71261904D01*
X67524809Y-71166666D01*
X67572428Y-71071428D01*
X67620047Y-71023809D01*
X67715285Y-70976190D01*
X67905761Y-70928571D01*
X68001000Y-70880952D01*
X68048619Y-70833333D01*
X68096238Y-70738095D01*
X68096238Y-70642857D01*
X68048619Y-70547619D01*
X68001000Y-70500000D01*
X67905761Y-70452380D01*
X67667666Y-70452380D01*
X67524809Y-70500000D01*
X67239095Y-70452380D02*
X66667666Y-70452380D01*
X66953380Y-71452380D02*
X66953380Y-70452380D01*
X60928571Y-72702380D02*
X60928571Y-71702380D01*
X60690476Y-71702380D01*
X60547619Y-71750000D01*
X60452380Y-71845238D01*
X60404761Y-71940476D01*
X60357142Y-72130952D01*
X60357142Y-72273809D01*
X60404761Y-72464285D01*
X60452380Y-72559523D01*
X60547619Y-72654761D01*
X60690476Y-72702380D01*
X60928571Y-72702380D01*
X59547619Y-72654761D02*
X59642857Y-72702380D01*
X59833333Y-72702380D01*
X59928571Y-72654761D01*
X59976190Y-72559523D01*
X59976190Y-72178571D01*
X59928571Y-72083333D01*
X59833333Y-72035714D01*
X59642857Y-72035714D01*
X59547619Y-72083333D01*
X59500000Y-72178571D01*
X59500000Y-72273809D01*
X59976190Y-72369047D01*
X59119047Y-72654761D02*
X59023809Y-72702380D01*
X58833333Y-72702380D01*
X58738095Y-72654761D01*
X58690476Y-72559523D01*
X58690476Y-72511904D01*
X58738095Y-72416666D01*
X58833333Y-72369047D01*
X58976190Y-72369047D01*
X59071428Y-72321428D01*
X59119047Y-72226190D01*
X59119047Y-72178571D01*
X59071428Y-72083333D01*
X58976190Y-72035714D01*
X58833333Y-72035714D01*
X58738095Y-72083333D01*
X58261904Y-72702380D02*
X58261904Y-72035714D01*
X58261904Y-71702380D02*
X58309523Y-71750000D01*
X58261904Y-71797619D01*
X58214285Y-71750000D01*
X58261904Y-71702380D01*
X58261904Y-71797619D01*
X57357142Y-72035714D02*
X57357142Y-72845238D01*
X57404761Y-72940476D01*
X57452380Y-72988095D01*
X57547619Y-73035714D01*
X57690476Y-73035714D01*
X57785714Y-72988095D01*
X57357142Y-72654761D02*
X57452380Y-72702380D01*
X57642857Y-72702380D01*
X57738095Y-72654761D01*
X57785714Y-72607142D01*
X57833333Y-72511904D01*
X57833333Y-72226190D01*
X57785714Y-72130952D01*
X57738095Y-72083333D01*
X57642857Y-72035714D01*
X57452380Y-72035714D01*
X57357142Y-72083333D01*
X56880952Y-72035714D02*
X56880952Y-72702380D01*
X56880952Y-72130952D02*
X56833333Y-72083333D01*
X56738095Y-72035714D01*
X56595238Y-72035714D01*
X56500000Y-72083333D01*
X56452380Y-72178571D01*
X56452380Y-72702380D01*
X55595238Y-72654761D02*
X55690476Y-72702380D01*
X55880952Y-72702380D01*
X55976190Y-72654761D01*
X56023809Y-72559523D01*
X56023809Y-72178571D01*
X55976190Y-72083333D01*
X55880952Y-72035714D01*
X55690476Y-72035714D01*
X55595238Y-72083333D01*
X55547619Y-72178571D01*
X55547619Y-72273809D01*
X56023809Y-72369047D01*
X54690476Y-72702380D02*
X54690476Y-71702380D01*
X54690476Y-72654761D02*
X54785714Y-72702380D01*
X54976190Y-72702380D01*
X55071428Y-72654761D01*
X55119047Y-72607142D01*
X55166666Y-72511904D01*
X55166666Y-72226190D01*
X55119047Y-72130952D01*
X55071428Y-72083333D01*
X54976190Y-72035714D01*
X54785714Y-72035714D01*
X54690476Y-72083333D01*
X53547619Y-71702380D02*
X53309523Y-72702380D01*
X53119047Y-71988095D01*
X52928571Y-72702380D01*
X52690476Y-71702380D01*
X52309523Y-72702380D02*
X52309523Y-72035714D01*
X52309523Y-71702380D02*
X52357142Y-71750000D01*
X52309523Y-71797619D01*
X52261904Y-71750000D01*
X52309523Y-71702380D01*
X52309523Y-71797619D01*
X51976190Y-72035714D02*
X51595238Y-72035714D01*
X51833333Y-71702380D02*
X51833333Y-72559523D01*
X51785714Y-72654761D01*
X51690476Y-72702380D01*
X51595238Y-72702380D01*
X51261904Y-72702380D02*
X51261904Y-71702380D01*
X50833333Y-72702380D02*
X50833333Y-72178571D01*
X50880952Y-72083333D01*
X50976190Y-72035714D01*
X51119047Y-72035714D01*
X51214285Y-72083333D01*
X51261904Y-72130952D01*
X60342976Y-79802380D02*
X60676309Y-79326190D01*
X60914404Y-79802380D02*
X60914404Y-78802380D01*
X60533452Y-78802380D01*
X60438214Y-78850000D01*
X60390595Y-78897619D01*
X60342976Y-78992857D01*
X60342976Y-79135714D01*
X60390595Y-79230952D01*
X60438214Y-79278571D01*
X60533452Y-79326190D01*
X60914404Y-79326190D01*
X59771547Y-79802380D02*
X59866785Y-79754761D01*
X59914404Y-79707142D01*
X59962023Y-79611904D01*
X59962023Y-79326190D01*
X59914404Y-79230952D01*
X59866785Y-79183333D01*
X59771547Y-79135714D01*
X59628690Y-79135714D01*
X59533452Y-79183333D01*
X59485833Y-79230952D01*
X59438214Y-79326190D01*
X59438214Y-79611904D01*
X59485833Y-79707142D01*
X59533452Y-79754761D01*
X59628690Y-79802380D01*
X59771547Y-79802380D01*
X58866785Y-79802380D02*
X58962023Y-79754761D01*
X59009642Y-79707142D01*
X59057261Y-79611904D01*
X59057261Y-79326190D01*
X59009642Y-79230952D01*
X58962023Y-79183333D01*
X58866785Y-79135714D01*
X58723928Y-79135714D01*
X58628690Y-79183333D01*
X58581071Y-79230952D01*
X58533452Y-79326190D01*
X58533452Y-79611904D01*
X58581071Y-79707142D01*
X58628690Y-79754761D01*
X58723928Y-79802380D01*
X58866785Y-79802380D01*
X58104880Y-79802380D02*
X58104880Y-79135714D01*
X58104880Y-79230952D02*
X58057261Y-79183333D01*
X57962023Y-79135714D01*
X57819166Y-79135714D01*
X57723928Y-79183333D01*
X57676309Y-79278571D01*
X57676309Y-79802380D01*
X57676309Y-79278571D02*
X57628690Y-79183333D01*
X57533452Y-79135714D01*
X57390595Y-79135714D01*
X57295357Y-79183333D01*
X57247738Y-79278571D01*
X57247738Y-79802380D01*
X56009642Y-79278571D02*
X55676309Y-79278571D01*
X55533452Y-79802380D02*
X56009642Y-79802380D01*
X56009642Y-78802380D01*
X55533452Y-78802380D01*
X55104880Y-79135714D02*
X55104880Y-79802380D01*
X55104880Y-79230952D02*
X55057261Y-79183333D01*
X54962023Y-79135714D01*
X54819166Y-79135714D01*
X54723928Y-79183333D01*
X54676309Y-79278571D01*
X54676309Y-79802380D01*
X54295357Y-79135714D02*
X54057261Y-79802380D01*
X53819166Y-79135714D01*
X53438214Y-79802380D02*
X53438214Y-79135714D01*
X53438214Y-78802380D02*
X53485833Y-78850000D01*
X53438214Y-78897619D01*
X53390595Y-78850000D01*
X53438214Y-78802380D01*
X53438214Y-78897619D01*
X52962023Y-79802380D02*
X52962023Y-79135714D01*
X52962023Y-79326190D02*
X52914404Y-79230952D01*
X52866785Y-79183333D01*
X52771547Y-79135714D01*
X52676309Y-79135714D01*
X52200119Y-79802380D02*
X52295357Y-79754761D01*
X52342976Y-79707142D01*
X52390595Y-79611904D01*
X52390595Y-79326190D01*
X52342976Y-79230952D01*
X52295357Y-79183333D01*
X52200119Y-79135714D01*
X52057261Y-79135714D01*
X51962023Y-79183333D01*
X51914404Y-79230952D01*
X51866785Y-79326190D01*
X51866785Y-79611904D01*
X51914404Y-79707142D01*
X51962023Y-79754761D01*
X52057261Y-79802380D01*
X52200119Y-79802380D01*
X51438214Y-79135714D02*
X51438214Y-79802380D01*
X51438214Y-79230952D02*
X51390595Y-79183333D01*
X51295357Y-79135714D01*
X51152500Y-79135714D01*
X51057261Y-79183333D01*
X51009642Y-79278571D01*
X51009642Y-79802380D01*
X50533452Y-79802380D02*
X50533452Y-79135714D01*
X50533452Y-79230952D02*
X50485833Y-79183333D01*
X50390595Y-79135714D01*
X50247738Y-79135714D01*
X50152500Y-79183333D01*
X50104880Y-79278571D01*
X50104880Y-79802380D01*
X50104880Y-79278571D02*
X50057261Y-79183333D01*
X49962023Y-79135714D01*
X49819166Y-79135714D01*
X49723928Y-79183333D01*
X49676309Y-79278571D01*
X49676309Y-79802380D01*
X48819166Y-79754761D02*
X48914404Y-79802380D01*
X49104880Y-79802380D01*
X49200119Y-79754761D01*
X49247738Y-79659523D01*
X49247738Y-79278571D01*
X49200119Y-79183333D01*
X49104880Y-79135714D01*
X48914404Y-79135714D01*
X48819166Y-79183333D01*
X48771547Y-79278571D01*
X48771547Y-79373809D01*
X49247738Y-79469047D01*
X48342976Y-79135714D02*
X48342976Y-79802380D01*
X48342976Y-79230952D02*
X48295357Y-79183333D01*
X48200119Y-79135714D01*
X48057261Y-79135714D01*
X47962023Y-79183333D01*
X47914404Y-79278571D01*
X47914404Y-79802380D01*
X47581071Y-79135714D02*
X47200119Y-79135714D01*
X47438214Y-78802380D02*
X47438214Y-79659523D01*
X47390595Y-79754761D01*
X47295357Y-79802380D01*
X47200119Y-79802380D01*
X46104880Y-79802380D02*
X46104880Y-78802380D01*
X45771547Y-79516666D01*
X45438214Y-78802380D01*
X45438214Y-79802380D01*
X44819166Y-79802380D02*
X44914404Y-79754761D01*
X44962023Y-79707142D01*
X45009642Y-79611904D01*
X45009642Y-79326190D01*
X44962023Y-79230952D01*
X44914404Y-79183333D01*
X44819166Y-79135714D01*
X44676309Y-79135714D01*
X44581071Y-79183333D01*
X44533452Y-79230952D01*
X44485833Y-79326190D01*
X44485833Y-79611904D01*
X44533452Y-79707142D01*
X44581071Y-79754761D01*
X44676309Y-79802380D01*
X44819166Y-79802380D01*
X44057261Y-79135714D02*
X44057261Y-79802380D01*
X44057261Y-79230952D02*
X44009642Y-79183333D01*
X43914404Y-79135714D01*
X43771547Y-79135714D01*
X43676309Y-79183333D01*
X43628690Y-79278571D01*
X43628690Y-79802380D01*
X43152500Y-79802380D02*
X43152500Y-79135714D01*
X43152500Y-78802380D02*
X43200119Y-78850000D01*
X43152500Y-78897619D01*
X43104880Y-78850000D01*
X43152500Y-78802380D01*
X43152500Y-78897619D01*
X42819166Y-79135714D02*
X42438214Y-79135714D01*
X42676309Y-78802380D02*
X42676309Y-79659523D01*
X42628690Y-79754761D01*
X42533452Y-79802380D01*
X42438214Y-79802380D01*
X41962023Y-79802380D02*
X42057261Y-79754761D01*
X42104880Y-79707142D01*
X42152500Y-79611904D01*
X42152500Y-79326190D01*
X42104880Y-79230952D01*
X42057261Y-79183333D01*
X41962023Y-79135714D01*
X41819166Y-79135714D01*
X41723928Y-79183333D01*
X41676309Y-79230952D01*
X41628690Y-79326190D01*
X41628690Y-79611904D01*
X41676309Y-79707142D01*
X41723928Y-79754761D01*
X41819166Y-79802380D01*
X41962023Y-79802380D01*
X41200119Y-79802380D02*
X41200119Y-79135714D01*
X41200119Y-79326190D02*
X41152500Y-79230952D01*
X41104880Y-79183333D01*
X41009642Y-79135714D01*
X40914404Y-79135714D01*
X60914404Y-81452380D02*
X60914404Y-80452380D01*
X60342976Y-81452380D02*
X60771547Y-80880952D01*
X60342976Y-80452380D02*
X60914404Y-81023809D01*
X59533452Y-81404761D02*
X59628690Y-81452380D01*
X59819166Y-81452380D01*
X59914404Y-81404761D01*
X59962023Y-81309523D01*
X59962023Y-80928571D01*
X59914404Y-80833333D01*
X59819166Y-80785714D01*
X59628690Y-80785714D01*
X59533452Y-80833333D01*
X59485833Y-80928571D01*
X59485833Y-81023809D01*
X59962023Y-81119047D01*
X59152500Y-80785714D02*
X58914404Y-81452380D01*
X58676309Y-80785714D01*
X58295357Y-81452380D02*
X58295357Y-80785714D01*
X58295357Y-80452380D02*
X58342976Y-80500000D01*
X58295357Y-80547619D01*
X58247738Y-80500000D01*
X58295357Y-80452380D01*
X58295357Y-80547619D01*
X57819166Y-80785714D02*
X57819166Y-81452380D01*
X57819166Y-80880952D02*
X57771547Y-80833333D01*
X57676309Y-80785714D01*
X57533452Y-80785714D01*
X57438214Y-80833333D01*
X57390595Y-80928571D01*
X57390595Y-81452380D01*
X55676309Y-81452380D02*
X56152500Y-81452380D01*
X56152500Y-80452380D01*
X54914404Y-80785714D02*
X54914404Y-81452380D01*
X55342976Y-80785714D02*
X55342976Y-81309523D01*
X55295357Y-81404761D01*
X55200119Y-81452380D01*
X55057261Y-81452380D01*
X54962023Y-81404761D01*
X54914404Y-81357142D01*
X54533452Y-80785714D02*
X54009642Y-80785714D01*
X54533452Y-81452380D01*
X54009642Y-81452380D01*
X53247738Y-81404761D02*
X53342976Y-81452380D01*
X53533452Y-81452380D01*
X53628690Y-81404761D01*
X53676309Y-81309523D01*
X53676309Y-80928571D01*
X53628690Y-80833333D01*
X53533452Y-80785714D01*
X53342976Y-80785714D01*
X53247738Y-80833333D01*
X53200119Y-80928571D01*
X53200119Y-81023809D01*
X53676309Y-81119047D01*
X52771547Y-81452380D02*
X52771547Y-80785714D01*
X52771547Y-80976190D02*
X52723928Y-80880952D01*
X52676309Y-80833333D01*
X52581071Y-80785714D01*
X52485833Y-80785714D01*
X60342976Y-83102380D02*
X60676309Y-82626190D01*
X60914404Y-83102380D02*
X60914404Y-82102380D01*
X60533452Y-82102380D01*
X60438214Y-82150000D01*
X60390595Y-82197619D01*
X60342976Y-82292857D01*
X60342976Y-82435714D01*
X60390595Y-82530952D01*
X60438214Y-82578571D01*
X60533452Y-82626190D01*
X60914404Y-82626190D01*
X59533452Y-83054761D02*
X59628690Y-83102380D01*
X59819166Y-83102380D01*
X59914404Y-83054761D01*
X59962023Y-82959523D01*
X59962023Y-82578571D01*
X59914404Y-82483333D01*
X59819166Y-82435714D01*
X59628690Y-82435714D01*
X59533452Y-82483333D01*
X59485833Y-82578571D01*
X59485833Y-82673809D01*
X59962023Y-82769047D01*
X59152500Y-82435714D02*
X58914404Y-83102380D01*
X58676309Y-82435714D01*
X57200119Y-82578571D02*
X57057261Y-82626190D01*
X57009642Y-82673809D01*
X56962023Y-82769047D01*
X56962023Y-82911904D01*
X57009642Y-83007142D01*
X57057261Y-83054761D01*
X57152500Y-83102380D01*
X57533452Y-83102380D01*
X57533452Y-82102380D01*
X57200119Y-82102380D01*
X57104880Y-82150000D01*
X57057261Y-82197619D01*
X57009642Y-82292857D01*
X57009642Y-82388095D01*
X57057261Y-82483333D01*
X57104880Y-82530952D01*
X57200119Y-82578571D01*
X57533452Y-82578571D01*
D11*
G36*
X57194186Y-65468931D02*
G01*
X57110365Y-65913555D01*
X56801080Y-66041053D01*
X56491794Y-66168551D01*
X56120754Y-65916246D01*
X56016843Y-65845996D01*
X55922913Y-65783272D01*
X55843348Y-65730938D01*
X55782530Y-65691857D01*
X55744843Y-65668893D01*
X55734579Y-65663942D01*
X55716090Y-65676676D01*
X55676580Y-65711882D01*
X55620478Y-65765062D01*
X55552213Y-65831718D01*
X55476214Y-65907354D01*
X55396908Y-65987472D01*
X55318725Y-66067574D01*
X55246093Y-66143164D01*
X55183441Y-66209745D01*
X55135197Y-66262818D01*
X55105790Y-66297887D01*
X55098759Y-66309623D01*
X55108877Y-66331260D01*
X55137241Y-66378662D01*
X55180871Y-66447193D01*
X55236782Y-66532215D01*
X55301994Y-66629093D01*
X55339781Y-66684350D01*
X55408657Y-66785248D01*
X55469860Y-66876299D01*
X55520422Y-66952970D01*
X55557372Y-67010728D01*
X55577742Y-67045043D01*
X55580803Y-67052254D01*
X55573864Y-67072748D01*
X55554949Y-67120513D01*
X55526913Y-67188832D01*
X55492609Y-67270989D01*
X55454891Y-67360270D01*
X55416613Y-67449958D01*
X55380630Y-67533338D01*
X55349794Y-67603694D01*
X55326961Y-67654310D01*
X55314983Y-67678471D01*
X55314276Y-67679422D01*
X55295469Y-67684036D01*
X55245382Y-67694328D01*
X55169207Y-67709287D01*
X55072135Y-67727901D01*
X54959357Y-67749159D01*
X54893558Y-67761418D01*
X54773050Y-67784362D01*
X54664203Y-67806195D01*
X54572524Y-67825722D01*
X54503519Y-67841748D01*
X54462696Y-67853079D01*
X54454489Y-67856674D01*
X54446452Y-67881006D01*
X54439967Y-67935959D01*
X54435030Y-68015108D01*
X54431636Y-68112026D01*
X54429782Y-68220287D01*
X54429462Y-68333465D01*
X54430673Y-68445135D01*
X54433410Y-68548868D01*
X54437669Y-68638241D01*
X54443445Y-68706826D01*
X54450733Y-68748197D01*
X54455105Y-68756810D01*
X54481236Y-68767133D01*
X54536607Y-68781892D01*
X54613893Y-68799352D01*
X54705770Y-68817780D01*
X54737842Y-68823741D01*
X54892476Y-68852066D01*
X55014625Y-68874876D01*
X55108327Y-68893080D01*
X55177616Y-68907583D01*
X55226529Y-68919292D01*
X55259103Y-68929115D01*
X55279372Y-68937956D01*
X55291374Y-68946724D01*
X55293053Y-68948457D01*
X55309816Y-68976371D01*
X55335386Y-69030695D01*
X55367212Y-69104777D01*
X55402740Y-69191965D01*
X55439417Y-69285608D01*
X55474689Y-69379052D01*
X55506004Y-69465647D01*
X55530807Y-69538740D01*
X55546546Y-69591678D01*
X55550668Y-69617811D01*
X55550324Y-69618726D01*
X55536359Y-69640086D01*
X55504678Y-69687084D01*
X55458609Y-69754827D01*
X55401482Y-69838423D01*
X55336627Y-69932982D01*
X55318157Y-69959854D01*
X55252301Y-70057275D01*
X55194350Y-70146163D01*
X55147462Y-70221412D01*
X55114793Y-70277920D01*
X55099500Y-70310581D01*
X55098759Y-70314593D01*
X55111608Y-70335684D01*
X55147112Y-70377464D01*
X55200707Y-70435445D01*
X55267829Y-70505135D01*
X55343913Y-70582045D01*
X55424396Y-70661683D01*
X55504713Y-70739561D01*
X55580301Y-70811186D01*
X55646595Y-70872070D01*
X55699031Y-70917721D01*
X55733045Y-70943650D01*
X55742455Y-70947883D01*
X55764357Y-70937912D01*
X55809200Y-70911020D01*
X55869679Y-70871736D01*
X55916211Y-70840117D01*
X56000525Y-70782098D01*
X56100374Y-70713784D01*
X56200527Y-70645579D01*
X56254373Y-70609075D01*
X56436629Y-70485800D01*
X56589619Y-70568520D01*
X56659318Y-70604759D01*
X56718586Y-70632926D01*
X56758689Y-70648991D01*
X56768897Y-70651226D01*
X56781171Y-70634722D01*
X56805387Y-70588082D01*
X56839737Y-70515609D01*
X56882412Y-70421606D01*
X56931606Y-70310374D01*
X56985510Y-70186215D01*
X57042316Y-70053432D01*
X57100218Y-69916327D01*
X57157407Y-69779202D01*
X57212076Y-69646358D01*
X57262416Y-69522098D01*
X57306620Y-69410725D01*
X57342881Y-69316539D01*
X57369391Y-69243844D01*
X57384342Y-69196941D01*
X57386746Y-69180833D01*
X57367689Y-69160286D01*
X57325964Y-69126933D01*
X57270294Y-69087702D01*
X57265622Y-69084599D01*
X57121736Y-68969423D01*
X57005717Y-68835053D01*
X56918570Y-68685784D01*
X56861301Y-68525913D01*
X56834914Y-68359737D01*
X56840415Y-68191552D01*
X56878810Y-68025655D01*
X56951105Y-67866342D01*
X56972374Y-67831487D01*
X57083004Y-67690737D01*
X57213698Y-67577714D01*
X57359936Y-67493003D01*
X57517192Y-67437194D01*
X57680943Y-67410874D01*
X57846667Y-67414630D01*
X58009838Y-67449050D01*
X58165935Y-67514723D01*
X58310433Y-67612235D01*
X58355131Y-67651813D01*
X58468888Y-67775703D01*
X58551782Y-67906124D01*
X58608644Y-68052315D01*
X58640313Y-68197088D01*
X58648131Y-68359860D01*
X58622062Y-68523440D01*
X58564755Y-68682298D01*
X58478856Y-68830906D01*
X58367014Y-68963735D01*
X58231877Y-69075256D01*
X58214117Y-69087011D01*
X58157850Y-69125508D01*
X58115077Y-69158863D01*
X58094628Y-69180160D01*
X58094331Y-69180833D01*
X58098721Y-69203871D01*
X58116124Y-69256157D01*
X58144732Y-69333390D01*
X58182735Y-69431268D01*
X58228326Y-69545491D01*
X58279697Y-69671758D01*
X58335038Y-69805767D01*
X58392542Y-69943218D01*
X58450399Y-70079808D01*
X58506802Y-70211237D01*
X58559942Y-70333205D01*
X58608010Y-70441409D01*
X58649199Y-70531549D01*
X58681699Y-70599323D01*
X58703703Y-70640430D01*
X58712564Y-70651226D01*
X58739640Y-70642819D01*
X58790303Y-70620272D01*
X58855817Y-70587613D01*
X58891841Y-70568520D01*
X59044832Y-70485800D01*
X59227088Y-70609075D01*
X59320125Y-70672228D01*
X59421985Y-70741727D01*
X59517438Y-70807165D01*
X59565250Y-70840117D01*
X59632495Y-70885273D01*
X59689436Y-70921057D01*
X59728646Y-70942938D01*
X59741381Y-70947563D01*
X59759917Y-70935085D01*
X59800941Y-70900252D01*
X59860475Y-70846678D01*
X59934542Y-70777983D01*
X60019165Y-70697781D01*
X60072685Y-70646286D01*
X60166319Y-70554286D01*
X60247241Y-70471999D01*
X60312177Y-70402945D01*
X60357858Y-70350644D01*
X60381011Y-70318616D01*
X60383232Y-70312116D01*
X60372924Y-70287394D01*
X60344439Y-70237405D01*
X60300937Y-70167212D01*
X60245577Y-70081875D01*
X60181520Y-69986456D01*
X60163303Y-69959854D01*
X60096927Y-69863167D01*
X60037378Y-69776117D01*
X59987984Y-69703595D01*
X59952075Y-69650493D01*
X59932981Y-69621703D01*
X59931136Y-69618726D01*
X59933895Y-69595782D01*
X59948538Y-69545336D01*
X59972513Y-69474041D01*
X60003266Y-69388547D01*
X60038244Y-69295507D01*
X60074893Y-69201574D01*
X60110661Y-69113399D01*
X60142994Y-69037634D01*
X60169338Y-68980931D01*
X60187142Y-68949943D01*
X60188407Y-68948457D01*
X60199294Y-68939601D01*
X60217682Y-68930843D01*
X60247606Y-68921277D01*
X60293103Y-68909996D01*
X60358209Y-68896093D01*
X60446961Y-68878663D01*
X60563393Y-68856798D01*
X60711542Y-68829591D01*
X60743618Y-68823741D01*
X60838686Y-68805374D01*
X60921565Y-68787405D01*
X60984930Y-68771569D01*
X61021458Y-68759600D01*
X61026356Y-68756810D01*
X61034427Y-68732072D01*
X61040987Y-68676790D01*
X61046033Y-68597389D01*
X61049559Y-68500296D01*
X61051561Y-68391938D01*
X61052036Y-68278740D01*
X61050977Y-68167128D01*
X61048382Y-68063529D01*
X61044246Y-67974368D01*
X61038563Y-67906072D01*
X61031331Y-67865066D01*
X61026971Y-67856674D01*
X61002698Y-67848208D01*
X60947426Y-67834435D01*
X60866662Y-67816550D01*
X60765912Y-67795748D01*
X60650683Y-67773223D01*
X60587902Y-67761418D01*
X60468787Y-67739151D01*
X60362565Y-67718979D01*
X60274427Y-67701915D01*
X60209566Y-67688969D01*
X60173174Y-67681155D01*
X60167184Y-67679422D01*
X60157061Y-67659890D01*
X60135662Y-67612843D01*
X60105839Y-67545003D01*
X60070445Y-67463091D01*
X60032332Y-67373828D01*
X59994353Y-67283935D01*
X59959360Y-67200135D01*
X59930206Y-67129147D01*
X59909743Y-67077694D01*
X59900823Y-67052497D01*
X59900657Y-67051396D01*
X59910769Y-67031519D01*
X59939117Y-66985777D01*
X59982723Y-66918717D01*
X60038606Y-66834884D01*
X60103787Y-66738826D01*
X60141679Y-66683650D01*
X60210725Y-66582481D01*
X60272050Y-66490630D01*
X60322663Y-66412744D01*
X60359571Y-66353469D01*
X60379782Y-66317451D01*
X60382701Y-66309377D01*
X60370153Y-66290584D01*
X60335463Y-66250457D01*
X60283063Y-66193493D01*
X60217384Y-66124185D01*
X60142856Y-66047031D01*
X60063913Y-65966525D01*
X59984983Y-65887163D01*
X59910500Y-65813440D01*
X59844894Y-65749852D01*
X59792596Y-65700894D01*
X59758039Y-65671061D01*
X59746478Y-65663942D01*
X59727654Y-65673953D01*
X59682631Y-65702078D01*
X59615787Y-65745454D01*
X59531499Y-65801218D01*
X59434144Y-65866506D01*
X59360707Y-65916246D01*
X58989667Y-66168551D01*
X58371095Y-65913555D01*
X58287275Y-65468931D01*
X58203454Y-65024307D01*
X57278006Y-65024307D01*
X57194186Y-65468931D01*
G37*
X57194186Y-65468931D02*
X57110365Y-65913555D01*
X56801080Y-66041053D01*
X56491794Y-66168551D01*
X56120754Y-65916246D01*
X56016843Y-65845996D01*
X55922913Y-65783272D01*
X55843348Y-65730938D01*
X55782530Y-65691857D01*
X55744843Y-65668893D01*
X55734579Y-65663942D01*
X55716090Y-65676676D01*
X55676580Y-65711882D01*
X55620478Y-65765062D01*
X55552213Y-65831718D01*
X55476214Y-65907354D01*
X55396908Y-65987472D01*
X55318725Y-66067574D01*
X55246093Y-66143164D01*
X55183441Y-66209745D01*
X55135197Y-66262818D01*
X55105790Y-66297887D01*
X55098759Y-66309623D01*
X55108877Y-66331260D01*
X55137241Y-66378662D01*
X55180871Y-66447193D01*
X55236782Y-66532215D01*
X55301994Y-66629093D01*
X55339781Y-66684350D01*
X55408657Y-66785248D01*
X55469860Y-66876299D01*
X55520422Y-66952970D01*
X55557372Y-67010728D01*
X55577742Y-67045043D01*
X55580803Y-67052254D01*
X55573864Y-67072748D01*
X55554949Y-67120513D01*
X55526913Y-67188832D01*
X55492609Y-67270989D01*
X55454891Y-67360270D01*
X55416613Y-67449958D01*
X55380630Y-67533338D01*
X55349794Y-67603694D01*
X55326961Y-67654310D01*
X55314983Y-67678471D01*
X55314276Y-67679422D01*
X55295469Y-67684036D01*
X55245382Y-67694328D01*
X55169207Y-67709287D01*
X55072135Y-67727901D01*
X54959357Y-67749159D01*
X54893558Y-67761418D01*
X54773050Y-67784362D01*
X54664203Y-67806195D01*
X54572524Y-67825722D01*
X54503519Y-67841748D01*
X54462696Y-67853079D01*
X54454489Y-67856674D01*
X54446452Y-67881006D01*
X54439967Y-67935959D01*
X54435030Y-68015108D01*
X54431636Y-68112026D01*
X54429782Y-68220287D01*
X54429462Y-68333465D01*
X54430673Y-68445135D01*
X54433410Y-68548868D01*
X54437669Y-68638241D01*
X54443445Y-68706826D01*
X54450733Y-68748197D01*
X54455105Y-68756810D01*
X54481236Y-68767133D01*
X54536607Y-68781892D01*
X54613893Y-68799352D01*
X54705770Y-68817780D01*
X54737842Y-68823741D01*
X54892476Y-68852066D01*
X55014625Y-68874876D01*
X55108327Y-68893080D01*
X55177616Y-68907583D01*
X55226529Y-68919292D01*
X55259103Y-68929115D01*
X55279372Y-68937956D01*
X55291374Y-68946724D01*
X55293053Y-68948457D01*
X55309816Y-68976371D01*
X55335386Y-69030695D01*
X55367212Y-69104777D01*
X55402740Y-69191965D01*
X55439417Y-69285608D01*
X55474689Y-69379052D01*
X55506004Y-69465647D01*
X55530807Y-69538740D01*
X55546546Y-69591678D01*
X55550668Y-69617811D01*
X55550324Y-69618726D01*
X55536359Y-69640086D01*
X55504678Y-69687084D01*
X55458609Y-69754827D01*
X55401482Y-69838423D01*
X55336627Y-69932982D01*
X55318157Y-69959854D01*
X55252301Y-70057275D01*
X55194350Y-70146163D01*
X55147462Y-70221412D01*
X55114793Y-70277920D01*
X55099500Y-70310581D01*
X55098759Y-70314593D01*
X55111608Y-70335684D01*
X55147112Y-70377464D01*
X55200707Y-70435445D01*
X55267829Y-70505135D01*
X55343913Y-70582045D01*
X55424396Y-70661683D01*
X55504713Y-70739561D01*
X55580301Y-70811186D01*
X55646595Y-70872070D01*
X55699031Y-70917721D01*
X55733045Y-70943650D01*
X55742455Y-70947883D01*
X55764357Y-70937912D01*
X55809200Y-70911020D01*
X55869679Y-70871736D01*
X55916211Y-70840117D01*
X56000525Y-70782098D01*
X56100374Y-70713784D01*
X56200527Y-70645579D01*
X56254373Y-70609075D01*
X56436629Y-70485800D01*
X56589619Y-70568520D01*
X56659318Y-70604759D01*
X56718586Y-70632926D01*
X56758689Y-70648991D01*
X56768897Y-70651226D01*
X56781171Y-70634722D01*
X56805387Y-70588082D01*
X56839737Y-70515609D01*
X56882412Y-70421606D01*
X56931606Y-70310374D01*
X56985510Y-70186215D01*
X57042316Y-70053432D01*
X57100218Y-69916327D01*
X57157407Y-69779202D01*
X57212076Y-69646358D01*
X57262416Y-69522098D01*
X57306620Y-69410725D01*
X57342881Y-69316539D01*
X57369391Y-69243844D01*
X57384342Y-69196941D01*
X57386746Y-69180833D01*
X57367689Y-69160286D01*
X57325964Y-69126933D01*
X57270294Y-69087702D01*
X57265622Y-69084599D01*
X57121736Y-68969423D01*
X57005717Y-68835053D01*
X56918570Y-68685784D01*
X56861301Y-68525913D01*
X56834914Y-68359737D01*
X56840415Y-68191552D01*
X56878810Y-68025655D01*
X56951105Y-67866342D01*
X56972374Y-67831487D01*
X57083004Y-67690737D01*
X57213698Y-67577714D01*
X57359936Y-67493003D01*
X57517192Y-67437194D01*
X57680943Y-67410874D01*
X57846667Y-67414630D01*
X58009838Y-67449050D01*
X58165935Y-67514723D01*
X58310433Y-67612235D01*
X58355131Y-67651813D01*
X58468888Y-67775703D01*
X58551782Y-67906124D01*
X58608644Y-68052315D01*
X58640313Y-68197088D01*
X58648131Y-68359860D01*
X58622062Y-68523440D01*
X58564755Y-68682298D01*
X58478856Y-68830906D01*
X58367014Y-68963735D01*
X58231877Y-69075256D01*
X58214117Y-69087011D01*
X58157850Y-69125508D01*
X58115077Y-69158863D01*
X58094628Y-69180160D01*
X58094331Y-69180833D01*
X58098721Y-69203871D01*
X58116124Y-69256157D01*
X58144732Y-69333390D01*
X58182735Y-69431268D01*
X58228326Y-69545491D01*
X58279697Y-69671758D01*
X58335038Y-69805767D01*
X58392542Y-69943218D01*
X58450399Y-70079808D01*
X58506802Y-70211237D01*
X58559942Y-70333205D01*
X58608010Y-70441409D01*
X58649199Y-70531549D01*
X58681699Y-70599323D01*
X58703703Y-70640430D01*
X58712564Y-70651226D01*
X58739640Y-70642819D01*
X58790303Y-70620272D01*
X58855817Y-70587613D01*
X58891841Y-70568520D01*
X59044832Y-70485800D01*
X59227088Y-70609075D01*
X59320125Y-70672228D01*
X59421985Y-70741727D01*
X59517438Y-70807165D01*
X59565250Y-70840117D01*
X59632495Y-70885273D01*
X59689436Y-70921057D01*
X59728646Y-70942938D01*
X59741381Y-70947563D01*
X59759917Y-70935085D01*
X59800941Y-70900252D01*
X59860475Y-70846678D01*
X59934542Y-70777983D01*
X60019165Y-70697781D01*
X60072685Y-70646286D01*
X60166319Y-70554286D01*
X60247241Y-70471999D01*
X60312177Y-70402945D01*
X60357858Y-70350644D01*
X60381011Y-70318616D01*
X60383232Y-70312116D01*
X60372924Y-70287394D01*
X60344439Y-70237405D01*
X60300937Y-70167212D01*
X60245577Y-70081875D01*
X60181520Y-69986456D01*
X60163303Y-69959854D01*
X60096927Y-69863167D01*
X60037378Y-69776117D01*
X59987984Y-69703595D01*
X59952075Y-69650493D01*
X59932981Y-69621703D01*
X59931136Y-69618726D01*
X59933895Y-69595782D01*
X59948538Y-69545336D01*
X59972513Y-69474041D01*
X60003266Y-69388547D01*
X60038244Y-69295507D01*
X60074893Y-69201574D01*
X60110661Y-69113399D01*
X60142994Y-69037634D01*
X60169338Y-68980931D01*
X60187142Y-68949943D01*
X60188407Y-68948457D01*
X60199294Y-68939601D01*
X60217682Y-68930843D01*
X60247606Y-68921277D01*
X60293103Y-68909996D01*
X60358209Y-68896093D01*
X60446961Y-68878663D01*
X60563393Y-68856798D01*
X60711542Y-68829591D01*
X60743618Y-68823741D01*
X60838686Y-68805374D01*
X60921565Y-68787405D01*
X60984930Y-68771569D01*
X61021458Y-68759600D01*
X61026356Y-68756810D01*
X61034427Y-68732072D01*
X61040987Y-68676790D01*
X61046033Y-68597389D01*
X61049559Y-68500296D01*
X61051561Y-68391938D01*
X61052036Y-68278740D01*
X61050977Y-68167128D01*
X61048382Y-68063529D01*
X61044246Y-67974368D01*
X61038563Y-67906072D01*
X61031331Y-67865066D01*
X61026971Y-67856674D01*
X61002698Y-67848208D01*
X60947426Y-67834435D01*
X60866662Y-67816550D01*
X60765912Y-67795748D01*
X60650683Y-67773223D01*
X60587902Y-67761418D01*
X60468787Y-67739151D01*
X60362565Y-67718979D01*
X60274427Y-67701915D01*
X60209566Y-67688969D01*
X60173174Y-67681155D01*
X60167184Y-67679422D01*
X60157061Y-67659890D01*
X60135662Y-67612843D01*
X60105839Y-67545003D01*
X60070445Y-67463091D01*
X60032332Y-67373828D01*
X59994353Y-67283935D01*
X59959360Y-67200135D01*
X59930206Y-67129147D01*
X59909743Y-67077694D01*
X59900823Y-67052497D01*
X59900657Y-67051396D01*
X59910769Y-67031519D01*
X59939117Y-66985777D01*
X59982723Y-66918717D01*
X60038606Y-66834884D01*
X60103787Y-66738826D01*
X60141679Y-66683650D01*
X60210725Y-66582481D01*
X60272050Y-66490630D01*
X60322663Y-66412744D01*
X60359571Y-66353469D01*
X60379782Y-66317451D01*
X60382701Y-66309377D01*
X60370153Y-66290584D01*
X60335463Y-66250457D01*
X60283063Y-66193493D01*
X60217384Y-66124185D01*
X60142856Y-66047031D01*
X60063913Y-65966525D01*
X59984983Y-65887163D01*
X59910500Y-65813440D01*
X59844894Y-65749852D01*
X59792596Y-65700894D01*
X59758039Y-65671061D01*
X59746478Y-65663942D01*
X59727654Y-65673953D01*
X59682631Y-65702078D01*
X59615787Y-65745454D01*
X59531499Y-65801218D01*
X59434144Y-65866506D01*
X59360707Y-65916246D01*
X58989667Y-66168551D01*
X58371095Y-65913555D01*
X58287275Y-65468931D01*
X58203454Y-65024307D01*
X57278006Y-65024307D01*
X57194186Y-65468931D01*
G36*
X57696400Y-73489054D02*
G01*
X57685535Y-73602993D01*
X57653918Y-73710616D01*
X57603015Y-73809615D01*
X57534293Y-73897684D01*
X57449219Y-73972516D01*
X57352232Y-74030384D01*
X57245964Y-74070005D01*
X57138950Y-74088573D01*
X57033300Y-74087434D01*
X56931125Y-74067930D01*
X56834534Y-74031406D01*
X56745638Y-73979205D01*
X56666546Y-73912673D01*
X56599369Y-73833152D01*
X56546217Y-73741987D01*
X56509199Y-73640523D01*
X56490427Y-73530102D01*
X56488489Y-73480206D01*
X56488489Y-73392267D01*
X56436560Y-73392267D01*
X56400253Y-73395111D01*
X56373355Y-73406911D01*
X56346249Y-73430649D01*
X56307867Y-73469031D01*
X56307867Y-75660602D01*
X56307876Y-75922739D01*
X56307908Y-76163241D01*
X56307972Y-76383048D01*
X56308076Y-76583101D01*
X56308227Y-76764344D01*
X56308434Y-76927716D01*
X56308706Y-77074160D01*
X56309050Y-77204617D01*
X56309474Y-77320029D01*
X56309987Y-77421338D01*
X56310597Y-77509484D01*
X56311312Y-77585410D01*
X56312140Y-77650057D01*
X56313089Y-77704367D01*
X56314167Y-77749280D01*
X56315383Y-77785740D01*
X56316745Y-77814687D01*
X56318261Y-77837063D01*
X56319938Y-77853809D01*
X56321786Y-77865868D01*
X56323813Y-77874180D01*
X56326025Y-77879687D01*
X56327108Y-77881537D01*
X56331271Y-77888549D01*
X56334805Y-77894996D01*
X56338635Y-77900900D01*
X56343682Y-77906286D01*
X56350871Y-77911178D01*
X56361123Y-77915598D01*
X56375364Y-77919572D01*
X56394514Y-77923121D01*
X56419499Y-77926270D01*
X56451240Y-77929042D01*
X56490662Y-77931461D01*
X56538686Y-77933551D01*
X56596237Y-77935335D01*
X56664237Y-77936837D01*
X56743610Y-77938080D01*
X56835279Y-77939089D01*
X56940166Y-77939885D01*
X57059196Y-77940494D01*
X57193290Y-77940939D01*
X57343373Y-77941243D01*
X57510367Y-77941430D01*
X57695196Y-77941524D01*
X57898783Y-77941548D01*
X58122050Y-77941525D01*
X58365922Y-77941480D01*
X58631321Y-77941437D01*
X58669704Y-77941432D01*
X58936682Y-77941389D01*
X59182002Y-77941318D01*
X59406583Y-77941213D01*
X59611345Y-77941066D01*
X59797206Y-77940869D01*
X59965088Y-77940616D01*
X60115908Y-77940300D01*
X60250587Y-77939913D01*
X60370044Y-77939447D01*
X60475199Y-77938897D01*
X60566971Y-77938253D01*
X60646279Y-77937511D01*
X60714043Y-77936661D01*
X60771182Y-77935697D01*
X60818617Y-77934611D01*
X60857266Y-77933397D01*
X60888049Y-77932047D01*
X60911885Y-77930555D01*
X60929694Y-77928911D01*
X60942395Y-77927111D01*
X60950908Y-77925145D01*
X60955266Y-77923477D01*
X60963728Y-77919906D01*
X60971497Y-77917270D01*
X60978602Y-77914634D01*
X60985073Y-77911062D01*
X60990939Y-77905621D01*
X60996229Y-77897375D01*
X61000974Y-77885390D01*
X61005202Y-77868731D01*
X61008943Y-77846463D01*
X61012227Y-77817652D01*
X61015083Y-77781363D01*
X61017540Y-77736661D01*
X61019629Y-77682611D01*
X61021378Y-77618279D01*
X61022817Y-77542730D01*
X61023976Y-77455030D01*
X61024883Y-77354243D01*
X61025569Y-77239434D01*
X61026063Y-77109670D01*
X61026395Y-76964015D01*
X61026593Y-76801535D01*
X61026687Y-76621295D01*
X61026708Y-76422360D01*
X61026685Y-76203796D01*
X61026646Y-75964668D01*
X61026622Y-75704040D01*
X61026622Y-75661889D01*
X61026636Y-75398992D01*
X61026661Y-75157732D01*
X61026671Y-74937165D01*
X61026642Y-74736352D01*
X61026548Y-74554349D01*
X61026362Y-74390216D01*
X61026059Y-74243011D01*
X61025614Y-74111792D01*
X61025034Y-74001867D01*
X60722197Y-74001867D01*
X60682407Y-74059711D01*
X60671236Y-74075479D01*
X60661166Y-74089441D01*
X60652138Y-74102784D01*
X60644097Y-74116693D01*
X60636986Y-74132356D01*
X60630747Y-74150958D01*
X60625325Y-74173686D01*
X60620662Y-74201727D01*
X60616701Y-74236267D01*
X60613385Y-74278492D01*
X60610659Y-74329589D01*
X60608464Y-74390744D01*
X60606745Y-74463144D01*
X60605444Y-74547975D01*
X60604505Y-74646422D01*
X60603870Y-74759674D01*
X60603484Y-74888916D01*
X60603288Y-75035334D01*
X60603227Y-75200116D01*
X60603243Y-75384447D01*
X60603280Y-75589513D01*
X60603289Y-75712133D01*
X60603265Y-75929082D01*
X60603231Y-76124642D01*
X60603243Y-76299999D01*
X60603358Y-76456341D01*
X60603630Y-76594857D01*
X60604118Y-76716734D01*
X60604876Y-76823160D01*
X60605962Y-76915322D01*
X60607431Y-76994409D01*
X60609340Y-77061608D01*
X60611744Y-77118107D01*
X60614701Y-77165093D01*
X60618266Y-77203755D01*
X60622495Y-77235280D01*
X60627446Y-77260855D01*
X60633173Y-77281670D01*
X60639733Y-77298911D01*
X60647183Y-77313765D01*
X60655579Y-77327422D01*
X60664976Y-77341069D01*
X60675432Y-77355893D01*
X60681523Y-77364783D01*
X60720296Y-77422400D01*
X60188732Y-77422400D01*
X60065483Y-77422365D01*
X59962987Y-77422215D01*
X59879420Y-77421878D01*
X59812956Y-77421286D01*
X59761771Y-77420367D01*
X59724041Y-77419051D01*
X59697940Y-77417269D01*
X59681644Y-77414951D01*
X59673328Y-77412026D01*
X59671168Y-77408424D01*
X59673339Y-77404075D01*
X59674535Y-77402645D01*
X59699685Y-77365573D01*
X59725583Y-77312772D01*
X59749192Y-77250770D01*
X59757461Y-77224357D01*
X59762078Y-77206416D01*
X59765979Y-77185355D01*
X59769248Y-77159089D01*
X59771966Y-77125532D01*
X59774215Y-77082599D01*
X59776077Y-77028204D01*
X59777636Y-76960262D01*
X59778972Y-76876688D01*
X59780169Y-76775395D01*
X59781308Y-76654300D01*
X59781685Y-76609600D01*
X59782702Y-76484449D01*
X59783460Y-76380082D01*
X59783903Y-76294707D01*
X59783970Y-76226533D01*
X59783605Y-76173765D01*
X59782748Y-76134614D01*
X59781341Y-76107285D01*
X59779325Y-76089986D01*
X59776643Y-76080926D01*
X59773236Y-76078312D01*
X59769044Y-76080351D01*
X59764571Y-76084667D01*
X59754216Y-76097602D01*
X59732158Y-76126676D01*
X59699957Y-76169759D01*
X59659174Y-76224718D01*
X59611370Y-76289423D01*
X59558105Y-76361742D01*
X59500940Y-76439544D01*
X59441437Y-76520698D01*
X59381155Y-76603072D01*
X59321655Y-76684536D01*
X59264498Y-76762957D01*
X59211245Y-76836204D01*
X59163457Y-76902147D01*
X59122693Y-76958654D01*
X59090516Y-77003593D01*
X59068485Y-77034834D01*
X59063917Y-77041466D01*
X59040996Y-77078369D01*
X59014188Y-77126359D01*
X58988789Y-77175897D01*
X58985568Y-77182577D01*
X58963890Y-77230772D01*
X58951304Y-77268334D01*
X58945574Y-77304160D01*
X58944456Y-77346200D01*
X58945090Y-77422400D01*
X57790651Y-77422400D01*
X57881815Y-77328669D01*
X57928612Y-77278775D01*
X57978899Y-77222295D01*
X58024944Y-77168026D01*
X58045369Y-77142673D01*
X58075807Y-77103128D01*
X58115862Y-77049916D01*
X58164361Y-76984667D01*
X58220135Y-76909011D01*
X58282011Y-76824577D01*
X58348819Y-76732994D01*
X58419387Y-76635892D01*
X58492545Y-76534901D01*
X58567121Y-76431650D01*
X58641944Y-76327768D01*
X58715843Y-76224885D01*
X58787646Y-76124631D01*
X58856184Y-76028636D01*
X58920284Y-75938527D01*
X58978775Y-75855936D01*
X59030486Y-75782492D01*
X59074247Y-75719824D01*
X59108885Y-75669561D01*
X59133230Y-75633334D01*
X59146111Y-75612771D01*
X59147869Y-75608668D01*
X59139910Y-75597342D01*
X59119115Y-75570162D01*
X59086847Y-75528829D01*
X59044470Y-75475044D01*
X58993347Y-75410506D01*
X58934841Y-75336918D01*
X58870314Y-75255978D01*
X58801131Y-75169388D01*
X58728653Y-75078848D01*
X58654246Y-74986060D01*
X58594517Y-74911702D01*
X57583511Y-74911702D01*
X57577602Y-74924659D01*
X57563272Y-74946908D01*
X57562225Y-74948391D01*
X57543438Y-74978544D01*
X57523791Y-75015375D01*
X57519892Y-75023511D01*
X57516356Y-75031940D01*
X57513230Y-75042059D01*
X57510486Y-75055260D01*
X57508092Y-75072938D01*
X57506019Y-75096484D01*
X57504235Y-75127293D01*
X57502712Y-75166757D01*
X57501419Y-75216269D01*
X57500326Y-75277223D01*
X57499403Y-75351011D01*
X57498619Y-75439028D01*
X57497945Y-75542665D01*
X57497350Y-75663316D01*
X57496805Y-75802374D01*
X57496279Y-75961232D01*
X57495745Y-76140089D01*
X57495206Y-76325207D01*
X57494772Y-76489145D01*
X57494509Y-76633303D01*
X57494484Y-76759079D01*
X57494765Y-76867871D01*
X57495419Y-76961077D01*
X57496514Y-77040097D01*
X57498118Y-77106328D01*
X57500297Y-77161170D01*
X57503119Y-77206021D01*
X57506651Y-77242278D01*
X57510961Y-77271341D01*
X57516117Y-77294609D01*
X57522185Y-77313479D01*
X57529233Y-77329351D01*
X57537329Y-77343622D01*
X57546540Y-77357691D01*
X57555040Y-77370158D01*
X57572176Y-77396452D01*
X57582322Y-77414037D01*
X57583511Y-77417257D01*
X57572604Y-77418334D01*
X57541411Y-77419335D01*
X57492223Y-77420235D01*
X57427333Y-77421010D01*
X57349030Y-77421637D01*
X57259607Y-77422091D01*
X57161356Y-77422349D01*
X57092445Y-77422400D01*
X56987452Y-77422180D01*
X56890610Y-77421548D01*
X56804107Y-77420549D01*
X56730132Y-77419227D01*
X56670874Y-77417626D01*
X56628520Y-77415791D01*
X56605260Y-77413765D01*
X56601378Y-77412493D01*
X56609076Y-77397591D01*
X56617074Y-77389560D01*
X56630246Y-77372434D01*
X56647485Y-77342183D01*
X56659407Y-77317622D01*
X56686045Y-77258711D01*
X56689120Y-76081845D01*
X56692195Y-74904978D01*
X57137853Y-74904978D01*
X57235670Y-74905142D01*
X57326064Y-74905611D01*
X57406630Y-74906347D01*
X57474962Y-74907316D01*
X57528656Y-74908480D01*
X57565305Y-74909803D01*
X57582504Y-74911249D01*
X57583511Y-74911702D01*
X58594517Y-74911702D01*
X58579270Y-74892722D01*
X58505090Y-74800537D01*
X58433069Y-74711204D01*
X58364569Y-74626424D01*
X58300955Y-74547898D01*
X58243588Y-74477326D01*
X58193833Y-74416409D01*
X58153052Y-74366847D01*
X58135888Y-74346178D01*
X58049596Y-74245516D01*
X57972997Y-74162259D01*
X57904183Y-74094438D01*
X57841248Y-74040089D01*
X57831867Y-74032722D01*
X57792356Y-74002117D01*
X58924116Y-74001867D01*
X58918827Y-74049844D01*
X58922130Y-74107188D01*
X58943661Y-74175463D01*
X58983635Y-74255212D01*
X59028943Y-74327495D01*
X59045161Y-74350140D01*
X59073214Y-74387696D01*
X59111430Y-74438021D01*
X59158137Y-74498973D01*
X59211661Y-74568411D01*
X59270331Y-74644194D01*
X59332475Y-74724180D01*
X59396421Y-74806228D01*
X59460495Y-74888196D01*
X59523027Y-74967943D01*
X59582343Y-75043327D01*
X59636771Y-75112207D01*
X59684639Y-75172442D01*
X59724275Y-75221889D01*
X59754006Y-75258408D01*
X59772161Y-75279858D01*
X59775220Y-75283156D01*
X59778079Y-75275149D01*
X59780293Y-75244855D01*
X59781857Y-75192556D01*
X59782767Y-75118531D01*
X59783020Y-75023063D01*
X59782613Y-74906434D01*
X59781704Y-74786445D01*
X59780382Y-74654333D01*
X59778857Y-74542594D01*
X59776881Y-74449025D01*
X59774206Y-74371419D01*
X59770582Y-74307574D01*
X59765761Y-74255283D01*
X59759494Y-74212344D01*
X59751532Y-74176551D01*
X59741627Y-74145700D01*
X59729531Y-74117586D01*
X59714993Y-74090005D01*
X59700311Y-74064966D01*
X59662314Y-74001867D01*
X60722197Y-74001867D01*
X61025034Y-74001867D01*
X61025001Y-73995617D01*
X61024195Y-73893544D01*
X61023170Y-73804633D01*
X61021900Y-73727941D01*
X61020360Y-73662527D01*
X61018524Y-73607449D01*
X61016367Y-73561765D01*
X61013863Y-73524534D01*
X61010987Y-73494813D01*
X61007713Y-73471662D01*
X61004015Y-73454139D01*
X60999869Y-73441301D01*
X60995247Y-73432208D01*
X60990126Y-73425918D01*
X60984478Y-73421488D01*
X60978279Y-73417978D01*
X60971504Y-73414445D01*
X60965508Y-73410876D01*
X60960275Y-73408300D01*
X60952099Y-73405972D01*
X60939886Y-73403878D01*
X60922541Y-73402007D01*
X60898969Y-73400347D01*
X60868077Y-73398884D01*
X60828768Y-73397608D01*
X60779950Y-73396504D01*
X60720527Y-73395561D01*
X60649404Y-73394767D01*
X60565488Y-73394109D01*
X60467683Y-73393575D01*
X60354894Y-73393153D01*
X60226029Y-73392829D01*
X60079991Y-73392592D01*
X59915686Y-73392430D01*
X59732020Y-73392330D01*
X59527897Y-73392280D01*
X59316753Y-73392267D01*
X57696400Y-73392267D01*
X57696400Y-73489054D01*
G37*
X57696400Y-73489054D02*
X57685535Y-73602993D01*
X57653918Y-73710616D01*
X57603015Y-73809615D01*
X57534293Y-73897684D01*
X57449219Y-73972516D01*
X57352232Y-74030384D01*
X57245964Y-74070005D01*
X57138950Y-74088573D01*
X57033300Y-74087434D01*
X56931125Y-74067930D01*
X56834534Y-74031406D01*
X56745638Y-73979205D01*
X56666546Y-73912673D01*
X56599369Y-73833152D01*
X56546217Y-73741987D01*
X56509199Y-73640523D01*
X56490427Y-73530102D01*
X56488489Y-73480206D01*
X56488489Y-73392267D01*
X56436560Y-73392267D01*
X56400253Y-73395111D01*
X56373355Y-73406911D01*
X56346249Y-73430649D01*
X56307867Y-73469031D01*
X56307867Y-75660602D01*
X56307876Y-75922739D01*
X56307908Y-76163241D01*
X56307972Y-76383048D01*
X56308076Y-76583101D01*
X56308227Y-76764344D01*
X56308434Y-76927716D01*
X56308706Y-77074160D01*
X56309050Y-77204617D01*
X56309474Y-77320029D01*
X56309987Y-77421338D01*
X56310597Y-77509484D01*
X56311312Y-77585410D01*
X56312140Y-77650057D01*
X56313089Y-77704367D01*
X56314167Y-77749280D01*
X56315383Y-77785740D01*
X56316745Y-77814687D01*
X56318261Y-77837063D01*
X56319938Y-77853809D01*
X56321786Y-77865868D01*
X56323813Y-77874180D01*
X56326025Y-77879687D01*
X56327108Y-77881537D01*
X56331271Y-77888549D01*
X56334805Y-77894996D01*
X56338635Y-77900900D01*
X56343682Y-77906286D01*
X56350871Y-77911178D01*
X56361123Y-77915598D01*
X56375364Y-77919572D01*
X56394514Y-77923121D01*
X56419499Y-77926270D01*
X56451240Y-77929042D01*
X56490662Y-77931461D01*
X56538686Y-77933551D01*
X56596237Y-77935335D01*
X56664237Y-77936837D01*
X56743610Y-77938080D01*
X56835279Y-77939089D01*
X56940166Y-77939885D01*
X57059196Y-77940494D01*
X57193290Y-77940939D01*
X57343373Y-77941243D01*
X57510367Y-77941430D01*
X57695196Y-77941524D01*
X57898783Y-77941548D01*
X58122050Y-77941525D01*
X58365922Y-77941480D01*
X58631321Y-77941437D01*
X58669704Y-77941432D01*
X58936682Y-77941389D01*
X59182002Y-77941318D01*
X59406583Y-77941213D01*
X59611345Y-77941066D01*
X59797206Y-77940869D01*
X59965088Y-77940616D01*
X60115908Y-77940300D01*
X60250587Y-77939913D01*
X60370044Y-77939447D01*
X60475199Y-77938897D01*
X60566971Y-77938253D01*
X60646279Y-77937511D01*
X60714043Y-77936661D01*
X60771182Y-77935697D01*
X60818617Y-77934611D01*
X60857266Y-77933397D01*
X60888049Y-77932047D01*
X60911885Y-77930555D01*
X60929694Y-77928911D01*
X60942395Y-77927111D01*
X60950908Y-77925145D01*
X60955266Y-77923477D01*
X60963728Y-77919906D01*
X60971497Y-77917270D01*
X60978602Y-77914634D01*
X60985073Y-77911062D01*
X60990939Y-77905621D01*
X60996229Y-77897375D01*
X61000974Y-77885390D01*
X61005202Y-77868731D01*
X61008943Y-77846463D01*
X61012227Y-77817652D01*
X61015083Y-77781363D01*
X61017540Y-77736661D01*
X61019629Y-77682611D01*
X61021378Y-77618279D01*
X61022817Y-77542730D01*
X61023976Y-77455030D01*
X61024883Y-77354243D01*
X61025569Y-77239434D01*
X61026063Y-77109670D01*
X61026395Y-76964015D01*
X61026593Y-76801535D01*
X61026687Y-76621295D01*
X61026708Y-76422360D01*
X61026685Y-76203796D01*
X61026646Y-75964668D01*
X61026622Y-75704040D01*
X61026622Y-75661889D01*
X61026636Y-75398992D01*
X61026661Y-75157732D01*
X61026671Y-74937165D01*
X61026642Y-74736352D01*
X61026548Y-74554349D01*
X61026362Y-74390216D01*
X61026059Y-74243011D01*
X61025614Y-74111792D01*
X61025034Y-74001867D01*
X60722197Y-74001867D01*
X60682407Y-74059711D01*
X60671236Y-74075479D01*
X60661166Y-74089441D01*
X60652138Y-74102784D01*
X60644097Y-74116693D01*
X60636986Y-74132356D01*
X60630747Y-74150958D01*
X60625325Y-74173686D01*
X60620662Y-74201727D01*
X60616701Y-74236267D01*
X60613385Y-74278492D01*
X60610659Y-74329589D01*
X60608464Y-74390744D01*
X60606745Y-74463144D01*
X60605444Y-74547975D01*
X60604505Y-74646422D01*
X60603870Y-74759674D01*
X60603484Y-74888916D01*
X60603288Y-75035334D01*
X60603227Y-75200116D01*
X60603243Y-75384447D01*
X60603280Y-75589513D01*
X60603289Y-75712133D01*
X60603265Y-75929082D01*
X60603231Y-76124642D01*
X60603243Y-76299999D01*
X60603358Y-76456341D01*
X60603630Y-76594857D01*
X60604118Y-76716734D01*
X60604876Y-76823160D01*
X60605962Y-76915322D01*
X60607431Y-76994409D01*
X60609340Y-77061608D01*
X60611744Y-77118107D01*
X60614701Y-77165093D01*
X60618266Y-77203755D01*
X60622495Y-77235280D01*
X60627446Y-77260855D01*
X60633173Y-77281670D01*
X60639733Y-77298911D01*
X60647183Y-77313765D01*
X60655579Y-77327422D01*
X60664976Y-77341069D01*
X60675432Y-77355893D01*
X60681523Y-77364783D01*
X60720296Y-77422400D01*
X60188732Y-77422400D01*
X60065483Y-77422365D01*
X59962987Y-77422215D01*
X59879420Y-77421878D01*
X59812956Y-77421286D01*
X59761771Y-77420367D01*
X59724041Y-77419051D01*
X59697940Y-77417269D01*
X59681644Y-77414951D01*
X59673328Y-77412026D01*
X59671168Y-77408424D01*
X59673339Y-77404075D01*
X59674535Y-77402645D01*
X59699685Y-77365573D01*
X59725583Y-77312772D01*
X59749192Y-77250770D01*
X59757461Y-77224357D01*
X59762078Y-77206416D01*
X59765979Y-77185355D01*
X59769248Y-77159089D01*
X59771966Y-77125532D01*
X59774215Y-77082599D01*
X59776077Y-77028204D01*
X59777636Y-76960262D01*
X59778972Y-76876688D01*
X59780169Y-76775395D01*
X59781308Y-76654300D01*
X59781685Y-76609600D01*
X59782702Y-76484449D01*
X59783460Y-76380082D01*
X59783903Y-76294707D01*
X59783970Y-76226533D01*
X59783605Y-76173765D01*
X59782748Y-76134614D01*
X59781341Y-76107285D01*
X59779325Y-76089986D01*
X59776643Y-76080926D01*
X59773236Y-76078312D01*
X59769044Y-76080351D01*
X59764571Y-76084667D01*
X59754216Y-76097602D01*
X59732158Y-76126676D01*
X59699957Y-76169759D01*
X59659174Y-76224718D01*
X59611370Y-76289423D01*
X59558105Y-76361742D01*
X59500940Y-76439544D01*
X59441437Y-76520698D01*
X59381155Y-76603072D01*
X59321655Y-76684536D01*
X59264498Y-76762957D01*
X59211245Y-76836204D01*
X59163457Y-76902147D01*
X59122693Y-76958654D01*
X59090516Y-77003593D01*
X59068485Y-77034834D01*
X59063917Y-77041466D01*
X59040996Y-77078369D01*
X59014188Y-77126359D01*
X58988789Y-77175897D01*
X58985568Y-77182577D01*
X58963890Y-77230772D01*
X58951304Y-77268334D01*
X58945574Y-77304160D01*
X58944456Y-77346200D01*
X58945090Y-77422400D01*
X57790651Y-77422400D01*
X57881815Y-77328669D01*
X57928612Y-77278775D01*
X57978899Y-77222295D01*
X58024944Y-77168026D01*
X58045369Y-77142673D01*
X58075807Y-77103128D01*
X58115862Y-77049916D01*
X58164361Y-76984667D01*
X58220135Y-76909011D01*
X58282011Y-76824577D01*
X58348819Y-76732994D01*
X58419387Y-76635892D01*
X58492545Y-76534901D01*
X58567121Y-76431650D01*
X58641944Y-76327768D01*
X58715843Y-76224885D01*
X58787646Y-76124631D01*
X58856184Y-76028636D01*
X58920284Y-75938527D01*
X58978775Y-75855936D01*
X59030486Y-75782492D01*
X59074247Y-75719824D01*
X59108885Y-75669561D01*
X59133230Y-75633334D01*
X59146111Y-75612771D01*
X59147869Y-75608668D01*
X59139910Y-75597342D01*
X59119115Y-75570162D01*
X59086847Y-75528829D01*
X59044470Y-75475044D01*
X58993347Y-75410506D01*
X58934841Y-75336918D01*
X58870314Y-75255978D01*
X58801131Y-75169388D01*
X58728653Y-75078848D01*
X58654246Y-74986060D01*
X58594517Y-74911702D01*
X57583511Y-74911702D01*
X57577602Y-74924659D01*
X57563272Y-74946908D01*
X57562225Y-74948391D01*
X57543438Y-74978544D01*
X57523791Y-75015375D01*
X57519892Y-75023511D01*
X57516356Y-75031940D01*
X57513230Y-75042059D01*
X57510486Y-75055260D01*
X57508092Y-75072938D01*
X57506019Y-75096484D01*
X57504235Y-75127293D01*
X57502712Y-75166757D01*
X57501419Y-75216269D01*
X57500326Y-75277223D01*
X57499403Y-75351011D01*
X57498619Y-75439028D01*
X57497945Y-75542665D01*
X57497350Y-75663316D01*
X57496805Y-75802374D01*
X57496279Y-75961232D01*
X57495745Y-76140089D01*
X57495206Y-76325207D01*
X57494772Y-76489145D01*
X57494509Y-76633303D01*
X57494484Y-76759079D01*
X57494765Y-76867871D01*
X57495419Y-76961077D01*
X57496514Y-77040097D01*
X57498118Y-77106328D01*
X57500297Y-77161170D01*
X57503119Y-77206021D01*
X57506651Y-77242278D01*
X57510961Y-77271341D01*
X57516117Y-77294609D01*
X57522185Y-77313479D01*
X57529233Y-77329351D01*
X57537329Y-77343622D01*
X57546540Y-77357691D01*
X57555040Y-77370158D01*
X57572176Y-77396452D01*
X57582322Y-77414037D01*
X57583511Y-77417257D01*
X57572604Y-77418334D01*
X57541411Y-77419335D01*
X57492223Y-77420235D01*
X57427333Y-77421010D01*
X57349030Y-77421637D01*
X57259607Y-77422091D01*
X57161356Y-77422349D01*
X57092445Y-77422400D01*
X56987452Y-77422180D01*
X56890610Y-77421548D01*
X56804107Y-77420549D01*
X56730132Y-77419227D01*
X56670874Y-77417626D01*
X56628520Y-77415791D01*
X56605260Y-77413765D01*
X56601378Y-77412493D01*
X56609076Y-77397591D01*
X56617074Y-77389560D01*
X56630246Y-77372434D01*
X56647485Y-77342183D01*
X56659407Y-77317622D01*
X56686045Y-77258711D01*
X56689120Y-76081845D01*
X56692195Y-74904978D01*
X57137853Y-74904978D01*
X57235670Y-74905142D01*
X57326064Y-74905611D01*
X57406630Y-74906347D01*
X57474962Y-74907316D01*
X57528656Y-74908480D01*
X57565305Y-74909803D01*
X57582504Y-74911249D01*
X57583511Y-74911702D01*
X58594517Y-74911702D01*
X58579270Y-74892722D01*
X58505090Y-74800537D01*
X58433069Y-74711204D01*
X58364569Y-74626424D01*
X58300955Y-74547898D01*
X58243588Y-74477326D01*
X58193833Y-74416409D01*
X58153052Y-74366847D01*
X58135888Y-74346178D01*
X58049596Y-74245516D01*
X57972997Y-74162259D01*
X57904183Y-74094438D01*
X57841248Y-74040089D01*
X57831867Y-74032722D01*
X57792356Y-74002117D01*
X58924116Y-74001867D01*
X58918827Y-74049844D01*
X58922130Y-74107188D01*
X58943661Y-74175463D01*
X58983635Y-74255212D01*
X59028943Y-74327495D01*
X59045161Y-74350140D01*
X59073214Y-74387696D01*
X59111430Y-74438021D01*
X59158137Y-74498973D01*
X59211661Y-74568411D01*
X59270331Y-74644194D01*
X59332475Y-74724180D01*
X59396421Y-74806228D01*
X59460495Y-74888196D01*
X59523027Y-74967943D01*
X59582343Y-75043327D01*
X59636771Y-75112207D01*
X59684639Y-75172442D01*
X59724275Y-75221889D01*
X59754006Y-75258408D01*
X59772161Y-75279858D01*
X59775220Y-75283156D01*
X59778079Y-75275149D01*
X59780293Y-75244855D01*
X59781857Y-75192556D01*
X59782767Y-75118531D01*
X59783020Y-75023063D01*
X59782613Y-74906434D01*
X59781704Y-74786445D01*
X59780382Y-74654333D01*
X59778857Y-74542594D01*
X59776881Y-74449025D01*
X59774206Y-74371419D01*
X59770582Y-74307574D01*
X59765761Y-74255283D01*
X59759494Y-74212344D01*
X59751532Y-74176551D01*
X59741627Y-74145700D01*
X59729531Y-74117586D01*
X59714993Y-74090005D01*
X59700311Y-74064966D01*
X59662314Y-74001867D01*
X60722197Y-74001867D01*
X61025034Y-74001867D01*
X61025001Y-73995617D01*
X61024195Y-73893544D01*
X61023170Y-73804633D01*
X61021900Y-73727941D01*
X61020360Y-73662527D01*
X61018524Y-73607449D01*
X61016367Y-73561765D01*
X61013863Y-73524534D01*
X61010987Y-73494813D01*
X61007713Y-73471662D01*
X61004015Y-73454139D01*
X60999869Y-73441301D01*
X60995247Y-73432208D01*
X60990126Y-73425918D01*
X60984478Y-73421488D01*
X60978279Y-73417978D01*
X60971504Y-73414445D01*
X60965508Y-73410876D01*
X60960275Y-73408300D01*
X60952099Y-73405972D01*
X60939886Y-73403878D01*
X60922541Y-73402007D01*
X60898969Y-73400347D01*
X60868077Y-73398884D01*
X60828768Y-73397608D01*
X60779950Y-73396504D01*
X60720527Y-73395561D01*
X60649404Y-73394767D01*
X60565488Y-73394109D01*
X60467683Y-73393575D01*
X60354894Y-73393153D01*
X60226029Y-73392829D01*
X60079991Y-73392592D01*
X59915686Y-73392430D01*
X59732020Y-73392330D01*
X59527897Y-73392280D01*
X59316753Y-73392267D01*
X57696400Y-73392267D01*
X57696400Y-73489054D01*
G36*
X54421571Y-73949071D02*
G01*
X54261430Y-73970245D01*
X54097490Y-74010385D01*
X53927687Y-74069889D01*
X53749957Y-74149154D01*
X53738690Y-74154699D01*
X53680995Y-74182725D01*
X53629448Y-74206802D01*
X53587809Y-74225249D01*
X53559838Y-74236386D01*
X53550267Y-74238933D01*
X53531050Y-74243941D01*
X53526439Y-74248147D01*
X53531542Y-74258580D01*
X53547582Y-74284868D01*
X53572712Y-74324257D01*
X53605086Y-74373991D01*
X53642857Y-74431315D01*
X53684178Y-74493476D01*
X53727202Y-74557718D01*
X53770083Y-74621285D01*
X53810974Y-74681425D01*
X53848029Y-74735380D01*
X53879400Y-74780397D01*
X53903241Y-74813721D01*
X53917706Y-74832597D01*
X53919691Y-74834787D01*
X53929809Y-74830138D01*
X53952150Y-74812962D01*
X53982720Y-74786440D01*
X53998464Y-74771964D01*
X54094953Y-74696682D01*
X54201664Y-74641241D01*
X54317168Y-74606141D01*
X54440038Y-74591880D01*
X54509439Y-74593051D01*
X54630577Y-74610212D01*
X54739795Y-74646094D01*
X54837418Y-74700959D01*
X54923772Y-74775070D01*
X54999185Y-74868688D01*
X55063982Y-74982076D01*
X55101399Y-75068667D01*
X55145252Y-75204366D01*
X55177572Y-75351850D01*
X55198443Y-75507314D01*
X55207949Y-75666956D01*
X55206173Y-75826973D01*
X55193197Y-75983561D01*
X55169106Y-76132918D01*
X55133982Y-76271240D01*
X55087908Y-76394724D01*
X55071627Y-76428978D01*
X55003380Y-76543064D01*
X54922921Y-76639557D01*
X54831430Y-76717670D01*
X54730089Y-76776617D01*
X54620080Y-76815612D01*
X54502585Y-76833868D01*
X54461117Y-76835211D01*
X54339559Y-76824290D01*
X54219122Y-76791474D01*
X54101334Y-76737439D01*
X53987723Y-76662865D01*
X53896315Y-76584539D01*
X53849785Y-76540008D01*
X53668517Y-76837271D01*
X53623420Y-76911433D01*
X53582181Y-76979646D01*
X53546265Y-77039459D01*
X53517134Y-77088420D01*
X53496250Y-77124079D01*
X53485076Y-77143984D01*
X53483625Y-77147079D01*
X53491854Y-77156718D01*
X53517433Y-77173999D01*
X53557127Y-77197283D01*
X53607703Y-77224934D01*
X53665926Y-77255315D01*
X53728563Y-77286790D01*
X53792379Y-77317722D01*
X53854140Y-77346473D01*
X53910612Y-77371408D01*
X53958562Y-77390889D01*
X53982014Y-77399318D01*
X54115779Y-77437133D01*
X54253673Y-77462136D01*
X54401378Y-77475140D01*
X54528167Y-77477468D01*
X54596122Y-77476373D01*
X54661723Y-77474275D01*
X54719153Y-77471434D01*
X54762597Y-77468106D01*
X54776702Y-77466422D01*
X54915716Y-77437587D01*
X55057243Y-77392468D01*
X55194725Y-77333750D01*
X55321606Y-77264120D01*
X55399111Y-77211441D01*
X55526519Y-77103239D01*
X55644822Y-76976671D01*
X55751828Y-76834866D01*
X55845348Y-76680951D01*
X55923190Y-76518053D01*
X55967044Y-76400756D01*
X56017292Y-76217128D01*
X56050791Y-76022581D01*
X56067551Y-75821325D01*
X56067584Y-75617568D01*
X56050899Y-75415521D01*
X56017507Y-75219392D01*
X55967420Y-75033391D01*
X55963603Y-75021803D01*
X55900719Y-74859750D01*
X55823972Y-74711832D01*
X55730758Y-74573865D01*
X55618473Y-74441661D01*
X55574608Y-74396399D01*
X55438466Y-74272457D01*
X55298509Y-74169915D01*
X55152589Y-74087656D01*
X54998558Y-74024564D01*
X54834268Y-73979523D01*
X54738711Y-73962033D01*
X54579977Y-73946466D01*
X54421571Y-73949071D01*
G37*
X54421571Y-73949071D02*
X54261430Y-73970245D01*
X54097490Y-74010385D01*
X53927687Y-74069889D01*
X53749957Y-74149154D01*
X53738690Y-74154699D01*
X53680995Y-74182725D01*
X53629448Y-74206802D01*
X53587809Y-74225249D01*
X53559838Y-74236386D01*
X53550267Y-74238933D01*
X53531050Y-74243941D01*
X53526439Y-74248147D01*
X53531542Y-74258580D01*
X53547582Y-74284868D01*
X53572712Y-74324257D01*
X53605086Y-74373991D01*
X53642857Y-74431315D01*
X53684178Y-74493476D01*
X53727202Y-74557718D01*
X53770083Y-74621285D01*
X53810974Y-74681425D01*
X53848029Y-74735380D01*
X53879400Y-74780397D01*
X53903241Y-74813721D01*
X53917706Y-74832597D01*
X53919691Y-74834787D01*
X53929809Y-74830138D01*
X53952150Y-74812962D01*
X53982720Y-74786440D01*
X53998464Y-74771964D01*
X54094953Y-74696682D01*
X54201664Y-74641241D01*
X54317168Y-74606141D01*
X54440038Y-74591880D01*
X54509439Y-74593051D01*
X54630577Y-74610212D01*
X54739795Y-74646094D01*
X54837418Y-74700959D01*
X54923772Y-74775070D01*
X54999185Y-74868688D01*
X55063982Y-74982076D01*
X55101399Y-75068667D01*
X55145252Y-75204366D01*
X55177572Y-75351850D01*
X55198443Y-75507314D01*
X55207949Y-75666956D01*
X55206173Y-75826973D01*
X55193197Y-75983561D01*
X55169106Y-76132918D01*
X55133982Y-76271240D01*
X55087908Y-76394724D01*
X55071627Y-76428978D01*
X55003380Y-76543064D01*
X54922921Y-76639557D01*
X54831430Y-76717670D01*
X54730089Y-76776617D01*
X54620080Y-76815612D01*
X54502585Y-76833868D01*
X54461117Y-76835211D01*
X54339559Y-76824290D01*
X54219122Y-76791474D01*
X54101334Y-76737439D01*
X53987723Y-76662865D01*
X53896315Y-76584539D01*
X53849785Y-76540008D01*
X53668517Y-76837271D01*
X53623420Y-76911433D01*
X53582181Y-76979646D01*
X53546265Y-77039459D01*
X53517134Y-77088420D01*
X53496250Y-77124079D01*
X53485076Y-77143984D01*
X53483625Y-77147079D01*
X53491854Y-77156718D01*
X53517433Y-77173999D01*
X53557127Y-77197283D01*
X53607703Y-77224934D01*
X53665926Y-77255315D01*
X53728563Y-77286790D01*
X53792379Y-77317722D01*
X53854140Y-77346473D01*
X53910612Y-77371408D01*
X53958562Y-77390889D01*
X53982014Y-77399318D01*
X54115779Y-77437133D01*
X54253673Y-77462136D01*
X54401378Y-77475140D01*
X54528167Y-77477468D01*
X54596122Y-77476373D01*
X54661723Y-77474275D01*
X54719153Y-77471434D01*
X54762597Y-77468106D01*
X54776702Y-77466422D01*
X54915716Y-77437587D01*
X55057243Y-77392468D01*
X55194725Y-77333750D01*
X55321606Y-77264120D01*
X55399111Y-77211441D01*
X55526519Y-77103239D01*
X55644822Y-76976671D01*
X55751828Y-76834866D01*
X55845348Y-76680951D01*
X55923190Y-76518053D01*
X55967044Y-76400756D01*
X56017292Y-76217128D01*
X56050791Y-76022581D01*
X56067551Y-75821325D01*
X56067584Y-75617568D01*
X56050899Y-75415521D01*
X56017507Y-75219392D01*
X55967420Y-75033391D01*
X55963603Y-75021803D01*
X55900719Y-74859750D01*
X55823972Y-74711832D01*
X55730758Y-74573865D01*
X55618473Y-74441661D01*
X55574608Y-74396399D01*
X55438466Y-74272457D01*
X55298509Y-74169915D01*
X55152589Y-74087656D01*
X54998558Y-74024564D01*
X54834268Y-73979523D01*
X54738711Y-73962033D01*
X54579977Y-73946466D01*
X54421571Y-73949071D01*
G36*
X52076426Y-74866552D02*
G01*
X51924508Y-74886567D01*
X51789244Y-74920202D01*
X51669761Y-74967725D01*
X51565185Y-75029405D01*
X51487576Y-75092965D01*
X51418735Y-75167099D01*
X51364994Y-75246871D01*
X51322090Y-75339091D01*
X51306616Y-75382161D01*
X51293756Y-75421142D01*
X51282554Y-75457289D01*
X51272880Y-75492434D01*
X51264604Y-75528410D01*
X51257597Y-75567050D01*
X51251728Y-75610185D01*
X51246869Y-75659649D01*
X51242890Y-75717273D01*
X51239660Y-75784891D01*
X51237051Y-75864334D01*
X51234933Y-75957436D01*
X51233176Y-76066027D01*
X51231651Y-76191942D01*
X51230228Y-76337012D01*
X51228975Y-76479778D01*
X51227649Y-76635968D01*
X51226444Y-76771239D01*
X51225234Y-76887246D01*
X51223894Y-76985645D01*
X51222300Y-77068093D01*
X51220325Y-77136246D01*
X51217844Y-77191760D01*
X51214731Y-77236292D01*
X51210862Y-77271498D01*
X51206111Y-77299034D01*
X51200352Y-77320556D01*
X51193461Y-77337722D01*
X51185311Y-77352186D01*
X51175777Y-77365606D01*
X51164734Y-77379638D01*
X51160434Y-77385071D01*
X51144614Y-77407910D01*
X51137578Y-77423463D01*
X51137556Y-77423922D01*
X51148433Y-77426121D01*
X51179418Y-77428147D01*
X51228043Y-77429942D01*
X51291837Y-77431451D01*
X51368331Y-77432616D01*
X51455056Y-77433380D01*
X51549543Y-77433686D01*
X51560450Y-77433689D01*
X51983343Y-77433689D01*
X51986605Y-77337622D01*
X51989867Y-77241556D01*
X52051956Y-77292543D01*
X52149286Y-77360057D01*
X52259187Y-77414749D01*
X52345651Y-77444978D01*
X52414722Y-77459666D01*
X52498075Y-77469659D01*
X52587841Y-77474646D01*
X52676155Y-77474313D01*
X52755149Y-77468351D01*
X52791378Y-77462638D01*
X52931397Y-77424776D01*
X53057822Y-77369932D01*
X53169740Y-77298924D01*
X53266238Y-77212568D01*
X53346400Y-77111679D01*
X53409313Y-76997076D01*
X53453688Y-76870984D01*
X53466022Y-76814401D01*
X53473632Y-76752202D01*
X53477261Y-76677363D01*
X53477755Y-76643467D01*
X53477690Y-76640282D01*
X52717752Y-76640282D01*
X52708459Y-76715333D01*
X52680272Y-76779160D01*
X52631803Y-76834798D01*
X52626746Y-76839211D01*
X52578452Y-76874037D01*
X52526743Y-76896620D01*
X52466011Y-76908540D01*
X52390648Y-76911383D01*
X52372541Y-76910978D01*
X52318722Y-76908325D01*
X52278692Y-76902909D01*
X52243676Y-76892745D01*
X52204897Y-76875850D01*
X52194255Y-76870672D01*
X52133604Y-76834844D01*
X52086785Y-76792212D01*
X52074048Y-76776973D01*
X52029378Y-76720462D01*
X52029378Y-76524586D01*
X52029914Y-76445939D01*
X52031604Y-76387988D01*
X52034572Y-76348875D01*
X52038943Y-76326741D01*
X52043028Y-76320274D01*
X52058953Y-76317111D01*
X52092736Y-76314488D01*
X52139660Y-76312655D01*
X52195007Y-76311857D01*
X52203894Y-76311842D01*
X52324670Y-76317096D01*
X52427340Y-76333263D01*
X52513894Y-76360961D01*
X52586319Y-76400808D01*
X52641249Y-76447758D01*
X52685796Y-76505645D01*
X52710520Y-76568693D01*
X52717752Y-76640282D01*
X53477690Y-76640282D01*
X53475822Y-76549712D01*
X53467478Y-76470812D01*
X53451232Y-76399590D01*
X53425595Y-76328864D01*
X53401599Y-76276493D01*
X53342980Y-76181196D01*
X53264883Y-76093170D01*
X53169685Y-76014017D01*
X53059762Y-75945340D01*
X52937490Y-75888741D01*
X52805245Y-75845821D01*
X52740578Y-75830882D01*
X52604396Y-75808777D01*
X52455951Y-75794194D01*
X52304495Y-75787813D01*
X52177936Y-75789445D01*
X52016050Y-75796224D01*
X52023470Y-75737245D01*
X52042762Y-75638092D01*
X52073896Y-75557372D01*
X52117731Y-75494466D01*
X52175129Y-75448756D01*
X52246952Y-75419622D01*
X52334059Y-75406447D01*
X52437314Y-75408611D01*
X52475289Y-75412612D01*
X52616480Y-75437780D01*
X52753293Y-75478814D01*
X52847822Y-75516815D01*
X52892982Y-75536190D01*
X52931415Y-75551760D01*
X52957766Y-75561405D01*
X52965454Y-75563452D01*
X52975198Y-75554374D01*
X52991917Y-75525405D01*
X53015768Y-75476217D01*
X53046907Y-75406484D01*
X53085493Y-75315879D01*
X53092090Y-75300089D01*
X53122147Y-75227772D01*
X53149126Y-75162425D01*
X53171864Y-75106906D01*
X53189194Y-75064072D01*
X53199952Y-75036781D01*
X53203059Y-75027942D01*
X53193060Y-75023187D01*
X53166783Y-75017910D01*
X53138511Y-75014231D01*
X53108354Y-75009474D01*
X53060567Y-75000028D01*
X52999388Y-74986820D01*
X52929054Y-74970776D01*
X52853806Y-74952820D01*
X52825245Y-74945797D01*
X52720184Y-74920209D01*
X52632520Y-74900147D01*
X52557932Y-74884969D01*
X52492097Y-74874035D01*
X52430693Y-74866704D01*
X52369398Y-74862335D01*
X52303890Y-74860287D01*
X52245872Y-74859889D01*
X52076426Y-74866552D01*
G37*
X52076426Y-74866552D02*
X51924508Y-74886567D01*
X51789244Y-74920202D01*
X51669761Y-74967725D01*
X51565185Y-75029405D01*
X51487576Y-75092965D01*
X51418735Y-75167099D01*
X51364994Y-75246871D01*
X51322090Y-75339091D01*
X51306616Y-75382161D01*
X51293756Y-75421142D01*
X51282554Y-75457289D01*
X51272880Y-75492434D01*
X51264604Y-75528410D01*
X51257597Y-75567050D01*
X51251728Y-75610185D01*
X51246869Y-75659649D01*
X51242890Y-75717273D01*
X51239660Y-75784891D01*
X51237051Y-75864334D01*
X51234933Y-75957436D01*
X51233176Y-76066027D01*
X51231651Y-76191942D01*
X51230228Y-76337012D01*
X51228975Y-76479778D01*
X51227649Y-76635968D01*
X51226444Y-76771239D01*
X51225234Y-76887246D01*
X51223894Y-76985645D01*
X51222300Y-77068093D01*
X51220325Y-77136246D01*
X51217844Y-77191760D01*
X51214731Y-77236292D01*
X51210862Y-77271498D01*
X51206111Y-77299034D01*
X51200352Y-77320556D01*
X51193461Y-77337722D01*
X51185311Y-77352186D01*
X51175777Y-77365606D01*
X51164734Y-77379638D01*
X51160434Y-77385071D01*
X51144614Y-77407910D01*
X51137578Y-77423463D01*
X51137556Y-77423922D01*
X51148433Y-77426121D01*
X51179418Y-77428147D01*
X51228043Y-77429942D01*
X51291837Y-77431451D01*
X51368331Y-77432616D01*
X51455056Y-77433380D01*
X51549543Y-77433686D01*
X51560450Y-77433689D01*
X51983343Y-77433689D01*
X51986605Y-77337622D01*
X51989867Y-77241556D01*
X52051956Y-77292543D01*
X52149286Y-77360057D01*
X52259187Y-77414749D01*
X52345651Y-77444978D01*
X52414722Y-77459666D01*
X52498075Y-77469659D01*
X52587841Y-77474646D01*
X52676155Y-77474313D01*
X52755149Y-77468351D01*
X52791378Y-77462638D01*
X52931397Y-77424776D01*
X53057822Y-77369932D01*
X53169740Y-77298924D01*
X53266238Y-77212568D01*
X53346400Y-77111679D01*
X53409313Y-76997076D01*
X53453688Y-76870984D01*
X53466022Y-76814401D01*
X53473632Y-76752202D01*
X53477261Y-76677363D01*
X53477755Y-76643467D01*
X53477690Y-76640282D01*
X52717752Y-76640282D01*
X52708459Y-76715333D01*
X52680272Y-76779160D01*
X52631803Y-76834798D01*
X52626746Y-76839211D01*
X52578452Y-76874037D01*
X52526743Y-76896620D01*
X52466011Y-76908540D01*
X52390648Y-76911383D01*
X52372541Y-76910978D01*
X52318722Y-76908325D01*
X52278692Y-76902909D01*
X52243676Y-76892745D01*
X52204897Y-76875850D01*
X52194255Y-76870672D01*
X52133604Y-76834844D01*
X52086785Y-76792212D01*
X52074048Y-76776973D01*
X52029378Y-76720462D01*
X52029378Y-76524586D01*
X52029914Y-76445939D01*
X52031604Y-76387988D01*
X52034572Y-76348875D01*
X52038943Y-76326741D01*
X52043028Y-76320274D01*
X52058953Y-76317111D01*
X52092736Y-76314488D01*
X52139660Y-76312655D01*
X52195007Y-76311857D01*
X52203894Y-76311842D01*
X52324670Y-76317096D01*
X52427340Y-76333263D01*
X52513894Y-76360961D01*
X52586319Y-76400808D01*
X52641249Y-76447758D01*
X52685796Y-76505645D01*
X52710520Y-76568693D01*
X52717752Y-76640282D01*
X53477690Y-76640282D01*
X53475822Y-76549712D01*
X53467478Y-76470812D01*
X53451232Y-76399590D01*
X53425595Y-76328864D01*
X53401599Y-76276493D01*
X53342980Y-76181196D01*
X53264883Y-76093170D01*
X53169685Y-76014017D01*
X53059762Y-75945340D01*
X52937490Y-75888741D01*
X52805245Y-75845821D01*
X52740578Y-75830882D01*
X52604396Y-75808777D01*
X52455951Y-75794194D01*
X52304495Y-75787813D01*
X52177936Y-75789445D01*
X52016050Y-75796224D01*
X52023470Y-75737245D01*
X52042762Y-75638092D01*
X52073896Y-75557372D01*
X52117731Y-75494466D01*
X52175129Y-75448756D01*
X52246952Y-75419622D01*
X52334059Y-75406447D01*
X52437314Y-75408611D01*
X52475289Y-75412612D01*
X52616480Y-75437780D01*
X52753293Y-75478814D01*
X52847822Y-75516815D01*
X52892982Y-75536190D01*
X52931415Y-75551760D01*
X52957766Y-75561405D01*
X52965454Y-75563452D01*
X52975198Y-75554374D01*
X52991917Y-75525405D01*
X53015768Y-75476217D01*
X53046907Y-75406484D01*
X53085493Y-75315879D01*
X53092090Y-75300089D01*
X53122147Y-75227772D01*
X53149126Y-75162425D01*
X53171864Y-75106906D01*
X53189194Y-75064072D01*
X53199952Y-75036781D01*
X53203059Y-75027942D01*
X53193060Y-75023187D01*
X53166783Y-75017910D01*
X53138511Y-75014231D01*
X53108354Y-75009474D01*
X53060567Y-75000028D01*
X52999388Y-74986820D01*
X52929054Y-74970776D01*
X52853806Y-74952820D01*
X52825245Y-74945797D01*
X52720184Y-74920209D01*
X52632520Y-74900147D01*
X52557932Y-74884969D01*
X52492097Y-74874035D01*
X52430693Y-74866704D01*
X52369398Y-74862335D01*
X52303890Y-74860287D01*
X52245872Y-74859889D01*
X52076426Y-74866552D01*
G36*
X48563493Y-75472245D02*
G01*
X48563474Y-75706662D01*
X48563448Y-75919603D01*
X48563375Y-76112168D01*
X48563218Y-76285459D01*
X48562936Y-76440576D01*
X48562491Y-76578620D01*
X48561844Y-76700692D01*
X48560955Y-76807894D01*
X48559787Y-76901326D01*
X48558299Y-76982090D01*
X48556454Y-77051286D01*
X48554211Y-77110015D01*
X48551531Y-77159379D01*
X48548377Y-77200478D01*
X48544708Y-77234413D01*
X48540487Y-77262286D01*
X48535673Y-77285198D01*
X48530227Y-77304249D01*
X48524112Y-77320540D01*
X48517288Y-77335173D01*
X48509715Y-77349249D01*
X48501355Y-77363868D01*
X48496161Y-77372974D01*
X48461896Y-77433689D01*
X49320045Y-77433689D01*
X49320045Y-77337733D01*
X49320776Y-77294370D01*
X49322728Y-77261205D01*
X49325537Y-77243424D01*
X49326779Y-77241778D01*
X49338201Y-77248662D01*
X49360916Y-77266505D01*
X49383615Y-77285879D01*
X49438200Y-77326614D01*
X49507679Y-77367617D01*
X49584730Y-77405123D01*
X49662035Y-77435364D01*
X49692887Y-77445012D01*
X49761384Y-77459578D01*
X49844236Y-77469539D01*
X49933629Y-77474583D01*
X50021752Y-77474396D01*
X50100793Y-77468666D01*
X50138489Y-77462858D01*
X50276586Y-77424797D01*
X50403887Y-77367073D01*
X50519708Y-77290211D01*
X50623363Y-77194739D01*
X50714167Y-77081179D01*
X50780969Y-76970381D01*
X50835836Y-76853625D01*
X50877837Y-76734276D01*
X50907833Y-76608283D01*
X50926689Y-76471594D01*
X50935268Y-76320158D01*
X50935994Y-76242711D01*
X50933900Y-76185934D01*
X50104783Y-76185934D01*
X50104576Y-76279002D01*
X50101663Y-76366692D01*
X50096000Y-76443772D01*
X50087545Y-76505009D01*
X50084962Y-76517350D01*
X50053160Y-76624633D01*
X50011502Y-76711658D01*
X49959637Y-76778642D01*
X49897219Y-76825805D01*
X49823900Y-76853365D01*
X49739331Y-76861541D01*
X49643165Y-76850551D01*
X49579689Y-76834829D01*
X49530546Y-76816639D01*
X49476417Y-76790791D01*
X49435756Y-76767089D01*
X49365200Y-76720721D01*
X49365200Y-75570530D01*
X49432608Y-75526962D01*
X49511133Y-75486040D01*
X49595319Y-75459389D01*
X49680443Y-75447465D01*
X49761784Y-75450722D01*
X49834620Y-75469615D01*
X49866574Y-75485184D01*
X49924499Y-75528181D01*
X49973456Y-75584953D01*
X50014610Y-75657575D01*
X50049126Y-75748121D01*
X50078167Y-75858666D01*
X50079448Y-75864533D01*
X50089619Y-75926788D01*
X50097261Y-76004594D01*
X50102330Y-76092720D01*
X50104783Y-76185934D01*
X50933900Y-76185934D01*
X50928143Y-76029895D01*
X50906198Y-75834059D01*
X50870214Y-75655332D01*
X50820241Y-75493845D01*
X50756332Y-75349726D01*
X50678538Y-75223106D01*
X50586911Y-75114115D01*
X50481503Y-75022883D01*
X50436338Y-74991932D01*
X50335389Y-74935785D01*
X50232099Y-74896174D01*
X50122011Y-74872014D01*
X50000670Y-74862219D01*
X49908164Y-74863265D01*
X49778510Y-74874231D01*
X49665916Y-74896046D01*
X49567125Y-74929714D01*
X49478879Y-74976236D01*
X49430014Y-75010448D01*
X49400647Y-75032362D01*
X49378957Y-75047333D01*
X49370747Y-75051733D01*
X49369132Y-75040904D01*
X49367841Y-75010251D01*
X49366862Y-74962526D01*
X49366183Y-74900479D01*
X49365790Y-74826862D01*
X49365670Y-74744427D01*
X49365812Y-74655925D01*
X49366203Y-74564107D01*
X49366829Y-74471724D01*
X49367680Y-74381528D01*
X49368740Y-74296271D01*
X49369999Y-74218703D01*
X49371444Y-74151576D01*
X49373062Y-74097641D01*
X49374839Y-74059650D01*
X49375331Y-74052667D01*
X49382908Y-73982251D01*
X49394469Y-73927102D01*
X49412208Y-73879981D01*
X49438318Y-73833647D01*
X49444585Y-73824067D01*
X49469017Y-73787378D01*
X48563689Y-73787378D01*
X48563493Y-75472245D01*
G37*
X48563493Y-75472245D02*
X48563474Y-75706662D01*
X48563448Y-75919603D01*
X48563375Y-76112168D01*
X48563218Y-76285459D01*
X48562936Y-76440576D01*
X48562491Y-76578620D01*
X48561844Y-76700692D01*
X48560955Y-76807894D01*
X48559787Y-76901326D01*
X48558299Y-76982090D01*
X48556454Y-77051286D01*
X48554211Y-77110015D01*
X48551531Y-77159379D01*
X48548377Y-77200478D01*
X48544708Y-77234413D01*
X48540487Y-77262286D01*
X48535673Y-77285198D01*
X48530227Y-77304249D01*
X48524112Y-77320540D01*
X48517288Y-77335173D01*
X48509715Y-77349249D01*
X48501355Y-77363868D01*
X48496161Y-77372974D01*
X48461896Y-77433689D01*
X49320045Y-77433689D01*
X49320045Y-77337733D01*
X49320776Y-77294370D01*
X49322728Y-77261205D01*
X49325537Y-77243424D01*
X49326779Y-77241778D01*
X49338201Y-77248662D01*
X49360916Y-77266505D01*
X49383615Y-77285879D01*
X49438200Y-77326614D01*
X49507679Y-77367617D01*
X49584730Y-77405123D01*
X49662035Y-77435364D01*
X49692887Y-77445012D01*
X49761384Y-77459578D01*
X49844236Y-77469539D01*
X49933629Y-77474583D01*
X50021752Y-77474396D01*
X50100793Y-77468666D01*
X50138489Y-77462858D01*
X50276586Y-77424797D01*
X50403887Y-77367073D01*
X50519708Y-77290211D01*
X50623363Y-77194739D01*
X50714167Y-77081179D01*
X50780969Y-76970381D01*
X50835836Y-76853625D01*
X50877837Y-76734276D01*
X50907833Y-76608283D01*
X50926689Y-76471594D01*
X50935268Y-76320158D01*
X50935994Y-76242711D01*
X50933900Y-76185934D01*
X50104783Y-76185934D01*
X50104576Y-76279002D01*
X50101663Y-76366692D01*
X50096000Y-76443772D01*
X50087545Y-76505009D01*
X50084962Y-76517350D01*
X50053160Y-76624633D01*
X50011502Y-76711658D01*
X49959637Y-76778642D01*
X49897219Y-76825805D01*
X49823900Y-76853365D01*
X49739331Y-76861541D01*
X49643165Y-76850551D01*
X49579689Y-76834829D01*
X49530546Y-76816639D01*
X49476417Y-76790791D01*
X49435756Y-76767089D01*
X49365200Y-76720721D01*
X49365200Y-75570530D01*
X49432608Y-75526962D01*
X49511133Y-75486040D01*
X49595319Y-75459389D01*
X49680443Y-75447465D01*
X49761784Y-75450722D01*
X49834620Y-75469615D01*
X49866574Y-75485184D01*
X49924499Y-75528181D01*
X49973456Y-75584953D01*
X50014610Y-75657575D01*
X50049126Y-75748121D01*
X50078167Y-75858666D01*
X50079448Y-75864533D01*
X50089619Y-75926788D01*
X50097261Y-76004594D01*
X50102330Y-76092720D01*
X50104783Y-76185934D01*
X50933900Y-76185934D01*
X50928143Y-76029895D01*
X50906198Y-75834059D01*
X50870214Y-75655332D01*
X50820241Y-75493845D01*
X50756332Y-75349726D01*
X50678538Y-75223106D01*
X50586911Y-75114115D01*
X50481503Y-75022883D01*
X50436338Y-74991932D01*
X50335389Y-74935785D01*
X50232099Y-74896174D01*
X50122011Y-74872014D01*
X50000670Y-74862219D01*
X49908164Y-74863265D01*
X49778510Y-74874231D01*
X49665916Y-74896046D01*
X49567125Y-74929714D01*
X49478879Y-74976236D01*
X49430014Y-75010448D01*
X49400647Y-75032362D01*
X49378957Y-75047333D01*
X49370747Y-75051733D01*
X49369132Y-75040904D01*
X49367841Y-75010251D01*
X49366862Y-74962526D01*
X49366183Y-74900479D01*
X49365790Y-74826862D01*
X49365670Y-74744427D01*
X49365812Y-74655925D01*
X49366203Y-74564107D01*
X49366829Y-74471724D01*
X49367680Y-74381528D01*
X49368740Y-74296271D01*
X49369999Y-74218703D01*
X49371444Y-74151576D01*
X49373062Y-74097641D01*
X49374839Y-74059650D01*
X49375331Y-74052667D01*
X49382908Y-73982251D01*
X49394469Y-73927102D01*
X49412208Y-73879981D01*
X49438318Y-73833647D01*
X49444585Y-73824067D01*
X49469017Y-73787378D01*
X48563689Y-73787378D01*
X48563493Y-75472245D01*
G36*
X57023043Y-73026571D02*
G01*
X56926768Y-73050809D01*
X56840184Y-73093641D01*
X56765373Y-73153419D01*
X56704418Y-73228494D01*
X56659399Y-73317220D01*
X56633136Y-73413530D01*
X56627286Y-73510795D01*
X56642140Y-73604654D01*
X56675840Y-73692511D01*
X56726528Y-73771770D01*
X56792345Y-73839836D01*
X56871434Y-73894112D01*
X56961934Y-73932002D01*
X57013200Y-73944426D01*
X57057698Y-73951947D01*
X57091999Y-73954919D01*
X57124960Y-73953094D01*
X57165434Y-73946225D01*
X57198531Y-73939250D01*
X57291947Y-73907741D01*
X57375619Y-73856617D01*
X57447665Y-73787429D01*
X57506200Y-73701728D01*
X57520148Y-73674489D01*
X57536586Y-73638122D01*
X57546894Y-73607582D01*
X57552460Y-73575450D01*
X57554669Y-73534307D01*
X57554948Y-73488222D01*
X57550861Y-73403865D01*
X57537446Y-73334586D01*
X57512256Y-73273961D01*
X57472846Y-73215567D01*
X57434298Y-73171302D01*
X57362406Y-73105484D01*
X57287313Y-73060053D01*
X57204562Y-73032850D01*
X57126928Y-73022576D01*
X57023043Y-73026571D01*
G37*
X57023043Y-73026571D02*
X56926768Y-73050809D01*
X56840184Y-73093641D01*
X56765373Y-73153419D01*
X56704418Y-73228494D01*
X56659399Y-73317220D01*
X56633136Y-73413530D01*
X56627286Y-73510795D01*
X56642140Y-73604654D01*
X56675840Y-73692511D01*
X56726528Y-73771770D01*
X56792345Y-73839836D01*
X56871434Y-73894112D01*
X56961934Y-73932002D01*
X57013200Y-73944426D01*
X57057698Y-73951947D01*
X57091999Y-73954919D01*
X57124960Y-73953094D01*
X57165434Y-73946225D01*
X57198531Y-73939250D01*
X57291947Y-73907741D01*
X57375619Y-73856617D01*
X57447665Y-73787429D01*
X57506200Y-73701728D01*
X57520148Y-73674489D01*
X57536586Y-73638122D01*
X57546894Y-73607582D01*
X57552460Y-73575450D01*
X57554669Y-73534307D01*
X57554948Y-73488222D01*
X57550861Y-73403865D01*
X57537446Y-73334586D01*
X57512256Y-73273961D01*
X57472846Y-73215567D01*
X57434298Y-73171302D01*
X57362406Y-73105484D01*
X57287313Y-73060053D01*
X57204562Y-73032850D01*
X57126928Y-73022576D01*
X57023043Y-73026571D01*
D12*
X68010000Y-73912779D02*
X68010000Y-73587221D01*
X66990000Y-73912779D02*
X66990000Y-73587221D01*
X74990000Y-73587221D02*
X74990000Y-73912779D01*
X76010000Y-73587221D02*
X76010000Y-73912779D01*
X73700000Y-73700000D02*
X73700000Y-73800000D01*
X69300000Y-72200000D02*
X73700000Y-72200000D01*
X73700000Y-75300000D02*
X69300000Y-75300000D01*
X69300000Y-73700000D02*
X69300000Y-73800000D01*
D10*
X68142857Y-76702380D02*
X68476190Y-76226190D01*
X68714285Y-76702380D02*
X68714285Y-75702380D01*
X68333333Y-75702380D01*
X68238095Y-75750000D01*
X68190476Y-75797619D01*
X68142857Y-75892857D01*
X68142857Y-76035714D01*
X68190476Y-76130952D01*
X68238095Y-76178571D01*
X68333333Y-76226190D01*
X68714285Y-76226190D01*
X67190476Y-76702380D02*
X67761904Y-76702380D01*
X67476190Y-76702380D02*
X67476190Y-75702380D01*
X67571428Y-75845238D01*
X67666666Y-75940476D01*
X67761904Y-75988095D01*
X66285714Y-75702380D02*
X66761904Y-75702380D01*
X66809523Y-76178571D01*
X66761904Y-76130952D01*
X66666666Y-76083333D01*
X66428571Y-76083333D01*
X66333333Y-76130952D01*
X66285714Y-76178571D01*
X66238095Y-76273809D01*
X66238095Y-76511904D01*
X66285714Y-76607142D01*
X66333333Y-76654761D01*
X66428571Y-76702380D01*
X66666666Y-76702380D01*
X66761904Y-76654761D01*
X66809523Y-76607142D01*
X76142857Y-76857142D02*
X76190476Y-76904761D01*
X76333333Y-76952380D01*
X76428571Y-76952380D01*
X76571428Y-76904761D01*
X76666666Y-76809523D01*
X76714285Y-76714285D01*
X76761904Y-76523809D01*
X76761904Y-76380952D01*
X76714285Y-76190476D01*
X76666666Y-76095238D01*
X76571428Y-76000000D01*
X76428571Y-75952380D01*
X76333333Y-75952380D01*
X76190476Y-76000000D01*
X76142857Y-76047619D01*
X75190476Y-76952380D02*
X75761904Y-76952380D01*
X75476190Y-76952380D02*
X75476190Y-75952380D01*
X75571428Y-76095238D01*
X75666666Y-76190476D01*
X75761904Y-76238095D01*
X74857142Y-75952380D02*
X74238095Y-75952380D01*
X74571428Y-76333333D01*
X74428571Y-76333333D01*
X74333333Y-76380952D01*
X74285714Y-76428571D01*
X74238095Y-76523809D01*
X74238095Y-76761904D01*
X74285714Y-76857142D01*
X74333333Y-76904761D01*
X74428571Y-76952380D01*
X74714285Y-76952380D01*
X74809523Y-76904761D01*
X74857142Y-76857142D01*
M02*
