G04 #@! TF.GenerationSoftware,KiCad,Pcbnew,8.0.7*
G04 #@! TF.CreationDate,2025-08-07T07:41:48-04:00*
G04 #@! TF.ProjectId,room_environment_monitor,726f6f6d-5f65-46e7-9669-726f6e6d656e,rev?*
G04 #@! TF.SameCoordinates,Original*
G04 #@! TF.FileFunction,Paste,Top*
G04 #@! TF.FilePolarity,Positive*
%FSLAX46Y46*%
G04 Gerber Fmt 4.6, Leading zero omitted, Abs format (unit mm)*
G04 Created by KiCad (PCBNEW 8.0.7) date 2025-08-07 07:41:48*
%MOMM*%
%LPD*%
G01*
G04 APERTURE LIST*
G04 Aperture macros list*
%AMRoundRect*
0 Rectangle with rounded corners*
0 $1 Rounding radius*
0 $2 $3 $4 $5 $6 $7 $8 $9 X,Y pos of 4 corners*
0 Add a 4 corners polygon primitive as box body*
4,1,4,$2,$3,$4,$5,$6,$7,$8,$9,$2,$3,0*
0 Add four circle primitives for the rounded corners*
1,1,$1+$1,$2,$3*
1,1,$1+$1,$4,$5*
1,1,$1+$1,$6,$7*
1,1,$1+$1,$8,$9*
0 Add four rect primitives between the rounded corners*
20,1,$1+$1,$2,$3,$4,$5,0*
20,1,$1+$1,$4,$5,$6,$7,0*
20,1,$1+$1,$6,$7,$8,$9,0*
20,1,$1+$1,$8,$9,$2,$3,0*%
G04 Aperture macros list end*
%ADD10RoundRect,0.200000X0.275000X-0.200000X0.275000X0.200000X-0.275000X0.200000X-0.275000X-0.200000X0*%
%ADD11RoundRect,0.200000X0.200000X0.275000X-0.200000X0.275000X-0.200000X-0.275000X0.200000X-0.275000X0*%
%ADD12RoundRect,0.225000X0.225000X0.250000X-0.225000X0.250000X-0.225000X-0.250000X0.225000X-0.250000X0*%
%ADD13RoundRect,0.200000X0.450000X-0.200000X0.450000X0.200000X-0.450000X0.200000X-0.450000X-0.200000X0*%
%ADD14RoundRect,0.250001X1.249999X-0.799999X1.249999X0.799999X-1.249999X0.799999X-1.249999X-0.799999X0*%
%ADD15R,0.900000X1.500000*%
%ADD16R,0.700000X0.700000*%
%ADD17RoundRect,0.200000X-0.200000X-0.275000X0.200000X-0.275000X0.200000X0.275000X-0.200000X0.275000X0*%
%ADD18RoundRect,0.150000X0.150000X-0.512500X0.150000X0.512500X-0.150000X0.512500X-0.150000X-0.512500X0*%
%ADD19RoundRect,0.250000X-0.300000X0.300000X-0.300000X-0.300000X0.300000X-0.300000X0.300000X0.300000X0*%
%ADD20RoundRect,0.150000X-0.587500X-0.150000X0.587500X-0.150000X0.587500X0.150000X-0.587500X0.150000X0*%
%ADD21RoundRect,0.225000X0.250000X-0.225000X0.250000X0.225000X-0.250000X0.225000X-0.250000X-0.225000X0*%
%ADD22RoundRect,0.225000X-0.225000X-0.250000X0.225000X-0.250000X0.225000X0.250000X-0.225000X0.250000X0*%
%ADD23RoundRect,0.218750X0.256250X-0.218750X0.256250X0.218750X-0.256250X0.218750X-0.256250X-0.218750X0*%
%ADD24RoundRect,0.200000X-0.275000X0.200000X-0.275000X-0.200000X0.275000X-0.200000X0.275000X0.200000X0*%
%ADD25R,0.500000X0.350000*%
%ADD26RoundRect,0.225000X-0.250000X0.225000X-0.250000X-0.225000X0.250000X-0.225000X0.250000X0.225000X0*%
%ADD27RoundRect,0.062500X0.117500X0.062500X-0.117500X0.062500X-0.117500X-0.062500X0.117500X-0.062500X0*%
%ADD28R,3.352800X0.711200*%
%ADD29R,2.387600X1.600200*%
%ADD30R,0.355600X0.762000*%
%ADD31R,1.701800X1.244600*%
%ADD32R,0.711200X2.006600*%
%ADD33R,0.812800X2.006600*%
%ADD34R,0.889000X2.006600*%
G04 APERTURE END LIST*
D10*
X98800000Y-97025000D03*
X98800000Y-95375000D03*
D11*
X122225000Y-96800000D03*
X120575000Y-96800000D03*
D10*
X114750000Y-91725000D03*
X114750000Y-90075000D03*
D12*
X122750000Y-91600000D03*
X121200000Y-91600000D03*
D13*
X114750000Y-77450000D03*
X114750000Y-76200000D03*
D14*
X117500000Y-80000000D03*
X117500000Y-73650000D03*
D11*
X122800000Y-89800000D03*
X121150000Y-89800000D03*
D15*
X95700000Y-93610000D03*
X97200000Y-93610000D03*
X98700000Y-93610000D03*
X100200000Y-93610000D03*
X101700000Y-93610000D03*
X103200000Y-93610000D03*
X104700000Y-93610000D03*
X106200000Y-93610000D03*
X107700000Y-93610000D03*
X107700000Y-76110000D03*
X106200000Y-76110000D03*
X104700000Y-76110000D03*
X103200000Y-76110000D03*
X101700000Y-76110000D03*
X100200000Y-76110000D03*
X98700000Y-76110000D03*
X97200000Y-76110000D03*
X95700000Y-76110000D03*
D16*
X100800000Y-85000000D03*
X101900000Y-85000000D03*
X103000000Y-85000000D03*
X100800000Y-83950000D03*
X101900000Y-83950000D03*
X103000000Y-83950000D03*
X100800000Y-82800000D03*
X101900000Y-82800000D03*
X103000000Y-82800000D03*
D17*
X110175000Y-86400000D03*
X111825000Y-86400000D03*
D18*
X106625000Y-135762500D03*
X107575000Y-135762500D03*
X108525000Y-135762500D03*
X108525000Y-133487500D03*
X106625000Y-133487500D03*
D19*
X112100000Y-74600000D03*
X112100000Y-77400000D03*
D11*
X122800000Y-88000000D03*
X121150000Y-88000000D03*
D20*
X112325000Y-82850000D03*
X112325000Y-84750000D03*
X114200000Y-83800000D03*
D10*
X112500000Y-135950000D03*
X112500000Y-134300000D03*
X108300000Y-73925000D03*
X108300000Y-72275000D03*
D21*
X112900000Y-91675000D03*
X112900000Y-90125000D03*
D11*
X122800000Y-86200000D03*
X121150000Y-86200000D03*
D22*
X106550000Y-131625000D03*
X108100000Y-131625000D03*
D17*
X109275001Y-96324600D03*
X110925001Y-96324600D03*
D10*
X110500000Y-135950000D03*
X110500000Y-134300000D03*
X106200000Y-97050000D03*
X106200000Y-95400000D03*
D23*
X101575000Y-134162500D03*
X101575000Y-132587500D03*
D10*
X110200000Y-84425000D03*
X110200000Y-82775000D03*
D21*
X104825000Y-135900000D03*
X104825000Y-134350000D03*
D24*
X118350000Y-90075000D03*
X118350000Y-91725000D03*
D20*
X120525000Y-93250000D03*
X120525000Y-95150000D03*
X122400000Y-94200000D03*
D25*
X116450000Y-95075000D03*
X116450000Y-94425000D03*
X116450000Y-93775000D03*
X116450000Y-93125000D03*
X118500000Y-93125000D03*
X118500000Y-93775000D03*
X118500000Y-94425000D03*
X118500000Y-95075000D03*
D26*
X95600000Y-95425000D03*
X95600000Y-96975000D03*
D10*
X116550000Y-91725000D03*
X116550000Y-90075000D03*
D11*
X104900000Y-132625000D03*
X103250000Y-132625000D03*
D12*
X118350000Y-96800000D03*
X116800000Y-96800000D03*
D26*
X97200000Y-95425000D03*
X97200000Y-96975000D03*
D27*
X111710000Y-137650000D03*
X112550000Y-137650000D03*
D28*
X125645800Y-89249999D03*
X125645800Y-90749999D03*
X125645800Y-92250001D03*
X125645800Y-93750001D03*
D29*
X127528448Y-87199998D03*
X127528448Y-95800002D03*
D20*
X110375000Y-79150000D03*
X110375000Y-81050000D03*
X112250000Y-80100000D03*
D10*
X106500000Y-73925000D03*
X106500000Y-72275000D03*
D17*
X98675000Y-74100000D03*
X100325000Y-74100000D03*
D30*
X112800000Y-96289200D03*
X113600001Y-96289200D03*
X114400002Y-96289200D03*
X114400002Y-93800000D03*
X113600001Y-93800000D03*
X112800000Y-93800000D03*
D31*
X113600001Y-95044600D03*
D32*
X110499999Y-142100000D03*
D33*
X108480000Y-142100000D03*
D34*
X107250000Y-142100000D03*
D32*
X109500001Y-142100000D03*
D33*
X111520000Y-142100000D03*
D34*
X112750000Y-142100000D03*
D21*
X110900001Y-94619600D03*
X110900001Y-93069600D03*
M02*
