G04 #@! TF.GenerationSoftware,KiCad,Pcbnew,8.0.7*
G04 #@! TF.CreationDate,2025-08-07T07:41:48-04:00*
G04 #@! TF.ProjectId,room_environment_monitor,726f6f6d-5f65-46e7-9669-726f6e6d656e,rev?*
G04 #@! TF.SameCoordinates,Original*
G04 #@! TF.FileFunction,Copper,L2,Inr*
G04 #@! TF.FilePolarity,Positive*
%FSLAX46Y46*%
G04 Gerber Fmt 4.6, Leading zero omitted, Abs format (unit mm)*
G04 Created by KiCad (PCBNEW 8.0.7) date 2025-08-07 07:41:48*
%MOMM*%
%LPD*%
G01*
G04 APERTURE LIST*
G04 #@! TA.AperFunction,ComponentPad*
%ADD10O,1.066800X1.701800*%
G04 #@! TD*
G04 #@! TA.AperFunction,ViaPad*
%ADD11C,0.800000*%
G04 #@! TD*
G04 #@! TA.AperFunction,Conductor*
%ADD12C,0.250000*%
G04 #@! TD*
G04 #@! TA.AperFunction,Conductor*
%ADD13C,0.200000*%
G04 #@! TD*
G04 APERTURE END LIST*
D10*
X114269999Y-142900001D03*
X105730001Y-142900001D03*
D11*
X99369469Y-73551109D03*
X98170702Y-77454739D03*
X96595787Y-77282838D03*
X97200000Y-92300000D03*
X102500000Y-84500000D03*
X103575000Y-134375000D03*
X109110000Y-86160000D03*
X108099998Y-94770000D03*
X109325000Y-131625000D03*
X110400000Y-80300000D03*
X102500000Y-83400000D03*
X110575000Y-133125000D03*
X125600000Y-94600000D03*
X106000000Y-137750000D03*
X101400000Y-84500000D03*
X112900000Y-89100000D03*
X106000000Y-139500000D03*
X119400000Y-94400000D03*
X113600001Y-95044600D03*
X114250000Y-137750000D03*
X110900000Y-92000000D03*
X108618823Y-97256944D03*
X113000000Y-138500000D03*
X116800000Y-95770000D03*
X109450000Y-109710000D03*
X101400000Y-83400000D03*
X100685000Y-86400000D03*
X113580000Y-134370000D03*
X120140000Y-91600000D03*
X114250000Y-139500000D03*
X107000000Y-138500000D03*
X113600000Y-97100000D03*
X96390865Y-96277647D03*
X107300000Y-95400000D03*
X120530000Y-94140000D03*
X95700000Y-92300000D03*
X118350000Y-89100000D03*
X105075000Y-130125000D03*
X113600000Y-82800000D03*
X113600000Y-93000000D03*
X116500000Y-89100000D03*
X105200000Y-97000000D03*
X110500000Y-74900000D03*
X118500000Y-95800000D03*
X108250000Y-96320000D03*
X123100000Y-96600000D03*
X105075000Y-131125000D03*
X114700000Y-89100000D03*
X106325000Y-130125000D03*
X108794052Y-84398863D03*
X99850000Y-97050000D03*
X123530000Y-92190000D03*
X109500000Y-139500000D03*
X111500000Y-138550000D03*
X127930000Y-92250000D03*
X109440000Y-87220000D03*
X113875000Y-75325000D03*
X109500000Y-137750000D03*
X111500000Y-140000000D03*
X108300000Y-71400000D03*
X104700000Y-92300000D03*
X108100000Y-82600000D03*
X106500000Y-71400000D03*
X109500000Y-140575000D03*
X111500000Y-136525000D03*
X109102500Y-77877500D03*
X102000000Y-95200000D03*
X115005000Y-96195000D03*
X100932000Y-77368800D03*
X109900000Y-76000000D03*
X112757500Y-85867500D03*
D12*
X104700000Y-86000000D02*
X108100000Y-82600000D01*
X104700000Y-86000000D02*
X104700000Y-92300000D01*
D13*
X100932000Y-77368800D02*
X108531200Y-77368800D01*
X108531200Y-77368800D02*
X109900000Y-76000000D01*
G04 #@! TA.AperFunction,Conductor*
G36*
X119943039Y-70019685D02*
G01*
X119988794Y-70072489D01*
X120000000Y-70124000D01*
X120000000Y-85250000D01*
X129876000Y-85250000D01*
X129943039Y-85269685D01*
X129988794Y-85322489D01*
X130000000Y-85374000D01*
X130000000Y-97626000D01*
X129980315Y-97693039D01*
X129927511Y-97738794D01*
X129876000Y-97750000D01*
X120000000Y-97750000D01*
X120000000Y-141376000D01*
X119980315Y-141443039D01*
X119927511Y-141488794D01*
X119876000Y-141500000D01*
X116700000Y-141500000D01*
X116700000Y-144376000D01*
X116680315Y-144443039D01*
X116627511Y-144488794D01*
X116576000Y-144500000D01*
X103424000Y-144500000D01*
X103356961Y-144480315D01*
X103311206Y-144427511D01*
X103300000Y-144376000D01*
X103300000Y-142505289D01*
X104946101Y-142505289D01*
X104946101Y-143294712D01*
X104976224Y-143446148D01*
X104976227Y-143446160D01*
X105035314Y-143588810D01*
X105035321Y-143588823D01*
X105121105Y-143717207D01*
X105121108Y-143717211D01*
X105230290Y-143826393D01*
X105230294Y-143826396D01*
X105358678Y-143912180D01*
X105358691Y-143912187D01*
X105501341Y-143971274D01*
X105501346Y-143971276D01*
X105652789Y-144001400D01*
X105652792Y-144001401D01*
X105652794Y-144001401D01*
X105807210Y-144001401D01*
X105807211Y-144001400D01*
X105958656Y-143971276D01*
X106101317Y-143912184D01*
X106229708Y-143826396D01*
X106338896Y-143717208D01*
X106424684Y-143588817D01*
X106483776Y-143446156D01*
X106513901Y-143294708D01*
X106513901Y-142505294D01*
X106513901Y-142505291D01*
X106513900Y-142505289D01*
X113486099Y-142505289D01*
X113486099Y-143294712D01*
X113516222Y-143446148D01*
X113516225Y-143446160D01*
X113575312Y-143588810D01*
X113575319Y-143588823D01*
X113661103Y-143717207D01*
X113661106Y-143717211D01*
X113770288Y-143826393D01*
X113770292Y-143826396D01*
X113898676Y-143912180D01*
X113898689Y-143912187D01*
X114041339Y-143971274D01*
X114041344Y-143971276D01*
X114192787Y-144001400D01*
X114192790Y-144001401D01*
X114192792Y-144001401D01*
X114347208Y-144001401D01*
X114347209Y-144001400D01*
X114498654Y-143971276D01*
X114641315Y-143912184D01*
X114769706Y-143826396D01*
X114878894Y-143717208D01*
X114964682Y-143588817D01*
X115023774Y-143446156D01*
X115053899Y-143294708D01*
X115053899Y-142505294D01*
X115053899Y-142505291D01*
X115053898Y-142505289D01*
X115023775Y-142353853D01*
X115023774Y-142353846D01*
X115023772Y-142353841D01*
X114964685Y-142211191D01*
X114964678Y-142211178D01*
X114878894Y-142082794D01*
X114878891Y-142082790D01*
X114769709Y-141973608D01*
X114769705Y-141973605D01*
X114641321Y-141887821D01*
X114641308Y-141887814D01*
X114498658Y-141828727D01*
X114498646Y-141828724D01*
X114347209Y-141798601D01*
X114347206Y-141798601D01*
X114192792Y-141798601D01*
X114192789Y-141798601D01*
X114041351Y-141828724D01*
X114041339Y-141828727D01*
X113898689Y-141887814D01*
X113898676Y-141887821D01*
X113770292Y-141973605D01*
X113770288Y-141973608D01*
X113661106Y-142082790D01*
X113661103Y-142082794D01*
X113575319Y-142211178D01*
X113575312Y-142211191D01*
X113516225Y-142353841D01*
X113516222Y-142353853D01*
X113486099Y-142505289D01*
X106513900Y-142505289D01*
X106483777Y-142353853D01*
X106483776Y-142353846D01*
X106483774Y-142353841D01*
X106424687Y-142211191D01*
X106424680Y-142211178D01*
X106338896Y-142082794D01*
X106338893Y-142082790D01*
X106229711Y-141973608D01*
X106229707Y-141973605D01*
X106101323Y-141887821D01*
X106101310Y-141887814D01*
X105958660Y-141828727D01*
X105958648Y-141828724D01*
X105807211Y-141798601D01*
X105807208Y-141798601D01*
X105652794Y-141798601D01*
X105652791Y-141798601D01*
X105501353Y-141828724D01*
X105501341Y-141828727D01*
X105358691Y-141887814D01*
X105358678Y-141887821D01*
X105230294Y-141973605D01*
X105230290Y-141973608D01*
X105121108Y-142082790D01*
X105121105Y-142082794D01*
X105035321Y-142211178D01*
X105035314Y-142211191D01*
X104976227Y-142353841D01*
X104976224Y-142353853D01*
X104946101Y-142505289D01*
X103300000Y-142505289D01*
X103300000Y-141500000D01*
X100124000Y-141500000D01*
X100056961Y-141480315D01*
X100011206Y-141427511D01*
X100000000Y-141376000D01*
X100000000Y-138593713D01*
X101149500Y-138593713D01*
X101149500Y-138806286D01*
X101169811Y-138934528D01*
X101182754Y-139016243D01*
X101243219Y-139202335D01*
X101248444Y-139218414D01*
X101344951Y-139407820D01*
X101469890Y-139579786D01*
X101620213Y-139730109D01*
X101792179Y-139855048D01*
X101792181Y-139855049D01*
X101792184Y-139855051D01*
X101981588Y-139951557D01*
X102183757Y-140017246D01*
X102393713Y-140050500D01*
X102393714Y-140050500D01*
X102606286Y-140050500D01*
X102606287Y-140050500D01*
X102816243Y-140017246D01*
X103018412Y-139951557D01*
X103207816Y-139855051D01*
X103277361Y-139804524D01*
X103379786Y-139730109D01*
X103379788Y-139730106D01*
X103379792Y-139730104D01*
X103530104Y-139579792D01*
X103530106Y-139579788D01*
X103530109Y-139579786D01*
X103655048Y-139407820D01*
X103655047Y-139407820D01*
X103655051Y-139407816D01*
X103751557Y-139218412D01*
X103817246Y-139016243D01*
X103850500Y-138806287D01*
X103850500Y-138593713D01*
X103817246Y-138383757D01*
X103751557Y-138181588D01*
X103655051Y-137992184D01*
X103655049Y-137992181D01*
X103655048Y-137992179D01*
X103530109Y-137820213D01*
X103459895Y-137749999D01*
X105344722Y-137749999D01*
X105344722Y-137750000D01*
X105363762Y-137906818D01*
X105419780Y-138054523D01*
X105509517Y-138184530D01*
X105627760Y-138289283D01*
X105627762Y-138289284D01*
X105767634Y-138362696D01*
X105921014Y-138400500D01*
X105921015Y-138400500D01*
X106078985Y-138400500D01*
X106191049Y-138372879D01*
X106260849Y-138375948D01*
X106317911Y-138416268D01*
X106344117Y-138481037D01*
X106344722Y-138493276D01*
X106344722Y-138500000D01*
X106363763Y-138656818D01*
X106390233Y-138726615D01*
X106395600Y-138796278D01*
X106362452Y-138857785D01*
X106301314Y-138891606D01*
X106240028Y-138887560D01*
X106239649Y-138889099D01*
X106078986Y-138849500D01*
X106078985Y-138849500D01*
X105921015Y-138849500D01*
X105921014Y-138849500D01*
X105767634Y-138887303D01*
X105627762Y-138960715D01*
X105509516Y-139065471D01*
X105419781Y-139195475D01*
X105419780Y-139195476D01*
X105363762Y-139343181D01*
X105344722Y-139499999D01*
X105344722Y-139500000D01*
X105363762Y-139656818D01*
X105419780Y-139804523D01*
X105509517Y-139934530D01*
X105627760Y-140039283D01*
X105627762Y-140039284D01*
X105767634Y-140112696D01*
X105921014Y-140150500D01*
X105921015Y-140150500D01*
X106078985Y-140150500D01*
X106232365Y-140112696D01*
X106372240Y-140039283D01*
X106490483Y-139934530D01*
X106580220Y-139804523D01*
X106636237Y-139656818D01*
X106655278Y-139500000D01*
X106655278Y-139499999D01*
X108844722Y-139499999D01*
X108844722Y-139500000D01*
X108863762Y-139656818D01*
X108919780Y-139804523D01*
X108946465Y-139843182D01*
X109009518Y-139934531D01*
X109020979Y-139944685D01*
X109058106Y-140003874D01*
X109057338Y-140073740D01*
X109020979Y-140130315D01*
X109009518Y-140140468D01*
X108919781Y-140270475D01*
X108919780Y-140270476D01*
X108863762Y-140418181D01*
X108844722Y-140574999D01*
X108844722Y-140575000D01*
X108863762Y-140731818D01*
X108919780Y-140879523D01*
X109009517Y-141009530D01*
X109127760Y-141114283D01*
X109127762Y-141114284D01*
X109267634Y-141187696D01*
X109421014Y-141225500D01*
X109421015Y-141225500D01*
X109578985Y-141225500D01*
X109732365Y-141187696D01*
X109872240Y-141114283D01*
X109990483Y-141009530D01*
X110080220Y-140879523D01*
X110136237Y-140731818D01*
X110155278Y-140575000D01*
X110136237Y-140418182D01*
X110080220Y-140270477D01*
X109990483Y-140140470D01*
X109979022Y-140130316D01*
X109941894Y-140071129D01*
X109942660Y-140001264D01*
X109979022Y-139944683D01*
X109990483Y-139934530D01*
X110080220Y-139804523D01*
X110136237Y-139656818D01*
X110155278Y-139500000D01*
X110144086Y-139407820D01*
X110136237Y-139343181D01*
X110112961Y-139281808D01*
X110080220Y-139195477D01*
X109990483Y-139065470D01*
X109872240Y-138960717D01*
X109872238Y-138960716D01*
X109872237Y-138960715D01*
X109732365Y-138887303D01*
X109578986Y-138849500D01*
X109578985Y-138849500D01*
X109421015Y-138849500D01*
X109421014Y-138849500D01*
X109267634Y-138887303D01*
X109127762Y-138960715D01*
X109009516Y-139065471D01*
X108919781Y-139195475D01*
X108919780Y-139195476D01*
X108863762Y-139343181D01*
X108844722Y-139499999D01*
X106655278Y-139499999D01*
X106636237Y-139343182D01*
X106609765Y-139273383D01*
X106604399Y-139203721D01*
X106637546Y-139142215D01*
X106698684Y-139108394D01*
X106759972Y-139112438D01*
X106760351Y-139110901D01*
X106921014Y-139150500D01*
X106921015Y-139150500D01*
X107078985Y-139150500D01*
X107232365Y-139112696D01*
X107276974Y-139089283D01*
X107372240Y-139039283D01*
X107490483Y-138934530D01*
X107580220Y-138804523D01*
X107636237Y-138656818D01*
X107649207Y-138549999D01*
X110844722Y-138549999D01*
X110844722Y-138550000D01*
X110863762Y-138706818D01*
X110917875Y-138849500D01*
X110919780Y-138854523D01*
X111009517Y-138984530D01*
X111100880Y-139065470D01*
X111127762Y-139089285D01*
X111272412Y-139165204D01*
X111322625Y-139213789D01*
X111338599Y-139281808D01*
X111315263Y-139347665D01*
X111272412Y-139384796D01*
X111127762Y-139460714D01*
X111009516Y-139565471D01*
X110919781Y-139695475D01*
X110919780Y-139695476D01*
X110863762Y-139843181D01*
X110844722Y-139999999D01*
X110844722Y-140000000D01*
X110863762Y-140156818D01*
X110906868Y-140270477D01*
X110919780Y-140304523D01*
X111009517Y-140434530D01*
X111127760Y-140539283D01*
X111127762Y-140539284D01*
X111267634Y-140612696D01*
X111421014Y-140650500D01*
X111421015Y-140650500D01*
X111578985Y-140650500D01*
X111732365Y-140612696D01*
X111872240Y-140539283D01*
X111990483Y-140434530D01*
X112080220Y-140304523D01*
X112136237Y-140156818D01*
X112155278Y-140000000D01*
X112136237Y-139843182D01*
X112080220Y-139695477D01*
X111990483Y-139565470D01*
X111916581Y-139499999D01*
X113594722Y-139499999D01*
X113594722Y-139500000D01*
X113613762Y-139656818D01*
X113669780Y-139804523D01*
X113759517Y-139934530D01*
X113877760Y-140039283D01*
X113877762Y-140039284D01*
X114017634Y-140112696D01*
X114171014Y-140150500D01*
X114171015Y-140150500D01*
X114328985Y-140150500D01*
X114482365Y-140112696D01*
X114622240Y-140039283D01*
X114740483Y-139934530D01*
X114830220Y-139804523D01*
X114886237Y-139656818D01*
X114905278Y-139500000D01*
X114894086Y-139407820D01*
X114886237Y-139343181D01*
X114862961Y-139281808D01*
X114830220Y-139195477D01*
X114740483Y-139065470D01*
X114622240Y-138960717D01*
X114622238Y-138960716D01*
X114622237Y-138960715D01*
X114482365Y-138887303D01*
X114328986Y-138849500D01*
X114328985Y-138849500D01*
X114171015Y-138849500D01*
X114171014Y-138849500D01*
X114017634Y-138887303D01*
X113877762Y-138960715D01*
X113759516Y-139065471D01*
X113669781Y-139195475D01*
X113669780Y-139195476D01*
X113613762Y-139343181D01*
X113594722Y-139499999D01*
X111916581Y-139499999D01*
X111872240Y-139460717D01*
X111872238Y-139460716D01*
X111872237Y-139460715D01*
X111727587Y-139384796D01*
X111677374Y-139336212D01*
X111661400Y-139268192D01*
X111684735Y-139202335D01*
X111727587Y-139165204D01*
X111775000Y-139140319D01*
X111872240Y-139089283D01*
X111990483Y-138984530D01*
X112080220Y-138854523D01*
X112136237Y-138706818D01*
X112138032Y-138699536D01*
X112141250Y-138700329D01*
X112162903Y-138649856D01*
X112220792Y-138610732D01*
X112290643Y-138609115D01*
X112350279Y-138645520D01*
X112374412Y-138684898D01*
X112382725Y-138706818D01*
X112419780Y-138804523D01*
X112509517Y-138934530D01*
X112627760Y-139039283D01*
X112627762Y-139039284D01*
X112767634Y-139112696D01*
X112921014Y-139150500D01*
X112921015Y-139150500D01*
X113078985Y-139150500D01*
X113232365Y-139112696D01*
X113276974Y-139089283D01*
X113372240Y-139039283D01*
X113490483Y-138934530D01*
X113580220Y-138804523D01*
X113636237Y-138656818D01*
X113643899Y-138593713D01*
X116149500Y-138593713D01*
X116149500Y-138806286D01*
X116169811Y-138934528D01*
X116182754Y-139016243D01*
X116243219Y-139202335D01*
X116248444Y-139218414D01*
X116344951Y-139407820D01*
X116469890Y-139579786D01*
X116620213Y-139730109D01*
X116792179Y-139855048D01*
X116792181Y-139855049D01*
X116792184Y-139855051D01*
X116981588Y-139951557D01*
X117183757Y-140017246D01*
X117393713Y-140050500D01*
X117393714Y-140050500D01*
X117606286Y-140050500D01*
X117606287Y-140050500D01*
X117816243Y-140017246D01*
X118018412Y-139951557D01*
X118207816Y-139855051D01*
X118277361Y-139804524D01*
X118379786Y-139730109D01*
X118379788Y-139730106D01*
X118379792Y-139730104D01*
X118530104Y-139579792D01*
X118530106Y-139579788D01*
X118530109Y-139579786D01*
X118655048Y-139407820D01*
X118655047Y-139407820D01*
X118655051Y-139407816D01*
X118751557Y-139218412D01*
X118817246Y-139016243D01*
X118850500Y-138806287D01*
X118850500Y-138593713D01*
X118817246Y-138383757D01*
X118751557Y-138181588D01*
X118655051Y-137992184D01*
X118655049Y-137992181D01*
X118655048Y-137992179D01*
X118530109Y-137820213D01*
X118379786Y-137669890D01*
X118207820Y-137544951D01*
X118018414Y-137448444D01*
X118018413Y-137448443D01*
X118018412Y-137448443D01*
X117816243Y-137382754D01*
X117816241Y-137382753D01*
X117816240Y-137382753D01*
X117654957Y-137357208D01*
X117606287Y-137349500D01*
X117393713Y-137349500D01*
X117345042Y-137357208D01*
X117183760Y-137382753D01*
X117183757Y-137382754D01*
X116990720Y-137445476D01*
X116981585Y-137448444D01*
X116792179Y-137544951D01*
X116620213Y-137669890D01*
X116469890Y-137820213D01*
X116344951Y-137992179D01*
X116248444Y-138181585D01*
X116248443Y-138181587D01*
X116248443Y-138181588D01*
X116243930Y-138195477D01*
X116182753Y-138383760D01*
X116149500Y-138593713D01*
X113643899Y-138593713D01*
X113655278Y-138500000D01*
X113652975Y-138481037D01*
X113639202Y-138367601D01*
X113650662Y-138298678D01*
X113697566Y-138246892D01*
X113765022Y-138228685D01*
X113831613Y-138249837D01*
X113844518Y-138259834D01*
X113869452Y-138281923D01*
X113877762Y-138289285D01*
X114017634Y-138362696D01*
X114171014Y-138400500D01*
X114171015Y-138400500D01*
X114328985Y-138400500D01*
X114482365Y-138362696D01*
X114519547Y-138343181D01*
X114622240Y-138289283D01*
X114740483Y-138184530D01*
X114830220Y-138054523D01*
X114886237Y-137906818D01*
X114905278Y-137750000D01*
X114886237Y-137593182D01*
X114830220Y-137445477D01*
X114740483Y-137315470D01*
X114622240Y-137210717D01*
X114622238Y-137210716D01*
X114622237Y-137210715D01*
X114482365Y-137137303D01*
X114328986Y-137099500D01*
X114328985Y-137099500D01*
X114171015Y-137099500D01*
X114171014Y-137099500D01*
X114017634Y-137137303D01*
X113877762Y-137210715D01*
X113759516Y-137315471D01*
X113669781Y-137445475D01*
X113669780Y-137445476D01*
X113613762Y-137593181D01*
X113594722Y-137749999D01*
X113594722Y-137750000D01*
X113610797Y-137882398D01*
X113599336Y-137951322D01*
X113552432Y-138003107D01*
X113484976Y-138021314D01*
X113418385Y-138000161D01*
X113405479Y-137990163D01*
X113372240Y-137960717D01*
X113372237Y-137960714D01*
X113232365Y-137887303D01*
X113078986Y-137849500D01*
X113078985Y-137849500D01*
X112921015Y-137849500D01*
X112921014Y-137849500D01*
X112767634Y-137887303D01*
X112627762Y-137960715D01*
X112509516Y-138065471D01*
X112419781Y-138195475D01*
X112419780Y-138195476D01*
X112363762Y-138343181D01*
X112361968Y-138350464D01*
X112358813Y-138349686D01*
X112336839Y-138400453D01*
X112278824Y-138439389D01*
X112208968Y-138440778D01*
X112149450Y-138404181D01*
X112125587Y-138365101D01*
X112119741Y-138349686D01*
X112080220Y-138245477D01*
X111990483Y-138115470D01*
X111872240Y-138010717D01*
X111872238Y-138010716D01*
X111872237Y-138010715D01*
X111732365Y-137937303D01*
X111578986Y-137899500D01*
X111578985Y-137899500D01*
X111421015Y-137899500D01*
X111421014Y-137899500D01*
X111267634Y-137937303D01*
X111127762Y-138010715D01*
X111009516Y-138115471D01*
X110919781Y-138245475D01*
X110919780Y-138245476D01*
X110863762Y-138393181D01*
X110844722Y-138549999D01*
X107649207Y-138549999D01*
X107655278Y-138500000D01*
X107652976Y-138481037D01*
X107636237Y-138343181D01*
X107599182Y-138245476D01*
X107580220Y-138195477D01*
X107490483Y-138065470D01*
X107372240Y-137960717D01*
X107372238Y-137960716D01*
X107372237Y-137960715D01*
X107232365Y-137887303D01*
X107078986Y-137849500D01*
X107078985Y-137849500D01*
X106921015Y-137849500D01*
X106921014Y-137849500D01*
X106808952Y-137877120D01*
X106739150Y-137874051D01*
X106682088Y-137833730D01*
X106655883Y-137768961D01*
X106655278Y-137756723D01*
X106655278Y-137749999D01*
X108844722Y-137749999D01*
X108844722Y-137750000D01*
X108863762Y-137906818D01*
X108919780Y-138054523D01*
X109009517Y-138184530D01*
X109127760Y-138289283D01*
X109127762Y-138289284D01*
X109267634Y-138362696D01*
X109421014Y-138400500D01*
X109421015Y-138400500D01*
X109578985Y-138400500D01*
X109732365Y-138362696D01*
X109769547Y-138343181D01*
X109872240Y-138289283D01*
X109990483Y-138184530D01*
X110080220Y-138054523D01*
X110136237Y-137906818D01*
X110155278Y-137750000D01*
X110136237Y-137593182D01*
X110080220Y-137445477D01*
X109990483Y-137315470D01*
X109872240Y-137210717D01*
X109872238Y-137210716D01*
X109872237Y-137210715D01*
X109732365Y-137137303D01*
X109578986Y-137099500D01*
X109578985Y-137099500D01*
X109421015Y-137099500D01*
X109421014Y-137099500D01*
X109267634Y-137137303D01*
X109127762Y-137210715D01*
X109009516Y-137315471D01*
X108919781Y-137445475D01*
X108919780Y-137445476D01*
X108863762Y-137593181D01*
X108844722Y-137749999D01*
X106655278Y-137749999D01*
X106636237Y-137593181D01*
X106581345Y-137448444D01*
X106580220Y-137445477D01*
X106490483Y-137315470D01*
X106372240Y-137210717D01*
X106372238Y-137210716D01*
X106372237Y-137210715D01*
X106232365Y-137137303D01*
X106078986Y-137099500D01*
X106078985Y-137099500D01*
X105921015Y-137099500D01*
X105921014Y-137099500D01*
X105767634Y-137137303D01*
X105627762Y-137210715D01*
X105509516Y-137315471D01*
X105419781Y-137445475D01*
X105419780Y-137445476D01*
X105363762Y-137593181D01*
X105344722Y-137749999D01*
X103459895Y-137749999D01*
X103379786Y-137669890D01*
X103207820Y-137544951D01*
X103018414Y-137448444D01*
X103018413Y-137448443D01*
X103018412Y-137448443D01*
X102816243Y-137382754D01*
X102816241Y-137382753D01*
X102816240Y-137382753D01*
X102654957Y-137357208D01*
X102606287Y-137349500D01*
X102393713Y-137349500D01*
X102345042Y-137357208D01*
X102183760Y-137382753D01*
X102183757Y-137382754D01*
X101990720Y-137445476D01*
X101981585Y-137448444D01*
X101792179Y-137544951D01*
X101620213Y-137669890D01*
X101469890Y-137820213D01*
X101344951Y-137992179D01*
X101248444Y-138181585D01*
X101248443Y-138181587D01*
X101248443Y-138181588D01*
X101243930Y-138195477D01*
X101182753Y-138383760D01*
X101149500Y-138593713D01*
X100000000Y-138593713D01*
X100000000Y-136524999D01*
X110844722Y-136524999D01*
X110844722Y-136525000D01*
X110863762Y-136681818D01*
X110919780Y-136829523D01*
X111009517Y-136959530D01*
X111127760Y-137064283D01*
X111127762Y-137064284D01*
X111267634Y-137137696D01*
X111421014Y-137175500D01*
X111421015Y-137175500D01*
X111578985Y-137175500D01*
X111732365Y-137137696D01*
X111805140Y-137099500D01*
X111872240Y-137064283D01*
X111990483Y-136959530D01*
X112080220Y-136829523D01*
X112136237Y-136681818D01*
X112155278Y-136525000D01*
X112136237Y-136368182D01*
X112080220Y-136220477D01*
X111990483Y-136090470D01*
X111872240Y-135985717D01*
X111872238Y-135985716D01*
X111872237Y-135985715D01*
X111732365Y-135912303D01*
X111578986Y-135874500D01*
X111578985Y-135874500D01*
X111421015Y-135874500D01*
X111421014Y-135874500D01*
X111267634Y-135912303D01*
X111127762Y-135985715D01*
X111009516Y-136090471D01*
X110919781Y-136220475D01*
X110919780Y-136220476D01*
X110863762Y-136368181D01*
X110844722Y-136524999D01*
X100000000Y-136524999D01*
X100000000Y-134374999D01*
X102919722Y-134374999D01*
X102919722Y-134375000D01*
X102938762Y-134531818D01*
X102992884Y-134674523D01*
X102994780Y-134679523D01*
X103084517Y-134809530D01*
X103202760Y-134914283D01*
X103202762Y-134914284D01*
X103342634Y-134987696D01*
X103496014Y-135025500D01*
X103496015Y-135025500D01*
X103653985Y-135025500D01*
X103807365Y-134987696D01*
X103816892Y-134982696D01*
X103947240Y-134914283D01*
X104065483Y-134809530D01*
X104155220Y-134679523D01*
X104211237Y-134531818D01*
X104230278Y-134375000D01*
X104229671Y-134369999D01*
X112924722Y-134369999D01*
X112924722Y-134370000D01*
X112943762Y-134526818D01*
X112999780Y-134674523D01*
X113089517Y-134804530D01*
X113207760Y-134909283D01*
X113219860Y-134915633D01*
X113347634Y-134982696D01*
X113501014Y-135020500D01*
X113501015Y-135020500D01*
X113658985Y-135020500D01*
X113812365Y-134982696D01*
X113952240Y-134909283D01*
X114070483Y-134804530D01*
X114160220Y-134674523D01*
X114216237Y-134526818D01*
X114235278Y-134370000D01*
X114216237Y-134213182D01*
X114160220Y-134065477D01*
X114070483Y-133935470D01*
X113952240Y-133830717D01*
X113952238Y-133830716D01*
X113952237Y-133830715D01*
X113812365Y-133757303D01*
X113658986Y-133719500D01*
X113658985Y-133719500D01*
X113501015Y-133719500D01*
X113501014Y-133719500D01*
X113347634Y-133757303D01*
X113207762Y-133830715D01*
X113089516Y-133935471D01*
X112999781Y-134065475D01*
X112999780Y-134065476D01*
X112943762Y-134213181D01*
X112924722Y-134369999D01*
X104229671Y-134369999D01*
X104211237Y-134218182D01*
X104209340Y-134213181D01*
X104189992Y-134162164D01*
X104155220Y-134070477D01*
X104065483Y-133940470D01*
X103947240Y-133835717D01*
X103947238Y-133835716D01*
X103947237Y-133835715D01*
X103807365Y-133762303D01*
X103653986Y-133724500D01*
X103653985Y-133724500D01*
X103496015Y-133724500D01*
X103496014Y-133724500D01*
X103342634Y-133762303D01*
X103202762Y-133835715D01*
X103084516Y-133940471D01*
X102994781Y-134070475D01*
X102994780Y-134070476D01*
X102938762Y-134218181D01*
X102919722Y-134374999D01*
X100000000Y-134374999D01*
X100000000Y-133124999D01*
X109919722Y-133124999D01*
X109919722Y-133125000D01*
X109938762Y-133281818D01*
X109994780Y-133429523D01*
X110084517Y-133559530D01*
X110202760Y-133664283D01*
X110202762Y-133664284D01*
X110342634Y-133737696D01*
X110496014Y-133775500D01*
X110496015Y-133775500D01*
X110653985Y-133775500D01*
X110807365Y-133737696D01*
X110947240Y-133664283D01*
X111065483Y-133559530D01*
X111155220Y-133429523D01*
X111211237Y-133281818D01*
X111230278Y-133125000D01*
X111211237Y-132968182D01*
X111155220Y-132820477D01*
X111065483Y-132690470D01*
X110947240Y-132585717D01*
X110947238Y-132585716D01*
X110947237Y-132585715D01*
X110807365Y-132512303D01*
X110653986Y-132474500D01*
X110653985Y-132474500D01*
X110496015Y-132474500D01*
X110496014Y-132474500D01*
X110342634Y-132512303D01*
X110202762Y-132585715D01*
X110084516Y-132690471D01*
X109994781Y-132820475D01*
X109994780Y-132820476D01*
X109938762Y-132968181D01*
X109919722Y-133124999D01*
X100000000Y-133124999D01*
X100000000Y-131624999D01*
X108669722Y-131624999D01*
X108669722Y-131625000D01*
X108688762Y-131781818D01*
X108744780Y-131929523D01*
X108834517Y-132059530D01*
X108952760Y-132164283D01*
X108952762Y-132164284D01*
X109092634Y-132237696D01*
X109246014Y-132275500D01*
X109246015Y-132275500D01*
X109403985Y-132275500D01*
X109557365Y-132237696D01*
X109697240Y-132164283D01*
X109815483Y-132059530D01*
X109905220Y-131929523D01*
X109961237Y-131781818D01*
X109980278Y-131625000D01*
X109961237Y-131468182D01*
X109905220Y-131320477D01*
X109815483Y-131190470D01*
X109697240Y-131085717D01*
X109697238Y-131085716D01*
X109697237Y-131085715D01*
X109557365Y-131012303D01*
X109403986Y-130974500D01*
X109403985Y-130974500D01*
X109246015Y-130974500D01*
X109246014Y-130974500D01*
X109092634Y-131012303D01*
X108952762Y-131085715D01*
X108834516Y-131190471D01*
X108744781Y-131320475D01*
X108744780Y-131320476D01*
X108688762Y-131468181D01*
X108669722Y-131624999D01*
X100000000Y-131624999D01*
X100000000Y-109709999D01*
X108794722Y-109709999D01*
X108794722Y-109710000D01*
X108813762Y-109866818D01*
X108869780Y-110014523D01*
X108959517Y-110144530D01*
X109077760Y-110249283D01*
X109077762Y-110249284D01*
X109217634Y-110322696D01*
X109371014Y-110360500D01*
X109371015Y-110360500D01*
X109528985Y-110360500D01*
X109682365Y-110322696D01*
X109822240Y-110249283D01*
X109940483Y-110144530D01*
X110030220Y-110014523D01*
X110086237Y-109866818D01*
X110105278Y-109710000D01*
X110086237Y-109553182D01*
X110030220Y-109405477D01*
X109940483Y-109275470D01*
X109822240Y-109170717D01*
X109822238Y-109170716D01*
X109822237Y-109170715D01*
X109682365Y-109097303D01*
X109528986Y-109059500D01*
X109528985Y-109059500D01*
X109371015Y-109059500D01*
X109371014Y-109059500D01*
X109217634Y-109097303D01*
X109077762Y-109170715D01*
X108959516Y-109275471D01*
X108869781Y-109405475D01*
X108869780Y-109405476D01*
X108813762Y-109553181D01*
X108794722Y-109709999D01*
X100000000Y-109709999D01*
X100000000Y-97750000D01*
X94624000Y-97750000D01*
X94556961Y-97730315D01*
X94511206Y-97677511D01*
X94500000Y-97626000D01*
X94500000Y-97256943D01*
X107963545Y-97256943D01*
X107963545Y-97256944D01*
X107982585Y-97413762D01*
X108028386Y-97534528D01*
X108038603Y-97561467D01*
X108128340Y-97691474D01*
X108246583Y-97796227D01*
X108246585Y-97796228D01*
X108386457Y-97869640D01*
X108539837Y-97907444D01*
X108539838Y-97907444D01*
X108697808Y-97907444D01*
X108851188Y-97869640D01*
X108991063Y-97796227D01*
X109109306Y-97691474D01*
X109199043Y-97561467D01*
X109255060Y-97413762D01*
X109274101Y-97256944D01*
X109255060Y-97100126D01*
X109255012Y-97100000D01*
X109255012Y-97099999D01*
X112944722Y-97099999D01*
X112944722Y-97100000D01*
X112963762Y-97256818D01*
X113019780Y-97404523D01*
X113109517Y-97534530D01*
X113227760Y-97639283D01*
X113227762Y-97639284D01*
X113367634Y-97712696D01*
X113521014Y-97750500D01*
X113521015Y-97750500D01*
X113678985Y-97750500D01*
X113832365Y-97712696D01*
X113869818Y-97693039D01*
X113972240Y-97639283D01*
X114090483Y-97534530D01*
X114180220Y-97404523D01*
X114236237Y-97256818D01*
X114255278Y-97100000D01*
X114236237Y-96943182D01*
X114180220Y-96795477D01*
X114090483Y-96665470D01*
X113972240Y-96560717D01*
X113972238Y-96560716D01*
X113972237Y-96560715D01*
X113832365Y-96487303D01*
X113678986Y-96449500D01*
X113678985Y-96449500D01*
X113521015Y-96449500D01*
X113521014Y-96449500D01*
X113367634Y-96487303D01*
X113227762Y-96560715D01*
X113109516Y-96665471D01*
X113019781Y-96795475D01*
X113019780Y-96795476D01*
X112963762Y-96943181D01*
X112944722Y-97099999D01*
X109255012Y-97099999D01*
X109233815Y-97044108D01*
X109199043Y-96952421D01*
X109109306Y-96822414D01*
X108991063Y-96717661D01*
X108991061Y-96717660D01*
X108991060Y-96717659D01*
X108851188Y-96644247D01*
X108697809Y-96606444D01*
X108697808Y-96606444D01*
X108539838Y-96606444D01*
X108539837Y-96606444D01*
X108386457Y-96644247D01*
X108246585Y-96717659D01*
X108128339Y-96822415D01*
X108038604Y-96952419D01*
X108038603Y-96952420D01*
X107982585Y-97100125D01*
X107963545Y-97256943D01*
X94500000Y-97256943D01*
X94500000Y-96277646D01*
X95735587Y-96277646D01*
X95735587Y-96277647D01*
X95754627Y-96434465D01*
X95802508Y-96560715D01*
X95810645Y-96582170D01*
X95900382Y-96712177D01*
X96018625Y-96816930D01*
X96018627Y-96816931D01*
X96158499Y-96890343D01*
X96311879Y-96928147D01*
X96311880Y-96928147D01*
X96469850Y-96928147D01*
X96623230Y-96890343D01*
X96763105Y-96816930D01*
X96881348Y-96712177D01*
X96971085Y-96582170D01*
X97027102Y-96434465D01*
X97046143Y-96277647D01*
X97036108Y-96194999D01*
X114349722Y-96194999D01*
X114349722Y-96195000D01*
X114368762Y-96351818D01*
X114420146Y-96487304D01*
X114424780Y-96499523D01*
X114514517Y-96629530D01*
X114632760Y-96734283D01*
X114632762Y-96734284D01*
X114772634Y-96807696D01*
X114926014Y-96845500D01*
X114926015Y-96845500D01*
X115083985Y-96845500D01*
X115237365Y-96807696D01*
X115260650Y-96795475D01*
X115377240Y-96734283D01*
X115495483Y-96629530D01*
X115585220Y-96499523D01*
X115641237Y-96351818D01*
X115660278Y-96195000D01*
X115641237Y-96038182D01*
X115631571Y-96012696D01*
X115603730Y-95939284D01*
X115585220Y-95890477D01*
X115502060Y-95769999D01*
X116144722Y-95769999D01*
X116144722Y-95770000D01*
X116163762Y-95926818D01*
X116210669Y-96050500D01*
X116219780Y-96074523D01*
X116309517Y-96204530D01*
X116427760Y-96309283D01*
X116427762Y-96309284D01*
X116567634Y-96382696D01*
X116721014Y-96420500D01*
X116721015Y-96420500D01*
X116878985Y-96420500D01*
X117032365Y-96382696D01*
X117091197Y-96351818D01*
X117172240Y-96309283D01*
X117290483Y-96204530D01*
X117380220Y-96074523D01*
X117436237Y-95926818D01*
X117455278Y-95770000D01*
X117451549Y-95739284D01*
X117436237Y-95613181D01*
X117410189Y-95544500D01*
X117380220Y-95465477D01*
X117290483Y-95335470D01*
X117172240Y-95230717D01*
X117172238Y-95230716D01*
X117172237Y-95230715D01*
X117032365Y-95157303D01*
X116878986Y-95119500D01*
X116878985Y-95119500D01*
X116721015Y-95119500D01*
X116721014Y-95119500D01*
X116567634Y-95157303D01*
X116427762Y-95230715D01*
X116309516Y-95335471D01*
X116219781Y-95465475D01*
X116219780Y-95465476D01*
X116163762Y-95613181D01*
X116144722Y-95769999D01*
X115502060Y-95769999D01*
X115495483Y-95760470D01*
X115377240Y-95655717D01*
X115377238Y-95655716D01*
X115377237Y-95655715D01*
X115237365Y-95582303D01*
X115083986Y-95544500D01*
X115083985Y-95544500D01*
X114926015Y-95544500D01*
X114926014Y-95544500D01*
X114772634Y-95582303D01*
X114632762Y-95655715D01*
X114514516Y-95760471D01*
X114424781Y-95890475D01*
X114424780Y-95890476D01*
X114368762Y-96038181D01*
X114349722Y-96194999D01*
X97036108Y-96194999D01*
X97027102Y-96120829D01*
X97009540Y-96074523D01*
X96995758Y-96038181D01*
X96971085Y-95973124D01*
X96881348Y-95843117D01*
X96763105Y-95738364D01*
X96763103Y-95738363D01*
X96763102Y-95738362D01*
X96623230Y-95664950D01*
X96469851Y-95627147D01*
X96469850Y-95627147D01*
X96311880Y-95627147D01*
X96311879Y-95627147D01*
X96158499Y-95664950D01*
X96018627Y-95738362D01*
X95900381Y-95843118D01*
X95810646Y-95973122D01*
X95810645Y-95973123D01*
X95754627Y-96120828D01*
X95735587Y-96277646D01*
X94500000Y-96277646D01*
X94500000Y-95199999D01*
X101344722Y-95199999D01*
X101344722Y-95200000D01*
X101363762Y-95356818D01*
X101404934Y-95465377D01*
X101419780Y-95504523D01*
X101509517Y-95634530D01*
X101627760Y-95739283D01*
X101627762Y-95739284D01*
X101767634Y-95812696D01*
X101921014Y-95850500D01*
X101921015Y-95850500D01*
X102078985Y-95850500D01*
X102232365Y-95812696D01*
X102313716Y-95769999D01*
X102372240Y-95739283D01*
X102490483Y-95634530D01*
X102580220Y-95504523D01*
X102619861Y-95399999D01*
X106644722Y-95399999D01*
X106644722Y-95400000D01*
X106663762Y-95556818D01*
X106701270Y-95655717D01*
X106719780Y-95704523D01*
X106809517Y-95834530D01*
X106927760Y-95939283D01*
X106927762Y-95939284D01*
X107067634Y-96012696D01*
X107221014Y-96050500D01*
X107221015Y-96050500D01*
X107378985Y-96050500D01*
X107532365Y-96012696D01*
X107607762Y-95973124D01*
X107672240Y-95939283D01*
X107790483Y-95834530D01*
X107880220Y-95704523D01*
X107936237Y-95556818D01*
X107939547Y-95529554D01*
X107967168Y-95465377D01*
X108025101Y-95426320D01*
X108062643Y-95420500D01*
X108178983Y-95420500D01*
X108332363Y-95382696D01*
X108472238Y-95309283D01*
X108590481Y-95204530D01*
X108680218Y-95074523D01*
X108691567Y-95044599D01*
X112944723Y-95044599D01*
X112944723Y-95044600D01*
X112963763Y-95201418D01*
X113004672Y-95309284D01*
X113019781Y-95349123D01*
X113109518Y-95479130D01*
X113227761Y-95583883D01*
X113227763Y-95583884D01*
X113367635Y-95657296D01*
X113521015Y-95695100D01*
X113521016Y-95695100D01*
X113678986Y-95695100D01*
X113832366Y-95657296D01*
X113889809Y-95627147D01*
X113972241Y-95583883D01*
X114090484Y-95479130D01*
X114180221Y-95349123D01*
X114236238Y-95201418D01*
X114255279Y-95044600D01*
X114242492Y-94939284D01*
X114236238Y-94887781D01*
X114214993Y-94831764D01*
X114180221Y-94740077D01*
X114090484Y-94610070D01*
X113972241Y-94505317D01*
X113972239Y-94505316D01*
X113972238Y-94505315D01*
X113832366Y-94431903D01*
X113702921Y-94399999D01*
X118744722Y-94399999D01*
X118744722Y-94400000D01*
X118763762Y-94556818D01*
X118819780Y-94704523D01*
X118909517Y-94834530D01*
X119027760Y-94939283D01*
X119027762Y-94939284D01*
X119167634Y-95012696D01*
X119321014Y-95050500D01*
X119321015Y-95050500D01*
X119478985Y-95050500D01*
X119632365Y-95012696D01*
X119772240Y-94939283D01*
X119890483Y-94834530D01*
X119980220Y-94704523D01*
X120019861Y-94599999D01*
X124944722Y-94599999D01*
X124944722Y-94600000D01*
X124963762Y-94756818D01*
X125016349Y-94895476D01*
X125019780Y-94904523D01*
X125109517Y-95034530D01*
X125227760Y-95139283D01*
X125227762Y-95139284D01*
X125367634Y-95212696D01*
X125521014Y-95250500D01*
X125521015Y-95250500D01*
X125678985Y-95250500D01*
X125832365Y-95212696D01*
X125856557Y-95199999D01*
X125972240Y-95139283D01*
X126090483Y-95034530D01*
X126180220Y-94904523D01*
X126236237Y-94756818D01*
X126255278Y-94600000D01*
X126253737Y-94587304D01*
X126236237Y-94443181D01*
X126214992Y-94387164D01*
X126180220Y-94295477D01*
X126090483Y-94165470D01*
X125972240Y-94060717D01*
X125972238Y-94060716D01*
X125972237Y-94060715D01*
X125832365Y-93987303D01*
X125678986Y-93949500D01*
X125678985Y-93949500D01*
X125521015Y-93949500D01*
X125521014Y-93949500D01*
X125367634Y-93987303D01*
X125227762Y-94060715D01*
X125109516Y-94165471D01*
X125019781Y-94295475D01*
X125019780Y-94295476D01*
X124963762Y-94443181D01*
X124944722Y-94599999D01*
X120019861Y-94599999D01*
X120036237Y-94556818D01*
X120055278Y-94400000D01*
X120042587Y-94295475D01*
X120036237Y-94243181D01*
X120003667Y-94157303D01*
X119980220Y-94095477D01*
X119890483Y-93965470D01*
X119772240Y-93860717D01*
X119772238Y-93860716D01*
X119772237Y-93860715D01*
X119632365Y-93787303D01*
X119478986Y-93749500D01*
X119478985Y-93749500D01*
X119321015Y-93749500D01*
X119321014Y-93749500D01*
X119167634Y-93787303D01*
X119027762Y-93860715D01*
X118909516Y-93965471D01*
X118819781Y-94095475D01*
X118819780Y-94095476D01*
X118763762Y-94243181D01*
X118744722Y-94399999D01*
X113702921Y-94399999D01*
X113678987Y-94394100D01*
X113678986Y-94394100D01*
X113521016Y-94394100D01*
X113521015Y-94394100D01*
X113367635Y-94431903D01*
X113227763Y-94505315D01*
X113109517Y-94610071D01*
X113019782Y-94740075D01*
X113019781Y-94740076D01*
X112963763Y-94887781D01*
X112944723Y-95044599D01*
X108691567Y-95044599D01*
X108736235Y-94926818D01*
X108755276Y-94770000D01*
X108753676Y-94756818D01*
X108736235Y-94613181D01*
X108695327Y-94505317D01*
X108680218Y-94465477D01*
X108590481Y-94335470D01*
X108472238Y-94230717D01*
X108472236Y-94230716D01*
X108472235Y-94230715D01*
X108332363Y-94157303D01*
X108178984Y-94119500D01*
X108178983Y-94119500D01*
X108021013Y-94119500D01*
X108021012Y-94119500D01*
X107867632Y-94157303D01*
X107727760Y-94230715D01*
X107609514Y-94335471D01*
X107519779Y-94465475D01*
X107519778Y-94465476D01*
X107463761Y-94613178D01*
X107463760Y-94613183D01*
X107460450Y-94640448D01*
X107432827Y-94704625D01*
X107374893Y-94743681D01*
X107337354Y-94749500D01*
X107221014Y-94749500D01*
X107067634Y-94787303D01*
X106927762Y-94860715D01*
X106809516Y-94965471D01*
X106719781Y-95095475D01*
X106719780Y-95095476D01*
X106663762Y-95243181D01*
X106644722Y-95399999D01*
X102619861Y-95399999D01*
X102636237Y-95356818D01*
X102655278Y-95200000D01*
X102642587Y-95095475D01*
X102636237Y-95043181D01*
X102606765Y-94965470D01*
X102580220Y-94895477D01*
X102490483Y-94765470D01*
X102372240Y-94660717D01*
X102372238Y-94660716D01*
X102372237Y-94660715D01*
X102232365Y-94587303D01*
X102078986Y-94549500D01*
X102078985Y-94549500D01*
X101921015Y-94549500D01*
X101921014Y-94549500D01*
X101767634Y-94587303D01*
X101627762Y-94660715D01*
X101509516Y-94765471D01*
X101419781Y-94895475D01*
X101419780Y-94895476D01*
X101363762Y-95043181D01*
X101344722Y-95199999D01*
X94500000Y-95199999D01*
X94500000Y-93984000D01*
X94519685Y-93916961D01*
X94572489Y-93871206D01*
X94593327Y-93866672D01*
X94600000Y-93860000D01*
X94600000Y-92299999D01*
X96544722Y-92299999D01*
X96544722Y-92300000D01*
X96563762Y-92456818D01*
X96600818Y-92554524D01*
X96619780Y-92604523D01*
X96709517Y-92734530D01*
X96827760Y-92839283D01*
X96827762Y-92839284D01*
X96967634Y-92912696D01*
X97121014Y-92950500D01*
X97121015Y-92950500D01*
X97278985Y-92950500D01*
X97432365Y-92912696D01*
X97455602Y-92900500D01*
X97572240Y-92839283D01*
X97690483Y-92734530D01*
X97780220Y-92604523D01*
X97836237Y-92456818D01*
X97855278Y-92300000D01*
X97855278Y-92299999D01*
X104044722Y-92299999D01*
X104044722Y-92300000D01*
X104063762Y-92456818D01*
X104100818Y-92554524D01*
X104119780Y-92604523D01*
X104209517Y-92734530D01*
X104327760Y-92839283D01*
X104327762Y-92839284D01*
X104467634Y-92912696D01*
X104621014Y-92950500D01*
X104621015Y-92950500D01*
X104778985Y-92950500D01*
X104932365Y-92912696D01*
X104955602Y-92900500D01*
X105072240Y-92839283D01*
X105190483Y-92734530D01*
X105280220Y-92604523D01*
X105336237Y-92456818D01*
X105355278Y-92300000D01*
X105344678Y-92212696D01*
X105336237Y-92143181D01*
X105314992Y-92087164D01*
X105281935Y-91999999D01*
X110244722Y-91999999D01*
X110244722Y-92000000D01*
X110263762Y-92156818D01*
X110318064Y-92299999D01*
X110319780Y-92304523D01*
X110409517Y-92434530D01*
X110527760Y-92539283D01*
X110527762Y-92539284D01*
X110667634Y-92612696D01*
X110821014Y-92650500D01*
X110821015Y-92650500D01*
X110978985Y-92650500D01*
X111132365Y-92612696D01*
X111147937Y-92604523D01*
X111272240Y-92539283D01*
X111390483Y-92434530D01*
X111480220Y-92304523D01*
X111536237Y-92156818D01*
X111555278Y-92000000D01*
X111541373Y-91885476D01*
X111536237Y-91843181D01*
X111504961Y-91760715D01*
X111480220Y-91695477D01*
X111414317Y-91599999D01*
X119484722Y-91599999D01*
X119484722Y-91600000D01*
X119503762Y-91756818D01*
X119552556Y-91885475D01*
X119559780Y-91904523D01*
X119649517Y-92034530D01*
X119767760Y-92139283D01*
X119767762Y-92139284D01*
X119907634Y-92212696D01*
X120061014Y-92250500D01*
X120061015Y-92250500D01*
X120218985Y-92250500D01*
X120372365Y-92212696D01*
X120415610Y-92189999D01*
X122874722Y-92189999D01*
X122874722Y-92190000D01*
X122893762Y-92346818D01*
X122935480Y-92456818D01*
X122949780Y-92494523D01*
X123039517Y-92624530D01*
X123157760Y-92729283D01*
X123157762Y-92729284D01*
X123297634Y-92802696D01*
X123451014Y-92840500D01*
X123451015Y-92840500D01*
X123608985Y-92840500D01*
X123762365Y-92802696D01*
X123787921Y-92789283D01*
X123902240Y-92729283D01*
X124020483Y-92624530D01*
X124110220Y-92494523D01*
X124166237Y-92346818D01*
X124177993Y-92249999D01*
X127274722Y-92249999D01*
X127274722Y-92250000D01*
X127293762Y-92406818D01*
X127312725Y-92456818D01*
X127349780Y-92554523D01*
X127439517Y-92684530D01*
X127557760Y-92789283D01*
X127557762Y-92789284D01*
X127697634Y-92862696D01*
X127851014Y-92900500D01*
X127851015Y-92900500D01*
X128008985Y-92900500D01*
X128162365Y-92862696D01*
X128206974Y-92839283D01*
X128302240Y-92789283D01*
X128420483Y-92684530D01*
X128510220Y-92554523D01*
X128566237Y-92406818D01*
X128585278Y-92250000D01*
X128566237Y-92093182D01*
X128510220Y-91945477D01*
X128420483Y-91815470D01*
X128302240Y-91710717D01*
X128302238Y-91710716D01*
X128302237Y-91710715D01*
X128162365Y-91637303D01*
X128008986Y-91599500D01*
X128008985Y-91599500D01*
X127851015Y-91599500D01*
X127851014Y-91599500D01*
X127697634Y-91637303D01*
X127557762Y-91710715D01*
X127439516Y-91815471D01*
X127349781Y-91945475D01*
X127349780Y-91945476D01*
X127293762Y-92093181D01*
X127274722Y-92249999D01*
X124177993Y-92249999D01*
X124185278Y-92190000D01*
X124166401Y-92034528D01*
X124166237Y-92033181D01*
X124132975Y-91945477D01*
X124110220Y-91885477D01*
X124020483Y-91755470D01*
X123902240Y-91650717D01*
X123902238Y-91650716D01*
X123902237Y-91650715D01*
X123762365Y-91577303D01*
X123608986Y-91539500D01*
X123608985Y-91539500D01*
X123451015Y-91539500D01*
X123451014Y-91539500D01*
X123297634Y-91577303D01*
X123157762Y-91650715D01*
X123039516Y-91755471D01*
X122949781Y-91885475D01*
X122949780Y-91885476D01*
X122893762Y-92033181D01*
X122874722Y-92189999D01*
X120415610Y-92189999D01*
X120512240Y-92139283D01*
X120630483Y-92034530D01*
X120720220Y-91904523D01*
X120776237Y-91756818D01*
X120795278Y-91600000D01*
X120791086Y-91565471D01*
X120776237Y-91443181D01*
X120740708Y-91349500D01*
X120720220Y-91295477D01*
X120630483Y-91165470D01*
X120512240Y-91060717D01*
X120512238Y-91060716D01*
X120512237Y-91060715D01*
X120372365Y-90987303D01*
X120218986Y-90949500D01*
X120218985Y-90949500D01*
X120061015Y-90949500D01*
X120061014Y-90949500D01*
X119907634Y-90987303D01*
X119767762Y-91060715D01*
X119649516Y-91165471D01*
X119559781Y-91295475D01*
X119559780Y-91295476D01*
X119503762Y-91443181D01*
X119484722Y-91599999D01*
X111414317Y-91599999D01*
X111390483Y-91565470D01*
X111272240Y-91460717D01*
X111272238Y-91460716D01*
X111272237Y-91460715D01*
X111132365Y-91387303D01*
X110978986Y-91349500D01*
X110978985Y-91349500D01*
X110821015Y-91349500D01*
X110821014Y-91349500D01*
X110667634Y-91387303D01*
X110527762Y-91460715D01*
X110409516Y-91565471D01*
X110319781Y-91695475D01*
X110319780Y-91695476D01*
X110263762Y-91843181D01*
X110244722Y-91999999D01*
X105281935Y-91999999D01*
X105280220Y-91995477D01*
X105190483Y-91865470D01*
X105165324Y-91843181D01*
X105117273Y-91800611D01*
X105080146Y-91741422D01*
X105075500Y-91707796D01*
X105075500Y-89099999D01*
X112244722Y-89099999D01*
X112244722Y-89100000D01*
X112263762Y-89256818D01*
X112319780Y-89404523D01*
X112409517Y-89534530D01*
X112527760Y-89639283D01*
X112527762Y-89639284D01*
X112667634Y-89712696D01*
X112821014Y-89750500D01*
X112821015Y-89750500D01*
X112978985Y-89750500D01*
X113132365Y-89712696D01*
X113272240Y-89639283D01*
X113390483Y-89534530D01*
X113480220Y-89404523D01*
X113536237Y-89256818D01*
X113555278Y-89100000D01*
X113536237Y-88943182D01*
X113480220Y-88795477D01*
X113390483Y-88665470D01*
X113272240Y-88560717D01*
X113272238Y-88560716D01*
X113272237Y-88560715D01*
X113132365Y-88487303D01*
X112978986Y-88449500D01*
X112978985Y-88449500D01*
X112821015Y-88449500D01*
X112821014Y-88449500D01*
X112667634Y-88487303D01*
X112527762Y-88560715D01*
X112409516Y-88665471D01*
X112319781Y-88795475D01*
X112319780Y-88795476D01*
X112263762Y-88943181D01*
X112244722Y-89099999D01*
X105075500Y-89099999D01*
X105075500Y-86206898D01*
X105089271Y-86159999D01*
X108454722Y-86159999D01*
X108454722Y-86160000D01*
X108473762Y-86316818D01*
X108529780Y-86464523D01*
X108619517Y-86594530D01*
X108737760Y-86699283D01*
X108737762Y-86699284D01*
X108812939Y-86738741D01*
X108863152Y-86787326D01*
X108879126Y-86855345D01*
X108861209Y-86907753D01*
X108863267Y-86908833D01*
X108859780Y-86915476D01*
X108803762Y-87063181D01*
X108784722Y-87219999D01*
X108784722Y-87220000D01*
X108803762Y-87376818D01*
X108859780Y-87524523D01*
X108949517Y-87654530D01*
X109067760Y-87759283D01*
X109067762Y-87759284D01*
X109207634Y-87832696D01*
X109361014Y-87870500D01*
X109361015Y-87870500D01*
X109518985Y-87870500D01*
X109672365Y-87832696D01*
X109812240Y-87759283D01*
X109930483Y-87654530D01*
X110020220Y-87524523D01*
X110076237Y-87376818D01*
X110095278Y-87220000D01*
X110076237Y-87063182D01*
X110071427Y-87050500D01*
X110054992Y-87007164D01*
X110020220Y-86915477D01*
X109930483Y-86785470D01*
X109812240Y-86680717D01*
X109804962Y-86676897D01*
X109737059Y-86641258D01*
X109686847Y-86592673D01*
X109670873Y-86524654D01*
X109688802Y-86472259D01*
X109686731Y-86471172D01*
X109690218Y-86464526D01*
X109690219Y-86464524D01*
X109690220Y-86464523D01*
X109746237Y-86316818D01*
X109765278Y-86160000D01*
X109762833Y-86139859D01*
X109746237Y-86003181D01*
X109724992Y-85947164D01*
X109694779Y-85867499D01*
X112102222Y-85867499D01*
X112102222Y-85867500D01*
X112121262Y-86024318D01*
X112157253Y-86119217D01*
X112177280Y-86172023D01*
X112267017Y-86302030D01*
X112385260Y-86406783D01*
X112385262Y-86406784D01*
X112525134Y-86480196D01*
X112678514Y-86518000D01*
X112678515Y-86518000D01*
X112836485Y-86518000D01*
X112989865Y-86480196D01*
X113004987Y-86472259D01*
X113129740Y-86406783D01*
X113247983Y-86302030D01*
X113337720Y-86172023D01*
X113393737Y-86024318D01*
X113412778Y-85867500D01*
X113411955Y-85860717D01*
X113393737Y-85710681D01*
X113359617Y-85620715D01*
X113337720Y-85562977D01*
X113247983Y-85432970D01*
X113129740Y-85328217D01*
X113129738Y-85328216D01*
X113129737Y-85328215D01*
X112989865Y-85254803D01*
X112836486Y-85217000D01*
X112836485Y-85217000D01*
X112678515Y-85217000D01*
X112678514Y-85217000D01*
X112525134Y-85254803D01*
X112385262Y-85328215D01*
X112267016Y-85432971D01*
X112177281Y-85562975D01*
X112177280Y-85562976D01*
X112121262Y-85710681D01*
X112102222Y-85867499D01*
X109694779Y-85867499D01*
X109690220Y-85855477D01*
X109600483Y-85725470D01*
X109482240Y-85620717D01*
X109482238Y-85620716D01*
X109482237Y-85620715D01*
X109342365Y-85547303D01*
X109188986Y-85509500D01*
X109188985Y-85509500D01*
X109031015Y-85509500D01*
X109031014Y-85509500D01*
X108877634Y-85547303D01*
X108737762Y-85620715D01*
X108619516Y-85725471D01*
X108529781Y-85855475D01*
X108529780Y-85855476D01*
X108473762Y-86003181D01*
X108454722Y-86159999D01*
X105089271Y-86159999D01*
X105095185Y-86139859D01*
X105111814Y-86119222D01*
X107944217Y-83286818D01*
X108005540Y-83253334D01*
X108031898Y-83250500D01*
X108178985Y-83250500D01*
X108332365Y-83212696D01*
X108472240Y-83139283D01*
X108590483Y-83034530D01*
X108680220Y-82904523D01*
X108736237Y-82756818D01*
X108755278Y-82600000D01*
X108736237Y-82443182D01*
X108680220Y-82295477D01*
X108590483Y-82165470D01*
X108472240Y-82060717D01*
X108472238Y-82060716D01*
X108472237Y-82060715D01*
X108332365Y-81987303D01*
X108178986Y-81949500D01*
X108178985Y-81949500D01*
X108021015Y-81949500D01*
X108021014Y-81949500D01*
X107867634Y-81987303D01*
X107727762Y-82060715D01*
X107609516Y-82165471D01*
X107519781Y-82295475D01*
X107519780Y-82295476D01*
X107463763Y-82443181D01*
X107444722Y-82600000D01*
X107450896Y-82650854D01*
X107439435Y-82719777D01*
X107415481Y-82753480D01*
X104469438Y-85699525D01*
X104399526Y-85769436D01*
X104350091Y-85855059D01*
X104350091Y-85855060D01*
X104350090Y-85855062D01*
X104324500Y-85950565D01*
X104324500Y-85950567D01*
X104324500Y-91707796D01*
X104304815Y-91774835D01*
X104282727Y-91800611D01*
X104209518Y-91865468D01*
X104119781Y-91995475D01*
X104119780Y-91995476D01*
X104063762Y-92143181D01*
X104044722Y-92299999D01*
X97855278Y-92299999D01*
X97844678Y-92212696D01*
X97836237Y-92143181D01*
X97814992Y-92087164D01*
X97780220Y-91995477D01*
X97690483Y-91865470D01*
X97572240Y-91760717D01*
X97572238Y-91760716D01*
X97572237Y-91760715D01*
X97432365Y-91687303D01*
X97278986Y-91649500D01*
X97278985Y-91649500D01*
X97121015Y-91649500D01*
X97121014Y-91649500D01*
X96967634Y-91687303D01*
X96827762Y-91760715D01*
X96709516Y-91865471D01*
X96619781Y-91995475D01*
X96619780Y-91995476D01*
X96563762Y-92143181D01*
X96544722Y-92299999D01*
X94600000Y-92299999D01*
X94600000Y-86399999D01*
X100029722Y-86399999D01*
X100029722Y-86400000D01*
X100048762Y-86556818D01*
X100102793Y-86699283D01*
X100104780Y-86704523D01*
X100194517Y-86834530D01*
X100312760Y-86939283D01*
X100312762Y-86939284D01*
X100452634Y-87012696D01*
X100606014Y-87050500D01*
X100606015Y-87050500D01*
X100763985Y-87050500D01*
X100917365Y-87012696D01*
X101057240Y-86939283D01*
X101175483Y-86834530D01*
X101265220Y-86704523D01*
X101321237Y-86556818D01*
X101340278Y-86400000D01*
X101328383Y-86302030D01*
X101321237Y-86243181D01*
X101289690Y-86159999D01*
X101265220Y-86095477D01*
X101175483Y-85965470D01*
X101057240Y-85860717D01*
X101057238Y-85860716D01*
X101057237Y-85860715D01*
X100917365Y-85787303D01*
X100763986Y-85749500D01*
X100763985Y-85749500D01*
X100606015Y-85749500D01*
X100606014Y-85749500D01*
X100452634Y-85787303D01*
X100312762Y-85860715D01*
X100305103Y-85867500D01*
X100211342Y-85950565D01*
X100194516Y-85965471D01*
X100104781Y-86095475D01*
X100104780Y-86095476D01*
X100048762Y-86243181D01*
X100029722Y-86399999D01*
X94600000Y-86399999D01*
X94600000Y-83399999D01*
X100744722Y-83399999D01*
X100744722Y-83400000D01*
X100763762Y-83556818D01*
X100819780Y-83704523D01*
X100819781Y-83704524D01*
X100909516Y-83834529D01*
X100935089Y-83857185D01*
X100972215Y-83916375D01*
X100971447Y-83986241D01*
X100935089Y-84042815D01*
X100909516Y-84065470D01*
X100819781Y-84195475D01*
X100819780Y-84195476D01*
X100763762Y-84343181D01*
X100744722Y-84499999D01*
X100744722Y-84500000D01*
X100763762Y-84656818D01*
X100819780Y-84804523D01*
X100909517Y-84934530D01*
X101027760Y-85039283D01*
X101027762Y-85039284D01*
X101167634Y-85112696D01*
X101321014Y-85150500D01*
X101321015Y-85150500D01*
X101478985Y-85150500D01*
X101632365Y-85112696D01*
X101772237Y-85039285D01*
X101772238Y-85039283D01*
X101772240Y-85039283D01*
X101867775Y-84954646D01*
X101931006Y-84924927D01*
X102000270Y-84934111D01*
X102032222Y-84954645D01*
X102111125Y-85024546D01*
X102127762Y-85039285D01*
X102267634Y-85112696D01*
X102421014Y-85150500D01*
X102421015Y-85150500D01*
X102578985Y-85150500D01*
X102732365Y-85112696D01*
X102872240Y-85039283D01*
X102990483Y-84934530D01*
X103080220Y-84804523D01*
X103136237Y-84656818D01*
X103155278Y-84500000D01*
X103136237Y-84343182D01*
X103080220Y-84195477D01*
X102990483Y-84065470D01*
X102964910Y-84042814D01*
X102927785Y-83983627D01*
X102928552Y-83913761D01*
X102964910Y-83857185D01*
X102990483Y-83834530D01*
X103080220Y-83704523D01*
X103136237Y-83556818D01*
X103155278Y-83400000D01*
X103141536Y-83286819D01*
X103136237Y-83243181D01*
X103114992Y-83187164D01*
X103080220Y-83095477D01*
X102990483Y-82965470D01*
X102872240Y-82860717D01*
X102872238Y-82860716D01*
X102872237Y-82860715D01*
X102732365Y-82787303D01*
X102578986Y-82749500D01*
X102578985Y-82749500D01*
X102421015Y-82749500D01*
X102421014Y-82749500D01*
X102267634Y-82787303D01*
X102127761Y-82860715D01*
X102127759Y-82860716D01*
X102032226Y-82945351D01*
X101968993Y-82975072D01*
X101899730Y-82965888D01*
X101867774Y-82945351D01*
X101772240Y-82860716D01*
X101772238Y-82860715D01*
X101632365Y-82787303D01*
X101478986Y-82749500D01*
X101478985Y-82749500D01*
X101321015Y-82749500D01*
X101321014Y-82749500D01*
X101167634Y-82787303D01*
X101027762Y-82860715D01*
X100909516Y-82965471D01*
X100819781Y-83095475D01*
X100819780Y-83095476D01*
X100763762Y-83243181D01*
X100744722Y-83399999D01*
X94600000Y-83399999D01*
X94600000Y-80299999D01*
X109744722Y-80299999D01*
X109744722Y-80300000D01*
X109763762Y-80456818D01*
X109819780Y-80604523D01*
X109909517Y-80734530D01*
X110027760Y-80839283D01*
X110027762Y-80839284D01*
X110167634Y-80912696D01*
X110321014Y-80950500D01*
X110321015Y-80950500D01*
X110478985Y-80950500D01*
X110632365Y-80912696D01*
X110772240Y-80839283D01*
X110890483Y-80734530D01*
X110980220Y-80604523D01*
X111036237Y-80456818D01*
X111055278Y-80300000D01*
X111036237Y-80143182D01*
X110980220Y-79995477D01*
X110890483Y-79865470D01*
X110772240Y-79760717D01*
X110772238Y-79760716D01*
X110772237Y-79760715D01*
X110632365Y-79687303D01*
X110478986Y-79649500D01*
X110478985Y-79649500D01*
X110321015Y-79649500D01*
X110321014Y-79649500D01*
X110167634Y-79687303D01*
X110027762Y-79760715D01*
X109909516Y-79865471D01*
X109819781Y-79995475D01*
X109819780Y-79995476D01*
X109763762Y-80143181D01*
X109744722Y-80299999D01*
X94600000Y-80299999D01*
X94600000Y-77282837D01*
X95940509Y-77282837D01*
X95940509Y-77282838D01*
X95959549Y-77439656D01*
X96010112Y-77572977D01*
X96015567Y-77587361D01*
X96105304Y-77717368D01*
X96223547Y-77822121D01*
X96223549Y-77822122D01*
X96363421Y-77895534D01*
X96516801Y-77933338D01*
X96516802Y-77933338D01*
X96674772Y-77933338D01*
X96828152Y-77895534D01*
X96862514Y-77877499D01*
X96968027Y-77822121D01*
X97086270Y-77717368D01*
X97176007Y-77587361D01*
X97226304Y-77454738D01*
X97515424Y-77454738D01*
X97515424Y-77454739D01*
X97534464Y-77611557D01*
X97578956Y-77728870D01*
X97590482Y-77759262D01*
X97680219Y-77889269D01*
X97798462Y-77994022D01*
X97798464Y-77994023D01*
X97938336Y-78067435D01*
X98091716Y-78105239D01*
X98091717Y-78105239D01*
X98249687Y-78105239D01*
X98403067Y-78067435D01*
X98494779Y-78019300D01*
X98542942Y-77994022D01*
X98661185Y-77889269D01*
X98750922Y-77759262D01*
X98806939Y-77611557D01*
X98825980Y-77454739D01*
X98815545Y-77368799D01*
X100276722Y-77368799D01*
X100276722Y-77368800D01*
X100295762Y-77525618D01*
X100319179Y-77587362D01*
X100351780Y-77673323D01*
X100441517Y-77803330D01*
X100559760Y-77908083D01*
X100559762Y-77908084D01*
X100699634Y-77981496D01*
X100853014Y-78019300D01*
X100853015Y-78019300D01*
X101010985Y-78019300D01*
X101164365Y-77981496D01*
X101256121Y-77933338D01*
X101304240Y-77908083D01*
X101422483Y-77803330D01*
X101443513Y-77772861D01*
X101497795Y-77728870D01*
X101545564Y-77719300D01*
X108326464Y-77719300D01*
X108393503Y-77738985D01*
X108439258Y-77791789D01*
X108449560Y-77858247D01*
X108447222Y-77877500D01*
X108466262Y-78034318D01*
X108522280Y-78182023D01*
X108612017Y-78312030D01*
X108730260Y-78416783D01*
X108730262Y-78416784D01*
X108870134Y-78490196D01*
X109023514Y-78528000D01*
X109023515Y-78528000D01*
X109181485Y-78528000D01*
X109334865Y-78490196D01*
X109474740Y-78416783D01*
X109592983Y-78312030D01*
X109682720Y-78182023D01*
X109738737Y-78034318D01*
X109757778Y-77877500D01*
X109743422Y-77759262D01*
X109738737Y-77720681D01*
X109688175Y-77587361D01*
X109682720Y-77572977D01*
X109592983Y-77442970D01*
X109474740Y-77338217D01*
X109465779Y-77333513D01*
X109350305Y-77272907D01*
X109300093Y-77224322D01*
X109284119Y-77156303D01*
X109307455Y-77090445D01*
X109320246Y-77075435D01*
X109710725Y-76684955D01*
X109772046Y-76651472D01*
X109813271Y-76652039D01*
X109813568Y-76649596D01*
X109821014Y-76650500D01*
X109821015Y-76650500D01*
X109978985Y-76650500D01*
X110132365Y-76612696D01*
X110272240Y-76539283D01*
X110390483Y-76434530D01*
X110480220Y-76304523D01*
X110536237Y-76156818D01*
X110555278Y-76000000D01*
X110536237Y-75843182D01*
X110480220Y-75695477D01*
X110390483Y-75565470D01*
X110272240Y-75460717D01*
X110272238Y-75460716D01*
X110272237Y-75460715D01*
X110132365Y-75387303D01*
X109978986Y-75349500D01*
X109978985Y-75349500D01*
X109821015Y-75349500D01*
X109821014Y-75349500D01*
X109667634Y-75387303D01*
X109527762Y-75460715D01*
X109409516Y-75565471D01*
X109319781Y-75695475D01*
X109319780Y-75695476D01*
X109263762Y-75843181D01*
X109244722Y-75999999D01*
X109244722Y-76000000D01*
X109254724Y-76082381D01*
X109243263Y-76151304D01*
X109219309Y-76185007D01*
X108422337Y-76981981D01*
X108361014Y-77015466D01*
X108334656Y-77018300D01*
X101545564Y-77018300D01*
X101478525Y-76998615D01*
X101443513Y-76964738D01*
X101422484Y-76934271D01*
X101401244Y-76915454D01*
X101304240Y-76829517D01*
X101304238Y-76829516D01*
X101304237Y-76829515D01*
X101164365Y-76756103D01*
X101010986Y-76718300D01*
X101010985Y-76718300D01*
X100853015Y-76718300D01*
X100853014Y-76718300D01*
X100699634Y-76756103D01*
X100559762Y-76829515D01*
X100441516Y-76934271D01*
X100351781Y-77064275D01*
X100351780Y-77064276D01*
X100295762Y-77211981D01*
X100276722Y-77368799D01*
X98815545Y-77368799D01*
X98806939Y-77297921D01*
X98801218Y-77282837D01*
X98753230Y-77156303D01*
X98750922Y-77150216D01*
X98661185Y-77020209D01*
X98542942Y-76915456D01*
X98542940Y-76915455D01*
X98542939Y-76915454D01*
X98403067Y-76842042D01*
X98249688Y-76804239D01*
X98249687Y-76804239D01*
X98091717Y-76804239D01*
X98091716Y-76804239D01*
X97938336Y-76842042D01*
X97798464Y-76915454D01*
X97680218Y-77020210D01*
X97590483Y-77150214D01*
X97590482Y-77150215D01*
X97534464Y-77297920D01*
X97515424Y-77454738D01*
X97226304Y-77454738D01*
X97232024Y-77439656D01*
X97251065Y-77282838D01*
X97242462Y-77211981D01*
X97232024Y-77126019D01*
X97208607Y-77064275D01*
X97176007Y-76978315D01*
X97086270Y-76848308D01*
X96968027Y-76743555D01*
X96968025Y-76743554D01*
X96968024Y-76743553D01*
X96828152Y-76670141D01*
X96674773Y-76632338D01*
X96674772Y-76632338D01*
X96516802Y-76632338D01*
X96516801Y-76632338D01*
X96363421Y-76670141D01*
X96223549Y-76743553D01*
X96105303Y-76848309D01*
X96015568Y-76978313D01*
X96015567Y-76978314D01*
X95959549Y-77126019D01*
X95940509Y-77282837D01*
X94600000Y-77282837D01*
X94600000Y-75860000D01*
X94590023Y-75850023D01*
X94556961Y-75840315D01*
X94511206Y-75787511D01*
X94500000Y-75736000D01*
X94500000Y-75324999D01*
X113219722Y-75324999D01*
X113219722Y-75325000D01*
X113238762Y-75481818D01*
X113270488Y-75565470D01*
X113294780Y-75629523D01*
X113384517Y-75759530D01*
X113502760Y-75864283D01*
X113502762Y-75864284D01*
X113642634Y-75937696D01*
X113796014Y-75975500D01*
X113796015Y-75975500D01*
X113953985Y-75975500D01*
X114107365Y-75937696D01*
X114247240Y-75864283D01*
X114365483Y-75759530D01*
X114455220Y-75629523D01*
X114511237Y-75481818D01*
X114530278Y-75325000D01*
X114511237Y-75168182D01*
X114455220Y-75020477D01*
X114365483Y-74890470D01*
X114247240Y-74785717D01*
X114247238Y-74785716D01*
X114247237Y-74785715D01*
X114107365Y-74712303D01*
X113953986Y-74674500D01*
X113953985Y-74674500D01*
X113796015Y-74674500D01*
X113796014Y-74674500D01*
X113642634Y-74712303D01*
X113502762Y-74785715D01*
X113384516Y-74890471D01*
X113294781Y-75020475D01*
X113294780Y-75020476D01*
X113238762Y-75168181D01*
X113219722Y-75324999D01*
X94500000Y-75324999D01*
X94500000Y-73224000D01*
X94519685Y-73156961D01*
X94572489Y-73111206D01*
X94624000Y-73100000D01*
X98665197Y-73100000D01*
X98732236Y-73119685D01*
X98777991Y-73172489D01*
X98787935Y-73241647D01*
X98781139Y-73267971D01*
X98733231Y-73394290D01*
X98714191Y-73551108D01*
X98714191Y-73551109D01*
X98733231Y-73707927D01*
X98774691Y-73817246D01*
X98789249Y-73855632D01*
X98878986Y-73985639D01*
X98997229Y-74090392D01*
X98997231Y-74090393D01*
X99137103Y-74163805D01*
X99290483Y-74201609D01*
X99290484Y-74201609D01*
X99448454Y-74201609D01*
X99601834Y-74163805D01*
X99741709Y-74090392D01*
X99859952Y-73985639D01*
X99949689Y-73855632D01*
X100005706Y-73707927D01*
X100024747Y-73551109D01*
X100005706Y-73394291D01*
X99951644Y-73251742D01*
X99946278Y-73182082D01*
X99979425Y-73120576D01*
X99979907Y-73120092D01*
X99999999Y-73100000D01*
X100000000Y-73100000D01*
X100000000Y-72393713D01*
X102149500Y-72393713D01*
X102149500Y-72606287D01*
X102182754Y-72816243D01*
X102210166Y-72900609D01*
X102248444Y-73018414D01*
X102344951Y-73207820D01*
X102469890Y-73379786D01*
X102620213Y-73530109D01*
X102792179Y-73655048D01*
X102792181Y-73655049D01*
X102792184Y-73655051D01*
X102981588Y-73751557D01*
X103183757Y-73817246D01*
X103393713Y-73850500D01*
X103393714Y-73850500D01*
X103606286Y-73850500D01*
X103606287Y-73850500D01*
X103816243Y-73817246D01*
X104018412Y-73751557D01*
X104207816Y-73655051D01*
X104229789Y-73639086D01*
X104379786Y-73530109D01*
X104379788Y-73530106D01*
X104379792Y-73530104D01*
X104530104Y-73379792D01*
X104530106Y-73379788D01*
X104530109Y-73379786D01*
X104655048Y-73207820D01*
X104655047Y-73207820D01*
X104655051Y-73207816D01*
X104751557Y-73018412D01*
X104817246Y-72816243D01*
X104850500Y-72606287D01*
X104850500Y-72393713D01*
X104817246Y-72183757D01*
X104751557Y-71981588D01*
X104655051Y-71792184D01*
X104655049Y-71792181D01*
X104655048Y-71792179D01*
X104530109Y-71620213D01*
X104379786Y-71469890D01*
X104283588Y-71399999D01*
X105844722Y-71399999D01*
X105844722Y-71400000D01*
X105863762Y-71556818D01*
X105919780Y-71704523D01*
X106009517Y-71834530D01*
X106127760Y-71939283D01*
X106127762Y-71939284D01*
X106267634Y-72012696D01*
X106421014Y-72050500D01*
X106421015Y-72050500D01*
X106578985Y-72050500D01*
X106732365Y-72012696D01*
X106872240Y-71939283D01*
X106990483Y-71834530D01*
X107080220Y-71704523D01*
X107136237Y-71556818D01*
X107155278Y-71400000D01*
X107155278Y-71399999D01*
X107644722Y-71399999D01*
X107644722Y-71400000D01*
X107663762Y-71556818D01*
X107719780Y-71704523D01*
X107809517Y-71834530D01*
X107927760Y-71939283D01*
X107927762Y-71939284D01*
X108067634Y-72012696D01*
X108221014Y-72050500D01*
X108221015Y-72050500D01*
X108378985Y-72050500D01*
X108532365Y-72012696D01*
X108672240Y-71939283D01*
X108790483Y-71834530D01*
X108880220Y-71704523D01*
X108936237Y-71556818D01*
X108955278Y-71400000D01*
X108936237Y-71243182D01*
X108880220Y-71095477D01*
X108790483Y-70965470D01*
X108672240Y-70860717D01*
X108672238Y-70860716D01*
X108672237Y-70860715D01*
X108532365Y-70787303D01*
X108378986Y-70749500D01*
X108378985Y-70749500D01*
X108221015Y-70749500D01*
X108221014Y-70749500D01*
X108067634Y-70787303D01*
X107927762Y-70860715D01*
X107809516Y-70965471D01*
X107719781Y-71095475D01*
X107719780Y-71095476D01*
X107663762Y-71243181D01*
X107644722Y-71399999D01*
X107155278Y-71399999D01*
X107136237Y-71243182D01*
X107080220Y-71095477D01*
X106990483Y-70965470D01*
X106872240Y-70860717D01*
X106872238Y-70860716D01*
X106872237Y-70860715D01*
X106732365Y-70787303D01*
X106578986Y-70749500D01*
X106578985Y-70749500D01*
X106421015Y-70749500D01*
X106421014Y-70749500D01*
X106267634Y-70787303D01*
X106127762Y-70860715D01*
X106009516Y-70965471D01*
X105919781Y-71095475D01*
X105919780Y-71095476D01*
X105863762Y-71243181D01*
X105844722Y-71399999D01*
X104283588Y-71399999D01*
X104207820Y-71344951D01*
X104018414Y-71248444D01*
X104018413Y-71248443D01*
X104018412Y-71248443D01*
X103816243Y-71182754D01*
X103816241Y-71182753D01*
X103816240Y-71182753D01*
X103654957Y-71157208D01*
X103606287Y-71149500D01*
X103393713Y-71149500D01*
X103345042Y-71157208D01*
X103183760Y-71182753D01*
X102981585Y-71248444D01*
X102792179Y-71344951D01*
X102620213Y-71469890D01*
X102469890Y-71620213D01*
X102344951Y-71792179D01*
X102248444Y-71981585D01*
X102182753Y-72183760D01*
X102149500Y-72393713D01*
X100000000Y-72393713D01*
X100000000Y-70124000D01*
X100019685Y-70056961D01*
X100072489Y-70011206D01*
X100124000Y-70000000D01*
X119876000Y-70000000D01*
X119943039Y-70019685D01*
G37*
G04 #@! TD.AperFunction*
M02*
