G04 #@! TF.GenerationSoftware,KiCad,Pcbnew,8.0.7*
G04 #@! TF.CreationDate,2025-08-07T07:41:48-04:00*
G04 #@! TF.ProjectId,room_environment_monitor,726f6f6d-5f65-46e7-9669-726f6e6d656e,rev?*
G04 #@! TF.SameCoordinates,Original*
G04 #@! TF.FileFunction,Legend,Bot*
G04 #@! TF.FilePolarity,Positive*
%FSLAX46Y46*%
G04 Gerber Fmt 4.6, Leading zero omitted, Abs format (unit mm)*
G04 Created by KiCad (PCBNEW 8.0.7) date 2025-08-07 07:41:48*
%MOMM*%
%LPD*%
G01*
G04 APERTURE LIST*
G04 Aperture macros list*
%AMRoundRect*
0 Rectangle with rounded corners*
0 $1 Rounding radius*
0 $2 $3 $4 $5 $6 $7 $8 $9 X,Y pos of 4 corners*
0 Add a 4 corners polygon primitive as box body*
4,1,4,$2,$3,$4,$5,$6,$7,$8,$9,$2,$3,0*
0 Add four circle primitives for the rounded corners*
1,1,$1+$1,$2,$3*
1,1,$1+$1,$4,$5*
1,1,$1+$1,$6,$7*
1,1,$1+$1,$8,$9*
0 Add four rect primitives between the rounded corners*
20,1,$1+$1,$2,$3,$4,$5,0*
20,1,$1+$1,$4,$5,$6,$7,0*
20,1,$1+$1,$6,$7,$8,$9,0*
20,1,$1+$1,$8,$9,$2,$3,0*%
G04 Aperture macros list end*
%ADD10C,0.150000*%
%ADD11C,0.120000*%
%ADD12R,1.000000X0.900000*%
%ADD13C,2.200000*%
%ADD14O,1.066800X1.701800*%
%ADD15C,1.000000*%
%ADD16R,0.700000X0.700000*%
%ADD17RoundRect,0.250001X0.462499X0.624999X-0.462499X0.624999X-0.462499X-0.624999X0.462499X-0.624999X0*%
%ADD18RoundRect,0.150000X0.625000X-0.150000X0.625000X0.150000X-0.625000X0.150000X-0.625000X-0.150000X0*%
%ADD19RoundRect,0.250000X0.650000X-0.350000X0.650000X0.350000X-0.650000X0.350000X-0.650000X-0.350000X0*%
G04 APERTURE END LIST*
D10*
X106500000Y-119600000D02*
X113500000Y-119600000D01*
X106500000Y-72600000D02*
X106500000Y-119600000D01*
X113500000Y-72600000D02*
X106500000Y-72600000D01*
X113500000Y-119600000D02*
X113500000Y-72600000D01*
X99457200Y-74866667D02*
X99504819Y-75009524D01*
X99504819Y-75009524D02*
X99504819Y-75247619D01*
X99504819Y-75247619D02*
X99457200Y-75342857D01*
X99457200Y-75342857D02*
X99409580Y-75390476D01*
X99409580Y-75390476D02*
X99314342Y-75438095D01*
X99314342Y-75438095D02*
X99219104Y-75438095D01*
X99219104Y-75438095D02*
X99123866Y-75390476D01*
X99123866Y-75390476D02*
X99076247Y-75342857D01*
X99076247Y-75342857D02*
X99028628Y-75247619D01*
X99028628Y-75247619D02*
X98981009Y-75057143D01*
X98981009Y-75057143D02*
X98933390Y-74961905D01*
X98933390Y-74961905D02*
X98885771Y-74914286D01*
X98885771Y-74914286D02*
X98790533Y-74866667D01*
X98790533Y-74866667D02*
X98695295Y-74866667D01*
X98695295Y-74866667D02*
X98600057Y-74914286D01*
X98600057Y-74914286D02*
X98552438Y-74961905D01*
X98552438Y-74961905D02*
X98504819Y-75057143D01*
X98504819Y-75057143D02*
X98504819Y-75295238D01*
X98504819Y-75295238D02*
X98552438Y-75438095D01*
X98504819Y-75771429D02*
X99504819Y-76009524D01*
X99504819Y-76009524D02*
X98790533Y-76200000D01*
X98790533Y-76200000D02*
X99504819Y-76390476D01*
X99504819Y-76390476D02*
X98504819Y-76628572D01*
X99504819Y-77533333D02*
X99504819Y-76961905D01*
X99504819Y-77247619D02*
X98504819Y-77247619D01*
X98504819Y-77247619D02*
X98647676Y-77152381D01*
X98647676Y-77152381D02*
X98742914Y-77057143D01*
X98742914Y-77057143D02*
X98790533Y-76961905D01*
X113331904Y-80314819D02*
X112760476Y-80314819D01*
X113046190Y-81314819D02*
X113046190Y-80314819D01*
X112427142Y-81314819D02*
X112427142Y-80314819D01*
X112427142Y-80314819D02*
X112046190Y-80314819D01*
X112046190Y-80314819D02*
X111950952Y-80362438D01*
X111950952Y-80362438D02*
X111903333Y-80410057D01*
X111903333Y-80410057D02*
X111855714Y-80505295D01*
X111855714Y-80505295D02*
X111855714Y-80648152D01*
X111855714Y-80648152D02*
X111903333Y-80743390D01*
X111903333Y-80743390D02*
X111950952Y-80791009D01*
X111950952Y-80791009D02*
X112046190Y-80838628D01*
X112046190Y-80838628D02*
X112427142Y-80838628D01*
X110998571Y-80314819D02*
X111189047Y-80314819D01*
X111189047Y-80314819D02*
X111284285Y-80362438D01*
X111284285Y-80362438D02*
X111331904Y-80410057D01*
X111331904Y-80410057D02*
X111427142Y-80552914D01*
X111427142Y-80552914D02*
X111474761Y-80743390D01*
X111474761Y-80743390D02*
X111474761Y-81124342D01*
X111474761Y-81124342D02*
X111427142Y-81219580D01*
X111427142Y-81219580D02*
X111379523Y-81267200D01*
X111379523Y-81267200D02*
X111284285Y-81314819D01*
X111284285Y-81314819D02*
X111093809Y-81314819D01*
X111093809Y-81314819D02*
X110998571Y-81267200D01*
X110998571Y-81267200D02*
X110950952Y-81219580D01*
X110950952Y-81219580D02*
X110903333Y-81124342D01*
X110903333Y-81124342D02*
X110903333Y-80886247D01*
X110903333Y-80886247D02*
X110950952Y-80791009D01*
X110950952Y-80791009D02*
X110998571Y-80743390D01*
X110998571Y-80743390D02*
X111093809Y-80695771D01*
X111093809Y-80695771D02*
X111284285Y-80695771D01*
X111284285Y-80695771D02*
X111379523Y-80743390D01*
X111379523Y-80743390D02*
X111427142Y-80791009D01*
X111427142Y-80791009D02*
X111474761Y-80886247D01*
X103261904Y-93206819D02*
X102690476Y-93206819D01*
X102976190Y-94206819D02*
X102976190Y-93206819D01*
X102357142Y-94206819D02*
X102357142Y-93206819D01*
X102357142Y-93206819D02*
X101976190Y-93206819D01*
X101976190Y-93206819D02*
X101880952Y-93254438D01*
X101880952Y-93254438D02*
X101833333Y-93302057D01*
X101833333Y-93302057D02*
X101785714Y-93397295D01*
X101785714Y-93397295D02*
X101785714Y-93540152D01*
X101785714Y-93540152D02*
X101833333Y-93635390D01*
X101833333Y-93635390D02*
X101880952Y-93683009D01*
X101880952Y-93683009D02*
X101976190Y-93730628D01*
X101976190Y-93730628D02*
X102357142Y-93730628D01*
X101404761Y-93302057D02*
X101357142Y-93254438D01*
X101357142Y-93254438D02*
X101261904Y-93206819D01*
X101261904Y-93206819D02*
X101023809Y-93206819D01*
X101023809Y-93206819D02*
X100928571Y-93254438D01*
X100928571Y-93254438D02*
X100880952Y-93302057D01*
X100880952Y-93302057D02*
X100833333Y-93397295D01*
X100833333Y-93397295D02*
X100833333Y-93492533D01*
X100833333Y-93492533D02*
X100880952Y-93635390D01*
X100880952Y-93635390D02*
X101452380Y-94206819D01*
X101452380Y-94206819D02*
X100833333Y-94206819D01*
X112454819Y-107161905D02*
X111454819Y-107161905D01*
X111454819Y-107161905D02*
X111454819Y-107400000D01*
X111454819Y-107400000D02*
X111502438Y-107542857D01*
X111502438Y-107542857D02*
X111597676Y-107638095D01*
X111597676Y-107638095D02*
X111692914Y-107685714D01*
X111692914Y-107685714D02*
X111883390Y-107733333D01*
X111883390Y-107733333D02*
X112026247Y-107733333D01*
X112026247Y-107733333D02*
X112216723Y-107685714D01*
X112216723Y-107685714D02*
X112311961Y-107638095D01*
X112311961Y-107638095D02*
X112407200Y-107542857D01*
X112407200Y-107542857D02*
X112454819Y-107400000D01*
X112454819Y-107400000D02*
X112454819Y-107161905D01*
X111454819Y-108638095D02*
X111454819Y-108161905D01*
X111454819Y-108161905D02*
X111931009Y-108114286D01*
X111931009Y-108114286D02*
X111883390Y-108161905D01*
X111883390Y-108161905D02*
X111835771Y-108257143D01*
X111835771Y-108257143D02*
X111835771Y-108495238D01*
X111835771Y-108495238D02*
X111883390Y-108590476D01*
X111883390Y-108590476D02*
X111931009Y-108638095D01*
X111931009Y-108638095D02*
X112026247Y-108685714D01*
X112026247Y-108685714D02*
X112264342Y-108685714D01*
X112264342Y-108685714D02*
X112359580Y-108638095D01*
X112359580Y-108638095D02*
X112407200Y-108590476D01*
X112407200Y-108590476D02*
X112454819Y-108495238D01*
X112454819Y-108495238D02*
X112454819Y-108257143D01*
X112454819Y-108257143D02*
X112407200Y-108161905D01*
X112407200Y-108161905D02*
X112359580Y-108114286D01*
X110775594Y-74684819D02*
X110775594Y-73684819D01*
X110775594Y-73684819D02*
X110537499Y-73684819D01*
X110537499Y-73684819D02*
X110394642Y-73732438D01*
X110394642Y-73732438D02*
X110299404Y-73827676D01*
X110299404Y-73827676D02*
X110251785Y-73922914D01*
X110251785Y-73922914D02*
X110204166Y-74113390D01*
X110204166Y-74113390D02*
X110204166Y-74256247D01*
X110204166Y-74256247D02*
X110251785Y-74446723D01*
X110251785Y-74446723D02*
X110299404Y-74541961D01*
X110299404Y-74541961D02*
X110394642Y-74637200D01*
X110394642Y-74637200D02*
X110537499Y-74684819D01*
X110537499Y-74684819D02*
X110775594Y-74684819D01*
X109347023Y-73684819D02*
X109537499Y-73684819D01*
X109537499Y-73684819D02*
X109632737Y-73732438D01*
X109632737Y-73732438D02*
X109680356Y-73780057D01*
X109680356Y-73780057D02*
X109775594Y-73922914D01*
X109775594Y-73922914D02*
X109823213Y-74113390D01*
X109823213Y-74113390D02*
X109823213Y-74494342D01*
X109823213Y-74494342D02*
X109775594Y-74589580D01*
X109775594Y-74589580D02*
X109727975Y-74637200D01*
X109727975Y-74637200D02*
X109632737Y-74684819D01*
X109632737Y-74684819D02*
X109442261Y-74684819D01*
X109442261Y-74684819D02*
X109347023Y-74637200D01*
X109347023Y-74637200D02*
X109299404Y-74589580D01*
X109299404Y-74589580D02*
X109251785Y-74494342D01*
X109251785Y-74494342D02*
X109251785Y-74256247D01*
X109251785Y-74256247D02*
X109299404Y-74161009D01*
X109299404Y-74161009D02*
X109347023Y-74113390D01*
X109347023Y-74113390D02*
X109442261Y-74065771D01*
X109442261Y-74065771D02*
X109632737Y-74065771D01*
X109632737Y-74065771D02*
X109727975Y-74113390D01*
X109727975Y-74113390D02*
X109775594Y-74161009D01*
X109775594Y-74161009D02*
X109823213Y-74256247D01*
X112454819Y-95411905D02*
X111454819Y-95411905D01*
X111454819Y-95411905D02*
X111454819Y-95650000D01*
X111454819Y-95650000D02*
X111502438Y-95792857D01*
X111502438Y-95792857D02*
X111597676Y-95888095D01*
X111597676Y-95888095D02*
X111692914Y-95935714D01*
X111692914Y-95935714D02*
X111883390Y-95983333D01*
X111883390Y-95983333D02*
X112026247Y-95983333D01*
X112026247Y-95983333D02*
X112216723Y-95935714D01*
X112216723Y-95935714D02*
X112311961Y-95888095D01*
X112311961Y-95888095D02*
X112407200Y-95792857D01*
X112407200Y-95792857D02*
X112454819Y-95650000D01*
X112454819Y-95650000D02*
X112454819Y-95411905D01*
X111788152Y-96840476D02*
X112454819Y-96840476D01*
X111407200Y-96602381D02*
X112121485Y-96364286D01*
X112121485Y-96364286D02*
X112121485Y-96983333D01*
X99361904Y-89254819D02*
X98790476Y-89254819D01*
X99076190Y-90254819D02*
X99076190Y-89254819D01*
X98457142Y-90254819D02*
X98457142Y-89254819D01*
X98457142Y-89254819D02*
X98076190Y-89254819D01*
X98076190Y-89254819D02*
X97980952Y-89302438D01*
X97980952Y-89302438D02*
X97933333Y-89350057D01*
X97933333Y-89350057D02*
X97885714Y-89445295D01*
X97885714Y-89445295D02*
X97885714Y-89588152D01*
X97885714Y-89588152D02*
X97933333Y-89683390D01*
X97933333Y-89683390D02*
X97980952Y-89731009D01*
X97980952Y-89731009D02*
X98076190Y-89778628D01*
X98076190Y-89778628D02*
X98457142Y-89778628D01*
X96933333Y-90254819D02*
X97504761Y-90254819D01*
X97219047Y-90254819D02*
X97219047Y-89254819D01*
X97219047Y-89254819D02*
X97314285Y-89397676D01*
X97314285Y-89397676D02*
X97409523Y-89492914D01*
X97409523Y-89492914D02*
X97504761Y-89540533D01*
X116261904Y-95006819D02*
X115690476Y-95006819D01*
X115976190Y-96006819D02*
X115976190Y-95006819D01*
X115357142Y-96006819D02*
X115357142Y-95006819D01*
X115357142Y-95006819D02*
X114976190Y-95006819D01*
X114976190Y-95006819D02*
X114880952Y-95054438D01*
X114880952Y-95054438D02*
X114833333Y-95102057D01*
X114833333Y-95102057D02*
X114785714Y-95197295D01*
X114785714Y-95197295D02*
X114785714Y-95340152D01*
X114785714Y-95340152D02*
X114833333Y-95435390D01*
X114833333Y-95435390D02*
X114880952Y-95483009D01*
X114880952Y-95483009D02*
X114976190Y-95530628D01*
X114976190Y-95530628D02*
X115357142Y-95530628D01*
X114452380Y-95006819D02*
X113833333Y-95006819D01*
X113833333Y-95006819D02*
X114166666Y-95387771D01*
X114166666Y-95387771D02*
X114023809Y-95387771D01*
X114023809Y-95387771D02*
X113928571Y-95435390D01*
X113928571Y-95435390D02*
X113880952Y-95483009D01*
X113880952Y-95483009D02*
X113833333Y-95578247D01*
X113833333Y-95578247D02*
X113833333Y-95816342D01*
X113833333Y-95816342D02*
X113880952Y-95911580D01*
X113880952Y-95911580D02*
X113928571Y-95959200D01*
X113928571Y-95959200D02*
X114023809Y-96006819D01*
X114023809Y-96006819D02*
X114309523Y-96006819D01*
X114309523Y-96006819D02*
X114404761Y-95959200D01*
X114404761Y-95959200D02*
X114452380Y-95911580D01*
X106261904Y-91154819D02*
X105690476Y-91154819D01*
X105976190Y-92154819D02*
X105976190Y-91154819D01*
X105357142Y-92154819D02*
X105357142Y-91154819D01*
X105357142Y-91154819D02*
X104976190Y-91154819D01*
X104976190Y-91154819D02*
X104880952Y-91202438D01*
X104880952Y-91202438D02*
X104833333Y-91250057D01*
X104833333Y-91250057D02*
X104785714Y-91345295D01*
X104785714Y-91345295D02*
X104785714Y-91488152D01*
X104785714Y-91488152D02*
X104833333Y-91583390D01*
X104833333Y-91583390D02*
X104880952Y-91631009D01*
X104880952Y-91631009D02*
X104976190Y-91678628D01*
X104976190Y-91678628D02*
X105357142Y-91678628D01*
X104452380Y-91154819D02*
X103785714Y-91154819D01*
X103785714Y-91154819D02*
X104214285Y-92154819D01*
X99754819Y-80566666D02*
X100469104Y-80566666D01*
X100469104Y-80566666D02*
X100611961Y-80519047D01*
X100611961Y-80519047D02*
X100707200Y-80423809D01*
X100707200Y-80423809D02*
X100754819Y-80280952D01*
X100754819Y-80280952D02*
X100754819Y-80185714D01*
X99754819Y-80947619D02*
X99754819Y-81566666D01*
X99754819Y-81566666D02*
X100135771Y-81233333D01*
X100135771Y-81233333D02*
X100135771Y-81376190D01*
X100135771Y-81376190D02*
X100183390Y-81471428D01*
X100183390Y-81471428D02*
X100231009Y-81519047D01*
X100231009Y-81519047D02*
X100326247Y-81566666D01*
X100326247Y-81566666D02*
X100564342Y-81566666D01*
X100564342Y-81566666D02*
X100659580Y-81519047D01*
X100659580Y-81519047D02*
X100707200Y-81471428D01*
X100707200Y-81471428D02*
X100754819Y-81376190D01*
X100754819Y-81376190D02*
X100754819Y-81090476D01*
X100754819Y-81090476D02*
X100707200Y-80995238D01*
X100707200Y-80995238D02*
X100659580Y-80947619D01*
X105261904Y-128006819D02*
X104690476Y-128006819D01*
X104976190Y-129006819D02*
X104976190Y-128006819D01*
X104357142Y-129006819D02*
X104357142Y-128006819D01*
X104357142Y-128006819D02*
X103976190Y-128006819D01*
X103976190Y-128006819D02*
X103880952Y-128054438D01*
X103880952Y-128054438D02*
X103833333Y-128102057D01*
X103833333Y-128102057D02*
X103785714Y-128197295D01*
X103785714Y-128197295D02*
X103785714Y-128340152D01*
X103785714Y-128340152D02*
X103833333Y-128435390D01*
X103833333Y-128435390D02*
X103880952Y-128483009D01*
X103880952Y-128483009D02*
X103976190Y-128530628D01*
X103976190Y-128530628D02*
X104357142Y-128530628D01*
X102928571Y-128340152D02*
X102928571Y-129006819D01*
X103166666Y-127959200D02*
X103404761Y-128673485D01*
X103404761Y-128673485D02*
X102785714Y-128673485D01*
X112454819Y-83611905D02*
X111454819Y-83611905D01*
X111454819Y-83611905D02*
X111454819Y-83850000D01*
X111454819Y-83850000D02*
X111502438Y-83992857D01*
X111502438Y-83992857D02*
X111597676Y-84088095D01*
X111597676Y-84088095D02*
X111692914Y-84135714D01*
X111692914Y-84135714D02*
X111883390Y-84183333D01*
X111883390Y-84183333D02*
X112026247Y-84183333D01*
X112026247Y-84183333D02*
X112216723Y-84135714D01*
X112216723Y-84135714D02*
X112311961Y-84088095D01*
X112311961Y-84088095D02*
X112407200Y-83992857D01*
X112407200Y-83992857D02*
X112454819Y-83850000D01*
X112454819Y-83850000D02*
X112454819Y-83611905D01*
X111454819Y-84516667D02*
X111454819Y-85135714D01*
X111454819Y-85135714D02*
X111835771Y-84802381D01*
X111835771Y-84802381D02*
X111835771Y-84945238D01*
X111835771Y-84945238D02*
X111883390Y-85040476D01*
X111883390Y-85040476D02*
X111931009Y-85088095D01*
X111931009Y-85088095D02*
X112026247Y-85135714D01*
X112026247Y-85135714D02*
X112264342Y-85135714D01*
X112264342Y-85135714D02*
X112359580Y-85088095D01*
X112359580Y-85088095D02*
X112407200Y-85040476D01*
X112407200Y-85040476D02*
X112454819Y-84945238D01*
X112454819Y-84945238D02*
X112454819Y-84659524D01*
X112454819Y-84659524D02*
X112407200Y-84564286D01*
X112407200Y-84564286D02*
X112359580Y-84516667D01*
X106261904Y-77954819D02*
X105690476Y-77954819D01*
X105976190Y-78954819D02*
X105976190Y-77954819D01*
X105357142Y-78954819D02*
X105357142Y-77954819D01*
X105357142Y-77954819D02*
X104976190Y-77954819D01*
X104976190Y-77954819D02*
X104880952Y-78002438D01*
X104880952Y-78002438D02*
X104833333Y-78050057D01*
X104833333Y-78050057D02*
X104785714Y-78145295D01*
X104785714Y-78145295D02*
X104785714Y-78288152D01*
X104785714Y-78288152D02*
X104833333Y-78383390D01*
X104833333Y-78383390D02*
X104880952Y-78431009D01*
X104880952Y-78431009D02*
X104976190Y-78478628D01*
X104976190Y-78478628D02*
X105357142Y-78478628D01*
X104214285Y-78383390D02*
X104309523Y-78335771D01*
X104309523Y-78335771D02*
X104357142Y-78288152D01*
X104357142Y-78288152D02*
X104404761Y-78192914D01*
X104404761Y-78192914D02*
X104404761Y-78145295D01*
X104404761Y-78145295D02*
X104357142Y-78050057D01*
X104357142Y-78050057D02*
X104309523Y-78002438D01*
X104309523Y-78002438D02*
X104214285Y-77954819D01*
X104214285Y-77954819D02*
X104023809Y-77954819D01*
X104023809Y-77954819D02*
X103928571Y-78002438D01*
X103928571Y-78002438D02*
X103880952Y-78050057D01*
X103880952Y-78050057D02*
X103833333Y-78145295D01*
X103833333Y-78145295D02*
X103833333Y-78192914D01*
X103833333Y-78192914D02*
X103880952Y-78288152D01*
X103880952Y-78288152D02*
X103928571Y-78335771D01*
X103928571Y-78335771D02*
X104023809Y-78383390D01*
X104023809Y-78383390D02*
X104214285Y-78383390D01*
X104214285Y-78383390D02*
X104309523Y-78431009D01*
X104309523Y-78431009D02*
X104357142Y-78478628D01*
X104357142Y-78478628D02*
X104404761Y-78573866D01*
X104404761Y-78573866D02*
X104404761Y-78764342D01*
X104404761Y-78764342D02*
X104357142Y-78859580D01*
X104357142Y-78859580D02*
X104309523Y-78907200D01*
X104309523Y-78907200D02*
X104214285Y-78954819D01*
X104214285Y-78954819D02*
X104023809Y-78954819D01*
X104023809Y-78954819D02*
X103928571Y-78907200D01*
X103928571Y-78907200D02*
X103880952Y-78859580D01*
X103880952Y-78859580D02*
X103833333Y-78764342D01*
X103833333Y-78764342D02*
X103833333Y-78573866D01*
X103833333Y-78573866D02*
X103880952Y-78478628D01*
X103880952Y-78478628D02*
X103928571Y-78431009D01*
X103928571Y-78431009D02*
X104023809Y-78383390D01*
X110731904Y-134006819D02*
X110160476Y-134006819D01*
X110446190Y-135006819D02*
X110446190Y-134006819D01*
X109827142Y-135006819D02*
X109827142Y-134006819D01*
X109827142Y-134006819D02*
X109446190Y-134006819D01*
X109446190Y-134006819D02*
X109350952Y-134054438D01*
X109350952Y-134054438D02*
X109303333Y-134102057D01*
X109303333Y-134102057D02*
X109255714Y-134197295D01*
X109255714Y-134197295D02*
X109255714Y-134340152D01*
X109255714Y-134340152D02*
X109303333Y-134435390D01*
X109303333Y-134435390D02*
X109350952Y-134483009D01*
X109350952Y-134483009D02*
X109446190Y-134530628D01*
X109446190Y-134530628D02*
X109827142Y-134530628D01*
X108350952Y-134006819D02*
X108827142Y-134006819D01*
X108827142Y-134006819D02*
X108874761Y-134483009D01*
X108874761Y-134483009D02*
X108827142Y-134435390D01*
X108827142Y-134435390D02*
X108731904Y-134387771D01*
X108731904Y-134387771D02*
X108493809Y-134387771D01*
X108493809Y-134387771D02*
X108398571Y-134435390D01*
X108398571Y-134435390D02*
X108350952Y-134483009D01*
X108350952Y-134483009D02*
X108303333Y-134578247D01*
X108303333Y-134578247D02*
X108303333Y-134816342D01*
X108303333Y-134816342D02*
X108350952Y-134911580D01*
X108350952Y-134911580D02*
X108398571Y-134959200D01*
X108398571Y-134959200D02*
X108493809Y-135006819D01*
X108493809Y-135006819D02*
X108731904Y-135006819D01*
X108731904Y-135006819D02*
X108827142Y-134959200D01*
X108827142Y-134959200D02*
X108874761Y-134911580D01*
D11*
X96650000Y-78400000D02*
X96550000Y-78400000D01*
X95050000Y-74000000D02*
X95050000Y-78400000D01*
X98150000Y-78400000D02*
X98150000Y-74000000D01*
X96650000Y-74000000D02*
X96550000Y-74000000D01*
X111700000Y-79000000D02*
G75*
G02*
X110300000Y-79000000I-700000J0D01*
G01*
X110300000Y-79000000D02*
G75*
G02*
X111700000Y-79000000I700000J0D01*
G01*
X102700000Y-95200000D02*
G75*
G02*
X101300000Y-95200000I-700000J0D01*
G01*
X101300000Y-95200000D02*
G75*
G02*
X102700000Y-95200000I700000J0D01*
G01*
X108850000Y-106300000D02*
X108850000Y-109500000D01*
X108850000Y-106300000D02*
X111150000Y-106300000D01*
X110850000Y-109500000D02*
X108850000Y-109500000D01*
X110850000Y-109500000D02*
X111150000Y-109200000D01*
X111150000Y-106300000D02*
X111150000Y-109200000D01*
X108437500Y-77185000D02*
X112497500Y-77185000D01*
X112497500Y-74915000D02*
X108437500Y-74915000D01*
X112497500Y-77185000D02*
X112497500Y-74915000D01*
X108850000Y-94550000D02*
X108850000Y-97750000D01*
X108850000Y-94550000D02*
X111150000Y-94550000D01*
X110850000Y-97750000D02*
X108850000Y-97750000D01*
X110850000Y-97750000D02*
X111150000Y-97450000D01*
X111150000Y-94550000D02*
X111150000Y-97450000D01*
X98700000Y-91000000D02*
G75*
G02*
X97300000Y-91000000I-700000J0D01*
G01*
X97300000Y-91000000D02*
G75*
G02*
X98700000Y-91000000I700000J0D01*
G01*
X115700000Y-97000000D02*
G75*
G02*
X114300000Y-97000000I-700000J0D01*
G01*
X114300000Y-97000000D02*
G75*
G02*
X115700000Y-97000000I700000J0D01*
G01*
X108100000Y-92000000D02*
G75*
G02*
X106700000Y-92000000I-700000J0D01*
G01*
X106700000Y-92000000D02*
G75*
G02*
X108100000Y-92000000I700000J0D01*
G01*
X94915000Y-81960000D02*
X94915000Y-87840000D01*
X99385000Y-80790000D02*
X96885000Y-80790000D01*
X99385000Y-81840000D02*
X99385000Y-80790000D01*
X99385000Y-87960000D02*
X99385000Y-89010000D01*
X99385000Y-89010000D02*
X96885000Y-89010000D01*
X100375000Y-87960000D02*
X99385000Y-87960000D01*
X104700000Y-130000000D02*
G75*
G02*
X103300000Y-130000000I-700000J0D01*
G01*
X103300000Y-130000000D02*
G75*
G02*
X104700000Y-130000000I700000J0D01*
G01*
X108850000Y-82750000D02*
X108850000Y-85950000D01*
X108850000Y-82750000D02*
X111150000Y-82750000D01*
X110850000Y-85950000D02*
X108850000Y-85950000D01*
X110850000Y-85950000D02*
X111150000Y-85650000D01*
X111150000Y-82750000D02*
X111150000Y-85650000D01*
X108200000Y-78400000D02*
G75*
G02*
X106800000Y-78400000I-700000J0D01*
G01*
X106800000Y-78400000D02*
G75*
G02*
X108200000Y-78400000I700000J0D01*
G01*
X110170000Y-136000000D02*
G75*
G02*
X108770000Y-136000000I-700000J0D01*
G01*
X108770000Y-136000000D02*
G75*
G02*
X110170000Y-136000000I700000J0D01*
G01*
%LPC*%
D12*
X97400000Y-78250000D03*
X97400000Y-74150000D03*
X95800000Y-78250000D03*
X95800000Y-74150000D03*
D13*
X102500000Y-138700000D03*
X117500000Y-138700000D03*
X103500000Y-72500000D03*
D14*
X114269999Y-142900001D03*
X105730001Y-142900001D03*
D15*
X111000000Y-79000000D03*
X102000000Y-95200000D03*
D16*
X110550000Y-108815000D03*
X109450000Y-108815000D03*
X109450000Y-106985000D03*
X110550000Y-106985000D03*
D17*
X111525000Y-76050000D03*
X108550000Y-76050000D03*
D16*
X110550000Y-97065000D03*
X109450000Y-97065000D03*
X109450000Y-95235000D03*
X110550000Y-95235000D03*
D15*
X98000000Y-91000000D03*
X115000000Y-97000000D03*
X107400000Y-92000000D03*
D18*
X99600000Y-87400000D03*
X99600000Y-86400000D03*
X99600000Y-85400000D03*
X99600000Y-84400000D03*
X99600000Y-83400000D03*
X99600000Y-82400000D03*
D19*
X95725000Y-88700000D03*
X95725000Y-81100000D03*
D15*
X104000000Y-130000000D03*
D16*
X110550000Y-85265000D03*
X109450000Y-85265000D03*
X109450000Y-83435000D03*
X110550000Y-83435000D03*
D15*
X107500000Y-78400000D03*
X109470000Y-136000000D03*
%LPD*%
M02*
