M48
; DRILL file {KiCad 8.0.7} date 2025-08-07T07:41:51-0400
; FORMAT={-:-/ absolute / inch / decimal}
; #@! TF.CreationDate,2025-08-07T07:41:51-04:00
; #@! TF.GenerationSoftware,Kicad,Pcbnew,8.0.7
; #@! TF.FileFunction,Plated,1,4,PTH
FMAT,2
INCH
; #@! TA.AperFunction,Plated,PTH,ViaDrill
T1C0.0157
; #@! TA.AperFunction,Plated,PTH,ComponentDrill
T2C0.0197
; #@! TA.AperFunction,Plated,PTH,ComponentDrill
T3C0.0217
%
G90
G05
T1
X3.7677Y-3.6339
X3.7949Y-3.7905
X3.803Y-3.0426
X3.8268Y-3.6339
X3.865Y-3.0494
X3.9122Y-2.8957
X3.9311Y-3.8209
X3.964Y-3.4016
X3.9737Y-3.046
X3.9921Y-3.2835
X3.9921Y-3.3268
X4.0157Y-3.748
X4.0354Y-3.2835
X4.0354Y-3.3268
X4.0778Y-5.2904
X4.122Y-3.6339
X4.1368Y-5.123
X4.1368Y-5.1624
X4.1417Y-3.8189
X4.1732Y-5.4232
X4.1732Y-5.4921
X4.186Y-5.123
X4.1929Y-2.811
X4.2126Y-5.4528
X4.2244Y-3.7559
X4.2559Y-3.7311
X4.2559Y-3.252
X4.2618Y-3.7921
X4.2638Y-2.811
X4.2763Y-3.829
X4.2832Y-3.3228
X4.2954Y-3.066
X4.2957Y-3.3921
X4.3041Y-5.1821
X4.3087Y-3.4339
X4.3091Y-4.3193
X4.311Y-5.4232
X4.311Y-5.4921
X4.311Y-5.5344
X4.3268Y-2.9921
X4.3465Y-3.1614
X4.3504Y-2.9488
X4.3533Y-5.2411
X4.3661Y-3.622
X4.3898Y-5.375
X4.3898Y-5.4547
X4.3898Y-5.5118
X4.4393Y-3.3806
X4.4449Y-3.5079
X4.4488Y-5.4528
X4.4717Y-5.2902
X4.4724Y-3.2598
X4.4724Y-3.6614
X4.4724Y-3.8228
X4.4724Y-3.7419
X4.4833Y-2.9656
X4.498Y-5.4232
X4.498Y-5.4921
X4.5157Y-3.5079
X4.5278Y-3.7872
X4.5866Y-3.5079
X4.5984Y-3.7705
X4.6594Y-3.5079
X4.6654Y-3.7717
X4.7008Y-3.7165
X4.7299Y-3.6063
X4.7453Y-3.7063
X4.8465Y-3.8031
X4.8634Y-3.6295
X4.9449Y-3.7244
X5.0366Y-3.6319
T2
G00X4.4988Y-5.6122
M15
G01X4.4988Y-5.6398
M16
G05
T3
G00X4.1626Y-5.6161
M15
G01X4.1626Y-5.6358
M16
G05
M30
