G04 #@! TF.GenerationSoftware,KiCad,Pcbnew,8.0.7*
G04 #@! TF.CreationDate,2025-08-07T07:41:48-04:00*
G04 #@! TF.ProjectId,room_environment_monitor,726f6f6d-5f65-46e7-9669-726f6e6d656e,rev?*
G04 #@! TF.SameCoordinates,Original*
G04 #@! TF.FileFunction,Legend,Top*
G04 #@! TF.FilePolarity,Positive*
%FSLAX46Y46*%
G04 Gerber Fmt 4.6, Leading zero omitted, Abs format (unit mm)*
G04 Created by KiCad (PCBNEW 8.0.7) date 2025-08-07 07:41:48*
%MOMM*%
%LPD*%
G01*
G04 APERTURE LIST*
G04 Aperture macros list*
%AMRoundRect*
0 Rectangle with rounded corners*
0 $1 Rounding radius*
0 $2 $3 $4 $5 $6 $7 $8 $9 X,Y pos of 4 corners*
0 Add a 4 corners polygon primitive as box body*
4,1,4,$2,$3,$4,$5,$6,$7,$8,$9,$2,$3,0*
0 Add four circle primitives for the rounded corners*
1,1,$1+$1,$2,$3*
1,1,$1+$1,$4,$5*
1,1,$1+$1,$6,$7*
1,1,$1+$1,$8,$9*
0 Add four rect primitives between the rounded corners*
20,1,$1+$1,$2,$3,$4,$5,0*
20,1,$1+$1,$4,$5,$6,$7,0*
20,1,$1+$1,$6,$7,$8,$9,0*
20,1,$1+$1,$8,$9,$2,$3,0*%
G04 Aperture macros list end*
%ADD10C,0.150000*%
%ADD11C,0.254000*%
%ADD12C,0.120000*%
%ADD13C,0.100000*%
%ADD14C,0.152400*%
%ADD15RoundRect,0.200000X0.275000X-0.200000X0.275000X0.200000X-0.275000X0.200000X-0.275000X-0.200000X0*%
%ADD16RoundRect,0.200000X0.200000X0.275000X-0.200000X0.275000X-0.200000X-0.275000X0.200000X-0.275000X0*%
%ADD17RoundRect,0.225000X0.225000X0.250000X-0.225000X0.250000X-0.225000X-0.250000X0.225000X-0.250000X0*%
%ADD18RoundRect,0.200000X0.450000X-0.200000X0.450000X0.200000X-0.450000X0.200000X-0.450000X-0.200000X0*%
%ADD19RoundRect,0.250001X1.249999X-0.799999X1.249999X0.799999X-1.249999X0.799999X-1.249999X-0.799999X0*%
%ADD20R,0.900000X1.500000*%
%ADD21R,0.700000X0.700000*%
%ADD22RoundRect,0.200000X-0.200000X-0.275000X0.200000X-0.275000X0.200000X0.275000X-0.200000X0.275000X0*%
%ADD23RoundRect,0.150000X0.150000X-0.512500X0.150000X0.512500X-0.150000X0.512500X-0.150000X-0.512500X0*%
%ADD24RoundRect,0.250000X-0.300000X0.300000X-0.300000X-0.300000X0.300000X-0.300000X0.300000X0.300000X0*%
%ADD25RoundRect,0.150000X-0.587500X-0.150000X0.587500X-0.150000X0.587500X0.150000X-0.587500X0.150000X0*%
%ADD26RoundRect,0.225000X0.250000X-0.225000X0.250000X0.225000X-0.250000X0.225000X-0.250000X-0.225000X0*%
%ADD27C,2.200000*%
%ADD28RoundRect,0.225000X-0.225000X-0.250000X0.225000X-0.250000X0.225000X0.250000X-0.225000X0.250000X0*%
%ADD29RoundRect,0.218750X0.256250X-0.218750X0.256250X0.218750X-0.256250X0.218750X-0.256250X-0.218750X0*%
%ADD30RoundRect,0.200000X-0.275000X0.200000X-0.275000X-0.200000X0.275000X-0.200000X0.275000X0.200000X0*%
%ADD31R,0.500000X0.350000*%
%ADD32RoundRect,0.225000X-0.250000X0.225000X-0.250000X-0.225000X0.250000X-0.225000X0.250000X0.225000X0*%
%ADD33RoundRect,0.062500X0.117500X0.062500X-0.117500X0.062500X-0.117500X-0.062500X0.117500X-0.062500X0*%
%ADD34R,3.352800X0.711200*%
%ADD35R,2.387600X1.600200*%
%ADD36R,0.355600X0.762000*%
%ADD37R,1.701800X1.244600*%
%ADD38R,0.711200X2.006600*%
%ADD39R,0.812800X2.006600*%
%ADD40R,0.889000X2.006600*%
%ADD41O,1.066800X1.701800*%
G04 APERTURE END LIST*
D10*
X100100000Y-128400000D02*
X119800000Y-128400000D01*
X119825000Y-97750000D02*
X100100000Y-97750000D01*
D11*
G36*
X101070946Y-127163173D02*
G01*
X101090185Y-127182412D01*
X101115940Y-127233922D01*
X101115940Y-127463990D01*
X100837749Y-127463990D01*
X100837749Y-127233922D01*
X100863504Y-127182412D01*
X100882743Y-127163173D01*
X100934253Y-127137418D01*
X101019436Y-127137418D01*
X101070946Y-127163173D01*
G37*
G36*
X102706649Y-127163173D02*
G01*
X102725888Y-127182412D01*
X102751643Y-127233922D01*
X102751643Y-127463990D01*
X102473452Y-127463990D01*
X102473452Y-127233922D01*
X102499207Y-127182412D01*
X102518446Y-127163173D01*
X102569956Y-127137418D01*
X102655139Y-127137418D01*
X102706649Y-127163173D01*
G37*
G36*
X101554756Y-126243935D02*
G01*
X101573993Y-126263172D01*
X101599749Y-126314684D01*
X101599749Y-126399866D01*
X101573993Y-126451378D01*
X101554756Y-126470616D01*
X101503246Y-126496371D01*
X101272920Y-126496371D01*
X101221410Y-126470616D01*
X101202171Y-126451377D01*
X101176416Y-126399867D01*
X101176416Y-126314684D01*
X101202171Y-126263174D01*
X101221410Y-126243935D01*
X101272920Y-126218180D01*
X101503246Y-126218180D01*
X101554756Y-126243935D01*
G37*
G36*
X102868871Y-126496371D02*
G01*
X102860242Y-126496371D01*
X102828160Y-126480330D01*
X102812119Y-126448248D01*
X102812119Y-126314684D01*
X102826700Y-126285520D01*
X102868871Y-126496371D01*
G37*
G36*
X101554756Y-125324697D02*
G01*
X101573993Y-125343934D01*
X101599749Y-125395446D01*
X101599749Y-125480628D01*
X101573993Y-125532140D01*
X101554756Y-125551378D01*
X101503246Y-125577133D01*
X101272920Y-125577133D01*
X101221410Y-125551378D01*
X101202171Y-125532139D01*
X101176416Y-125480629D01*
X101176416Y-125395446D01*
X101202171Y-125343936D01*
X101221410Y-125324697D01*
X101272920Y-125298942D01*
X101503246Y-125298942D01*
X101554756Y-125324697D01*
G37*
G36*
X103190459Y-123776507D02*
G01*
X103209696Y-123795744D01*
X103235452Y-123847256D01*
X103235452Y-123980819D01*
X103209696Y-124032331D01*
X103190459Y-124051569D01*
X103138949Y-124077324D01*
X102957004Y-124077324D01*
X102905494Y-124051569D01*
X102886255Y-124032330D01*
X102860500Y-123980820D01*
X102860500Y-123847256D01*
X102886255Y-123795746D01*
X102905494Y-123776507D01*
X102957004Y-123750752D01*
X103138949Y-123750752D01*
X103190459Y-123776507D01*
G37*
G36*
X101554756Y-118551364D02*
G01*
X101573993Y-118570601D01*
X101599749Y-118622113D01*
X101599749Y-118707295D01*
X101573993Y-118758807D01*
X101554756Y-118778045D01*
X101503246Y-118803800D01*
X101272920Y-118803800D01*
X101221410Y-118778045D01*
X101202171Y-118758806D01*
X101176416Y-118707296D01*
X101176416Y-118622113D01*
X101202171Y-118570603D01*
X101221410Y-118551364D01*
X101272920Y-118525609D01*
X101503246Y-118525609D01*
X101554756Y-118551364D01*
G37*
G36*
X101233168Y-115610657D02*
G01*
X101224539Y-115610657D01*
X101192457Y-115594616D01*
X101176416Y-115562534D01*
X101176416Y-115428970D01*
X101190997Y-115399806D01*
X101233168Y-115610657D01*
G37*
G36*
X101554756Y-111052317D02*
G01*
X101573993Y-111071554D01*
X101599749Y-111123066D01*
X101599749Y-111208248D01*
X101573993Y-111259760D01*
X101554756Y-111278998D01*
X101503246Y-111304753D01*
X101272920Y-111304753D01*
X101221410Y-111278998D01*
X101202171Y-111259759D01*
X101176416Y-111208249D01*
X101176416Y-111123066D01*
X101202171Y-111071556D01*
X101221410Y-111052317D01*
X101272920Y-111026562D01*
X101503246Y-111026562D01*
X101554756Y-111052317D01*
G37*
G36*
X101554756Y-108149460D02*
G01*
X101573993Y-108168697D01*
X101599749Y-108220209D01*
X101599749Y-108305391D01*
X101573993Y-108356903D01*
X101554756Y-108376141D01*
X101503246Y-108401896D01*
X101272920Y-108401896D01*
X101221410Y-108376141D01*
X101202171Y-108356902D01*
X101176416Y-108305392D01*
X101176416Y-108220209D01*
X101202171Y-108168699D01*
X101221410Y-108149460D01*
X101272920Y-108123705D01*
X101503246Y-108123705D01*
X101554756Y-108149460D01*
G37*
G36*
X103616452Y-127844990D02*
G01*
X100456749Y-127844990D01*
X100456749Y-127203942D01*
X100583749Y-127203942D01*
X100583749Y-127590990D01*
X100586189Y-127615766D01*
X100605152Y-127661547D01*
X100640192Y-127696587D01*
X100685973Y-127715550D01*
X100710749Y-127717990D01*
X101726749Y-127717990D01*
X101751525Y-127715550D01*
X101797306Y-127696587D01*
X101832346Y-127661547D01*
X101851309Y-127615766D01*
X101851309Y-127566214D01*
X101832346Y-127520433D01*
X101797306Y-127485393D01*
X101751525Y-127466430D01*
X101726749Y-127463990D01*
X101369940Y-127463990D01*
X101369940Y-127415207D01*
X101671747Y-127203942D01*
X102219452Y-127203942D01*
X102219452Y-127590990D01*
X102221892Y-127615766D01*
X102240855Y-127661547D01*
X102275895Y-127696587D01*
X102321676Y-127715550D01*
X102346452Y-127717990D01*
X103362452Y-127717990D01*
X103387228Y-127715550D01*
X103433009Y-127696587D01*
X103468049Y-127661547D01*
X103487012Y-127615766D01*
X103487012Y-127566214D01*
X103468049Y-127520433D01*
X103433009Y-127485393D01*
X103387228Y-127466430D01*
X103362452Y-127463990D01*
X103005643Y-127463990D01*
X103005643Y-127415207D01*
X103435282Y-127114460D01*
X103454180Y-127098253D01*
X103480811Y-127056464D01*
X103489423Y-127007664D01*
X103478704Y-126959284D01*
X103450288Y-126918690D01*
X103408499Y-126892059D01*
X103359699Y-126883448D01*
X103311319Y-126894166D01*
X103289623Y-126906375D01*
X102980161Y-127122998D01*
X102943854Y-127050384D01*
X102937140Y-127039719D01*
X102935858Y-127036622D01*
X102932996Y-127033135D01*
X102930592Y-127029315D01*
X102928058Y-127027117D01*
X102920065Y-127017377D01*
X102871684Y-126968996D01*
X102861943Y-126961002D01*
X102859746Y-126958469D01*
X102855925Y-126956064D01*
X102852439Y-126953203D01*
X102849341Y-126951920D01*
X102838677Y-126945207D01*
X102741915Y-126896826D01*
X102718664Y-126887928D01*
X102714111Y-126887604D01*
X102709895Y-126885858D01*
X102685119Y-126883418D01*
X102539976Y-126883418D01*
X102515200Y-126885858D01*
X102510983Y-126887604D01*
X102506431Y-126887928D01*
X102483180Y-126896826D01*
X102386418Y-126945207D01*
X102375753Y-126951920D01*
X102372656Y-126953203D01*
X102369169Y-126956064D01*
X102365349Y-126958469D01*
X102363151Y-126961002D01*
X102353411Y-126968996D01*
X102305030Y-127017377D01*
X102297036Y-127027117D01*
X102294503Y-127029315D01*
X102292098Y-127033135D01*
X102289237Y-127036622D01*
X102287954Y-127039719D01*
X102281241Y-127050384D01*
X102232860Y-127147146D01*
X102223962Y-127170397D01*
X102223638Y-127174949D01*
X102221892Y-127179166D01*
X102219452Y-127203942D01*
X101671747Y-127203942D01*
X101799579Y-127114460D01*
X101818477Y-127098253D01*
X101845108Y-127056464D01*
X101853720Y-127007664D01*
X101843001Y-126959284D01*
X101814585Y-126918690D01*
X101772796Y-126892059D01*
X101723996Y-126883448D01*
X101675616Y-126894166D01*
X101653920Y-126906375D01*
X101344458Y-127122998D01*
X101308151Y-127050384D01*
X101301437Y-127039719D01*
X101300155Y-127036622D01*
X101297293Y-127033135D01*
X101294889Y-127029315D01*
X101292355Y-127027117D01*
X101284362Y-127017377D01*
X101235981Y-126968996D01*
X101226240Y-126961002D01*
X101224043Y-126958469D01*
X101220222Y-126956064D01*
X101216736Y-126953203D01*
X101213638Y-126951920D01*
X101202974Y-126945207D01*
X101106212Y-126896826D01*
X101082961Y-126887928D01*
X101078408Y-126887604D01*
X101074192Y-126885858D01*
X101049416Y-126883418D01*
X100904273Y-126883418D01*
X100879497Y-126885858D01*
X100875280Y-126887604D01*
X100870728Y-126887928D01*
X100847477Y-126896826D01*
X100750715Y-126945207D01*
X100740050Y-126951920D01*
X100736953Y-126953203D01*
X100733466Y-126956064D01*
X100729646Y-126958469D01*
X100727448Y-126961002D01*
X100717708Y-126968996D01*
X100669327Y-127017377D01*
X100661333Y-127027117D01*
X100658800Y-127029315D01*
X100656395Y-127033135D01*
X100653534Y-127036622D01*
X100652251Y-127039719D01*
X100645538Y-127050384D01*
X100597157Y-127147146D01*
X100588259Y-127170397D01*
X100587935Y-127174949D01*
X100586189Y-127179166D01*
X100583749Y-127203942D01*
X100456749Y-127203942D01*
X100456749Y-126284704D01*
X100922416Y-126284704D01*
X100922416Y-126429847D01*
X100924856Y-126454623D01*
X100926602Y-126458839D01*
X100926926Y-126463392D01*
X100935824Y-126486643D01*
X100984205Y-126583405D01*
X100990918Y-126594069D01*
X100992201Y-126597167D01*
X100995062Y-126600653D01*
X100997467Y-126604474D01*
X101000000Y-126606671D01*
X101007994Y-126616412D01*
X101056375Y-126664793D01*
X101066115Y-126672786D01*
X101068313Y-126675320D01*
X101072133Y-126677724D01*
X101075620Y-126680586D01*
X101078717Y-126681868D01*
X101089382Y-126688582D01*
X101186144Y-126736963D01*
X101209395Y-126745861D01*
X101213947Y-126746184D01*
X101218164Y-126747931D01*
X101242940Y-126750371D01*
X101533226Y-126750371D01*
X101558002Y-126747931D01*
X101562218Y-126746184D01*
X101566771Y-126745861D01*
X101590022Y-126736963D01*
X101686784Y-126688582D01*
X101697448Y-126681868D01*
X101700546Y-126680586D01*
X101704032Y-126677724D01*
X101707853Y-126675320D01*
X101710050Y-126672786D01*
X101719791Y-126664793D01*
X101768172Y-126616412D01*
X101776168Y-126606668D01*
X101778699Y-126604473D01*
X101781101Y-126600656D01*
X101783965Y-126597167D01*
X101785248Y-126594069D01*
X101791962Y-126583404D01*
X101840342Y-126486642D01*
X101849239Y-126463390D01*
X101849562Y-126458839D01*
X101851309Y-126454623D01*
X101853749Y-126429847D01*
X101853749Y-126284704D01*
X102558119Y-126284704D01*
X102558119Y-126478228D01*
X102560559Y-126503004D01*
X102562305Y-126507220D01*
X102562629Y-126511773D01*
X102571527Y-126535024D01*
X102619908Y-126631786D01*
X102622514Y-126635926D01*
X102623167Y-126637885D01*
X102625282Y-126640323D01*
X102633170Y-126652855D01*
X102645199Y-126663288D01*
X102655635Y-126675320D01*
X102668170Y-126683210D01*
X102670605Y-126685322D01*
X102672560Y-126685973D01*
X102676704Y-126688582D01*
X102773466Y-126736963D01*
X102796717Y-126745861D01*
X102801269Y-126746184D01*
X102805486Y-126747931D01*
X102830262Y-126750371D01*
X103023919Y-126750371D01*
X103217310Y-126750371D01*
X103242086Y-126747931D01*
X103246302Y-126746184D01*
X103250855Y-126745861D01*
X103274106Y-126736963D01*
X103370868Y-126688582D01*
X103375010Y-126685974D01*
X103376968Y-126685322D01*
X103379404Y-126683208D01*
X103391937Y-126675320D01*
X103402372Y-126663287D01*
X103414402Y-126652854D01*
X103422292Y-126640319D01*
X103424404Y-126637885D01*
X103425055Y-126635930D01*
X103427665Y-126631785D01*
X103476045Y-126535023D01*
X103484942Y-126511771D01*
X103485265Y-126507220D01*
X103487012Y-126503004D01*
X103489452Y-126478228D01*
X103489452Y-126284704D01*
X103487012Y-126259928D01*
X103485265Y-126255711D01*
X103484942Y-126251161D01*
X103476045Y-126227909D01*
X103427665Y-126131147D01*
X103414402Y-126110078D01*
X103376968Y-126077610D01*
X103329957Y-126061939D01*
X103280528Y-126065452D01*
X103236208Y-126087612D01*
X103203740Y-126125046D01*
X103188069Y-126172057D01*
X103191582Y-126221486D01*
X103200479Y-126244737D01*
X103235452Y-126314684D01*
X103235452Y-126448247D01*
X103219410Y-126480330D01*
X103187330Y-126496371D01*
X103127901Y-126496371D01*
X103051558Y-126114654D01*
X103044306Y-126090838D01*
X103037382Y-126080499D01*
X103032621Y-126069004D01*
X103023729Y-126060112D01*
X103016733Y-126049665D01*
X103006379Y-126042762D01*
X102997581Y-126033964D01*
X102985965Y-126029152D01*
X102975502Y-126022177D01*
X102963294Y-126019762D01*
X102951800Y-126015001D01*
X102927024Y-126012561D01*
X102830262Y-126012561D01*
X102805486Y-126015001D01*
X102801269Y-126016747D01*
X102796717Y-126017071D01*
X102773466Y-126025969D01*
X102676704Y-126074350D01*
X102672560Y-126076958D01*
X102670605Y-126077610D01*
X102668170Y-126079721D01*
X102655635Y-126087612D01*
X102645199Y-126099643D01*
X102633170Y-126110077D01*
X102625282Y-126122608D01*
X102623167Y-126125047D01*
X102622514Y-126127005D01*
X102619908Y-126131146D01*
X102571527Y-126227908D01*
X102562629Y-126251159D01*
X102562305Y-126255711D01*
X102560559Y-126259928D01*
X102558119Y-126284704D01*
X101853749Y-126284704D01*
X101851309Y-126259928D01*
X101849562Y-126255711D01*
X101849239Y-126251161D01*
X101840342Y-126227909D01*
X101791962Y-126131147D01*
X101785248Y-126120481D01*
X101783965Y-126117384D01*
X101781101Y-126113894D01*
X101778699Y-126110078D01*
X101776168Y-126107882D01*
X101768172Y-126098139D01*
X101719791Y-126049758D01*
X101710050Y-126041764D01*
X101707853Y-126039231D01*
X101704032Y-126036826D01*
X101700546Y-126033965D01*
X101697448Y-126032682D01*
X101686784Y-126025969D01*
X101590022Y-125977588D01*
X101566771Y-125968690D01*
X101562218Y-125968366D01*
X101558002Y-125966620D01*
X101533226Y-125964180D01*
X101242940Y-125964180D01*
X101218164Y-125966620D01*
X101213947Y-125968366D01*
X101209395Y-125968690D01*
X101186144Y-125977588D01*
X101089382Y-126025969D01*
X101078717Y-126032682D01*
X101075620Y-126033965D01*
X101072133Y-126036826D01*
X101068313Y-126039231D01*
X101066115Y-126041764D01*
X101056375Y-126049758D01*
X101007994Y-126098139D01*
X101000000Y-126107879D01*
X100997467Y-126110077D01*
X100995062Y-126113897D01*
X100992201Y-126117384D01*
X100990918Y-126120481D01*
X100984205Y-126131146D01*
X100935824Y-126227908D01*
X100926926Y-126251159D01*
X100926602Y-126255711D01*
X100924856Y-126259928D01*
X100922416Y-126284704D01*
X100456749Y-126284704D01*
X100456749Y-125365466D01*
X100922416Y-125365466D01*
X100922416Y-125510609D01*
X100924856Y-125535385D01*
X100926602Y-125539601D01*
X100926926Y-125544154D01*
X100935824Y-125567405D01*
X100984205Y-125664167D01*
X100990918Y-125674831D01*
X100992201Y-125677929D01*
X100995062Y-125681415D01*
X100997467Y-125685236D01*
X101000000Y-125687433D01*
X101007994Y-125697174D01*
X101056375Y-125745555D01*
X101066115Y-125753548D01*
X101068313Y-125756082D01*
X101072133Y-125758486D01*
X101075620Y-125761348D01*
X101078717Y-125762630D01*
X101089382Y-125769344D01*
X101186144Y-125817725D01*
X101209395Y-125826623D01*
X101213947Y-125826946D01*
X101218164Y-125828693D01*
X101242940Y-125831133D01*
X101533226Y-125831133D01*
X101558002Y-125828693D01*
X101562218Y-125826946D01*
X101566771Y-125826623D01*
X101590022Y-125817725D01*
X101686784Y-125769344D01*
X101697448Y-125762630D01*
X101700546Y-125761348D01*
X101704032Y-125758486D01*
X101707853Y-125756082D01*
X101710050Y-125753548D01*
X101719791Y-125745555D01*
X101768172Y-125697174D01*
X101776168Y-125687430D01*
X101778699Y-125685235D01*
X101781101Y-125681418D01*
X101783965Y-125677929D01*
X101785248Y-125674831D01*
X101791962Y-125664166D01*
X101840342Y-125567404D01*
X101849239Y-125544152D01*
X101849562Y-125539601D01*
X101851309Y-125535385D01*
X101853749Y-125510609D01*
X101853749Y-125365466D01*
X101851309Y-125340690D01*
X101849562Y-125336473D01*
X101849239Y-125331923D01*
X101840342Y-125308671D01*
X101835268Y-125298523D01*
X102559483Y-125298523D01*
X102561943Y-125348015D01*
X102583156Y-125392799D01*
X102619892Y-125426055D01*
X102642404Y-125436686D01*
X102984854Y-125558990D01*
X102642404Y-125681294D01*
X102619892Y-125691925D01*
X102583156Y-125725181D01*
X102561943Y-125769965D01*
X102559483Y-125819457D01*
X102576149Y-125866122D01*
X102609405Y-125902858D01*
X102654189Y-125924071D01*
X102703681Y-125926531D01*
X102727834Y-125920496D01*
X103405166Y-125678591D01*
X103427678Y-125667960D01*
X103432402Y-125663682D01*
X103438166Y-125660953D01*
X103450642Y-125647170D01*
X103464414Y-125634704D01*
X103467142Y-125628944D01*
X103471422Y-125624217D01*
X103477673Y-125606712D01*
X103485628Y-125589920D01*
X103485944Y-125583553D01*
X103488088Y-125577551D01*
X103487165Y-125558990D01*
X103488088Y-125540429D01*
X103485944Y-125534426D01*
X103485628Y-125528060D01*
X103477673Y-125511267D01*
X103471422Y-125493763D01*
X103467142Y-125489035D01*
X103464414Y-125483276D01*
X103450642Y-125470809D01*
X103438166Y-125457027D01*
X103432402Y-125454297D01*
X103427678Y-125450020D01*
X103405166Y-125439389D01*
X102727834Y-125197484D01*
X102703681Y-125191449D01*
X102654189Y-125193909D01*
X102609405Y-125215122D01*
X102576149Y-125251858D01*
X102559483Y-125298523D01*
X101835268Y-125298523D01*
X101791962Y-125211909D01*
X101785248Y-125201243D01*
X101783965Y-125198146D01*
X101781101Y-125194656D01*
X101778699Y-125190840D01*
X101776168Y-125188644D01*
X101768172Y-125178901D01*
X101719791Y-125130520D01*
X101710050Y-125122526D01*
X101707853Y-125119993D01*
X101704032Y-125117588D01*
X101700546Y-125114727D01*
X101697448Y-125113444D01*
X101686784Y-125106731D01*
X101590022Y-125058350D01*
X101566771Y-125049452D01*
X101562218Y-125049128D01*
X101558002Y-125047382D01*
X101533226Y-125044942D01*
X101242940Y-125044942D01*
X101218164Y-125047382D01*
X101213947Y-125049128D01*
X101209395Y-125049452D01*
X101186144Y-125058350D01*
X101089382Y-125106731D01*
X101078717Y-125113444D01*
X101075620Y-125114727D01*
X101072133Y-125117588D01*
X101068313Y-125119993D01*
X101066115Y-125122526D01*
X101056375Y-125130520D01*
X101007994Y-125178901D01*
X101000000Y-125188641D01*
X100997467Y-125190839D01*
X100995062Y-125194659D01*
X100992201Y-125198146D01*
X100990918Y-125201243D01*
X100984205Y-125211908D01*
X100935824Y-125308670D01*
X100926926Y-125331921D01*
X100926602Y-125336473D01*
X100924856Y-125340690D01*
X100922416Y-125365466D01*
X100456749Y-125365466D01*
X100456749Y-124010799D01*
X100922416Y-124010799D01*
X100922416Y-124155942D01*
X100924856Y-124180718D01*
X100926602Y-124184934D01*
X100926926Y-124189487D01*
X100935824Y-124212738D01*
X100979997Y-124301085D01*
X100935824Y-124389432D01*
X100926926Y-124412683D01*
X100926602Y-124417235D01*
X100924856Y-124421452D01*
X100922416Y-124446228D01*
X100922416Y-124591371D01*
X100924856Y-124616147D01*
X100926602Y-124620363D01*
X100926926Y-124624916D01*
X100935824Y-124648167D01*
X100944419Y-124665357D01*
X100943819Y-124665957D01*
X100924856Y-124711738D01*
X100924856Y-124761290D01*
X100943819Y-124807071D01*
X100978859Y-124842111D01*
X101024640Y-124861074D01*
X101049416Y-124863514D01*
X101726749Y-124863514D01*
X101751525Y-124861074D01*
X101797306Y-124842111D01*
X101832346Y-124807071D01*
X101851309Y-124761290D01*
X101851309Y-124711738D01*
X101832346Y-124665957D01*
X101797306Y-124630917D01*
X101751525Y-124611954D01*
X101726749Y-124609514D01*
X101200477Y-124609514D01*
X101176416Y-124561391D01*
X101176416Y-124476208D01*
X101192457Y-124444126D01*
X101224539Y-124428085D01*
X101726749Y-124428085D01*
X101751525Y-124425645D01*
X101797306Y-124406682D01*
X101832346Y-124371642D01*
X101851309Y-124325861D01*
X101851309Y-124276309D01*
X101832346Y-124230528D01*
X101797306Y-124195488D01*
X101751525Y-124176525D01*
X101726749Y-124174085D01*
X101224539Y-124174085D01*
X101192457Y-124158044D01*
X101176416Y-124125962D01*
X101176416Y-124040780D01*
X101192457Y-124008697D01*
X101224539Y-123992657D01*
X101726749Y-123992657D01*
X101751525Y-123990217D01*
X101797306Y-123971254D01*
X101832346Y-123936214D01*
X101851309Y-123890433D01*
X101851309Y-123840881D01*
X101832346Y-123795100D01*
X101797306Y-123760060D01*
X101751525Y-123741097D01*
X101726749Y-123738657D01*
X101194559Y-123738657D01*
X101169783Y-123741097D01*
X101165566Y-123742843D01*
X101161014Y-123743167D01*
X101137763Y-123752065D01*
X101041001Y-123800446D01*
X101036856Y-123803054D01*
X101034903Y-123803706D01*
X101032470Y-123805815D01*
X101019932Y-123813708D01*
X101009495Y-123825741D01*
X100997467Y-123836173D01*
X100989579Y-123848704D01*
X100987464Y-123851143D01*
X100986811Y-123853101D01*
X100984205Y-123857242D01*
X100935824Y-123954002D01*
X100926926Y-123977254D01*
X100926602Y-123981806D01*
X100924856Y-123986023D01*
X100922416Y-124010799D01*
X100456749Y-124010799D01*
X100456749Y-123720514D01*
X102219452Y-123720514D01*
X102219452Y-123914038D01*
X102221892Y-123938814D01*
X102223638Y-123943030D01*
X102223962Y-123947583D01*
X102232860Y-123970834D01*
X102281241Y-124067596D01*
X102287954Y-124078260D01*
X102289237Y-124081358D01*
X102292098Y-124084844D01*
X102294503Y-124088665D01*
X102297036Y-124090862D01*
X102305030Y-124100603D01*
X102353411Y-124148984D01*
X102353482Y-124149042D01*
X102353506Y-124149078D01*
X102362831Y-124156714D01*
X102372656Y-124164777D01*
X102372697Y-124164794D01*
X102372767Y-124164851D01*
X102517910Y-124261613D01*
X102531589Y-124268906D01*
X102534111Y-124270775D01*
X102537089Y-124271839D01*
X102539878Y-124273326D01*
X102542954Y-124273934D01*
X102557555Y-124279151D01*
X102751079Y-124327532D01*
X102755374Y-124328167D01*
X102757105Y-124328884D01*
X102766434Y-124329802D01*
X102775707Y-124331174D01*
X102777559Y-124330898D01*
X102781881Y-124331324D01*
X103168929Y-124331324D01*
X103193705Y-124328884D01*
X103197921Y-124327137D01*
X103202474Y-124326814D01*
X103225725Y-124317916D01*
X103322487Y-124269535D01*
X103333151Y-124262821D01*
X103336249Y-124261539D01*
X103339735Y-124258677D01*
X103343556Y-124256273D01*
X103345753Y-124253739D01*
X103355494Y-124245746D01*
X103403875Y-124197365D01*
X103411871Y-124187621D01*
X103414402Y-124185426D01*
X103416804Y-124181609D01*
X103419668Y-124178120D01*
X103420951Y-124175022D01*
X103427665Y-124164357D01*
X103476045Y-124067595D01*
X103484942Y-124044343D01*
X103485265Y-124039792D01*
X103487012Y-124035576D01*
X103489452Y-124010800D01*
X103489452Y-123817276D01*
X103487012Y-123792500D01*
X103485265Y-123788283D01*
X103484942Y-123783733D01*
X103476045Y-123760481D01*
X103427665Y-123663719D01*
X103420951Y-123653053D01*
X103419668Y-123649956D01*
X103416804Y-123646466D01*
X103414402Y-123642650D01*
X103411871Y-123640454D01*
X103403875Y-123630711D01*
X103355494Y-123582330D01*
X103345753Y-123574336D01*
X103343556Y-123571803D01*
X103339735Y-123569398D01*
X103336249Y-123566537D01*
X103333151Y-123565254D01*
X103322487Y-123558541D01*
X103225725Y-123510160D01*
X103202474Y-123501262D01*
X103197921Y-123500938D01*
X103193705Y-123499192D01*
X103168929Y-123496752D01*
X102927024Y-123496752D01*
X102902248Y-123499192D01*
X102898031Y-123500938D01*
X102893479Y-123501262D01*
X102870228Y-123510160D01*
X102773466Y-123558541D01*
X102762801Y-123565254D01*
X102759704Y-123566537D01*
X102756217Y-123569398D01*
X102752397Y-123571803D01*
X102750199Y-123574336D01*
X102740459Y-123582330D01*
X102692078Y-123630711D01*
X102684084Y-123640451D01*
X102681551Y-123642649D01*
X102679146Y-123646469D01*
X102676285Y-123649956D01*
X102675002Y-123653053D01*
X102668289Y-123663718D01*
X102619908Y-123760480D01*
X102611010Y-123783731D01*
X102610686Y-123788283D01*
X102608940Y-123792500D01*
X102606500Y-123817276D01*
X102606500Y-124010800D01*
X102606985Y-124015727D01*
X102524128Y-123960489D01*
X102499207Y-123935568D01*
X102473452Y-123884058D01*
X102473452Y-123720514D01*
X102471012Y-123695738D01*
X102452049Y-123649957D01*
X102417009Y-123614917D01*
X102371228Y-123595954D01*
X102321676Y-123595954D01*
X102275895Y-123614917D01*
X102240855Y-123649957D01*
X102221892Y-123695738D01*
X102219452Y-123720514D01*
X100456749Y-123720514D01*
X100456749Y-122123942D01*
X100583749Y-122123942D01*
X100583749Y-122607752D01*
X100586189Y-122632528D01*
X100605152Y-122678309D01*
X100640192Y-122713349D01*
X100685973Y-122732312D01*
X100710749Y-122734752D01*
X101726749Y-122734752D01*
X101751525Y-122732312D01*
X101797306Y-122713349D01*
X101832346Y-122678309D01*
X101851309Y-122632528D01*
X101853749Y-122607752D01*
X101853749Y-122123942D01*
X101851309Y-122099166D01*
X101832346Y-122053385D01*
X101797306Y-122018345D01*
X101751525Y-121999382D01*
X101701973Y-121999382D01*
X101656192Y-122018345D01*
X101621152Y-122053385D01*
X101602189Y-122099166D01*
X101599749Y-122123942D01*
X101599749Y-122480752D01*
X101321559Y-122480752D01*
X101321559Y-122269085D01*
X101319119Y-122244309D01*
X101300156Y-122198528D01*
X101265116Y-122163488D01*
X101219335Y-122144525D01*
X101169783Y-122144525D01*
X101124002Y-122163488D01*
X101088962Y-122198528D01*
X101069999Y-122244309D01*
X101067559Y-122269085D01*
X101067559Y-122480752D01*
X100837749Y-122480752D01*
X100837749Y-122123942D01*
X100835309Y-122099166D01*
X100816346Y-122053385D01*
X100781306Y-122018345D01*
X100735525Y-121999382D01*
X100685973Y-121999382D01*
X100640192Y-122018345D01*
X100605152Y-122053385D01*
X100586189Y-122099166D01*
X100583749Y-122123942D01*
X100456749Y-122123942D01*
X100456749Y-121398228D01*
X100922416Y-121398228D01*
X100922416Y-121543371D01*
X100924856Y-121568147D01*
X100926602Y-121572363D01*
X100926926Y-121576916D01*
X100935824Y-121600167D01*
X100944419Y-121617357D01*
X100943819Y-121617957D01*
X100924856Y-121663738D01*
X100924856Y-121713290D01*
X100943819Y-121759071D01*
X100978859Y-121794111D01*
X101024640Y-121813074D01*
X101049416Y-121815514D01*
X101726749Y-121815514D01*
X101751525Y-121813074D01*
X101797306Y-121794111D01*
X101832346Y-121759071D01*
X101851309Y-121713290D01*
X101851309Y-121663738D01*
X101832346Y-121617957D01*
X101797306Y-121582917D01*
X101751525Y-121563954D01*
X101726749Y-121561514D01*
X101200477Y-121561514D01*
X101176416Y-121513391D01*
X101176416Y-121428208D01*
X101192457Y-121396126D01*
X101224539Y-121380085D01*
X101726749Y-121380085D01*
X101751525Y-121377645D01*
X101797306Y-121358682D01*
X101832346Y-121323642D01*
X101851309Y-121277861D01*
X101851309Y-121228309D01*
X101832346Y-121182528D01*
X101797306Y-121147488D01*
X101751525Y-121128525D01*
X101726749Y-121126085D01*
X101194559Y-121126085D01*
X101169783Y-121128525D01*
X101165566Y-121130271D01*
X101161014Y-121130595D01*
X101137763Y-121139493D01*
X101041001Y-121187874D01*
X101036857Y-121190482D01*
X101034902Y-121191134D01*
X101032467Y-121193245D01*
X101019932Y-121201136D01*
X101009496Y-121213167D01*
X100997467Y-121223601D01*
X100989579Y-121236132D01*
X100987464Y-121238571D01*
X100986811Y-121240529D01*
X100984205Y-121244670D01*
X100935824Y-121341432D01*
X100926926Y-121364683D01*
X100926602Y-121369235D01*
X100924856Y-121373452D01*
X100922416Y-121398228D01*
X100456749Y-121398228D01*
X100456749Y-120363666D01*
X100923780Y-120363666D01*
X100926240Y-120413158D01*
X100947453Y-120457942D01*
X100984189Y-120491198D01*
X101006701Y-120501829D01*
X101349151Y-120624133D01*
X101006701Y-120746437D01*
X100984189Y-120757068D01*
X100947453Y-120790324D01*
X100926240Y-120835108D01*
X100923780Y-120884600D01*
X100940446Y-120931265D01*
X100973702Y-120968001D01*
X101018486Y-120989214D01*
X101067978Y-120991674D01*
X101092131Y-120985639D01*
X101769463Y-120743734D01*
X101791975Y-120733103D01*
X101796699Y-120728825D01*
X101802463Y-120726096D01*
X101814939Y-120712313D01*
X101828711Y-120699847D01*
X101831439Y-120694087D01*
X101835719Y-120689360D01*
X101841970Y-120671855D01*
X101849925Y-120655063D01*
X101850241Y-120648696D01*
X101852385Y-120642694D01*
X101851462Y-120624133D01*
X101852385Y-120605572D01*
X101850241Y-120599569D01*
X101849925Y-120593203D01*
X101841970Y-120576410D01*
X101835719Y-120558906D01*
X101831439Y-120554178D01*
X101828711Y-120548419D01*
X101814939Y-120535952D01*
X101802463Y-120522170D01*
X101796699Y-120519440D01*
X101791975Y-120515163D01*
X101769463Y-120504532D01*
X101092131Y-120262627D01*
X101067978Y-120256592D01*
X101018486Y-120259052D01*
X100973702Y-120280265D01*
X100940446Y-120317001D01*
X100923780Y-120363666D01*
X100456749Y-120363666D01*
X100456749Y-119970405D01*
X100586189Y-119970405D01*
X100586189Y-120019957D01*
X100605152Y-120065738D01*
X100605153Y-120065739D01*
X100620946Y-120084984D01*
X100669327Y-120133365D01*
X100688572Y-120149158D01*
X100734353Y-120168122D01*
X100783907Y-120168122D01*
X100829688Y-120149158D01*
X100848933Y-120133365D01*
X100897314Y-120084984D01*
X100913107Y-120065739D01*
X100913108Y-120065738D01*
X100928463Y-120028666D01*
X100943819Y-120065738D01*
X100978859Y-120100778D01*
X101024640Y-120119741D01*
X101049416Y-120122181D01*
X101726749Y-120122181D01*
X101751525Y-120119741D01*
X101797306Y-120100778D01*
X101832346Y-120065738D01*
X101851309Y-120019957D01*
X101851309Y-119970405D01*
X101832346Y-119924624D01*
X101797306Y-119889584D01*
X101751525Y-119870621D01*
X101726749Y-119868181D01*
X101049416Y-119868181D01*
X101024640Y-119870621D01*
X100978859Y-119889584D01*
X100943819Y-119924624D01*
X100928463Y-119961695D01*
X100913108Y-119924624D01*
X100913107Y-119924623D01*
X100897314Y-119905378D01*
X100848933Y-119856997D01*
X100829688Y-119841204D01*
X100783907Y-119822240D01*
X100734353Y-119822240D01*
X100688572Y-119841204D01*
X100669327Y-119856997D01*
X100620946Y-119905378D01*
X100605153Y-119924623D01*
X100605152Y-119924624D01*
X100586189Y-119970405D01*
X100456749Y-119970405D01*
X100456749Y-119221085D01*
X100922416Y-119221085D01*
X100922416Y-119317847D01*
X100924856Y-119342623D01*
X100926602Y-119346839D01*
X100926926Y-119351392D01*
X100935824Y-119374643D01*
X100960546Y-119424087D01*
X100943819Y-119440814D01*
X100924856Y-119486595D01*
X100924856Y-119536147D01*
X100943819Y-119581928D01*
X100978859Y-119616968D01*
X101024640Y-119635931D01*
X101049416Y-119638371D01*
X101726749Y-119638371D01*
X101751525Y-119635931D01*
X101797306Y-119616968D01*
X101832346Y-119581928D01*
X101851309Y-119536147D01*
X101851309Y-119486595D01*
X101832346Y-119440814D01*
X101797306Y-119405774D01*
X101751525Y-119386811D01*
X101726749Y-119384371D01*
X101272920Y-119384371D01*
X101221410Y-119358616D01*
X101202171Y-119339377D01*
X101176416Y-119287867D01*
X101176416Y-119221085D01*
X101173976Y-119196309D01*
X101155013Y-119150528D01*
X101119973Y-119115488D01*
X101074192Y-119096525D01*
X101024640Y-119096525D01*
X100978859Y-119115488D01*
X100943819Y-119150528D01*
X100924856Y-119196309D01*
X100922416Y-119221085D01*
X100456749Y-119221085D01*
X100456749Y-118592133D01*
X100922416Y-118592133D01*
X100922416Y-118737276D01*
X100924856Y-118762052D01*
X100926602Y-118766268D01*
X100926926Y-118770821D01*
X100935824Y-118794072D01*
X100984205Y-118890834D01*
X100990918Y-118901498D01*
X100992201Y-118904596D01*
X100995062Y-118908082D01*
X100997467Y-118911903D01*
X101000000Y-118914100D01*
X101007994Y-118923841D01*
X101056375Y-118972222D01*
X101066115Y-118980215D01*
X101068313Y-118982749D01*
X101072133Y-118985153D01*
X101075620Y-118988015D01*
X101078717Y-118989297D01*
X101089382Y-118996011D01*
X101186144Y-119044392D01*
X101209395Y-119053290D01*
X101213947Y-119053613D01*
X101218164Y-119055360D01*
X101242940Y-119057800D01*
X101533226Y-119057800D01*
X101558002Y-119055360D01*
X101562218Y-119053613D01*
X101566771Y-119053290D01*
X101590022Y-119044392D01*
X101686784Y-118996011D01*
X101697448Y-118989297D01*
X101700546Y-118988015D01*
X101704032Y-118985153D01*
X101707853Y-118982749D01*
X101710050Y-118980215D01*
X101719791Y-118972222D01*
X101768172Y-118923841D01*
X101776168Y-118914097D01*
X101778699Y-118911902D01*
X101781101Y-118908085D01*
X101783965Y-118904596D01*
X101785248Y-118901498D01*
X101791962Y-118890833D01*
X101840342Y-118794071D01*
X101849239Y-118770819D01*
X101849562Y-118766268D01*
X101851309Y-118762052D01*
X101853749Y-118737276D01*
X101853749Y-118592133D01*
X101851309Y-118567357D01*
X101849562Y-118563140D01*
X101849239Y-118558590D01*
X101840342Y-118535338D01*
X101791962Y-118438576D01*
X101785248Y-118427910D01*
X101783965Y-118424813D01*
X101781101Y-118421323D01*
X101778699Y-118417507D01*
X101776168Y-118415311D01*
X101768172Y-118405568D01*
X101719791Y-118357187D01*
X101710050Y-118349193D01*
X101707853Y-118346660D01*
X101704032Y-118344255D01*
X101700546Y-118341394D01*
X101697448Y-118340111D01*
X101686784Y-118333398D01*
X101590022Y-118285017D01*
X101566771Y-118276119D01*
X101562218Y-118275795D01*
X101558002Y-118274049D01*
X101533226Y-118271609D01*
X101242940Y-118271609D01*
X101218164Y-118274049D01*
X101213947Y-118275795D01*
X101209395Y-118276119D01*
X101186144Y-118285017D01*
X101089382Y-118333398D01*
X101078717Y-118340111D01*
X101075620Y-118341394D01*
X101072133Y-118344255D01*
X101068313Y-118346660D01*
X101066115Y-118349193D01*
X101056375Y-118357187D01*
X101007994Y-118405568D01*
X101000000Y-118415308D01*
X100997467Y-118417506D01*
X100995062Y-118421326D01*
X100992201Y-118424813D01*
X100990918Y-118427910D01*
X100984205Y-118438575D01*
X100935824Y-118535337D01*
X100926926Y-118558588D01*
X100926602Y-118563140D01*
X100924856Y-118567357D01*
X100922416Y-118592133D01*
X100456749Y-118592133D01*
X100456749Y-117672895D01*
X100922416Y-117672895D01*
X100922416Y-117818038D01*
X100924856Y-117842814D01*
X100926602Y-117847030D01*
X100926926Y-117851583D01*
X100935824Y-117874834D01*
X100944419Y-117892024D01*
X100943819Y-117892624D01*
X100924856Y-117938405D01*
X100924856Y-117987957D01*
X100943819Y-118033738D01*
X100978859Y-118068778D01*
X101024640Y-118087741D01*
X101049416Y-118090181D01*
X101726749Y-118090181D01*
X101751525Y-118087741D01*
X101797306Y-118068778D01*
X101832346Y-118033738D01*
X101851309Y-117987957D01*
X101851309Y-117938405D01*
X101832346Y-117892624D01*
X101797306Y-117857584D01*
X101751525Y-117838621D01*
X101726749Y-117836181D01*
X101200477Y-117836181D01*
X101176416Y-117788058D01*
X101176416Y-117702875D01*
X101192457Y-117670793D01*
X101224539Y-117654752D01*
X101726749Y-117654752D01*
X101751525Y-117652312D01*
X101797306Y-117633349D01*
X101832346Y-117598309D01*
X101851309Y-117552528D01*
X101851309Y-117502976D01*
X101832346Y-117457195D01*
X101797306Y-117422155D01*
X101751525Y-117403192D01*
X101726749Y-117400752D01*
X101194559Y-117400752D01*
X101169783Y-117403192D01*
X101165566Y-117404938D01*
X101161014Y-117405262D01*
X101137763Y-117414160D01*
X101041001Y-117462541D01*
X101036857Y-117465149D01*
X101034902Y-117465801D01*
X101032467Y-117467912D01*
X101019932Y-117475803D01*
X101009496Y-117487834D01*
X100997467Y-117498268D01*
X100989579Y-117510799D01*
X100987464Y-117513238D01*
X100986811Y-117515196D01*
X100984205Y-117519337D01*
X100935824Y-117616099D01*
X100926926Y-117639350D01*
X100926602Y-117643902D01*
X100924856Y-117648119D01*
X100922416Y-117672895D01*
X100456749Y-117672895D01*
X100456749Y-116318228D01*
X100922416Y-116318228D01*
X100922416Y-116463371D01*
X100924856Y-116488147D01*
X100926602Y-116492363D01*
X100926926Y-116496916D01*
X100935824Y-116520167D01*
X100979997Y-116608514D01*
X100935824Y-116696861D01*
X100926926Y-116720112D01*
X100926602Y-116724664D01*
X100924856Y-116728881D01*
X100922416Y-116753657D01*
X100922416Y-116898800D01*
X100924856Y-116923576D01*
X100926602Y-116927792D01*
X100926926Y-116932345D01*
X100935824Y-116955596D01*
X100944419Y-116972786D01*
X100943819Y-116973386D01*
X100924856Y-117019167D01*
X100924856Y-117068719D01*
X100943819Y-117114500D01*
X100978859Y-117149540D01*
X101024640Y-117168503D01*
X101049416Y-117170943D01*
X101726749Y-117170943D01*
X101751525Y-117168503D01*
X101797306Y-117149540D01*
X101832346Y-117114500D01*
X101851309Y-117068719D01*
X101851309Y-117019167D01*
X101832346Y-116973386D01*
X101797306Y-116938346D01*
X101751525Y-116919383D01*
X101726749Y-116916943D01*
X101200477Y-116916943D01*
X101176416Y-116868820D01*
X101176416Y-116783637D01*
X101192457Y-116751555D01*
X101224539Y-116735514D01*
X101726749Y-116735514D01*
X101751525Y-116733074D01*
X101797306Y-116714111D01*
X101832346Y-116679071D01*
X101851309Y-116633290D01*
X101851309Y-116583738D01*
X101832346Y-116537957D01*
X101797306Y-116502917D01*
X101751525Y-116483954D01*
X101726749Y-116481514D01*
X101224539Y-116481514D01*
X101192457Y-116465473D01*
X101176416Y-116433391D01*
X101176416Y-116348209D01*
X101192457Y-116316126D01*
X101224539Y-116300086D01*
X101726749Y-116300086D01*
X101751525Y-116297646D01*
X101797306Y-116278683D01*
X101832346Y-116243643D01*
X101851309Y-116197862D01*
X101851309Y-116148310D01*
X101832346Y-116102529D01*
X101797306Y-116067489D01*
X101751525Y-116048526D01*
X101726749Y-116046086D01*
X101194559Y-116046086D01*
X101169783Y-116048526D01*
X101165566Y-116050272D01*
X101161014Y-116050596D01*
X101137763Y-116059494D01*
X101041001Y-116107875D01*
X101036856Y-116110483D01*
X101034903Y-116111135D01*
X101032470Y-116113244D01*
X101019932Y-116121137D01*
X101009495Y-116133170D01*
X100997467Y-116143602D01*
X100989579Y-116156133D01*
X100987464Y-116158572D01*
X100986811Y-116160530D01*
X100984205Y-116164671D01*
X100935824Y-116261431D01*
X100926926Y-116284683D01*
X100926602Y-116289235D01*
X100924856Y-116293452D01*
X100922416Y-116318228D01*
X100456749Y-116318228D01*
X100456749Y-115398990D01*
X100922416Y-115398990D01*
X100922416Y-115592514D01*
X100924856Y-115617290D01*
X100926602Y-115621506D01*
X100926926Y-115626059D01*
X100935824Y-115649310D01*
X100984205Y-115746072D01*
X100986811Y-115750212D01*
X100987464Y-115752171D01*
X100989579Y-115754609D01*
X100997467Y-115767141D01*
X101009496Y-115777574D01*
X101019932Y-115789606D01*
X101032467Y-115797496D01*
X101034902Y-115799608D01*
X101036857Y-115800259D01*
X101041001Y-115802868D01*
X101137763Y-115851249D01*
X101161014Y-115860147D01*
X101165566Y-115860470D01*
X101169783Y-115862217D01*
X101194559Y-115864657D01*
X101388216Y-115864657D01*
X101581607Y-115864657D01*
X101606383Y-115862217D01*
X101610599Y-115860470D01*
X101615152Y-115860147D01*
X101638403Y-115851249D01*
X101735165Y-115802868D01*
X101739307Y-115800260D01*
X101741265Y-115799608D01*
X101743701Y-115797494D01*
X101756234Y-115789606D01*
X101766669Y-115777573D01*
X101778699Y-115767140D01*
X101786589Y-115754605D01*
X101788701Y-115752171D01*
X101789352Y-115750216D01*
X101791962Y-115746071D01*
X101840342Y-115649309D01*
X101849239Y-115626057D01*
X101849562Y-115621506D01*
X101851309Y-115617290D01*
X101853749Y-115592514D01*
X101853749Y-115398990D01*
X101851309Y-115374214D01*
X101849562Y-115369997D01*
X101849239Y-115365447D01*
X101840342Y-115342195D01*
X101791962Y-115245433D01*
X101778699Y-115224364D01*
X101741265Y-115191896D01*
X101694254Y-115176225D01*
X101644825Y-115179738D01*
X101600505Y-115201898D01*
X101568037Y-115239332D01*
X101552366Y-115286343D01*
X101555879Y-115335772D01*
X101564776Y-115359023D01*
X101599749Y-115428970D01*
X101599749Y-115562533D01*
X101583707Y-115594616D01*
X101551627Y-115610657D01*
X101492198Y-115610657D01*
X101415855Y-115228940D01*
X101408603Y-115205124D01*
X101401679Y-115194785D01*
X101396918Y-115183290D01*
X101388026Y-115174398D01*
X101381030Y-115163951D01*
X101370676Y-115157048D01*
X101361878Y-115148250D01*
X101350262Y-115143438D01*
X101339799Y-115136463D01*
X101327591Y-115134048D01*
X101316097Y-115129287D01*
X101291321Y-115126847D01*
X101194559Y-115126847D01*
X101169783Y-115129287D01*
X101165566Y-115131033D01*
X101161014Y-115131357D01*
X101137763Y-115140255D01*
X101041001Y-115188636D01*
X101036857Y-115191244D01*
X101034902Y-115191896D01*
X101032467Y-115194007D01*
X101019932Y-115201898D01*
X101009496Y-115213929D01*
X100997467Y-115224363D01*
X100989579Y-115236894D01*
X100987464Y-115239333D01*
X100986811Y-115241291D01*
X100984205Y-115245432D01*
X100935824Y-115342194D01*
X100926926Y-115365445D01*
X100926602Y-115369997D01*
X100924856Y-115374214D01*
X100922416Y-115398990D01*
X100456749Y-115398990D01*
X100456749Y-114528133D01*
X100922416Y-114528133D01*
X100922416Y-114673276D01*
X100924856Y-114698052D01*
X100926602Y-114702268D01*
X100926926Y-114706821D01*
X100935824Y-114730072D01*
X100944419Y-114747262D01*
X100943819Y-114747862D01*
X100924856Y-114793643D01*
X100924856Y-114843195D01*
X100943819Y-114888976D01*
X100978859Y-114924016D01*
X101024640Y-114942979D01*
X101049416Y-114945419D01*
X101726749Y-114945419D01*
X101751525Y-114942979D01*
X101797306Y-114924016D01*
X101832346Y-114888976D01*
X101851309Y-114843195D01*
X101851309Y-114793643D01*
X101832346Y-114747862D01*
X101797306Y-114712822D01*
X101751525Y-114693859D01*
X101726749Y-114691419D01*
X101200477Y-114691419D01*
X101176416Y-114643296D01*
X101176416Y-114558113D01*
X101192457Y-114526031D01*
X101224539Y-114509990D01*
X101726749Y-114509990D01*
X101751525Y-114507550D01*
X101797306Y-114488587D01*
X101832346Y-114453547D01*
X101851309Y-114407766D01*
X101851309Y-114358214D01*
X101832346Y-114312433D01*
X101797306Y-114277393D01*
X101751525Y-114258430D01*
X101726749Y-114255990D01*
X101194559Y-114255990D01*
X101169783Y-114258430D01*
X101165566Y-114260176D01*
X101161014Y-114260500D01*
X101137763Y-114269398D01*
X101041001Y-114317779D01*
X101036857Y-114320387D01*
X101034902Y-114321039D01*
X101032467Y-114323150D01*
X101019932Y-114331041D01*
X101009496Y-114343072D01*
X100997467Y-114353506D01*
X100989579Y-114366037D01*
X100987464Y-114368476D01*
X100986811Y-114370434D01*
X100984205Y-114374575D01*
X100935824Y-114471337D01*
X100926926Y-114494588D01*
X100926602Y-114499140D01*
X100924856Y-114503357D01*
X100922416Y-114528133D01*
X100456749Y-114528133D01*
X100456749Y-113874405D01*
X100586189Y-113874405D01*
X100586189Y-113923957D01*
X100605152Y-113969738D01*
X100640192Y-114004778D01*
X100685973Y-114023741D01*
X100710749Y-114026181D01*
X100922416Y-114026181D01*
X100922416Y-114044324D01*
X100924856Y-114069100D01*
X100943819Y-114114881D01*
X100978859Y-114149921D01*
X101024640Y-114168884D01*
X101074192Y-114168884D01*
X101119973Y-114149921D01*
X101155013Y-114114881D01*
X101173976Y-114069100D01*
X101176416Y-114044324D01*
X101176416Y-114026181D01*
X101581607Y-114026181D01*
X101606383Y-114023741D01*
X101610599Y-114021994D01*
X101615152Y-114021671D01*
X101638403Y-114012773D01*
X101735165Y-113964392D01*
X101739307Y-113961784D01*
X101741265Y-113961132D01*
X101743701Y-113959018D01*
X101756234Y-113951130D01*
X101766669Y-113939097D01*
X101778699Y-113928664D01*
X101786589Y-113916129D01*
X101788701Y-113913695D01*
X101789352Y-113911740D01*
X101791962Y-113907595D01*
X101840342Y-113810833D01*
X101849239Y-113787581D01*
X101849562Y-113783030D01*
X101851309Y-113778814D01*
X101853749Y-113754038D01*
X101853749Y-113657276D01*
X101851309Y-113632500D01*
X101832346Y-113586719D01*
X101797306Y-113551679D01*
X101751525Y-113532716D01*
X101701973Y-113532716D01*
X101656192Y-113551679D01*
X101621152Y-113586719D01*
X101602189Y-113632500D01*
X101599749Y-113657276D01*
X101599749Y-113724057D01*
X101583707Y-113756140D01*
X101551627Y-113772181D01*
X101176416Y-113772181D01*
X101176416Y-113657276D01*
X101173976Y-113632500D01*
X101155013Y-113586719D01*
X101119973Y-113551679D01*
X101074192Y-113532716D01*
X101024640Y-113532716D01*
X100978859Y-113551679D01*
X100943819Y-113586719D01*
X100924856Y-113632500D01*
X100922416Y-113657276D01*
X100922416Y-113772181D01*
X100710749Y-113772181D01*
X100685973Y-113774621D01*
X100640192Y-113793584D01*
X100605152Y-113828624D01*
X100586189Y-113874405D01*
X100456749Y-113874405D01*
X100456749Y-111886463D01*
X100585221Y-111886463D01*
X100586189Y-111889124D01*
X100586189Y-111891957D01*
X100594623Y-111912320D01*
X100602156Y-111933034D01*
X100604068Y-111935122D01*
X100605152Y-111937738D01*
X100620733Y-111953319D01*
X100635623Y-111969578D01*
X100638981Y-111971567D01*
X100640192Y-111972778D01*
X100642962Y-111973925D01*
X100657043Y-111982266D01*
X101136147Y-112205848D01*
X100657043Y-112429430D01*
X100642962Y-112437770D01*
X100640192Y-112438918D01*
X100638981Y-112440128D01*
X100635623Y-112442118D01*
X100620733Y-112458376D01*
X100605152Y-112473958D01*
X100604068Y-112476573D01*
X100602156Y-112478662D01*
X100594623Y-112499375D01*
X100586189Y-112519739D01*
X100586189Y-112522571D01*
X100585221Y-112525233D01*
X100586189Y-112547255D01*
X100586189Y-112569291D01*
X100587272Y-112571906D01*
X100587397Y-112574738D01*
X100596721Y-112594718D01*
X100605152Y-112615072D01*
X100607154Y-112617074D01*
X100608352Y-112619641D01*
X100624610Y-112634530D01*
X100640192Y-112650112D01*
X100642807Y-112651195D01*
X100644896Y-112653108D01*
X100665609Y-112660640D01*
X100685973Y-112669075D01*
X100689856Y-112669457D01*
X100691467Y-112670043D01*
X100694464Y-112669911D01*
X100710749Y-112671515D01*
X101726749Y-112671515D01*
X101751525Y-112669075D01*
X101797306Y-112650112D01*
X101832346Y-112615072D01*
X101851309Y-112569291D01*
X101851309Y-112519739D01*
X101832346Y-112473958D01*
X101797306Y-112438918D01*
X101751525Y-112419955D01*
X101726749Y-112417515D01*
X101283209Y-112417515D01*
X101490170Y-112320933D01*
X101499242Y-112315559D01*
X101502317Y-112314441D01*
X101504491Y-112312450D01*
X101511590Y-112308245D01*
X101524626Y-112294010D01*
X101538861Y-112280974D01*
X101541246Y-112275861D01*
X101545057Y-112271701D01*
X101551651Y-112253565D01*
X101559816Y-112236071D01*
X101560063Y-112230432D01*
X101561992Y-112225130D01*
X101561144Y-112205848D01*
X101561992Y-112186566D01*
X101560063Y-112181263D01*
X101559816Y-112175625D01*
X101551651Y-112158130D01*
X101545057Y-112139995D01*
X101541246Y-112135834D01*
X101538861Y-112130722D01*
X101524626Y-112117685D01*
X101511590Y-112103451D01*
X101504491Y-112099245D01*
X101502317Y-112097255D01*
X101499242Y-112096136D01*
X101490170Y-112090763D01*
X101283209Y-111994181D01*
X101726749Y-111994181D01*
X101751525Y-111991741D01*
X101797306Y-111972778D01*
X101832346Y-111937738D01*
X101851309Y-111891957D01*
X101851309Y-111842405D01*
X101832346Y-111796624D01*
X101797306Y-111761584D01*
X101751525Y-111742621D01*
X101726749Y-111740181D01*
X100710749Y-111740181D01*
X100694464Y-111741784D01*
X100691467Y-111741653D01*
X100689856Y-111742238D01*
X100685973Y-111742621D01*
X100665609Y-111751055D01*
X100644896Y-111758588D01*
X100642807Y-111760500D01*
X100640192Y-111761584D01*
X100624610Y-111777165D01*
X100608352Y-111792055D01*
X100607154Y-111794621D01*
X100605152Y-111796624D01*
X100596721Y-111816977D01*
X100587397Y-111836958D01*
X100587272Y-111839789D01*
X100586189Y-111842405D01*
X100586189Y-111864440D01*
X100585221Y-111886463D01*
X100456749Y-111886463D01*
X100456749Y-111093086D01*
X100922416Y-111093086D01*
X100922416Y-111238229D01*
X100924856Y-111263005D01*
X100926602Y-111267221D01*
X100926926Y-111271774D01*
X100935824Y-111295025D01*
X100984205Y-111391787D01*
X100990918Y-111402451D01*
X100992201Y-111405549D01*
X100995062Y-111409035D01*
X100997467Y-111412856D01*
X101000000Y-111415053D01*
X101007994Y-111424794D01*
X101056375Y-111473175D01*
X101066115Y-111481168D01*
X101068313Y-111483702D01*
X101072133Y-111486106D01*
X101075620Y-111488968D01*
X101078717Y-111490250D01*
X101089382Y-111496964D01*
X101186144Y-111545345D01*
X101209395Y-111554243D01*
X101213947Y-111554566D01*
X101218164Y-111556313D01*
X101242940Y-111558753D01*
X101533226Y-111558753D01*
X101558002Y-111556313D01*
X101562218Y-111554566D01*
X101566771Y-111554243D01*
X101590022Y-111545345D01*
X101686784Y-111496964D01*
X101697448Y-111490250D01*
X101700546Y-111488968D01*
X101704032Y-111486106D01*
X101707853Y-111483702D01*
X101710050Y-111481168D01*
X101719791Y-111473175D01*
X101768172Y-111424794D01*
X101776168Y-111415050D01*
X101778699Y-111412855D01*
X101781101Y-111409038D01*
X101783965Y-111405549D01*
X101785248Y-111402451D01*
X101791962Y-111391786D01*
X101840342Y-111295024D01*
X101849239Y-111271772D01*
X101849562Y-111267221D01*
X101851309Y-111263005D01*
X101853749Y-111238229D01*
X101853749Y-111093086D01*
X101851309Y-111068310D01*
X101849562Y-111064093D01*
X101849239Y-111059543D01*
X101840342Y-111036291D01*
X101791962Y-110939529D01*
X101785248Y-110928863D01*
X101783965Y-110925766D01*
X101781101Y-110922276D01*
X101778699Y-110918460D01*
X101776168Y-110916264D01*
X101768172Y-110906521D01*
X101719791Y-110858140D01*
X101710050Y-110850146D01*
X101707853Y-110847613D01*
X101704032Y-110845208D01*
X101700546Y-110842347D01*
X101697448Y-110841064D01*
X101686784Y-110834351D01*
X101590022Y-110785970D01*
X101566771Y-110777072D01*
X101562218Y-110776748D01*
X101558002Y-110775002D01*
X101533226Y-110772562D01*
X101242940Y-110772562D01*
X101218164Y-110775002D01*
X101213947Y-110776748D01*
X101209395Y-110777072D01*
X101186144Y-110785970D01*
X101089382Y-110834351D01*
X101078717Y-110841064D01*
X101075620Y-110842347D01*
X101072133Y-110845208D01*
X101068313Y-110847613D01*
X101066115Y-110850146D01*
X101056375Y-110858140D01*
X101007994Y-110906521D01*
X101000000Y-110916261D01*
X100997467Y-110918459D01*
X100995062Y-110922279D01*
X100992201Y-110925766D01*
X100990918Y-110928863D01*
X100984205Y-110939528D01*
X100935824Y-111036290D01*
X100926926Y-111059541D01*
X100926602Y-111064093D01*
X100924856Y-111068310D01*
X100922416Y-111093086D01*
X100456749Y-111093086D01*
X100456749Y-110173848D01*
X100922416Y-110173848D01*
X100922416Y-110318991D01*
X100924856Y-110343767D01*
X100926602Y-110347983D01*
X100926926Y-110352536D01*
X100935824Y-110375787D01*
X100944419Y-110392977D01*
X100943819Y-110393577D01*
X100924856Y-110439358D01*
X100924856Y-110488910D01*
X100943819Y-110534691D01*
X100978859Y-110569731D01*
X101024640Y-110588694D01*
X101049416Y-110591134D01*
X101726749Y-110591134D01*
X101751525Y-110588694D01*
X101797306Y-110569731D01*
X101832346Y-110534691D01*
X101851309Y-110488910D01*
X101851309Y-110439358D01*
X101832346Y-110393577D01*
X101797306Y-110358537D01*
X101751525Y-110339574D01*
X101726749Y-110337134D01*
X101200477Y-110337134D01*
X101176416Y-110289011D01*
X101176416Y-110203828D01*
X101192457Y-110171746D01*
X101224539Y-110155705D01*
X101726749Y-110155705D01*
X101751525Y-110153265D01*
X101797306Y-110134302D01*
X101832346Y-110099262D01*
X101851309Y-110053481D01*
X101851309Y-110003929D01*
X101832346Y-109958148D01*
X101797306Y-109923108D01*
X101751525Y-109904145D01*
X101726749Y-109901705D01*
X101194559Y-109901705D01*
X101169783Y-109904145D01*
X101165566Y-109905891D01*
X101161014Y-109906215D01*
X101137763Y-109915113D01*
X101041001Y-109963494D01*
X101036857Y-109966102D01*
X101034902Y-109966754D01*
X101032467Y-109968865D01*
X101019932Y-109976756D01*
X101009496Y-109988787D01*
X100997467Y-109999221D01*
X100989579Y-110011752D01*
X100987464Y-110014191D01*
X100986811Y-110016149D01*
X100984205Y-110020290D01*
X100935824Y-110117052D01*
X100926926Y-110140303D01*
X100926602Y-110144855D01*
X100924856Y-110149072D01*
X100922416Y-110173848D01*
X100456749Y-110173848D01*
X100456749Y-109520120D01*
X100586189Y-109520120D01*
X100586189Y-109569672D01*
X100605152Y-109615453D01*
X100605153Y-109615454D01*
X100620946Y-109634699D01*
X100669327Y-109683080D01*
X100688572Y-109698873D01*
X100734353Y-109717837D01*
X100783907Y-109717837D01*
X100829688Y-109698873D01*
X100848933Y-109683080D01*
X100897314Y-109634699D01*
X100913107Y-109615454D01*
X100913108Y-109615453D01*
X100928463Y-109578381D01*
X100943819Y-109615453D01*
X100978859Y-109650493D01*
X101024640Y-109669456D01*
X101049416Y-109671896D01*
X101726749Y-109671896D01*
X101751525Y-109669456D01*
X101797306Y-109650493D01*
X101832346Y-109615453D01*
X101851309Y-109569672D01*
X101851309Y-109520120D01*
X101832346Y-109474339D01*
X101797306Y-109439299D01*
X101751525Y-109420336D01*
X101726749Y-109417896D01*
X101049416Y-109417896D01*
X101024640Y-109420336D01*
X100978859Y-109439299D01*
X100943819Y-109474339D01*
X100928463Y-109511410D01*
X100913108Y-109474339D01*
X100913107Y-109474338D01*
X100897314Y-109455093D01*
X100848933Y-109406712D01*
X100829688Y-109390919D01*
X100783907Y-109371955D01*
X100734353Y-109371955D01*
X100688572Y-109390919D01*
X100669327Y-109406712D01*
X100620946Y-109455093D01*
X100605153Y-109474338D01*
X100605152Y-109474339D01*
X100586189Y-109520120D01*
X100456749Y-109520120D01*
X100456749Y-109036310D01*
X100586189Y-109036310D01*
X100586189Y-109085862D01*
X100605152Y-109131643D01*
X100640192Y-109166683D01*
X100685973Y-109185646D01*
X100710749Y-109188086D01*
X100922416Y-109188086D01*
X100922416Y-109206229D01*
X100924856Y-109231005D01*
X100943819Y-109276786D01*
X100978859Y-109311826D01*
X101024640Y-109330789D01*
X101074192Y-109330789D01*
X101119973Y-109311826D01*
X101155013Y-109276786D01*
X101173976Y-109231005D01*
X101176416Y-109206229D01*
X101176416Y-109188086D01*
X101581607Y-109188086D01*
X101606383Y-109185646D01*
X101610599Y-109183899D01*
X101615152Y-109183576D01*
X101638403Y-109174678D01*
X101735165Y-109126297D01*
X101739307Y-109123689D01*
X101741265Y-109123037D01*
X101743701Y-109120923D01*
X101756234Y-109113035D01*
X101766669Y-109101002D01*
X101778699Y-109090569D01*
X101786589Y-109078034D01*
X101788701Y-109075600D01*
X101789352Y-109073645D01*
X101791962Y-109069500D01*
X101840342Y-108972738D01*
X101849239Y-108949486D01*
X101849562Y-108944935D01*
X101851309Y-108940719D01*
X101853749Y-108915943D01*
X101853749Y-108819181D01*
X101851309Y-108794405D01*
X101832346Y-108748624D01*
X101797306Y-108713584D01*
X101751525Y-108694621D01*
X101701973Y-108694621D01*
X101656192Y-108713584D01*
X101621152Y-108748624D01*
X101602189Y-108794405D01*
X101599749Y-108819181D01*
X101599749Y-108885962D01*
X101583707Y-108918045D01*
X101551627Y-108934086D01*
X101176416Y-108934086D01*
X101176416Y-108819181D01*
X101173976Y-108794405D01*
X101155013Y-108748624D01*
X101119973Y-108713584D01*
X101074192Y-108694621D01*
X101024640Y-108694621D01*
X100978859Y-108713584D01*
X100943819Y-108748624D01*
X100924856Y-108794405D01*
X100922416Y-108819181D01*
X100922416Y-108934086D01*
X100710749Y-108934086D01*
X100685973Y-108936526D01*
X100640192Y-108955489D01*
X100605152Y-108990529D01*
X100586189Y-109036310D01*
X100456749Y-109036310D01*
X100456749Y-108190229D01*
X100922416Y-108190229D01*
X100922416Y-108335372D01*
X100924856Y-108360148D01*
X100926602Y-108364364D01*
X100926926Y-108368917D01*
X100935824Y-108392168D01*
X100984205Y-108488930D01*
X100990918Y-108499594D01*
X100992201Y-108502692D01*
X100995062Y-108506178D01*
X100997467Y-108509999D01*
X101000000Y-108512196D01*
X101007994Y-108521937D01*
X101056375Y-108570318D01*
X101066115Y-108578311D01*
X101068313Y-108580845D01*
X101072133Y-108583249D01*
X101075620Y-108586111D01*
X101078717Y-108587393D01*
X101089382Y-108594107D01*
X101186144Y-108642488D01*
X101209395Y-108651386D01*
X101213947Y-108651709D01*
X101218164Y-108653456D01*
X101242940Y-108655896D01*
X101533226Y-108655896D01*
X101558002Y-108653456D01*
X101562218Y-108651709D01*
X101566771Y-108651386D01*
X101590022Y-108642488D01*
X101686784Y-108594107D01*
X101697448Y-108587393D01*
X101700546Y-108586111D01*
X101704032Y-108583249D01*
X101707853Y-108580845D01*
X101710050Y-108578311D01*
X101719791Y-108570318D01*
X101768172Y-108521937D01*
X101776168Y-108512193D01*
X101778699Y-108509998D01*
X101781101Y-108506181D01*
X101783965Y-108502692D01*
X101785248Y-108499594D01*
X101791962Y-108488929D01*
X101840342Y-108392167D01*
X101849239Y-108368915D01*
X101849562Y-108364364D01*
X101851309Y-108360148D01*
X101853749Y-108335372D01*
X101853749Y-108190229D01*
X101851309Y-108165453D01*
X101849562Y-108161236D01*
X101849239Y-108156686D01*
X101840342Y-108133434D01*
X101791962Y-108036672D01*
X101785248Y-108026006D01*
X101783965Y-108022909D01*
X101781101Y-108019419D01*
X101778699Y-108015603D01*
X101776168Y-108013407D01*
X101768172Y-108003664D01*
X101719791Y-107955283D01*
X101710050Y-107947289D01*
X101707853Y-107944756D01*
X101704032Y-107942351D01*
X101700546Y-107939490D01*
X101697448Y-107938207D01*
X101686784Y-107931494D01*
X101590022Y-107883113D01*
X101566771Y-107874215D01*
X101562218Y-107873891D01*
X101558002Y-107872145D01*
X101533226Y-107869705D01*
X101242940Y-107869705D01*
X101218164Y-107872145D01*
X101213947Y-107873891D01*
X101209395Y-107874215D01*
X101186144Y-107883113D01*
X101089382Y-107931494D01*
X101078717Y-107938207D01*
X101075620Y-107939490D01*
X101072133Y-107942351D01*
X101068313Y-107944756D01*
X101066115Y-107947289D01*
X101056375Y-107955283D01*
X101007994Y-108003664D01*
X101000000Y-108013404D01*
X100997467Y-108015602D01*
X100995062Y-108019422D01*
X100992201Y-108022909D01*
X100990918Y-108026006D01*
X100984205Y-108036671D01*
X100935824Y-108133433D01*
X100926926Y-108156684D01*
X100926602Y-108161236D01*
X100924856Y-108165453D01*
X100922416Y-108190229D01*
X100456749Y-108190229D01*
X100456749Y-107270991D01*
X100922416Y-107270991D01*
X100922416Y-107367753D01*
X100924856Y-107392529D01*
X100926602Y-107396745D01*
X100926926Y-107401298D01*
X100935824Y-107424549D01*
X100960546Y-107473993D01*
X100943819Y-107490720D01*
X100924856Y-107536501D01*
X100924856Y-107586053D01*
X100943819Y-107631834D01*
X100978859Y-107666874D01*
X101024640Y-107685837D01*
X101049416Y-107688277D01*
X101726749Y-107688277D01*
X101751525Y-107685837D01*
X101797306Y-107666874D01*
X101832346Y-107631834D01*
X101851309Y-107586053D01*
X101851309Y-107536501D01*
X101832346Y-107490720D01*
X101797306Y-107455680D01*
X101751525Y-107436717D01*
X101726749Y-107434277D01*
X101272920Y-107434277D01*
X101221410Y-107408522D01*
X101202171Y-107389283D01*
X101176416Y-107337773D01*
X101176416Y-107270991D01*
X101173976Y-107246215D01*
X101155013Y-107200434D01*
X101119973Y-107165394D01*
X101074192Y-107146431D01*
X101024640Y-107146431D01*
X100978859Y-107165394D01*
X100943819Y-107200434D01*
X100924856Y-107246215D01*
X100922416Y-107270991D01*
X100456749Y-107270991D01*
X100456749Y-107019431D01*
X103616452Y-107019431D01*
X103616452Y-127844990D01*
G37*
D10*
X102654819Y-96846666D02*
X102178628Y-97179999D01*
X102654819Y-97418094D02*
X101654819Y-97418094D01*
X101654819Y-97418094D02*
X101654819Y-97037142D01*
X101654819Y-97037142D02*
X101702438Y-96941904D01*
X101702438Y-96941904D02*
X101750057Y-96894285D01*
X101750057Y-96894285D02*
X101845295Y-96846666D01*
X101845295Y-96846666D02*
X101988152Y-96846666D01*
X101988152Y-96846666D02*
X102083390Y-96894285D01*
X102083390Y-96894285D02*
X102131009Y-96941904D01*
X102131009Y-96941904D02*
X102178628Y-97037142D01*
X102178628Y-97037142D02*
X102178628Y-97418094D01*
X102654819Y-95894285D02*
X102654819Y-96465713D01*
X102654819Y-96179999D02*
X101654819Y-96179999D01*
X101654819Y-96179999D02*
X101797676Y-96275237D01*
X101797676Y-96275237D02*
X101892914Y-96370475D01*
X101892914Y-96370475D02*
X101940533Y-96465713D01*
X119694819Y-99912857D02*
X119218628Y-100246190D01*
X119694819Y-100484285D02*
X118694819Y-100484285D01*
X118694819Y-100484285D02*
X118694819Y-100103333D01*
X118694819Y-100103333D02*
X118742438Y-100008095D01*
X118742438Y-100008095D02*
X118790057Y-99960476D01*
X118790057Y-99960476D02*
X118885295Y-99912857D01*
X118885295Y-99912857D02*
X119028152Y-99912857D01*
X119028152Y-99912857D02*
X119123390Y-99960476D01*
X119123390Y-99960476D02*
X119171009Y-100008095D01*
X119171009Y-100008095D02*
X119218628Y-100103333D01*
X119218628Y-100103333D02*
X119218628Y-100484285D01*
X119694819Y-98960476D02*
X119694819Y-99531904D01*
X119694819Y-99246190D02*
X118694819Y-99246190D01*
X118694819Y-99246190D02*
X118837676Y-99341428D01*
X118837676Y-99341428D02*
X118932914Y-99436666D01*
X118932914Y-99436666D02*
X118980533Y-99531904D01*
X118790057Y-98579523D02*
X118742438Y-98531904D01*
X118742438Y-98531904D02*
X118694819Y-98436666D01*
X118694819Y-98436666D02*
X118694819Y-98198571D01*
X118694819Y-98198571D02*
X118742438Y-98103333D01*
X118742438Y-98103333D02*
X118790057Y-98055714D01*
X118790057Y-98055714D02*
X118885295Y-98008095D01*
X118885295Y-98008095D02*
X118980533Y-98008095D01*
X118980533Y-98008095D02*
X119123390Y-98055714D01*
X119123390Y-98055714D02*
X119694819Y-98627142D01*
X119694819Y-98627142D02*
X119694819Y-98008095D01*
X115184819Y-87932857D02*
X114708628Y-88266190D01*
X115184819Y-88504285D02*
X114184819Y-88504285D01*
X114184819Y-88504285D02*
X114184819Y-88123333D01*
X114184819Y-88123333D02*
X114232438Y-88028095D01*
X114232438Y-88028095D02*
X114280057Y-87980476D01*
X114280057Y-87980476D02*
X114375295Y-87932857D01*
X114375295Y-87932857D02*
X114518152Y-87932857D01*
X114518152Y-87932857D02*
X114613390Y-87980476D01*
X114613390Y-87980476D02*
X114661009Y-88028095D01*
X114661009Y-88028095D02*
X114708628Y-88123333D01*
X114708628Y-88123333D02*
X114708628Y-88504285D01*
X115184819Y-86980476D02*
X115184819Y-87551904D01*
X115184819Y-87266190D02*
X114184819Y-87266190D01*
X114184819Y-87266190D02*
X114327676Y-87361428D01*
X114327676Y-87361428D02*
X114422914Y-87456666D01*
X114422914Y-87456666D02*
X114470533Y-87551904D01*
X114184819Y-86361428D02*
X114184819Y-86266190D01*
X114184819Y-86266190D02*
X114232438Y-86170952D01*
X114232438Y-86170952D02*
X114280057Y-86123333D01*
X114280057Y-86123333D02*
X114375295Y-86075714D01*
X114375295Y-86075714D02*
X114565771Y-86028095D01*
X114565771Y-86028095D02*
X114803866Y-86028095D01*
X114803866Y-86028095D02*
X114994342Y-86075714D01*
X114994342Y-86075714D02*
X115089580Y-86123333D01*
X115089580Y-86123333D02*
X115137200Y-86170952D01*
X115137200Y-86170952D02*
X115184819Y-86266190D01*
X115184819Y-86266190D02*
X115184819Y-86361428D01*
X115184819Y-86361428D02*
X115137200Y-86456666D01*
X115137200Y-86456666D02*
X115089580Y-86504285D01*
X115089580Y-86504285D02*
X114994342Y-86551904D01*
X114994342Y-86551904D02*
X114803866Y-86599523D01*
X114803866Y-86599523D02*
X114565771Y-86599523D01*
X114565771Y-86599523D02*
X114375295Y-86551904D01*
X114375295Y-86551904D02*
X114280057Y-86504285D01*
X114280057Y-86504285D02*
X114232438Y-86456666D01*
X114232438Y-86456666D02*
X114184819Y-86361428D01*
X122823333Y-93659580D02*
X122775714Y-93707200D01*
X122775714Y-93707200D02*
X122632857Y-93754819D01*
X122632857Y-93754819D02*
X122537619Y-93754819D01*
X122537619Y-93754819D02*
X122394762Y-93707200D01*
X122394762Y-93707200D02*
X122299524Y-93611961D01*
X122299524Y-93611961D02*
X122251905Y-93516723D01*
X122251905Y-93516723D02*
X122204286Y-93326247D01*
X122204286Y-93326247D02*
X122204286Y-93183390D01*
X122204286Y-93183390D02*
X122251905Y-92992914D01*
X122251905Y-92992914D02*
X122299524Y-92897676D01*
X122299524Y-92897676D02*
X122394762Y-92802438D01*
X122394762Y-92802438D02*
X122537619Y-92754819D01*
X122537619Y-92754819D02*
X122632857Y-92754819D01*
X122632857Y-92754819D02*
X122775714Y-92802438D01*
X122775714Y-92802438D02*
X122823333Y-92850057D01*
X123156667Y-92754819D02*
X123823333Y-92754819D01*
X123823333Y-92754819D02*
X123394762Y-93754819D01*
X114416666Y-79654819D02*
X114416666Y-80369104D01*
X114416666Y-80369104D02*
X114369047Y-80511961D01*
X114369047Y-80511961D02*
X114273809Y-80607200D01*
X114273809Y-80607200D02*
X114130952Y-80654819D01*
X114130952Y-80654819D02*
X114035714Y-80654819D01*
X115416666Y-80654819D02*
X114845238Y-80654819D01*
X115130952Y-80654819D02*
X115130952Y-79654819D01*
X115130952Y-79654819D02*
X115035714Y-79797676D01*
X115035714Y-79797676D02*
X114940476Y-79892914D01*
X114940476Y-79892914D02*
X114845238Y-79940533D01*
X120264819Y-90312857D02*
X119788628Y-90646190D01*
X120264819Y-90884285D02*
X119264819Y-90884285D01*
X119264819Y-90884285D02*
X119264819Y-90503333D01*
X119264819Y-90503333D02*
X119312438Y-90408095D01*
X119312438Y-90408095D02*
X119360057Y-90360476D01*
X119360057Y-90360476D02*
X119455295Y-90312857D01*
X119455295Y-90312857D02*
X119598152Y-90312857D01*
X119598152Y-90312857D02*
X119693390Y-90360476D01*
X119693390Y-90360476D02*
X119741009Y-90408095D01*
X119741009Y-90408095D02*
X119788628Y-90503333D01*
X119788628Y-90503333D02*
X119788628Y-90884285D01*
X120264819Y-89360476D02*
X120264819Y-89931904D01*
X120264819Y-89646190D02*
X119264819Y-89646190D01*
X119264819Y-89646190D02*
X119407676Y-89741428D01*
X119407676Y-89741428D02*
X119502914Y-89836666D01*
X119502914Y-89836666D02*
X119550533Y-89931904D01*
X119264819Y-89027142D02*
X119264819Y-88408095D01*
X119264819Y-88408095D02*
X119645771Y-88741428D01*
X119645771Y-88741428D02*
X119645771Y-88598571D01*
X119645771Y-88598571D02*
X119693390Y-88503333D01*
X119693390Y-88503333D02*
X119741009Y-88455714D01*
X119741009Y-88455714D02*
X119836247Y-88408095D01*
X119836247Y-88408095D02*
X120074342Y-88408095D01*
X120074342Y-88408095D02*
X120169580Y-88455714D01*
X120169580Y-88455714D02*
X120217200Y-88503333D01*
X120217200Y-88503333D02*
X120264819Y-88598571D01*
X120264819Y-88598571D02*
X120264819Y-88884285D01*
X120264819Y-88884285D02*
X120217200Y-88979523D01*
X120217200Y-88979523D02*
X120169580Y-89027142D01*
X99748095Y-94794819D02*
X99748095Y-95604342D01*
X99748095Y-95604342D02*
X99795714Y-95699580D01*
X99795714Y-95699580D02*
X99843333Y-95747200D01*
X99843333Y-95747200D02*
X99938571Y-95794819D01*
X99938571Y-95794819D02*
X100129047Y-95794819D01*
X100129047Y-95794819D02*
X100224285Y-95747200D01*
X100224285Y-95747200D02*
X100271904Y-95699580D01*
X100271904Y-95699580D02*
X100319523Y-95604342D01*
X100319523Y-95604342D02*
X100319523Y-94794819D01*
X101319523Y-95794819D02*
X100748095Y-95794819D01*
X101033809Y-95794819D02*
X101033809Y-94794819D01*
X101033809Y-94794819D02*
X100938571Y-94937676D01*
X100938571Y-94937676D02*
X100843333Y-95032914D01*
X100843333Y-95032914D02*
X100748095Y-95080533D01*
X91369104Y-89621905D02*
X91369104Y-89145715D01*
X91654819Y-89717143D02*
X90654819Y-89383810D01*
X90654819Y-89383810D02*
X91654819Y-89050477D01*
X90988152Y-88717143D02*
X91654819Y-88717143D01*
X91083390Y-88717143D02*
X91035771Y-88669524D01*
X91035771Y-88669524D02*
X90988152Y-88574286D01*
X90988152Y-88574286D02*
X90988152Y-88431429D01*
X90988152Y-88431429D02*
X91035771Y-88336191D01*
X91035771Y-88336191D02*
X91131009Y-88288572D01*
X91131009Y-88288572D02*
X91654819Y-88288572D01*
X90988152Y-87955238D02*
X90988152Y-87574286D01*
X90654819Y-87812381D02*
X91511961Y-87812381D01*
X91511961Y-87812381D02*
X91607200Y-87764762D01*
X91607200Y-87764762D02*
X91654819Y-87669524D01*
X91654819Y-87669524D02*
X91654819Y-87574286D01*
X91607200Y-86860000D02*
X91654819Y-86955238D01*
X91654819Y-86955238D02*
X91654819Y-87145714D01*
X91654819Y-87145714D02*
X91607200Y-87240952D01*
X91607200Y-87240952D02*
X91511961Y-87288571D01*
X91511961Y-87288571D02*
X91131009Y-87288571D01*
X91131009Y-87288571D02*
X91035771Y-87240952D01*
X91035771Y-87240952D02*
X90988152Y-87145714D01*
X90988152Y-87145714D02*
X90988152Y-86955238D01*
X90988152Y-86955238D02*
X91035771Y-86860000D01*
X91035771Y-86860000D02*
X91131009Y-86812381D01*
X91131009Y-86812381D02*
X91226247Y-86812381D01*
X91226247Y-86812381D02*
X91321485Y-87288571D01*
X90988152Y-86383809D02*
X91654819Y-86383809D01*
X91083390Y-86383809D02*
X91035771Y-86336190D01*
X91035771Y-86336190D02*
X90988152Y-86240952D01*
X90988152Y-86240952D02*
X90988152Y-86098095D01*
X90988152Y-86098095D02*
X91035771Y-86002857D01*
X91035771Y-86002857D02*
X91131009Y-85955238D01*
X91131009Y-85955238D02*
X91654819Y-85955238D01*
X90988152Y-85479047D02*
X91654819Y-85479047D01*
X91083390Y-85479047D02*
X91035771Y-85431428D01*
X91035771Y-85431428D02*
X90988152Y-85336190D01*
X90988152Y-85336190D02*
X90988152Y-85193333D01*
X90988152Y-85193333D02*
X91035771Y-85098095D01*
X91035771Y-85098095D02*
X91131009Y-85050476D01*
X91131009Y-85050476D02*
X91654819Y-85050476D01*
X91654819Y-84145714D02*
X91131009Y-84145714D01*
X91131009Y-84145714D02*
X91035771Y-84193333D01*
X91035771Y-84193333D02*
X90988152Y-84288571D01*
X90988152Y-84288571D02*
X90988152Y-84479047D01*
X90988152Y-84479047D02*
X91035771Y-84574285D01*
X91607200Y-84145714D02*
X91654819Y-84240952D01*
X91654819Y-84240952D02*
X91654819Y-84479047D01*
X91654819Y-84479047D02*
X91607200Y-84574285D01*
X91607200Y-84574285D02*
X91511961Y-84621904D01*
X91511961Y-84621904D02*
X91416723Y-84621904D01*
X91416723Y-84621904D02*
X91321485Y-84574285D01*
X91321485Y-84574285D02*
X91273866Y-84479047D01*
X91273866Y-84479047D02*
X91273866Y-84240952D01*
X91273866Y-84240952D02*
X91226247Y-84145714D01*
X91369104Y-82955237D02*
X91369104Y-82479047D01*
X91654819Y-83050475D02*
X90654819Y-82717142D01*
X90654819Y-82717142D02*
X91654819Y-82383809D01*
X91654819Y-82050475D02*
X90988152Y-82050475D01*
X91178628Y-82050475D02*
X91083390Y-82002856D01*
X91083390Y-82002856D02*
X91035771Y-81955237D01*
X91035771Y-81955237D02*
X90988152Y-81859999D01*
X90988152Y-81859999D02*
X90988152Y-81764761D01*
X91607200Y-81050475D02*
X91654819Y-81145713D01*
X91654819Y-81145713D02*
X91654819Y-81336189D01*
X91654819Y-81336189D02*
X91607200Y-81431427D01*
X91607200Y-81431427D02*
X91511961Y-81479046D01*
X91511961Y-81479046D02*
X91131009Y-81479046D01*
X91131009Y-81479046D02*
X91035771Y-81431427D01*
X91035771Y-81431427D02*
X90988152Y-81336189D01*
X90988152Y-81336189D02*
X90988152Y-81145713D01*
X90988152Y-81145713D02*
X91035771Y-81050475D01*
X91035771Y-81050475D02*
X91131009Y-81002856D01*
X91131009Y-81002856D02*
X91226247Y-81002856D01*
X91226247Y-81002856D02*
X91321485Y-81479046D01*
X91654819Y-80145713D02*
X91131009Y-80145713D01*
X91131009Y-80145713D02*
X91035771Y-80193332D01*
X91035771Y-80193332D02*
X90988152Y-80288570D01*
X90988152Y-80288570D02*
X90988152Y-80479046D01*
X90988152Y-80479046D02*
X91035771Y-80574284D01*
X91607200Y-80145713D02*
X91654819Y-80240951D01*
X91654819Y-80240951D02*
X91654819Y-80479046D01*
X91654819Y-80479046D02*
X91607200Y-80574284D01*
X91607200Y-80574284D02*
X91511961Y-80621903D01*
X91511961Y-80621903D02*
X91416723Y-80621903D01*
X91416723Y-80621903D02*
X91321485Y-80574284D01*
X91321485Y-80574284D02*
X91273866Y-80479046D01*
X91273866Y-80479046D02*
X91273866Y-80240951D01*
X91273866Y-80240951D02*
X91226247Y-80145713D01*
X110227142Y-88664819D02*
X109893809Y-88188628D01*
X109655714Y-88664819D02*
X109655714Y-87664819D01*
X109655714Y-87664819D02*
X110036666Y-87664819D01*
X110036666Y-87664819D02*
X110131904Y-87712438D01*
X110131904Y-87712438D02*
X110179523Y-87760057D01*
X110179523Y-87760057D02*
X110227142Y-87855295D01*
X110227142Y-87855295D02*
X110227142Y-87998152D01*
X110227142Y-87998152D02*
X110179523Y-88093390D01*
X110179523Y-88093390D02*
X110131904Y-88141009D01*
X110131904Y-88141009D02*
X110036666Y-88188628D01*
X110036666Y-88188628D02*
X109655714Y-88188628D01*
X111179523Y-88664819D02*
X110608095Y-88664819D01*
X110893809Y-88664819D02*
X110893809Y-87664819D01*
X110893809Y-87664819D02*
X110798571Y-87807676D01*
X110798571Y-87807676D02*
X110703333Y-87902914D01*
X110703333Y-87902914D02*
X110608095Y-87950533D01*
X111512857Y-87664819D02*
X112179523Y-87664819D01*
X112179523Y-87664819D02*
X111750952Y-88664819D01*
X110063095Y-131454819D02*
X110063095Y-132264342D01*
X110063095Y-132264342D02*
X110110714Y-132359580D01*
X110110714Y-132359580D02*
X110158333Y-132407200D01*
X110158333Y-132407200D02*
X110253571Y-132454819D01*
X110253571Y-132454819D02*
X110444047Y-132454819D01*
X110444047Y-132454819D02*
X110539285Y-132407200D01*
X110539285Y-132407200D02*
X110586904Y-132359580D01*
X110586904Y-132359580D02*
X110634523Y-132264342D01*
X110634523Y-132264342D02*
X110634523Y-131454819D01*
X111586904Y-131454819D02*
X111110714Y-131454819D01*
X111110714Y-131454819D02*
X111063095Y-131931009D01*
X111063095Y-131931009D02*
X111110714Y-131883390D01*
X111110714Y-131883390D02*
X111205952Y-131835771D01*
X111205952Y-131835771D02*
X111444047Y-131835771D01*
X111444047Y-131835771D02*
X111539285Y-131883390D01*
X111539285Y-131883390D02*
X111586904Y-131931009D01*
X111586904Y-131931009D02*
X111634523Y-132026247D01*
X111634523Y-132026247D02*
X111634523Y-132264342D01*
X111634523Y-132264342D02*
X111586904Y-132359580D01*
X111586904Y-132359580D02*
X111539285Y-132407200D01*
X111539285Y-132407200D02*
X111444047Y-132454819D01*
X111444047Y-132454819D02*
X111205952Y-132454819D01*
X111205952Y-132454819D02*
X111110714Y-132407200D01*
X111110714Y-132407200D02*
X111063095Y-132359580D01*
X111361905Y-73454819D02*
X111361905Y-72454819D01*
X111361905Y-72454819D02*
X111600000Y-72454819D01*
X111600000Y-72454819D02*
X111742857Y-72502438D01*
X111742857Y-72502438D02*
X111838095Y-72597676D01*
X111838095Y-72597676D02*
X111885714Y-72692914D01*
X111885714Y-72692914D02*
X111933333Y-72883390D01*
X111933333Y-72883390D02*
X111933333Y-73026247D01*
X111933333Y-73026247D02*
X111885714Y-73216723D01*
X111885714Y-73216723D02*
X111838095Y-73311961D01*
X111838095Y-73311961D02*
X111742857Y-73407200D01*
X111742857Y-73407200D02*
X111600000Y-73454819D01*
X111600000Y-73454819D02*
X111361905Y-73454819D01*
X112885714Y-73454819D02*
X112314286Y-73454819D01*
X112600000Y-73454819D02*
X112600000Y-72454819D01*
X112600000Y-72454819D02*
X112504762Y-72597676D01*
X112504762Y-72597676D02*
X112409524Y-72692914D01*
X112409524Y-72692914D02*
X112314286Y-72740533D01*
X119403333Y-88004819D02*
X119070000Y-87528628D01*
X118831905Y-88004819D02*
X118831905Y-87004819D01*
X118831905Y-87004819D02*
X119212857Y-87004819D01*
X119212857Y-87004819D02*
X119308095Y-87052438D01*
X119308095Y-87052438D02*
X119355714Y-87100057D01*
X119355714Y-87100057D02*
X119403333Y-87195295D01*
X119403333Y-87195295D02*
X119403333Y-87338152D01*
X119403333Y-87338152D02*
X119355714Y-87433390D01*
X119355714Y-87433390D02*
X119308095Y-87481009D01*
X119308095Y-87481009D02*
X119212857Y-87528628D01*
X119212857Y-87528628D02*
X118831905Y-87528628D01*
X119879524Y-88004819D02*
X120070000Y-88004819D01*
X120070000Y-88004819D02*
X120165238Y-87957200D01*
X120165238Y-87957200D02*
X120212857Y-87909580D01*
X120212857Y-87909580D02*
X120308095Y-87766723D01*
X120308095Y-87766723D02*
X120355714Y-87576247D01*
X120355714Y-87576247D02*
X120355714Y-87195295D01*
X120355714Y-87195295D02*
X120308095Y-87100057D01*
X120308095Y-87100057D02*
X120260476Y-87052438D01*
X120260476Y-87052438D02*
X120165238Y-87004819D01*
X120165238Y-87004819D02*
X119974762Y-87004819D01*
X119974762Y-87004819D02*
X119879524Y-87052438D01*
X119879524Y-87052438D02*
X119831905Y-87100057D01*
X119831905Y-87100057D02*
X119784286Y-87195295D01*
X119784286Y-87195295D02*
X119784286Y-87433390D01*
X119784286Y-87433390D02*
X119831905Y-87528628D01*
X119831905Y-87528628D02*
X119879524Y-87576247D01*
X119879524Y-87576247D02*
X119974762Y-87623866D01*
X119974762Y-87623866D02*
X120165238Y-87623866D01*
X120165238Y-87623866D02*
X120260476Y-87576247D01*
X120260476Y-87576247D02*
X120308095Y-87528628D01*
X120308095Y-87528628D02*
X120355714Y-87433390D01*
X114904761Y-83150057D02*
X114809523Y-83102438D01*
X114809523Y-83102438D02*
X114714285Y-83007200D01*
X114714285Y-83007200D02*
X114571428Y-82864342D01*
X114571428Y-82864342D02*
X114476190Y-82816723D01*
X114476190Y-82816723D02*
X114380952Y-82816723D01*
X114428571Y-83054819D02*
X114333333Y-83007200D01*
X114333333Y-83007200D02*
X114238095Y-82911961D01*
X114238095Y-82911961D02*
X114190476Y-82721485D01*
X114190476Y-82721485D02*
X114190476Y-82388152D01*
X114190476Y-82388152D02*
X114238095Y-82197676D01*
X114238095Y-82197676D02*
X114333333Y-82102438D01*
X114333333Y-82102438D02*
X114428571Y-82054819D01*
X114428571Y-82054819D02*
X114619047Y-82054819D01*
X114619047Y-82054819D02*
X114714285Y-82102438D01*
X114714285Y-82102438D02*
X114809523Y-82197676D01*
X114809523Y-82197676D02*
X114857142Y-82388152D01*
X114857142Y-82388152D02*
X114857142Y-82721485D01*
X114857142Y-82721485D02*
X114809523Y-82911961D01*
X114809523Y-82911961D02*
X114714285Y-83007200D01*
X114714285Y-83007200D02*
X114619047Y-83054819D01*
X114619047Y-83054819D02*
X114428571Y-83054819D01*
X115190476Y-82054819D02*
X115809523Y-82054819D01*
X115809523Y-82054819D02*
X115476190Y-82435771D01*
X115476190Y-82435771D02*
X115619047Y-82435771D01*
X115619047Y-82435771D02*
X115714285Y-82483390D01*
X115714285Y-82483390D02*
X115761904Y-82531009D01*
X115761904Y-82531009D02*
X115809523Y-82626247D01*
X115809523Y-82626247D02*
X115809523Y-82864342D01*
X115809523Y-82864342D02*
X115761904Y-82959580D01*
X115761904Y-82959580D02*
X115714285Y-83007200D01*
X115714285Y-83007200D02*
X115619047Y-83054819D01*
X115619047Y-83054819D02*
X115333333Y-83054819D01*
X115333333Y-83054819D02*
X115238095Y-83007200D01*
X115238095Y-83007200D02*
X115190476Y-82959580D01*
X112777142Y-133784819D02*
X112443809Y-133308628D01*
X112205714Y-133784819D02*
X112205714Y-132784819D01*
X112205714Y-132784819D02*
X112586666Y-132784819D01*
X112586666Y-132784819D02*
X112681904Y-132832438D01*
X112681904Y-132832438D02*
X112729523Y-132880057D01*
X112729523Y-132880057D02*
X112777142Y-132975295D01*
X112777142Y-132975295D02*
X112777142Y-133118152D01*
X112777142Y-133118152D02*
X112729523Y-133213390D01*
X112729523Y-133213390D02*
X112681904Y-133261009D01*
X112681904Y-133261009D02*
X112586666Y-133308628D01*
X112586666Y-133308628D02*
X112205714Y-133308628D01*
X113729523Y-133784819D02*
X113158095Y-133784819D01*
X113443809Y-133784819D02*
X113443809Y-132784819D01*
X113443809Y-132784819D02*
X113348571Y-132927676D01*
X113348571Y-132927676D02*
X113253333Y-133022914D01*
X113253333Y-133022914D02*
X113158095Y-133070533D01*
X114634285Y-132784819D02*
X114158095Y-132784819D01*
X114158095Y-132784819D02*
X114110476Y-133261009D01*
X114110476Y-133261009D02*
X114158095Y-133213390D01*
X114158095Y-133213390D02*
X114253333Y-133165771D01*
X114253333Y-133165771D02*
X114491428Y-133165771D01*
X114491428Y-133165771D02*
X114586666Y-133213390D01*
X114586666Y-133213390D02*
X114634285Y-133261009D01*
X114634285Y-133261009D02*
X114681904Y-133356247D01*
X114681904Y-133356247D02*
X114681904Y-133594342D01*
X114681904Y-133594342D02*
X114634285Y-133689580D01*
X114634285Y-133689580D02*
X114586666Y-133737200D01*
X114586666Y-133737200D02*
X114491428Y-133784819D01*
X114491428Y-133784819D02*
X114253333Y-133784819D01*
X114253333Y-133784819D02*
X114158095Y-133737200D01*
X114158095Y-133737200D02*
X114110476Y-133689580D01*
X110154819Y-71766666D02*
X109678628Y-72099999D01*
X110154819Y-72338094D02*
X109154819Y-72338094D01*
X109154819Y-72338094D02*
X109154819Y-71957142D01*
X109154819Y-71957142D02*
X109202438Y-71861904D01*
X109202438Y-71861904D02*
X109250057Y-71814285D01*
X109250057Y-71814285D02*
X109345295Y-71766666D01*
X109345295Y-71766666D02*
X109488152Y-71766666D01*
X109488152Y-71766666D02*
X109583390Y-71814285D01*
X109583390Y-71814285D02*
X109631009Y-71861904D01*
X109631009Y-71861904D02*
X109678628Y-71957142D01*
X109678628Y-71957142D02*
X109678628Y-72338094D01*
X109154819Y-70861904D02*
X109154819Y-71338094D01*
X109154819Y-71338094D02*
X109631009Y-71385713D01*
X109631009Y-71385713D02*
X109583390Y-71338094D01*
X109583390Y-71338094D02*
X109535771Y-71242856D01*
X109535771Y-71242856D02*
X109535771Y-71004761D01*
X109535771Y-71004761D02*
X109583390Y-70909523D01*
X109583390Y-70909523D02*
X109631009Y-70861904D01*
X109631009Y-70861904D02*
X109726247Y-70814285D01*
X109726247Y-70814285D02*
X109964342Y-70814285D01*
X109964342Y-70814285D02*
X110059580Y-70861904D01*
X110059580Y-70861904D02*
X110107200Y-70909523D01*
X110107200Y-70909523D02*
X110154819Y-71004761D01*
X110154819Y-71004761D02*
X110154819Y-71242856D01*
X110154819Y-71242856D02*
X110107200Y-71338094D01*
X110107200Y-71338094D02*
X110059580Y-71385713D01*
X113269580Y-87826666D02*
X113317200Y-87874285D01*
X113317200Y-87874285D02*
X113364819Y-88017142D01*
X113364819Y-88017142D02*
X113364819Y-88112380D01*
X113364819Y-88112380D02*
X113317200Y-88255237D01*
X113317200Y-88255237D02*
X113221961Y-88350475D01*
X113221961Y-88350475D02*
X113126723Y-88398094D01*
X113126723Y-88398094D02*
X112936247Y-88445713D01*
X112936247Y-88445713D02*
X112793390Y-88445713D01*
X112793390Y-88445713D02*
X112602914Y-88398094D01*
X112602914Y-88398094D02*
X112507676Y-88350475D01*
X112507676Y-88350475D02*
X112412438Y-88255237D01*
X112412438Y-88255237D02*
X112364819Y-88112380D01*
X112364819Y-88112380D02*
X112364819Y-88017142D01*
X112364819Y-88017142D02*
X112412438Y-87874285D01*
X112412438Y-87874285D02*
X112460057Y-87826666D01*
X112364819Y-86921904D02*
X112364819Y-87398094D01*
X112364819Y-87398094D02*
X112841009Y-87445713D01*
X112841009Y-87445713D02*
X112793390Y-87398094D01*
X112793390Y-87398094D02*
X112745771Y-87302856D01*
X112745771Y-87302856D02*
X112745771Y-87064761D01*
X112745771Y-87064761D02*
X112793390Y-86969523D01*
X112793390Y-86969523D02*
X112841009Y-86921904D01*
X112841009Y-86921904D02*
X112936247Y-86874285D01*
X112936247Y-86874285D02*
X113174342Y-86874285D01*
X113174342Y-86874285D02*
X113269580Y-86921904D01*
X113269580Y-86921904D02*
X113317200Y-86969523D01*
X113317200Y-86969523D02*
X113364819Y-87064761D01*
X113364819Y-87064761D02*
X113364819Y-87302856D01*
X113364819Y-87302856D02*
X113317200Y-87398094D01*
X113317200Y-87398094D02*
X113269580Y-87445713D01*
X119353333Y-86674819D02*
X119020000Y-86198628D01*
X118781905Y-86674819D02*
X118781905Y-85674819D01*
X118781905Y-85674819D02*
X119162857Y-85674819D01*
X119162857Y-85674819D02*
X119258095Y-85722438D01*
X119258095Y-85722438D02*
X119305714Y-85770057D01*
X119305714Y-85770057D02*
X119353333Y-85865295D01*
X119353333Y-85865295D02*
X119353333Y-86008152D01*
X119353333Y-86008152D02*
X119305714Y-86103390D01*
X119305714Y-86103390D02*
X119258095Y-86151009D01*
X119258095Y-86151009D02*
X119162857Y-86198628D01*
X119162857Y-86198628D02*
X118781905Y-86198628D01*
X119924762Y-86103390D02*
X119829524Y-86055771D01*
X119829524Y-86055771D02*
X119781905Y-86008152D01*
X119781905Y-86008152D02*
X119734286Y-85912914D01*
X119734286Y-85912914D02*
X119734286Y-85865295D01*
X119734286Y-85865295D02*
X119781905Y-85770057D01*
X119781905Y-85770057D02*
X119829524Y-85722438D01*
X119829524Y-85722438D02*
X119924762Y-85674819D01*
X119924762Y-85674819D02*
X120115238Y-85674819D01*
X120115238Y-85674819D02*
X120210476Y-85722438D01*
X120210476Y-85722438D02*
X120258095Y-85770057D01*
X120258095Y-85770057D02*
X120305714Y-85865295D01*
X120305714Y-85865295D02*
X120305714Y-85912914D01*
X120305714Y-85912914D02*
X120258095Y-86008152D01*
X120258095Y-86008152D02*
X120210476Y-86055771D01*
X120210476Y-86055771D02*
X120115238Y-86103390D01*
X120115238Y-86103390D02*
X119924762Y-86103390D01*
X119924762Y-86103390D02*
X119829524Y-86151009D01*
X119829524Y-86151009D02*
X119781905Y-86198628D01*
X119781905Y-86198628D02*
X119734286Y-86293866D01*
X119734286Y-86293866D02*
X119734286Y-86484342D01*
X119734286Y-86484342D02*
X119781905Y-86579580D01*
X119781905Y-86579580D02*
X119829524Y-86627200D01*
X119829524Y-86627200D02*
X119924762Y-86674819D01*
X119924762Y-86674819D02*
X120115238Y-86674819D01*
X120115238Y-86674819D02*
X120210476Y-86627200D01*
X120210476Y-86627200D02*
X120258095Y-86579580D01*
X120258095Y-86579580D02*
X120305714Y-86484342D01*
X120305714Y-86484342D02*
X120305714Y-86293866D01*
X120305714Y-86293866D02*
X120258095Y-86198628D01*
X120258095Y-86198628D02*
X120210476Y-86151009D01*
X120210476Y-86151009D02*
X120115238Y-86103390D01*
X107437142Y-130699580D02*
X107389523Y-130747200D01*
X107389523Y-130747200D02*
X107246666Y-130794819D01*
X107246666Y-130794819D02*
X107151428Y-130794819D01*
X107151428Y-130794819D02*
X107008571Y-130747200D01*
X107008571Y-130747200D02*
X106913333Y-130651961D01*
X106913333Y-130651961D02*
X106865714Y-130556723D01*
X106865714Y-130556723D02*
X106818095Y-130366247D01*
X106818095Y-130366247D02*
X106818095Y-130223390D01*
X106818095Y-130223390D02*
X106865714Y-130032914D01*
X106865714Y-130032914D02*
X106913333Y-129937676D01*
X106913333Y-129937676D02*
X107008571Y-129842438D01*
X107008571Y-129842438D02*
X107151428Y-129794819D01*
X107151428Y-129794819D02*
X107246666Y-129794819D01*
X107246666Y-129794819D02*
X107389523Y-129842438D01*
X107389523Y-129842438D02*
X107437142Y-129890057D01*
X108389523Y-130794819D02*
X107818095Y-130794819D01*
X108103809Y-130794819D02*
X108103809Y-129794819D01*
X108103809Y-129794819D02*
X108008571Y-129937676D01*
X108008571Y-129937676D02*
X107913333Y-130032914D01*
X107913333Y-130032914D02*
X107818095Y-130080533D01*
X109341904Y-130794819D02*
X108770476Y-130794819D01*
X109056190Y-130794819D02*
X109056190Y-129794819D01*
X109056190Y-129794819D02*
X108960952Y-129937676D01*
X108960952Y-129937676D02*
X108865714Y-130032914D01*
X108865714Y-130032914D02*
X108770476Y-130080533D01*
X110223333Y-98964819D02*
X109890000Y-98488628D01*
X109651905Y-98964819D02*
X109651905Y-97964819D01*
X109651905Y-97964819D02*
X110032857Y-97964819D01*
X110032857Y-97964819D02*
X110128095Y-98012438D01*
X110128095Y-98012438D02*
X110175714Y-98060057D01*
X110175714Y-98060057D02*
X110223333Y-98155295D01*
X110223333Y-98155295D02*
X110223333Y-98298152D01*
X110223333Y-98298152D02*
X110175714Y-98393390D01*
X110175714Y-98393390D02*
X110128095Y-98441009D01*
X110128095Y-98441009D02*
X110032857Y-98488628D01*
X110032857Y-98488628D02*
X109651905Y-98488628D01*
X111080476Y-98298152D02*
X111080476Y-98964819D01*
X110842381Y-97917200D02*
X110604286Y-98631485D01*
X110604286Y-98631485D02*
X111223333Y-98631485D01*
X112787142Y-132524819D02*
X112453809Y-132048628D01*
X112215714Y-132524819D02*
X112215714Y-131524819D01*
X112215714Y-131524819D02*
X112596666Y-131524819D01*
X112596666Y-131524819D02*
X112691904Y-131572438D01*
X112691904Y-131572438D02*
X112739523Y-131620057D01*
X112739523Y-131620057D02*
X112787142Y-131715295D01*
X112787142Y-131715295D02*
X112787142Y-131858152D01*
X112787142Y-131858152D02*
X112739523Y-131953390D01*
X112739523Y-131953390D02*
X112691904Y-132001009D01*
X112691904Y-132001009D02*
X112596666Y-132048628D01*
X112596666Y-132048628D02*
X112215714Y-132048628D01*
X113168095Y-131620057D02*
X113215714Y-131572438D01*
X113215714Y-131572438D02*
X113310952Y-131524819D01*
X113310952Y-131524819D02*
X113549047Y-131524819D01*
X113549047Y-131524819D02*
X113644285Y-131572438D01*
X113644285Y-131572438D02*
X113691904Y-131620057D01*
X113691904Y-131620057D02*
X113739523Y-131715295D01*
X113739523Y-131715295D02*
X113739523Y-131810533D01*
X113739523Y-131810533D02*
X113691904Y-131953390D01*
X113691904Y-131953390D02*
X113120476Y-132524819D01*
X113120476Y-132524819D02*
X113739523Y-132524819D01*
X114358571Y-131524819D02*
X114453809Y-131524819D01*
X114453809Y-131524819D02*
X114549047Y-131572438D01*
X114549047Y-131572438D02*
X114596666Y-131620057D01*
X114596666Y-131620057D02*
X114644285Y-131715295D01*
X114644285Y-131715295D02*
X114691904Y-131905771D01*
X114691904Y-131905771D02*
X114691904Y-132143866D01*
X114691904Y-132143866D02*
X114644285Y-132334342D01*
X114644285Y-132334342D02*
X114596666Y-132429580D01*
X114596666Y-132429580D02*
X114549047Y-132477200D01*
X114549047Y-132477200D02*
X114453809Y-132524819D01*
X114453809Y-132524819D02*
X114358571Y-132524819D01*
X114358571Y-132524819D02*
X114263333Y-132477200D01*
X114263333Y-132477200D02*
X114215714Y-132429580D01*
X114215714Y-132429580D02*
X114168095Y-132334342D01*
X114168095Y-132334342D02*
X114120476Y-132143866D01*
X114120476Y-132143866D02*
X114120476Y-131905771D01*
X114120476Y-131905771D02*
X114168095Y-131715295D01*
X114168095Y-131715295D02*
X114215714Y-131620057D01*
X114215714Y-131620057D02*
X114263333Y-131572438D01*
X114263333Y-131572438D02*
X114358571Y-131524819D01*
X104433333Y-95854819D02*
X104100000Y-95378628D01*
X103861905Y-95854819D02*
X103861905Y-94854819D01*
X103861905Y-94854819D02*
X104242857Y-94854819D01*
X104242857Y-94854819D02*
X104338095Y-94902438D01*
X104338095Y-94902438D02*
X104385714Y-94950057D01*
X104385714Y-94950057D02*
X104433333Y-95045295D01*
X104433333Y-95045295D02*
X104433333Y-95188152D01*
X104433333Y-95188152D02*
X104385714Y-95283390D01*
X104385714Y-95283390D02*
X104338095Y-95331009D01*
X104338095Y-95331009D02*
X104242857Y-95378628D01*
X104242857Y-95378628D02*
X103861905Y-95378628D01*
X104766667Y-94854819D02*
X105433333Y-94854819D01*
X105433333Y-94854819D02*
X105004762Y-95854819D01*
X100586905Y-131579819D02*
X100586905Y-130579819D01*
X100586905Y-130579819D02*
X100825000Y-130579819D01*
X100825000Y-130579819D02*
X100967857Y-130627438D01*
X100967857Y-130627438D02*
X101063095Y-130722676D01*
X101063095Y-130722676D02*
X101110714Y-130817914D01*
X101110714Y-130817914D02*
X101158333Y-131008390D01*
X101158333Y-131008390D02*
X101158333Y-131151247D01*
X101158333Y-131151247D02*
X101110714Y-131341723D01*
X101110714Y-131341723D02*
X101063095Y-131436961D01*
X101063095Y-131436961D02*
X100967857Y-131532200D01*
X100967857Y-131532200D02*
X100825000Y-131579819D01*
X100825000Y-131579819D02*
X100586905Y-131579819D01*
X101539286Y-130675057D02*
X101586905Y-130627438D01*
X101586905Y-130627438D02*
X101682143Y-130579819D01*
X101682143Y-130579819D02*
X101920238Y-130579819D01*
X101920238Y-130579819D02*
X102015476Y-130627438D01*
X102015476Y-130627438D02*
X102063095Y-130675057D01*
X102063095Y-130675057D02*
X102110714Y-130770295D01*
X102110714Y-130770295D02*
X102110714Y-130865533D01*
X102110714Y-130865533D02*
X102063095Y-131008390D01*
X102063095Y-131008390D02*
X101491667Y-131579819D01*
X101491667Y-131579819D02*
X102110714Y-131579819D01*
X106357142Y-84254819D02*
X106023809Y-83778628D01*
X105785714Y-84254819D02*
X105785714Y-83254819D01*
X105785714Y-83254819D02*
X106166666Y-83254819D01*
X106166666Y-83254819D02*
X106261904Y-83302438D01*
X106261904Y-83302438D02*
X106309523Y-83350057D01*
X106309523Y-83350057D02*
X106357142Y-83445295D01*
X106357142Y-83445295D02*
X106357142Y-83588152D01*
X106357142Y-83588152D02*
X106309523Y-83683390D01*
X106309523Y-83683390D02*
X106261904Y-83731009D01*
X106261904Y-83731009D02*
X106166666Y-83778628D01*
X106166666Y-83778628D02*
X105785714Y-83778628D01*
X107309523Y-84254819D02*
X106738095Y-84254819D01*
X107023809Y-84254819D02*
X107023809Y-83254819D01*
X107023809Y-83254819D02*
X106928571Y-83397676D01*
X106928571Y-83397676D02*
X106833333Y-83492914D01*
X106833333Y-83492914D02*
X106738095Y-83540533D01*
X107880952Y-83683390D02*
X107785714Y-83635771D01*
X107785714Y-83635771D02*
X107738095Y-83588152D01*
X107738095Y-83588152D02*
X107690476Y-83492914D01*
X107690476Y-83492914D02*
X107690476Y-83445295D01*
X107690476Y-83445295D02*
X107738095Y-83350057D01*
X107738095Y-83350057D02*
X107785714Y-83302438D01*
X107785714Y-83302438D02*
X107880952Y-83254819D01*
X107880952Y-83254819D02*
X108071428Y-83254819D01*
X108071428Y-83254819D02*
X108166666Y-83302438D01*
X108166666Y-83302438D02*
X108214285Y-83350057D01*
X108214285Y-83350057D02*
X108261904Y-83445295D01*
X108261904Y-83445295D02*
X108261904Y-83492914D01*
X108261904Y-83492914D02*
X108214285Y-83588152D01*
X108214285Y-83588152D02*
X108166666Y-83635771D01*
X108166666Y-83635771D02*
X108071428Y-83683390D01*
X108071428Y-83683390D02*
X107880952Y-83683390D01*
X107880952Y-83683390D02*
X107785714Y-83731009D01*
X107785714Y-83731009D02*
X107738095Y-83778628D01*
X107738095Y-83778628D02*
X107690476Y-83873866D01*
X107690476Y-83873866D02*
X107690476Y-84064342D01*
X107690476Y-84064342D02*
X107738095Y-84159580D01*
X107738095Y-84159580D02*
X107785714Y-84207200D01*
X107785714Y-84207200D02*
X107880952Y-84254819D01*
X107880952Y-84254819D02*
X108071428Y-84254819D01*
X108071428Y-84254819D02*
X108166666Y-84207200D01*
X108166666Y-84207200D02*
X108214285Y-84159580D01*
X108214285Y-84159580D02*
X108261904Y-84064342D01*
X108261904Y-84064342D02*
X108261904Y-83873866D01*
X108261904Y-83873866D02*
X108214285Y-83778628D01*
X108214285Y-83778628D02*
X108166666Y-83731009D01*
X108166666Y-83731009D02*
X108071428Y-83683390D01*
X101932142Y-135984580D02*
X101884523Y-136032200D01*
X101884523Y-136032200D02*
X101741666Y-136079819D01*
X101741666Y-136079819D02*
X101646428Y-136079819D01*
X101646428Y-136079819D02*
X101503571Y-136032200D01*
X101503571Y-136032200D02*
X101408333Y-135936961D01*
X101408333Y-135936961D02*
X101360714Y-135841723D01*
X101360714Y-135841723D02*
X101313095Y-135651247D01*
X101313095Y-135651247D02*
X101313095Y-135508390D01*
X101313095Y-135508390D02*
X101360714Y-135317914D01*
X101360714Y-135317914D02*
X101408333Y-135222676D01*
X101408333Y-135222676D02*
X101503571Y-135127438D01*
X101503571Y-135127438D02*
X101646428Y-135079819D01*
X101646428Y-135079819D02*
X101741666Y-135079819D01*
X101741666Y-135079819D02*
X101884523Y-135127438D01*
X101884523Y-135127438D02*
X101932142Y-135175057D01*
X102884523Y-136079819D02*
X102313095Y-136079819D01*
X102598809Y-136079819D02*
X102598809Y-135079819D01*
X102598809Y-135079819D02*
X102503571Y-135222676D01*
X102503571Y-135222676D02*
X102408333Y-135317914D01*
X102408333Y-135317914D02*
X102313095Y-135365533D01*
X103503571Y-135079819D02*
X103598809Y-135079819D01*
X103598809Y-135079819D02*
X103694047Y-135127438D01*
X103694047Y-135127438D02*
X103741666Y-135175057D01*
X103741666Y-135175057D02*
X103789285Y-135270295D01*
X103789285Y-135270295D02*
X103836904Y-135460771D01*
X103836904Y-135460771D02*
X103836904Y-135698866D01*
X103836904Y-135698866D02*
X103789285Y-135889342D01*
X103789285Y-135889342D02*
X103741666Y-135984580D01*
X103741666Y-135984580D02*
X103694047Y-136032200D01*
X103694047Y-136032200D02*
X103598809Y-136079819D01*
X103598809Y-136079819D02*
X103503571Y-136079819D01*
X103503571Y-136079819D02*
X103408333Y-136032200D01*
X103408333Y-136032200D02*
X103360714Y-135984580D01*
X103360714Y-135984580D02*
X103313095Y-135889342D01*
X103313095Y-135889342D02*
X103265476Y-135698866D01*
X103265476Y-135698866D02*
X103265476Y-135460771D01*
X103265476Y-135460771D02*
X103313095Y-135270295D01*
X103313095Y-135270295D02*
X103360714Y-135175057D01*
X103360714Y-135175057D02*
X103408333Y-135127438D01*
X103408333Y-135127438D02*
X103503571Y-135079819D01*
X118584819Y-87786666D02*
X118108628Y-88119999D01*
X118584819Y-88358094D02*
X117584819Y-88358094D01*
X117584819Y-88358094D02*
X117584819Y-87977142D01*
X117584819Y-87977142D02*
X117632438Y-87881904D01*
X117632438Y-87881904D02*
X117680057Y-87834285D01*
X117680057Y-87834285D02*
X117775295Y-87786666D01*
X117775295Y-87786666D02*
X117918152Y-87786666D01*
X117918152Y-87786666D02*
X118013390Y-87834285D01*
X118013390Y-87834285D02*
X118061009Y-87881904D01*
X118061009Y-87881904D02*
X118108628Y-87977142D01*
X118108628Y-87977142D02*
X118108628Y-88358094D01*
X117584819Y-87453332D02*
X117584819Y-86834285D01*
X117584819Y-86834285D02*
X117965771Y-87167618D01*
X117965771Y-87167618D02*
X117965771Y-87024761D01*
X117965771Y-87024761D02*
X118013390Y-86929523D01*
X118013390Y-86929523D02*
X118061009Y-86881904D01*
X118061009Y-86881904D02*
X118156247Y-86834285D01*
X118156247Y-86834285D02*
X118394342Y-86834285D01*
X118394342Y-86834285D02*
X118489580Y-86881904D01*
X118489580Y-86881904D02*
X118537200Y-86929523D01*
X118537200Y-86929523D02*
X118584819Y-87024761D01*
X118584819Y-87024761D02*
X118584819Y-87310475D01*
X118584819Y-87310475D02*
X118537200Y-87405713D01*
X118537200Y-87405713D02*
X118489580Y-87453332D01*
X123084761Y-95920057D02*
X122989523Y-95872438D01*
X122989523Y-95872438D02*
X122894285Y-95777200D01*
X122894285Y-95777200D02*
X122751428Y-95634342D01*
X122751428Y-95634342D02*
X122656190Y-95586723D01*
X122656190Y-95586723D02*
X122560952Y-95586723D01*
X122608571Y-95824819D02*
X122513333Y-95777200D01*
X122513333Y-95777200D02*
X122418095Y-95681961D01*
X122418095Y-95681961D02*
X122370476Y-95491485D01*
X122370476Y-95491485D02*
X122370476Y-95158152D01*
X122370476Y-95158152D02*
X122418095Y-94967676D01*
X122418095Y-94967676D02*
X122513333Y-94872438D01*
X122513333Y-94872438D02*
X122608571Y-94824819D01*
X122608571Y-94824819D02*
X122799047Y-94824819D01*
X122799047Y-94824819D02*
X122894285Y-94872438D01*
X122894285Y-94872438D02*
X122989523Y-94967676D01*
X122989523Y-94967676D02*
X123037142Y-95158152D01*
X123037142Y-95158152D02*
X123037142Y-95491485D01*
X123037142Y-95491485D02*
X122989523Y-95681961D01*
X122989523Y-95681961D02*
X122894285Y-95777200D01*
X122894285Y-95777200D02*
X122799047Y-95824819D01*
X122799047Y-95824819D02*
X122608571Y-95824819D01*
X123989523Y-95824819D02*
X123418095Y-95824819D01*
X123703809Y-95824819D02*
X123703809Y-94824819D01*
X123703809Y-94824819D02*
X123608571Y-94967676D01*
X123608571Y-94967676D02*
X123513333Y-95062914D01*
X123513333Y-95062914D02*
X123418095Y-95110533D01*
X119024819Y-97111904D02*
X119834342Y-97111904D01*
X119834342Y-97111904D02*
X119929580Y-97064285D01*
X119929580Y-97064285D02*
X119977200Y-97016666D01*
X119977200Y-97016666D02*
X120024819Y-96921428D01*
X120024819Y-96921428D02*
X120024819Y-96730952D01*
X120024819Y-96730952D02*
X119977200Y-96635714D01*
X119977200Y-96635714D02*
X119929580Y-96588095D01*
X119929580Y-96588095D02*
X119834342Y-96540476D01*
X119834342Y-96540476D02*
X119024819Y-96540476D01*
X119358152Y-95635714D02*
X120024819Y-95635714D01*
X118977200Y-95873809D02*
X119691485Y-96111904D01*
X119691485Y-96111904D02*
X119691485Y-95492857D01*
X101259580Y-96946666D02*
X101307200Y-96994285D01*
X101307200Y-96994285D02*
X101354819Y-97137142D01*
X101354819Y-97137142D02*
X101354819Y-97232380D01*
X101354819Y-97232380D02*
X101307200Y-97375237D01*
X101307200Y-97375237D02*
X101211961Y-97470475D01*
X101211961Y-97470475D02*
X101116723Y-97518094D01*
X101116723Y-97518094D02*
X100926247Y-97565713D01*
X100926247Y-97565713D02*
X100783390Y-97565713D01*
X100783390Y-97565713D02*
X100592914Y-97518094D01*
X100592914Y-97518094D02*
X100497676Y-97470475D01*
X100497676Y-97470475D02*
X100402438Y-97375237D01*
X100402438Y-97375237D02*
X100354819Y-97232380D01*
X100354819Y-97232380D02*
X100354819Y-97137142D01*
X100354819Y-97137142D02*
X100402438Y-96994285D01*
X100402438Y-96994285D02*
X100450057Y-96946666D01*
X100354819Y-96613332D02*
X100354819Y-95994285D01*
X100354819Y-95994285D02*
X100735771Y-96327618D01*
X100735771Y-96327618D02*
X100735771Y-96184761D01*
X100735771Y-96184761D02*
X100783390Y-96089523D01*
X100783390Y-96089523D02*
X100831009Y-96041904D01*
X100831009Y-96041904D02*
X100926247Y-95994285D01*
X100926247Y-95994285D02*
X101164342Y-95994285D01*
X101164342Y-95994285D02*
X101259580Y-96041904D01*
X101259580Y-96041904D02*
X101307200Y-96089523D01*
X101307200Y-96089523D02*
X101354819Y-96184761D01*
X101354819Y-96184761D02*
X101354819Y-96470475D01*
X101354819Y-96470475D02*
X101307200Y-96565713D01*
X101307200Y-96565713D02*
X101259580Y-96613332D01*
X116964819Y-87942857D02*
X116488628Y-88276190D01*
X116964819Y-88514285D02*
X115964819Y-88514285D01*
X115964819Y-88514285D02*
X115964819Y-88133333D01*
X115964819Y-88133333D02*
X116012438Y-88038095D01*
X116012438Y-88038095D02*
X116060057Y-87990476D01*
X116060057Y-87990476D02*
X116155295Y-87942857D01*
X116155295Y-87942857D02*
X116298152Y-87942857D01*
X116298152Y-87942857D02*
X116393390Y-87990476D01*
X116393390Y-87990476D02*
X116441009Y-88038095D01*
X116441009Y-88038095D02*
X116488628Y-88133333D01*
X116488628Y-88133333D02*
X116488628Y-88514285D01*
X116964819Y-86990476D02*
X116964819Y-87561904D01*
X116964819Y-87276190D02*
X115964819Y-87276190D01*
X115964819Y-87276190D02*
X116107676Y-87371428D01*
X116107676Y-87371428D02*
X116202914Y-87466666D01*
X116202914Y-87466666D02*
X116250533Y-87561904D01*
X116964819Y-86038095D02*
X116964819Y-86609523D01*
X116964819Y-86323809D02*
X115964819Y-86323809D01*
X115964819Y-86323809D02*
X116107676Y-86419047D01*
X116107676Y-86419047D02*
X116202914Y-86514285D01*
X116202914Y-86514285D02*
X116250533Y-86609523D01*
X103158333Y-131579819D02*
X102825000Y-131103628D01*
X102586905Y-131579819D02*
X102586905Y-130579819D01*
X102586905Y-130579819D02*
X102967857Y-130579819D01*
X102967857Y-130579819D02*
X103063095Y-130627438D01*
X103063095Y-130627438D02*
X103110714Y-130675057D01*
X103110714Y-130675057D02*
X103158333Y-130770295D01*
X103158333Y-130770295D02*
X103158333Y-130913152D01*
X103158333Y-130913152D02*
X103110714Y-131008390D01*
X103110714Y-131008390D02*
X103063095Y-131056009D01*
X103063095Y-131056009D02*
X102967857Y-131103628D01*
X102967857Y-131103628D02*
X102586905Y-131103628D01*
X103539286Y-130675057D02*
X103586905Y-130627438D01*
X103586905Y-130627438D02*
X103682143Y-130579819D01*
X103682143Y-130579819D02*
X103920238Y-130579819D01*
X103920238Y-130579819D02*
X104015476Y-130627438D01*
X104015476Y-130627438D02*
X104063095Y-130675057D01*
X104063095Y-130675057D02*
X104110714Y-130770295D01*
X104110714Y-130770295D02*
X104110714Y-130865533D01*
X104110714Y-130865533D02*
X104063095Y-131008390D01*
X104063095Y-131008390D02*
X103491667Y-131579819D01*
X103491667Y-131579819D02*
X104110714Y-131579819D01*
X117408333Y-98959580D02*
X117360714Y-99007200D01*
X117360714Y-99007200D02*
X117217857Y-99054819D01*
X117217857Y-99054819D02*
X117122619Y-99054819D01*
X117122619Y-99054819D02*
X116979762Y-99007200D01*
X116979762Y-99007200D02*
X116884524Y-98911961D01*
X116884524Y-98911961D02*
X116836905Y-98816723D01*
X116836905Y-98816723D02*
X116789286Y-98626247D01*
X116789286Y-98626247D02*
X116789286Y-98483390D01*
X116789286Y-98483390D02*
X116836905Y-98292914D01*
X116836905Y-98292914D02*
X116884524Y-98197676D01*
X116884524Y-98197676D02*
X116979762Y-98102438D01*
X116979762Y-98102438D02*
X117122619Y-98054819D01*
X117122619Y-98054819D02*
X117217857Y-98054819D01*
X117217857Y-98054819D02*
X117360714Y-98102438D01*
X117360714Y-98102438D02*
X117408333Y-98150057D01*
X117789286Y-98150057D02*
X117836905Y-98102438D01*
X117836905Y-98102438D02*
X117932143Y-98054819D01*
X117932143Y-98054819D02*
X118170238Y-98054819D01*
X118170238Y-98054819D02*
X118265476Y-98102438D01*
X118265476Y-98102438D02*
X118313095Y-98150057D01*
X118313095Y-98150057D02*
X118360714Y-98245295D01*
X118360714Y-98245295D02*
X118360714Y-98340533D01*
X118360714Y-98340533D02*
X118313095Y-98483390D01*
X118313095Y-98483390D02*
X117741667Y-99054819D01*
X117741667Y-99054819D02*
X118360714Y-99054819D01*
X103859580Y-96946666D02*
X103907200Y-96994285D01*
X103907200Y-96994285D02*
X103954819Y-97137142D01*
X103954819Y-97137142D02*
X103954819Y-97232380D01*
X103954819Y-97232380D02*
X103907200Y-97375237D01*
X103907200Y-97375237D02*
X103811961Y-97470475D01*
X103811961Y-97470475D02*
X103716723Y-97518094D01*
X103716723Y-97518094D02*
X103526247Y-97565713D01*
X103526247Y-97565713D02*
X103383390Y-97565713D01*
X103383390Y-97565713D02*
X103192914Y-97518094D01*
X103192914Y-97518094D02*
X103097676Y-97470475D01*
X103097676Y-97470475D02*
X103002438Y-97375237D01*
X103002438Y-97375237D02*
X102954819Y-97232380D01*
X102954819Y-97232380D02*
X102954819Y-97137142D01*
X102954819Y-97137142D02*
X103002438Y-96994285D01*
X103002438Y-96994285D02*
X103050057Y-96946666D01*
X102954819Y-96089523D02*
X102954819Y-96279999D01*
X102954819Y-96279999D02*
X103002438Y-96375237D01*
X103002438Y-96375237D02*
X103050057Y-96422856D01*
X103050057Y-96422856D02*
X103192914Y-96518094D01*
X103192914Y-96518094D02*
X103383390Y-96565713D01*
X103383390Y-96565713D02*
X103764342Y-96565713D01*
X103764342Y-96565713D02*
X103859580Y-96518094D01*
X103859580Y-96518094D02*
X103907200Y-96470475D01*
X103907200Y-96470475D02*
X103954819Y-96375237D01*
X103954819Y-96375237D02*
X103954819Y-96184761D01*
X103954819Y-96184761D02*
X103907200Y-96089523D01*
X103907200Y-96089523D02*
X103859580Y-96041904D01*
X103859580Y-96041904D02*
X103764342Y-95994285D01*
X103764342Y-95994285D02*
X103526247Y-95994285D01*
X103526247Y-95994285D02*
X103431009Y-96041904D01*
X103431009Y-96041904D02*
X103383390Y-96089523D01*
X103383390Y-96089523D02*
X103335771Y-96184761D01*
X103335771Y-96184761D02*
X103335771Y-96375237D01*
X103335771Y-96375237D02*
X103383390Y-96470475D01*
X103383390Y-96470475D02*
X103431009Y-96518094D01*
X103431009Y-96518094D02*
X103526247Y-96565713D01*
X124316666Y-96024819D02*
X124316666Y-96739104D01*
X124316666Y-96739104D02*
X124269047Y-96881961D01*
X124269047Y-96881961D02*
X124173809Y-96977200D01*
X124173809Y-96977200D02*
X124030952Y-97024819D01*
X124030952Y-97024819D02*
X123935714Y-97024819D01*
X124745238Y-96120057D02*
X124792857Y-96072438D01*
X124792857Y-96072438D02*
X124888095Y-96024819D01*
X124888095Y-96024819D02*
X125126190Y-96024819D01*
X125126190Y-96024819D02*
X125221428Y-96072438D01*
X125221428Y-96072438D02*
X125269047Y-96120057D01*
X125269047Y-96120057D02*
X125316666Y-96215295D01*
X125316666Y-96215295D02*
X125316666Y-96310533D01*
X125316666Y-96310533D02*
X125269047Y-96453390D01*
X125269047Y-96453390D02*
X124697619Y-97024819D01*
X124697619Y-97024819D02*
X125316666Y-97024819D01*
X113950057Y-78895238D02*
X113902438Y-78990476D01*
X113902438Y-78990476D02*
X113807200Y-79085714D01*
X113807200Y-79085714D02*
X113664342Y-79228571D01*
X113664342Y-79228571D02*
X113616723Y-79323809D01*
X113616723Y-79323809D02*
X113616723Y-79419047D01*
X113854819Y-79371428D02*
X113807200Y-79466666D01*
X113807200Y-79466666D02*
X113711961Y-79561904D01*
X113711961Y-79561904D02*
X113521485Y-79609523D01*
X113521485Y-79609523D02*
X113188152Y-79609523D01*
X113188152Y-79609523D02*
X112997676Y-79561904D01*
X112997676Y-79561904D02*
X112902438Y-79466666D01*
X112902438Y-79466666D02*
X112854819Y-79371428D01*
X112854819Y-79371428D02*
X112854819Y-79180952D01*
X112854819Y-79180952D02*
X112902438Y-79085714D01*
X112902438Y-79085714D02*
X112997676Y-78990476D01*
X112997676Y-78990476D02*
X113188152Y-78942857D01*
X113188152Y-78942857D02*
X113521485Y-78942857D01*
X113521485Y-78942857D02*
X113711961Y-78990476D01*
X113711961Y-78990476D02*
X113807200Y-79085714D01*
X113807200Y-79085714D02*
X113854819Y-79180952D01*
X113854819Y-79180952D02*
X113854819Y-79371428D01*
X112950057Y-78561904D02*
X112902438Y-78514285D01*
X112902438Y-78514285D02*
X112854819Y-78419047D01*
X112854819Y-78419047D02*
X112854819Y-78180952D01*
X112854819Y-78180952D02*
X112902438Y-78085714D01*
X112902438Y-78085714D02*
X112950057Y-78038095D01*
X112950057Y-78038095D02*
X113045295Y-77990476D01*
X113045295Y-77990476D02*
X113140533Y-77990476D01*
X113140533Y-77990476D02*
X113283390Y-78038095D01*
X113283390Y-78038095D02*
X113854819Y-78609523D01*
X113854819Y-78609523D02*
X113854819Y-77990476D01*
X105654819Y-74466666D02*
X105178628Y-74799999D01*
X105654819Y-75038094D02*
X104654819Y-75038094D01*
X104654819Y-75038094D02*
X104654819Y-74657142D01*
X104654819Y-74657142D02*
X104702438Y-74561904D01*
X104702438Y-74561904D02*
X104750057Y-74514285D01*
X104750057Y-74514285D02*
X104845295Y-74466666D01*
X104845295Y-74466666D02*
X104988152Y-74466666D01*
X104988152Y-74466666D02*
X105083390Y-74514285D01*
X105083390Y-74514285D02*
X105131009Y-74561904D01*
X105131009Y-74561904D02*
X105178628Y-74657142D01*
X105178628Y-74657142D02*
X105178628Y-75038094D01*
X104654819Y-73609523D02*
X104654819Y-73799999D01*
X104654819Y-73799999D02*
X104702438Y-73895237D01*
X104702438Y-73895237D02*
X104750057Y-73942856D01*
X104750057Y-73942856D02*
X104892914Y-74038094D01*
X104892914Y-74038094D02*
X105083390Y-74085713D01*
X105083390Y-74085713D02*
X105464342Y-74085713D01*
X105464342Y-74085713D02*
X105559580Y-74038094D01*
X105559580Y-74038094D02*
X105607200Y-73990475D01*
X105607200Y-73990475D02*
X105654819Y-73895237D01*
X105654819Y-73895237D02*
X105654819Y-73704761D01*
X105654819Y-73704761D02*
X105607200Y-73609523D01*
X105607200Y-73609523D02*
X105559580Y-73561904D01*
X105559580Y-73561904D02*
X105464342Y-73514285D01*
X105464342Y-73514285D02*
X105226247Y-73514285D01*
X105226247Y-73514285D02*
X105131009Y-73561904D01*
X105131009Y-73561904D02*
X105083390Y-73609523D01*
X105083390Y-73609523D02*
X105035771Y-73704761D01*
X105035771Y-73704761D02*
X105035771Y-73895237D01*
X105035771Y-73895237D02*
X105083390Y-73990475D01*
X105083390Y-73990475D02*
X105131009Y-74038094D01*
X105131009Y-74038094D02*
X105226247Y-74085713D01*
X101732142Y-74914819D02*
X101398809Y-74438628D01*
X101160714Y-74914819D02*
X101160714Y-73914819D01*
X101160714Y-73914819D02*
X101541666Y-73914819D01*
X101541666Y-73914819D02*
X101636904Y-73962438D01*
X101636904Y-73962438D02*
X101684523Y-74010057D01*
X101684523Y-74010057D02*
X101732142Y-74105295D01*
X101732142Y-74105295D02*
X101732142Y-74248152D01*
X101732142Y-74248152D02*
X101684523Y-74343390D01*
X101684523Y-74343390D02*
X101636904Y-74391009D01*
X101636904Y-74391009D02*
X101541666Y-74438628D01*
X101541666Y-74438628D02*
X101160714Y-74438628D01*
X102684523Y-74914819D02*
X102113095Y-74914819D01*
X102398809Y-74914819D02*
X102398809Y-73914819D01*
X102398809Y-73914819D02*
X102303571Y-74057676D01*
X102303571Y-74057676D02*
X102208333Y-74152914D01*
X102208333Y-74152914D02*
X102113095Y-74200533D01*
X103541666Y-74248152D02*
X103541666Y-74914819D01*
X103303571Y-73867200D02*
X103065476Y-74581485D01*
X103065476Y-74581485D02*
X103684523Y-74581485D01*
X114328095Y-92254819D02*
X114328095Y-93064342D01*
X114328095Y-93064342D02*
X114375714Y-93159580D01*
X114375714Y-93159580D02*
X114423333Y-93207200D01*
X114423333Y-93207200D02*
X114518571Y-93254819D01*
X114518571Y-93254819D02*
X114709047Y-93254819D01*
X114709047Y-93254819D02*
X114804285Y-93207200D01*
X114804285Y-93207200D02*
X114851904Y-93159580D01*
X114851904Y-93159580D02*
X114899523Y-93064342D01*
X114899523Y-93064342D02*
X114899523Y-92254819D01*
X115280476Y-92254819D02*
X115899523Y-92254819D01*
X115899523Y-92254819D02*
X115566190Y-92635771D01*
X115566190Y-92635771D02*
X115709047Y-92635771D01*
X115709047Y-92635771D02*
X115804285Y-92683390D01*
X115804285Y-92683390D02*
X115851904Y-92731009D01*
X115851904Y-92731009D02*
X115899523Y-92826247D01*
X115899523Y-92826247D02*
X115899523Y-93064342D01*
X115899523Y-93064342D02*
X115851904Y-93159580D01*
X115851904Y-93159580D02*
X115804285Y-93207200D01*
X115804285Y-93207200D02*
X115709047Y-93254819D01*
X115709047Y-93254819D02*
X115423333Y-93254819D01*
X115423333Y-93254819D02*
X115328095Y-93207200D01*
X115328095Y-93207200D02*
X115280476Y-93159580D01*
X114795180Y-140261905D02*
X115795180Y-140261905D01*
X115795180Y-140261905D02*
X115795180Y-140642857D01*
X115795180Y-140642857D02*
X115747561Y-140738095D01*
X115747561Y-140738095D02*
X115699942Y-140785714D01*
X115699942Y-140785714D02*
X115604704Y-140833333D01*
X115604704Y-140833333D02*
X115461847Y-140833333D01*
X115461847Y-140833333D02*
X115366609Y-140785714D01*
X115366609Y-140785714D02*
X115318990Y-140738095D01*
X115318990Y-140738095D02*
X115271371Y-140642857D01*
X115271371Y-140642857D02*
X115271371Y-140261905D01*
X114795180Y-141785714D02*
X114795180Y-141214286D01*
X114795180Y-141500000D02*
X115795180Y-141500000D01*
X115795180Y-141500000D02*
X115652323Y-141404762D01*
X115652323Y-141404762D02*
X115557085Y-141309524D01*
X115557085Y-141309524D02*
X115509466Y-141214286D01*
X109413333Y-92139580D02*
X109365714Y-92187200D01*
X109365714Y-92187200D02*
X109222857Y-92234819D01*
X109222857Y-92234819D02*
X109127619Y-92234819D01*
X109127619Y-92234819D02*
X108984762Y-92187200D01*
X108984762Y-92187200D02*
X108889524Y-92091961D01*
X108889524Y-92091961D02*
X108841905Y-91996723D01*
X108841905Y-91996723D02*
X108794286Y-91806247D01*
X108794286Y-91806247D02*
X108794286Y-91663390D01*
X108794286Y-91663390D02*
X108841905Y-91472914D01*
X108841905Y-91472914D02*
X108889524Y-91377676D01*
X108889524Y-91377676D02*
X108984762Y-91282438D01*
X108984762Y-91282438D02*
X109127619Y-91234819D01*
X109127619Y-91234819D02*
X109222857Y-91234819D01*
X109222857Y-91234819D02*
X109365714Y-91282438D01*
X109365714Y-91282438D02*
X109413333Y-91330057D01*
X110270476Y-91568152D02*
X110270476Y-92234819D01*
X110032381Y-91187200D02*
X109794286Y-91901485D01*
X109794286Y-91901485D02*
X110413333Y-91901485D01*
D12*
X98277500Y-96437258D02*
X98277500Y-95962742D01*
X99322500Y-96437258D02*
X99322500Y-95962742D01*
X121637258Y-96277500D02*
X121162742Y-96277500D01*
X121637258Y-97322500D02*
X121162742Y-97322500D01*
X114227500Y-91137258D02*
X114227500Y-90662742D01*
X115272500Y-91137258D02*
X115272500Y-90662742D01*
X122115580Y-91090000D02*
X121834420Y-91090000D01*
X122115580Y-92110000D02*
X121834420Y-92110000D01*
X114790000Y-74590000D02*
X114790000Y-75540000D01*
X114790000Y-78110000D02*
X114100000Y-78110000D01*
X114790000Y-79060000D02*
X114790000Y-78110000D01*
X115740000Y-74590000D02*
X114790000Y-74590000D01*
X115740000Y-79060000D02*
X114790000Y-79060000D01*
X118710000Y-78690000D02*
X118710000Y-74960000D01*
X122212258Y-89277500D02*
X121737742Y-89277500D01*
X122212258Y-90322500D02*
X121737742Y-90322500D01*
X88600000Y-75860000D02*
X95100000Y-75860000D01*
X88600000Y-93860000D02*
X88600000Y-75860000D01*
X88600000Y-93860000D02*
X95100000Y-93860000D01*
X94600000Y-75860000D02*
X94600000Y-93810000D01*
X108350000Y-75860000D02*
X108600000Y-75860000D01*
X108600000Y-75860000D02*
X108600000Y-93860000D01*
X108600000Y-93860000D02*
X108350000Y-93860000D01*
X110762742Y-85877500D02*
X111237258Y-85877500D01*
X110762742Y-86922500D02*
X111237258Y-86922500D01*
X106015000Y-134625000D02*
X106015000Y-133825000D01*
X106015000Y-134625000D02*
X106015000Y-135425000D01*
X109135000Y-134625000D02*
X109135000Y-133825000D01*
X109135000Y-134625000D02*
X109135000Y-135425000D01*
X106065000Y-135925000D02*
X105735000Y-136165000D01*
X105735000Y-135685000D01*
X106065000Y-135925000D01*
G36*
X106065000Y-135925000D02*
G01*
X105735000Y-136165000D01*
X105735000Y-135685000D01*
X106065000Y-135925000D01*
G37*
X111100000Y-73790000D02*
X111100000Y-77650000D01*
X113100000Y-73790000D02*
X111100000Y-73790000D01*
X113100000Y-73790000D02*
X113100000Y-77650000D01*
X122212258Y-87477500D02*
X121737742Y-87477500D01*
X122212258Y-88522500D02*
X121737742Y-88522500D01*
X113262500Y-82240000D02*
X112612500Y-82240000D01*
X113262500Y-82240000D02*
X113912500Y-82240000D01*
X113262500Y-85360000D02*
X112612500Y-85360000D01*
X113262500Y-85360000D02*
X113912500Y-85360000D01*
X112100000Y-82290000D02*
X111860000Y-81960000D01*
X112340000Y-81960000D01*
X112100000Y-82290000D01*
G36*
X112100000Y-82290000D02*
G01*
X111860000Y-81960000D01*
X112340000Y-81960000D01*
X112100000Y-82290000D01*
G37*
X111977500Y-135362258D02*
X111977500Y-134887742D01*
X113022500Y-135362258D02*
X113022500Y-134887742D01*
X107777500Y-73337258D02*
X107777500Y-72862742D01*
X108822500Y-73337258D02*
X108822500Y-72862742D01*
X112390000Y-91040580D02*
X112390000Y-90759420D01*
X113410000Y-91040580D02*
X113410000Y-90759420D01*
X122212258Y-85677500D02*
X121737742Y-85677500D01*
X122212258Y-86722500D02*
X121737742Y-86722500D01*
X107184420Y-131115000D02*
X107465580Y-131115000D01*
X107184420Y-132135000D02*
X107465580Y-132135000D01*
X109862743Y-95802100D02*
X110337259Y-95802100D01*
X109862743Y-96847100D02*
X110337259Y-96847100D01*
X109977500Y-135362258D02*
X109977500Y-134887742D01*
X111022500Y-135362258D02*
X111022500Y-134887742D01*
X105677500Y-96462258D02*
X105677500Y-95987742D01*
X106722500Y-96462258D02*
X106722500Y-95987742D01*
X100840000Y-132575000D02*
X100840000Y-134860000D01*
X100840000Y-134860000D02*
X102310000Y-134860000D01*
X102310000Y-134860000D02*
X102310000Y-132575000D01*
X109677500Y-83837258D02*
X109677500Y-83362742D01*
X110722500Y-83837258D02*
X110722500Y-83362742D01*
X104315000Y-135265580D02*
X104315000Y-134984420D01*
X105335000Y-135265580D02*
X105335000Y-134984420D01*
X117827500Y-90662742D02*
X117827500Y-91137258D01*
X118872500Y-90662742D02*
X118872500Y-91137258D01*
X121462500Y-92640000D02*
X120812500Y-92640000D01*
X121462500Y-92640000D02*
X122112500Y-92640000D01*
X121462500Y-95760000D02*
X120812500Y-95760000D01*
X121462500Y-95760000D02*
X122112500Y-95760000D01*
X120300000Y-92690000D02*
X120060000Y-92360000D01*
X120540000Y-92360000D01*
X120300000Y-92690000D01*
G36*
X120300000Y-92690000D02*
G01*
X120060000Y-92360000D01*
X120540000Y-92360000D01*
X120300000Y-92690000D01*
G37*
D13*
X116125000Y-92750000D02*
X116275000Y-92750000D01*
X116125000Y-92900000D02*
X116125000Y-92750000D01*
X118825000Y-92750000D02*
X118675000Y-92750000D01*
X118825000Y-92750000D02*
X118825000Y-92900000D01*
X118825000Y-95450000D02*
X118675000Y-95450000D01*
X118835000Y-95450000D02*
X118835000Y-95300000D01*
D12*
X116125000Y-95810000D02*
X115765000Y-95450000D01*
X116125000Y-95450000D01*
X116125000Y-95810000D01*
G36*
X116125000Y-95810000D02*
G01*
X115765000Y-95450000D01*
X116125000Y-95450000D01*
X116125000Y-95810000D01*
G37*
X95090000Y-96059420D02*
X95090000Y-96340580D01*
X96110000Y-96059420D02*
X96110000Y-96340580D01*
X116027500Y-91137258D02*
X116027500Y-90662742D01*
X117072500Y-91137258D02*
X117072500Y-90662742D01*
X104312258Y-132102500D02*
X103837742Y-132102500D01*
X104312258Y-133147500D02*
X103837742Y-133147500D01*
X117715580Y-96290000D02*
X117434420Y-96290000D01*
X117715580Y-97310000D02*
X117434420Y-97310000D01*
X96690000Y-96059420D02*
X96690000Y-96340580D01*
X97710000Y-96059420D02*
X97710000Y-96340580D01*
X111270000Y-137250000D02*
X111270000Y-138050000D01*
X112630000Y-137250000D02*
X111270000Y-137250000D01*
X112630000Y-138050000D02*
X111270000Y-138050000D01*
D14*
X125518800Y-86877200D02*
X125518800Y-88561659D01*
X125518800Y-94438341D02*
X125518800Y-96122800D01*
X125518800Y-96122800D02*
X126001908Y-96122800D01*
X126001908Y-86877200D02*
X125518800Y-86877200D01*
X129054988Y-96122800D02*
X129481200Y-96122800D01*
X129481200Y-86877200D02*
X129054988Y-86877200D01*
X129481200Y-96122800D02*
X129481200Y-86877200D01*
D12*
X111312500Y-78540000D02*
X110662500Y-78540000D01*
X111312500Y-78540000D02*
X111962500Y-78540000D01*
X111312500Y-81660000D02*
X110662500Y-81660000D01*
X111312500Y-81660000D02*
X111962500Y-81660000D01*
X110150000Y-78590000D02*
X109910000Y-78260000D01*
X110390000Y-78260000D01*
X110150000Y-78590000D01*
G36*
X110150000Y-78590000D02*
G01*
X109910000Y-78260000D01*
X110390000Y-78260000D01*
X110150000Y-78590000D01*
G37*
X105977500Y-73337258D02*
X105977500Y-72862742D01*
X107022500Y-73337258D02*
X107022500Y-72862742D01*
X99262742Y-73577500D02*
X99737258Y-73577500D01*
X99262742Y-74622500D02*
X99737258Y-74622500D01*
D14*
X112253801Y-93698400D02*
X112253801Y-96390800D01*
X114946201Y-96390800D02*
X114946201Y-93698400D01*
X112501601Y-96844600D02*
G75*
G02*
X112298401Y-96844600I-101600J0D01*
G01*
X112298401Y-96844600D02*
G75*
G02*
X112501601Y-96844600I101600J0D01*
G01*
X105504200Y-140499698D02*
X105504200Y-141999998D01*
X114495800Y-140499698D02*
X105504200Y-140499698D01*
X114495800Y-141949998D02*
X114495800Y-140499698D01*
D12*
X110390001Y-93985180D02*
X110390001Y-93704020D01*
X111410001Y-93985180D02*
X111410001Y-93704020D01*
%LPC*%
D15*
X98800000Y-97025000D03*
X98800000Y-95375000D03*
D16*
X122225000Y-96800000D03*
X120575000Y-96800000D03*
D15*
X114750000Y-91725000D03*
X114750000Y-90075000D03*
D17*
X122750000Y-91600000D03*
X121200000Y-91600000D03*
D18*
X114750000Y-77450000D03*
X114750000Y-76200000D03*
D19*
X117500000Y-80000000D03*
X117500000Y-73650000D03*
D16*
X122800000Y-89800000D03*
X121150000Y-89800000D03*
D20*
X95700000Y-93610000D03*
X97200000Y-93610000D03*
X98700000Y-93610000D03*
X100200000Y-93610000D03*
X101700000Y-93610000D03*
X103200000Y-93610000D03*
X104700000Y-93610000D03*
X106200000Y-93610000D03*
X107700000Y-93610000D03*
X107700000Y-76110000D03*
X106200000Y-76110000D03*
X104700000Y-76110000D03*
X103200000Y-76110000D03*
X101700000Y-76110000D03*
X100200000Y-76110000D03*
X98700000Y-76110000D03*
X97200000Y-76110000D03*
X95700000Y-76110000D03*
D21*
X100800000Y-85000000D03*
X101900000Y-85000000D03*
X103000000Y-85000000D03*
X100800000Y-83950000D03*
X101900000Y-83950000D03*
X103000000Y-83950000D03*
X100800000Y-82800000D03*
X101900000Y-82800000D03*
X103000000Y-82800000D03*
D22*
X110175000Y-86400000D03*
X111825000Y-86400000D03*
D23*
X106625000Y-135762500D03*
X107575000Y-135762500D03*
X108525000Y-135762500D03*
X108525000Y-133487500D03*
X106625000Y-133487500D03*
D24*
X112100000Y-74600000D03*
X112100000Y-77400000D03*
D16*
X122800000Y-88000000D03*
X121150000Y-88000000D03*
D25*
X112325000Y-82850000D03*
X112325000Y-84750000D03*
X114200000Y-83800000D03*
D15*
X112500000Y-135950000D03*
X112500000Y-134300000D03*
X108300000Y-73925000D03*
X108300000Y-72275000D03*
D26*
X112900000Y-91675000D03*
X112900000Y-90125000D03*
D27*
X102500000Y-138700000D03*
X117500000Y-138700000D03*
D16*
X122800000Y-86200000D03*
X121150000Y-86200000D03*
D28*
X106550000Y-131625000D03*
X108100000Y-131625000D03*
D22*
X109275001Y-96324600D03*
X110925001Y-96324600D03*
D27*
X103500000Y-72500000D03*
D15*
X110500000Y-135950000D03*
X110500000Y-134300000D03*
X106200000Y-97050000D03*
X106200000Y-95400000D03*
D29*
X101575000Y-134162500D03*
X101575000Y-132587500D03*
D15*
X110200000Y-84425000D03*
X110200000Y-82775000D03*
D26*
X104825000Y-135900000D03*
X104825000Y-134350000D03*
D30*
X118350000Y-90075000D03*
X118350000Y-91725000D03*
D25*
X120525000Y-93250000D03*
X120525000Y-95150000D03*
X122400000Y-94200000D03*
D31*
X116450000Y-95075000D03*
X116450000Y-94425000D03*
X116450000Y-93775000D03*
X116450000Y-93125000D03*
X118500000Y-93125000D03*
X118500000Y-93775000D03*
X118500000Y-94425000D03*
X118500000Y-95075000D03*
D32*
X95600000Y-95425000D03*
X95600000Y-96975000D03*
D15*
X116550000Y-91725000D03*
X116550000Y-90075000D03*
D16*
X104900000Y-132625000D03*
X103250000Y-132625000D03*
D17*
X118350000Y-96800000D03*
X116800000Y-96800000D03*
D32*
X97200000Y-95425000D03*
X97200000Y-96975000D03*
D33*
X111710000Y-137650000D03*
X112550000Y-137650000D03*
D34*
X125645800Y-89249999D03*
X125645800Y-90749999D03*
X125645800Y-92250001D03*
X125645800Y-93750001D03*
D35*
X127528448Y-87199998D03*
X127528448Y-95800002D03*
D25*
X110375000Y-79150000D03*
X110375000Y-81050000D03*
X112250000Y-80100000D03*
D15*
X106500000Y-73925000D03*
X106500000Y-72275000D03*
D22*
X98675000Y-74100000D03*
X100325000Y-74100000D03*
D36*
X112800000Y-96289200D03*
X113600001Y-96289200D03*
X114400002Y-96289200D03*
X114400002Y-93800000D03*
X113600001Y-93800000D03*
X112800000Y-93800000D03*
D37*
X113600001Y-95044600D03*
D38*
X110499999Y-142100000D03*
D39*
X108480000Y-142100000D03*
D40*
X107250000Y-142100000D03*
D38*
X109500001Y-142100000D03*
D39*
X111520000Y-142100000D03*
D40*
X112750000Y-142100000D03*
D41*
X114269999Y-142900001D03*
X105730001Y-142900001D03*
D26*
X110900001Y-94619600D03*
X110900001Y-93069600D03*
%LPD*%
M02*
